<svg width="738" height="208" viewBox="0 0 738 208" fill="none" xmlns="http://www.w3.org/2000/svg">
<path fill-rule="evenodd" clip-rule="evenodd" d="M38.8736 42.7397H81.9097L81.9036 43.7458C81.829 56.1346 78.0493 66.4355 70.5242 74.5625C62.9871 82.6273 53.2916 86.6497 41.5236 86.6497C29.9106 86.6497 20.1557 82.7808 12.3299 75.0302C4.57682 67.2018 0.703613 57.3655 0.703613 45.6097C0.703613 33.7856 4.52994 23.9198 12.2097 16.0895C19.8907 8.25786 29.5775 4.34973 41.1936 4.34973C51.0044 4.34973 59.6172 7.16293 66.9889 12.8037C74.3643 18.3738 78.9741 25.6241 80.7836 34.5204L81.0275 35.7197H61.9633L61.7135 35.0869C60.6633 32.4265 59.1646 30.1653 57.2195 28.2896C55.2705 26.3406 52.9214 24.8257 50.1846 23.7731C47.5236 22.7227 44.6343 22.1897 41.5236 22.1897C34.951 22.1897 29.689 24.3688 25.6439 28.6929C21.5906 33.0258 19.5336 38.6348 19.5336 45.6097C19.5336 50.1644 20.4578 54.1825 22.2808 57.6884C24.1038 61.194 26.6514 63.9132 29.9315 65.8683C33.2805 67.8209 37.1348 68.8097 41.5236 68.8097C44.7102 68.8097 47.7073 68.2791 50.5225 67.2234C53.3406 66.1666 55.7138 64.6961 57.6595 62.8199C59.3028 61.2332 60.5681 59.4968 61.4663 57.6097H38.8736V42.7397ZM62.9736 56.6097C62.8482 56.9475 62.7125 57.2808 62.5667 57.6097C61.6048 59.7799 60.2004 61.7566 58.3536 63.5397C56.3003 65.5197 53.8069 67.0597 50.8736 68.1597C47.9403 69.2597 44.8236 69.8097 41.5236 69.8097C36.9769 69.8097 32.9436 68.7831 29.4236 66.7297C25.9769 64.6764 23.3003 61.8164 21.3936 58.1497C19.4869 54.4831 18.5336 50.3031 18.5336 45.6097C18.5336 38.4231 20.6603 32.5564 24.9136 28.0097C29.1669 23.4631 34.7036 21.1897 41.5236 21.1897C44.7503 21.1897 47.7569 21.7397 50.5436 22.8397C53.4036 23.9397 55.8603 25.5164 57.9136 27.5697C59.9669 29.5497 61.5436 31.9331 62.6436 34.7197H79.8036C79.7353 34.384 79.663 34.0506 79.5865 33.7197C77.6924 25.5225 73.2914 18.8158 66.3836 13.5997C59.1969 8.09972 50.8003 5.34973 41.1936 5.34973C29.8269 5.34973 20.4036 9.16306 12.9236 16.7897C5.44361 24.4164 1.70361 34.0231 1.70361 45.6097C1.70361 57.1231 5.48028 66.6931 13.0336 74.3197C20.6603 81.8731 30.1569 85.6497 41.5236 85.6497C53.0369 85.6497 62.4603 81.7264 69.7936 73.8797C76.9252 66.1777 80.6237 56.4643 80.8893 44.7397C80.8968 44.408 80.9016 44.0747 80.9036 43.7397H39.8736V56.6097H62.9736ZM92.0166 70.8644C89.2147 65.8664 87.8099 60.3275 87.8099 54.2997C87.8099 45.0285 90.9493 37.2846 97.2414 31.144C103.532 25.0052 111.454 21.9497 120.93 21.9497C130.335 21.9497 138.219 25.0067 144.508 31.144C150.8 37.2846 153.94 45.0285 153.94 54.2997C153.94 63.5039 150.76 71.2457 144.398 77.4553C138.111 83.5911 130.264 86.6497 120.93 86.6497C114.689 86.6497 109.02 85.257 103.946 82.4551C98.8781 79.6562 94.8957 75.7893 92.0166 70.8644ZM131.544 43.3381C128.82 40.4778 125.271 39.0197 120.82 39.0197C116.447 39.0197 112.941 40.4658 110.214 43.3294C107.488 46.1236 106.09 49.7559 106.09 54.2997C106.09 56.5349 106.438 58.6155 107.126 60.5488C107.888 62.4828 108.915 64.0808 110.197 65.3626C111.493 66.6588 113.032 67.6873 114.823 68.4461C116.671 69.1978 118.702 69.5797 120.93 69.5797C125.308 69.5797 128.816 68.1662 131.54 65.3751C134.272 62.5048 135.66 58.8406 135.66 54.2997C135.66 49.7559 134.27 46.1323 131.544 43.3381ZM114.44 69.3697C112.533 68.5631 110.883 67.4631 109.49 66.0697C108.097 64.6764 106.997 62.9531 106.19 60.8997C105.457 58.8464 105.09 56.6464 105.09 54.2997C105.09 49.5331 106.557 45.6464 109.49 42.6397C112.423 39.5597 116.2 38.0197 120.82 38.0197C125.513 38.0197 129.327 39.5597 132.26 42.6397C135.193 45.6464 136.66 49.5331 136.66 54.2997C136.66 59.0664 135.193 62.9897 132.26 66.0697C129.327 69.0764 125.55 70.5797 120.93 70.5797C118.583 70.5797 116.42 70.1764 114.44 69.3697ZM200.966 68.6997V84.9997H188.636C184.178 84.9997 180.237 84.1302 176.842 82.356C173.515 80.5761 170.944 78.0089 169.164 74.6814C167.389 71.2848 166.516 67.2977 166.516 62.7697V38.4697H155.736V33.6627L179.844 8.08972H184.246V23.5997H200.636V38.4697H184.576V60.6797C184.576 63.3471 185.287 65.3042 186.593 66.6824C187.967 67.9843 189.957 68.6997 192.706 68.6997H200.966ZM185.886 67.3897C184.346 65.7764 183.576 63.5397 183.576 60.6797V37.4697H199.636V24.5997H183.246V9.08972H180.276L156.736 34.0597V37.4697H167.516V62.7697C167.516 67.1697 168.359 70.9831 170.046 74.2097C171.732 77.3631 174.152 79.7831 177.306 81.4697C180.532 83.1564 184.309 83.9997 188.636 83.9997H199.966V69.6997H192.706C189.772 69.6997 187.499 68.9297 185.886 67.3897ZM285.021 23.4897H298.75V84.8897H284.319L283.193 80.3865C277.847 84.5621 271.613 86.6497 264.53 86.6497C255.337 86.6497 247.633 83.5875 241.493 77.4468C235.429 71.232 232.4 63.4495 232.4 54.1897C232.4 45.0008 235.423 37.2985 241.488 31.157C247.629 25.0164 255.337 21.9497 264.53 21.9497C271.782 21.9497 278.117 24.1206 283.49 28.465L285.021 23.4897ZM284 30.2097C283.727 29.9662 283.451 29.7288 283.173 29.4976C277.917 25.1323 271.703 22.9497 264.53 22.9497C255.583 22.9497 248.14 25.9197 242.2 31.8597C236.333 37.7997 233.4 45.2431 233.4 54.1897C233.4 63.2097 236.333 70.7264 242.2 76.7397C248.14 82.6797 255.583 85.6497 264.53 85.6497C271.552 85.6497 277.684 83.5403 282.927 79.3215C283.214 79.0905 283.498 78.8533 283.78 78.6097L285.1 83.8897H297.75V24.4897H285.76L284 30.2097ZM257.989 40.9764C255.729 42.2774 253.95 44.0882 252.643 46.4275C251.345 48.6805 250.68 51.2664 250.68 54.1897C250.68 58.6453 252.097 62.2715 254.9 65.1462C257.78 68.024 261.369 69.4697 265.74 69.4697C270.191 69.4697 273.816 68.0196 276.693 65.1426C279.57 62.2656 281.02 58.6406 281.02 54.1897C281.02 49.7389 279.57 46.1138 276.693 43.2368C273.812 40.3566 270.222 38.9097 265.85 38.9097C262.936 38.9097 260.318 39.606 257.989 40.9764ZM254.19 65.8497C257.27 68.9297 261.12 70.4697 265.74 70.4697C270.433 70.4697 274.32 68.9297 277.4 65.8497C280.48 62.7697 282.02 58.8831 282.02 54.1897C282.02 49.4964 280.48 45.6097 277.4 42.5297C274.32 39.4497 270.47 37.9097 265.85 37.9097C262.77 37.9097 259.983 38.6431 257.49 40.1097C255.07 41.5031 253.163 43.4464 251.77 45.9397C250.376 48.3597 249.68 51.1097 249.68 54.1897C249.68 58.8831 251.183 62.7697 254.19 65.8497ZM394.892 77.5569C388.754 83.6958 381.087 86.7597 371.965 86.7597C366.33 86.7597 361.193 85.3859 356.575 82.6339V106.45H338.515V23.5997H350.798L353.251 28.4072C358.523 24.0999 364.777 21.9497 371.965 21.9497C381.156 21.9497 388.825 25.0111 394.893 31.1536C401.035 37.2957 404.095 45.0366 404.095 54.2997C404.095 63.5633 401.031 71.3429 394.892 77.5569ZM353.716 29.3194C358.837 25.0729 364.92 22.9497 371.965 22.9497C380.912 22.9497 388.319 25.9197 394.185 31.8597C400.125 37.7997 403.095 45.2797 403.095 54.2997C403.095 63.3197 400.125 70.8364 394.185 76.8497C388.245 82.7897 380.839 85.7597 371.965 85.7597C366.294 85.7597 361.164 84.3273 356.575 81.4625C356.239 81.2526 355.906 81.035 355.575 80.8097V105.45H339.515V24.5997H350.185L352.935 29.9897C353.193 29.7607 353.453 29.5372 353.716 29.3194ZM378.408 40.9827C376.155 39.6854 373.569 39.0197 370.645 39.0197C367.722 39.0197 365.106 39.6791 362.773 40.9827C360.445 42.2838 358.637 44.0903 357.334 46.4169C356.101 48.7508 355.475 51.3715 355.475 54.2997C355.475 58.756 356.893 62.3828 359.698 65.2577C362.577 68.1345 366.165 69.5797 370.535 69.5797C374.986 69.5797 378.611 68.1296 381.488 65.2526C384.365 62.3756 385.815 58.7506 385.815 54.2997C385.815 51.3767 385.156 48.7602 383.852 46.4275C382.549 44.0957 380.739 42.2857 378.408 40.9827ZM358.985 65.9597C362.065 69.0397 365.915 70.5797 370.535 70.5797C375.229 70.5797 379.115 69.0397 382.195 65.9597C385.275 62.8797 386.815 58.9931 386.815 54.2997C386.815 51.2197 386.119 48.4331 384.725 45.9397C383.332 43.4464 381.389 41.5031 378.895 40.1097C376.475 38.7164 373.725 38.0197 370.645 38.0197C367.565 38.0197 364.779 38.7164 362.285 40.1097C359.792 41.5031 357.849 43.4464 356.455 45.9397C355.135 48.4331 354.475 51.2197 354.475 54.2997C354.475 58.9931 355.979 62.8797 358.985 65.9597ZM451.136 23.2697V40.4497H443.206C438.788 40.4497 435.861 41.4855 434.154 43.3145C432.497 45.1678 431.556 48.3441 431.556 53.0897V84.9997H413.496V23.5997H425.517L428.019 29.953C432.187 25.4796 437.836 23.2697 444.856 23.2697H451.136ZM428.428 30.9898C428.178 31.271 427.934 31.5609 427.696 31.8597L424.836 24.5997H414.496V83.9997H430.556V53.0897C430.556 48.2497 431.509 44.7664 433.416 42.6397C435.396 40.5131 438.659 39.4497 443.206 39.4497H450.136V24.2697H444.856C437.886 24.2697 432.411 26.5098 428.428 30.9898ZM496.886 43.3381C494.162 40.4778 490.613 39.0197 486.162 39.0197C481.789 39.0197 478.275 40.4745 475.548 43.3381C472.821 46.1323 471.432 49.7559 471.432 54.2997C471.432 56.5348 471.78 58.6153 472.468 60.5486C473.23 62.4827 474.257 64.0807 475.539 65.3626C476.835 66.6587 478.373 67.6871 480.165 68.4459C482.012 69.1977 484.044 69.5797 486.272 69.5797C490.65 69.5797 494.157 68.1664 496.882 65.3758C499.613 62.5054 501.002 58.8409 501.002 54.2997C501.002 49.7559 499.612 46.1323 496.886 43.3381ZM497.602 66.0697C494.668 69.0764 490.892 70.5797 486.272 70.5797C483.925 70.5797 481.762 70.1764 479.782 69.3697C477.875 68.5631 476.225 67.4631 474.832 66.0697C473.438 64.6764 472.338 62.9531 471.532 60.8997C470.798 58.8464 470.432 56.6464 470.432 54.2997C470.432 49.5331 471.898 45.6464 474.832 42.6397C477.765 39.5597 481.542 38.0197 486.162 38.0197C490.855 38.0197 494.668 39.5597 497.602 42.6397C500.535 45.6464 502.002 49.5331 502.002 54.2997C502.002 59.0664 500.535 62.9897 497.602 66.0697ZM530.297 17.6797V0.719727H548.247V17.6797H530.297ZM516.327 106.45V89.7097H522.497C525.236 89.7097 527.108 89.0173 528.303 87.8071C529.5 86.5945 530.187 84.6921 530.187 81.9097V23.5997H548.247V83.1197C548.247 89.88 546.073 95.4966 541.687 99.8842C537.368 104.278 531.746 106.45 524.917 106.45H516.327ZM540.977 99.1797C545.157 94.9997 547.247 89.6464 547.247 83.1197V24.5997H531.187V81.9097C531.187 87.7764 528.29 90.7097 522.497 90.7097H517.327V105.45H524.917C531.517 105.45 536.87 103.36 540.977 99.1797ZM620.813 59.8097H576.27C576.993 63.0865 578.398 65.5925 580.44 67.399C582.793 69.3441 585.814 70.3497 589.581 70.3497C592.14 70.3497 594.428 69.7989 596.468 68.7137C598.514 67.5521 600.105 65.9914 601.258 64.024L601.548 63.5297H620.458L620.007 64.8524C617.744 71.4921 613.882 76.7998 608.426 80.7404C602.965 84.6842 596.671 86.6497 589.581 86.6497C580.525 86.6497 572.929 83.5443 566.865 77.328C560.805 71.1166 557.781 63.4178 557.781 54.2997C557.781 50.6883 558.27 47.2192 559.252 43.8964C560.307 40.5777 561.789 37.566 563.687 34.9085C565.649 32.2673 567.927 29.9829 570.5 28.0899C573.087 26.1134 576.009 24.5975 579.261 23.5389C582.52 22.4777 585.962 21.9497 589.581 21.9497C595.683 21.9497 601.179 23.3832 606.04 26.269C610.96 29.1464 614.722 33.0568 617.304 37.9902C619.951 42.9077 621.271 48.2767 621.271 54.0797C621.271 55.6674 621.157 57.2893 620.931 58.9448L620.813 59.8097ZM605.531 27.1297C600.837 24.3431 595.521 22.9497 589.581 22.9497C586.061 22.9497 582.724 23.4631 579.571 24.4897C576.417 25.5164 573.594 26.9831 571.101 28.8897C568.607 30.7231 566.407 32.9231 564.501 35.4897C562.667 38.0564 561.237 40.9531 560.211 44.1797C559.257 47.4064 558.781 50.7797 558.781 54.2997C558.781 63.1731 561.714 70.6164 567.581 76.6297C573.447 82.6431 580.781 85.6497 589.581 85.6497C596.474 85.6497 602.561 83.7431 607.841 79.9297C612.845 76.3155 616.466 71.5155 618.703 65.5297C618.827 65.2 618.946 64.8667 619.061 64.5297H602.121C600.874 66.6564 599.151 68.3431 596.951 69.5897C594.751 70.7631 592.294 71.3497 589.581 71.3497C585.621 71.3497 582.357 70.2864 579.791 68.1597C577.507 66.1451 575.993 63.3618 575.247 59.8097C575.178 59.4829 575.116 59.1496 575.061 58.8097H619.941C620.161 57.1964 620.271 55.6197 620.271 54.0797C620.271 48.4331 618.987 43.2264 616.421 38.4597C613.927 33.6931 610.297 29.9164 605.531 27.1297ZM600.264 42.4133C598.968 40.8448 597.392 39.6401 595.554 38.8235C593.794 38.011 591.8 37.5897 589.581 37.5897C586.185 37.5897 583.371 38.5197 581.078 40.3383C579.138 41.9278 577.713 44.0699 576.826 46.8097H602.815C602.156 45.0761 601.302 43.6156 600.264 42.4133ZM603.881 46.8097C603.997 47.135 604.107 47.4684 604.211 47.8097H575.501C575.586 47.4692 575.678 47.1359 575.778 46.8097C576.707 43.7648 578.265 41.3482 580.451 39.5597C582.944 37.5797 585.987 36.5897 589.581 36.5897C591.927 36.5897 594.054 37.0297 595.961 37.9097C597.941 38.7897 599.627 40.0731 601.021 41.7597C602.217 43.1455 603.171 44.8288 603.881 46.8097ZM642.756 82.4476C637.837 79.572 633.929 75.6277 631.056 70.6387C628.254 65.6407 626.853 60.1075 626.853 54.0797C626.853 44.9539 629.956 37.2864 636.17 31.1483C642.384 25.0101 650.159 21.9497 659.423 21.9497C667.33 21.9497 674.157 24.2519 679.851 28.8813C685.545 33.4376 689.144 39.5162 690.653 47.0636L690.893 48.2597H673.083L672.815 47.6788C671.573 44.9875 669.757 42.9024 667.361 41.3964C665.045 39.8298 662.355 39.0197 659.313 39.0197C655.256 39.0197 651.89 40.4505 649.149 43.3268C646.483 46.2017 645.133 49.7983 645.133 54.1897C645.133 58.5771 646.517 62.2146 649.265 65.1686C652.012 68.1215 655.341 69.5797 659.313 69.5797C662.351 69.5797 665.009 68.7902 667.323 67.2278C669.641 65.5894 671.474 63.2539 672.805 60.1733L673.065 59.5697H691.106L690.874 60.7603C689.367 68.5253 685.734 74.8223 679.971 79.5996C674.204 84.304 667.297 86.6497 659.313 86.6497C653.285 86.6497 647.754 85.2495 642.756 82.4476ZM667.893 68.0497C665.399 69.7364 662.539 70.5797 659.313 70.5797C655.059 70.5797 651.466 69.0031 648.533 65.8497C645.599 62.6964 644.133 58.8097 644.133 54.1897C644.133 49.5697 645.563 45.7197 648.423 42.6397C651.356 39.5597 654.986 38.0197 659.313 38.0197C662.539 38.0197 665.399 38.8631 667.893 40.5497C670.459 42.1631 672.403 44.3997 673.723 47.2597H689.673C689.606 46.9233 689.534 46.59 689.458 46.2597C687.882 39.3912 684.471 33.8579 679.223 29.6597C673.723 25.1864 667.123 22.9497 659.423 22.9497C650.403 22.9497 642.886 25.9197 636.873 31.8597C630.859 37.7997 627.853 45.2064 627.853 54.0797C627.853 59.9464 629.209 65.2997 631.923 70.1397C634.709 74.9797 638.486 78.7931 643.253 81.5797C648.093 84.2931 653.446 85.6497 659.313 85.6497C667.086 85.6497 673.759 83.3764 679.333 78.8297C684.658 74.4154 688.109 68.6621 689.685 61.5697C689.758 61.2393 689.828 60.906 689.893 60.5697H673.723C672.329 63.7964 670.386 66.2897 667.893 68.0497ZM737.431 68.6997V84.9997H725.101C720.643 84.9997 716.702 84.1302 713.307 82.356C709.98 80.5761 707.409 78.0089 705.629 74.6814C703.853 71.2848 702.981 67.2977 702.981 62.7697V38.4697H692.201V33.6627L716.309 8.08972H720.711V23.5997H737.101V38.4697H721.041V60.6797C721.041 63.3472 721.752 65.3043 723.058 66.6825C724.432 67.9844 726.422 68.6997 729.171 68.6997H737.431ZM722.351 67.3897C720.811 65.7764 720.041 63.5397 720.041 60.6797V37.4697H736.101V24.5997H719.711V9.08972H716.741L693.201 34.0597V37.4697H703.981V62.7697C703.981 67.1697 704.824 70.9831 706.511 74.2097C708.197 77.3631 710.617 79.7831 713.771 81.4697C716.997 83.1564 720.774 83.9997 725.101 83.9997H736.431V69.6997H729.171C726.237 69.6997 723.964 68.9297 722.351 67.3897ZM141.181 138.68V121.72H159.241V138.68H141.181ZM141.181 206V144.6H159.241V206H141.181ZM230.426 206H212.366V171.56C212.366 167.225 211.519 164.158 209.991 162.191C208.5 160.272 206.242 159.25 203.026 159.25C200.474 159.25 198.278 159.833 196.402 160.97C194.607 162.102 193.193 163.739 192.167 165.923C191.21 168.115 190.716 170.719 190.716 173.76V206H172.656V144.6H185.313L188.127 151.102C189.004 150.153 189.957 149.298 190.989 148.538C192.512 147.395 194.15 146.442 195.901 145.68C197.653 144.843 199.482 144.234 201.386 143.852C203.365 143.396 205.416 143.17 207.536 143.17C214.53 143.17 220.139 145.539 224.241 150.333C228.398 155.033 230.426 161.302 230.426 169.03V206ZM201.596 144.83C199.763 145.196 198.003 145.783 196.316 146.59C194.629 147.323 193.053 148.24 191.586 149.34C190.487 150.149 189.48 151.073 188.564 152.11C188.318 152.389 188.079 152.675 187.846 152.97L184.656 145.6H173.656V205H189.716V173.76C189.716 170.606 190.229 167.856 191.256 165.51C192.356 163.163 193.896 161.366 195.876 160.12C197.929 158.873 200.313 158.25 203.026 158.25C209.919 158.25 213.366 162.686 213.366 171.56V205H229.426V169.03C229.426 161.476 227.446 155.463 223.486 150.99C219.599 146.443 214.283 144.17 207.536 144.17C205.483 144.17 203.503 144.39 201.596 144.83ZM359.993 206H341.933V170.35C341.933 166.412 341.194 163.64 339.876 161.872C338.6 160.16 336.673 159.25 333.913 159.25C331.741 159.25 329.886 159.79 328.308 160.842C326.822 161.811 325.649 163.287 324.832 165.331C324.011 167.383 323.583 169.891 323.583 172.88V206H305.853V170.35C305.853 166.406 305.14 163.628 303.868 161.858C302.641 160.149 300.799 159.25 298.163 159.25C294.76 159.25 292.204 160.424 290.364 162.724C288.5 165.054 287.503 168.396 287.503 172.88V206H269.443V144.6H282.338L284.948 151.077C287.004 148.849 289.389 147.054 292.102 145.697C295.391 144.015 298.845 143.17 302.453 143.17C306.349 143.17 309.894 144.05 313.062 145.828C315.789 147.357 318.006 149.407 319.703 151.969C320.186 151.372 320.685 150.815 321.201 150.298C322.046 149.378 322.971 148.568 323.973 147.872C324.961 147.114 325.99 146.465 327.061 145.928C328.136 145.315 329.27 144.81 330.425 144.425C331.634 144.047 332.856 143.742 334.069 143.515C335.372 143.285 336.677 143.17 337.983 143.17C344.413 143.17 349.714 145.48 353.8 150.105C357.95 154.718 359.993 160.615 359.993 167.71V206ZM353.053 150.77C349.166 146.37 344.143 144.17 337.983 144.17C336.736 144.17 335.49 144.28 334.243 144.5C333.07 144.72 331.896 145.013 330.723 145.38C329.623 145.746 328.56 146.223 327.533 146.81C326.506 147.323 325.516 147.946 324.563 148.68C323.61 149.34 322.73 150.11 321.923 150.99C321.352 151.561 320.799 152.187 320.265 152.868C320.045 153.149 319.827 153.44 319.613 153.74C319.434 153.421 319.248 153.11 319.055 152.807C317.422 150.243 315.261 148.208 312.573 146.7C309.566 145.013 306.193 144.17 302.453 144.17C299.006 144.17 295.706 144.976 292.553 146.59C289.807 147.963 287.411 149.802 285.364 152.108C285.115 152.388 284.872 152.676 284.633 152.97L281.663 145.6H270.443V205H286.503V172.88C286.503 168.26 287.53 164.666 289.583 162.1C291.636 159.533 294.496 158.25 298.163 158.25C303.956 158.25 306.853 162.283 306.853 170.35V205H322.583V172.88C322.583 169.8 323.023 167.16 323.903 164.96C324.783 162.76 326.066 161.11 327.753 160.01C329.513 158.836 331.566 158.25 333.913 158.25C339.926 158.25 342.933 162.283 342.933 170.35V205H358.993V167.71C358.993 160.816 357.013 155.17 353.053 150.77ZM372.676 138.68V121.72H390.736V138.68H372.676ZM372.676 206V144.6H390.736V206H372.676ZM461.92 206H443.86V171.56C443.86 167.225 443.013 164.158 441.485 162.191C439.995 160.272 437.736 159.25 434.52 159.25C431.969 159.25 429.772 159.833 427.896 160.97C426.102 162.102 424.687 163.738 423.661 165.922C422.704 168.114 422.21 170.719 422.21 173.76V206H404.15V144.6H416.807L419.621 151.102C420.498 150.153 421.452 149.298 422.483 148.538C424.007 147.395 425.644 146.442 427.395 145.68C429.147 144.843 430.976 144.234 432.88 143.852C434.859 143.396 436.91 143.17 439.03 143.17C446.025 143.17 451.634 145.539 455.736 150.335C459.892 155.034 461.92 161.303 461.92 169.03V206ZM433.09 144.83C431.257 145.196 429.497 145.783 427.81 146.59C426.123 147.323 424.547 148.24 423.08 149.34C421.981 150.149 420.974 151.073 420.058 152.11C419.812 152.389 419.573 152.675 419.34 152.97L416.15 145.6H405.15V205H421.21V173.76C421.21 170.606 421.723 167.856 422.75 165.51C423.85 163.163 425.39 161.366 427.37 160.12C429.423 158.873 431.807 158.25 434.52 158.25C441.413 158.25 444.86 162.686 444.86 171.56V205H460.92V169.03C460.92 161.476 458.94 155.463 454.98 150.99C451.093 146.443 445.777 144.17 439.03 144.17C436.977 144.17 434.997 144.39 433.09 144.83ZM518.289 123.15H536.349V206H522.778L521.152 201.698C515.928 205.739 509.868 207.76 503.009 207.76C496.91 207.76 491.384 206.365 486.454 203.559C481.531 200.757 477.662 196.887 474.86 191.964C472.134 186.966 470.769 181.394 470.769 175.3C470.769 169.206 472.125 163.683 474.854 158.755C477.656 153.832 481.531 149.953 486.454 147.151C491.384 144.344 496.91 142.95 503.009 142.95C508.579 142.95 513.679 144.294 518.289 146.986V123.15ZM519.289 148.79C518.958 148.569 518.625 148.356 518.289 148.151C513.705 145.35 508.611 143.95 503.009 143.95C497.069 143.95 491.716 145.306 486.949 148.02C482.182 150.733 478.442 154.473 475.729 159.24C473.089 164.006 471.769 169.36 471.769 175.3C471.769 181.24 473.089 186.63 475.729 191.47C478.442 196.236 482.182 199.976 486.949 202.69C491.716 205.403 497.069 206.76 503.009 206.76C509.759 206.76 515.683 204.746 520.782 200.718C521.057 200.501 521.329 200.278 521.599 200.05L523.469 205H535.349V124.15H519.289V148.79ZM493.376 186.253C496.256 189.133 499.846 190.58 504.219 190.58C508.668 190.58 512.292 189.131 515.168 186.256C518.053 183.3 519.499 179.67 519.499 175.3C519.499 170.849 518.049 167.224 515.172 164.347C512.295 161.47 508.67 160.02 504.219 160.02C499.846 160.02 496.256 161.467 493.376 164.347C490.499 167.224 489.049 170.849 489.049 175.3C489.049 179.751 490.499 183.376 493.376 186.253ZM515.879 186.96C512.799 190.04 508.912 191.58 504.219 191.58C499.599 191.58 495.749 190.04 492.669 186.96C489.589 183.88 488.049 179.993 488.049 175.3C488.049 170.606 489.589 166.72 492.669 163.64C495.749 160.56 499.599 159.02 504.219 159.02C508.912 159.02 512.799 160.56 515.879 163.64C518.959 166.72 520.499 170.606 520.499 175.3C520.499 179.92 518.959 183.806 515.879 186.96ZM561.917 182.02V178.6C561.917 175.816 562.217 173.304 562.833 171.074C563.526 168.841 564.544 166.861 565.879 165.211C567.214 163.579 568.397 162.314 569.416 161.45C570.475 160.542 571.896 159.459 573.669 158.204C575.41 156.97 576.699 156.003 577.548 155.297C578.325 154.581 579.101 153.578 579.865 152.259C580.583 150.95 580.947 149.506 580.947 147.91C580.947 145.228 580.047 143.159 578.305 141.61C576.516 139.954 574.371 139.12 571.827 139.12C569.282 139.12 567.049 139.956 565.102 141.634C563.232 143.181 562.224 145.353 562.156 148.263L562.134 149.24H545.073L545.087 148.226C545.163 142.853 546.527 138.149 549.215 134.155C551.872 130.132 555.199 127.178 559.198 125.332C563.149 123.508 567.399 122.6 571.937 122.6C579.205 122.6 585.458 124.879 590.638 129.45C595.938 134.061 598.567 140.25 598.567 147.91C598.567 150.473 598.266 152.802 597.651 154.887C597.102 156.994 596.16 158.878 594.824 160.529C593.564 162.086 592.465 163.302 591.532 164.157C590.633 164.981 589.335 166.094 587.644 167.491C585.817 168.879 584.458 169.982 583.612 170.757C582.839 171.466 582.022 172.539 581.174 174.02C580.452 175.404 580.087 176.925 580.087 178.6V182.02H561.917ZM580.297 173.54C581.177 172 582.057 170.826 582.937 170.02C583.817 169.213 585.173 168.113 587.007 166.72C588.693 165.326 589.977 164.226 590.857 163.42C591.737 162.613 592.8 161.44 594.047 159.9C595.293 158.36 596.173 156.6 596.687 154.62C597.273 152.64 597.567 150.403 597.567 147.91C597.567 140.503 595.037 134.6 589.977 130.2C584.99 125.8 578.977 123.6 571.937 123.6C567.537 123.6 563.43 124.48 559.617 126.24C555.803 128 552.613 130.823 550.047 134.71C547.646 138.277 546.336 142.453 546.117 147.24C546.101 147.57 546.091 147.903 546.087 148.24H561.157C561.23 145.086 562.33 142.63 564.457 140.87C566.583 139.036 569.04 138.12 571.827 138.12C574.613 138.12 576.997 139.036 578.977 140.87C580.957 142.63 581.947 144.976 581.947 147.91C581.947 149.67 581.543 151.283 580.737 152.75C579.93 154.143 579.087 155.243 578.207 156.05C577.327 156.783 576.007 157.773 574.247 159.02C572.487 160.266 571.093 161.33 570.067 162.21C569.113 163.016 567.977 164.226 566.657 165.84C565.41 167.38 564.457 169.213 563.797 171.34C563.21 173.466 562.917 175.886 562.917 178.6V181.02H579.087V178.6C579.087 176.766 579.49 175.08 580.297 173.54ZM561.477 206V186.84H580.527V206H561.477ZM104.43 81.5797C109.343 84.2931 114.843 85.6497 120.93 85.6497C130.023 85.6497 137.613 82.6797 143.7 76.7397C149.86 70.7264 152.94 63.2464 152.94 54.2997C152.94 45.2797 149.897 37.7997 143.81 31.8597C137.723 25.9197 130.097 22.9497 120.93 22.9497C111.69 22.9497 104.027 25.9197 97.9399 31.8597C91.8532 37.7997 88.8099 45.2797 88.8099 54.2997C88.8099 60.1664 90.1665 65.5197 92.8799 70.3597C95.6665 75.1264 99.5165 78.8664 104.43 81.5797ZM531.297 16.6797H547.247V1.71973H531.297V16.6797ZM142.181 137.68H158.241V122.72H142.181V137.68ZM142.181 205H158.241V145.6H142.181V205ZM373.676 137.68H389.736V122.72H373.676V137.68ZM373.676 205H389.736V145.6H373.676V205ZM562.477 205H579.527V187.84H562.477V205Z" fill="#D9D9D9"/>
<path fill-rule="evenodd" clip-rule="evenodd" d="M457.358 70.8644C460.238 75.7893 464.22 79.6562 469.288 82.4551C474.362 85.257 480.031 86.6497 486.272 86.6497C495.606 86.6497 503.453 83.5911 509.74 77.4553C516.101 71.2457 519.282 63.5039 519.282 54.2997C519.282 45.0285 516.142 37.2846 509.85 31.144C503.561 25.0067 495.677 21.9497 486.272 21.9497C476.795 21.9497 468.874 25.0052 462.583 31.144C456.291 37.2846 453.152 45.0285 453.152 54.2997C453.152 60.3275 454.556 65.8664 457.358 70.8644ZM509.042 76.7397C515.202 70.7264 518.282 63.2464 518.282 54.2997C518.282 45.2797 515.238 37.7997 509.152 31.8597C503.065 25.9197 495.438 22.9497 486.272 22.9497C477.032 22.9497 469.368 25.9197 463.282 31.8597C457.195 37.7997 454.152 45.2797 454.152 54.2997C454.152 60.1664 455.508 65.5197 458.222 70.3597C461.008 75.1264 464.858 78.8664 469.772 81.5797C474.685 84.2931 480.185 85.6497 486.272 85.6497C495.365 85.6497 502.955 82.6797 509.042 76.7397Z" fill="#D9D9D9"/>
</svg>
