<svg width="16" height="16" viewBox="0 0 16 16" fill="none" xmlns="http://www.w3.org/2000/svg">
<path fill-rule="evenodd" clip-rule="evenodd" d="M8 14.5C11.5899 14.5 14.5 11.5899 14.5 8C14.5 4.41015 11.5899 1.5 8 1.5C4.41015 1.5 1.5 4.41015 1.5 8C1.5 11.5899 4.41015 14.5 8 14.5ZM8 16C12.4183 16 16 12.4183 16 8C16 3.58172 12.4183 0 8 0C3.58172 0 0 3.58172 0 8C0 12.4183 3.58172 16 8 16Z" fill="currentColor"/>
<path fill-rule="evenodd" clip-rule="evenodd" d="M12.0303 5.46967C12.3232 5.76256 12.3232 6.23744 12.0303 6.53033L7.53033 11.0303C7.23744 11.3232 6.76256 11.3232 6.46967 11.0303L4.46967 9.03033C4.17678 8.73744 4.17678 8.26256 4.46967 7.96967C4.76256 7.67678 5.23744 7.67678 5.53033 7.96967L7 9.43934L10.9697 5.46967C11.2626 5.17678 11.7374 5.17678 12.0303 5.46967Z" fill="currentColor"/>
</svg>
