<svg width="32" height="32" viewBox="0 0 32 32" fill="none" xmlns="http://www.w3.org/2000/svg">
<path d="M3.34399 0.999878H28.6565C29.9509 0.999878 31.0002 2.04921 31.0002 3.34363V28.6561C31.0002 29.9505 29.9509 30.9999 28.6565 30.9999H3.34399C2.04958 30.9999 1.00024 29.9505 1.00024 28.6561V3.34363C1.00024 2.04921 2.04958 0.999878 3.34399 0.999878Z" fill="#F7DF1E"/>
<path fill-rule="evenodd" clip-rule="evenodd" d="M7.88823 24.841L10.184 23.4516C10.6269 24.2369 11.0299 24.9013 11.9963 24.9013C12.9227 24.9013 13.5067 24.5389 13.5067 23.1294V13.5437H16.3259V23.1693C16.3259 26.0893 14.6143 27.4184 12.1171 27.4184C9.86185 27.4184 8.55271 26.2503 7.88818 24.8408" fill="black"/>
<path fill-rule="evenodd" clip-rule="evenodd" d="M17.8569 24.5388L20.1525 23.2097C20.7567 24.1966 21.5421 24.9215 22.9316 24.9215C24.0997 24.9215 24.8446 24.3374 24.8446 23.5319C24.8446 22.5653 24.0794 22.2229 22.7906 21.6593L22.0859 21.357C20.0519 20.4912 18.7026 19.4038 18.7026 17.108C18.7026 14.9935 20.3136 13.3824 22.8309 13.3824C24.6232 13.3824 25.912 14.0068 26.8383 15.638L24.6432 17.0475C24.1599 16.1817 23.6365 15.8394 22.831 15.8394C22.0053 15.8394 21.4817 16.363 21.4817 17.0475C21.4817 17.8934 22.0053 18.2358 23.2135 18.7594L23.9182 19.0614C26.3146 20.0885 27.6639 21.1356 27.6639 23.4916C27.6639 26.0292 25.6703 27.4185 22.992 27.4185C20.3741 27.4185 18.6825 26.1701 17.857 24.5388" fill="black"/>
</svg>
