<svg width="33" height="33" viewBox="0 0 33 33" fill="none" xmlns="http://www.w3.org/2000/svg">
<g clip-path="url(#clip0_4742_75)">
<path fill-rule="evenodd" clip-rule="evenodd" d="M16.2236 31.7008C15.7938 31.7008 15.3926 31.5862 15.0201 31.3856L11.2088 29.1217C10.6357 28.8065 10.9223 28.6919 11.0942 28.6346C11.8679 28.3767 12.0112 28.3194 12.8136 27.8609C12.8996 27.8036 13.0142 27.8322 13.1001 27.8895L16.0231 29.6375C16.1377 29.6949 16.281 29.6949 16.3669 29.6375L27.8007 23.018C27.9153 22.9607 27.9726 22.8461 27.9726 22.7028V9.4924C27.9726 9.34912 27.9153 9.2345 27.8007 9.17719L16.3669 2.58632C16.2523 2.529 16.109 2.529 16.0231 2.58632L4.58932 9.17719C4.4747 9.2345 4.41739 9.37778 4.41739 9.4924V22.7028C4.41739 22.8174 4.4747 22.9607 4.58932 23.018L7.71282 24.8233C9.40352 25.683 10.4638 24.6801 10.4638 23.6771V10.6386C10.4638 10.4667 10.6071 10.2948 10.8077 10.2948H12.2691C12.4411 10.2948 12.613 10.438 12.613 10.6386V23.6771C12.613 25.9409 11.3808 27.2591 9.23159 27.2591C8.5725 27.2591 8.05669 27.2591 6.59524 26.5427L3.58636 24.8233C2.84131 24.3935 2.38281 23.5911 2.38281 22.7315V9.52106C2.38281 8.66138 2.84131 7.85901 3.58636 7.42917L15.0201 0.809646C15.7365 0.408463 16.7108 0.408463 17.4272 0.809646L28.8609 7.42917C29.606 7.85901 30.0645 8.66138 30.0645 9.52106V22.7315C30.0645 23.5911 29.606 24.3935 28.8609 24.8233L17.4272 31.4429C17.0547 31.6148 16.6248 31.7008 16.2236 31.7008ZM19.7483 22.6168C14.7335 22.6168 13.7019 20.3244 13.7019 18.3758C13.7019 18.2038 13.8452 18.0319 14.0458 18.0319H15.5359C15.7078 18.0319 15.8511 18.1465 15.8511 18.3184C16.0804 19.8372 16.7395 20.5823 19.777 20.5823C22.1841 20.5823 23.2157 20.0378 23.2157 18.7483C23.2157 18.0032 22.9291 17.4588 19.1752 17.0862C16.0517 16.771 14.1031 16.0833 14.1031 13.5902C14.1031 11.2691 16.0517 9.89359 19.3185 9.89359C22.9865 9.89359 24.7918 11.1544 25.021 13.9054C25.021 13.9914 24.9924 14.0774 24.9351 14.1633C24.8777 14.2206 24.7918 14.2779 24.7058 14.2779H23.2157C23.0724 14.2779 22.9291 14.1633 22.9005 14.02C22.5566 12.444 21.6683 11.9282 19.3185 11.9282C16.6821 11.9282 16.3669 12.8452 16.3669 13.5329C16.3669 14.3639 16.7395 14.6218 20.2928 15.0803C23.8175 15.5388 25.4795 16.1979 25.4795 18.6623C25.4509 21.184 23.3876 22.6168 19.7483 22.6168Z" fill="#539E43"/>
</g>
<defs>
<clipPath id="clip0_4742_75">
<rect width="32" height="32" fill="white" transform="translate(0.195312 0.133759)"/>
</clipPath>
</defs>
</svg>
