<svg width="32" height="33" viewBox="0 0 32 33" fill="none" xmlns="http://www.w3.org/2000/svg">
<g clip-path="url(#clip0_4754_112)">
<path d="M9.37517 13.5153C9.37517 13.9048 9.41728 14.2205 9.49096 14.4521C9.57517 14.6837 9.68044 14.9363 9.82781 15.21C9.88044 15.2942 9.90149 15.3784 9.90149 15.4521C9.90149 15.5574 9.83833 15.6627 9.70149 15.7679L9.03833 16.21C8.9436 16.2732 8.84886 16.3048 8.76465 16.3048C8.65939 16.3048 8.55412 16.2521 8.44886 16.1574C8.30149 15.9995 8.17518 15.8311 8.06991 15.6627C7.96465 15.4837 7.85939 15.2837 7.7436 15.0416C6.92254 16.01 5.89096 16.4942 4.64886 16.4942C3.76465 16.4942 3.05939 16.2416 2.5436 15.7363C2.02781 15.2311 1.76465 14.5574 1.76465 13.7153C1.76465 12.8205 2.08044 12.0942 2.72254 11.5469C3.36465 10.9995 4.21728 10.7258 5.30149 10.7258C5.65939 10.7258 6.02781 10.7574 6.41728 10.81C6.80675 10.8627 7.20675 10.9469 7.62781 11.0416V10.2732C7.62781 9.47318 7.45939 8.91529 7.13307 8.58897C6.79623 8.26265 6.22781 8.10476 5.41728 8.10476C5.04886 8.10476 4.66991 8.14686 4.28044 8.2416C3.89096 8.33634 3.51202 8.45213 3.1436 8.5995C2.97517 8.67318 2.84886 8.71529 2.77517 8.73634C2.70149 8.75739 2.64886 8.76792 2.60675 8.76792C2.45939 8.76792 2.3857 8.66265 2.3857 8.4416V7.92581C2.3857 7.75739 2.40675 7.63108 2.45939 7.55739C2.51202 7.48371 2.60675 7.41002 2.75412 7.33634C3.12254 7.14686 3.56465 6.98897 4.08044 6.86265C4.59623 6.72581 5.1436 6.66265 5.72254 6.66265C6.97517 6.66265 7.89096 6.94686 8.48044 7.51529C9.05939 8.08371 9.35412 8.94686 9.35412 10.1048V13.5153H9.37517ZM5.10149 15.1153C5.44886 15.1153 5.80675 15.0521 6.1857 14.9258C6.56465 14.7995 6.90149 14.5679 7.1857 14.2521C7.35412 14.0521 7.48044 13.8311 7.5436 13.5784C7.60675 13.3258 7.64886 13.0205 7.64886 12.6627V12.2205C7.3436 12.1469 7.01728 12.0837 6.68044 12.0416C6.3436 11.9995 6.01728 11.9784 5.69096 11.9784C4.9857 11.9784 4.46991 12.1153 4.12254 12.3995C3.77517 12.6837 3.60675 13.0837 3.60675 13.61C3.60675 14.1048 3.73307 14.4732 3.99623 14.7258C4.24886 14.989 4.61728 15.1153 5.10149 15.1153ZM13.5541 16.2521C13.3646 16.2521 13.2383 16.2205 13.1541 16.1469C13.0699 16.0837 12.9962 15.9363 12.9331 15.7363L10.4594 7.5995C10.3962 7.38897 10.3646 7.25213 10.3646 7.17844C10.3646 7.01002 10.4489 6.91529 10.6173 6.91529H11.6489C11.8489 6.91529 11.9857 6.94686 12.0594 7.02055C12.1436 7.08371 12.2068 7.23108 12.2699 7.43108L14.0383 14.3995L15.6804 7.43108C15.7331 7.22055 15.7962 7.08371 15.8804 7.02055C15.9646 6.95739 16.112 6.91529 16.3015 6.91529H17.1436C17.3436 6.91529 17.4804 6.94686 17.5646 7.02055C17.6489 7.08371 17.7225 7.23108 17.7646 7.43108L19.4278 14.4837L21.2489 7.43108C21.312 7.22055 21.3857 7.08371 21.4594 7.02055C21.5436 6.95739 21.6804 6.91529 21.8699 6.91529H22.8489C23.0173 6.91529 23.112 6.9995 23.112 7.17844C23.112 7.23108 23.1015 7.28371 23.091 7.34686C23.0804 7.41002 23.0594 7.49423 23.0173 7.61002L20.4804 15.7469C20.4173 15.9574 20.3436 16.0942 20.2594 16.1574C20.1752 16.2205 20.0383 16.2627 19.8594 16.2627H18.9541C18.7541 16.2627 18.6173 16.2311 18.5331 16.1574C18.4489 16.0837 18.3752 15.9469 18.3331 15.7363L16.7015 8.94686L15.0804 15.7258C15.0278 15.9363 14.9646 16.0732 14.8804 16.1469C14.7962 16.2205 14.6489 16.2521 14.4594 16.2521H13.5541ZM27.0804 16.5363C26.5331 16.5363 25.9857 16.4732 25.4594 16.3469C24.9331 16.2205 24.5225 16.0837 24.2489 15.9258C24.0804 15.8311 23.9646 15.7258 23.9225 15.6311C23.8804 15.5363 23.8594 15.4311 23.8594 15.3363V14.7995C23.8594 14.5784 23.9436 14.4732 24.1015 14.4732C24.1646 14.4732 24.2278 14.4837 24.291 14.5048C24.3541 14.5258 24.4489 14.5679 24.5541 14.61C24.912 14.7679 25.3015 14.8942 25.712 14.9784C26.1331 15.0627 26.5436 15.1048 26.9646 15.1048C27.6278 15.1048 28.1436 14.989 28.5015 14.7574C28.8594 14.5258 29.0489 14.189 29.0489 13.7574C29.0489 13.4627 28.9541 13.2205 28.7646 13.0205C28.5752 12.8205 28.2173 12.6416 27.7015 12.4732L26.1752 11.9995C25.4068 11.7574 24.8383 11.3995 24.491 10.9258C24.1436 10.4627 23.9646 9.94686 23.9646 9.3995C23.9646 8.95739 24.0594 8.56792 24.2489 8.23108C24.4383 7.89423 24.691 7.5995 25.0068 7.36792C25.3225 7.12581 25.6804 6.94686 26.1015 6.82055C26.5225 6.69423 26.9646 6.6416 27.4278 6.6416C27.6594 6.6416 27.9015 6.65213 28.1331 6.68371C28.3752 6.71529 28.5962 6.75739 28.8173 6.7995C29.0278 6.85213 29.2278 6.90476 29.4173 6.96792C29.6068 7.03108 29.7541 7.09423 29.8594 7.15739C30.0068 7.2416 30.112 7.32581 30.1752 7.42055C30.2383 7.50476 30.2699 7.62055 30.2699 7.76792V8.26265C30.2699 8.48371 30.1857 8.5995 30.0278 8.5995C29.9436 8.5995 29.8068 8.55739 29.6278 8.47318C29.0278 8.1995 28.3541 8.06265 27.6068 8.06265C27.0068 8.06265 26.5331 8.15739 26.2068 8.35739C25.8804 8.55739 25.712 8.86265 25.712 9.29423C25.712 9.58897 25.8173 9.8416 26.0278 10.0416C26.2383 10.2416 26.6278 10.4416 27.1857 10.6205L28.6804 11.0942C29.4383 11.3363 29.9857 11.6732 30.312 12.1048C30.6383 12.5363 30.7962 13.0311 30.7962 13.5784C30.7962 14.0311 30.7015 14.4416 30.5225 14.7995C30.3331 15.1574 30.0804 15.4732 29.7541 15.7258C29.4278 15.989 29.0383 16.1784 28.5857 16.3153C28.112 16.4627 27.6173 16.5363 27.0804 16.5363Z" fill="#252F3E"/>
<path fill-rule="evenodd" clip-rule="evenodd" d="M29.07 21.6522C25.6068 24.21 20.5752 25.5679 16.2489 25.5679C10.1857 25.5679 4.72258 23.3258 0.596267 19.5995C0.269951 19.3048 0.564688 18.9048 0.954162 19.1364C5.41732 21.7258 10.9226 23.2943 16.6173 23.2943C20.4594 23.2943 24.6805 22.4943 28.5647 20.8522C29.1436 20.589 29.6384 21.2311 29.07 21.6522Z" fill="#FF9900"/>
<path fill-rule="evenodd" clip-rule="evenodd" d="M30.5121 20.01C30.07 19.4416 27.5858 19.7363 26.4594 19.8732C26.1226 19.9153 26.07 19.6206 26.3752 19.3995C28.3542 18.01 31.6068 18.41 31.9858 18.8732C32.3647 19.3469 31.8805 22.5995 30.0279 24.1574C29.7437 24.3995 29.47 24.2732 29.5963 23.9574C30.0173 22.9153 30.9542 20.5679 30.5121 20.01Z" fill="#FF9900"/>
</g>
<defs>
<clipPath id="clip0_4754_112">
<rect width="32" height="32" fill="white" transform="translate(-0.00976562 0.104767)"/>
</clipPath>
</defs>
</svg>
