<svg width="33" height="33" viewBox="0 0 33 33" fill="none" xmlns="http://www.w3.org/2000/svg">
<path d="M28.2368 1.5947H4.79932C2.98713 1.5947 1.51807 3.06376 1.51807 4.87595V28.3134C1.51807 30.1256 2.98713 31.5947 4.79932 31.5947H28.2368C30.049 31.5947 31.5181 30.1256 31.5181 28.3134V4.87595C31.5181 3.06376 30.049 1.5947 28.2368 1.5947Z" fill="#235A42"/>
<path d="M23.3594 12.6335V20.3944C23.3594 23.0685 23.1637 24.3511 22.5768 25.4599C22.0332 26.5253 21.3157 27.199 19.8375 27.9383L16.7287 26.4599C18.207 25.7643 18.9244 25.1558 19.3809 24.2206C19.8592 23.2642 20.0116 22.1554 20.0116 19.2423V12.6335H23.3594ZM18.0334 7.46329V22.96C16.3159 23.286 15.055 23.4165 13.6855 23.4165C9.59826 23.4165 7.46777 21.5687 7.46777 18.025C7.46777 14.6118 9.72883 12.3945 13.2288 12.3945C13.7723 12.3945 14.1853 12.4378 14.6854 12.5683V7.46329H18.0334ZM13.555 15.09C11.8593 15.09 10.881 16.1336 10.881 17.9596C10.881 19.7424 11.8158 20.7206 13.5333 20.7206C13.9027 20.7206 14.2072 20.6989 14.6854 20.6338V15.2638C14.2941 15.1335 13.9681 15.09 13.555 15.09ZM23.3594 7.4811V10.916H20.0116V7.4811H23.3594Z" fill="#FFFFFD"/>
</svg>
