<svg width="33" height="34" viewBox="0 0 33 34" fill="none" xmlns="http://www.w3.org/2000/svg">
<path fill-rule="evenodd" clip-rule="evenodd" d="M32.0555 20.632C31.8631 20.0496 31.3593 19.6438 30.7077 19.5464C30.4005 19.5006 30.0486 19.5201 29.6323 19.606C28.9066 19.7557 28.3682 19.8127 27.9752 19.8238C29.4583 17.3196 30.6644 14.464 31.3587 11.7759C32.4813 7.42943 31.8814 5.44934 31.1803 4.55363C29.3251 2.18305 26.6182 0.909457 23.3525 0.870416C21.6106 0.849155 20.0812 1.19311 19.2835 1.44039C18.5407 1.30942 17.742 1.23623 16.9039 1.22267C15.3332 1.19763 13.9452 1.54003 12.7592 2.2438C12.1025 2.02185 11.0489 1.70886 9.83195 1.50906C6.96977 1.03917 4.66305 1.40535 2.9758 2.59731C0.932654 4.04055 -0.0145402 6.54802 0.16066 10.0502C0.216221 11.1621 0.838275 14.5452 1.81762 17.7537C2.38048 19.5978 2.98068 21.1292 3.60155 22.3058C4.482 23.9741 5.42408 24.9567 6.48173 25.3094C7.0746 25.507 8.15166 25.6453 9.28457 24.7019C9.42814 24.8757 9.61964 25.0485 9.87396 25.209C10.1968 25.4126 10.5916 25.579 10.9859 25.6776C12.407 26.0329 13.7381 25.944 14.8737 25.4461C14.8806 25.6481 14.886 25.841 14.8906 26.0077C14.8982 26.278 14.9056 26.543 14.9155 26.7908C14.9828 28.4666 15.0968 29.7696 15.4346 30.6812C15.4531 30.7315 15.4781 30.8079 15.5044 30.8888C15.6729 31.4049 15.9548 32.2686 16.6717 32.9452C17.4142 33.646 18.3122 33.8609 19.1346 33.8609C19.5471 33.8609 19.9407 33.8068 20.2858 33.7328C21.5164 33.4691 22.9138 33.0673 23.9247 31.6279C24.8805 30.2671 25.3451 28.2176 25.4292 24.9882C25.4401 24.8969 25.4501 24.8097 25.4598 24.7266C25.4664 24.6705 25.473 24.6132 25.4798 24.556L25.705 24.5758L25.763 24.5797C27.0163 24.6368 28.5487 24.371 29.4898 23.9338C30.2335 23.5887 32.6165 22.3307 32.0555 20.632Z" fill="black"/>
<path fill-rule="evenodd" clip-rule="evenodd" d="M29.9126 20.9624C26.1862 21.7311 25.93 20.4694 25.93 20.4694C29.8645 14.6312 31.5092 7.2206 30.0898 5.40689C26.2177 0.459416 19.5147 2.79925 19.4028 2.86L19.3668 2.86644C18.6306 2.71361 17.8067 2.62257 16.8807 2.60746C15.1945 2.57982 13.9155 3.04949 12.945 3.78549C12.945 3.78549 0.987593 -1.1405 1.54372 9.98084C1.66202 12.3468 4.93483 27.8829 8.8385 23.1903C10.2653 21.4744 11.6439 20.0235 11.6439 20.0235C12.3286 20.4784 13.1483 20.7104 14.0076 20.627L14.0744 20.5704C14.0536 20.7834 14.0631 20.9918 14.1011 21.2385C13.0955 22.3621 13.391 22.5594 11.3807 22.9732C9.34647 23.3924 10.5415 24.1387 11.3217 24.3338C12.2675 24.5703 14.4558 24.9054 15.9344 22.8356L15.8754 23.0718C16.2695 23.3874 16.5461 25.1246 16.4998 26.6994C16.4534 28.2743 16.4224 29.3555 16.7329 30.2C17.0434 31.0445 17.3528 32.9447 19.9956 32.3784C22.2038 31.9052 23.3481 30.6789 23.5073 28.6333C23.6203 27.179 23.876 27.394 23.8921 26.0938L24.0972 25.4783C24.3336 23.5069 24.1347 22.8709 25.4952 23.1667L25.8258 23.1958C26.8272 23.2413 28.1377 23.0347 28.9069 22.6772C30.5632 21.9086 31.5455 20.6252 29.9124 20.9624H29.9126Z" fill="#336791"/>
<path fill-rule="evenodd" clip-rule="evenodd" d="M13.6448 11.0389C13.3091 10.9922 13.0049 11.0354 12.8511 11.1519C12.7645 11.2175 12.7377 11.2934 12.7305 11.3457C12.7112 11.4842 12.8082 11.6372 12.8678 11.7162C13.0364 11.9397 13.2828 12.0933 13.5267 12.1272C13.562 12.1321 13.5971 12.1344 13.6321 12.1344C14.0388 12.1344 14.4085 11.8178 14.4411 11.5841C14.4818 11.2914 14.0569 11.0963 13.6448 11.0389Z" fill="white"/>
<path fill-rule="evenodd" clip-rule="evenodd" d="M24.7694 11.0482H24.7693C24.7373 10.8188 24.329 10.7534 23.9415 10.8072C23.5547 10.8611 23.1795 11.0358 23.2108 11.2657C23.236 11.4445 23.5588 11.7498 23.941 11.7497C23.9733 11.7497 24.0059 11.7476 24.0387 11.743C24.2938 11.7077 24.481 11.5456 24.5699 11.4522C24.7054 11.31 24.7837 11.1513 24.7694 11.0482Z" fill="white"/>
<path fill-rule="evenodd" clip-rule="evenodd" d="M31.1524 20.875C31.0103 20.4454 30.553 20.3071 29.7932 20.464C27.5371 20.9296 26.7292 20.6071 26.4638 20.4117C28.2175 17.7403 29.66 14.5112 30.4383 11.4982C30.807 10.0711 31.0106 8.74569 31.0272 7.66544C31.0456 6.47956 30.8437 5.6083 30.4271 5.07603C28.7478 2.93021 26.2832 1.77922 23.2998 1.74759C21.2488 1.72455 19.5159 2.24949 19.1799 2.39706C18.4725 2.22111 17.7012 2.11311 16.8617 2.09933C15.3219 2.07444 13.991 2.44306 12.8891 3.19439C12.4105 3.0163 11.1735 2.59167 9.66081 2.34801C7.04547 1.92687 4.96729 2.24593 3.48419 3.29662C1.71456 4.55036 0.897596 6.79144 1.05591 9.9575C1.10917 11.0228 1.71604 14.2996 2.6739 17.4378C3.93468 21.5681 5.30509 23.9064 6.74715 24.3874C6.9159 24.4437 7.11058 24.4831 7.32512 24.4831C7.85117 24.4831 8.49604 24.2459 9.16706 23.4393C10.2816 22.0984 11.3222 20.9748 11.7058 20.5666C12.2727 20.8709 12.8953 21.0408 13.5323 21.0578C13.5334 21.0745 13.5351 21.0911 13.5366 21.1077C13.4088 21.2593 13.304 21.3921 13.2147 21.5055C12.7734 22.0657 12.6815 22.1823 11.2609 22.4749C10.8569 22.5582 9.78356 22.7794 9.76793 23.5317C9.75082 24.3536 11.0365 24.6989 11.183 24.7355C11.6935 24.8632 12.1853 24.9263 12.6543 24.9263C13.7949 24.9262 14.7987 24.5514 15.6009 23.826C15.5761 26.7563 15.6984 29.6437 16.0502 30.5235C16.3383 31.2437 17.0423 33.0038 19.2659 33.0037C19.5921 33.0037 19.9513 32.9657 20.3464 32.8811C22.6671 32.3835 23.6748 31.3578 24.0647 29.0966C24.2733 27.8881 24.6313 25.0022 24.7996 23.4543C25.155 23.5651 25.6125 23.6159 26.1071 23.6158C27.1386 23.6158 28.3287 23.3967 29.0752 23.0502C29.9136 22.6608 31.4268 21.7052 31.1524 20.875ZM25.6261 10.4149C25.6184 10.8719 25.5555 11.2867 25.4888 11.7198C25.4171 12.1855 25.3429 12.6671 25.3242 13.2516C25.3058 13.8205 25.3768 14.412 25.4455 14.9839C25.5844 16.1391 25.7268 17.3284 25.1753 18.502C25.0896 18.3498 25.0068 18.1837 24.931 17.9998C24.8625 17.8336 24.7136 17.5667 24.5076 17.1972C23.7058 15.7593 21.8281 12.3921 22.7893 11.018C23.0756 10.609 23.8021 10.1885 25.6261 10.4149ZM23.4153 2.673C26.0884 2.73205 28.2029 3.73206 29.7001 5.64512C30.8483 7.1125 29.5839 13.7894 25.9235 19.5495C25.8874 19.5036 25.8505 19.4572 25.8125 19.4097C25.7973 19.3906 25.7818 19.3713 25.7662 19.3517C26.712 17.7896 26.527 16.244 26.3624 14.8737C26.2948 14.3114 26.2309 13.7802 26.2472 13.2813C26.264 12.7524 26.3339 12.299 26.4015 11.8604C26.4847 11.3199 26.5692 10.7607 26.5459 10.1015C26.5633 10.0324 26.5703 9.95068 26.5612 9.85371C26.5016 9.2215 25.7799 7.32971 24.3088 5.61719C23.5043 4.68066 22.3307 3.63249 20.7285 2.92554C21.4177 2.78272 22.3602 2.64952 23.4153 2.673ZM8.45718 22.8488C7.71793 23.7377 7.20737 23.5674 7.03951 23.5114C5.94556 23.1465 4.67634 20.8345 3.55727 17.1682C2.58897 13.9958 2.02307 10.8059 1.97832 9.91134C1.8369 7.08235 2.52266 5.1107 4.01665 4.0512C6.44797 2.32697 10.4454 3.35899 12.0516 3.88244C12.0285 3.90519 12.0045 3.92652 11.9816 3.94963C9.34585 6.61157 9.40838 11.1595 9.41482 11.4375C9.4146 11.5447 9.42356 11.6966 9.43594 11.9055C9.48127 12.6704 9.56565 14.0941 9.34023 15.7064C9.13065 17.2046 9.59247 18.671 10.6071 19.7296C10.7121 19.8392 10.8218 19.9421 10.935 20.0389C10.4834 20.5226 9.50187 21.5921 8.45718 22.8488ZM11.2738 19.0907C10.456 18.2375 10.0847 17.0506 10.2547 15.8342C10.4928 14.131 10.4049 12.6477 10.3577 11.8508C10.3511 11.7394 10.3453 11.6416 10.3418 11.5645C10.7269 11.2232 12.5112 10.267 13.7837 10.5586C14.3645 10.6916 14.7182 11.087 14.8654 11.7672C15.6268 15.2885 14.9662 16.7562 14.4354 17.9355C14.326 18.1785 14.2226 18.4082 14.1343 18.6458L14.066 18.8295C13.8928 19.2939 13.7316 19.7256 13.6318 20.1356C12.7625 20.133 11.9168 19.7617 11.2738 19.0907ZM11.4072 23.8396C11.1534 23.7762 10.9251 23.666 10.7911 23.5747C10.903 23.522 11.1021 23.4504 11.4474 23.3793C13.1186 23.0352 13.3766 22.7925 13.9402 22.0768C14.0695 21.9128 14.216 21.7268 14.4188 21.5003C14.4189 21.5001 14.4189 21.5001 14.419 21.5C14.7212 21.1617 14.8594 21.2191 15.11 21.323C15.3131 21.4071 15.5109 21.6616 15.5911 21.9418C15.6291 22.0741 15.6717 22.3253 15.5322 22.5207C14.3549 24.1691 12.6393 24.1479 11.4072 23.8396ZM20.153 31.9782C18.1086 32.4162 17.3848 31.3731 16.9078 30.1806C16.5999 29.4107 16.4486 25.939 16.556 22.1053C16.5574 22.0543 16.5501 22.005 16.536 21.9587C16.5238 21.8693 16.505 21.7788 16.4789 21.6878C16.3192 21.13 15.9302 20.6633 15.4635 20.4699C15.2781 20.3931 14.9377 20.2521 14.5287 20.3567C14.6159 19.9973 14.7672 19.5916 14.9312 19.1521L15 18.9672C15.0775 18.7589 15.1746 18.543 15.2774 18.3145C15.8329 17.0805 16.5936 15.3903 15.768 11.572C15.4587 10.1419 14.426 9.44352 12.8605 9.60568C11.9219 9.7028 11.0633 10.0815 10.635 10.2986C10.5429 10.3453 10.4587 10.3903 10.38 10.4343C10.4995 8.99326 10.9512 6.30036 12.6405 4.59658C13.7041 3.52389 15.1207 2.99414 16.8466 3.02266C20.2472 3.07837 22.428 4.82356 23.6587 6.27784C24.7191 7.53106 25.2934 8.79339 25.5226 9.47419C23.7991 9.29899 22.6269 9.63924 22.0327 10.4887C20.74 12.3366 22.7399 15.9233 23.7011 17.647C23.8773 17.9629 24.0295 18.2359 24.0774 18.3519C24.3904 19.1105 24.7956 19.6169 25.0915 19.9867C25.1821 20.0999 25.2701 20.2098 25.337 20.3057C24.8151 20.4563 23.8774 20.8039 23.9628 22.5419C23.8939 23.4141 23.4038 27.4971 23.1549 28.9397C22.8263 30.8455 22.125 31.5554 20.153 31.9782ZM28.6865 22.2126C28.1528 22.4604 27.2595 22.6463 26.4109 22.6862C25.4736 22.7301 24.9966 22.5812 24.8843 22.4896C24.8316 21.4066 25.2348 21.2934 25.6614 21.1736C25.7285 21.1547 25.7939 21.1364 25.857 21.1143C25.8963 21.1462 25.9392 21.178 25.9863 21.209C26.7396 21.7062 28.0833 21.7599 29.9801 21.3683C29.9871 21.3669 29.994 21.3655 30.0009 21.3641C29.7451 21.6033 29.3073 21.9244 28.6865 22.2126Z" fill="white"/>
</svg>
