<svg width="33" height="33" viewBox="0 0 33 33" fill="none" xmlns="http://www.w3.org/2000/svg">
<g clip-path="url(#clip0_4740_28)">
<path d="M26.8285 11.5872C26.4965 11.4729 26.1525 11.3648 25.7984 11.2626C25.8566 11.025 25.91 10.7905 25.9575 10.56C26.7373 6.77486 26.2275 3.72553 24.4865 2.72156C22.8171 1.75889 20.087 2.76263 17.3297 5.16223C17.0645 5.39297 16.7987 5.63727 16.5329 5.8933C16.3558 5.7239 16.179 5.5602 16.0026 5.40362C13.1129 2.83782 10.2164 1.75656 8.47714 2.76343C6.80936 3.72889 6.31547 6.59556 7.01738 10.1828C7.08516 10.5292 7.16439 10.8831 7.25399 11.2428C6.84405 11.3592 6.4483 11.4833 6.06963 11.6152C2.68173 12.7964 0.518066 14.6476 0.518066 16.5678C0.518066 18.5509 2.84076 20.5401 6.36952 21.7462C6.648 21.8414 6.93695 21.9314 7.23474 22.0168C7.13808 22.4059 7.05401 22.7872 6.98343 23.1591C6.31416 26.684 6.83682 29.4829 8.50015 30.4423C10.2182 31.4331 13.1016 30.4147 15.9093 27.9604C16.1313 27.7664 16.354 27.5607 16.5771 27.345C16.8663 27.6235 17.155 27.887 17.4422 28.1342C20.1618 30.4745 22.8478 31.4196 24.5096 30.4575C26.226 29.4639 26.7838 26.4572 26.0596 22.799C26.0043 22.5196 25.9399 22.2342 25.8676 21.9437C26.0701 21.8838 26.2689 21.822 26.4628 21.7578C30.1312 20.5423 32.5181 18.5774 32.5181 16.5678C32.5181 14.6406 30.2846 12.777 26.8285 11.5872ZM26.0328 20.4602C25.8578 20.5181 25.6783 20.5741 25.4953 20.6284C25.0904 19.3463 24.5438 17.983 23.8749 16.5744C24.5132 15.1994 25.0386 13.8535 25.4323 12.5797C25.7596 12.6745 26.0774 12.7744 26.3835 12.8798C29.3447 13.8992 31.151 15.4064 31.151 16.5678C31.151 17.8048 29.2003 19.4107 26.0328 20.4602ZM24.7185 23.0645C25.0388 24.6821 25.0845 26.1446 24.8724 27.2879C24.6818 28.3152 24.2985 29.0001 23.8246 29.2745C22.8161 29.8582 20.6595 29.0994 18.3337 27.098C18.0671 26.8685 17.7985 26.6236 17.5291 26.3643C18.4308 25.3781 19.3319 24.2317 20.2114 22.9585C21.7584 22.8212 23.2199 22.5968 24.5453 22.2904C24.6106 22.5537 24.6686 22.812 24.7185 23.0645ZM11.4276 29.1736C10.4423 29.5216 9.65757 29.5315 9.18321 29.258C8.17383 28.6758 7.75421 26.4285 8.3266 23.414C8.39216 23.0688 8.47019 22.7141 8.56013 22.3517C9.871 22.6415 11.3218 22.8501 12.8725 22.9758C13.7579 24.2217 14.6851 25.3669 15.6195 26.3696C15.4153 26.5667 15.212 26.7543 15.0098 26.9311C13.7682 28.0163 12.5241 28.7863 11.4276 29.1736ZM6.81164 20.4526C5.25129 19.9193 3.9627 19.2262 3.07942 18.4698C2.28575 17.7901 1.88504 17.1153 1.88504 16.5678C1.88504 15.4025 3.62225 13.9163 6.51961 12.9061C6.87117 12.7835 7.23918 12.668 7.6211 12.5595C8.02152 13.8621 8.5468 15.2239 9.18071 16.601C8.5386 17.9986 8.00586 19.3821 7.6015 20.6999C7.32923 20.6217 7.06545 20.5393 6.81164 20.4526ZM8.35895 9.92023C7.75757 6.8468 8.15697 4.52832 9.16202 3.94654C10.2326 3.32676 12.5999 4.21043 15.0949 6.42587C15.2544 6.56747 15.4145 6.71568 15.5751 6.86902C14.6453 7.86735 13.7266 9.00392 12.8491 10.2424C11.3441 10.3819 9.90347 10.606 8.57893 10.9061C8.49565 10.5711 8.42189 10.242 8.35895 9.92023ZM22.1623 13.3286C21.8457 12.7817 21.5206 12.2477 21.1892 11.7283C22.2102 11.8574 23.1884 12.0287 24.1071 12.2384C23.8313 13.1223 23.4875 14.0464 23.0829 14.9938C22.7926 14.4428 22.4856 13.8871 22.1623 13.3286ZM16.5333 7.84599C17.1639 8.52911 17.7953 9.29179 18.4164 10.1193C17.7905 10.0897 17.1569 10.0744 16.5181 10.0744C15.8852 10.0744 15.2563 10.0894 14.6343 10.1184C15.256 9.29863 15.8929 8.53697 16.5333 7.84599ZM10.8683 13.3381C10.552 13.8866 10.2507 14.4392 9.96498 14.9928C9.56689 14.0487 9.22633 13.1203 8.94814 12.2239C9.86114 12.0196 10.8348 11.8525 11.8493 11.7259C11.5132 12.2501 11.1855 12.788 10.8683 13.338V13.3381ZM11.8785 21.5071C10.8303 21.3902 9.84206 21.2317 8.92929 21.033C9.21192 20.1206 9.56 19.1724 9.96652 18.208C10.253 18.7612 10.5555 19.3141 10.8737 19.8637H10.8738C11.1979 20.4237 11.5338 20.9722 11.8785 21.5071ZM16.5712 25.3859C15.9232 24.6868 15.277 23.9135 14.6458 23.0818C15.2585 23.1058 15.8832 23.1181 16.5181 23.1181C17.1703 23.1181 17.8151 23.1034 18.4497 23.0752C17.8266 23.9219 17.1974 24.6964 16.5712 25.3859ZM23.0959 18.1588C23.5236 19.1337 23.8842 20.0769 24.1705 20.9738C23.2427 21.1855 22.2409 21.3559 21.1854 21.4826C21.5176 20.9562 21.8456 20.413 22.1678 19.8543C22.4938 19.2891 22.8033 18.7229 23.0959 18.1588ZM20.9836 19.1714C20.4834 20.0387 19.9699 20.8667 19.4485 21.6482C18.4989 21.7161 17.5179 21.7511 16.5181 21.7511C15.5222 21.7511 14.5536 21.7201 13.6208 21.6596C13.0784 20.8678 12.5537 20.0374 12.0567 19.1788H12.0568C11.5611 18.3226 11.1049 17.4592 10.6914 16.6006C11.1047 15.74 11.5598 14.8755 12.0527 14.0209L12.0526 14.021C12.5467 13.1641 13.0668 12.3377 13.6042 11.5509C14.5559 11.4789 15.5318 11.4414 16.518 11.4414H16.5181C17.5088 11.4414 18.4859 11.4792 19.4373 11.5518C19.9665 12.3329 20.483 13.1566 20.9791 14.0136C21.4809 14.8803 21.9418 15.739 22.3586 16.5811C21.9431 17.4378 21.4832 18.3051 20.9836 19.1714ZM23.8037 3.90587C24.8752 4.52382 25.2919 7.01603 24.6187 10.2841C24.5757 10.4926 24.5274 10.705 24.4749 10.9203C23.1472 10.6139 21.7056 10.386 20.1962 10.2444C19.3169 8.99224 18.4058 7.85391 17.4912 6.86839C17.7371 6.63184 17.9826 6.40628 18.2271 6.19342C20.5896 4.13747 22.7976 3.32573 23.8037 3.90587ZM16.5181 13.7103C18.0962 13.7103 19.3756 14.9896 19.3756 16.5678C19.3756 18.1459 18.0962 19.4252 16.5181 19.4252C14.9399 19.4252 13.6606 18.1459 13.6606 16.5678C13.6606 14.9896 14.9399 13.7103 16.5181 13.7103Z" fill="#00D8FF"/>
</g>
<defs>
<clipPath id="clip0_4740_28">
<rect width="32" height="32" fill="white" transform="translate(0.518066 0.594696)"/>
</clipPath>
</defs>
</svg>
