<svg width="450" height="276" viewBox="0 0 450 276" fill="none" xmlns="http://www.w3.org/2000/svg">
<g clip-path="url(#clip0_744_1087)">
<rect width="450" height="292" fill="#E5F0FF"/>
<g clip-path="url(#clip1_744_1087)">
<path d="M94.7085 69.6801C98.2022 70.6548 102.032 69.789 104.682 67.2568C114.255 58.1093 127.165 52.5033 141.37 52.5033C154.528 52.5033 166.574 57.3135 175.887 65.2928C178.988 67.9501 183.396 68.4142 187.133 66.983C190.364 65.7458 193.867 65.0685 197.528 65.0685C206.958 65.0685 215.352 69.5646 220.728 76.5598C223.565 80.2505 228.49 82.3088 233.016 80.9628C238.011 79.4777 243.298 78.6807 248.769 78.6807C279.562 78.6807 304.537 103.933 304.537 135.098C304.537 166.264 279.562 191.516 248.769 191.516C247.548 191.516 246.336 191.476 245.134 191.398C241.47 191.159 238.025 193.045 235.758 195.849C231.176 201.515 224.214 205.128 216.42 205.128C211.874 205.128 207.614 203.9 203.943 201.753C201.245 200.175 197.798 199.398 194.473 199.547C191.151 199.695 187.875 200.774 185.579 202.998C177.188 211.129 165.808 216.123 153.274 216.123C140.959 216.123 129.757 211.302 121.411 203.421C119.073 201.214 115.773 200.171 112.461 200.118C109.149 200.064 105.751 200.999 103.175 202.84C98.3898 206.26 92.5507 208.269 86.2464 208.269C75.7824 208.269 66.5931 202.733 61.3892 194.389C58.591 189.903 52.8758 187.11 47.7364 188.662C42.7204 190.178 37.4045 190.992 31.8996 190.992C1.39268 190.992 -23.3507 165.975 -23.3507 135.098C-23.3507 104.222 1.39268 79.2043 31.8996 79.2043C37.096 79.2043 42.1238 79.9298 46.8901 81.2859C50.335 82.266 54.0476 81.2824 56.674 78.8654C63.8688 72.244 73.4271 68.2098 83.9173 68.2098C87.655 68.2098 91.2735 68.7219 94.7085 69.6801Z" fill="#FAFBFF" stroke="#E5F0FF" stroke-width="1.29857"/>
<path d="M263.523 84.6137C267.017 85.5884 270.846 84.7226 273.496 82.1904C283.069 73.0429 295.979 67.4369 310.184 67.4369C323.342 67.4369 335.389 72.2471 344.702 80.2264C347.803 82.8837 352.21 83.3478 355.948 81.9166C359.178 80.6794 362.681 80.0021 366.342 80.0021C375.773 80.0021 384.167 84.4982 389.543 91.4934C392.379 95.1841 397.304 97.2424 401.831 95.8964C406.825 94.4113 412.112 93.6143 417.584 93.6143C448.377 93.6143 473.352 118.866 473.352 150.032C473.352 181.197 448.377 206.449 417.584 206.449C416.362 206.449 415.15 206.41 413.949 206.331C410.285 206.093 406.839 207.979 404.572 210.783C399.991 216.449 393.029 220.062 385.234 220.062C380.689 220.062 376.428 218.833 372.757 216.687C370.059 215.109 366.612 214.332 363.288 214.48C359.966 214.629 356.69 215.707 354.394 217.932C346.003 226.063 334.622 231.056 322.089 231.056C309.773 231.056 298.572 226.235 290.225 218.354C287.887 216.147 284.587 215.105 281.276 215.051C277.964 214.998 274.565 215.932 271.989 217.774C267.204 221.194 261.365 223.203 255.061 223.203C244.597 223.203 235.408 217.666 230.204 209.323C227.405 204.837 221.69 202.043 216.551 203.596C211.535 205.112 206.219 205.926 200.714 205.926C170.207 205.926 145.464 180.908 145.464 150.032C145.464 119.155 170.207 94.1379 200.714 94.1379C205.91 94.1379 210.938 94.8634 215.705 96.2195C219.149 97.1996 222.862 96.216 225.488 93.799C232.683 87.1776 242.242 83.1433 252.732 83.1433C256.469 83.1433 260.088 83.6554 263.523 84.6137Z" fill="#FAFBFF" stroke="#E5F0FF" stroke-width="1.29857"/>
<circle cx="223.377" cy="146" r="103.885" fill="#FAFBFF"/>
<path fill-rule="evenodd" clip-rule="evenodd" d="M209.742 249.041C260.83 242.506 300.317 198.865 300.317 146C300.317 93.1355 260.83 49.4936 209.742 42.9595C214.1 42.4021 218.543 42.1147 223.053 42.1147C280.427 42.1147 326.938 88.6258 326.938 146C326.938 203.374 280.427 249.885 223.053 249.885C218.543 249.885 214.1 249.598 209.742 249.041Z" fill="#EDF0FA"/>
<circle cx="223.377" cy="146" r="102.587" stroke="#E6E8F0" stroke-width="2.59713"/>
<circle cx="234.468" cy="216.895" r="11.6871" transform="rotate(-75 234.468 216.895)" fill="#EDF0FA"/>
<circle cx="218.103" cy="225.282" r="8.44068" transform="rotate(-75 218.103 225.282)" fill="#EDF0FA"/>
<circle cx="209.012" cy="204.025" r="5.84355" transform="rotate(-75 209.012 204.025)" fill="#EDF0FA"/>
<circle cx="228.137" cy="67.1775" r="3.57106" transform="rotate(-75 228.137 67.1775)" fill="#EDF0FA"/>
<circle cx="245.042" cy="78.0931" r="5.84355" transform="rotate(-75 245.042 78.0931)" fill="#EDF0FA"/>
<circle cx="273.341" cy="169.721" r="4.22034" transform="rotate(-75 273.341 169.721)" fill="#EDF0FA"/>
<circle cx="269.857" cy="180.214" r="2.27249" transform="rotate(-75 269.857 180.214)" fill="#EDF0FA"/>
<circle cx="149.977" cy="143.75" r="4.22034" transform="rotate(-75 149.977 143.75)" fill="#EDF0FA"/>
<circle cx="182.693" cy="80.4222" r="8.44068" transform="rotate(-75 182.693 80.4222)" fill="#EDF0FA"/>
<circle cx="146.492" cy="154.243" r="2.27249" transform="rotate(-75 146.492 154.243)" fill="#EDF0FA"/>
<circle cx="196.762" cy="87.0508" r="2.27249" transform="rotate(-75 196.762 87.0508)" fill="#EDF0FA"/>
<path d="M184.758 186.971C177.724 191.032 170.16 192.588 163.634 191.848C157.107 191.108 151.663 188.083 148.742 183.024C145.821 177.965 145.923 171.738 148.546 165.715C151.168 159.693 156.298 153.921 163.332 149.859C170.367 145.798 177.93 144.242 184.457 144.982C190.984 145.722 196.428 148.747 199.349 153.806C202.269 158.865 202.167 165.092 199.545 171.115C196.922 177.137 191.793 182.909 184.758 186.971Z" fill="#F9FAFC" stroke="#696F8C" stroke-width="1.29857"/>
<path d="M166.17 172.045C167.865 165.375 169.521 162.112 173.231 157.265L185.188 174.728C177.883 174.83 173.709 174.485 166.648 172.83C166.297 172.748 166.081 172.394 166.17 172.045Z" fill="#D8DAE5" stroke="#696F8C" stroke-width="1.29857" stroke-linecap="round"/>
<mask id="path-19-inside-1_744_1087" fill="white">
<path fill-rule="evenodd" clip-rule="evenodd" d="M116.672 163.25C120.053 160.219 124.991 159.874 128.725 162.217C135.749 155.766 147.078 156.335 154.376 163.632C157.979 167.236 159.942 171.822 160.229 176.387C161.873 177.127 163.387 178.153 164.705 179.472C171.551 186.318 170.523 198.445 162.409 206.559C159.779 209.19 156.727 211.075 153.569 212.19C154.125 216.918 152.458 222.021 148.637 225.843C144.221 230.259 138.092 231.798 132.809 230.353C133.067 233.643 131.91 237.058 129.353 239.616C124.789 244.18 117.492 244.282 113.054 239.845C112.655 239.446 112.292 239.023 111.966 238.582C111.396 239.783 110.611 240.913 109.612 241.911C105.048 246.475 97.7513 246.578 93.314 242.141C91.7878 240.614 90.7986 238.75 90.3434 236.775C89.7671 237.698 89.0734 238.576 88.2635 239.386C83.0655 244.584 75.049 244.996 70.3581 240.305C69.3292 239.276 68.5458 238.087 68.0044 236.803C63.1146 239.503 57.1579 239.042 53.3698 235.254C51.9202 233.804 50.9577 232.037 50.4733 230.133C47.5181 232.578 42.4767 233.454 37.2919 232.065C30.0219 230.117 25.223 224.453 26.5732 219.413C27.7074 215.18 32.8195 212.735 38.7352 213.215C38.971 211.493 39.7118 209.887 40.9733 208.625C44.3964 205.202 50.3574 205.613 54.2876 209.543C55.2527 210.509 56.0057 211.596 56.5417 212.739C57.8492 208.316 60.5973 203.693 64.6178 199.673C69.3197 194.971 74.8446 192.009 79.9115 191.057C78.9411 186.909 80.0341 182.42 83.2116 179.242C86.9092 175.545 92.3824 174.67 97.0285 176.585C97.1112 173.012 98.5572 169.407 101.347 166.617C105.567 162.397 111.653 161.252 116.672 163.25Z"/>
</mask>
<path fill-rule="evenodd" clip-rule="evenodd" d="M116.672 163.25C120.053 160.219 124.991 159.874 128.725 162.217C135.749 155.766 147.078 156.335 154.376 163.632C157.979 167.236 159.942 171.822 160.229 176.387C161.873 177.127 163.387 178.153 164.705 179.472C171.551 186.318 170.523 198.445 162.409 206.559C159.779 209.19 156.727 211.075 153.569 212.19C154.125 216.918 152.458 222.021 148.637 225.843C144.221 230.259 138.092 231.798 132.809 230.353C133.067 233.643 131.91 237.058 129.353 239.616C124.789 244.18 117.492 244.282 113.054 239.845C112.655 239.446 112.292 239.023 111.966 238.582C111.396 239.783 110.611 240.913 109.612 241.911C105.048 246.475 97.7513 246.578 93.314 242.141C91.7878 240.614 90.7986 238.75 90.3434 236.775C89.7671 237.698 89.0734 238.576 88.2635 239.386C83.0655 244.584 75.049 244.996 70.3581 240.305C69.3292 239.276 68.5458 238.087 68.0044 236.803C63.1146 239.503 57.1579 239.042 53.3698 235.254C51.9202 233.804 50.9577 232.037 50.4733 230.133C47.5181 232.578 42.4767 233.454 37.2919 232.065C30.0219 230.117 25.223 224.453 26.5732 219.413C27.7074 215.18 32.8195 212.735 38.7352 213.215C38.971 211.493 39.7118 209.887 40.9733 208.625C44.3964 205.202 50.3574 205.613 54.2876 209.543C55.2527 210.509 56.0057 211.596 56.5417 212.739C57.8492 208.316 60.5973 203.693 64.6178 199.673C69.3197 194.971 74.8446 192.009 79.9115 191.057C78.9411 186.909 80.0341 182.42 83.2116 179.242C86.9092 175.545 92.3824 174.67 97.0285 176.585C97.1112 173.012 98.5572 169.407 101.347 166.617C105.567 162.397 111.653 161.252 116.672 163.25Z" fill="#EDEFF5"/>
<path d="M128.725 162.217L129.604 163.173L128.874 163.843L128.035 163.317L128.725 162.217ZM116.672 163.25L117.539 164.217L116.94 164.754L116.192 164.456L116.672 163.25ZM160.229 176.387L159.696 177.571L158.982 177.25L158.933 176.469L160.229 176.387ZM153.569 212.19L152.28 212.341L152.158 211.31L153.137 210.965L153.569 212.19ZM132.809 230.353L131.514 230.455L131.37 228.614L133.151 229.101L132.809 230.353ZM111.966 238.582L110.793 238.025L111.724 236.066L113.011 237.811L111.966 238.582ZM90.3434 236.775L89.2418 236.087L90.9038 233.424L91.6088 236.483L90.3434 236.775ZM68.0044 236.803L67.3767 235.666L68.6403 234.968L69.201 236.298L68.0044 236.803ZM50.4733 230.133L49.6456 229.133L51.226 227.825L51.7318 229.813L50.4733 230.133ZM37.2919 232.065L37.628 230.811L37.2919 232.065ZM26.5732 219.413L25.3189 219.077L26.5732 219.413ZM38.7352 213.215L40.0218 213.391L39.8551 214.609L38.6301 214.51L38.7352 213.215ZM56.5417 212.739L57.787 213.107L56.818 216.385L55.3661 213.29L56.5417 212.739ZM79.9115 191.057L81.176 190.761L81.4851 192.083L80.1514 192.333L79.9115 191.057ZM97.0285 176.585L98.3267 176.615L98.283 178.506L96.5337 177.785L97.0285 176.585ZM128.035 163.317C124.783 161.277 120.481 161.579 117.539 164.217L115.805 162.283C119.624 158.859 125.198 158.472 129.415 161.117L128.035 163.317ZM153.457 164.551C146.596 157.689 136.058 157.244 129.604 163.173L127.847 161.26C135.439 154.287 147.56 154.981 155.294 162.714L153.457 164.551ZM158.933 176.469C158.665 172.218 156.836 167.929 153.457 164.551L155.294 162.714C159.121 166.542 161.218 171.426 161.525 176.305L158.933 176.469ZM163.787 180.39C162.583 179.186 161.201 178.249 159.696 177.571L160.762 175.203C162.545 176.006 164.19 177.121 165.623 178.553L163.787 180.39ZM161.491 205.641C169.25 197.882 169.986 186.589 163.787 180.39L165.623 178.553C173.117 186.047 171.796 199.009 163.328 207.477L161.491 205.641ZM153.137 210.965C156.11 209.916 158.996 208.136 161.491 205.641L163.328 207.477C160.562 210.243 157.344 212.235 154.001 213.414L153.137 210.965ZM147.719 224.924C151.265 221.378 152.788 216.667 152.28 212.341L154.859 212.038C155.462 217.169 153.652 222.664 149.555 226.761L147.719 224.924ZM133.151 229.101C137.967 230.417 143.618 229.025 147.719 224.924L149.555 226.761C144.823 231.493 138.218 233.179 132.466 231.606L133.151 229.101ZM128.434 238.697C130.717 236.415 131.743 233.375 131.514 230.455L134.103 230.252C134.39 233.911 133.103 237.702 130.271 240.534L128.434 238.697ZM113.972 238.927C117.878 242.833 124.353 242.779 128.434 238.697L130.271 240.534C125.224 245.58 117.105 245.732 112.136 240.763L113.972 238.927ZM113.011 237.811C113.299 238.2 113.619 238.574 113.972 238.927L112.136 240.763C111.691 240.318 111.286 239.846 110.922 239.353L113.011 237.811ZM108.694 240.993C109.587 240.1 110.286 239.094 110.793 238.025L113.139 239.139C112.506 240.473 111.635 241.725 110.531 242.829L108.694 240.993ZM94.2322 241.222C98.1382 245.128 104.613 245.074 108.694 240.993L110.531 242.829C105.484 247.876 97.3644 248.027 92.3957 243.059L94.2322 241.222ZM91.6088 236.483C92.0114 238.23 92.8844 239.875 94.2322 241.222L92.3957 243.059C90.6911 241.354 89.5859 239.27 89.078 237.066L91.6088 236.483ZM87.3453 238.468C88.0853 237.728 88.7175 236.927 89.2418 236.087L91.4451 237.462C90.8167 238.469 90.0615 239.425 89.1817 240.305L87.3453 238.468ZM71.2763 239.386C75.3737 243.484 82.5634 243.25 87.3453 238.468L89.1817 240.305C83.5675 245.919 74.7243 246.507 69.4399 241.223L71.2763 239.386ZM69.201 236.298C69.679 237.432 70.3694 238.48 71.2763 239.386L69.4399 241.223C68.289 240.072 67.4125 238.741 66.8079 237.307L69.201 236.298ZM54.2881 234.336C57.6028 237.65 62.9092 238.133 67.3767 235.666L68.6322 237.94C63.32 240.873 56.7129 240.433 52.4516 236.172L54.2881 234.336ZM51.7318 229.813C52.1616 231.502 53.0118 233.059 54.2881 234.336L52.4516 236.172C50.8285 234.549 49.7539 232.572 49.2149 230.454L51.7318 229.813ZM37.628 230.811C42.5298 232.124 47.1015 231.237 49.6456 229.133L51.301 231.134C47.9346 233.919 42.4235 234.784 36.9558 233.319L37.628 230.811ZM27.8275 219.749C27.2937 221.742 27.9384 223.991 29.6908 226.059C31.4392 228.123 34.2162 229.896 37.628 230.811L36.9558 233.319C33.0976 232.285 29.8401 230.253 27.7092 227.738C25.5821 225.227 24.5025 222.124 25.3189 219.077L27.8275 219.749ZM38.6301 214.51C32.9733 214.05 28.7201 216.418 27.8275 219.749L25.3189 219.077C26.6948 213.942 32.6657 211.42 38.8403 211.921L38.6301 214.51ZM41.8915 209.543C40.8465 210.588 40.2223 211.927 40.0218 213.391L37.4487 213.039C37.7197 211.059 38.5771 209.185 40.0551 207.707L41.8915 209.543ZM53.3693 210.462C49.823 206.915 44.6925 206.743 41.8915 209.543L40.0551 207.707C44.1003 203.662 50.8917 204.311 55.2058 208.625L53.3693 210.462ZM55.3661 213.29C54.8941 212.284 54.2283 211.321 53.3693 210.462L55.2058 208.625C56.2772 209.697 57.1173 210.908 57.7173 212.187L55.3661 213.29ZM65.536 200.591C61.6523 204.475 59.0268 208.913 57.787 213.107L55.2964 212.371C56.6716 207.718 59.5424 202.912 63.6996 198.755L65.536 200.591ZM80.1514 192.333C75.3792 193.23 70.0821 196.045 65.536 200.591L63.6996 198.755C68.5573 193.897 74.3101 190.789 79.6717 189.781L80.1514 192.333ZM84.1299 180.161C81.2901 183 80.3011 187.022 81.176 190.761L78.6471 191.353C77.581 186.796 78.7782 181.84 82.2934 178.324L84.1299 180.161ZM96.5337 177.785C92.3411 176.057 87.4333 176.857 84.1299 180.161L82.2934 178.324C86.3852 174.232 92.4238 173.282 97.5233 175.384L96.5337 177.785ZM102.265 167.535C99.7151 170.085 98.4018 173.371 98.3267 176.615L95.7303 176.555C95.8206 172.653 97.3993 168.728 100.429 165.699L102.265 167.535ZM116.192 164.456C111.663 162.653 106.125 163.675 102.265 167.535L100.429 165.699C105.009 161.118 111.643 159.85 117.153 162.043L116.192 164.456Z" fill="#696F8C" mask="url(#path-19-inside-1_744_1087)"/>
<path d="M148.867 176.487C142.44 171.896 133.716 173.732 131.191 182.226C128.207 180.619 124.534 181.537 122.468 183.603M93.5441 199.672C85.0505 201.279 81.3776 208.625 85.28 216.659C82.0323 218.482 81.2143 219.891 80.9185 222.857M105.711 210.461C108.695 216.659 116.729 217.807 119.943 210.461C126.6 216.2 132.798 213.216 135.323 205.182C142.669 207.018 147.949 201.738 148.178 193.704C154.836 192.556 161.034 186.817 159.656 177.176" stroke="#696F8C" stroke-width="1.29857" stroke-linecap="round"/>
<path d="M184.14 96.1431L221.702 92.3969C223.695 92.1982 224.655 94.7744 223.018 95.9276L187.768 120.758L179.161 105.85C176.804 101.767 179.448 96.6111 184.14 96.1431Z" fill="#C1C4D6" stroke="#696F8C" stroke-width="1.29857" stroke-linecap="round"/>
<path d="M240.384 193.561L262.409 162.904C263.578 161.278 261.826 159.158 260.009 160L220.881 178.112L229.488 193.019C231.845 197.102 237.632 197.39 240.384 193.561Z" fill="#C1C4D6" stroke="#696F8C" stroke-width="1.29857" stroke-linecap="round"/>
<path d="M165.581 126.691L184.833 127.365L213.691 177.348L204.649 194.359C203.419 196.671 200.897 197.724 198.69 196.633C192.905 193.772 182.182 186.403 171.71 168.264C161.237 150.126 160.217 137.154 160.632 130.714C160.79 128.257 162.963 126.599 165.581 126.691Z" fill="white" stroke="#696F8C" stroke-width="1.29857"/>
<path d="M194.996 129.386L217.022 167.536L210.441 179.726C209.084 182.24 206.236 183.496 203.72 182.143C199.083 179.649 191.466 173.916 184.079 161.122C176.693 148.328 175.536 138.865 175.695 133.603C175.782 130.747 178.293 128.909 181.149 128.99L194.996 129.386Z" fill="#EDEFF5"/>
<path d="M228.466 91.2618L266.774 157.613L224.77 181.864C224.703 181.902 224.614 181.957 224.539 182.003C224.496 182.03 224.458 182.053 224.432 182.069C223.784 182.455 220.406 184.189 214.862 181.849C209.277 179.492 201.416 172.967 191.953 156.577C182.489 140.186 180.77 130.116 181.521 124.1C182.266 118.13 185.457 116.071 186.115 115.703C186.142 115.688 186.182 115.667 186.226 115.643C186.303 115.601 186.395 115.551 186.462 115.513L228.466 91.2618Z" fill="white" stroke="#696F8C" stroke-width="1.29857"/>
<path d="M225.845 178.245L249.838 164.393C251.208 163.602 251.104 161.607 249.688 160.901C248.359 160.238 247.531 159.734 246.564 158.997C244.863 157.703 242.534 157.603 240.827 158.89C232.597 165.096 221.48 172.586 210.6 171.29C209.197 171.123 207.965 173.106 209.035 174.03C218.403 182.116 224.022 179.409 225.282 178.605C225.471 178.484 225.651 178.357 225.845 178.245Z" fill="#EDEFF5"/>
<path d="M273.45 65.2908C277.599 62.8952 283.379 60.8529 288.156 59.4048C290.537 58.6827 292.657 58.1121 294.181 57.7219C294.943 57.5269 295.556 57.3772 295.977 57.2762C296.044 57.2603 296.105 57.2456 296.162 57.2322L330.091 115.999C330.049 116.043 330.003 116.092 329.953 116.144C329.647 116.463 329.201 116.924 328.64 117.493C327.518 118.631 325.938 120.197 324.103 121.909C320.424 125.344 315.766 129.327 311.758 131.642C305.014 135.535 277.501 151.969 269.716 156.622C268.397 157.41 267.038 157.9 265.639 157.76C260.857 157.278 248.773 153.704 235.812 131.255C222.852 108.808 225.798 96.5554 227.772 92.1724C228.349 90.8904 229.454 89.9576 230.797 89.2094C238.686 84.8132 266.471 69.3202 273.45 65.2908Z" fill="white" stroke="#696F8C" stroke-width="1.29857"/>
<path d="M316.085 121.728C314.038 120.616 312.877 119.682 311.471 118.451C310.313 117.437 308.227 118.074 307.327 119.323C300.313 129.052 270.489 143.213 257.657 147.012C256.083 147.478 255.518 149.562 256.853 150.517C258.282 151.538 260.041 152.633 262.005 153.55C264.502 154.716 267.361 154.275 269.747 152.897L311.583 128.743C312.686 128.106 314.821 126.403 316.485 125.028C317.579 124.124 317.332 122.406 316.085 121.728Z" fill="#EDEFF5"/>
<path d="M256.911 159.559C250.735 157.331 241.255 151.069 231.315 133.852C221.375 116.636 220.692 105.294 221.85 98.8315" stroke="#696F8C" stroke-width="0.649283" stroke-linecap="round" stroke-dasharray="3.25 5.19"/>
<path d="M288.613 64.2847C288.182 71.2124 289.426 81.7228 297.471 95.6562C305.515 109.59 313.995 115.923 320.211 119.013" stroke="#696F8C" stroke-width="0.649283" stroke-linecap="round" stroke-dasharray="3.25 5.19"/>
<path d="M357.79 69.8278C356.629 70.498 355.126 70.4603 353.577 69.7281C352.032 68.9972 350.503 67.596 349.396 65.6774C348.288 63.7587 347.839 61.7348 347.979 60.0306C348.119 58.3233 348.838 57.0029 349.998 56.3327C351.159 55.6625 352.662 55.7002 354.211 56.4324C355.757 57.1633 357.285 58.5645 358.392 60.4831C359.5 62.4018 359.95 64.4257 359.81 66.1299C359.669 67.8372 358.951 69.1576 357.79 69.8278Z" fill="#AFE6A4" stroke="#696F8C" stroke-width="1.29857"/>
<path d="M348.139 54.4517C348.732 54.5713 349.177 55.1279 349.188 55.8097C349.293 62.3818 352.182 67.3956 357.814 70.7774C358.408 71.1338 358.663 71.8074 358.457 72.3798C352.845 87.9653 338.603 106.693 332.612 114.169C331.021 116.155 328.701 117.206 326.428 116.519C321.226 114.947 311.534 109.826 301.882 93.1095C292.08 76.1311 292.658 65.0973 293.941 59.9026C294.478 57.73 296.393 56.2974 298.742 55.8543C307.622 54.1794 329.88 50.768 348.139 54.4517Z" fill="white" stroke="#696F8C" stroke-width="1.29857"/>
<path d="M332.558 108.559C338.309 101.122 350.567 84.5718 354.515 73.7358C354.838 72.8491 354.414 71.8909 353.604 71.4065C353.498 71.3431 353.393 71.2792 353.289 71.2147C352.067 70.4556 350.326 70.9847 349.812 72.3286C345.226 84.3171 331.898 100.086 322.459 106.894C321.284 107.741 321.26 109.545 322.551 110.201C323.338 110.602 324.081 110.93 324.768 111.2C327.65 112.329 330.664 111.008 332.558 108.559Z" fill="#EDEFF5"/>
<path d="M358.392 60.4828L378.354 48.958" stroke="#696F8C" stroke-width="1.29857" stroke-linecap="round"/>
<circle cx="268.986" cy="112.101" r="17.5306" transform="rotate(60 268.986 112.101)" fill="white" stroke="#696F8C" stroke-width="1.29857"/>
<circle cx="268.988" cy="112.101" r="12.9857" transform="rotate(60 268.988 112.101)" fill="#ADCFFF" stroke="#696F8C" stroke-width="1.29857"/>
<circle cx="255.774" cy="119.73" r="0.973924" transform="rotate(60 255.774 119.73)" fill="#696F8C"/>
<circle cx="282.202" cy="104.472" r="0.973924" transform="rotate(60 282.202 104.472)" fill="#696F8C"/>
<circle cx="276.616" cy="125.315" r="0.973924" transform="rotate(60 276.616 125.315)" fill="#696F8C"/>
<circle cx="261.358" cy="98.887" r="0.973924" transform="rotate(60 261.358 98.887)" fill="#696F8C"/>
<path d="M158.448 110.938L129.23 127.82" stroke="#696F8C" stroke-width="1.29857" stroke-linecap="round"/>
<path d="M237.012 184.957L160.396 229.108" stroke="#696F8C" stroke-width="1.29857" stroke-linecap="round"/>
<path d="M187.667 104.446C187.667 104.446 115.596 151.195 59.7578 181.062" stroke="#696F8C" stroke-width="1.29857" stroke-linecap="round"/>
<path d="M418.006 72.4541L423.515 66.9448" stroke="#696F8C" stroke-width="1.29857" stroke-linecap="round"/>
<path d="M418.119 66.8301L423.628 72.3394" stroke="#696F8C" stroke-width="1.29857" stroke-linecap="round"/>
<path d="M436.834 130.91L442.343 136.419" stroke="#696F8C" stroke-width="1.29857" stroke-linecap="round"/>
<path d="M442.459 131.024L436.95 136.533" stroke="#696F8C" stroke-width="1.29857" stroke-linecap="round"/>
<path d="M32.332 155.562L37.8414 150.053" stroke="#696F8C" stroke-width="1.29857" stroke-linecap="round"/>
<path d="M32.4453 149.938L37.9547 155.448" stroke="#696F8C" stroke-width="1.29857" stroke-linecap="round"/>
<path d="M-5.97852 216.28L-0.469167 210.77" stroke="#696F8C" stroke-width="1.29857" stroke-linecap="round"/>
<path d="M-5.86523 210.656L-0.355886 216.165" stroke="#696F8C" stroke-width="1.29857" stroke-linecap="round"/>
<path d="M397.23 188.676L402.74 183.166" stroke="#696F8C" stroke-width="1.29857" stroke-linecap="round"/>
<path d="M397.344 183.052L402.853 188.561" stroke="#696F8C" stroke-width="1.29857" stroke-linecap="round"/>
<circle cx="367.518" cy="117.432" r="3.8957" stroke="#696F8C" stroke-width="1.29857"/>
<circle cx="7.16607" cy="120.678" r="3.8957" stroke="#696F8C" stroke-width="1.29857"/>
<circle cx="419.46" cy="232.354" r="1.94785" stroke="#696F8C" stroke-width="1.29857"/>
<circle cx="44.8237" cy="59.6455" r="1.94785" stroke="#696F8C" stroke-width="1.29857"/>
<path d="M95.1426 95.3561C95.1426 91.3278 98.6917 88.4828 102.685 89.0789C103.013 89.1279 103.34 88.9449 103.466 88.6378C106.55 81.1068 116.244 83.0583 117.45 90.3747C117.515 90.7705 117.9 91.0437 118.301 91.0353C120.346 90.9923 122.36 92.7123 122.497 94.5037C122.53 94.9338 122.842 95.3561 123.273 95.3561H131.178M136.697 95.3561H147.085" stroke="#696F8C" stroke-width="1.29857" stroke-linecap="round"/>
<path d="M301.289 196.459C301.289 192.431 304.838 189.586 308.831 190.182C309.159 190.231 309.487 190.048 309.613 189.741C312.696 182.21 322.391 184.161 323.597 191.478C323.662 191.874 324.047 192.147 324.448 192.138C326.493 192.095 328.506 193.815 328.643 195.607C328.676 196.037 328.988 196.459 329.42 196.459H337.324M342.843 196.459H353.232" stroke="#696F8C" stroke-width="1.29857" stroke-linecap="round"/>
<path d="M48.0703 123.6H78.262M84.4302 123.6H93.5201" stroke="#696F8C" stroke-width="1.29857" stroke-linecap="round"/>
<path d="M406.475 153.142H376.283M370.115 153.142H361.025" stroke="#696F8C" stroke-width="1.29857" stroke-linecap="round"/>
</g>
</g>
<defs>
<clipPath id="clip0_744_1087">
<rect width="450" height="292" fill="white"/>
</clipPath>
<clipPath id="clip1_744_1087">
<rect width="498" height="227.249" fill="white" transform="translate(-24 32.3755)"/>
</clipPath>
</defs>
</svg>
