<svg width="115" height="80" viewBox="0 0 115 80" fill="none" xmlns="http://www.w3.org/2000/svg">
<path d="M48.797 79.6419C43.2316 79.554 37.9136 78.2883 32.9489 75.8447C20.5284 69.7095 13.0018 59.8122 10.5813 46.2057C9.27393 38.875 10.2103 31.7377 13.0019 24.829C13.1432 24.4774 13.2845 24.1961 13.7439 24.0731C18.4789 22.7546 22.7722 20.5747 26.7121 17.6565C28.5319 16.3029 30.5107 15.1427 32.6662 14.334C35.9524 13.121 38.7793 14.0879 40.5284 17.1116C41.1998 18.2718 41.7652 19.52 42.2952 20.7505C43.797 24.1785 46.6768 25.5673 50.1574 26.1123C50.2811 26.2881 50.2281 26.4639 50.2281 26.6572C50.2281 27.3429 50.5814 27.6417 51.2882 27.589C52.0832 27.4132 52.8959 27.2901 53.6733 27.0616C55.9878 26.4287 57.7546 25.1103 58.797 22.8952C59.4684 21.4713 60.1751 20.0825 60.8818 18.6762C62.4189 15.6876 64.8924 15.2833 67.9313 16.4963C68.8147 16.8479 69.5744 17.428 70.3518 17.973C73.6027 20.2759 77.313 21.7174 80.8465 23.4929C83.055 24.6004 85.2989 25.6376 87.7017 26.2529C87.8077 26.2705 87.9137 26.3232 87.9314 26.5166C86.5356 26.8858 85.1045 26.7979 83.6911 26.6397C81.4473 26.3936 79.2741 25.7607 77.1363 25.0927C76.9773 25.0399 76.7653 24.8466 76.6062 25.0399C76.4472 25.2509 76.6416 25.4443 76.7653 25.6201C77.472 26.5166 78.4084 27.0967 79.3801 27.6593C79.6275 27.7999 79.8925 27.9406 80.1222 28.1867C76.6946 28.591 73.691 27.0792 70.4578 26.042C70.8465 26.8155 71.4649 27.1846 71.9596 27.6944C72.4543 28.2218 73.108 28.591 73.5497 29.3293C72.0303 29.1887 70.6875 28.7844 69.3978 28.2394C68.1963 27.7296 67.0303 27.1671 65.8465 26.6045C65.2988 26.3408 64.7688 26.3232 64.3801 26.833C64.009 27.3429 64.3977 27.7648 64.6981 28.1339C65.0161 28.5207 65.4225 28.8195 65.9702 29.3118H62.2423C63.8324 30.7357 64.1504 32.4409 63.85 34.3219C63.532 36.2908 62.5956 37.8554 60.9702 39.0332C59.4331 40.1407 57.7723 41.0549 56.0762 41.9338C55.4755 42.2503 54.8571 42.5315 54.2564 42.848C53.9383 43.0238 53.479 43.1292 53.479 43.5863C53.479 43.9906 53.9207 44.0961 54.2387 44.2368C55.4401 44.8169 56.5532 45.5376 57.4366 46.5748C58.1433 47.4011 58.5673 48.3504 58.7617 49.4051C58.9914 50.6884 58.638 51.7959 57.7016 52.7452C56.5709 53.9055 55.1928 54.7317 53.956 55.7338C52.9489 56.56 52.9313 56.7358 53.9207 57.562C55.1398 58.5816 56.1998 59.7243 56.9242 61.1482C57.5426 62.3612 57.5603 63.5742 56.8889 64.7872C56.1998 66.0353 55.2458 67.0725 54.221 68.0394C53.9207 68.3207 53.6203 68.5844 53.3376 68.8656C52.6309 69.5864 52.6486 70.061 53.4967 70.6412C54.4861 71.3268 55.1221 72.1882 55.2634 73.4187C55.3871 74.4559 55.0514 75.3173 54.5037 76.1611C53.638 77.5148 52.1539 78.2355 51.1822 79.4837C50.8818 79.8528 50.5108 79.677 50.4931 79.1848C50.4754 78.4289 50.7405 77.7609 51.1822 77.1456C51.5885 76.583 52.0479 76.0381 52.4366 75.4404C53.2316 74.2626 53.1256 73.5242 52.1539 72.487C51.6239 71.9245 50.8111 71.6256 50.4754 70.8697C50.2811 70.7466 50.1221 70.5884 50.0691 70.3599C50.0691 70.2896 50.0691 70.2017 50.0691 70.1314C50.1221 69.6743 50.1398 69.1996 50.2811 68.7602C50.6345 67.7406 51.4648 67.0901 52.2422 66.4221C52.7546 65.9826 53.2493 65.5255 53.7087 65.0333C54.9454 63.6973 54.9631 62.537 53.7263 61.1834C53.0019 60.3747 52.1716 59.6716 51.3235 59.0211C50.8995 58.6871 50.4578 58.3707 50.2988 57.8081C50.2458 57.5269 50.1044 57.2983 50.0161 57.0346C49.9277 56.7182 49.9277 56.3842 50.0161 56.0678C50.0691 55.8744 50.2104 55.7162 50.2811 55.5228C50.5108 54.8548 51.0055 54.4153 51.5885 54.0285C52.6486 53.3254 53.7617 52.6925 54.6627 51.7784C56.1292 50.3193 55.9525 48.7898 54.274 47.5593C53.4083 46.944 52.3659 46.6451 51.5178 46.0123C50.9701 45.6255 50.4931 45.2036 50.2988 44.5532C50.2281 44.3247 50.1044 44.1137 50.0337 43.8852C49.9454 43.5512 49.9454 43.2347 50.0337 42.9007C50.1044 42.6722 50.2281 42.4612 50.2988 42.2151C50.6521 41.2307 51.4825 40.7736 52.3659 40.4044C54.5037 39.5254 56.5179 38.4179 58.4437 37.1346C58.9914 36.7655 59.4684 36.326 59.8748 35.8338C60.3871 35.2009 60.6345 34.4801 60.4048 33.6363C60.1928 32.8452 59.6627 32.3706 58.8324 32.3354C57.6839 32.2651 56.6945 32.6519 55.9878 33.6012C55.4931 34.2516 55.1751 35.0075 54.6981 35.658C53.638 37.0819 51.8535 37.205 50.6875 35.9392C50.4578 35.6931 50.2988 35.4294 50.2634 35.0954C50.1751 34.7262 50.2634 34.3571 50.3164 34.0055C50.4048 33.2847 50.8995 32.8277 51.4472 32.5112C52.3306 32.019 52.9843 31.3334 53.4967 30.472C53.7087 30.1204 54.009 29.8391 54.3447 29.5755C53.32 29.593 52.3306 29.5755 51.3412 29.5755C51.0408 29.5755 50.7405 29.5227 50.4931 29.7688C50.2281 30.7357 50.4401 31.7201 50.3694 32.7046C50.3341 33.1968 50.4224 33.7242 50.1928 34.1989C49.8394 34.3922 49.7864 34.0582 49.645 33.8824C49.3977 33.566 49.1857 33.1792 48.8323 32.9859C47.7723 32.4585 47.1185 31.5444 46.4118 30.6302C44.4507 28.1164 39.9454 27.9406 37.7369 30.2083C37.3129 30.6478 36.9948 31.1576 36.9065 31.7553C36.5001 34.5153 37.0832 36.9237 39.4507 38.6816C41.4648 40.1759 43.691 41.3186 45.9171 42.4436C46.4295 42.7073 47.1539 42.848 47.1362 43.5863C47.1185 44.2719 46.4118 44.395 45.9348 44.6587C44.2917 45.5728 42.8252 46.6451 42.1715 48.5262C41.5178 50.4775 41.9065 51.8487 43.4966 53.1496C44.3447 53.8352 45.2104 54.468 46.0761 55.1185C46.3058 55.2943 46.5532 55.4701 46.7829 55.681C47.6486 56.4897 47.6309 56.9643 46.7122 57.7202C45.5638 58.6519 44.5744 59.7243 43.85 61.0076C43.1079 62.3261 43.1079 63.6445 43.903 64.9278C44.698 66.2287 45.7051 67.3714 46.8889 68.3383C48.1079 69.3227 48.1786 70.1138 46.8889 70.9928C45.3164 72.0651 44.9277 74.5087 46.1998 76.0908C46.7122 76.7237 47.2246 77.339 47.8959 77.8312C48.5143 78.2882 49.1857 78.7629 49.3624 79.5891C49.2034 79.8177 48.9913 79.7474 48.7793 79.677L48.797 79.6419Z" fill="#3E529B"/>
<path d="M49.6274 24.7762C46.8889 24.3543 45.1574 22.6843 44.2033 20.2056C43.6556 18.7816 43.2846 17.2698 42.8782 15.7931C41.4295 10.572 37.7899 9.13049 32.7545 10.4489C30.4754 11.0467 28.5673 12.3475 26.7298 13.7363C23.4966 16.1623 20.1573 18.43 16.3234 19.8364C16.0584 19.9243 15.811 20.1704 15.4224 19.9946C16.4648 18.1488 17.6485 16.426 18.9913 14.8087C25.8464 6.56388 34.592 1.74709 45.2457 0.323154C46.6062 0.147359 48.0019 0.112199 49.38 0.0243015C49.6274 0.0243015 49.9277 -0.0811747 50.1574 0.147359C50.3341 1.97563 50.2458 3.8039 50.2104 5.63216C50.2458 6.35292 49.8924 6.98579 49.6981 7.65381C49.4507 8.46246 49.1327 9.23596 48.9207 10.0446C48.7086 10.8005 48.2493 11.0642 47.4896 11.0467C46.1291 11.0115 44.7687 11.0467 43.3023 11.0467C44.4684 11.908 45.5814 12.6815 46.6768 13.4726C47.5072 14.0879 47.5779 14.2461 47.2422 15.2482C46.8182 16.4963 46.3942 17.762 46.0231 19.0981C47.1892 18.307 48.2316 17.4808 49.3447 16.7424C49.592 16.5842 49.9807 16.0217 50.2811 16.7424C50.2811 19.2387 50.2811 21.7174 50.2811 24.2137C50.2811 26.71 50.2988 25.0399 49.6804 24.7938L49.6274 24.7762Z" fill="#3E529B"/>
<path d="M50.7935 24.8114C53.85 24.1258 55.6698 22.1569 56.5179 19.2211C56.8889 17.973 57.2246 16.7248 57.5956 15.4943C59.0267 10.783 62.1009 9.18322 67.2776 10.2907C69.6451 10.8005 71.6592 12.0663 73.4967 13.5429C78.108 17.1819 83.1964 19.8716 88.8854 21.4361C91.5003 22.1569 94.1328 22.737 97.0833 22.4909C95.3695 24.0731 93.5498 24.8817 91.4473 24.8993C88.5144 24.9345 85.7935 23.95 83.0904 22.948C80.1398 21.8405 77.366 20.3638 74.8041 18.4828C72.6663 16.9182 70.4402 15.4591 67.949 14.4571C64.5214 13.0859 61.5885 14.1231 59.8041 17.3401C59.1857 18.4652 58.6733 19.6782 58.1256 20.856C56.5885 24.1961 53.797 25.6728 50.2811 26.0771C50.2811 25.6025 49.7864 24.9345 50.7581 24.829L50.7935 24.8114Z" fill="#3E529B"/>
<path d="M50.7935 24.8114C50.1044 25.0224 50.3692 25.6024 50.3162 26.0595C50.2985 26.2001 50.2632 26.3232 50.2632 26.4638C50.2278 27.2022 50.5635 27.5713 51.2879 27.5713C50.2455 27.835 50.1571 27.7823 50.1571 26.7979C50.1571 26.5693 50.1571 26.3232 50.1571 26.0947C50.1218 25.6024 50.4578 24.9696 49.6274 24.7762C50.1574 24.8114 50.1571 24.4598 50.1571 24.0906C50.1571 21.5592 50.1571 19.0101 50.1571 16.4787C49.8745 16.1623 49.9098 15.7755 49.9098 15.4063C49.9098 12.787 49.9098 10.1852 49.9098 7.56587C49.9098 6.96817 50.1748 6.40563 50.0335 5.80792C50.3515 3.92692 50.1218 2.02833 50.1748 0.129745C50.4222 1.1142 50.2985 2.11623 50.2632 3.10068C50.2101 4.55978 50.4222 5.93098 50.9522 7.30218C51.3232 8.25148 51.6236 9.23593 51.9063 10.238C52.0299 10.695 52.2596 10.8181 52.719 10.8181C54.3974 10.8005 56.0759 10.8181 57.8073 10.9587C56.5176 11.8904 55.2632 12.8397 53.9557 13.7187C53.3904 14.1055 53.249 14.4395 53.4964 15.1075C54.0441 16.6017 54.5034 18.1136 54.8745 19.7133C53.408 18.6585 51.9239 17.6038 50.2985 16.4435V18.1839C50.2985 20.188 50.2985 22.192 50.2985 24.1961C50.2985 24.6004 50.3162 24.9168 50.8462 24.8465L50.7935 24.8114Z" fill="#3E529B"/>
<path d="M48.797 79.6419C48.9737 79.6067 49.1506 79.5541 49.3273 79.5189C49.8396 78.7102 49.4686 78.0071 49.0446 77.339C48.6206 76.6886 48.0728 76.1085 47.6665 75.4404C46.9598 74.2802 46.9951 73.5067 47.8962 72.5047C48.5852 71.7312 49.4509 71.1159 50.1753 70.3775C50.352 70.483 50.4757 70.6237 50.4757 70.8522C50.0693 71.0104 50.2637 71.362 50.246 71.6257C50.246 73.911 50.246 76.1964 50.246 78.4641C50.246 80.7319 50.2458 79.888 48.797 79.6419Z" fill="#3E529B"/>
<path d="M50.1752 42.7777C49.8395 41.5472 48.8678 40.967 47.7901 40.5276C45.7759 39.6837 43.8678 38.6993 42.0657 37.4863C41.3943 37.0292 40.7406 36.537 40.2459 35.8866C39.5391 34.9548 39.4685 33.7243 40.0515 32.8453C40.5286 32.1245 41.5356 31.8433 42.7017 32.1245C43.7441 32.3707 44.4862 32.9859 44.9985 33.9177C45.3696 34.6033 45.7229 35.3064 46.2883 35.869C47.207 36.7655 48.6558 36.748 49.4862 35.8338C49.9279 35.3592 50.0692 34.8142 49.9985 34.1989C50.2636 32.898 50.0515 31.5796 50.1222 30.2611C50.1399 29.9447 50.0162 29.6107 50.2636 29.3294C50.5462 29.6283 50.5286 30.015 50.5286 30.3842C50.5286 31.5972 50.5639 32.8101 50.4402 34.0231V35.0603C50.5816 36.5194 50.5286 37.9961 50.5286 39.4552C50.5286 40.3869 50.5286 41.3186 50.4226 42.2503C50.3342 42.4261 50.2459 42.6019 50.1399 42.7777H50.1752Z" fill="#3E529B"/>
<path d="M50.1929 55.9272C49.7512 54.9955 49.0091 54.345 48.1257 53.8177C47.154 53.2375 46.1999 52.6047 45.4049 51.7609C44.0975 50.3721 44.1505 49.0712 45.5286 47.7351C46.1646 47.1199 46.9243 46.7331 47.7194 46.3639C48.8325 45.8541 49.7865 45.1685 50.1752 43.938C50.2636 44.1138 50.3519 44.2896 50.4402 44.4654C50.6169 48.1571 50.6346 51.8663 50.4402 55.558C50.4402 55.7338 50.3166 55.8393 50.1752 55.9272H50.1929Z" fill="#3E529B"/>
<path d="M50.1931 70.2193C50.2991 68.936 49.5924 68.0394 48.7266 67.2132C48.0376 66.5628 47.2955 65.9826 46.6418 65.297C45.2284 63.8379 45.2107 62.5722 46.5005 61.0252C47.2072 60.1638 48.0729 59.4782 48.974 58.8102C49.5747 58.3531 50.0341 57.8082 50.2107 57.0698C50.3874 57.2456 50.4934 57.4566 50.5111 57.7027C50.6701 61.3768 50.6701 65.0685 50.5111 68.7426C50.4228 69.2348 50.3168 69.7095 50.2284 70.1841L50.1931 70.2193Z" fill="#3E529B"/>
<path fill-rule="evenodd" clip-rule="evenodd" d="M104.93 53.7255H102.225C101.979 53.7255 101.891 53.6914 101.909 53.3329C101.93 52.9141 101.73 52.532 101.53 52.1463C101.395 51.8875 101.259 51.627 101.188 51.3528C100.855 49.9872 100.047 49.5263 98.5888 49.6629C98.4631 49.6739 98.3464 49.6834 98.2376 49.6924C96.8266 49.8083 96.7695 49.813 96.1824 51.3186C96.0418 51.6942 95.9013 52.0526 95.7432 52.4282C95.4973 53.0256 95.4446 53.5377 96.358 53.5377C96.3434 53.7935 96.1826 53.7772 96.0583 53.7646C96.0333 53.762 96.0097 53.7596 95.9891 53.7596H92.5113C92.16 53.7596 92.0194 53.7596 91.8965 53.2475C91.6858 52.3773 91.2776 51.5551 90.8719 50.7376C90.7364 50.4648 90.6012 50.1923 90.4737 49.9189C90.3842 49.7159 90.1933 49.7223 89.9979 49.7288C89.9632 49.73 89.9285 49.7311 89.8941 49.7311H87.2944C86.908 49.7311 86.6972 49.8506 86.5743 50.2091C86.4236 50.638 86.2531 51.054 86.083 51.4691C85.9756 51.7313 85.8683 51.9932 85.7663 52.2575C85.3799 53.2646 85.415 53.2987 86.5391 53.7255H82.9383C84.2416 53.6535 84.5959 52.7563 84.9487 51.8627C85.0143 51.6965 85.0799 51.5305 85.1515 51.3698C85.696 50.1152 86.2362 48.8563 86.7763 47.5974C87.3164 46.3385 87.8565 45.0796 88.401 43.8249C88.4203 43.78 88.4362 43.7292 88.4524 43.6775C88.5101 43.4934 88.572 43.2958 88.805 43.2958C89.0381 43.2958 89.0999 43.4933 89.1576 43.6774C89.1738 43.7292 89.1897 43.78 89.209 43.8249C89.8062 45.1308 90.399 46.4366 90.9918 47.7424C91.5846 49.0482 92.1775 50.3542 92.7747 51.66C92.8266 51.7734 92.8766 51.8978 92.9279 52.0254C93.1549 52.5895 93.4072 53.2165 93.9516 53.2305C94.5182 53.2305 94.7014 52.6565 94.8753 52.1118C94.9278 51.9473 94.9795 51.7855 95.0406 51.643C95.6568 50.2426 96.2628 48.8324 96.8695 47.4202C97.3869 46.2162 97.9053 45.0097 98.4307 43.8079C98.4515 43.7592 98.4675 43.7038 98.4836 43.6475C98.5354 43.4672 98.5895 43.2787 98.8171 43.2787C99.0501 43.2787 99.112 43.4762 99.1697 43.6603C99.1859 43.7121 99.2018 43.7629 99.2211 43.8079L102.962 52.0014C103.349 52.8549 103.841 53.5889 105 53.5548C104.991 53.5889 104.978 53.6231 104.965 53.6572C104.952 53.6914 104.939 53.7255 104.93 53.7596V53.7255ZM89.9819 48.7069C89.5956 47.817 89.2203 46.9029 88.8098 45.9031C88.7165 45.676 88.6215 45.4444 88.524 45.2076C88.4077 45.5051 88.2977 45.7798 88.1935 46.0403C87.9986 46.5273 87.8235 46.9648 87.6633 47.4096C87.6078 47.5535 87.5328 47.7128 87.4562 47.8753C87.2422 48.3298 87.0162 48.8094 87.1715 49.0483C87.3377 49.3252 87.7927 49.2746 88.2546 49.2233C88.4761 49.1986 88.6993 49.1738 88.8929 49.1849H89.613C90.017 49.219 90.1575 49.1166 89.9819 48.7069ZM99.139 46.5959C98.9576 46.1571 98.7683 45.6994 98.5628 45.2122C98.0044 46.6537 97.5324 47.8771 97.043 49.1849H99.7129C100.064 49.202 100.205 49.1166 100.047 48.7411C99.7378 48.0443 99.4497 47.3476 99.139 46.5959Z" fill="#3E529B"/>
<path d="M71.2224 53.6743H67.6392C68.6228 53.4353 68.4998 52.6672 68.4998 51.9673C68.4998 50.909 68.4999 49.8677 68.535 48.8094C68.535 48.3485 68.3769 48.229 67.9378 48.2461C66.3218 48.2631 64.6882 48.2802 63.0723 48.2461C62.5629 48.2461 62.4223 48.4168 62.4399 48.8776C62.475 49.9018 62.475 50.926 62.4926 51.9502C62.4926 52.8208 62.9142 53.4012 63.7222 53.6743H60.3145C61.1577 53.4865 61.1928 52.8549 61.1928 52.2233C61.1928 49.6799 61.1928 47.1365 61.2104 44.576C61.2104 43.8249 60.7361 43.6201 60.1389 43.4153H63.3357C62.4223 43.6201 62.4575 44.2858 62.475 44.9686C62.475 45.6685 62.475 46.3854 62.4399 47.1024C62.4223 47.5291 62.5629 47.6998 63.0371 47.6998C64.6882 47.6827 66.3394 47.6827 67.9905 47.6998C68.412 47.6998 68.5701 47.5633 68.5525 47.1536C68.535 46.4196 68.5174 45.6856 68.5525 44.9516C68.5877 44.1834 68.4472 43.5689 67.4635 43.4665H70.6779C69.7118 43.6372 69.7997 44.3541 69.7997 45.0369C69.7997 47.3243 69.7997 49.6117 69.8172 51.899C69.8172 53.2475 69.8524 53.2475 71.24 53.7084L71.2224 53.6743Z" fill="#3E529B"/>
<path d="M79.9347 48.9971C80.1103 48.7411 80.286 48.7923 80.4441 48.7752C82.0249 48.5875 82.7978 47.6827 82.6748 46.1635C82.5519 44.7297 81.498 43.8249 80.0401 43.8249C79.5131 43.8249 79.3375 43.9786 79.3375 44.5077C79.355 47.0341 79.3375 49.5434 79.3375 52.0697C79.3375 53.2987 79.4077 53.3329 80.567 53.6572H77.177C78.1079 53.4865 78.0552 52.7696 78.0552 52.1039C78.0552 49.7141 78.0552 47.3243 78.0728 44.9345C78.0728 44.1834 78.0201 43.5177 76.9662 43.6201C77.0013 43.5006 77.0013 43.4153 77.0189 43.4153C78.4241 43.4153 79.8293 43.3299 81.2345 43.4323C82.7451 43.5348 83.5707 44.2688 83.7814 45.4295C84.0098 46.6927 83.3247 48.0754 82.1303 48.6728C81.4453 49.0142 80.7251 49.1678 79.8996 49.0142L79.9347 48.9971Z" fill="#3E529B"/>
<path d="M72.4695 53.6743C73.0492 53.5207 73.2248 53.128 73.26 52.5989C73.4356 49.953 73.3302 47.3072 73.3302 44.6614C73.3302 44.081 73.1897 43.5177 72.3993 43.4494H75.4205C74.5247 43.6713 74.5598 44.3883 74.5598 45.0369C74.5598 47.495 74.5071 49.9701 74.6125 52.4282C74.6476 53.2987 75.1219 53.5207 75.842 53.6743H72.4695Z" fill="#3E529B"/>
<path fill-rule="evenodd" clip-rule="evenodd" d="M98.5628 45.2122L98.5536 45.1905H98.5712L98.5628 45.2122Z" fill="#FDFDFE"/>
</svg>
