<svg width="256" height="75" viewBox="0 0 256 75" fill="none" xmlns="http://www.w3.org/2000/svg">
<path d="M50.6264 22.2254C36.4946 19.981 18.2661 27.3516 11.0236 39.0125C9.53794 41.5804 8.83943 43.2325 8.52547 44.1056C8.44266 44.3359 8.06987 44.3599 7.97061 44.1363C7.50073 43.078 6.63563 41.2065 6.25394 40.8767C5.76302 40.4526 4.74843 40.2394 4.24237 40.5584C4.15636 40.6126 4.14062 40.7261 4.18268 40.8185C6.1752 45.1941 7.21547 47.6358 8.02984 52.081C8.03833 52.1273 8.06009 52.1715 8.09224 52.206C8.84563 53.0134 9.35862 53.2533 10.3013 53.1024C10.4135 53.0844 10.4959 52.989 10.5027 52.8758L10.5436 52.1964C10.5469 52.1408 10.5687 52.0879 10.6056 52.0461L18.5331 43.0601C18.6078 42.9755 18.6165 42.851 18.5537 42.7573C17.9817 41.9038 17.5788 41.448 16.2983 41.4914C16.2317 41.4936 16.1687 41.5239 16.1242 41.5735L11.0838 47.2039C10.9233 47.3832 10.6535 47.2593 10.7012 47.0236C10.9396 45.8465 11.623 43.3942 13.4922 40.5895C21.9085 27.9615 38.5019 22.56 51.5395 24.0975C52.1289 24.167 52.033 22.9473 50.7003 22.2497C50.6773 22.2377 50.6521 22.2294 50.6264 22.2254Z" fill="#3D0F9A"/>
<path d="M114.706 60.2442C87.1343 62.1694 69.374 67.3811 64.7634 68.8663C64.331 69.0055 64.3203 69.5878 64.738 69.7664L68.0128 71.167C68.1226 71.2139 68.229 71.2252 68.3431 71.19C70.4635 70.5346 93.2767 63.6078 114.706 62.2178C137.205 60.7584 152.282 59.6803 160.57 59.5864C167.218 59.511 178.17 58.7098 182.242 58.3958C182.731 58.3582 182.869 57.7148 182.445 57.4696L180.4 56.2884C180.305 56.2331 180.198 56.2105 180.088 56.2245C178.912 56.3744 171.516 57.2768 160.57 57.7068C148.609 58.1767 147.008 57.9887 114.706 60.2442Z" fill="#FF5A00"/>
<path d="M159.517 62.8017C153.08 63.1354 120.34 65.114 81.2555 72.5055C81.2063 72.5148 81.1604 72.5388 81.1249 72.5743L79.9317 73.765C79.7525 73.9439 79.9115 74.2491 80.1577 74.1899C108.94 67.277 156.563 64.3167 157.632 64.2509C157.666 64.2488 157.666 64.242 157.696 64.227L159.617 63.2687C159.858 63.1483 159.786 62.7877 159.517 62.8017Z" fill="#FF5A00"/>
<path d="M77.0063 4.8V6.112H73.5983V16H72.1903V6.112H68.7823V4.8H77.0063ZM82.9392 7.168C83.9632 7.168 84.7738 7.49867 85.3712 8.16C85.9685 8.81067 86.2672 9.70133 86.2672 10.832V16H84.9072V11.152C84.9072 10.5653 84.8165 10.0693 84.6352 9.664C84.4645 9.25867 84.2032 8.94933 83.8512 8.736C83.5098 8.52267 83.0885 8.416 82.5872 8.416C81.8512 8.416 81.2325 8.69333 80.7312 9.248C80.2298 9.792 79.9792 10.4693 79.9792 11.28V16H78.6192V4.272H79.9792V8.528C80.3098 8.10133 80.7312 7.77067 81.2432 7.536C81.7552 7.29067 82.3205 7.168 82.9392 7.168ZM96.9648 11.712C96.9648 11.8293 96.9541 11.9947 96.9328 12.208H89.5568C89.6635 13.008 89.9941 13.6533 90.5488 14.144C91.1035 14.624 91.7861 14.864 92.5968 14.864C93.1941 14.864 93.7221 14.736 94.1808 14.48C94.6501 14.2133 95.0235 13.84 95.3008 13.36H96.7248C96.3621 14.256 95.8181 14.9547 95.0928 15.456C94.3675 15.9467 93.5355 16.192 92.5968 16.192C91.3488 16.192 90.3035 15.76 89.4608 14.896C88.6181 14.032 88.1968 12.96 88.1968 11.68C88.1968 10.3893 88.6181 9.31733 89.4608 8.464C90.3035 7.6 91.3488 7.168 92.5968 7.168C93.8875 7.168 94.9381 7.60533 95.7488 8.48C96.5595 9.35467 96.9648 10.432 96.9648 11.712ZM92.5968 8.464C92.0848 8.464 91.6155 8.56533 91.1888 8.768C90.7728 8.97067 90.4261 9.264 90.1488 9.648C89.8715 10.0213 89.6848 10.4533 89.5888 10.944H95.5888C95.4928 10.4427 95.3061 10.0053 95.0288 9.632C94.7515 9.248 94.4048 8.96 93.9888 8.768C93.5728 8.56533 93.1088 8.464 92.5968 8.464ZM112.718 7.168C113.326 7.168 113.859 7.312 114.318 7.6C114.776 7.87733 115.128 8.26667 115.374 8.768C115.63 9.26933 115.758 9.84 115.758 10.48V16H114.398V10.896C114.398 10.384 114.318 9.94133 114.158 9.568C114.008 9.19467 113.784 8.912 113.486 8.72C113.198 8.51733 112.851 8.416 112.446 8.416C111.816 8.416 111.272 8.688 110.814 9.232C110.366 9.76533 110.142 10.4267 110.142 11.216V16H108.814V10.896C108.814 10.1173 108.638 9.50933 108.286 9.072C107.944 8.63467 107.464 8.416 106.846 8.416C106.536 8.416 106.238 8.49067 105.95 8.64C105.672 8.77867 105.427 8.97067 105.214 9.216C105.011 9.46133 104.846 9.76 104.718 10.112C104.6 10.4533 104.542 10.8213 104.542 11.216V16H103.182V7.36H104.158L104.382 8.544C104.542 8.33067 104.723 8.13867 104.926 7.968C105.139 7.79733 105.363 7.65333 105.598 7.536C105.832 7.41867 106.083 7.328 106.35 7.264C106.616 7.2 106.883 7.168 107.15 7.168C107.758 7.168 108.291 7.31733 108.75 7.616C109.208 7.904 109.555 8.304 109.79 8.816C110.003 8.47467 110.264 8.18133 110.574 7.936C110.883 7.69067 111.219 7.504 111.582 7.376C111.955 7.23733 112.334 7.168 112.718 7.168ZM118.321 5.856V4.304H119.793V5.856H118.321ZM118.385 16V7.36H119.745V16H118.385ZM125.215 16.192C124.532 16.192 123.935 16.08 123.423 15.856C122.911 15.6213 122.511 15.2907 122.223 14.864C121.935 14.4267 121.78 13.92 121.759 13.344H123.087C123.119 13.8453 123.332 14.2347 123.727 14.512C124.121 14.7893 124.628 14.928 125.247 14.928C125.855 14.928 126.345 14.8107 126.719 14.576C127.092 14.3307 127.279 14 127.279 13.584C127.279 13.424 127.252 13.28 127.199 13.152C127.156 13.024 127.076 12.912 126.959 12.816C126.841 12.72 126.724 12.64 126.607 12.576C126.489 12.512 126.329 12.4533 126.127 12.4C125.935 12.3467 125.764 12.3093 125.615 12.288C125.476 12.256 125.284 12.2187 125.039 12.176C124.761 12.1333 124.548 12.096 124.399 12.064C124.249 12.032 124.047 11.984 123.791 11.92C123.535 11.8453 123.332 11.7707 123.183 11.696C123.033 11.6213 122.868 11.52 122.687 11.392C122.505 11.264 122.367 11.1253 122.271 10.976C122.175 10.8267 122.089 10.64 122.015 10.416C121.951 10.192 121.919 9.94133 121.919 9.664C121.919 9.30133 121.993 8.96533 122.143 8.656C122.303 8.34667 122.521 8.08533 122.799 7.872C123.087 7.648 123.433 7.47733 123.839 7.36C124.244 7.232 124.687 7.168 125.167 7.168C126.148 7.168 126.932 7.408 127.519 7.888C128.105 8.368 128.409 9.01867 128.431 9.84H127.151C127.129 9.53067 127.033 9.26933 126.863 9.056C126.703 8.832 126.473 8.66667 126.175 8.56C125.887 8.44267 125.545 8.384 125.151 8.384C124.756 8.384 124.415 8.43733 124.127 8.544C123.839 8.64 123.615 8.784 123.455 8.976C123.305 9.168 123.231 9.38667 123.231 9.632C123.231 9.80267 123.273 9.95733 123.359 10.096C123.444 10.224 123.54 10.3307 123.647 10.416C123.753 10.4907 123.919 10.5653 124.143 10.64C124.367 10.704 124.553 10.752 124.703 10.784C124.863 10.8053 125.087 10.8427 125.375 10.896C125.673 10.9387 125.892 10.976 126.031 11.008C126.18 11.0293 126.388 11.0773 126.655 11.152C126.932 11.216 127.145 11.2853 127.295 11.36C127.444 11.4347 127.615 11.5413 127.807 11.68C128.009 11.808 128.159 11.9573 128.255 12.128C128.351 12.288 128.436 12.4907 128.511 12.736C128.585 12.9707 128.623 13.232 128.623 13.52C128.623 14.3307 128.308 14.9813 127.679 15.472C127.06 15.952 126.239 16.192 125.215 16.192ZM133.418 16.192C132.735 16.192 132.138 16.08 131.626 15.856C131.114 15.6213 130.714 15.2907 130.426 14.864C130.138 14.4267 129.983 13.92 129.962 13.344H131.29C131.322 13.8453 131.535 14.2347 131.93 14.512C132.324 14.7893 132.831 14.928 133.45 14.928C134.058 14.928 134.548 14.8107 134.922 14.576C135.295 14.3307 135.482 14 135.482 13.584C135.482 13.424 135.455 13.28 135.402 13.152C135.359 13.024 135.279 12.912 135.162 12.816C135.044 12.72 134.927 12.64 134.81 12.576C134.692 12.512 134.532 12.4533 134.33 12.4C134.138 12.3467 133.967 12.3093 133.818 12.288C133.679 12.256 133.487 12.2187 133.242 12.176C132.964 12.1333 132.751 12.096 132.602 12.064C132.452 12.032 132.25 11.984 131.994 11.92C131.738 11.8453 131.535 11.7707 131.386 11.696C131.236 11.6213 131.071 11.52 130.89 11.392C130.708 11.264 130.57 11.1253 130.474 10.976C130.378 10.8267 130.292 10.64 130.218 10.416C130.154 10.192 130.122 9.94133 130.122 9.664C130.122 9.30133 130.196 8.96533 130.346 8.656C130.506 8.34667 130.724 8.08533 131.002 7.872C131.29 7.648 131.636 7.47733 132.042 7.36C132.447 7.232 132.89 7.168 133.37 7.168C134.351 7.168 135.135 7.408 135.722 7.888C136.308 8.368 136.612 9.01867 136.634 9.84H135.354C135.332 9.53067 135.236 9.26933 135.066 9.056C134.906 8.832 134.676 8.66667 134.378 8.56C134.09 8.44267 133.748 8.384 133.354 8.384C132.959 8.384 132.618 8.43733 132.33 8.544C132.042 8.64 131.818 8.784 131.658 8.976C131.508 9.168 131.434 9.38667 131.434 9.632C131.434 9.80267 131.476 9.95733 131.562 10.096C131.647 10.224 131.743 10.3307 131.85 10.416C131.956 10.4907 132.122 10.5653 132.346 10.64C132.57 10.704 132.756 10.752 132.906 10.784C133.066 10.8053 133.29 10.8427 133.578 10.896C133.876 10.9387 134.095 10.976 134.234 11.008C134.383 11.0293 134.591 11.0773 134.858 11.152C135.135 11.216 135.348 11.2853 135.498 11.36C135.647 11.4347 135.818 11.5413 136.01 11.68C136.212 11.808 136.362 11.9573 136.458 12.128C136.554 12.288 136.639 12.4907 136.714 12.736C136.788 12.9707 136.826 13.232 136.826 13.52C136.826 14.3307 136.511 14.9813 135.882 15.472C135.263 15.952 134.442 16.192 133.418 16.192ZM138.821 5.856V4.304H140.293V5.856H138.821ZM138.885 16V7.36H140.245V16H138.885ZM147.299 7.168C148.312 7.168 149.117 7.50933 149.715 8.192C150.323 8.87467 150.627 9.75467 150.627 10.832V16H149.267V11.152C149.267 10.5653 149.176 10.0693 148.995 9.664C148.824 9.25867 148.563 8.94933 148.211 8.736C147.869 8.52267 147.448 8.416 146.947 8.416C146.211 8.416 145.592 8.69333 145.091 9.248C144.589 9.792 144.339 10.4693 144.339 11.28V16H142.979V7.36H143.939L144.211 8.72C144.424 8.38933 144.685 8.112 144.995 7.888C145.304 7.65333 145.656 7.47733 146.051 7.36C146.445 7.232 146.861 7.168 147.299 7.168ZM160.38 7.36H161.292V14.784C161.292 16.1813 160.913 17.28 160.156 18.08C159.399 18.88 158.364 19.28 157.052 19.28C155.996 19.28 155.105 19.0187 154.38 18.496C153.665 17.9733 153.191 17.2533 152.956 16.336H154.316C154.508 16.8693 154.849 17.2853 155.34 17.584C155.841 17.8827 156.412 18.032 157.052 18.032C157.927 18.032 158.625 17.7547 159.148 17.2C159.681 16.656 159.948 15.9093 159.948 14.96V14.432C159.127 15.296 158.081 15.728 156.812 15.728C155.607 15.728 154.593 15.3173 153.772 14.496C152.961 13.6747 152.556 12.6613 152.556 11.456C152.556 10.6667 152.743 9.94667 153.116 9.296C153.489 8.63467 154.001 8.11733 154.652 7.744C155.303 7.36 156.023 7.168 156.812 7.168C157.484 7.168 158.108 7.30667 158.684 7.584C159.271 7.85067 159.761 8.224 160.156 8.704L160.38 7.36ZM156.956 14.416C157.521 14.416 158.033 14.288 158.492 14.032C158.951 13.776 159.308 13.424 159.564 12.976C159.82 12.528 159.948 12.0213 159.948 11.456C159.948 10.592 159.665 9.88267 159.1 9.328C158.535 8.76267 157.82 8.48 156.956 8.48C156.092 8.48 155.372 8.76267 154.796 9.328C154.231 9.89333 153.948 10.6027 153.948 11.456C153.948 12.2987 154.231 13.0027 154.796 13.568C155.372 14.1333 156.092 14.416 156.956 14.416ZM172.789 7.168C174.08 7.168 175.141 7.59467 175.973 8.448C176.816 9.30133 177.237 10.3787 177.237 11.68C177.237 12.9707 176.816 14.048 175.973 14.912C175.141 15.7653 174.08 16.192 172.789 16.192C171.488 16.192 170.416 15.744 169.573 14.848V19.088H168.213V7.36H169.141L169.413 8.688C169.818 8.208 170.309 7.83467 170.885 7.568C171.472 7.30133 172.106 7.168 172.789 7.168ZM172.693 14.88C173.61 14.88 174.368 14.576 174.965 13.968C175.562 13.36 175.861 12.5973 175.861 11.68C175.861 10.7627 175.562 10 174.965 9.392C174.368 8.784 173.61 8.48 172.693 8.48C171.776 8.48 171.013 8.78933 170.405 9.408C169.808 10.016 169.509 10.7733 169.509 11.68C169.509 12.2773 169.642 12.8213 169.909 13.312C170.186 13.8027 170.57 14.1867 171.061 14.464C171.552 14.7413 172.096 14.88 172.693 14.88ZM179.243 5.856V4.304H180.715V5.856H179.243ZM179.307 16V7.36H180.667V16H179.307ZM191.48 11.712C191.48 11.8293 191.47 11.9947 191.448 12.208H184.072C184.179 13.008 184.51 13.6533 185.064 14.144C185.619 14.624 186.302 14.864 187.112 14.864C187.71 14.864 188.238 14.736 188.696 14.48C189.166 14.2133 189.539 13.84 189.816 13.36H191.24C190.878 14.256 190.334 14.9547 189.608 15.456C188.883 15.9467 188.051 16.192 187.112 16.192C185.864 16.192 184.819 15.76 183.976 14.896C183.134 14.032 182.712 12.96 182.712 11.68C182.712 10.3893 183.134 9.31733 183.976 8.464C184.819 7.6 185.864 7.168 187.112 7.168C188.403 7.168 189.454 7.60533 190.264 8.48C191.075 9.35467 191.48 10.432 191.48 11.712ZM187.112 8.464C186.6 8.464 186.131 8.56533 185.704 8.768C185.288 8.97067 184.942 9.264 184.664 9.648C184.387 10.0213 184.2 10.4533 184.104 10.944H190.104C190.008 10.4427 189.822 10.0053 189.544 9.632C189.267 9.248 188.92 8.96 188.504 8.768C188.088 8.56533 187.624 8.464 187.112 8.464ZM197.318 16.192C196.475 16.192 195.707 16 195.014 15.616C194.331 15.2213 193.792 14.6773 193.398 13.984C193.014 13.2907 192.822 12.5227 192.822 11.68C192.822 10.3893 193.248 9.31733 194.102 8.464C194.966 7.6 196.038 7.168 197.318 7.168C198.342 7.168 199.227 7.45067 199.974 8.016C200.731 8.58133 201.243 9.33333 201.51 10.272H200.166C199.91 9.71733 199.526 9.28 199.014 8.96C198.512 8.64 197.947 8.48 197.318 8.48C196.432 8.48 195.691 8.78933 195.094 9.408C194.507 10.016 194.214 10.7733 194.214 11.68C194.214 12.2773 194.347 12.8213 194.614 13.312C194.88 13.792 195.248 14.176 195.718 14.464C196.198 14.7413 196.731 14.88 197.318 14.88C197.947 14.88 198.507 14.72 198.998 14.4C199.499 14.0693 199.883 13.616 200.15 13.04H201.526C201.259 14 200.742 14.768 199.974 15.344C199.216 15.9093 198.331 16.192 197.318 16.192ZM211.512 11.712C211.512 11.8293 211.501 11.9947 211.48 12.208H204.104C204.21 13.008 204.541 13.6533 205.096 14.144C205.65 14.624 206.333 14.864 207.144 14.864C207.741 14.864 208.269 14.736 208.728 14.48C209.197 14.2133 209.57 13.84 209.848 13.36H211.272C210.909 14.256 210.365 14.9547 209.64 15.456C208.914 15.9467 208.082 16.192 207.144 16.192C205.896 16.192 204.85 15.76 204.008 14.896C203.165 14.032 202.744 12.96 202.744 11.68C202.744 10.3893 203.165 9.31733 204.008 8.464C204.85 7.6 205.896 7.168 207.144 7.168C208.434 7.168 209.485 7.60533 210.296 8.48C211.106 9.35467 211.512 10.432 211.512 11.712ZM207.144 8.464C206.632 8.464 206.162 8.56533 205.736 8.768C205.32 8.97067 204.973 9.264 204.696 9.648C204.418 10.0213 204.232 10.4533 204.136 10.944H210.136C210.04 10.4427 209.853 10.0053 209.576 9.632C209.298 9.248 208.952 8.96 208.536 8.768C208.12 8.56533 207.656 8.464 207.144 8.464ZM73.3903 38.736H74.3343V40H73.2143C72.2863 40 71.5556 39.7333 71.0223 39.2C70.489 38.656 70.2223 37.9147 70.2223 36.976V32.592H68.7023V32.352L71.3743 29.536H71.5823V31.36H74.2863V32.592H71.5823V36.928C71.5823 37.3227 71.6516 37.6533 71.7903 37.92C71.929 38.1867 72.1316 38.3893 72.3983 38.528C72.6756 38.6667 73.0063 38.736 73.3903 38.736ZM80.486 31.168C81.51 31.168 82.3207 31.4987 82.918 32.16C83.5154 32.8107 83.814 33.7013 83.814 34.832V40H82.454V35.152C82.454 34.5653 82.3634 34.0693 82.182 33.664C82.0114 33.2587 81.75 32.9493 81.398 32.736C81.0567 32.5227 80.6354 32.416 80.134 32.416C79.398 32.416 78.7794 32.6933 78.278 33.248C77.7767 33.792 77.526 34.4693 77.526 35.28V40H76.166V28.272H77.526V32.528C77.8567 32.1013 78.278 31.7707 78.79 31.536C79.302 31.2907 79.8674 31.168 80.486 31.168ZM93.7917 31.36H94.8797V40H93.7437L93.5997 38.688C93.1943 39.168 92.6983 39.5413 92.1117 39.808C91.5357 40.064 90.901 40.192 90.2077 40.192C88.9383 40.192 87.877 39.7653 87.0237 38.912C86.1703 38.048 85.7437 36.9707 85.7437 35.68C85.7437 34.3893 86.1703 33.3173 87.0237 32.464C87.877 31.6 88.9383 31.168 90.2077 31.168C90.9117 31.168 91.5517 31.3013 92.1277 31.568C92.7143 31.8347 93.2103 32.208 93.6157 32.688L93.7917 31.36ZM88.0317 37.968C88.6397 38.576 89.4023 38.88 90.3197 38.88C91.237 38.88 91.9943 38.576 92.5917 37.968C93.189 37.36 93.4877 36.5973 93.4877 35.68C93.4877 34.7627 93.189 34 92.5917 33.392C91.9943 32.784 91.237 32.48 90.3197 32.48C89.4023 32.48 88.6397 32.7893 88.0317 33.408C87.4343 34.016 87.1357 34.7733 87.1357 35.68C87.1357 36.5867 87.4343 37.3493 88.0317 37.968ZM101.187 38.736H102.131V40H101.011C100.083 40 99.3525 39.7333 98.8192 39.2C98.2858 38.656 98.0192 37.9147 98.0192 36.976V32.592H96.4992V32.352L99.1712 29.536H99.3792V31.36H102.083V32.592H99.3792V36.928C99.3792 37.3227 99.4485 37.6533 99.5872 37.92C99.7258 38.1867 99.9285 38.3893 100.195 38.528C100.472 38.6667 100.803 38.736 101.187 38.736ZM112.727 31.424V32.56H110.087V40H108.727V32.56H107.031V31.424H108.727V30.72C108.727 29.7813 108.946 29.088 109.383 28.64C109.831 28.192 110.535 27.968 111.495 27.968H112.727V29.056H111.751C111.132 29.056 110.69 29.184 110.423 29.44C110.167 29.696 110.039 30.1333 110.039 30.752V31.424H112.727ZM117.929 40.192C117.076 40.192 116.297 40 115.593 39.616C114.889 39.2213 114.34 38.6827 113.945 38C113.55 37.3067 113.353 36.5333 113.353 35.68C113.353 34.3787 113.785 33.3013 114.649 32.448C115.524 31.5947 116.617 31.168 117.929 31.168C118.793 31.168 119.572 31.3653 120.265 31.76C120.969 32.144 121.518 32.6827 121.913 33.376C122.318 34.0587 122.521 34.8267 122.521 35.68C122.521 36.9707 122.084 38.048 121.209 38.912C120.334 39.7653 119.241 40.192 117.929 40.192ZM115.641 37.984C116.249 38.5813 117.012 38.88 117.929 38.88C118.857 38.88 119.62 38.5813 120.217 37.984C120.825 37.376 121.129 36.608 121.129 35.68C121.129 34.752 120.825 33.9893 120.217 33.392C119.62 32.784 118.857 32.48 117.929 32.48C117.012 32.48 116.249 32.784 115.641 33.392C115.044 33.9893 114.745 34.752 114.745 35.68C114.745 36.608 115.044 37.376 115.641 37.984ZM128.396 40.192C127.553 40.192 126.785 40 126.092 39.616C125.409 39.2213 124.871 38.6773 124.476 37.984C124.092 37.2907 123.9 36.5227 123.9 35.68C123.9 34.3893 124.327 33.3173 125.18 32.464C126.044 31.6 127.116 31.168 128.396 31.168C129.42 31.168 130.305 31.4507 131.052 32.016C131.809 32.5813 132.321 33.3333 132.588 34.272H131.244C130.988 33.7173 130.604 33.28 130.092 32.96C129.591 32.64 129.025 32.48 128.396 32.48C127.511 32.48 126.769 32.7893 126.172 33.408C125.585 34.016 125.292 34.7733 125.292 35.68C125.292 36.2773 125.425 36.8213 125.692 37.312C125.959 37.792 126.327 38.176 126.796 38.464C127.276 38.7413 127.809 38.88 128.396 38.88C129.025 38.88 129.585 38.72 130.076 38.4C130.577 38.0693 130.961 37.616 131.228 37.04H132.604C132.337 38 131.82 38.768 131.052 39.344C130.295 39.9093 129.409 40.192 128.396 40.192ZM138.19 40.192C137.027 40.192 136.094 39.8453 135.39 39.152C134.696 38.448 134.35 37.5147 134.35 36.352V31.36H135.71V36.128C135.71 36.6933 135.811 37.184 136.014 37.6C136.216 38.0053 136.504 38.32 136.878 38.544C137.251 38.768 137.688 38.88 138.19 38.88C138.958 38.88 139.56 38.6347 139.998 38.144C140.435 37.6533 140.654 36.9813 140.654 36.128V31.36H142.014V36.352C142.014 37.5147 141.667 38.448 140.974 39.152C140.28 39.8453 139.352 40.192 138.19 40.192ZM147.355 40.192C146.672 40.192 146.075 40.08 145.563 39.856C145.051 39.6213 144.651 39.2907 144.363 38.864C144.075 38.4267 143.92 37.92 143.899 37.344H145.227C145.259 37.8453 145.472 38.2347 145.867 38.512C146.262 38.7893 146.768 38.928 147.387 38.928C147.995 38.928 148.486 38.8107 148.859 38.576C149.232 38.3307 149.419 38 149.419 37.584C149.419 37.424 149.392 37.28 149.339 37.152C149.296 37.024 149.216 36.912 149.099 36.816C148.982 36.72 148.864 36.64 148.747 36.576C148.63 36.512 148.47 36.4533 148.267 36.4C148.075 36.3467 147.904 36.3093 147.755 36.288C147.616 36.256 147.424 36.2187 147.179 36.176C146.902 36.1333 146.688 36.096 146.539 36.064C146.39 36.032 146.187 35.984 145.931 35.92C145.675 35.8453 145.472 35.7707 145.323 35.696C145.174 35.6213 145.008 35.52 144.827 35.392C144.646 35.264 144.507 35.1253 144.411 34.976C144.315 34.8267 144.23 34.64 144.155 34.416C144.091 34.192 144.059 33.9413 144.059 33.664C144.059 33.3013 144.134 32.9653 144.283 32.656C144.443 32.3467 144.662 32.0853 144.939 31.872C145.227 31.648 145.574 31.4773 145.979 31.36C146.384 31.232 146.827 31.168 147.307 31.168C148.288 31.168 149.072 31.408 149.659 31.888C150.246 32.368 150.55 33.0187 150.571 33.84H149.291C149.27 33.5307 149.174 33.2693 149.003 33.056C148.843 32.832 148.614 32.6667 148.315 32.56C148.027 32.4427 147.686 32.384 147.291 32.384C146.896 32.384 146.555 32.4373 146.267 32.544C145.979 32.64 145.755 32.784 145.595 32.976C145.446 33.168 145.371 33.3867 145.371 33.632C145.371 33.8027 145.414 33.9573 145.499 34.096C145.584 34.224 145.68 34.3307 145.787 34.416C145.894 34.4907 146.059 34.5653 146.283 34.64C146.507 34.704 146.694 34.752 146.843 34.784C147.003 34.8053 147.227 34.8427 147.515 34.896C147.814 34.9387 148.032 34.976 148.171 35.008C148.32 35.0293 148.528 35.0773 148.795 35.152C149.072 35.216 149.286 35.2853 149.435 35.36C149.584 35.4347 149.755 35.5413 149.947 35.68C150.15 35.808 150.299 35.9573 150.395 36.128C150.491 36.288 150.576 36.4907 150.651 36.736C150.726 36.9707 150.763 37.232 150.763 37.52C150.763 38.3307 150.448 38.9813 149.819 39.472C149.2 39.952 148.379 40.192 147.355 40.192ZM160.902 35.712C160.902 35.8293 160.892 35.9947 160.87 36.208H153.494C153.601 37.008 153.932 37.6533 154.486 38.144C155.041 38.624 155.724 38.864 156.534 38.864C157.132 38.864 157.66 38.736 158.118 38.48C158.588 38.2133 158.961 37.84 159.238 37.36H160.662C160.3 38.256 159.756 38.9547 159.03 39.456C158.305 39.9467 157.473 40.192 156.534 40.192C155.286 40.192 154.241 39.76 153.398 38.896C152.556 38.032 152.134 36.96 152.134 35.68C152.134 34.3893 152.556 33.3173 153.398 32.464C154.241 31.6 155.286 31.168 156.534 31.168C157.825 31.168 158.876 31.6053 159.686 32.48C160.497 33.3547 160.902 34.432 160.902 35.712ZM156.534 32.464C156.022 32.464 155.553 32.5653 155.126 32.768C154.71 32.9707 154.364 33.264 154.086 33.648C153.809 34.0213 153.622 34.4533 153.526 34.944H159.526C159.43 34.4427 159.244 34.0053 158.966 33.632C158.689 33.248 158.342 32.96 157.926 32.768C157.51 32.5653 157.046 32.464 156.534 32.464ZM165.668 40.192C164.985 40.192 164.388 40.08 163.876 39.856C163.364 39.6213 162.964 39.2907 162.676 38.864C162.388 38.4267 162.233 37.92 162.212 37.344H163.54C163.572 37.8453 163.785 38.2347 164.18 38.512C164.574 38.7893 165.081 38.928 165.7 38.928C166.308 38.928 166.798 38.8107 167.172 38.576C167.545 38.3307 167.732 38 167.732 37.584C167.732 37.424 167.705 37.28 167.652 37.152C167.609 37.024 167.529 36.912 167.412 36.816C167.294 36.72 167.177 36.64 167.06 36.576C166.942 36.512 166.782 36.4533 166.58 36.4C166.388 36.3467 166.217 36.3093 166.068 36.288C165.929 36.256 165.737 36.2187 165.492 36.176C165.214 36.1333 165.001 36.096 164.852 36.064C164.702 36.032 164.5 35.984 164.244 35.92C163.988 35.8453 163.785 35.7707 163.636 35.696C163.486 35.6213 163.321 35.52 163.14 35.392C162.958 35.264 162.82 35.1253 162.724 34.976C162.628 34.8267 162.542 34.64 162.468 34.416C162.404 34.192 162.372 33.9413 162.372 33.664C162.372 33.3013 162.446 32.9653 162.596 32.656C162.756 32.3467 162.974 32.0853 163.252 31.872C163.54 31.648 163.886 31.4773 164.292 31.36C164.697 31.232 165.14 31.168 165.62 31.168C166.601 31.168 167.385 31.408 167.972 31.888C168.558 32.368 168.862 33.0187 168.884 33.84H167.604C167.582 33.5307 167.486 33.2693 167.316 33.056C167.156 32.832 166.926 32.6667 166.628 32.56C166.34 32.4427 165.998 32.384 165.604 32.384C165.209 32.384 164.868 32.4373 164.58 32.544C164.292 32.64 164.068 32.784 163.908 32.976C163.758 33.168 163.684 33.3867 163.684 33.632C163.684 33.8027 163.726 33.9573 163.812 34.096C163.897 34.224 163.993 34.3307 164.1 34.416C164.206 34.4907 164.372 34.5653 164.596 34.64C164.82 34.704 165.006 34.752 165.156 34.784C165.316 34.8053 165.54 34.8427 165.828 34.896C166.126 34.9387 166.345 34.976 166.484 35.008C166.633 35.0293 166.841 35.0773 167.108 35.152C167.385 35.216 167.598 35.2853 167.748 35.36C167.897 35.4347 168.068 35.5413 168.26 35.68C168.462 35.808 168.612 35.9573 168.708 36.128C168.804 36.288 168.889 36.4907 168.964 36.736C169.038 36.9707 169.076 37.232 169.076 37.52C169.076 38.3307 168.761 38.9813 168.132 39.472C167.513 39.952 166.692 40.192 165.668 40.192ZM179.21 40.192C178.357 40.192 177.578 40 176.874 39.616C176.17 39.2213 175.621 38.6827 175.226 38C174.832 37.3067 174.634 36.5333 174.634 35.68C174.634 34.3787 175.066 33.3013 175.93 32.448C176.805 31.5947 177.898 31.168 179.21 31.168C180.074 31.168 180.853 31.3653 181.546 31.76C182.25 32.144 182.8 32.6827 183.194 33.376C183.6 34.0587 183.802 34.8267 183.802 35.68C183.802 36.9707 183.365 38.048 182.49 38.912C181.616 39.7653 180.522 40.192 179.21 40.192ZM176.922 37.984C177.53 38.5813 178.293 38.88 179.21 38.88C180.138 38.88 180.901 38.5813 181.498 37.984C182.106 37.376 182.41 36.608 182.41 35.68C182.41 34.752 182.106 33.9893 181.498 33.392C180.901 32.784 180.138 32.48 179.21 32.48C178.293 32.48 177.53 32.784 176.922 33.392C176.325 33.9893 176.026 34.752 176.026 35.68C176.026 36.608 176.325 37.376 176.922 37.984ZM190.189 31.168C191.202 31.168 192.008 31.5093 192.605 32.192C193.213 32.8747 193.517 33.7547 193.517 34.832V40H192.157V35.152C192.157 34.5653 192.066 34.0693 191.885 33.664C191.714 33.2587 191.453 32.9493 191.101 32.736C190.76 32.5227 190.338 32.416 189.837 32.416C189.101 32.416 188.482 32.6933 187.981 33.248C187.48 33.792 187.229 34.4693 187.229 35.28V40H185.869V31.36H186.829L187.101 32.72C187.314 32.3893 187.576 32.112 187.885 31.888C188.194 31.6533 188.546 31.4773 188.941 31.36C189.336 31.232 189.752 31.168 190.189 31.168ZM204.898 31.168C206.189 31.168 207.25 31.5947 208.082 32.448C208.925 33.3013 209.346 34.3787 209.346 35.68C209.346 36.9707 208.925 38.048 208.082 38.912C207.25 39.7653 206.189 40.192 204.898 40.192C203.597 40.192 202.525 39.744 201.682 38.848V43.088H200.322V31.36H201.25L201.522 32.688C201.928 32.208 202.418 31.8347 202.994 31.568C203.581 31.3013 204.216 31.168 204.898 31.168ZM204.802 38.88C205.72 38.88 206.477 38.576 207.074 37.968C207.672 37.36 207.97 36.5973 207.97 35.68C207.97 34.7627 207.672 34 207.074 33.392C206.477 32.784 205.72 32.48 204.802 32.48C203.885 32.48 203.122 32.7893 202.514 33.408C201.917 34.016 201.618 34.7733 201.618 35.68C201.618 36.2773 201.752 36.8213 202.018 37.312C202.296 37.8027 202.68 38.1867 203.17 38.464C203.661 38.7413 204.205 38.88 204.802 38.88ZM219.496 35.712C219.496 35.8293 219.485 35.9947 219.464 36.208H212.088C212.195 37.008 212.525 37.6533 213.08 38.144C213.635 38.624 214.317 38.864 215.128 38.864C215.725 38.864 216.253 38.736 216.712 38.48C217.181 38.2133 217.555 37.84 217.832 37.36H219.256C218.893 38.256 218.349 38.9547 217.624 39.456C216.899 39.9467 216.067 40.192 215.128 40.192C213.88 40.192 212.835 39.76 211.992 38.896C211.149 38.032 210.728 36.96 210.728 35.68C210.728 34.3893 211.149 33.3173 211.992 32.464C212.835 31.6 213.88 31.168 215.128 31.168C216.419 31.168 217.469 31.6053 218.28 32.48C219.091 33.3547 219.496 34.432 219.496 35.712ZM215.128 32.464C214.616 32.464 214.147 32.5653 213.72 32.768C213.304 32.9707 212.957 33.264 212.68 33.648C212.403 34.0213 212.216 34.4533 212.12 34.944H218.12C218.024 34.4427 217.837 34.0053 217.56 33.632C217.283 33.248 216.936 32.96 216.52 32.768C216.104 32.5653 215.64 32.464 215.128 32.464ZM225.413 40.192C224.56 40.192 223.781 40 223.077 39.616C222.373 39.2213 221.824 38.6827 221.429 38C221.035 37.3067 220.837 36.5333 220.837 35.68C220.837 34.3787 221.269 33.3013 222.133 32.448C223.008 31.5947 224.101 31.168 225.413 31.168C226.277 31.168 227.056 31.3653 227.749 31.76C228.453 32.144 229.003 32.6827 229.397 33.376C229.803 34.0587 230.005 34.8267 230.005 35.68C230.005 36.9707 229.568 38.048 228.693 38.912C227.819 39.7653 226.725 40.192 225.413 40.192ZM223.125 37.984C223.733 38.5813 224.496 38.88 225.413 38.88C226.341 38.88 227.104 38.5813 227.701 37.984C228.309 37.376 228.613 36.608 228.613 35.68C228.613 34.752 228.309 33.9893 227.701 33.392C227.104 32.784 226.341 32.48 225.413 32.48C224.496 32.48 223.733 32.784 223.125 33.392C222.528 33.9893 222.229 34.752 222.229 35.68C222.229 36.608 222.528 37.376 223.125 37.984ZM236.648 31.168C237.939 31.168 239 31.5947 239.832 32.448C240.675 33.3013 241.096 34.3787 241.096 35.68C241.096 36.9707 240.675 38.048 239.832 38.912C239 39.7653 237.939 40.192 236.648 40.192C235.347 40.192 234.275 39.744 233.432 38.848V43.088H232.072V31.36H233L233.272 32.688C233.678 32.208 234.168 31.8347 234.744 31.568C235.331 31.3013 235.966 31.168 236.648 31.168ZM236.552 38.88C237.47 38.88 238.227 38.576 238.824 37.968C239.422 37.36 239.72 36.5973 239.72 35.68C239.72 34.7627 239.422 34 238.824 33.392C238.227 32.784 237.47 32.48 236.552 32.48C235.635 32.48 234.872 32.7893 234.264 33.408C233.667 34.016 233.368 34.7733 233.368 35.68C233.368 36.2773 233.502 36.8213 233.768 37.312C234.046 37.8027 234.43 38.1867 234.92 38.464C235.411 38.7413 235.955 38.88 236.552 38.88ZM243.166 40V28.272H244.526V40H243.166ZM255.34 35.712C255.34 35.8293 255.329 35.9947 255.308 36.208H247.932C248.038 37.008 248.369 37.6533 248.924 38.144C249.478 38.624 250.161 38.864 250.972 38.864C251.569 38.864 252.097 38.736 252.556 38.48C253.025 38.2133 253.398 37.84 253.676 37.36H255.1C254.737 38.256 254.193 38.9547 253.468 39.456C252.742 39.9467 251.91 40.192 250.972 40.192C249.724 40.192 248.678 39.76 247.836 38.896C246.993 38.032 246.572 36.96 246.572 35.68C246.572 34.3893 246.993 33.3173 247.836 32.464C248.678 31.6 249.724 31.168 250.972 31.168C252.262 31.168 253.313 31.6053 254.124 32.48C254.934 33.3547 255.34 34.432 255.34 35.712ZM250.972 32.464C250.46 32.464 249.99 32.5653 249.564 32.768C249.148 32.9707 248.801 33.264 248.524 33.648C248.246 34.0213 248.06 34.4533 247.964 34.944H253.964C253.868 34.4427 253.681 34.0053 253.404 33.632C253.126 33.248 252.78 32.96 252.364 32.768C251.948 32.5653 251.484 32.464 250.972 32.464Z" fill="black"/>
</svg>
