<svg width="29" height="25" viewBox="0 0 29 25" fill="none" xmlns="http://www.w3.org/2000/svg">
<path d="M4.63117 12.1909C3.76552 12.1191 2.93233 11.8851 2.2858 11.4888C1.53377 11.0286 1.18751 10.4196 1.24431 9.82115H1.21726V4.67038V3.48682L1.24431 3.4948C1.19292 4.09056 1.53647 4.69697 2.28851 5.15444C3.0189 5.60126 3.98734 5.8433 4.97473 5.87521C5.59962 5.89649 5.87284 6.33268 5.42919 6.58535L4.92874 6.86993C4.94497 6.86993 4.9585 6.86993 4.97473 6.87259C5.59962 6.89387 4.63117 12.1883 4.63117 12.1883V12.1909Z" fill="white"/>
<path d="M1.24431 4.67038C1.24431 4.68633 1.24431 4.70495 1.24431 4.72091M4.63117 12.1909C3.76552 12.1191 2.93233 11.8851 2.2858 11.4888C1.53377 11.0286 1.18751 10.4196 1.24431 9.82115H1.21726V4.67038V3.48682L1.24431 3.4948C1.19292 4.09056 1.53647 4.69697 2.28851 5.15444C3.0189 5.60126 3.98734 5.8433 4.97473 5.87521C5.59962 5.89649 5.87284 6.33268 5.42919 6.58535L4.92874 6.86993C4.94497 6.86993 4.9585 6.86993 4.97473 6.87259C5.59962 6.89387 4.63117 12.1883 4.63117 12.1883V12.1909Z" stroke="#3D0F9A" stroke-width="0.5" stroke-linejoin="round"/>
<path d="M5.10414 12.0871C5.29023 12.1978 5.54701 12.2057 5.7455 12.1424C5.90212 12.0926 6.02244 11.9984 6.04309 11.8756C6.14192 11.2948 6.59449 10.7327 7.40079 10.3097C8.85732 9.54419 11.2606 9.53348 12.7197 10.283C13.8798 10.8799 14.3089 11.7712 14.0176 12.5903C14.1477 12.9517 14.1373 17.5384 13.9812 17.8971C13.7861 17.4447 13.3674 17.0165 12.7197 16.6846C11.2606 15.9324 8.85732 15.9458 7.40079 16.7113C6.59449 17.1342 6.14192 17.699 6.04309 18.2772C6.02134 18.4009 5.90139 18.495 5.7455 18.5448C5.54713 18.6081 5.29057 18.5996 5.10414 18.4887L0.894206 15.9405C0.594882 15.7593 0.412016 15.4349 0.412016 15.085V9.24707L5.10414 12.0871Z" fill="white"/>
<path d="M5.7455 18.5448C5.90139 18.495 6.02134 18.4009 6.04309 18.2772C6.14192 17.699 6.59449 17.1342 7.40079 16.7113C8.85732 15.9458 11.2606 15.9324 12.7197 16.6846C13.3674 17.0165 13.7861 17.4447 13.9812 17.8971C14.1373 17.5384 14.1477 12.9517 14.0176 12.5903C14.3089 11.7712 13.8798 10.8799 12.7197 10.283C11.2606 9.53348 8.85732 9.54419 7.40079 10.3097C6.59449 10.7327 6.14192 11.2948 6.04309 11.8756C6.02244 11.9984 5.90212 12.0926 5.7455 12.1424M5.7455 18.5448C5.54713 18.6081 5.29057 18.5996 5.10414 18.4887L0.894206 15.9405C0.594882 15.7593 0.412016 15.4349 0.412016 15.085V9.24707L5.10414 12.0871C5.29023 12.1978 5.54701 12.2057 5.7455 12.1424M5.7455 18.5448V12.1424" stroke="#3D0F9A" stroke-width="0.5" stroke-linejoin="round"/>
<path d="M14.3457 23.9997L10.1009 21.4541C9.97089 21.3765 9.92668 21.2801 9.94749 21.1891V14.8438C9.95269 14.9187 9.99951 14.9936 10.1009 15.0525L14.3457 17.5981V23.9997Z" fill="white" stroke="#3D0F9A" stroke-width="0.5" stroke-linejoin="round"/>
<path d="M14.3461 17.5985L10.1014 15.0529C9.77106 14.8549 9.98173 14.5229 10.4499 14.4962C11.3498 14.4426 12.229 14.2098 12.9208 13.8002C14.575 12.8178 14.51 11.2038 12.7231 10.283C11.264 9.5308 8.86072 9.54418 7.40419 10.3097C6.59789 10.7327 6.14532 11.2975 6.04649 11.8756C5.99707 12.1567 5.44046 12.2852 5.10754 12.0871L0.412815 9.24707L5.2558 6.43648C5.68235 6.18219 5.41965 5.7432 4.81883 5.72179C3.86948 5.68699 2.93834 5.44608 2.23609 4.99639C0.880988 4.12912 0.888791 2.74256 2.24909 1.86994C3.75505 0.903637 6.28838 0.87687 7.83074 1.79499C8.52 2.20454 8.89193 2.73186 8.94915 3.26988C8.98557 3.62589 9.73464 3.77847 10.1612 3.52417L11.9262 2.4929C13.502 1.57222 15.4542 1.58323 17.0195 2.52162L28.4121 9.35146L14.3461 17.5985Z" fill="#FF5A00" stroke="#3D0F9A" stroke-width="0.5" stroke-linejoin="round"/>
<path d="M14.3435 17.5984V24L27.9178 16.0427C28.224 15.8632 28.4121 15.5349 28.4121 15.18V9.354L14.3435 17.5984Z" fill="white" stroke="#3D0F9A" stroke-width="0.5" stroke-linejoin="round"/>
</svg>
