<svg width="16" height="16" viewBox="0 0 16 16" fill="none" xmlns="http://www.w3.org/2000/svg">
<path fill-rule="evenodd" clip-rule="evenodd" d="M0 3.75C0 2.7835 0.783502 2 1.75 2H14.25C15.2165 2 16 2.7835 16 3.75V12.25C16 13.2165 15.2165 14 14.25 14H1.75C0.783501 14 0 13.2165 0 12.25V3.75ZM1.75 3.5C1.61193 3.5 1.5 3.61193 1.5 3.75V4.4219L8 8.13619L14.5 4.4219V3.75C14.5 3.61193 14.3881 3.5 14.25 3.5H1.75ZM1.75 12.5C1.61193 12.5 1.5 12.3881 1.5 12.25V6.14953L7.6279 9.65118C7.85847 9.78294 8.14153 9.78294 8.3721 9.65118L14.5 6.14953V12.25C14.5 12.3881 14.3881 12.5 14.25 12.5H1.75Z" fill="currentColor"/>
</svg>
