<svg width="17" height="16" viewBox="0 0 17 16" fill="none" xmlns="http://www.w3.org/2000/svg">
<path d="M13.4139 0.158649L8.77384 5.80103L8.77486 5.8026L4.80293 0.175304C4.73795 0.0711316 4.6223 0.00136321 4.49041 0.00136321H1.68064C1.60802 0.00136321 1.53443 0.0233445 1.47039 0.0682629C1.30505 0.184866 1.26491 0.413273 1.38151 0.578613L6.78024 8.22724L0.880559 15.3998C0.751538 15.5556 0.774475 15.7869 0.930257 15.9149C0.998121 15.9713 1.08031 15.9981 1.16251 16H3.22972C3.35491 16 3.46577 15.9369 3.53172 15.8414L8.17179 10.1996L12.1427 15.8259C12.2077 15.93 12.3233 15.9998 12.4552 15.9998L15.265 15.9988C15.3376 15.9988 15.4112 15.9769 15.4752 15.9319C15.6406 15.8153 15.6807 15.5869 15.5641 15.4216L10.1654 7.77377L16.0651 0.600201C16.1941 0.444411 16.1712 0.213125 16.0154 0.0850596C15.9475 0.0286705 15.8653 0.00191144 15.7831 0H13.7159C13.5907 0 13.4799 0.0630763 13.4139 0.158649Z" fill="#75717D"/>
</svg>
