<svg width="16" height="16" viewBox="0 0 16 16" fill="none" xmlns="http://www.w3.org/2000/svg">
<path d="M8.33997 7.82571L9.50471 6.66096C9.76099 6.40468 10.1765 6.40468 10.4328 6.66096C10.6891 6.91724 10.6891 7.33276 10.4328 7.58904L9.26804 8.75378C9.29704 8.86221 9.3125 8.97618 9.3125 9.09375C9.3125 9.81862 8.72487 10.4062 8 10.4062C7.27513 10.4062 6.6875 9.81862 6.6875 9.09375C6.6875 8.36888 7.27513 7.78125 8 7.78125C8.11757 7.78125 8.23154 7.79671 8.33997 7.82571Z" fill="currentColor"/>
<path fill-rule="evenodd" clip-rule="evenodd" d="M6.03125 1.65625C6.03125 1.29381 6.32506 1 6.6875 1H9.3125C9.67494 1 9.96875 1.29381 9.96875 1.65625C9.96875 2.01869 9.67494 2.3125 9.3125 2.3125H8.65625V3.1875C8.65625 3.19956 8.65592 3.21154 8.65528 3.22344C9.79483 3.34922 10.8367 3.79919 11.6866 4.4791L11.6922 4.47346L12.3485 3.81721C12.6047 3.56093 13.0203 3.56093 13.2765 3.81721C13.5328 4.07349 13.5328 4.48901 13.2765 4.74529L12.6203 5.40154L12.6147 5.40711C13.4229 6.41752 13.9062 7.69919 13.9062 9.09375C13.9062 12.3557 11.2619 15 8 15C4.73807 15 2.09375 12.3557 2.09375 9.09375C2.09375 7.69919 2.57707 6.41752 3.38535 5.40711L3.37971 5.40154L2.72346 4.74529C2.46718 4.48901 2.46718 4.07349 2.72346 3.81721C2.97974 3.56093 3.39526 3.56093 3.65154 3.81721L4.30779 4.47346L4.31336 4.4791C5.1633 3.79919 6.20517 3.34922 7.34472 3.22344C7.34408 3.21154 7.34375 3.19956 7.34375 3.1875V2.3125H6.6875C6.32506 2.3125 6.03125 2.01869 6.03125 1.65625ZM8 13.6875C10.5371 13.6875 12.5938 11.6308 12.5938 9.09375C12.5938 6.55669 10.5371 4.5 8 4.5C5.46294 4.5 3.40625 6.55669 3.40625 9.09375C3.40625 11.6308 5.46294 13.6875 8 13.6875Z" fill="currentColor"/>
</svg>
