<?xml version="1.0" encoding="UTF-8"?>
<svg xmlns="http://www.w3.org/2000/svg" xmlns:xlink="http://www.w3.org/1999/xlink" width="20px" height="20px" viewBox="0 0 20 20" version="1.1">
<defs>
<linearGradient id="linear0" gradientUnits="userSpaceOnUse" x1="0.085" y1="0.085" x2="0.915" y2="0.915" gradientTransform="matrix(18.4375,0,0,18.4375,0.78125,0.78125)">
<stop offset="0" style="stop-color:rgb(89.019608%,43.921569%,17.647059%);stop-opacity:1;"/>
<stop offset="0.1071" style="stop-color:rgb(91.764706%,49.019608%,19.215686%);stop-opacity:1;"/>
<stop offset="0.3503" style="stop-color:rgb(96.470588%,58.431373%,21.568627%);stop-opacity:1;"/>
<stop offset="0.5" style="stop-color:rgb(98.431373%,61.960784%,22.745098%);stop-opacity:1;"/>
<stop offset="0.7016" style="stop-color:rgb(91.764706%,48.627451%,19.215686%);stop-opacity:1;"/>
<stop offset="0.8866" style="stop-color:rgb(87.058824%,39.215686%,16.862745%);stop-opacity:1;"/>
<stop offset="1" style="stop-color:rgb(85.098039%,35.686275%,16.078431%);stop-opacity:1;"/>
</linearGradient>
</defs>
<g id="surface1">
<path style=" stroke:none;fill-rule:nonzero;fill:rgb(80.000001%,36.470589%,8.235294%);fill-opacity:1;" d="M 4.296875 0 L 15.703125 0 C 18.078125 0 20 1.921875 20 4.296875 L 20 15.703125 C 20 18.078125 18.078125 20 15.703125 20 L 4.296875 20 C 1.921875 20 0 18.078125 0 15.703125 L 0 4.296875 C 0 1.921875 1.921875 0 4.296875 0 Z M 4.296875 0 "/>
<path style=" stroke:none;fill-rule:nonzero;fill:rgb(95.686275%,61.176473%,32.156864%);fill-opacity:1;" d="M 4.296875 0.390625 L 15.703125 0.390625 C 17.859375 0.390625 19.609375 2.140625 19.609375 4.296875 L 19.609375 15.703125 C 19.609375 17.859375 17.859375 19.609375 15.703125 19.609375 L 4.296875 19.609375 C 2.140625 19.609375 0.390625 17.859375 0.390625 15.703125 L 0.390625 4.296875 C 0.390625 2.140625 2.140625 0.390625 4.296875 0.390625 Z M 4.296875 0.390625 "/>
<path style=" stroke:none;fill-rule:nonzero;fill:url(#linear0);" d="M 4.453125 0.78125 L 15.546875 0.78125 C 17.574219 0.78125 19.21875 2.425781 19.21875 4.453125 L 19.21875 15.546875 C 19.21875 17.574219 17.574219 19.21875 15.546875 19.21875 L 4.453125 19.21875 C 2.425781 19.21875 0.78125 17.574219 0.78125 15.546875 L 0.78125 4.453125 C 0.78125 2.425781 2.425781 0.78125 4.453125 0.78125 Z M 4.453125 0.78125 "/>
<path style=" stroke:none;fill-rule:nonzero;fill:rgb(100%,100%,100%);fill-opacity:1;" d="M 7.1875 14.765625 C 7.1875 13.730469 6.347656 12.890625 5.3125 12.890625 C 4.277344 12.890625 3.4375 13.730469 3.4375 14.765625 C 3.4375 15.800781 4.277344 16.640625 5.3125 16.640625 C 6.347656 16.640625 7.1875 15.800781 7.1875 14.765625 Z M 7.1875 14.765625 "/>
<path style=" stroke:none;fill-rule:nonzero;fill:rgb(100%,100%,100%);fill-opacity:1;" d="M 12.5 16.640625 L 9.84375 16.640625 C 9.84375 13.101562 6.976562 10.234375 3.4375 10.234375 L 3.4375 7.578125 C 8.441406 7.578125 12.5 11.636719 12.5 16.640625 Z M 12.5 16.640625 "/>
<path style=" stroke:none;fill-rule:nonzero;fill:rgb(100%,100%,100%);fill-opacity:1;" d="M 14.375 16.640625 C 14.375 10.601562 9.476562 5.703125 3.4375 5.703125 L 3.4375 2.96875 C 10.988281 2.96875 17.109375 9.089844 17.109375 16.640625 Z M 14.375 16.640625 "/>
</g>
</svg>
