<svg width="23" height="16" viewBox="0 0 23 16" fill="none" xmlns="http://www.w3.org/2000/svg">
<path d="M22.5296 2.50353C22.2661 1.52471 21.4943 0.752941 20.5155 0.489412C18.7273 0 11.5743 0 11.5743 0C11.5743 0 4.42138 0 2.63314 0.470588C1.67314 0.734118 0.882555 1.52471 0.619026 2.50353C0.148438 4.29176 0.148438 8 0.148438 8C0.148438 8 0.148438 11.7271 0.619026 13.4965C0.882555 14.4753 1.65432 15.2471 2.63314 15.5106C4.4402 16 11.5743 16 11.5743 16C11.5743 16 18.7273 16 20.5155 15.5294C21.4943 15.2659 22.2661 14.4941 22.5296 13.5153C23.0002 11.7271 23.0002 8.01882 23.0002 8.01882C23.0002 8.01882 23.019 4.29176 22.5296 2.50353Z" fill="#75717D"/>
<path d="M9.29688 4.57422V11.426L15.2451 8.0001L9.29688 4.57422Z" fill="white"/>
</svg>
