<svg width="16" height="16" viewBox="0 0 16 16" fill="none" xmlns="http://www.w3.org/2000/svg">
<path fill-rule="evenodd" clip-rule="evenodd" d="M10.7478 0C8.84203 0 7.39137 1.21124 6.86827 3.2401C6.42773 4.94586 5.98233 5.97152 5.90289 6.14777C4.95937 7.75987 2.00012 9.88308 0.932766 10.5694C0.930417 10.5708 0.928104 10.5723 0.925829 10.5739C0.446784 10.8873 0.00104065 11.4095 0 12.0225V12.0277C0 12.1538 0.0194254 12.2841 0.0610513 12.4168C0.25149 13.0254 0.86443 13.4093 1.62584 13.3958L7.36119 13.3952L7.66089 14.0345C7.86902 14.576 8.34113 14.9419 8.90446 14.9938C8.95025 14.9979 8.99639 15 9.04183 15C9.6187 15 10.173 14.6689 10.4821 14.1292C10.4939 14.1084 10.5046 14.088 10.5143 14.0669L10.8966 13.2507C12.401 12.7831 13.4223 11.8304 13.9353 10.4135C14.3925 9.15219 14.3908 7.68592 14.389 6.39243V5.91969L15.0304 5.62146C15.5743 5.41411 15.9417 4.94379 15.9937 4.38257C16.0513 3.75985 15.7106 3.143 15.1255 2.8109C15.1051 2.79935 15.0843 2.78863 15.063 2.77876L14.2166 2.38515C13.7511 0.95966 12.3872 0 10.7478 0ZM7.42016 6.96678C7.43056 6.94743 7.44097 6.92773 7.45034 6.90803C7.47323 6.86034 8.01055 5.71442 8.5385 3.66793C8.86284 2.41073 9.64749 1.71854 10.7481 1.71854C11.7066 1.71854 12.4819 2.30464 12.6338 3.14404C12.6582 3.27943 12.7149 3.40701 12.7991 3.51604C12.8833 3.62507 12.9926 3.71236 13.1177 3.77056L14.0248 4.19216L13.1614 4.59372C13.0127 4.66285 12.8868 4.77283 12.7986 4.91075C12.7105 5.04866 12.6636 5.20878 12.6636 5.3723V6.3952C12.6674 9.30632 12.4954 11.1157 10.0783 11.6939C9.79075 11.7627 9.56632 11.9703 9.46919 12.2347L9.09525 13.033L8.69217 12.1725C8.62273 12.0244 8.51231 11.8991 8.37388 11.8113C8.23544 11.7235 8.07474 11.6769 7.91065 11.677L2.37059 11.6776C3.53195 10.8814 6.3587 8.82424 7.42016 6.96678Z" fill="currentColor"/>
<path fill-rule="evenodd" clip-rule="evenodd" d="M9.8463 3.89988C9.8463 4.13858 9.94355 4.3675 10.1167 4.53628C10.2898 4.70506 10.5246 4.79988 10.7694 4.79988C11.0142 4.79988 11.249 4.70506 11.4221 4.53628C11.5952 4.3675 11.6925 4.13858 11.6925 3.89988C11.6925 3.66119 11.5952 3.43227 11.4221 3.26349C11.249 3.0947 11.0142 2.99988 10.7694 2.99988C10.5246 2.99988 10.2898 3.0947 10.1167 3.26349C9.94355 3.43227 9.8463 3.66119 9.8463 3.89988Z" fill="currentColor"/>
</svg>
