<svg width="133" height="28" viewBox="0 0 133 28" fill="none" xmlns="http://www.w3.org/2000/svg">
    <g class="logo-g-text">
        <path fill-rule="evenodd" clip-rule="evenodd" d="M61.2406 6.19214C61.2091 6.13723 61.1493 6.10596 61.0766 6.10596H57.1093C57.0043 6.10596 56.8863 6.17481 56.8353 6.26661L49.3418 19.7349C49.0954 20.178 48.888 20.3942 48.8289 20.4009C48.7739 20.3841 48.6566 20.1543 48.5794 19.7675L45.8326 6.31049C45.809 6.19596 45.6983 6.10596 45.5803 6.10596H41.613C41.5473 6.10596 41.4875 6.13363 41.4491 6.18201C41.4106 6.23039 41.3972 6.29474 41.4124 6.35819L45.4069 23.1285C45.8124 24.8037 47.2562 24.8363 47.9908 24.8363C48.006 24.8363 48.0209 24.8363 48.0357 24.8363H48.08C49.1133 24.8363 50.0757 24.4173 50.8318 23.6843C50.8886 23.6294 51.2972 23.1267 51.3377 23.0585L61.2324 6.37619C61.2691 6.31409 61.2723 6.24704 61.2406 6.19214" fill="white"/>
        <path fill-rule="evenodd" clip-rule="evenodd" d="M73.6916 12.5174C73.6103 12.972 73.4249 13.4935 72.7084 13.4935L64.3974 13.5104C64.4013 13.4899 64.7733 11.4439 65.7339 10.5473C66.9639 9.39995 68.5019 9.36912 69.554 9.36912C69.5839 9.36912 69.6136 9.36912 69.643 9.36935H69.7293C70.9387 9.36935 72.1697 9.46633 72.9804 10.1702C73.4511 10.5826 73.8852 11.4158 73.6916 12.5174M76.3906 7.23112C74.8344 6.1306 72.6037 6.03857 70.4523 6.03857C68.7394 6.03857 65.5511 6.03857 63.199 7.78599C60.8238 9.55072 60.212 12.1052 59.6069 15.5213C59.1732 17.9629 58.8275 20.494 59.7557 22.2574C60.8739 24.3412 62.9723 24.6285 65.0733 24.6285H75.1725C75.2916 24.6285 75.4014 24.5372 75.4223 24.4202L75.932 21.5434C75.9426 21.4802 75.9261 21.4172 75.8863 21.3702C75.8469 21.3231 75.7871 21.2964 75.7228 21.2964H66.8425C65.2644 21.2964 63.7823 21.0455 63.6229 19.2272C63.5821 18.6915 63.8093 16.8637 63.8118 16.8453C63.8127 16.8376 63.824 16.8277 63.8317 16.8277H74.4155C75.3317 16.8277 76.0027 16.6063 76.5912 16.1097C77.5176 15.3269 77.8181 14.2408 77.9899 13.2814C78.352 11.243 78.4972 8.71347 76.3906 7.23112" fill="white"/>
        <path fill-rule="evenodd" clip-rule="evenodd" d="M86.7076 0.310356C86.6678 0.263329 86.6082 0.236328 86.5437 0.236328H82.7154C82.5961 0.236328 82.4862 0.327906 82.4656 0.444686L78.2178 24.3819C78.2067 24.4449 78.223 24.5082 78.2628 24.5552C78.3027 24.602 78.3622 24.629 78.4268 24.629H82.2569C82.3764 24.629 82.486 24.5372 82.5064 24.4206L86.7525 0.483837C86.7638 0.42061 86.7475 0.357382 86.7076 0.310356" fill="white"/>
        <path fill-rule="evenodd" clip-rule="evenodd" d="M105.121 6.1795C105.082 6.13247 105.022 6.10547 104.957 6.10547H101.127C101.008 6.10547 100.898 6.19705 100.878 6.31383L98.4659 19.9066C98.4066 20.2429 98.3393 20.6243 97.9619 20.9434C97.7456 21.1248 97.1113 21.2483 96.8853 21.2807C96.8265 21.289 96.7266 21.2962 96.6671 21.2962H93.4139C91.9448 21.2962 90.9312 21.1097 90.4183 20.1793C90.0435 19.5301 90.2928 17.1779 90.2953 17.154C90.3021 17.0922 90.3166 16.9911 90.3273 16.9302L92.2049 6.35275C92.2163 6.28975 92.1997 6.22652 92.1601 6.1795C92.1205 6.13247 92.0605 6.10547 91.9962 6.10547H88.1661C88.0467 6.10547 87.9369 6.19705 87.9163 6.31383L85.8908 17.7316C85.5373 19.7196 85.4075 21.76 86.843 23.216C87.9202 24.3012 91.2072 24.6052 91.3465 24.6176C91.4138 24.6236 91.5243 24.6284 91.592 24.6284H97.9707C99.0241 24.6284 100.129 24.5737 101.044 23.9203C102.196 23.1028 102.423 21.8086 102.52 21.2562L105.166 6.35275C105.178 6.28975 105.161 6.22652 105.121 6.1795" fill="white"/>
        <path fill-rule="evenodd" clip-rule="evenodd" d="M131.894 7.59259C130.773 6.36494 127.635 6.12441 127.503 6.11473C127.436 6.10978 127.326 6.10596 127.259 6.10596H110.804C109.452 6.10596 108.422 6.49027 107.742 7.24967C107.15 7.93257 106.915 8.87603 106.829 9.37712L104.163 24.3818C104.152 24.4448 104.168 24.508 104.208 24.555C104.248 24.6018 104.308 24.6288 104.372 24.6288H108.204C108.323 24.6288 108.433 24.5373 108.453 24.4207L110.909 10.5886C111.03 9.90342 111.162 9.73039 111.214 9.68696C111.275 9.63611 111.67 9.52945 112.001 9.46173C112.057 9.45048 112.155 9.44035 112.212 9.44035L117.904 9.4237L115.248 24.3816C115.236 24.4446 115.253 24.5076 115.293 24.5548C115.332 24.6018 115.392 24.6288 115.456 24.6288H119.286C119.406 24.6288 119.515 24.5373 119.536 24.4207L122.19 9.46285C122.192 9.45318 122.208 9.44035 122.218 9.44035H125.888C126.657 9.44035 127.605 9.53283 128.11 10.2558C128.609 10.9369 128.41 12.6314 128.408 12.6485C128.401 12.7106 128.385 12.8121 128.374 12.8737L126.331 24.3818C126.32 24.4448 126.337 24.508 126.376 24.555C126.416 24.6018 126.476 24.6288 126.54 24.6288H130.372C130.491 24.6288 130.601 24.5373 130.621 24.4207L132.795 12.176C133.12 10.3395 132.785 8.62695 131.894 7.59259" fill="white"/>
        <path fill-rule="evenodd" clip-rule="evenodd" d="M39.4811 6.10547H35.651C35.5316 6.10547 35.422 6.19705 35.4012 6.31383L32.1954 24.3811C32.1841 24.4441 32.2004 24.5073 32.24 24.5543C32.2799 24.6014 32.3397 24.6284 32.4042 24.6284H36.2327C36.352 24.6284 36.4619 24.537 36.4825 24.4202L39.6898 6.35275C39.7012 6.28975 39.6849 6.22675 39.6452 6.17972C39.6054 6.13247 39.5456 6.10547 39.4811 6.10547" fill="white"/>
        <path fill-rule="evenodd" clip-rule="evenodd" d="M38.6393 0.225098C37.3361 0.225098 36.0893 1.27769 35.8604 2.57148C35.7463 3.2123 35.8937 3.81443 36.2757 4.26692C36.6505 4.71108 37.2062 4.95544 37.8402 4.95544C39.1432 4.95544 40.3897 3.90353 40.6194 2.61063L40.6196 2.61041C40.7333 1.96846 40.5852 1.36544 40.2027 0.912722C39.8282 0.469231 39.2729 0.225098 38.6393 0.225098" fill="white"/>
    </g>
    <g class="logo-g-sign">
        <path fill-rule="evenodd" clip-rule="evenodd" d="M14.0553 18.5251L14.0625 18.5041C14.8075 15.8958 15.4703 13.5753 16.0634 11.4981C16.5976 9.6278 17.0822 7.93551 17.5219 6.39511C17.9143 4.98588 16.7466 4.24358 15.0847 4.59527C14.149 4.79373 13.2602 4.98273 12.4156 5.16274C11.102 5.43928 9.65339 6.53056 9.0506 7.68666C7.69804 10.2592 6.12175 13.2572 4.26286 16.7921C4.21056 16.8924 4.16323 16.9912 4.11839 17.0902C3.21895 15.8391 2.96896 14.1995 3.3829 12.3693C4.17546 8.86322 7.47997 5.07521 11.2947 2.88453C11.4382 2.80241 11.5818 2.72275 11.7254 2.64535C11.4552 3.61469 12.2897 4.14728 13.9448 3.74699C15.7744 3.30147 17.7522 1.93905 18.4968 0.655605C20.4637 0.591928 22.3314 1.06354 23.6079 2.27229C25.4466 4.01655 25.6554 6.84085 24.0761 10.0087C22.2942 13.5753 18.6 16.8971 14.0553 18.5251M10.5268 3.0909C8.23724 4.4126 6.19946 6.11793 4.58468 7.95445C2.85237 9.9235 1.38116 12.3032 0.599698 14.823C-0.362921 17.9351 -0.188785 20.9597 1.28266 23.2937C2.18255 24.7189 3.56092 25.8763 5.4189 26.5622C7.533 27.3418 10.193 27.4899 13.246 26.7374C20.182 25.0317 25.8422 19.845 28.1997 14.0018C29.2269 11.4486 29.4826 9.01626 29.0217 6.91581C28.6171 5.0775 27.6767 3.55734 26.2888 2.43005C24.0449 0.613338 20.978 0.127996 18.0242 0.484408C15.5707 0.781419 12.9684 1.68303 10.5268 3.0909" fill="white"/>
    </g>
</svg>
