<svg width="33" height="33" viewBox="0 0 33 33" fill="none" xmlns="http://www.w3.org/2000/svg">
<path d="M4.19385 1.10477H29.5063C30.8008 1.10477 31.8501 2.1541 31.8501 3.44852V28.761C31.8501 30.0554 30.8008 31.1048 29.5063 31.1048H4.19385C2.89943 31.1048 1.8501 30.0554 1.8501 28.761V3.44852C1.8501 2.1541 2.89943 1.10477 4.19385 1.10477Z" fill="#F8CD46"/>
<path d="M7.08725 6.10477H8.82638C8.94496 6.10477 9.06354 6.22334 9.06354 6.34192V25.8676C9.06354 25.9862 8.94496 26.1048 8.82638 26.1048H7.08725C6.96867 26.1048 6.8501 26.0257 6.8501 25.8676V6.34192C6.8501 6.22334 6.96867 6.10477 7.08725 6.10477Z" fill="black"/>
<path d="M11.5145 6.10477H13.2536C13.3722 6.10477 13.4908 6.22334 13.4908 6.34192V25.8676C13.4908 25.9862 13.3722 26.1048 13.2536 26.1048H11.5145C11.3959 26.1048 11.2773 25.9862 11.2773 25.8676V6.34192C11.3169 6.22334 11.3959 6.10477 11.5145 6.10477Z" fill="black"/>
<path d="M15.9803 6.10477H17.7194C17.838 6.10477 17.9566 6.22334 17.9566 6.34192V25.8676C17.9566 25.9862 17.838 26.1048 17.7194 26.1048H15.9803C15.8617 26.1048 15.7432 25.9862 15.7432 25.8676V6.34192C15.7432 6.22334 15.8617 6.10477 15.9803 6.10477Z" fill="black"/>
<path d="M20.4076 6.10477H22.1467C22.2653 6.10477 22.3838 6.22334 22.3838 6.34192V25.8676C22.3838 25.9862 22.2653 26.1048 22.1467 26.1048H20.4076C20.289 26.1048 20.1704 25.9862 20.1704 25.8676V6.34192C20.1704 6.22334 20.289 6.10477 20.4076 6.10477Z" fill="black"/>
<path d="M24.8739 13.8913H26.613C26.7316 13.8913 26.8502 14.0099 26.8502 14.1285V18.1206C26.8502 18.2392 26.7316 18.3577 26.613 18.3577H24.8739C24.7553 18.3577 24.6367 18.2392 24.6367 18.1206V14.1285C24.6367 14.0099 24.7553 13.8913 24.8739 13.8913Z" fill="black"/>
</svg>
