<svg width="32" height="33" viewBox="0 0 32 33" fill="none" xmlns="http://www.w3.org/2000/svg">
<path d="M26.9714 21.7578C27.2466 21.5998 27.4166 21.3071 27.4177 20.9898L27.4337 15.8457C27.4347 15.5284 27.6047 15.2357 27.8799 15.0777L30.6684 13.4758C30.9435 13.3179 31.2818 13.3184 31.5564 13.4773C31.8309 13.6362 32 13.9293 32 14.2465V23.5988C32 23.917 31.8298 24.211 31.5538 24.3695L21.0299 30.4141C20.7564 30.5711 20.4202 30.5714 20.1463 30.415L11.8874 25.6913C11.6105 25.5331 11.4395 25.2386 11.4394 24.9197V20.204C11.4394 20.1987 11.4457 20.1951 11.451 20.1978C11.4554 20.2005 11.4617 20.1978 11.4617 20.1916V20.1862C11.4617 20.1827 11.4634 20.1791 11.467 20.1774L18.269 16.2697C18.2752 16.2661 18.2725 16.2564 18.2654 16.2564C18.2615 16.2564 18.2583 16.2532 18.2583 16.2492L18.2716 11.626C18.2729 11.3078 18.104 11.0132 17.8287 10.8535C17.5534 10.6939 17.2138 10.6935 16.9382 10.8527L11.883 13.7656C11.6084 13.9237 11.2704 13.9237 10.9959 13.7656L5.92461 10.8455C5.64964 10.6872 5.31112 10.6875 5.03637 10.8462C4.76163 11.0049 4.59232 11.298 4.59213 11.6153V19.9711C4.59234 20.2881 4.42378 20.5812 4.14971 20.7404C3.87564 20.8996 3.53753 20.9008 3.26232 20.7436L0.448015 19.1347C0.170519 18.9761 -0.000533323 18.6809 1.24933e-06 18.3613L0.0248921 3.75646C0.0255815 3.43959 0.194892 3.14705 0.469297 2.9886C0.743701 2.83015 1.08171 2.82975 1.35648 2.98755L10.9968 8.52459C11.2709 8.68201 11.608 8.68201 11.8821 8.52459L21.5197 2.98755C21.7949 2.82951 22.1335 2.83016 22.4081 2.98927C22.6826 3.14837 22.8516 3.44178 22.8513 3.75912V18.3675C22.8514 18.6856 22.6816 18.9795 22.406 19.1382L17.3587 22.045C17.0828 22.204 16.913 22.4986 16.9137 22.8171C16.9145 23.1356 17.0856 23.4294 17.3623 23.5872L20.1463 25.1722C20.4201 25.328 20.7559 25.3273 21.029 25.1704L26.9714 21.7578ZM27.5554 8.65348C27.5557 8.97351 27.728 9.26871 28.0065 9.42636C28.285 9.58401 28.6267 9.57978 28.9012 9.41528L31.568 7.81524C31.8358 7.65478 31.9998 7.36561 32 7.05344V3.7929C31.9994 3.47303 31.827 3.17813 31.5486 3.02069C31.2701 2.86326 30.9286 2.86758 30.6542 3.03199L27.9874 4.63204C27.7197 4.79249 27.5557 5.08166 27.5554 5.39383V8.65437V8.65348Z" fill="#007FFF"/>
</svg>
