<svg width="33" height="33" viewBox="0 0 33 33" fill="none" xmlns="http://www.w3.org/2000/svg">
<path d="M16.3714 1.67615C8.7555 1.67615 9.23108 4.97885 9.23108 4.97885L9.23957 8.40042H16.5072V9.42774H6.35289C6.35289 9.42774 1.47949 8.87505 1.47949 16.5595C1.47949 24.244 5.7331 23.9715 5.7331 23.9715H8.27168V20.4056C8.27168 20.4056 8.13485 16.152 12.4574 16.152H19.6656C19.6656 16.152 23.7154 16.2175 23.7154 12.238V5.65807C23.7154 5.65807 24.3303 1.67615 16.3714 1.67615ZM12.364 3.977C13.0871 3.977 13.6715 4.56142 13.6715 5.2845C13.6715 6.00758 13.0871 6.592 12.364 6.592C11.6409 6.592 11.0565 6.00758 11.0565 5.2845C11.0565 4.56142 11.6409 3.977 12.364 3.977Z" fill="url(#paint0_linear_4723_21)"/>
<path d="M16.5875 31.52C24.2034 31.52 23.7278 28.2173 23.7278 28.2173L23.7193 24.7957H16.4516V23.7684H26.606C26.606 23.7684 31.4794 24.3211 31.4794 16.6366C31.4794 8.95211 27.2258 9.22461 27.2258 9.22461H24.6872V12.7905C24.6872 12.7905 24.824 17.0441 20.5015 17.0441H13.2933C13.2933 17.0441 9.24344 16.9787 9.24344 20.9581V27.5381C9.24344 27.5381 8.62856 31.52 16.5875 31.52ZM20.5949 29.2191C19.8718 29.2191 19.2874 28.6347 19.2874 27.9116C19.2874 27.1886 19.8718 26.6041 20.5949 26.6041C21.318 26.6041 21.9024 27.1886 21.9024 27.9116C21.9024 28.6347 21.318 29.2191 20.5949 29.2191Z" fill="url(#paint1_linear_4723_21)"/>
<defs>
<linearGradient id="paint0_linear_4723_21" x1="4.36255" y1="4.36052" x2="19.2295" y2="19.0791" gradientUnits="userSpaceOnUse">
<stop stop-color="#387EB8"/>
<stop offset="1" stop-color="#366994"/>
</linearGradient>
<linearGradient id="paint1_linear_4723_21" x1="13.4877" y1="13.8119" x2="29.4532" y2="28.9045" gradientUnits="userSpaceOnUse">
<stop stop-color="#FFE052"/>
<stop offset="1" stop-color="#FFC331"/>
</linearGradient>
</defs>
</svg>
