<svg width="33" height="33" viewBox="0 0 33 33" fill="none" xmlns="http://www.w3.org/2000/svg">
<g clip-path="url(#clip0_4754_153)">
<path d="M16.9736 32.1649C25.8102 32.1649 32.9736 25.0014 32.9736 16.1649C32.9736 7.32833 25.8102 0.164886 16.9736 0.164886C8.13708 0.164886 0.973633 7.32833 0.973633 16.1649C0.973633 25.0014 8.13708 32.1649 16.9736 32.1649Z" fill="#5853DD"/>
<path d="M20.3828 19.2263L25.9737 16.0013V9.54105L20.3828 12.7729V19.2263Z" fill="white"/>
<path d="M14.1782 9.54103L19.7691 12.7728V19.2263L14.1782 15.9979V9.54103ZM7.97363 12.3944L13.5645 15.6228V9.16603L7.97363 5.93762V12.3944ZM14.1782 23.1638L19.7691 26.3922V19.9353L14.1782 16.7069" fill="white"/>
</g>
<defs>
<clipPath id="clip0_4754_153">
<rect width="32" height="32" fill="white" transform="translate(0.973633 0.164886)"/>
</clipPath>
</defs>
</svg>
