<svg width="32" height="32" viewBox="0 0 32 32" fill="none" xmlns="http://www.w3.org/2000/svg">
<path d="M3.34399 0.999878H28.6565C29.9509 0.999878 31.0002 2.04921 31.0002 3.34363V28.6561C31.0002 29.9505 29.9509 30.9999 28.6565 30.9999H3.34399C2.04958 30.9999 1.00024 29.9505 1.00024 28.6561V3.34363C1.00024 2.04921 2.04958 0.999878 3.34399 0.999878Z" fill="#3178C6"/>
<path d="M18.5029 24.1717V27.1074C18.9803 27.3521 19.5451 27.5356 20.1969 27.6579C20.8488 27.7802 21.5359 27.8414 22.2582 27.8414C22.962 27.8414 23.6308 27.7741 24.2643 27.6395C24.8978 27.5049 25.4534 27.2832 25.9307 26.9745C26.4082 26.6656 26.7861 26.2619 27.0647 25.7634C27.3432 25.265 27.4824 24.6488 27.4824 23.9149C27.4824 23.3828 27.4028 22.9164 27.2437 22.5158C27.0846 22.1152 26.855 21.759 26.555 21.4471C26.2552 21.1351 25.8955 20.8554 25.4763 20.6076C25.057 20.36 24.5841 20.126 24.0577 19.9059C23.6721 19.7468 23.3263 19.5925 23.0202 19.4426C22.7142 19.2927 22.454 19.1399 22.2398 18.9838C22.0255 18.8279 21.8603 18.6627 21.744 18.4884C21.6277 18.3141 21.5696 18.1169 21.5696 17.8967C21.5696 17.6949 21.6215 17.513 21.7256 17.3509C21.8296 17.1888 21.9766 17.0497 22.1664 16.9335C22.3561 16.8172 22.5887 16.7271 22.8642 16.6628C23.1395 16.5986 23.4457 16.5665 23.7823 16.5665C24.0272 16.5665 24.2858 16.5849 24.5581 16.6216C24.8305 16.6582 25.1044 16.7148 25.3799 16.7913C25.6553 16.8677 25.9231 16.964 26.1832 17.0803C26.4433 17.1965 26.6837 17.331 26.904 17.4839V14.7409C26.4572 14.5697 25.969 14.4427 25.4395 14.3602C24.9101 14.2776 24.3026 14.2363 23.617 14.2363C22.9192 14.2363 22.2582 14.3113 21.6339 14.4611C21.0095 14.6109 20.4601 14.8448 19.9857 15.1629C19.5114 15.481 19.1365 15.8861 18.861 16.3785C18.5856 16.8708 18.4478 17.4594 18.4478 18.1445C18.4478 19.019 18.7003 19.7652 19.2054 20.3829C19.7103 21.0006 20.4769 21.5235 21.5052 21.9517C21.9093 22.1168 22.2857 22.2788 22.6346 22.4379C22.9835 22.5969 23.285 22.762 23.539 22.9332C23.793 23.1045 23.9935 23.291 24.1404 23.4928C24.2873 23.6947 24.3607 23.9241 24.3607 24.181C24.3607 24.3705 24.3148 24.5464 24.223 24.7085C24.1312 24.8705 23.9919 25.0112 23.8052 25.1304C23.6186 25.2497 23.3859 25.3429 23.1075 25.4102C22.829 25.4775 22.503 25.5112 22.1296 25.5112C21.493 25.5112 20.8626 25.3996 20.2383 25.1763C19.6138 24.953 19.0354 24.6182 18.5029 24.1717ZM13.6098 16.8661H17.3849V14.4489H6.8623V16.8661H10.6191V27.6288H13.6098V16.8661Z" fill="white"/>
</svg>
