<svg width="32" height="33" viewBox="0 0 32 33" fill="none" xmlns="http://www.w3.org/2000/svg">
<g clip-path="url(#clip0_4741_39)">
<path d="M2.2655 16.5323C2.2655 21.9442 5.4106 26.6211 9.97125 28.8374L3.44924 10.9679C2.6906 12.6683 2.2655 14.5501 2.2655 16.5323ZM25.1681 15.8423C25.1681 14.1525 24.5612 12.9823 24.0406 12.0715C23.3475 10.9453 22.6979 9.99151 22.6979 8.86526C22.6979 7.60842 23.6511 6.43847 24.9938 6.43847C25.0544 6.43847 25.1119 6.44601 25.171 6.4494C22.7385 4.22084 19.4976 2.86019 15.9381 2.86019C11.1615 2.86019 6.95909 5.31092 4.51434 9.02292C4.83512 9.03255 5.13743 9.03931 5.39421 9.03931C6.82433 9.03931 9.03805 8.86579 9.03805 8.86579C9.77509 8.82234 9.86198 9.90487 9.12572 9.99203C9.12572 9.99203 8.38504 10.0792 7.56085 10.1224L12.5398 24.9321L15.532 15.9583L13.4018 10.1219C12.6655 10.0787 11.968 9.99151 11.968 9.99151C11.2312 9.94832 11.3176 8.82182 12.0544 8.86526C12.0544 8.86526 14.3123 9.03879 15.6558 9.03879C17.0857 9.03879 19.2996 8.86526 19.2996 8.86526C20.0372 8.82182 20.1238 9.90436 19.3873 9.99151C19.3873 9.99151 18.6451 10.0787 17.8224 10.1219L22.7634 24.8195L24.1272 20.2622C24.7183 18.3711 25.1681 17.0128 25.1681 15.8423ZM16.178 17.7282L12.0757 29.6486C13.3006 30.0087 14.5959 30.2056 15.9381 30.2056C17.5303 30.2056 19.0572 29.9304 20.4784 29.4306C20.4418 29.3721 20.4085 29.3099 20.3811 29.2422L16.178 17.7282ZM27.9352 9.97252C27.994 10.408 28.0273 10.8755 28.0273 11.3784C28.0273 12.7659 27.7682 14.3256 26.9877 16.2757L22.8113 28.3507C26.8761 25.9803 29.6101 21.5765 29.6101 16.5325C29.6104 14.1554 29.0032 11.9201 27.9352 9.97252ZM15.9381 0.594696C7.15005 0.594696 0 7.74422 0 16.5323C0 25.3213 7.15005 32.4706 15.9381 32.4706C24.7259 32.4706 31.8769 25.3213 31.8769 16.5323C31.8767 7.74422 24.7259 0.594696 15.9381 0.594696ZM15.9381 31.7401C7.55304 31.7401 0.730797 24.9178 0.730797 16.5323C0.730797 8.14722 7.55278 1.32549 15.9381 1.32549C24.3229 1.32549 31.1446 8.14722 31.1446 16.5323C31.1446 24.9178 24.3229 31.7401 15.9381 31.7401Z" fill="#464342"/>
</g>
<defs>
<clipPath id="clip0_4741_39">
<rect width="32" height="32" fill="white" transform="translate(0 0.594696)"/>
</clipPath>
</defs>
</svg>
