<svg width="260" height="260" viewBox="0 0 260 260" fill="none" xmlns="http://www.w3.org/2000/svg">
<path d="M232.964 145L234 130.5L224.716 125L223 124.5V139.334L232.964 145Z" fill="#3D0F9A"/>
<path d="M61.0346 189.188L36.98 175.326C32.7826 172.907 30.0969 169.941 28.9229 166.821C28.4656 165.605 28.2362 164.364 28.239 163.125L28.1973 178.058C28.1848 182.477 31.0999 186.904 36.9404 190.27L60.9929 204.132C63.2126 205.413 64.324 207.094 64.3208 208.775L64.3625 193.838C64.3667 192.154 63.2574 190.47 61.0346 189.188Z" fill="#3D0F9A"/>
<path d="M73.087 206.528L35.1682 228.524L35.1265 243.469L73.0453 221.473L74.0734 220.875C79.7993 217.553 82.6664 213.197 82.6789 208.834L82.7206 193.89C82.7081 198.253 79.841 202.611 74.1151 205.931L73.087 206.528Z" fill="#3D0F9A"/>
<path d="M49.8727 158.583C47.6916 159.848 46.601 161.507 46.5969 163.168L46.5552 178.11C46.5603 176.45 47.6529 174.792 49.831 173.527L54.2432 170.967L58.2764 168.628C62.6657 166.082 69.8303 166.082 74.2488 168.628L105.835 186.832L145.315 209.581C156.917 216.269 175.734 216.269 187.26 209.581C192.986 206.259 195.853 201.903 195.866 197.538L195.908 182.594C195.895 186.956 193.028 191.315 187.302 194.637C175.775 201.324 156.959 201.324 145.357 194.637L105.876 171.887L74.2905 153.683C69.872 151.138 62.7074 151.138 58.3181 153.683L54.2849 156.023L49.8727 158.583Z" fill="#3D0F9A"/>
<path d="M114.782 143.638C108.944 140.273 106.027 135.846 106.039 131.428L105.997 146.371C105.985 150.792 108.9 155.219 114.74 158.583L150.048 178.931L174.181 192.839C176.4 194.119 177.512 195.8 177.508 197.482L177.55 182.544C177.554 180.86 176.445 179.177 174.222 177.895L150.09 163.986L114.782 143.638Z" fill="#3D0F9A"/>
<path d="M131.193 124.854C135.582 122.308 142.747 122.308 147.165 124.854L187.323 147.997C198.923 154.682 217.742 154.684 229.268 147.997L246.305 138.116L257 143.5V159L246.26 153.061L229.227 162.941C217.7 169.629 198.883 169.627 187.281 162.941L147.123 139.798C142.705 137.253 135.54 137.253 131.151 139.798L127.633 141.838C125.455 143.103 124.363 144.761 124.357 146.421L124.399 131.479C124.403 129.818 125.494 128.159 127.675 126.894L131.193 124.854Z" fill="#3D0F9A"/>
<path fill-rule="evenodd" clip-rule="evenodd" d="M114.644 119.386L118.162 117.346C129.689 110.658 148.508 110.66 160.109 117.346L200.268 140.489C204.686 143.035 211.851 143.035 216.24 140.489L233.274 130.609L223 124.5L256.786 124.612L257 144L246.302 138.118L229.268 147.999C217.741 154.686 198.923 154.684 187.323 147.999L147.165 124.856C142.746 122.31 135.582 122.31 131.192 124.856L127.675 126.895C123.285 129.441 123.308 133.585 127.729 136.131L187.167 170.384C198.769 177.072 198.829 187.951 187.302 194.639C175.775 201.326 156.959 201.326 145.357 194.639L74.29 153.683C69.8715 151.137 62.7069 151.137 58.3176 153.683L49.8727 158.583C45.4834 161.128 45.5063 165.272 49.9248 167.818L73.9773 181.68C85.5791 188.368 85.6396 199.247 74.1149 205.932L40.9806 225.152C43.1545 229.178 41.4999 233.741 36.0063 236.929C28.1035 241.514 15.2484 241.512 7.29348 236.929C-0.661449 232.345 -0.703153 224.913 7.19965 220.327C12.8518 217.049 21.0362 216.116 28.1497 217.527L61.0846 198.423C65.4739 195.877 65.451 191.733 61.0325 189.188L36.9801 175.325C25.3782 168.638 25.3156 157.758 36.8424 151.073L45.2874 146.173C56.8142 139.486 75.6308 139.486 87.2327 146.173L158.302 187.129C162.72 189.675 169.885 189.675 174.274 187.129C178.663 184.584 178.64 180.439 174.222 177.894L150.09 163.988L114.782 143.64C103.18 136.953 103.118 126.073 114.644 119.386ZM158.801 186.263C160.823 187.427 163.535 188.038 166.299 188.038C169.062 188.038 171.767 187.427 173.772 186.264C175.782 185.099 176.558 183.707 176.551 182.517C176.544 181.325 175.749 179.928 173.723 178.76L149.591 164.855L114.283 144.507C108.299 141.058 105.068 136.39 105.04 131.519C105.012 126.644 108.194 121.972 114.143 118.521L117.66 116.481C123.613 113.028 131.383 111.331 139.108 111.331C146.832 111.331 154.62 113.029 160.609 116.479L200.767 139.623C202.789 140.787 205.502 141.398 208.265 141.398C211.029 141.398 213.733 140.787 215.738 139.624L231.299 130.598L219.341 123.487L257.775 123.615L258.019 145.701L246.315 139.267L229.77 148.864C223.818 152.317 216.047 154.014 208.323 154.014C200.599 154.013 192.811 152.316 186.824 148.865L146.665 125.722C144.644 124.557 141.931 123.946 139.168 123.946C136.404 123.946 133.7 124.558 131.694 125.721L128.176 127.76C126.167 128.926 125.391 130.318 125.398 131.507C125.405 132.7 126.2 134.096 128.228 135.264L187.666 169.518C193.649 172.967 196.88 177.634 196.908 182.506C196.935 187.38 193.753 192.053 187.804 195.504C181.852 198.957 174.081 200.654 166.358 200.654C158.634 200.654 150.846 198.957 144.857 195.505L73.7908 154.55C71.7691 153.385 69.0562 152.774 66.2929 152.774C63.5292 152.774 60.8249 153.385 58.8193 154.548L50.3745 159.448C48.3652 160.613 47.5891 162.005 47.5958 163.195C47.6025 164.387 48.3972 165.784 50.424 166.951L74.4766 180.814C80.4599 184.262 83.6911 188.93 83.7185 193.801C83.746 198.676 80.5643 203.347 74.6167 206.797L42.2778 225.556C43.1061 227.57 43.1192 229.7 42.2954 231.731C41.3609 234.034 39.3878 236.123 36.5081 237.794C32.368 240.196 26.9944 241.367 21.6694 241.367C16.344 241.367 10.9588 240.195 6.79426 237.795C2.63567 235.399 0.319586 232.12 0.299931 228.635C0.28026 225.146 2.56249 221.862 6.69779 219.463C12.5037 216.095 20.761 215.131 27.9713 216.474L60.5829 197.558C62.5922 196.392 63.3682 195.001 63.3615 193.811C63.3548 192.618 62.5601 191.222 60.5333 190.054L36.4807 176.192C30.4975 172.743 27.2658 168.076 27.238 163.204C27.2102 158.33 30.392 153.658 36.3406 150.208L44.7855 145.308C50.738 141.855 58.5081 140.158 66.2319 140.158C73.9559 140.158 81.7434 141.855 87.732 145.307L158.801 186.263Z" fill="#3D0F9A"/>
<path d="M160.109 117.346L200.268 140.489C204.686 143.035 211.851 143.035 216.24 140.489L233.274 130.609L223 124.5L256.786 124.612L257 144L246.302 138.118L229.268 147.999C217.741 154.686 198.923 154.684 187.323 147.999L147.165 124.856C142.746 122.31 135.582 122.31 131.192 124.856L127.675 126.895C123.285 129.441 123.308 133.585 127.729 136.131L163.035 156.477L187.167 170.384C198.769 177.072 198.829 187.951 187.302 194.639C175.775 201.326 156.959 201.326 145.357 194.639L74.29 153.683C69.8715 151.137 62.7069 151.137 58.3176 153.683L49.8727 158.583C45.4834 161.128 45.5063 165.272 49.9248 167.818L73.9773 181.68C85.5792 188.368 85.6396 199.247 74.1149 205.932L40.9806 225.152C43.1545 229.178 41.4999 233.741 36.0063 236.929C28.1035 241.514 15.2484 241.512 7.29348 236.929C-0.66145 232.345 -0.703154 224.913 7.19964 220.327C12.8518 217.049 21.0362 216.116 28.1497 217.527L61.0846 198.423C65.4739 195.877 65.451 191.733 61.0325 189.188L36.9801 175.325C25.3782 168.638 25.3156 157.758 36.8424 151.073L45.2874 146.173C56.8142 139.486 75.6308 139.486 87.2327 146.173L118.821 164.377L158.302 187.129C162.72 189.675 169.885 189.675 174.274 187.129C178.663 184.584 178.64 180.439 174.222 177.894L150.09 163.988L114.782 143.64C103.18 136.953 103.118 126.073 114.644 119.386L118.162 117.346C129.689 110.658 148.508 110.66 160.109 117.346Z" fill="white"/>
<path d="M41.908 228.687L41.8663 243.631C41.858 246.616 39.8937 249.597 35.9674 251.874C28.0646 256.459 15.2095 256.457 7.25454 251.874C3.25101 249.567 1.25133 246.539 1.26176 243.515L1.30346 228.57C1.29512 231.595 3.2948 234.621 7.29625 236.929C15.2512 241.512 28.1042 241.515 36.0091 236.929C39.9354 234.652 41.8997 231.672 41.908 228.687Z" fill="#3D0F9A"/>
<path d="M21.5838 232C17.793 232 14.7199 230.227 14.7199 228.04C14.7199 225.853 17.793 224.08 21.5838 224.08C25.3747 224.08 28.4478 225.853 28.4478 228.04C28.4478 230.227 25.3747 232 21.5838 232Z" stroke="#3D0F9A" stroke-miterlimit="10"/>
<path d="M21.5839 229.464C20.2197 229.464 19.1137 228.826 19.1137 228.04C19.1137 227.254 20.2197 226.616 21.5839 226.616C22.9482 226.616 24.0542 227.254 24.0542 228.04C24.0542 228.826 22.9482 229.464 21.5839 229.464Z" stroke="#3D0F9A" stroke-miterlimit="10"/>
<path d="M19.6396 202.05C15.4096 204.49 11.9796 210.43 11.9996 215.29C12.0196 223.5 19.3296 225.87 19.7096 225.99C20.0896 225.42 29.7196 215 27.3396 206.43C27.3296 201.56 23.8796 199.6 19.6396 202.04V202.05ZM19.6696 214.32C17.9596 215.31 16.5696 214.51 16.5596 212.54C16.5596 210.57 17.9396 208.17 19.6496 207.18C21.3696 206.19 22.7596 206.98 22.7696 208.96C22.7796 210.94 21.3896 213.33 19.6696 214.32Z" fill="#3D0F9A"/>
<path d="M22.1904 204.054C18.0542 206.495 14.7003 212.436 14.7198 217.297C14.7394 225.509 21.8873 227.88 22.2589 228C22.6304 227.44 29.7392 216.647 29.7197 208.435C29.7099 203.574 26.3364 201.603 22.1904 204.054ZM22.2197 216.327C20.5477 217.317 19.1885 216.517 19.1787 214.547C19.1787 212.576 20.5281 210.176 22.2002 209.185C23.8821 208.195 25.2412 208.985 25.251 210.966C25.2608 212.946 23.9016 215.337 22.2197 216.327Z" fill="white" stroke="#3D0F9A"/>
<path d="M11.9999 215.17C11.9999 215.06 11.9999 214.95 11.9999 214.83C11.9999 214.72 12.0099 214.61 12.0199 214.5C12.0199 214.46 12.0199 214.43 12.0199 214.39C12.0199 214.37 12.0199 214.36 12.0199 214.34C12.0199 214.29 12.0199 214.24 12.0299 214.19C12.0299 214.09 12.0499 213.99 12.0599 213.89C12.0699 213.79 12.0799 213.7 12.0999 213.6C12.0999 213.55 12.1199 213.49 12.1299 213.44C12.1299 213.43 12.1299 213.42 12.1299 213.4C12.1299 213.37 12.1299 213.34 12.1399 213.32C12.1599 213.23 12.1699 213.13 12.1899 213.04C12.2099 212.95 12.2199 212.86 12.2399 212.77C12.2599 212.68 12.2799 212.59 12.2999 212.5C12.2999 212.5 12.2999 212.48 12.2999 212.47C12.2999 212.47 12.2999 212.46 12.2999 212.45C12.3199 212.38 12.3299 212.3 12.3499 212.23C12.3699 212.14 12.3899 212.06 12.4199 211.97C12.4399 211.88 12.4699 211.8 12.4899 211.71C12.5099 211.65 12.5299 211.58 12.5499 211.52C12.5499 211.52 12.5499 211.5 12.5499 211.49C12.5499 211.47 12.5499 211.46 12.5599 211.44C12.5899 211.35 12.6099 211.27 12.6399 211.18C12.6699 211.09 12.6999 211.01 12.7299 210.92C12.7599 210.83 12.7899 210.74 12.8199 210.66C12.8299 210.63 12.8399 210.6 12.8599 210.56C12.8599 210.55 12.8599 210.54 12.8699 210.52C12.8899 210.48 12.8999 210.43 12.9199 210.39C12.9499 210.3 12.9899 210.21 13.0199 210.12C13.0599 210.03 13.0899 209.94 13.1299 209.85C13.1699 209.77 13.1999 209.68 13.2399 209.6C13.2399 209.6 13.2399 209.58 13.2399 209.57C13.2799 209.48 13.3199 209.39 13.3599 209.29C13.3999 209.19 13.4499 209.1 13.4999 209C13.5499 208.9 13.5899 208.8 13.6399 208.71C13.6399 208.69 13.6599 208.68 13.6599 208.66C13.6599 208.65 13.6699 208.64 13.6799 208.63C13.7199 208.56 13.7499 208.48 13.7899 208.41C13.8499 208.3 13.8999 208.2 13.9599 208.09C14.0199 207.98 14.0799 207.88 14.1399 207.78C14.1399 207.77 14.1499 207.76 14.1599 207.75C14.1599 207.74 14.1699 207.73 14.1799 207.72C14.2399 207.62 14.2899 207.53 14.3499 207.44C14.4199 207.32 14.4899 207.21 14.5699 207.09C14.6099 207.03 14.6499 206.97 14.6799 206.91C14.6999 206.88 14.7199 206.85 14.7399 206.82C14.7699 206.78 14.7999 206.73 14.8299 206.69C14.9299 206.55 15.0199 206.41 15.1199 206.27C15.1599 206.21 15.1999 206.16 15.2499 206.1C15.2899 206.05 15.3299 206 15.3599 205.94C15.3999 205.88 15.4499 205.82 15.4899 205.76C15.5899 205.63 15.6899 205.52 15.7799 205.39C15.8399 205.31 15.9099 205.23 15.9699 205.15C15.9899 205.13 15.9999 205.11 16.0199 205.08C16.0699 205.02 16.1199 204.97 16.1699 204.91C16.3599 204.69 16.5599 204.47 16.7599 204.26C16.8499 204.17 16.9399 204.08 17.0299 203.99C17.2199 203.8 17.4099 203.63 17.6099 203.45C17.6699 203.4 17.7299 203.34 17.7899 203.29C17.8399 203.25 17.8799 203.22 17.9299 203.18C18.0099 203.11 18.0899 203.05 18.1799 202.98C18.2599 202.92 18.3299 202.86 18.4099 202.8C18.5199 202.72 18.6299 202.64 18.7499 202.56C18.7699 202.54 18.7999 202.53 18.8199 202.51C18.8299 202.51 18.8399 202.49 18.8599 202.48C18.9799 202.4 19.0999 202.32 19.2299 202.24C19.3499 202.17 19.4599 202.1 19.5799 202.03C19.5799 202.03 19.5799 202.03 19.5899 202.03C19.6799 201.98 19.7799 201.92 19.8699 201.87C19.9699 201.82 20.0599 201.77 20.1599 201.72C20.2299 201.69 20.2999 201.65 20.3699 201.62C20.3699 201.62 20.3799 201.62 20.3899 201.61C20.3899 201.61 20.4099 201.61 20.4199 201.6C20.4999 201.56 20.5899 201.53 20.6699 201.49C20.7499 201.46 20.8299 201.43 20.9099 201.39C20.9799 201.36 21.0599 201.33 21.1299 201.31C21.1299 201.31 21.1399 201.31 21.1499 201.31C21.1499 201.31 21.1499 201.31 21.1599 201.31C21.2199 201.29 21.2899 201.27 21.3499 201.25C21.4199 201.23 21.4899 201.21 21.5599 201.19C21.6299 201.17 21.6999 201.15 21.7599 201.14C21.7999 201.14 21.8299 201.12 21.8699 201.12C21.8699 201.12 21.8899 201.12 21.8999 201.12C21.9199 201.12 21.9399 201.11 21.9699 201.11C22.0399 201.1 22.0999 201.08 22.1699 201.07C22.2299 201.06 22.2999 201.05 22.3599 201.04C22.4199 201.04 22.4899 201.02 22.5499 201.02C22.5699 201.02 22.5799 201.02 22.5999 201.02C22.5999 201.02 22.6099 201.02 22.6199 201.02C22.6599 201.02 22.6999 201.02 22.7399 201.02C22.7999 201.02 22.8599 201.02 22.9199 201.02C22.9799 201.02 23.0399 201.02 23.0999 201.02C23.1599 201.02 23.2199 201.02 23.2699 201.02C23.3299 201.02 23.3899 201.02 23.4499 201.03C23.5099 201.04 23.5699 201.04 23.6299 201.05C23.6899 201.05 23.7499 201.07 23.8099 201.08C23.8399 201.08 23.8599 201.09 23.8799 201.1C23.8799 201.1 23.8999 201.1 23.9099 201.1C23.9399 201.1 23.9599 201.11 23.9899 201.12C24.0499 201.13 24.1099 201.15 24.1699 201.17C24.2299 201.19 24.2899 201.21 24.3499 201.23C24.3899 201.24 24.4299 201.26 24.4799 201.28C24.4799 201.28 24.4899 201.28 24.4999 201.28C24.5099 201.28 24.5199 201.28 24.5299 201.29C24.5899 201.32 24.6599 201.34 24.7199 201.37C24.7799 201.4 24.8499 201.43 24.9099 201.46C24.9499 201.48 24.9999 201.51 25.0399 201.53L28.4199 203.5C28.2499 203.4 28.0699 203.32 27.8799 203.24C27.8799 203.24 27.8699 203.24 27.8599 203.24C27.6799 203.17 27.4899 203.12 27.2899 203.08C27.2899 203.08 27.2699 203.08 27.2599 203.08C27.0599 203.04 26.8499 203.01 26.6399 203C26.4299 202.99 26.2099 203 25.9799 203.01C25.9799 203.01 25.9699 203.01 25.9599 203.01C25.7399 203.03 25.5099 203.07 25.2699 203.12C25.2699 203.12 25.2499 203.12 25.2399 203.12C25.0099 203.17 24.7699 203.24 24.5199 203.32C24.5199 203.32 24.5199 203.32 24.5099 203.32C24.2599 203.4 24.0099 203.5 23.7599 203.62C23.7599 203.62 23.7399 203.62 23.7399 203.63C23.4899 203.75 23.2299 203.88 22.9599 204.03C22.6999 204.18 22.4499 204.34 22.1999 204.52C22.1799 204.54 22.1499 204.55 22.1299 204.57C21.9399 204.7 21.7499 204.85 21.5599 205C21.4799 205.06 21.3999 205.13 21.3099 205.2C21.1999 205.29 21.0999 205.38 20.9999 205.47C20.7999 205.64 20.6099 205.82 20.4199 206.01C20.3299 206.1 20.2399 206.19 20.1499 206.28C19.9499 206.49 19.7499 206.7 19.5599 206.93C19.4899 207.01 19.4199 207.08 19.3499 207.16C19.2899 207.24 19.2199 207.32 19.1599 207.39C19.0199 207.57 18.8699 207.75 18.7299 207.94C18.6899 207.99 18.6499 208.04 18.6199 208.09C18.4499 208.33 18.2799 208.57 18.1199 208.82C18.0999 208.85 18.0799 208.88 18.0599 208.91C17.8899 209.18 17.7199 209.45 17.5599 209.72C17.5599 209.73 17.5499 209.74 17.5399 209.75C17.3699 210.04 17.2099 210.33 17.0599 210.63C17.0599 210.64 17.0499 210.65 17.0399 210.66C16.8899 210.96 16.7399 211.27 16.6099 211.58C16.6099 211.58 16.6099 211.58 16.6099 211.59C16.4799 211.9 16.3499 212.2 16.2399 212.51C16.2399 212.52 16.2399 212.53 16.2299 212.55C16.1199 212.86 16.0099 213.17 15.9199 213.48C15.9199 213.48 15.9199 213.5 15.9199 213.51C15.8299 213.82 15.7399 214.13 15.6699 214.44C15.6699 214.44 15.6699 214.45 15.6699 214.46C15.5999 214.77 15.5399 215.08 15.4899 215.39C15.4899 215.4 15.4899 215.42 15.4899 215.43C15.4399 215.73 15.4099 216.03 15.3799 216.33C15.3799 216.35 15.3799 216.36 15.3799 216.38C15.3599 216.68 15.3399 216.98 15.3399 217.28C15.3399 217.61 15.3599 217.93 15.3799 218.25C15.3799 218.3 15.3899 218.35 15.3899 218.4C15.4099 218.63 15.4399 218.85 15.4699 219.07C15.4899 219.19 15.4999 219.3 15.5199 219.41C15.5399 219.53 15.5699 219.66 15.5899 219.78C15.6799 220.22 15.7899 220.64 15.9199 221.03C15.9399 221.08 15.9499 221.12 15.9699 221.17C16.0999 221.55 16.2499 221.9 16.4199 222.24C16.4399 222.28 16.4599 222.33 16.4799 222.38C16.6499 222.73 16.8399 223.05 17.0399 223.36C17.0799 223.42 17.1199 223.48 17.1599 223.54C17.3599 223.84 17.5699 224.12 17.7899 224.38C17.8199 224.42 17.8599 224.46 17.8999 224.5C18.1199 224.75 18.3399 224.99 18.5699 225.21C18.5899 225.23 18.6099 225.25 18.6199 225.26C18.8599 225.49 19.0999 225.7 19.3399 225.89C19.3799 225.93 19.4299 225.96 19.4699 226C19.6999 226.18 19.9299 226.35 20.1599 226.51C20.1999 226.54 20.2399 226.57 20.2899 226.59C20.5199 226.74 20.7499 226.89 20.9599 227.01L17.5799 225.04C17.3599 224.91 17.1399 224.77 16.9099 224.62C16.8699 224.59 16.8299 224.57 16.7899 224.54C16.5599 224.39 16.3299 224.22 16.0999 224.03C16.0499 223.99 16.0099 223.96 15.9699 223.92C15.7299 223.72 15.4899 223.52 15.2499 223.29C15.2299 223.27 15.2099 223.25 15.1999 223.23C14.9699 223.01 14.7499 222.77 14.5299 222.52C14.4899 222.48 14.4599 222.44 14.4199 222.4C14.1999 222.14 13.9899 221.85 13.7899 221.56C13.7499 221.5 13.7099 221.44 13.6699 221.38C13.4699 221.07 13.2799 220.75 13.1099 220.4C13.0899 220.36 13.0699 220.31 13.0499 220.26C12.8899 219.92 12.7399 219.56 12.5999 219.19C12.5799 219.14 12.5599 219.1 12.5499 219.05C12.4199 218.66 12.3099 218.24 12.2199 217.8C12.2099 217.75 12.1899 217.71 12.1799 217.66C12.1699 217.59 12.1599 217.51 12.1399 217.43C12.1199 217.32 12.0999 217.2 12.0899 217.09C12.0799 217.02 12.0599 216.94 12.0499 216.87C12.0299 216.72 12.0199 216.57 12.0099 216.42C12.0099 216.37 11.9999 216.32 11.9999 216.27C11.9999 216.25 11.9999 216.23 11.9999 216.21C11.9899 216.03 11.9799 215.85 11.9699 215.66C11.9699 215.54 11.9699 215.42 11.9699 215.3C11.9699 215.26 11.9699 215.22 11.9699 215.17H11.9999Z" fill="#3D0F9A"/>
<path d="M128.692 144.273C126.945 145.248 124.088 145.239 122.331 144.264C120.564 143.289 120.555 141.701 122.312 140.727C124.059 139.752 126.916 139.761 128.673 140.736C130.429 141.711 130.449 143.299 128.692 144.273Z" fill="#FF5A00"/>
<path d="M158.692 161.273C156.945 162.248 154.088 162.239 152.331 161.264C150.564 160.289 150.555 158.701 152.312 157.727C154.059 156.752 156.916 156.761 158.673 157.736C160.429 158.711 160.449 160.299 158.692 161.273Z" fill="#FF5A00"/>
<path d="M184.5 132L254.293 87.8552C257.824 85.6213 257.689 82.1782 253.985 80.0392L170.803 32" stroke="#3D0F9A" stroke-width="0.5" stroke-dasharray="2 2"/>
<path d="M200.961 95.6379L200.919 110.582L175 126.5L161.5 119L200.961 95.6379Z" fill="#3D0F9A"/>
<path d="M201.989 95.0409L200.961 95.6362L200.919 110.581L201.947 109.985C207.673 106.663 210.54 102.307 210.552 97.9445L210.594 83C210.582 87.3626 207.715 91.7211 201.989 95.0409Z" fill="#3D0F9A"/>
<path d="M26.0358 62.6685L25 48.1685L34.2836 42.6685L36 42.1685V57.0023L26.0358 62.6685Z" fill="#3D0F9A"/>
<path d="M127.807 42.5224C123.418 39.9769 116.253 39.9769 111.835 42.5224L87.3153 56.6531L71.6764 65.6656C60.0766 72.351 41.258 72.3531 29.7311 65.6656L12.6955 55.7852L2 61.1685V76.6685L12.7392 70.7297L29.7729 80.61C41.2997 87.2976 60.1163 87.2955 71.7181 80.61L87.357 71.5975L111.877 57.4669C116.295 54.9214 123.46 54.9214 127.849 57.4669L183.5 90.5L191.5 85.5L192 81L187 77L127.807 42.5224Z" fill="#3D0F9A"/>
<path d="M58.7321 58.158C54.3136 60.7035 47.1489 60.7035 42.7596 58.158L25.7259 48.2776L35.9999 42.1685L2.2135 42.281L1.99994 61.6685L12.6978 55.7873L29.7315 65.6677C41.2583 72.3552 60.077 72.3531 71.6768 65.6677L111.835 42.5246C116.254 39.979 123.418 39.979 127.808 42.5246L131.325 44.5644L144.355 37.0547L140.838 35.0149C129.311 28.3273 110.492 28.3294 98.8904 35.0149L58.7321 58.158Z" fill="white"/>
<path fill-rule="evenodd" clip-rule="evenodd" d="M144.5 37L202.077 70.4289C207.969 73.8252 211.043 78.3549 211.069 82.9863C211.095 87.6188 208.07 92.1507 202.216 95.5471L161.754 119.431L161.246 118.569L201.711 94.684C207.381 91.395 210.092 87.1421 210.069 82.992C210.045 78.8404 207.288 74.5865 201.578 71.2953L142.5 37H144.5ZM188.627 78.7997L130.745 44.4299L131.255 43.5701L189.135 77.9381C191.434 79.2633 192.701 81.0729 192.712 82.9845C192.722 84.8983 191.473 86.7109 189.186 88.0374L144.748 113.434L144.252 112.566L188.684 87.1724C190.785 85.9535 191.72 84.4209 191.712 82.9901C191.704 81.5577 190.745 80.0199 188.627 78.7997Z" fill="#3D0F9A"/>
<path fill-rule="evenodd" clip-rule="evenodd" d="M111.835 42.5246L71.6771 65.6677C60.0773 72.3531 41.2586 72.3552 29.7318 65.6677L12.698 55.7873L2.00018 61.6685L2.21375 42.281L36.0002 42.1685L25.7262 48.2776L42.7599 58.158C47.1492 60.7035 54.3139 60.7035 58.7323 58.158L98.8906 35.0149C110.493 28.3294 129.311 28.3273 140.838 35.0149L144.5 37L143.551 37.545L131.325 44.5644L127.808 42.5246C123.418 39.979 116.254 39.979 111.835 42.5246ZM50.7352 61.0672C47.7146 61.0672 44.6419 60.4054 42.2582 59.023L23.7516 48.2883L32.3413 43.1807L3.20282 43.2778L3.01898 59.9672L12.7112 54.6389L30.2336 64.8027C35.8079 68.0368 43.21 69.6828 50.677 69.6826C58.1437 69.6823 65.5655 68.0359 71.1777 64.8013L111.336 41.6581C113.733 40.2773 116.812 39.6154 119.833 39.6154C122.853 39.6154 125.926 40.2771 128.309 41.6595L132.143 44.0934L143.551 37.545L140.336 35.8798C134.762 32.6458 127.36 30.9997 119.893 31C112.426 31.0003 105.003 32.6467 99.3899 35.8813L59.2315 59.0245C56.8347 60.4053 53.7561 61.0672 50.7352 61.0672Z" fill="#3D0F9A"/>
<path d="M161.246 118.569L201.711 94.684C207.381 91.395 210.092 87.1421 210.069 82.992C210.046 78.8404 207.288 74.5865 201.578 71.2953L142.5 37C139.333 39 132.651 43.114 131.255 43.5701L189.135 77.9381C191.434 79.2633 192.701 81.0729 192.712 82.9845C192.723 84.8983 191.473 86.7109 189.186 88.0374L144.748 113.434L161.246 118.569Z" fill="white"/>
<path d="M152.5 109L142 115L155.5 122L166.5 115.5L152.5 109Z" fill="white"/>
<rect width="44.188" height="78.011" rx="5" transform="matrix(-0.86597 -0.500095 0.86597 -0.500095 65.2651 138.117)" fill="#3D0F9A"/>
<rect width="44.188" height="9.27403" rx="4.63702" transform="matrix(-0.86597 -0.500095 0.86597 -0.500095 135.182 97.74)" fill="#3D0F9A"/>
<rect width="44.188" height="9.27403" rx="4.63702" transform="matrix(-0.86597 -0.500095 0.86597 -0.500095 145.576 91.7378)" fill="#3D0F9A"/>
<rect width="44.188" height="9.27403" rx="4.63702" transform="matrix(-0.86597 -0.500095 0.86597 -0.500095 155.969 85.7358)" fill="#3D0F9A"/>
<rect width="44.188" height="9.27403" rx="4.63702" transform="matrix(-0.86597 -0.500095 0.86597 -0.500095 194.265 62.7402)" fill="#3D0F9A"/>
<rect width="44.188" height="9.27403" rx="4.63702" transform="matrix(-0.86597 -0.500095 0.86597 -0.500095 204.658 56.7383)" fill="#3D0F9A"/>
<rect width="44.188" height="9.27403" rx="4.63702" transform="matrix(-0.86597 -0.500095 0.86597 -0.500095 215.051 50.7363)" fill="#3D0F9A"/>
<path d="M136.136 44C139.927 44 143 42.2271 143 40.04C143 37.853 139.927 36.0801 136.136 36.0801C132.345 36.0801 129.272 37.853 129.272 40.04C129.272 42.2271 132.345 44 136.136 44Z" stroke="#3D0F9A" stroke-miterlimit="10"/>
<path d="M136.136 41.4636C137.5 41.4636 138.606 40.8262 138.606 40.0399C138.606 39.2536 137.5 38.6162 136.136 38.6162C134.772 38.6162 133.666 39.2536 133.666 40.0399C133.666 40.8262 134.772 41.4636 136.136 41.4636Z" stroke="#3D0F9A" stroke-miterlimit="10"/>
<path d="M139.08 13.05C143.31 15.49 146.74 21.43 146.72 26.29C146.7 34.5 139.39 36.87 139.01 36.99C138.63 36.42 129 26 131.38 17.43C131.39 12.56 134.84 10.6 139.08 13.04V13.05ZM139.05 25.32C140.76 26.31 142.15 25.51 142.16 23.54C142.16 21.57 140.78 19.17 139.07 18.18C137.35 17.19 135.96 17.98 135.95 19.96C135.94 21.94 137.33 24.33 139.05 25.32Z" fill="#3D0F9A"/>
<path d="M136.529 15.054C140.666 17.4946 144.019 23.4361 144 28.2973C143.98 36.5094 136.832 38.88 136.461 39C136.089 38.4399 128.98 27.6471 129 19.4351C129.01 14.5738 132.383 12.6033 136.529 15.054ZM136.5 27.3271C138.172 28.3173 139.531 27.5171 139.541 25.5466C139.541 23.5761 138.192 21.1755 136.52 20.1853C134.838 19.195 133.478 19.9852 133.469 21.9657C133.459 23.9462 134.818 26.3368 136.5 27.3271Z" fill="white" stroke="#3D0F9A"/>
<path d="M146.72 26.17C146.72 26.06 146.72 25.95 146.72 25.83C146.72 25.72 146.71 25.61 146.7 25.5C146.7 25.46 146.7 25.43 146.7 25.39C146.7 25.37 146.7 25.36 146.7 25.34C146.7 25.29 146.7 25.24 146.69 25.19C146.69 25.09 146.67 24.99 146.66 24.89C146.65 24.79 146.64 24.7 146.62 24.6C146.62 24.55 146.6 24.49 146.59 24.44C146.59 24.43 146.59 24.42 146.59 24.4C146.59 24.37 146.59 24.34 146.58 24.32C146.56 24.23 146.55 24.13 146.53 24.04C146.51 23.95 146.5 23.86 146.48 23.77C146.46 23.68 146.44 23.59 146.42 23.5C146.42 23.5 146.42 23.48 146.42 23.47C146.42 23.47 146.42 23.46 146.42 23.45C146.4 23.38 146.39 23.3 146.37 23.23C146.35 23.14 146.33 23.06 146.3 22.97C146.28 22.88 146.25 22.8 146.23 22.71C146.21 22.65 146.19 22.58 146.17 22.52C146.17 22.52 146.17 22.5 146.17 22.49C146.17 22.47 146.17 22.46 146.16 22.44C146.13 22.35 146.11 22.27 146.08 22.18C146.05 22.09 146.02 22.01 145.99 21.92C145.96 21.83 145.93 21.74 145.9 21.66C145.89 21.63 145.88 21.6 145.86 21.56C145.86 21.55 145.86 21.54 145.85 21.52C145.83 21.48 145.82 21.43 145.8 21.39C145.77 21.3 145.73 21.21 145.7 21.12C145.66 21.03 145.63 20.94 145.59 20.85C145.55 20.77 145.52 20.68 145.48 20.6C145.48 20.6 145.48 20.58 145.48 20.57C145.44 20.48 145.4 20.39 145.36 20.29C145.32 20.19 145.27 20.1 145.22 20C145.17 19.9 145.13 19.8 145.08 19.71C145.08 19.69 145.06 19.68 145.06 19.66C145.06 19.65 145.05 19.64 145.04 19.63C145 19.56 144.97 19.48 144.93 19.41C144.87 19.3 144.82 19.2 144.76 19.09C144.7 18.98 144.64 18.88 144.58 18.78C144.58 18.77 144.57 18.76 144.56 18.75C144.56 18.74 144.55 18.73 144.54 18.72C144.48 18.62 144.43 18.53 144.37 18.44C144.3 18.32 144.23 18.21 144.15 18.09C144.11 18.03 144.07 17.97 144.04 17.91C144.02 17.88 144 17.85 143.98 17.82C143.95 17.78 143.92 17.73 143.89 17.69C143.79 17.55 143.7 17.41 143.6 17.27C143.56 17.21 143.52 17.16 143.47 17.1C143.43 17.05 143.39 17 143.36 16.94C143.32 16.88 143.27 16.82 143.23 16.76C143.13 16.63 143.03 16.52 142.94 16.39C142.88 16.31 142.81 16.23 142.75 16.15C142.73 16.13 142.72 16.11 142.7 16.08C142.65 16.02 142.6 15.97 142.55 15.91C142.36 15.69 142.16 15.47 141.96 15.26C141.87 15.17 141.78 15.08 141.69 14.99C141.5 14.8 141.31 14.63 141.11 14.45C141.05 14.4 140.99 14.34 140.93 14.29C140.88 14.25 140.84 14.22 140.79 14.18C140.71 14.11 140.63 14.05 140.54 13.98C140.46 13.92 140.39 13.86 140.31 13.8C140.2 13.72 140.09 13.64 139.97 13.56C139.95 13.54 139.92 13.53 139.9 13.51C139.89 13.51 139.88 13.49 139.86 13.48C139.74 13.4 139.62 13.32 139.49 13.24C139.37 13.17 139.26 13.1 139.14 13.03C139.14 13.03 139.14 13.03 139.13 13.03C139.04 12.98 138.94 12.92 138.85 12.87C138.75 12.82 138.66 12.77 138.56 12.72C138.49 12.69 138.42 12.65 138.35 12.62C138.35 12.62 138.34 12.62 138.33 12.61C138.33 12.61 138.31 12.61 138.3 12.6C138.22 12.56 138.13 12.53 138.05 12.49C137.97 12.46 137.89 12.43 137.81 12.39C137.74 12.36 137.66 12.33 137.59 12.31C137.59 12.31 137.58 12.31 137.57 12.31C137.57 12.31 137.57 12.31 137.56 12.31C137.5 12.29 137.43 12.27 137.37 12.25C137.3 12.23 137.23 12.21 137.16 12.19C137.09 12.17 137.02 12.15 136.96 12.14C136.92 12.14 136.89 12.12 136.85 12.12C136.85 12.12 136.83 12.12 136.82 12.12C136.8 12.12 136.78 12.11 136.75 12.11C136.68 12.1 136.62 12.08 136.55 12.07C136.49 12.06 136.42 12.05 136.36 12.04C136.3 12.04 136.23 12.02 136.17 12.02C136.15 12.02 136.14 12.02 136.12 12.02C136.12 12.02 136.11 12.02 136.1 12.02C136.06 12.02 136.02 12.02 135.98 12.02C135.92 12.02 135.86 12.02 135.8 12.02C135.74 12.02 135.68 12.02 135.62 12.02C135.56 12.02 135.5 12.02 135.45 12.02C135.39 12.02 135.33 12.02 135.27 12.03C135.21 12.04 135.15 12.04 135.09 12.05C135.03 12.05 134.97 12.07 134.91 12.08C134.88 12.08 134.86 12.09 134.84 12.1C134.84 12.1 134.82 12.1 134.81 12.1C134.78 12.1 134.76 12.11 134.73 12.12C134.67 12.13 134.61 12.15 134.55 12.17C134.49 12.19 134.43 12.21 134.37 12.23C134.33 12.24 134.29 12.26 134.24 12.28C134.24 12.28 134.23 12.28 134.22 12.28C134.21 12.28 134.2 12.28 134.19 12.29C134.13 12.32 134.06 12.34 134 12.37C133.94 12.4 133.87 12.43 133.81 12.46C133.77 12.48 133.72 12.51 133.68 12.53L130.3 14.5C130.47 14.4 130.65 14.32 130.84 14.24C130.84 14.24 130.85 14.24 130.86 14.24C131.04 14.17 131.23 14.12 131.43 14.08C131.43 14.08 131.45 14.08 131.46 14.08C131.66 14.04 131.87 14.01 132.08 14C132.29 13.99 132.51 14 132.74 14.01C132.74 14.01 132.75 14.01 132.76 14.01C132.98 14.03 133.21 14.07 133.45 14.12C133.45 14.12 133.47 14.12 133.48 14.12C133.71 14.17 133.95 14.24 134.2 14.32C134.2 14.32 134.2 14.32 134.21 14.32C134.46 14.4 134.71 14.5 134.96 14.62C134.96 14.62 134.98 14.62 134.98 14.63C135.23 14.75 135.49 14.88 135.76 15.03C136.02 15.18 136.27 15.34 136.52 15.52C136.54 15.54 136.57 15.55 136.59 15.57C136.78 15.7 136.97 15.85 137.16 16C137.24 16.06 137.32 16.13 137.41 16.2C137.52 16.29 137.62 16.38 137.72 16.47C137.92 16.64 138.11 16.82 138.3 17.01C138.39 17.1 138.48 17.19 138.57 17.28C138.77 17.49 138.97 17.7 139.16 17.93C139.23 18.01 139.3 18.08 139.37 18.16C139.43 18.24 139.5 18.32 139.56 18.39C139.7 18.57 139.85 18.75 139.99 18.94C140.03 18.99 140.07 19.04 140.1 19.09C140.27 19.33 140.44 19.57 140.6 19.82C140.62 19.85 140.64 19.88 140.66 19.91C140.83 20.18 141 20.45 141.16 20.72C141.16 20.73 141.17 20.74 141.18 20.75C141.35 21.04 141.51 21.33 141.66 21.63C141.66 21.64 141.67 21.65 141.68 21.66C141.83 21.96 141.98 22.27 142.11 22.58C142.11 22.58 142.11 22.58 142.11 22.59C142.24 22.9 142.37 23.2 142.48 23.51C142.48 23.52 142.48 23.53 142.49 23.55C142.6 23.86 142.71 24.17 142.8 24.48C142.8 24.48 142.8 24.5 142.8 24.51C142.89 24.82 142.98 25.13 143.05 25.44C143.05 25.44 143.05 25.45 143.05 25.46C143.12 25.77 143.18 26.08 143.23 26.39C143.23 26.4 143.23 26.42 143.23 26.43C143.28 26.73 143.31 27.03 143.34 27.33C143.34 27.35 143.34 27.36 143.34 27.38C143.36 27.68 143.38 27.98 143.38 28.28C143.38 28.61 143.36 28.93 143.34 29.25C143.34 29.3 143.33 29.35 143.33 29.4C143.31 29.63 143.28 29.85 143.25 30.07C143.23 30.19 143.22 30.3 143.2 30.41C143.18 30.53 143.15 30.66 143.13 30.78C143.04 31.22 142.93 31.64 142.8 32.03C142.78 32.08 142.77 32.12 142.75 32.17C142.62 32.55 142.47 32.9 142.3 33.24C142.28 33.28 142.26 33.33 142.24 33.38C142.07 33.73 141.88 34.05 141.68 34.36C141.64 34.42 141.6 34.48 141.56 34.54C141.36 34.84 141.15 35.12 140.93 35.38C140.9 35.42 140.86 35.46 140.82 35.5C140.6 35.75 140.38 35.99 140.15 36.21C140.13 36.23 140.11 36.25 140.1 36.26C139.86 36.49 139.62 36.7 139.38 36.89C139.34 36.93 139.29 36.96 139.25 37C139.02 37.18 138.79 37.35 138.56 37.51C138.52 37.54 138.48 37.57 138.43 37.59C138.2 37.74 137.97 37.89 137.76 38.01L141.14 36.04C141.36 35.91 141.58 35.77 141.81 35.62C141.85 35.59 141.89 35.57 141.93 35.54C142.16 35.39 142.39 35.22 142.62 35.03C142.67 34.99 142.71 34.96 142.75 34.92C142.99 34.72 143.23 34.52 143.47 34.29C143.49 34.27 143.51 34.25 143.52 34.23C143.75 34.01 143.97 33.77 144.19 33.52C144.23 33.48 144.26 33.44 144.3 33.4C144.52 33.14 144.73 32.85 144.93 32.56C144.97 32.5 145.01 32.44 145.05 32.38C145.25 32.07 145.44 31.75 145.61 31.4C145.63 31.36 145.65 31.31 145.67 31.26C145.83 30.92 145.98 30.56 146.12 30.19C146.14 30.14 146.16 30.1 146.17 30.05C146.3 29.66 146.41 29.24 146.5 28.8C146.51 28.75 146.53 28.71 146.54 28.66C146.55 28.59 146.56 28.51 146.58 28.43C146.6 28.32 146.62 28.2 146.63 28.09C146.64 28.02 146.66 27.94 146.67 27.87C146.69 27.72 146.7 27.57 146.71 27.42C146.71 27.37 146.72 27.32 146.72 27.27C146.72 27.25 146.72 27.23 146.72 27.21C146.73 27.03 146.74 26.85 146.75 26.66C146.75 26.54 146.75 26.42 146.75 26.3C146.75 26.26 146.75 26.22 146.75 26.17H146.72Z" fill="#3D0F9A"/>
<path d="M59.5628 46.0295L80.3842 34.0663C81.3822 33.4794 82.1987 31.9445 82.1987 30.6128V7.31833C82.1987 5.98657 81.3822 5.37712 80.3842 5.94143L59.5628 17.9047C58.5648 18.4915 57.7483 20.0264 57.7483 21.3582V44.6301C57.7483 45.9618 58.5648 46.5713 59.5628 46.007V46.0295Z" fill="#FF5A00"/>
<path d="M58.837 47C59.1999 47 59.5628 46.8871 59.9484 46.684L80.7472 34.7208C81.972 34.021 82.9473 32.2152 82.9473 30.6126V7.31817C82.9473 6.34757 82.5844 5.58012 81.9493 5.21896C81.3823 4.90295 80.6791 4.92553 80.0214 5.30925L59.1999 17.2725C57.9751 17.9722 56.9999 19.778 56.9999 21.3806V44.6525C56.9999 45.6231 57.3628 46.3906 57.9978 46.7517C58.2473 46.9097 58.5422 46.9774 58.837 46.9774V47ZM59.1999 45.3974C59.0185 45.5102 58.837 45.5328 58.7463 45.4877C58.6556 45.4425 58.4968 45.1942 58.4968 44.6751V21.3806C58.4968 20.3197 59.1773 19.0105 59.9484 18.5591L80.7472 6.59587C80.9286 6.483 81.1101 6.46043 81.2008 6.50558C81.2915 6.55072 81.4503 6.79901 81.4503 7.31817V30.5901C81.4503 31.6509 80.7699 32.9601 79.9987 33.4116L59.1773 45.3748L59.1999 45.3974Z" fill="#FF5A00"/>
<rect width="36.3094" height="79.8808" rx="1" transform="matrix(0.000117506 -1 0.866084 0.499898 107.996 113.163)" fill="#FF5A00"/>
<path d="M57.0931 114.065C57.6968 114.065 58.1862 113.79 58.1862 113.449C58.1862 113.109 57.6968 112.833 57.0931 112.833C56.4894 112.833 56 113.109 56 113.449C56 113.79 56.4894 114.065 57.0931 114.065Z" fill="#FF5A00"/>
<path d="M59.5867 112.655C60.1904 112.655 60.6798 112.379 60.6798 112.039C60.6798 111.698 60.1904 111.423 59.5867 111.423C58.983 111.423 58.4937 111.698 58.4937 112.039C58.4937 112.379 58.983 112.655 59.5867 112.655Z" fill="#FF5A00"/>
<path d="M62.0799 111.232C62.6836 111.232 63.173 110.956 63.173 110.616C63.173 110.276 62.6836 110 62.0799 110C61.4762 110 60.9868 110.276 60.9868 110.616C60.9868 110.956 61.4762 111.232 62.0799 111.232Z" fill="#FF5A00"/>
<path d="M60.0877 115.768C60.6914 115.768 61.1808 115.492 61.1808 115.152C61.1808 114.812 60.6914 114.536 60.0877 114.536C59.484 114.536 58.9946 114.812 58.9946 115.152C58.9946 115.492 59.484 115.768 60.0877 115.768Z" fill="#FF5A00"/>
<path d="M62.5814 114.345C63.1851 114.345 63.6745 114.069 63.6745 113.729C63.6745 113.389 63.1851 113.113 62.5814 113.113C61.9777 113.113 61.4883 113.389 61.4883 113.729C61.4883 114.069 61.9777 114.345 62.5814 114.345Z" fill="#FF5A00"/>
<path d="M65.075 112.934C65.6787 112.934 66.1681 112.659 66.1681 112.318C66.1681 111.978 65.6787 111.702 65.075 111.702C64.4713 111.702 63.9819 111.978 63.9819 112.318C63.9819 112.659 64.4713 112.934 65.075 112.934Z" fill="#FF5A00"/>
<path d="M63.0706 117.459C63.6743 117.459 64.1637 117.183 64.1637 116.843C64.1637 116.503 63.6743 116.227 63.0706 116.227C62.4669 116.227 61.9775 116.503 61.9775 116.843C61.9775 117.183 62.4669 117.459 63.0706 117.459Z" fill="#FF5A00"/>
<path d="M65.5648 116.048C66.1685 116.048 66.6578 115.772 66.6578 115.432C66.6578 115.092 66.1685 114.816 65.5648 114.816C64.9611 114.816 64.4717 115.092 64.4717 115.432C64.4717 115.772 64.9611 116.048 65.5648 116.048Z" fill="#FF5A00"/>
<path d="M68.0579 114.625C68.6616 114.625 69.151 114.349 69.151 114.009C69.151 113.669 68.6616 113.393 68.0579 113.393C67.4542 113.393 66.9648 113.669 66.9648 114.009C66.9648 114.349 67.4542 114.625 68.0579 114.625Z" fill="#FF5A00"/>
<path d="M66.0653 119.161C66.6689 119.161 67.1583 118.886 67.1583 118.545C67.1583 118.205 66.6689 117.929 66.0653 117.929C65.4616 117.929 64.9722 118.205 64.9722 118.545C64.9722 118.886 65.4616 119.161 66.0653 119.161Z" fill="#FF5A00"/>
<path d="M68.5594 117.739C69.1631 117.739 69.6525 117.463 69.6525 117.123C69.6525 116.783 69.1631 116.507 68.5594 116.507C67.9557 116.507 67.4663 116.783 67.4663 117.123C67.4663 117.463 67.9557 117.739 68.5594 117.739Z" fill="#FF5A00"/>
<path d="M71.0526 116.328C71.6563 116.328 72.1456 116.052 72.1456 115.712C72.1456 115.371 71.6563 115.096 71.0526 115.096C70.4489 115.096 69.9595 115.371 69.9595 115.712C69.9595 116.052 70.4489 116.328 71.0526 116.328Z" fill="#FF5A00"/>
<path d="M72.0931 105.065C72.6968 105.065 73.1862 104.79 73.1862 104.449C73.1862 104.109 72.6968 103.833 72.0931 103.833C71.4894 103.833 71 104.109 71 104.449C71 104.79 71.4894 105.065 72.0931 105.065Z" fill="white"/>
<path d="M74.5867 103.655C75.1904 103.655 75.6798 103.379 75.6798 103.039C75.6798 102.698 75.1904 102.423 74.5867 102.423C73.983 102.423 73.4937 102.698 73.4937 103.039C73.4937 103.379 73.983 103.655 74.5867 103.655Z" fill="white"/>
<path d="M77.0799 102.232C77.6836 102.232 78.173 101.956 78.173 101.616C78.173 101.276 77.6836 101 77.0799 101C76.4762 101 75.9868 101.276 75.9868 101.616C75.9868 101.956 76.4762 102.232 77.0799 102.232Z" fill="white"/>
<path d="M75.0877 106.768C75.6914 106.768 76.1808 106.492 76.1808 106.152C76.1808 105.812 75.6914 105.536 75.0877 105.536C74.484 105.536 73.9946 105.812 73.9946 106.152C73.9946 106.492 74.484 106.768 75.0877 106.768Z" fill="white"/>
<path d="M77.5814 105.345C78.1851 105.345 78.6745 105.069 78.6745 104.729C78.6745 104.389 78.1851 104.113 77.5814 104.113C76.9777 104.113 76.4883 104.389 76.4883 104.729C76.4883 105.069 76.9777 105.345 77.5814 105.345Z" fill="white"/>
<path d="M80.075 103.934C80.6787 103.934 81.1681 103.659 81.1681 103.318C81.1681 102.978 80.6787 102.702 80.075 102.702C79.4713 102.702 78.9819 102.978 78.9819 103.318C78.9819 103.659 79.4713 103.934 80.075 103.934Z" fill="white"/>
<path d="M78.0706 108.459C78.6743 108.459 79.1637 108.183 79.1637 107.843C79.1637 107.503 78.6743 107.227 78.0706 107.227C77.4669 107.227 76.9775 107.503 76.9775 107.843C76.9775 108.183 77.4669 108.459 78.0706 108.459Z" fill="white"/>
<path d="M80.5648 107.048C81.1685 107.048 81.6578 106.772 81.6578 106.432C81.6578 106.092 81.1685 105.816 80.5648 105.816C79.9611 105.816 79.4717 106.092 79.4717 106.432C79.4717 106.772 79.9611 107.048 80.5648 107.048Z" fill="white"/>
<path d="M83.0579 105.625C83.6616 105.625 84.151 105.349 84.151 105.009C84.151 104.669 83.6616 104.393 83.0579 104.393C82.4542 104.393 81.9648 104.669 81.9648 105.009C81.9648 105.349 82.4542 105.625 83.0579 105.625Z" fill="white"/>
<path d="M81.0653 110.161C81.6689 110.161 82.1583 109.886 82.1583 109.545C82.1583 109.205 81.6689 108.929 81.0653 108.929C80.4616 108.929 79.9722 109.205 79.9722 109.545C79.9722 109.886 80.4616 110.161 81.0653 110.161Z" fill="white"/>
<path d="M83.5594 108.739C84.1631 108.739 84.6525 108.463 84.6525 108.123C84.6525 107.783 84.1631 107.507 83.5594 107.507C82.9557 107.507 82.4663 107.783 82.4663 108.123C82.4663 108.463 82.9557 108.739 83.5594 108.739Z" fill="white"/>
<path d="M86.0526 107.328C86.6563 107.328 87.1456 107.052 87.1456 106.712C87.1456 106.371 86.6563 106.096 86.0526 106.096C85.4489 106.096 84.9595 106.371 84.9595 106.712C84.9595 107.052 85.4489 107.328 86.0526 107.328Z" fill="white"/>
<path d="M87.0931 95.0654C87.6968 95.0654 88.1862 94.7897 88.1862 94.4495C88.1862 94.1093 87.6968 93.8335 87.0931 93.8335C86.4894 93.8335 86 94.1093 86 94.4495C86 94.7897 86.4894 95.0654 87.0931 95.0654Z" fill="white"/>
<path d="M89.5867 93.6546C90.1904 93.6546 90.6798 93.3788 90.6798 93.0386C90.6798 92.6984 90.1904 92.4226 89.5867 92.4226C88.983 92.4226 88.4937 92.6984 88.4937 93.0386C88.4937 93.3788 88.983 93.6546 89.5867 93.6546Z" fill="white"/>
<path d="M92.0799 92.232C92.6836 92.232 93.173 91.9562 93.173 91.616C93.173 91.2758 92.6836 91 92.0799 91C91.4762 91 90.9868 91.2758 90.9868 91.616C90.9868 91.9562 91.4762 92.232 92.0799 92.232Z" fill="white"/>
<path d="M90.0877 96.7678C90.6914 96.7678 91.1808 96.4921 91.1808 96.1519C91.1808 95.8117 90.6914 95.5359 90.0877 95.5359C89.484 95.5359 88.9946 95.8117 88.9946 96.1519C88.9946 96.4921 89.484 96.7678 90.0877 96.7678Z" fill="white"/>
<path d="M92.5814 95.3452C93.1851 95.3452 93.6745 95.0694 93.6745 94.7293C93.6745 94.3891 93.1851 94.1133 92.5814 94.1133C91.9777 94.1133 91.4883 94.3891 91.4883 94.7293C91.4883 95.0694 91.9777 95.3452 92.5814 95.3452Z" fill="white"/>
<path d="M95.075 93.9343C95.6787 93.9343 96.1681 93.6586 96.1681 93.3184C96.1681 92.9782 95.6787 92.7024 95.075 92.7024C94.4713 92.7024 93.9819 92.9782 93.9819 93.3184C93.9819 93.6586 94.4713 93.9343 95.075 93.9343Z" fill="white"/>
<path d="M93.0706 98.459C93.6743 98.459 94.1637 98.1832 94.1637 97.843C94.1637 97.5028 93.6743 97.2271 93.0706 97.2271C92.4669 97.2271 91.9775 97.5028 91.9775 97.843C91.9775 98.1832 92.4669 98.459 93.0706 98.459Z" fill="white"/>
<path d="M95.5648 97.0479C96.1685 97.0479 96.6578 96.7721 96.6578 96.4319C96.6578 96.0917 96.1685 95.8159 95.5648 95.8159C94.9611 95.8159 94.4717 96.0917 94.4717 96.4319C94.4717 96.7721 94.9611 97.0479 95.5648 97.0479Z" fill="white"/>
<path d="M98.0579 95.6253C98.6616 95.6253 99.151 95.3495 99.151 95.0093C99.151 94.6691 98.6616 94.3933 98.0579 94.3933C97.4542 94.3933 96.9648 94.6691 96.9648 95.0093C96.9648 95.3495 97.4542 95.6253 98.0579 95.6253Z" fill="white"/>
<path d="M96.0653 100.161C96.6689 100.161 97.1583 99.8856 97.1583 99.5454C97.1583 99.2052 96.6689 98.9294 96.0653 98.9294C95.4616 98.9294 94.9722 99.2052 94.9722 99.5454C94.9722 99.8856 95.4616 100.161 96.0653 100.161Z" fill="white"/>
<path d="M98.5594 98.739C99.1631 98.739 99.6525 98.4632 99.6525 98.1231C99.6525 97.7829 99.1631 97.5071 98.5594 97.5071C97.9557 97.5071 97.4663 97.7829 97.4663 98.1231C97.4663 98.4632 97.9557 98.739 98.5594 98.739Z" fill="white"/>
<path d="M101.053 97.3277C101.656 97.3277 102.146 97.0519 102.146 96.7117C102.146 96.3715 101.656 96.0957 101.053 96.0957C100.449 96.0957 99.9595 96.3715 99.9595 96.7117C99.9595 97.0519 100.449 97.3277 101.053 97.3277Z" fill="white"/>
<path d="M73.692 60.2734C71.9449 61.2484 69.0877 61.2391 67.3309 60.2641C65.5644 59.2892 65.5548 57.7015 67.3116 56.7266C69.0587 55.7516 71.9159 55.7609 73.6727 56.7359C75.4295 57.7108 75.4488 59.2985 73.692 60.2734Z" fill="#FF5A00"/>
<path d="M126.003 142.359L126.003 109" stroke="#FF5A00" stroke-dasharray="2 2"/>
<path d="M155.003 159.359L155.003 126" stroke="#FF5A00" stroke-dasharray="2 2"/>
<path d="M71.0034 58.3588L71.0034 25" stroke="#FF5A00" stroke-dasharray="2 2"/>
<rect x="-0.865972" width="49.6259" height="49.6259" rx="4.5" transform="matrix(-0.865972 0.500092 -0.865972 -0.500092 86.0653 115.751)" stroke="#3D0F9A" stroke-dasharray="2 2"/>
<path d="M212.539 55.9972L212.538 55.9975C211.724 56.452 210.629 56.6863 209.516 56.684C208.402 56.6818 207.305 56.4431 206.484 55.9879L206.484 55.9875C205.655 55.5301 205.319 54.9757 205.316 54.4936C205.313 54.0125 205.642 53.4596 206.465 53.0028L206.465 53.0028L206.466 53.0025C207.28 52.548 208.374 52.3137 209.488 52.316C210.601 52.3182 211.699 52.5569 212.519 53.0121C213.343 53.4694 213.68 54.0241 213.684 54.507C213.688 54.9882 213.361 55.5407 212.539 55.9972Z" fill="white" stroke="#3D0F9A" stroke-width="0.631924"/>
<path d="M60.5387 99.9972L60.5381 99.9975C59.7237 100.452 58.6294 100.686 57.5157 100.684C56.4022 100.682 55.3046 100.443 54.4842 99.9879L54.4836 99.9875C53.6548 99.5301 53.3187 98.9757 53.316 98.4936C53.3133 98.0125 53.6419 97.4596 54.4649 97.0028L54.4649 97.0028L54.4655 97.0025C55.28 96.548 56.3742 96.3137 57.4879 96.316C58.6014 96.3182 59.699 96.5569 60.5194 97.0121C61.3434 97.4694 61.6804 98.0241 61.684 98.507C61.6876 98.9882 61.3612 99.5407 60.5387 99.9972Z" fill="white" stroke="#3D0F9A" stroke-width="0.631924"/>
<path d="M146.703 113.445C147.725 114.035 148.704 115.068 149.426 116.319C150.148 117.57 150.554 118.935 150.554 120.114C150.553 121.293 150.148 122.19 149.425 122.607C148.703 123.024 147.724 122.927 146.702 122.337C145.681 121.748 144.702 120.714 143.98 119.463C143.258 118.213 142.852 116.848 142.852 115.669C142.852 114.489 143.258 113.593 143.98 113.176C144.703 112.759 145.682 112.856 146.703 113.445ZM146.702 124.56C150.957 127.016 154.403 130.995 154.403 133.452L154.403 135.675L139 126.784L139 124.561C139 122.105 142.447 122.104 146.702 124.56Z" fill="white"/>
<path d="M135.568 118C135.621 118 135.673 117.995 135.726 117.978C135.964 117.908 136.107 117.68 136.107 117.371V114.367C138.516 114.101 140 112.1 140 109.08C140 104.226 136.244 98.0551 131.632 95.3166C129.191 93.8687 126.846 93.603 125.198 94.5791C123.777 95.4196 123 97.1007 123 99.3132C123 104.167 126.756 110.338 131.368 113.076C131.685 113.266 132.007 113.434 132.345 113.591L134.818 117.49C135.024 117.816 135.304 118 135.568 118ZM127.448 94.5411C128.626 94.5411 129.973 94.9641 131.368 95.7884C135.837 98.4347 139.472 104.4 139.472 109.08C139.472 111.927 138.109 113.711 135.827 113.846L135.578 113.862V117.371C135.578 117.441 135.562 117.469 135.562 117.469C135.541 117.469 135.399 117.414 135.261 117.197L132.704 113.168L132.636 113.136C132.287 112.973 131.96 112.805 131.637 112.61C127.168 109.963 123.534 103.998 123.534 99.3186C123.534 97.3067 124.22 95.7938 125.467 95.0509C126.038 94.7092 126.714 94.5411 127.453 94.5411H127.448Z" fill="white" stroke="white" stroke-width="0.5"/>
<path d="M127.204 101.233C126.586 100.878 126.081 101.168 126.081 101.877C126.081 102.587 126.586 103.458 127.204 103.813C127.822 104.168 128.327 103.877 128.327 103.168C128.327 102.459 127.822 101.588 127.204 101.233Z" fill="white"/>
<path d="M127.703 104.046C127.535 104.046 127.352 103.991 127.164 103.883C126.522 103.514 126 102.615 126 101.877C126 101.504 126.132 101.223 126.371 101.086C126.61 100.949 126.92 100.976 127.245 101.163C127.887 101.531 128.409 102.431 128.409 103.168C128.409 103.542 128.278 103.823 128.039 103.959C127.938 104.017 127.825 104.045 127.704 104.045L127.703 104.046ZM126.705 101.161C126.611 101.161 126.526 101.183 126.451 101.225C126.264 101.333 126.161 101.564 126.161 101.877C126.161 102.563 126.647 103.4 127.244 103.743C127.517 103.9 127.77 103.927 127.957 103.82C128.144 103.712 128.247 103.481 128.247 103.167C128.247 102.481 127.761 101.645 127.164 101.302C127.001 101.208 126.844 101.16 126.705 101.16V101.161Z" fill="white"/>
<path d="M131.506 103.71C130.888 103.355 130.383 103.645 130.383 104.355C130.383 105.064 130.888 105.935 131.506 106.29C132.124 106.645 132.63 106.354 132.63 105.645C132.63 104.936 132.124 104.065 131.506 103.71Z" fill="white"/>
<path d="M132.006 106.523C131.838 106.523 131.655 106.468 131.467 106.36C130.825 105.991 130.302 105.092 130.302 104.355C130.302 103.981 130.434 103.701 130.673 103.563C130.912 103.426 131.222 103.453 131.548 103.64C132.19 104.008 132.711 104.908 132.711 105.645C132.711 106.019 132.58 106.3 132.341 106.436C132.241 106.494 132.128 106.522 132.006 106.522V106.523ZM131.008 103.638C130.914 103.638 130.829 103.66 130.754 103.702C130.567 103.81 130.464 104.041 130.464 104.355C130.464 105.04 130.95 105.877 131.548 106.22C131.821 106.377 132.073 106.404 132.261 106.297C132.447 106.189 132.551 105.958 132.551 105.644C132.551 104.958 132.065 104.122 131.468 103.779C131.305 103.685 131.148 103.637 131.009 103.637L131.008 103.638Z" fill="white"/>
<path d="M135.809 106.187C135.192 105.832 134.686 106.123 134.686 106.832C134.686 107.542 135.192 108.413 135.809 108.768C136.427 109.123 136.933 108.832 136.933 108.123C136.933 107.414 136.427 106.542 135.809 106.187Z" fill="white"/>
<path d="M136.309 109C136.141 109 135.957 108.946 135.769 108.837C135.127 108.468 134.605 107.569 134.605 106.832C134.605 106.458 134.737 106.177 134.976 106.04C135.215 105.903 135.525 105.93 135.851 106.117C136.493 106.485 137.016 107.385 137.016 108.122C137.016 108.496 136.884 108.777 136.645 108.913C136.545 108.971 136.432 108.999 136.31 108.999L136.309 109ZM135.311 106.115C135.217 106.115 135.131 106.137 135.056 106.179C134.87 106.287 134.766 106.518 134.766 106.832C134.766 107.517 135.252 108.354 135.849 108.697C136.122 108.854 136.375 108.881 136.562 108.774C136.749 108.666 136.852 108.435 136.852 108.121C136.852 107.436 136.366 106.599 135.768 106.256C135.605 106.162 135.449 106.114 135.31 106.114L135.311 106.115Z" fill="white"/>
<path d="M59.5387 133.997L59.5381 133.998C58.7237 134.452 57.6294 134.686 56.5157 134.684C55.4022 134.682 54.3046 134.443 53.4842 133.988L53.4836 133.988C52.6548 133.53 52.3187 132.976 52.316 132.494C52.3133 132.012 52.6419 131.46 53.4649 131.003L53.4649 131.003L53.4655 131.002C54.28 130.548 55.3742 130.314 56.4879 130.316C57.6014 130.318 58.699 130.557 59.5194 131.012C60.3434 131.469 60.6804 132.024 60.684 132.507C60.6876 132.988 60.3612 133.541 59.5387 133.997Z" fill="white" stroke="#3D0F9A" stroke-width="0.631924"/>
<path d="M71.6025 20C71.6025 20 71.517 20 71.4828 20C71.2603 20.0475 71.055 20.2061 70.9352 20.428L67.1025 27.5463C66.9485 27.8317 66.9828 28.1488 67.1881 28.3232C67.3763 28.4817 67.6501 28.4975 67.8725 28.3707L68.4371 28.0695L68.4371 32.4451C68.4371 32.6512 68.5398 32.8256 68.7109 32.9207C68.882 33.0158 69.1044 33 69.2927 32.9049L74.1006 30.3366C74.3573 30.1939 74.5455 29.8927 74.5455 29.6232L74.5455 24.8195L75.5379 24.2488C75.7774 24.1219 75.9657 23.8524 75.9828 23.5829C75.9999 23.3927 75.9314 23.2024 75.7774 23.0914L71.9447 20.0951C71.8421 20.0158 71.7223 19.9841 71.6025 19.9841L71.6025 20Z" fill="white"/>
</svg>
