<svg width="48" height="48" viewBox="0 0 48 48" fill="none" xmlns="http://www.w3.org/2000/svg">
<path d="M24 26V4L40 12L24 20" stroke="#FF5A00" stroke-width="2" stroke-linecap="round" stroke-linejoin="round"/>
<path d="M41.1214 20.4443C42.1857 23.7245 42.2852 27.2415 41.4083 30.5768C40.5313 33.912 38.7146 36.9251 36.1745 39.2576C33.6343 41.5901 30.4776 43.1438 27.0798 43.7339C23.6821 44.324 20.1863 43.9256 17.0085 42.5861C13.8306 41.2465 11.1045 39.0223 9.15434 36.1781C7.2042 33.3338 6.11217 29.9892 6.00819 26.5421C5.9042 23.0951 6.79263 19.6907 8.56777 16.734C10.3429 13.7774 12.93 11.3929 16.0214 9.86426M16.0034 19.9943C15.0012 21.3283 14.3487 22.8919 14.1054 24.5426C13.8622 26.1934 14.0358 27.8787 14.6106 29.4452C15.1853 31.0116 16.1429 32.4093 17.396 33.511C18.6492 34.6127 20.1581 35.3833 21.7852 35.7526C23.4124 36.1219 25.1061 36.0782 26.7121 35.6254C28.318 35.1727 29.7851 34.3253 30.9798 33.1604C32.1744 31.9956 33.0586 30.5503 33.5518 28.9563C34.045 27.3623 34.1315 25.6702 33.8034 24.0343" stroke="#3D0F9A" stroke-width="2" stroke-linecap="round" stroke-linejoin="round"/>
</svg>
