<svg width="48" height="48" viewBox="0 0 48 48" fill="none" xmlns="http://www.w3.org/2000/svg">
<path d="M20 44V14C20 13.4696 19.7893 12.9609 19.4142 12.5858C19.0391 12.2107 18.5304 12 18 12H8C6.93913 12 5.92172 12.4214 5.17157 13.1716C4.42143 13.9217 4 14.9391 4 16V40C4 41.0609 4.42143 42.0783 5.17157 42.8284C5.92172 43.5786 6.93913 44 8 44H32C33.0609 44 34.0783 43.5786 34.8284 42.8284C35.5786 42.0783 36 41.0609 36 40V30C36 29.4696 35.7893 28.9609 35.4142 28.5858C35.0391 28.2107 34.5304 28 34 28H4" stroke="#3D0F9A" stroke-width="2" stroke-linecap="round" stroke-linejoin="round"/>
<path d="M42 4H30C28.8954 4 28 4.89543 28 6V18C28 19.1046 28.8954 20 30 20H42C43.1046 20 44 19.1046 44 18V6C44 4.89543 43.1046 4 42 4Z" stroke="#FF5A00" stroke-width="2" stroke-linecap="round" stroke-linejoin="round"/>
</svg>
