<svg width="48" height="48" viewBox="0 0 48 48" fill="none" xmlns="http://www.w3.org/2000/svg">
<path d="M21.7035 29.5439L20.9375 31.3899" stroke="#FF5A00" stroke-width="2" stroke-linecap="round" stroke-linejoin="round"/>
<path d="M26.2955 29.5439C27.0235 29.2423 27.6851 28.8004 28.2423 28.2432C28.7996 27.686 29.2416 27.0246 29.5432 26.2965C29.8448 25.5685 30.0001 24.7882 30.0001 24.0002C30.0002 23.2122 29.845 22.4319 29.5435 21.7039C29.242 20.9758 28.8 20.3143 28.2428 19.757C27.6857 19.1998 27.0242 18.7578 26.2962 18.4561C25.5682 18.1545 24.7879 17.9993 23.9999 17.9992C23.2119 17.9992 22.4315 18.1543 21.7035 18.4559L20.9375 16.6099" stroke="#FF5A00" stroke-width="2" stroke-linecap="round" stroke-linejoin="round"/>
<path d="M26.2969 18.4559L27.0629 16.6099" stroke="#FF5A00" stroke-width="2" stroke-linecap="round" stroke-linejoin="round"/>
<path d="M27.0606 31.3921L26.2966 29.5441C25.5686 29.8456 24.7883 30.0007 24.0003 30.0007C23.2122 30.0006 22.432 29.8454 21.7039 29.5438C20.9759 29.2422 20.3145 28.8001 19.7573 28.2429C19.2001 27.6856 18.7581 27.0241 18.4566 26.2961C18.1551 25.568 18 24.7877 18 23.9997C18 23.2117 18.1553 22.4314 18.4569 21.7034C18.7585 20.9754 19.2006 20.3139 19.7578 19.7567C20.315 19.1995 20.9766 18.7576 21.7046 18.4561" stroke="#FF5A00" stroke-width="2" stroke-linecap="round" stroke-linejoin="round"/>
<path d="M29.543 21.704L31.389 20.938" stroke="#FF5A00" stroke-width="2" stroke-linecap="round" stroke-linejoin="round"/>
<path d="M29.543 26.2959L31.389 27.0619" stroke="#FF5A00" stroke-width="2" stroke-linecap="round" stroke-linejoin="round"/>
<path d="M9 20H8C6.93913 20 5.92172 19.5786 5.17157 18.8284C4.42143 18.0783 4 17.0609 4 16V8C4 6.93913 4.42143 5.92172 5.17157 5.17157C5.92172 4.42143 6.93913 4 8 4H40C41.0609 4 42.0783 4.42143 42.8284 5.17157C43.5786 5.92172 44 6.93913 44 8V16C44 17.0609 43.5786 18.0783 42.8284 18.8284C42.0783 19.5786 41.0609 20 40 20H39" stroke="#3D0F9A" stroke-width="2" stroke-linecap="round" stroke-linejoin="round"/>
<path d="M9 28H8C6.93913 28 5.92172 28.4214 5.17157 29.1716C4.42143 29.9217 4 30.9391 4 32V40C4 41.0609 4.42143 42.0783 5.17157 42.8284C5.92172 43.5786 6.93913 44 8 44H40C41.0609 44 42.0783 43.5786 42.8284 42.8284C43.5786 42.0783 44 41.0609 44 40V32C44 30.9391 43.5786 29.9217 42.8284 29.1716C42.0783 28.4214 41.0609 28 40 28H39" stroke="#3D0F9A" stroke-width="2" stroke-linecap="round" stroke-linejoin="round"/>
<path d="M12 36H12.02" stroke="#FF5A00" stroke-width="2" stroke-linecap="round" stroke-linejoin="round"/>
<path d="M12 12H12.02" stroke="#FF5A00" stroke-width="2" stroke-linecap="round" stroke-linejoin="round"/>
<path d="M18.4554 21.704L16.6094 20.938" stroke="#FF5A00" stroke-width="2" stroke-linecap="round" stroke-linejoin="round"/>
<path d="M18.4554 26.2959L16.6094 27.0619" stroke="#FF5A00" stroke-width="2" stroke-linecap="round" stroke-linejoin="round"/>
</svg>
