<svg width="100" height="34" viewBox="0 0 100 34" fill="none" xmlns="http://www.w3.org/2000/svg">
<g clip-path="url(#clip0_60_1512)">
<path fill-rule="evenodd" clip-rule="evenodd" d="M45.2728 16.3006C45.3612 16.3109 45.4128 16.3222 45.4645 16.3223C46.7746 16.3229 48.0848 16.3257 49.3949 16.3197C49.7394 16.3182 50.0831 16.2745 50.413 16.1723C51.4672 15.8459 52.1597 15.1653 52.4333 14.0922C52.5448 13.6547 52.5597 13.2117 52.4796 12.7635C52.3049 11.7869 51.7784 11.0783 50.8728 10.6561C50.436 10.4524 49.9705 10.351 49.489 10.3486C48.1524 10.3419 46.8158 10.3436 45.4792 10.3451C45.4056 10.3452 45.3321 10.3729 45.2422 10.3911C45.2422 12.314 45.242 14.2183 45.2432 16.1227C45.2433 16.1727 45.2594 16.2228 45.2728 16.3006M43.2964 8.60547H43.6614C45.6612 8.6059 47.6609 8.60521 49.6607 8.60738C50.3554 8.60816 51.0328 8.71795 51.6799 8.97338C53.2321 9.58606 54.1661 10.7113 54.4704 12.3419C54.6222 13.1549 54.6036 13.9701 54.3629 14.763C53.8676 16.3954 52.7419 17.3663 51.09 17.761C50.9104 17.8039 50.7268 17.8304 50.5282 17.8676C50.5079 18.0112 50.6181 18.1007 50.6852 18.2017C51.5814 19.5518 52.481 20.8996 53.3797 22.2481C53.7377 22.7853 54.0962 23.3222 54.4533 23.86C54.5178 23.9572 54.5767 24.0581 54.656 24.1861C54.5878 24.2059 54.5437 24.2298 54.4996 24.2299C53.8111 24.2323 53.1226 24.2316 52.4453 24.2316C52.2969 24.1496 52.2431 24.0087 52.1662 23.8892C50.9899 22.0615 49.8159 20.2323 48.6409 18.4037C48.5631 18.2826 48.4816 18.1639 48.4114 18.0584C48.0438 18.0072 45.6321 18.0082 45.2789 18.0592C45.2123 18.184 45.2401 18.3304 45.2398 18.4698C45.2375 19.9426 45.2383 21.4154 45.2382 22.8882C45.2382 23.2301 45.2395 23.572 45.2375 23.9139C45.237 24.0035 45.2267 24.0931 45.2212 24.177C44.9322 24.2452 43.9314 24.2612 43.331 24.209C43.3163 24.1427 43.2926 24.0706 43.2859 23.9969C43.2775 23.9056 43.283 23.813 43.283 23.721C43.283 18.8555 43.2828 13.99 43.2834 9.12461C43.2835 8.96879 43.291 8.813 43.2964 8.60547" fill="#7F66F5"/>
<path fill-rule="evenodd" clip-rule="evenodd" d="M58.0912 17.7903C58.203 17.8595 58.3249 17.8352 58.4411 17.8357C58.9836 17.8382 59.5261 17.8368 60.0687 17.8368C61.736 17.8368 63.4033 17.838 65.0707 17.8347C65.2112 17.8345 65.361 17.8756 65.5 17.7815C65.5373 17.3813 65.4471 16.9976 65.3191 16.6251C64.9191 15.4611 64.1713 14.6322 62.9635 14.256C62.5935 14.1408 62.2132 14.0979 61.8287 14.094C60.8922 14.0844 60.0539 14.3525 59.3599 14.9951C58.6341 15.667 58.2376 16.5095 58.0933 17.4754C58.078 17.5773 58.0912 17.6833 58.0912 17.7903M67.2565 19.1481C65.6939 19.1481 64.1726 19.1481 62.6512 19.1481C61.145 19.1481 59.6388 19.1479 58.1175 19.1482C58.107 19.2392 58.0917 19.2893 58.097 19.3373C58.2313 20.5577 58.7386 21.5778 59.7448 22.322C60.3456 22.7663 61.0334 22.9933 61.774 23.0409C63.1724 23.1307 64.4136 22.7321 65.4756 21.8119C65.5434 21.7532 65.6154 21.6993 65.7075 21.6255C65.9826 21.998 66.2474 22.3564 66.5272 22.7352C66.4586 22.8101 66.4044 22.8806 66.3389 22.9387C65.4573 23.7206 64.4319 24.2066 63.2664 24.4C62.2612 24.5668 61.2583 24.5604 60.2753 24.2795C58.5344 23.7823 57.2975 22.7004 56.6475 21.0184C55.988 19.3118 56.0038 17.5897 56.7609 15.9138C57.4654 14.3543 58.6487 13.3006 60.3229 12.8355C61.4787 12.5145 62.633 12.5627 63.7596 12.9658C65.0567 13.4298 65.9784 14.3203 66.586 15.5372C66.9666 16.2995 67.1766 17.1112 67.2435 17.9585C67.2663 18.2467 67.2751 18.536 67.2843 18.8251C67.2871 18.9141 67.2697 19.0038 67.2565 19.1481" fill="#7F66F5"/>
<path fill-rule="evenodd" clip-rule="evenodd" d="M77.2781 20.7938C77.2781 20.4913 77.2734 20.1888 77.2801 19.8864C77.2833 19.7455 77.2378 19.6343 77.1456 19.5298C76.8803 19.2293 76.569 18.988 76.2144 18.8021C75.455 18.404 74.642 18.2635 73.7925 18.3338C73.4222 18.3644 73.065 18.4618 72.7249 18.6204C71.5438 19.1714 71.0991 20.4137 71.4557 21.5282C71.7278 22.3786 72.3375 22.9014 73.1822 23.1193C74.4449 23.4451 75.6241 23.2174 76.6838 22.451C76.8532 22.3285 76.9931 22.1652 77.1436 22.0176C77.2422 21.9208 77.2834 21.803 77.28 21.6617C77.2731 21.3726 77.278 21.0831 77.2781 20.7938M79.029 24.2082C78.5289 24.2571 77.6214 24.2482 77.3009 24.1932C77.2544 24.0086 77.2833 23.812 77.2783 23.6186C77.2735 23.4369 77.2772 23.255 77.2772 23.0841C77.1691 23.0391 77.1301 23.1047 77.0858 23.147C75.8906 24.2841 74.4476 24.6545 72.8421 24.4614C72.0505 24.3662 71.3453 24.0336 70.7416 23.5082C70.0872 22.9387 69.7 22.2184 69.5832 21.3671C69.5023 20.7776 69.5275 20.1874 69.7016 19.6093C69.9691 18.7214 70.511 18.0524 71.321 17.5997C71.9434 17.2518 72.617 17.0774 73.3305 17.0534C74.0655 17.0287 74.7833 17.1203 75.478 17.3668C76.0463 17.5685 76.5539 17.8698 76.9932 18.2823C77.0508 18.3364 77.1088 18.3902 77.1674 18.4431C77.1769 18.4516 77.191 18.4549 77.2041 18.4611C77.2971 18.4427 77.2754 18.3663 77.2756 18.3076C77.277 17.7028 77.286 17.0977 77.273 16.4932C77.2534 15.5812 76.8194 14.9225 76.0011 14.5103C75.7148 14.3661 75.411 14.2691 75.0962 14.227C73.6677 14.036 72.3891 14.3609 71.31 15.3439C71.1845 15.4582 71.0617 15.5754 70.9388 15.6902C70.7204 15.4866 70.3207 14.9151 70.115 14.5132C70.1595 14.4618 70.2054 14.3995 70.2603 14.3464C71.243 13.3959 72.412 12.8439 73.7799 12.6941C74.6458 12.5992 75.4996 12.6326 76.3386 12.8641C76.6425 12.9481 76.9454 13.0576 77.2253 13.2007C78.1533 13.6749 78.7141 14.4366 78.9427 15.4455C79.0277 15.8207 79.0407 16.2008 79.0408 16.5824C79.0412 17.871 79.041 19.1596 79.0411 20.4481C79.0411 21.5526 79.0415 22.6571 79.0406 23.7616C79.0404 23.9038 79.0334 24.046 79.029 24.2082" fill="#7F66F5"/>
<path fill-rule="evenodd" clip-rule="evenodd" d="M91.7977 14.6084C91.3976 14.9674 91.0278 15.2993 90.6393 15.6478C90.5681 15.5722 90.513 15.5196 90.4646 15.4615C89.5874 14.4097 88.4427 14.0821 87.1202 14.2535C86.2782 14.3625 85.5521 14.715 84.9625 15.3272C84.5732 15.7314 84.2807 16.1986 84.0951 16.7273C83.661 17.9642 83.6552 19.2067 84.1076 20.4357C84.4935 21.4841 85.1894 22.2636 86.2539 22.6808C86.9878 22.9685 87.7468 23.0251 88.5168 22.8688C89.2261 22.7249 89.8194 22.3682 90.3097 21.8411C90.3636 21.7832 90.4145 21.7226 90.4676 21.6639C90.5111 21.6159 90.5558 21.5689 90.6111 21.5096C90.7842 21.5741 90.8842 21.7188 91.0104 21.8272C91.1406 21.9389 91.2639 22.0584 91.3904 22.1744C91.5163 22.2898 91.6423 22.4051 91.7807 22.5317C91.7237 22.6196 91.6828 22.7004 91.6259 22.7677C90.7469 23.8073 89.6238 24.3714 88.262 24.4867C87.4747 24.5534 86.6993 24.5088 85.9424 24.2841C84.4276 23.8343 83.2974 22.9025 82.616 21.4927C81.7118 19.6217 81.6752 17.6977 82.5407 15.8105C83.3712 13.9998 84.8323 12.97 86.8246 12.6965C87.7585 12.5683 88.6735 12.644 89.5662 12.9463C90.4715 13.253 91.1848 13.8178 91.7977 14.6084" fill="#7F66F5"/>
<path fill-rule="evenodd" clip-rule="evenodd" d="M96.4601 12.9161C96.7601 12.9197 97.0092 12.9238 97.2583 12.9254C97.4967 12.9269 97.7351 12.9235 97.9734 12.9263C98.2215 12.9293 98.4712 12.9109 98.711 12.9428C98.7766 13.2764 98.7815 14.0411 98.7228 14.4245C98.5512 14.4879 98.3652 14.4491 98.1841 14.4558C97.999 14.4627 97.8134 14.4573 97.628 14.4573H97.0719H96.5049C96.4845 14.5542 96.4568 14.6276 96.4555 14.7015C96.4502 15.0038 96.4527 15.3063 96.4526 15.6086C96.4526 17.502 96.4509 19.3952 96.455 21.2886C96.4556 21.511 96.4782 21.7347 96.5099 21.955C96.5283 22.083 96.5726 22.2113 96.6273 22.3294C96.8245 22.7552 97.2142 22.9791 97.6869 22.9406C98.0081 22.9144 98.3109 22.8268 98.5778 22.6385C98.6419 22.5933 98.7078 22.5505 98.7951 22.4916C98.9887 22.9099 99.1327 23.3303 99.3043 23.7601C99.239 23.8269 99.1833 23.8982 99.1139 23.9521C98.904 24.1149 98.6725 24.2404 98.419 24.3251C97.7081 24.5627 96.9874 24.5788 96.2682 24.386C95.5827 24.2024 95.1055 23.7669 94.8697 23.1013C94.7742 22.8317 94.7258 22.542 94.6878 22.2572C94.6566 22.0241 94.6686 21.7848 94.6685 21.5482C94.6674 19.3656 94.6679 17.183 94.6679 15.0005V14.5067C94.5628 14.4882 94.4766 14.4607 94.3901 14.4597C93.9664 14.455 93.5426 14.4587 93.1189 14.4563C93.0168 14.4557 92.9146 14.4429 92.819 14.4361C92.7577 14.0733 92.7584 13.3004 92.8204 12.9485C93.4134 12.8836 94.02 12.9679 94.6422 12.8995C94.6516 12.767 94.6664 12.6524 94.6667 12.5378C94.6689 11.7883 94.6679 11.0389 94.6679 10.2895V9.88656C94.9715 9.78323 95.2625 9.84101 95.5466 9.83476C95.8335 9.82852 96.1232 9.8111 96.4283 9.85496C96.4768 10.3736 96.4448 10.8708 96.4517 11.3666C96.4586 11.8644 96.4465 12.3625 96.4601 12.9161" fill="#7F66F5"/>
<mask id="mask0_60_1512" style="mask-type:luminance" maskUnits="userSpaceOnUse" x="0" y="0" width="38" height="34">
<path fill-rule="evenodd" clip-rule="evenodd" d="M0 0H37.5119V33.1214H0V0Z" fill="white"/>
</mask>
<g mask="url(#mask0_60_1512)">
<path fill-rule="evenodd" clip-rule="evenodd" d="M11.0934 14.6663C11.7501 13.432 12.4172 12.257 13.1461 11.1179C13.1672 11.0848 13.1873 11.0504 13.2015 11.0141C13.2106 10.991 13.2078 10.9632 13.2131 10.9102C12.1111 11.0427 11.0245 11.221 9.9495 11.47C9.94496 11.5319 9.93095 11.5729 9.94112 11.6067C10.2215 12.537 10.5658 13.4445 10.9373 14.3421C10.9765 14.4368 11.0261 14.5273 11.0934 14.6663M26.4618 14.5904C26.7239 14.2125 27.5327 12.0611 27.621 11.4841C26.5366 11.2367 25.4413 11.0444 24.3281 10.9141C24.3319 10.9669 24.3248 10.9982 24.3369 11.0176C25.0589 12.1777 25.7433 13.3594 26.4007 14.5565C26.4102 14.5737 26.4409 14.5794 26.4618 14.5904M20.8666 8.9931C20.8742 8.96918 20.8957 8.9381 20.8875 8.92245C20.6959 8.55866 19.1341 6.7125 18.7746 6.42188C18.744 6.44281 18.7066 6.4598 18.6808 6.48741C17.9687 7.25011 17.2989 8.04809 16.6695 8.87932C16.6504 8.90455 16.656 8.9482 16.6484 8.99306C18.0633 8.99306 19.4649 8.99306 20.8666 8.9931M16.6328 24.1211C16.6792 24.2155 16.6899 24.253 16.7126 24.281C17.1356 24.8019 17.5547 25.3262 17.9863 25.8399C18.24 26.1419 18.5142 26.4269 18.7796 26.719C18.7881 26.7283 18.8013 26.7355 18.8136 26.7387C18.8252 26.7416 18.8385 26.7379 18.8897 26.7347C19.5405 26.0304 20.1612 25.2662 20.7574 24.4818C20.8339 24.3811 20.9009 24.2732 20.9671 24.1761C20.9389 24.1445 20.9307 24.1274 20.9228 24.1276C19.5114 24.1584 18.0999 24.1759 16.6328 24.1211M13.2675 22.2381C13.2388 22.1731 13.2206 22.1113 13.1871 22.059C12.4775 20.9514 11.8146 19.8171 11.2006 18.6545C11.1751 18.6061 11.1598 18.5287 11.0491 18.5452C10.9477 18.7907 10.8404 19.0434 10.7389 19.2984C10.6321 19.5668 10.5281 19.8362 10.4281 20.1071C10.3327 20.3656 10.2382 20.6248 10.1542 20.8871C10.068 21.1565 9.93637 21.415 9.91406 21.6985C10.4076 21.8819 12.7184 22.2531 13.2675 22.2381M24.3374 22.2084C24.38 22.2166 24.4057 22.2281 24.4297 22.2253C25.4667 22.1033 26.4948 21.9284 27.5149 21.7075C27.585 21.6924 27.6482 21.6458 27.7093 21.6164C27.5723 21.0043 26.7659 18.9797 26.5435 18.5399C26.5306 18.5143 26.4838 18.5056 26.466 18.4961C25.7495 19.7191 25.0392 20.9314 24.3298 22.1444C24.3247 22.1532 24.3323 22.1694 24.3374 22.2084M29.2864 21.2149C29.3522 21.2204 29.3666 21.2256 29.3783 21.2221C30.7659 20.8133 32.099 20.2779 33.3419 19.5348C33.8305 19.2427 34.2938 18.9154 34.7181 18.5356C35.024 18.2617 35.3075 17.9667 35.5304 17.6214C36.0535 16.8112 36.0527 16.2298 35.5078 15.4303C35.2688 15.0796 34.9696 14.782 34.6467 14.5072C34.1114 14.0517 33.5218 13.6767 32.9036 13.3438C31.7939 12.7465 30.6207 12.3054 29.4139 11.9477C29.3553 11.9303 29.2898 11.9355 29.2209 11.9297C29.195 11.9955 29.1745 12.0427 29.1575 12.0912C28.9836 12.5872 28.8152 13.0853 28.6355 13.5794C28.2983 14.5065 27.9106 15.4135 27.4964 16.309C27.4246 16.4641 27.3937 16.603 27.4918 16.7536C27.5203 16.7973 27.5372 16.8484 27.5595 16.8961C28.1717 18.2083 28.723 19.5446 29.1795 20.9186C29.2121 21.0167 29.2496 21.1132 29.2864 21.2149M23.0682 9.15569C23.2502 9.18144 23.3935 9.20736 23.538 9.22123C24.988 9.36028 26.4225 9.59569 27.8458 9.90153C27.9196 9.91735 27.9963 9.91956 28.0623 9.92706C28.0881 9.88588 28.109 9.86543 28.1148 9.84137C28.5045 8.23596 28.7137 6.61134 28.6078 4.95777C28.5666 4.31414 28.457 3.67948 28.2297 3.07014C28.1234 2.78532 27.9899 2.51519 27.8121 2.26726C27.4984 1.83004 27.0678 1.61114 26.5315 1.58527C26.1711 1.56784 25.8195 1.62254 25.4711 1.70702C24.6662 1.90221 23.9294 2.25473 23.2202 2.66954C22.0621 3.34698 21.0255 4.1812 20.0539 5.09851C20.0087 5.14121 19.9768 5.19769 19.9297 5.2595C21.0682 6.49206 22.1005 7.79046 23.0682 9.15569M14.4387 9.16234C14.9733 8.47073 15.4687 7.80386 15.9923 7.15949C16.5223 6.50728 17.0801 5.87735 17.6266 5.23667C17.5974 5.19683 17.5785 5.16059 17.5504 5.13424C16.4177 4.07428 15.1997 3.12975 13.8127 2.41438C13.2944 2.14712 12.7583 1.92337 12.193 1.77335C11.7293 1.6503 11.2603 1.58784 10.7781 1.63907C10.3153 1.68822 9.95129 1.89689 9.67461 2.26437C9.4742 2.53055 9.3342 2.82733 9.2265 3.13981C9.04525 3.66554 8.94746 4.20874 8.90765 4.7613C8.78629 6.44456 9.01426 8.09423 9.40858 9.72652C9.42539 9.79609 9.47603 9.85768 9.51135 9.92378C11.1504 9.56224 12.7869 9.32545 14.4387 9.16234M19.9766 27.9118C20.0242 27.9752 20.0437 28.0104 20.0716 28.0368C21.0976 29.0132 22.2004 29.8898 23.442 30.585C23.9615 30.8759 24.5008 31.124 25.0703 31.3036C25.5399 31.4517 26.0182 31.536 26.5144 31.5214C27.1182 31.5035 27.5758 31.2418 27.9071 30.7461C28.1214 30.4255 28.272 30.0764 28.3822 29.71C28.6034 28.9746 28.6907 28.2197 28.705 27.4545C28.7311 26.066 28.5305 24.7044 28.2138 23.3565C28.2027 23.3092 28.1697 23.267 28.143 23.2148C28.08 23.2199 28.0273 23.2178 27.9775 23.2289C26.6989 23.5149 25.4077 23.724 24.1041 23.8589C23.841 23.8861 23.5781 23.9158 23.3145 23.9384C23.1735 23.9504 23.0604 23.9988 22.9847 24.1234C22.9438 24.1908 22.8955 24.2538 22.8497 24.3182C22.1096 25.3606 21.3272 26.3705 20.4862 27.335C20.3219 27.5235 20.1551 27.7099 19.9766 27.9118M9.44816 23.3016C9.42485 23.3749 9.4018 23.4354 9.38639 23.4976C9.09146 24.6881 8.90322 25.8945 8.86533 27.1205C8.838 28.0041 8.90012 28.8812 9.14777 29.7368C9.25809 30.1179 9.41114 30.4804 9.64251 30.8064C9.95236 31.2431 10.3754 31.4756 10.9136 31.5069C11.3537 31.5324 11.7851 31.4878 12.2116 31.3783C12.9603 31.1862 13.658 30.8744 14.329 30.4989C15.4891 29.8495 16.5285 29.0396 17.4996 28.1398C17.5653 28.079 17.619 28.0056 17.6962 27.9176C16.5362 26.6703 15.4816 25.3585 14.4982 23.9919C14.1359 23.9579 13.7933 23.9295 13.4517 23.8925C13.1228 23.857 12.7946 23.8148 12.4666 23.7715C12.1257 23.7263 11.785 23.68 11.4452 23.6273C11.1184 23.5767 10.7945 23.506 10.4667 23.4652C10.1292 23.4233 9.80564 23.2888 9.44816 23.3016M8.30779 21.3385C8.83291 19.67 9.46096 18.097 10.1532 16.577C10.1217 16.4937 10.106 16.4432 10.084 16.3954C9.44066 14.995 8.87425 13.5651 8.40767 12.0966C8.38519 12.0257 8.33673 11.963 8.295 11.8867C7.8926 11.9792 7.51774 12.1072 7.14279 12.2338C6.06209 12.5986 5.01985 13.0478 4.04444 13.6412C3.48929 13.9789 2.9664 14.3586 2.50917 14.8219C2.22969 15.105 1.98619 15.4141 1.80503 15.7705C1.55532 16.2618 1.53965 16.7577 1.78678 17.2484C1.90447 17.4821 2.04608 17.7079 2.20512 17.9159C2.36441 18.1243 2.55073 18.3145 2.7397 18.498C3.16769 18.9136 3.65177 19.2586 4.15934 19.5714C5.19957 20.2124 6.31323 20.6953 7.47186 21.0799C7.73356 21.1667 7.99881 21.2433 8.30779 21.3385M25.608 16.5605C25.5835 16.5002 25.5676 16.4504 25.5439 16.4046C25.3265 15.9835 25.1129 15.5603 24.8884 15.1429C24.1143 13.7039 23.276 12.3029 22.3704 10.9413C22.2494 10.7595 22.1196 10.6657 21.8922 10.6602C21.164 10.6427 20.4367 10.5919 19.7085 10.5773C18.344 10.5499 16.98 10.5726 15.6175 10.6627C15.4437 10.6742 15.3086 10.7163 15.2256 10.8752C15.2074 10.9101 15.1827 10.9416 15.1606 10.9744C14.0067 12.6795 12.9784 14.4564 12.0724 16.3032C12.0269 16.3959 11.9903 16.4929 11.9531 16.5796C12.0118 16.7044 12.0599 16.8125 12.1125 16.9183C13.0046 18.713 14.0095 20.4429 15.1355 22.103C15.3868 22.4734 15.3081 22.4593 15.7994 22.4851C17.7324 22.5866 19.6655 22.5937 21.5985 22.4839C21.8081 22.472 22.0168 22.4435 22.2196 22.4234C23.4828 20.5244 24.6183 18.5833 25.608 16.5605M7.88034 10.3187C7.86471 10.2154 7.85807 10.1257 7.83703 10.0395C7.60287 9.07971 7.43039 8.109 7.33994 7.12581C7.22744 5.90309 7.22504 4.68232 7.47889 3.47269C7.59554 2.91692 7.7688 2.37966 8.03636 1.87568C8.22276 1.52463 8.44963 1.20236 8.73609 0.923306C9.22563 0.446381 9.81452 0.175908 10.4898 0.0731365C11.2672 -0.0451954 12.0204 0.0728331 12.7651 0.284183C13.5975 0.520501 14.3744 0.884295 15.1215 1.31354C16.2849 1.98184 17.3422 2.79178 18.3364 3.68634C18.4821 3.81741 18.6138 3.96669 18.8003 4.07592C18.9026 3.98355 19.0002 3.89743 19.0956 3.80887C20.0073 2.9626 20.9742 2.18582 22.0323 1.52572C22.9326 0.964007 23.8756 0.495014 24.9055 0.206509C25.5258 0.0327823 26.1553 -0.0326687 26.7921 0.0152275C27.5282 0.0706658 28.1748 0.352062 28.7086 0.870035C29.0833 1.2337 29.3628 1.66156 29.5774 2.13315C29.8743 2.78567 30.0463 3.47286 30.1371 4.18056C30.3041 5.48095 30.2555 6.77822 30.08 8.07454C29.9865 8.76594 29.8543 9.44949 29.7008 10.1296C29.6868 10.1915 29.6772 10.2544 29.6671 10.3083C29.7907 10.4377 29.9453 10.4427 30.08 10.4835C31.031 10.7712 31.9601 11.1159 32.859 11.5375C33.8078 11.9824 34.7123 12.5009 35.5269 13.1636C35.9795 13.5317 36.3939 13.937 36.741 14.4069C36.9692 14.7159 37.1581 15.0459 37.2992 15.4035C37.5872 16.1335 37.5909 16.8645 37.3236 17.6005C37.1369 18.1145 36.8488 18.568 36.4993 18.9858C36.0562 19.5154 35.5372 19.963 34.9763 20.3645C33.9055 21.1308 32.7327 21.7064 31.5064 22.178C31.0502 22.3534 30.583 22.5005 30.1209 22.6609C29.9985 22.7034 29.8765 22.7471 29.7374 22.7962C29.7796 22.9957 29.8155 23.1742 29.8551 23.3518C30.1882 24.8482 30.3634 26.3599 30.2903 27.894C30.2489 28.7644 30.1153 29.6198 29.823 30.446C29.6552 30.9202 29.4372 31.3685 29.1351 31.7737C28.5607 32.5439 27.7999 32.9833 26.8344 33.0943C26.0377 33.1858 25.2785 33.0356 24.5303 32.8004C23.5512 32.4927 22.6557 32.0113 21.7991 31.4555C20.8761 30.8568 20.0234 30.1695 19.2152 29.4264C19.0997 29.3202 18.9836 29.2147 18.8495 29.0923C18.7656 29.159 18.6926 29.2095 18.6282 29.2693C17.7948 30.044 16.9123 30.7571 15.955 31.3766C15.0419 31.9676 14.0844 32.4694 13.0407 32.7963C12.2759 33.0359 11.4977 33.1648 10.6924 33.0852C9.83722 33.0006 9.11898 32.6519 8.55344 32.0041C8.11144 31.4979 7.8314 30.9065 7.63325 30.2725C7.36391 29.4105 7.26743 28.5224 7.2549 27.6257C7.24067 26.6107 7.33911 25.6025 7.51844 24.6037C7.60903 24.0993 7.72506 23.5994 7.82904 23.0975C7.84196 23.035 7.8517 22.972 7.86266 22.9108C7.73584 22.796 7.58427 22.7865 7.44943 22.7452C6.4611 22.4422 5.49966 22.0718 4.57275 21.6159C3.64405 21.1592 2.76429 20.6249 1.97349 19.9548C1.48767 19.5431 1.05043 19.087 0.694165 18.5578C0.427001 18.161 0.222394 17.7355 0.102651 17.2725C-0.0755454 16.5836 0.00473463 15.9158 0.28172 15.2664C0.544169 14.6512 0.944434 14.1309 1.41572 13.6615C1.94224 13.137 2.53689 12.6985 3.17001 12.31C4.24526 11.6503 5.39476 11.1492 6.58734 10.742C6.92505 10.6268 7.26813 10.5269 7.60815 10.4182C7.69415 10.3907 7.77792 10.3564 7.88034 10.3187" fill="#7F66F5"/>
</g>
<path fill-rule="evenodd" clip-rule="evenodd" d="M22.097 16.5221C22.1311 18.1999 20.7485 19.8387 18.7776 19.8527C16.7858 19.8668 15.401 18.2233 15.3984 16.5344C15.396 14.8721 16.733 13.1945 18.7647 13.2032C20.7912 13.2117 22.1244 14.8853 22.097 16.5221" fill="#7F66F5"/>
</g>
<defs>
<clipPath id="clip0_60_1512">
<rect width="100" height="34" fill="white"/>
</clipPath>
</defs>
</svg>
