<svg width="49" height="25" viewBox="0 0 49 25" fill="none" xmlns="http://www.w3.org/2000/svg">
<g clip-path="url(#clip0_60_1587)">
<path fill-rule="evenodd" clip-rule="evenodd" d="M44.8233 12.6125C44.781 12.5239 44.7619 12.4792 44.7389 12.4364C44.1249 11.2915 43.5125 10.1457 42.893 9.00362C42.8305 8.88888 42.8382 8.82061 42.9238 8.72261C43.9002 7.60367 44.8716 6.48025 45.8441 5.35789C45.8782 5.31854 45.909 5.27645 45.9221 5.20645C45.6377 5.27936 45.3533 5.35137 45.0692 5.42523C43.8893 5.7319 42.7091 6.03764 41.5303 6.3485C41.4203 6.37743 41.3705 6.34588 41.3159 6.25655C40.6459 5.1588 39.9722 4.06338 39.2992 2.96748C39.2643 2.91052 39.2269 2.85526 39.1529 2.80741C39.0987 3.09986 39.0437 3.39215 38.9907 3.68473C38.8031 4.71757 38.6163 5.75079 38.4294 6.78382C38.4091 6.89527 38.381 7.00627 38.3713 7.11865C38.3619 7.22531 38.3062 7.26465 38.2078 7.29498C36.8173 7.72317 35.4281 8.15558 34.0389 8.58748C33.9779 8.60637 33.9184 8.63082 33.8529 8.68918C34.9894 9.13223 36.1258 9.57528 37.2798 10.0251C37.2379 10.0578 37.2106 10.083 37.1798 10.1026C36.4693 10.5536 35.7576 11.0027 35.0489 11.456C34.9641 11.5102 34.8967 11.5178 34.8014 11.4758C33.9528 11.1009 33.1009 10.7331 32.251 10.3608C31.8693 10.1936 31.5261 9.97157 31.2587 9.6509C30.6544 8.92573 30.7737 8.10077 31.5789 7.59686C31.8425 7.432 32.1416 7.30831 32.44 7.21281C33.8019 6.77762 35.169 6.35796 36.5354 5.93687C36.6498 5.90171 36.703 5.8514 36.7243 5.72973C36.9063 4.69577 37.0952 3.66287 37.285 2.63047C37.3867 2.07843 37.4407 1.51214 37.7146 1.00622C37.8198 0.811795 37.9459 0.621208 38.0958 0.458204C38.6381 -0.132223 39.3951 -0.155139 39.9687 0.407417C40.1622 0.597205 40.3287 0.821224 40.4724 1.05096C41.1044 2.0614 41.7259 3.07832 42.3441 4.09697C42.4171 4.2174 42.4831 4.24172 42.6184 4.20609C44.142 3.80545 45.6672 3.41101 47.1924 3.01577C47.507 2.93433 47.8251 2.90432 48.148 2.96361C48.8509 3.0927 49.1582 3.61767 48.9204 4.28366C48.8121 4.58723 48.6254 4.84346 48.4154 5.08557C47.3512 6.31319 46.2887 7.54221 45.2209 8.76675C45.1336 8.86676 45.1317 8.93918 45.1921 9.05095C45.8291 10.2287 46.4606 11.4093 47.0944 12.5888C47.246 12.8712 47.3618 13.164 47.3652 13.4882C47.3728 14.2255 46.8231 14.8289 46.0761 14.9363C45.6577 14.9966 45.269 14.9089 44.877 14.7902C43.9217 14.5005 42.9646 14.2157 42.0071 13.9332C41.9184 13.9072 41.8845 13.8731 41.8689 13.7793C41.7587 13.1184 41.6386 12.4588 41.5224 11.7988C41.5191 11.7807 41.5246 11.7611 41.5275 11.7207C42.6176 12.0156 43.6982 12.3081 44.8233 12.6125" fill="#7F66F5"/>
<path fill-rule="evenodd" clip-rule="evenodd" d="M42.9678 22.2377C42.1062 22.2361 41.2447 22.2323 40.3829 22.2357C40.2693 22.2359 40.2048 22.2034 40.1413 22.1086C39.1213 20.5846 38.0967 19.0636 37.0729 17.542C37.0402 17.4936 37.0055 17.4468 36.9476 17.3654C36.7271 19.0088 36.5117 20.6156 36.2958 22.2264H34.0396C34.0659 22.0107 34.0891 21.8023 34.1169 21.5947C34.3372 19.9446 34.5583 18.2945 34.7794 16.6446C34.9906 15.0681 35.2011 13.4915 35.4154 11.9152C35.4218 11.8682 35.4536 11.8088 35.4928 11.7838C36.2691 11.2873 37.0481 10.7951 37.8271 10.3024C37.8385 10.2952 37.8543 10.2944 37.8945 10.2832C37.6589 12.046 37.425 13.795 37.1911 15.5441C37.2004 15.5503 37.2096 15.5565 37.2189 15.5628C38.4411 14.2339 39.6634 12.905 40.912 11.5476C40.9481 11.7519 40.9794 11.9268 41.01 12.1018C41.0976 12.6029 41.1815 13.1046 41.2753 13.6047C41.2942 13.7055 41.2669 13.7682 41.1984 13.8382C40.408 14.6496 39.6207 15.4637 38.8326 16.2771C38.7982 16.3126 38.7653 16.3494 38.7261 16.3915C38.7512 16.431 38.7727 16.4689 38.7981 16.504C40.1574 18.3755 41.5167 20.2467 42.8772 22.1174C42.9018 22.1513 42.9373 22.1779 42.9678 22.208V22.2377" fill="#7F66F5"/>
<path fill-rule="evenodd" clip-rule="evenodd" d="M10.25 21.6264C10.183 22.1184 10.1191 22.582 10.0569 23.046C9.97426 23.6628 9.89185 24.2797 9.81268 24.8967C9.80342 24.9687 9.78117 25.0005 9.70231 25C9.08256 24.9975 8.46281 24.9981 7.84309 24.9972C7.82899 24.9972 7.81484 24.9896 7.78125 24.9804C7.81875 24.6892 7.85518 24.3971 7.89415 24.1054C8.03088 23.0824 8.16731 22.0593 8.30608 21.0364C8.46477 19.8669 8.59048 18.6918 8.79367 17.5297C9.15356 15.4721 10.9331 13.6989 13.0214 13.2574C14.2321 13.0013 15.3908 13.1198 16.4477 13.788C17.5018 14.4544 18.1064 15.4214 18.2442 16.6379C18.4391 18.3578 17.7938 19.7856 16.5482 20.9668C15.7308 21.7422 14.7521 22.235 13.6233 22.4015C12.4604 22.5736 11.3672 22.3833 10.3863 21.7108C10.3502 21.6862 10.3117 21.6647 10.25 21.6264M16.2193 17.3775C16.1849 17.205 16.1603 16.9518 16.0821 16.7152C15.7044 15.5716 14.5081 14.9446 13.2699 15.2272C11.9116 15.5373 10.941 16.5847 10.8005 17.9442C10.6966 18.9498 11.2487 19.9186 12.2751 20.2823C13.1021 20.5753 13.8983 20.4528 14.6376 20.0179C15.6174 19.4412 16.1489 18.5851 16.2193 17.3775" fill="#7F66F5"/>
<path fill-rule="evenodd" clip-rule="evenodd" d="M9.24389 11.8459C8.54884 12.3535 7.87878 12.8427 7.20582 13.3341C7.09738 13.1662 7.00021 12.999 6.88679 12.8434C6.5948 12.4432 6.23217 12.1442 5.70476 12.1079C5.26612 12.0777 4.89098 12.2195 4.59241 12.5367C4.32535 12.8204 4.29048 13.2237 4.54001 13.5441C4.81473 13.8968 5.11538 14.2314 5.42239 14.5579C5.93132 15.0991 6.46329 15.6195 6.96893 16.1637C7.42905 16.6586 7.79579 17.2141 7.90905 17.8909C8.04375 18.6954 7.88015 19.4617 7.4921 20.1689C6.77408 21.4774 5.64334 22.2367 4.15063 22.4743C3.49142 22.5791 2.83397 22.5582 2.19073 22.3725C1.33706 22.126 0.742886 21.5772 0.360804 20.8022C0.225775 20.5282 0.122516 20.2392 0 19.9455C0.747382 19.5533 1.47339 19.1721 2.21002 18.7854C2.23573 18.8456 2.25368 18.8957 2.27766 18.9427C2.40324 19.1893 2.50608 19.4512 2.66167 19.6782C3.12306 20.3511 3.86832 20.5559 4.62441 20.2232C4.81861 20.1378 5.00567 20.0172 5.16498 19.8786C5.65217 19.4544 5.74354 18.8639 5.3829 18.3301C5.1757 18.0234 4.91652 17.7485 4.66426 17.4737C4.06132 16.8168 3.43385 16.1811 2.84482 15.5124C2.43879 15.0515 2.16293 14.514 2.07564 13.8968C1.98027 13.2228 2.11768 12.5868 2.47525 12.0194C3.36418 10.609 4.65591 9.87532 6.3645 9.93611C7.33853 9.97076 8.11417 10.4175 8.71622 11.1599C8.89439 11.3794 9.06135 11.6078 9.24389 11.8459" fill="#7F66F5"/>
<path fill-rule="evenodd" clip-rule="evenodd" d="M25.7453 19.4206C25.632 20.2701 25.5251 21.0777 25.414 21.8845C25.4083 21.9253 25.3756 21.9809 25.3402 21.9972C23.6584 22.7612 21.4438 22.6545 20.0627 21.116C19.3206 20.2895 19.0092 19.3084 19.0558 18.2171C19.1634 15.6906 21.2989 13.4851 23.8527 13.1769C25.3447 12.9968 26.6532 13.3921 27.6641 14.529C28.3525 15.3035 28.671 16.2284 28.624 17.249C28.593 17.9232 28.4852 18.5945 28.3997 19.2656C28.2785 20.2161 28.1461 21.1654 28.0181 22.1152C28.0135 22.1489 28.0066 22.1823 27.9988 22.2252H25.9869C26.0137 22.007 26.0382 21.7933 26.0665 21.5802C26.2121 20.4831 26.3723 19.3879 26.5 18.2889C26.5795 17.6045 26.5295 16.9252 26.2104 16.2913C25.8709 15.6176 25.3018 15.2612 24.5533 15.1833C23.004 15.0225 21.5301 16.0784 21.1997 17.5738C20.9814 18.561 21.3254 19.5072 22.1269 20.0303C22.9081 20.5402 23.7447 20.5418 24.596 20.2112C25.0276 20.0437 25.3954 19.7784 25.7453 19.4206" fill="#7F66F5"/>
<path fill-rule="evenodd" clip-rule="evenodd" d="M34.2209 13.3673C34.1291 14.0515 34.0387 14.7256 33.9462 15.4135C33.5208 15.4135 33.1037 15.4111 32.6867 15.4144C32.3489 15.417 32.0404 15.6309 31.939 15.9405C31.8992 16.0615 31.8845 16.191 31.8675 16.318C31.6559 17.8892 31.4458 19.4604 31.2357 21.0316C31.1827 21.4278 31.1311 21.8242 31.078 22.2264H28.9839C29.023 21.9243 29.06 21.6319 29.0989 21.34C29.2351 20.3216 29.3713 19.3036 29.5093 18.2858C29.6284 17.4049 29.7347 16.5221 29.875 15.6444C30.0631 14.4679 31.2564 13.4232 32.4667 13.3715C33.0442 13.3469 33.6237 13.3673 34.2209 13.3673" fill="#7F66F5"/>
<path fill-rule="evenodd" clip-rule="evenodd" d="M43.8989 21.3278V22.2276H43.7242V21.3278H43.3926V21.189H44.2304V21.3278H43.8989V21.3278ZM45.4378 22.2276V21.3604H45.4328L45.0859 22.2276H44.9752L44.6283 21.3604H44.6231V22.2276H44.4484V21.189H44.7182L45.0342 21.978L45.3453 21.189H45.6127V22.2276H45.4378Z" fill="#7F66F5"/>
<path fill-rule="evenodd" clip-rule="evenodd" d="M12.6528 10.8854H11.789L11.5146 11.4127H10.9028L12.2522 8.93994H12.842L13.3014 11.4127H12.7343L12.6528 10.8854V10.8854ZM12.0505 10.3868H12.5697L12.4473 9.61577L12.0505 10.3868Z" fill="#7F66F5"/>
<path fill-rule="evenodd" clip-rule="evenodd" d="M14.9969 8.93994H15.8053C16.228 8.93994 16.5244 9.18716 16.5244 9.61248C16.5244 10.1471 16.1388 10.507 15.5901 10.507H15.2417L15.0784 11.4127H14.5522L14.9969 8.93994M15.7382 9.4391H15.4305L15.3269 10.0099H15.6344C15.8199 10.0099 15.9682 9.8901 15.9682 9.66452C15.9682 9.51544 15.8753 9.4391 15.7382 9.4391" fill="#7F66F5"/>
<path fill-rule="evenodd" clip-rule="evenodd" d="M18.913 10.8854H18.0492L17.7748 11.4127H17.1631L18.5125 8.93994H19.1021L19.5617 11.4127H18.9946L18.913 10.8854V10.8854ZM18.3165 10.3868H18.8357L18.7133 9.61577L18.3165 10.3868Z" fill="#7F66F5"/>
<path fill-rule="evenodd" clip-rule="evenodd" d="M22.3378 11.3265C22.1599 11.4064 21.9636 11.454 21.767 11.454C21.0998 11.454 20.6807 10.9629 20.6807 10.3483C20.6807 9.56271 21.3554 8.90088 22.1563 8.90088C22.3564 8.90088 22.5382 8.94812 22.6864 9.02815L22.6123 9.6211C22.5011 9.50093 22.323 9.41735 22.1006 9.41735C21.641 9.41735 21.2332 9.82482 21.2332 10.2974C21.2332 10.6573 21.463 10.9376 21.8265 10.9376C22.049 10.9376 22.2638 10.8539 22.4083 10.7376L22.3378 11.3265" fill="#7F66F5"/>
<path fill-rule="evenodd" clip-rule="evenodd" d="M25.5522 10.4162H24.4549L24.2767 11.4127H23.7505L24.1952 8.93994H24.7217L24.5438 9.91803H25.6412L25.8189 8.93994H26.3454L25.9008 11.4127H25.3743L25.5522 10.4162Z" fill="#7F66F5"/>
<path fill-rule="evenodd" clip-rule="evenodd" d="M27.4746 11.4127L27.9192 8.93994H29.317L29.228 9.43794H28.3567L28.268 9.91803H29.0685L28.9798 10.4162H28.1788L28.0898 10.9144H28.9612L28.8721 11.4127H27.4746Z" fill="#7F66F5"/>
</g>
<defs>
<clipPath id="clip0_60_1587">
<rect width="49" height="25" fill="white"/>
</clipPath>
</defs>
</svg>
