<svg width="111" height="32" viewBox="0 0 111 32" fill="none" xmlns="http://www.w3.org/2000/svg">
<g clip-path="url(#clip0_60_1567)">
<path fill-rule="evenodd" clip-rule="evenodd" d="M97.9504 15.4402C97.9332 15.4399 97.916 15.4395 97.8988 15.4392C97.8988 14.9693 97.9132 14.4989 97.8954 14.0296C97.8686 13.3221 97.7829 12.6225 97.5291 11.9529C97.161 10.9818 96.4944 10.3072 95.5187 9.95654C94.706 9.6644 93.866 9.64052 93.0301 9.83074C92.0783 10.0474 91.3252 10.5682 90.8377 11.4267C90.4516 12.1067 90.2852 12.8574 90.2552 13.6299C90.22 14.5408 90.215 15.4535 90.2189 16.3654C90.2225 17.2255 90.2815 18.0811 90.5888 18.8993C90.978 19.9358 91.6968 20.6385 92.7535 20.9543C93.7088 21.2398 94.674 21.2208 95.617 20.8685C96.2541 20.6305 96.7656 20.2246 97.1464 19.6599C97.5606 19.0456 97.7586 18.3513 97.8268 17.6265C97.8951 16.9003 97.9113 16.1692 97.9504 15.4402M97.7041 21.0301C98.0879 21.5716 98.4675 22.1125 98.8539 22.6487C98.9575 22.7926 99.012 22.9421 98.9352 23.1052C98.8546 23.2766 98.6979 23.3088 98.5154 23.3317C98.0613 23.3886 97.763 23.1855 97.522 22.8305C97.2966 22.4986 97.053 22.1791 96.8205 21.8519C96.7605 21.7675 96.7072 21.7326 96.5974 21.7833C96.0501 22.0359 95.4721 22.1733 94.8726 22.2336C94.057 22.3156 93.2484 22.2907 92.4482 22.1043C91.0393 21.7759 90.0487 20.9535 89.5069 19.6046C89.2849 19.052 89.157 18.4753 89.0988 17.8853C88.9655 16.5351 89.0186 15.1803 89.0388 13.8279C89.0526 12.9053 89.2042 11.9995 89.5984 11.1487C89.9063 10.4842 90.3448 9.92847 90.9353 9.4945C91.5188 9.06562 92.1743 8.80049 92.8842 8.67891C93.6008 8.55624 94.3211 8.54739 95.0437 8.65131C95.7403 8.75146 96.3933 8.96424 96.9845 9.35018C98.031 10.0333 98.6265 11.0225 98.886 12.2216C99.1853 13.6054 99.142 15.0118 99.1052 16.4146C99.0906 16.9733 99.0555 17.5339 98.987 18.0884C98.8539 19.1661 98.5134 20.1638 97.7489 20.9752C97.734 20.9909 97.7212 21.009 97.7041 21.0301" fill="#7F66F5"/>
<path fill-rule="evenodd" clip-rule="evenodd" d="M46.4091 16.1776H46.2152C45.2518 16.1776 44.2882 16.1647 43.3251 16.1825C42.7697 16.1928 42.6483 15.9756 42.6842 15.4639C42.705 15.1673 42.8609 15.028 43.1596 15.0274C44.48 15.025 45.8005 15.0249 47.1209 15.0273C47.4737 15.0279 47.6088 15.1694 47.6091 15.5251C47.6095 16.1426 47.6177 16.7605 47.6045 17.3778C47.582 18.4278 47.3264 19.4189 46.724 20.2872C46.0715 21.2278 45.1655 21.8248 44.0502 22.0953C42.9816 22.3543 41.9092 22.3509 40.8446 22.0895C39.8137 21.8364 38.9794 21.2708 38.3604 20.4046C37.8619 19.707 37.5672 18.9229 37.4767 18.074C37.4127 17.4735 37.3809 16.8672 37.3757 16.2633C37.3675 15.3006 37.3708 14.3368 37.4107 13.3752C37.455 12.3076 37.7469 11.3073 38.381 10.4291C39.0695 9.47528 40.0125 8.91959 41.1578 8.70141C42.1589 8.51073 43.1679 8.50279 44.1483 8.78217C45.658 9.21233 46.7971 10.0924 47.3291 11.6292C47.3802 11.777 47.4063 11.9363 47.4221 12.0926C47.4424 12.2927 47.2961 12.457 47.0916 12.4691C46.9109 12.4798 46.7289 12.4769 46.5478 12.4701C46.4183 12.4652 46.3293 12.3931 46.2773 12.2717C46.171 12.0232 46.0811 11.7648 45.9488 11.5308C45.37 10.5065 44.4816 9.94152 43.3205 9.78154C42.5889 9.68075 41.8655 9.69596 41.1516 9.88972C40.0092 10.1998 39.2405 10.9124 38.8667 12.041C38.6662 12.6466 38.59 13.2723 38.588 13.9064C38.5844 15.0276 38.5759 16.149 38.6007 17.2698C38.6165 17.9833 38.7527 18.6802 39.0763 19.3288C39.4893 20.1567 40.1609 20.6771 41.0332 20.9355C42.0396 21.2334 43.0602 21.2346 44.0509 20.8934C45.0286 20.5566 45.7536 19.9172 46.1235 18.9177C46.3022 18.4347 46.3862 17.9364 46.406 17.4273C46.4218 17.0203 46.4091 16.6123 46.4091 16.1776" fill="#7F66F5"/>
<path fill-rule="evenodd" clip-rule="evenodd" d="M68.1618 17.2043C68.1607 17.9517 68.1817 18.6947 68.5001 19.3938C68.8217 20.0997 69.3124 20.6362 70.0337 20.9435C70.6403 21.2021 71.2719 21.2205 71.9131 21.1217C72.4333 21.0415 72.8992 20.8464 73.2784 20.47C73.5597 20.1908 73.7477 19.8518 73.9091 19.4951C74.211 18.8278 74.2859 18.1138 74.3075 17.3971C74.3353 16.4776 74.2391 15.5702 73.8699 14.7127C73.6146 14.1197 73.2431 13.6323 72.6293 13.3629C72.0406 13.1045 71.4246 13.0697 70.8003 13.1341C70.3415 13.1813 69.9072 13.3174 69.5278 13.5972C68.8931 14.0653 68.547 14.7205 68.3348 15.4553C68.1702 16.0254 68.1572 16.6151 68.1618 17.2043M68.1716 13.4331C68.4649 13.1724 68.7352 12.8987 69.0393 12.6698C69.5029 12.3207 70.0441 12.1467 70.6158 12.0598C71.2149 11.9687 71.8133 11.9815 72.404 12.0996C73.1345 12.2459 73.7763 12.5622 74.2684 13.1475C74.89 13.8868 75.2254 14.7451 75.3655 15.6899C75.5001 16.5968 75.5028 17.5071 75.3936 18.4142C75.2647 19.4841 74.9013 20.4652 74.1557 21.2677C73.7802 21.6718 73.3046 21.93 72.7755 22.0897C72.1545 22.2772 71.5168 22.3141 70.8794 22.2552C69.8693 22.1619 68.9959 21.771 68.3363 20.9704C68.2942 20.9194 68.2464 20.8731 68.1809 20.8028C68.1767 20.8847 68.1714 20.939 68.1714 20.9933C68.171 22.3587 68.1714 23.7241 68.1704 25.0894C68.1703 25.191 68.1664 25.2935 68.1521 25.394C68.1287 25.5581 67.9984 25.6834 67.832 25.6937C67.6741 25.7033 67.5148 25.7017 67.3568 25.6938C67.1921 25.6855 67.0634 25.5658 67.0328 25.4019C67.0184 25.3246 67.0084 25.2453 67.0084 25.1669C67.0072 21.0309 67.0072 16.895 67.0075 12.759C67.0075 12.3162 67.1293 12.195 67.571 12.1947C67.6504 12.1946 67.73 12.1915 67.8089 12.1984C67.9968 12.2148 68.1392 12.3446 68.1526 12.5346C68.1692 12.7713 68.1665 13.0093 68.1714 13.2469C68.1728 13.3132 68.1716 13.3795 68.1716 13.4331" fill="#7F66F5"/>
<path fill-rule="evenodd" clip-rule="evenodd" d="M62.8007 16.9927C62.4572 17.0401 62.1326 17.082 61.809 17.1303C61.0608 17.242 60.3096 17.3381 59.5663 17.4762C58.9146 17.5975 58.2883 17.807 57.7588 18.2324C57.3995 18.5209 57.1971 18.8932 57.1967 19.3577C57.1959 20.0529 57.551 20.5257 58.1536 20.8317C58.8458 21.1832 59.5768 21.2561 60.3308 21.1078C61.2954 20.9181 62.0066 20.382 62.4383 19.4979C62.823 18.7098 62.8282 17.8615 62.8007 16.9927V16.9927ZM62.8087 20.7934C62.2779 21.4829 61.6347 21.9375 60.8324 22.1262C59.8054 22.3679 58.7794 22.389 57.7989 21.9224C57.0036 21.544 56.3851 20.9804 56.1328 20.1082C55.9137 19.3505 56.0401 18.6283 56.4875 17.977C56.7471 17.599 57.1063 17.3208 57.5004 17.0908C58.2542 16.651 59.084 16.46 59.9385 16.3459C60.7109 16.2427 61.4819 16.1287 62.2536 16.0199C62.4323 15.9947 62.6112 15.9712 62.8035 15.9452C62.81 15.2946 62.8674 14.6492 62.5033 14.0649C62.241 13.6441 61.8588 13.3835 61.3925 13.2591C60.619 13.0526 59.837 13.0284 59.0712 13.2907C58.507 13.4838 58.0615 13.826 57.8355 14.4086C57.6964 14.7674 57.3222 14.9157 56.9675 14.7717C56.7371 14.6781 56.6467 14.4041 56.7458 14.0868C56.9612 13.3965 57.4283 12.9183 58.0336 12.5529C58.8257 12.0748 59.6942 11.9722 60.5944 12.0175C61.19 12.0475 61.7707 12.1372 62.3198 12.3922C62.9421 12.6811 63.3477 13.1717 63.6368 13.7706C63.8786 14.2715 63.9687 14.8068 63.9677 15.3625C63.9637 17.4363 63.9662 19.5102 63.966 21.584C63.9659 21.9634 63.8364 22.0931 63.4599 22.0943C62.9012 22.096 62.8087 22.0037 62.8087 21.4446V20.7934Z" fill="#7F66F5"/>
<path fill-rule="evenodd" clip-rule="evenodd" d="M79.2321 13.4494C79.4626 13.2303 79.6817 13.0038 79.9198 12.7995C80.4555 12.3399 81.0902 12.1092 81.786 12.0392C82.467 11.9708 83.1428 11.9991 83.8 12.206C84.6111 12.4615 85.2228 12.9736 85.6596 13.6978C86.1214 14.4635 86.3028 15.3053 86.3053 16.1885C86.3107 17.9963 86.3072 19.804 86.3068 21.6118C86.3067 21.9563 86.1681 22.0942 85.8225 22.0975C85.2451 22.103 85.1507 22.0099 85.1507 21.4344C85.1507 19.74 85.1526 18.0456 85.1496 16.3511C85.1487 15.8236 85.0812 15.306 84.8905 14.8084C84.5265 13.8582 83.838 13.3073 82.8376 13.159C82.1327 13.0544 81.4391 13.103 80.7879 13.4289C80.238 13.704 79.836 14.1283 79.5714 14.6799C79.3278 15.1879 79.2333 15.7299 79.2332 16.2903C79.2328 18.0357 79.2334 19.7812 79.2299 21.5266C79.2297 21.643 79.2249 21.7724 79.1759 21.8733C79.0416 22.1498 78.7723 22.0946 78.533 22.0966C78.3464 22.0982 78.1758 22.0454 78.1087 21.8546C78.0707 21.7466 78.0715 21.6215 78.0714 21.504C78.0693 19.3506 78.0695 17.1973 78.0694 15.0438C78.0693 13.0831 78.0693 11.1224 78.0696 9.16164C78.0697 9.08809 78.0713 9.01423 78.0776 8.94095C78.0941 8.75259 78.2036 8.63469 78.3925 8.59769C78.4366 8.58898 78.4807 8.5769 78.5253 8.57404C79.0949 8.53758 79.2323 8.66715 79.2323 9.23927C79.2323 10.5937 79.2322 11.9481 79.2321 13.3025V13.4494Z" fill="#7F66F5"/>
<path fill-rule="evenodd" clip-rule="evenodd" d="M103.359 20.9452H103.575C105.626 20.9452 107.678 20.9474 109.729 20.944C110.24 20.9432 110.388 21.0506 110.367 21.588C110.352 21.9532 110.227 22.0926 109.863 22.0927C107.466 22.0934 105.069 22.0934 102.672 22.0927C102.314 22.0927 102.163 21.9438 102.163 21.5893C102.162 17.4814 102.162 13.3735 102.163 9.26561C102.163 8.90733 102.308 8.76477 102.671 8.76514C102.801 8.76527 102.933 8.76373 103.06 8.78711C103.236 8.81975 103.346 8.95055 103.35 9.13169C103.359 9.52802 103.359 9.92458 103.359 10.321C103.359 13.7942 103.359 17.2674 103.359 20.7406V20.9452Z" fill="#7F66F5"/>
<path fill-rule="evenodd" clip-rule="evenodd" d="M51.4918 13.4733C51.6944 13.114 51.9525 12.8379 52.2838 12.6288C52.7158 12.3563 53.1972 12.2449 53.6949 12.2083C54.0443 12.1825 54.397 12.1973 54.7483 12.2003C55.0162 12.2027 55.1489 12.3323 55.1744 12.6011C55.1772 12.6293 55.1793 12.6575 55.1805 12.6858C55.1995 13.1409 55.0759 13.2997 54.5993 13.2977C54.1545 13.2958 53.701 13.3032 53.2661 13.385C52.3138 13.5638 51.6763 14.2208 51.5355 15.1827C51.4598 15.6996 51.4714 16.2313 51.4687 16.7565C51.4606 18.3708 51.4654 19.9852 51.4634 21.5996C51.4629 21.9537 51.3221 22.091 50.968 22.0952C50.4128 22.1019 50.3042 21.9944 50.3042 21.4403C50.3043 18.5513 50.304 15.6624 50.3056 12.7734C50.3056 12.6783 50.3134 12.5804 50.337 12.4887C50.3997 12.2458 50.5543 12.1843 51.0298 12.1988C51.2491 12.2055 51.421 12.3254 51.4503 12.5179C51.4715 12.6567 51.4625 12.8003 51.4642 12.9418C51.4661 13.1004 51.4648 13.259 51.4659 13.4176C51.4659 13.4269 51.474 13.4361 51.4918 13.4733" fill="#7F66F5"/>
<path fill-rule="evenodd" clip-rule="evenodd" d="M15.9862 26.6248L22.3946 22.9254C22.3754 22.865 22.3582 22.804 22.3431 22.7424H5.50352C5.49462 22.7787 5.48495 22.8145 5.47459 22.8503L11.9143 26.5679C12.4398 26.0215 13.1656 25.7134 13.9236 25.7148C14.7088 25.7135 15.458 26.0439 15.9862 26.6248V26.6248ZM14.7007 5.4697L23.1232 20.0548C22.9302 20.2388 22.7649 20.4497 22.6322 20.681C22.4998 20.9109 22.4008 21.1584 22.3382 21.4161H5.50491C5.44221 21.1584 5.34317 20.9109 5.21072 20.681C5.07759 20.4514 4.91249 20.2417 4.72052 20.0584L13.1445 5.47029C13.3971 5.54302 13.6586 5.57979 13.9214 5.57956C14.1921 5.57956 14.4535 5.54125 14.7007 5.4697V5.4697ZM11.9955 4.80645L3.57109 19.3948C3.53468 19.3843 3.49803 19.3745 3.46121 19.3654V11.9231C4.17109 11.7467 4.81073 11.2939 5.20336 10.611C5.5811 9.95627 5.67645 9.17609 5.4674 8.44966L11.9158 4.72727C11.9418 4.75415 11.9684 4.78057 11.9955 4.80636V4.80645ZM15.9332 4.72727L22.3834 8.4508C22.1759 9.17604 22.2716 9.9545 22.6486 10.608C23.0412 11.2909 23.6808 11.7436 24.3908 11.9201V19.3616C24.3545 19.3705 24.3185 19.3801 24.2827 19.3904L15.8582 4.80177C15.8836 4.77744 15.9087 4.75261 15.9332 4.72736V4.72727ZM16.5999 3.58565L23.0348 7.30046C23.2205 7.10392 23.4337 6.93527 23.6677 6.79966C25.0023 6.03256 26.7045 6.488 27.4796 7.82241C28.2469 9.15677 27.7914 10.8586 26.4567 11.6337C26.2245 11.7674 25.9742 11.867 25.7135 11.9296V19.3619C25.9714 19.4245 26.2189 19.5235 26.4488 19.6558C27.7913 20.4309 28.2469 22.1328 27.4717 23.4672C26.7045 24.8015 24.9943 25.257 23.6596 24.4899C23.4011 24.3416 23.1682 24.1526 22.9699 23.9301L16.5742 27.622C16.6678 27.9056 16.7154 28.2023 16.7151 28.501C16.7151 30.0351 15.4685 31.2896 13.9261 31.2896C12.3836 31.2896 11.137 30.043 11.137 28.501C11.137 28.2268 11.1764 27.9621 11.2499 27.712L4.81668 23.9983C4.63296 24.1909 4.42273 24.3564 4.19239 24.4899C2.84986 25.2569 1.14762 24.8015 0.380386 23.4672C-0.386754 22.1328 0.0688079 20.4309 1.4033 19.6558C1.63319 19.5234 1.88075 19.4244 2.13857 19.3618V11.9296C1.87789 11.867 1.62761 11.7674 1.39535 11.6337C0.0607255 10.8667 -0.394791 9.15677 0.37244 7.82241C1.13967 6.488 2.84977 6.03256 4.18435 6.79966C4.4171 6.93454 4.62924 7.10211 4.81427 7.29732L11.251 3.58152C11.1752 3.32406 11.1367 3.05698 11.137 2.78853C11.137 1.24661 12.3836 0 13.926 0C15.4685 0 16.7151 1.24647 16.7151 2.78853C16.7151 3.06569 16.6748 3.33319 16.5999 3.58565V3.58565Z" fill="#7F66F5"/>
</g>
<defs>
<clipPath id="clip0_60_1567">
<rect width="111" height="32" fill="white"/>
</clipPath>
</defs>
</svg>
