<svg width="32" height="31" viewBox="0 0 32 31" fill="none" xmlns="http://www.w3.org/2000/svg">
<g clip-path="url(#clip0_60_1504)">
<path fill-rule="evenodd" clip-rule="evenodd" d="M0 31.3847H32.2445V0H0V31.3847ZM2.71875 28.7103H29.539V2.67188H2.71875V28.7103Z" fill="#7F66F5"/>
<path fill-rule="evenodd" clip-rule="evenodd" d="M12.075 26.2631C14.4998 26.2631 16.1618 24.9911 16.1618 22.1966V12.9844H13.4243V22.1584C13.4243 23.5075 12.8572 23.8543 11.9577 23.8543C11.0192 23.8543 10.628 23.2184 10.1979 22.4669L7.96875 23.7963C8.61394 25.1454 9.88514 26.2631 12.075 26.2631" fill="#7F66F5"/>
<path fill-rule="evenodd" clip-rule="evenodd" d="M22.5759 23.8755C21.2268 23.8755 20.4642 23.1817 19.8774 22.2373L17.6484 23.5093C18.4501 25.0705 20.0927 26.2652 22.6346 26.2653C25.2352 26.2653 27.1711 24.9357 27.1711 22.507C27.1711 20.2523 25.8608 19.2501 23.5339 18.2672L22.8496 17.9782C21.6765 17.477 21.1681 17.1493 21.1681 16.3397C21.1681 15.6846 21.6765 15.1835 22.4783 15.1835C23.2603 15.1835 23.7686 15.5111 24.2381 16.3397L26.3694 14.9907C25.4699 13.4295 24.2185 12.832 22.4783 12.832C20.034 12.832 18.4696 14.374 18.4696 16.3977C18.4696 18.5947 19.7797 19.6355 21.7549 20.4641L22.4389 20.7535C23.6904 21.2929 24.4336 21.6205 24.4336 22.5456C24.4336 23.3166 23.7101 23.8755 22.5759 23.8755" fill="#7F66F5"/>
</g>
<defs>
<clipPath id="clip0_60_1504">
<rect width="32" height="31" fill="white"/>
</clipPath>
</defs>
</svg>
