<svg width="35" height="40" viewBox="0 0 35 40" fill="none" xmlns="http://www.w3.org/2000/svg">
<path d="M27.3195 28.3287C25.3264 30.1391 22.6949 31.1426 19.8071 31.1426C13.4411 31.1426 8.76615 26.4188 8.76615 19.9331C8.76615 13.4474 13.2924 8.9224 19.8071 8.9224C22.6446 8.9224 25.3264 9.87734 27.3698 11.6878L28.7588 12.8948L34.9303 6.66107L33.3857 5.25295C29.7542 1.93957 24.9328 0.0805664 19.8048 0.0805664C8.36343 0.0805664 0.0546875 8.42297 0.0546875 19.8845C0.0546875 31.2975 8.56251 39.9382 19.8048 39.9382C25.0289 39.9382 29.9007 38.0792 33.4864 34.7126L34.9784 33.3045L28.7108 27.0754L27.3195 28.3287Z" fill="white"/>
<path d="M19.5083 13.3477C21.2634 13.3477 22.9467 14.0522 24.1877 15.3062C25.4288 16.5602 26.126 18.2611 26.126 20.0345C26.126 21.808 25.4288 23.5088 24.1877 24.7629C22.9467 26.0169 21.2634 26.7214 19.5083 26.7214C17.7532 26.7214 16.07 26.0169 14.8289 24.7629C13.5878 23.5088 12.8906 21.808 12.8906 20.0345C12.8906 18.2611 13.5878 16.5602 14.8289 15.3062C16.07 14.0522 17.7532 13.3477 19.5083 13.3477Z" fill="#FF3D2E"/>
</svg>
