<svg width="121" height="32" viewBox="0 0 121 32" fill="none" xmlns="http://www.w3.org/2000/svg">
<g clip-path="url(#clip0_60_1485)">
<path fill-rule="evenodd" clip-rule="evenodd" d="M51.8794 16.0986C51.8794 18.1079 51.4038 19.7757 50.4473 21.102C49.3812 22.603 47.9036 23.3761 46.0146 23.4184C44.5905 23.4634 43.1236 23.0213 41.614 22.0947V30.6747L39.1719 29.8117V10.7669C39.5727 10.2798 40.0884 9.86149 40.7136 9.50676C42.1671 8.66755 43.9332 8.23603 46.012 8.21484L46.0467 8.2493C47.9464 8.22547 49.4106 8.99849 50.4393 10.5657C51.3985 12.0032 51.8794 13.8457 51.8794 16.0986M49.0666 15.9321C49.0666 11.9771 47.9284 9.94654 45.6519 9.83537C44.7462 9.79305 43.8618 9.93599 43.0014 10.2669C42.3147 10.5105 41.8525 10.7513 41.6094 10.9949V20.4353C43.0655 21.3406 44.3588 21.7615 45.4863 21.6954C47.8723 21.5391 49.0666 19.6198 49.0666 15.9321" fill="#7F66F5"/>
<path fill-rule="evenodd" clip-rule="evenodd" d="M66.806 21.7294C66.806 24.4244 66.5334 26.2907 65.9883 27.3285C65.4406 28.3662 64.3986 29.1948 62.8596 29.8116C61.6118 30.2987 60.2625 30.5635 58.8143 30.6085L58.4109 29.0836C59.8831 28.8851 60.9198 28.6865 61.5209 28.488C62.7046 28.0909 63.5169 27.482 63.9631 26.6666C64.3211 26.0021 64.4974 24.7341 64.4974 22.8572V22.2271C62.8275 22.9789 61.0774 23.3522 59.2472 23.3522C58.0448 23.3522 56.9841 22.9789 56.0703 22.2271C55.0443 21.4091 54.5312 20.3713 54.5312 19.1139V9.04346L56.9734 8.21484V18.3514C56.9734 19.4342 57.3261 20.2681 58.0314 20.8531C58.7368 21.4382 59.6506 21.7188 60.7701 21.6976C61.8897 21.6738 63.0894 21.2449 64.3638 20.4057V8.58021H66.806V21.7294Z" fill="#7F66F5"/>
<path fill-rule="evenodd" clip-rule="evenodd" d="M76.3405 23.2844C76.0492 23.3082 75.7821 23.3189 75.5362 23.3189C74.1549 23.3189 73.0781 22.9932 72.3086 22.3394C71.5418 21.6855 71.157 20.7827 71.157 19.6312V10.1008H69.4844V8.57861H71.157V4.53617L73.5965 3.67578V8.57861H76.3405V10.1008H73.5965V19.565C73.5965 20.473 73.8423 21.1163 74.3339 21.4922C74.7561 21.802 75.4267 21.9793 76.3405 22.0243V23.2844Z" fill="#7F66F5"/>
<path fill-rule="evenodd" clip-rule="evenodd" d="M91.1247 23.0873H88.6826V13.7475C88.6826 12.7971 88.4582 11.9791 88.0119 11.2961C87.4963 10.5231 86.7802 10.1366 85.8611 10.1366C84.7416 10.1366 83.3415 10.7216 81.6608 11.8917V23.0873H79.2188V0.762422L81.6608 0V10.1684C83.2213 9.04323 84.9259 8.47936 86.7776 8.47936C88.0707 8.47936 89.1181 8.91088 89.9197 9.77123C90.724 10.6316 91.1247 11.7038 91.1247 12.9851V23.0873Z" fill="#7F66F5"/>
<path fill-rule="evenodd" clip-rule="evenodd" d="M106.785 15.5691C106.785 17.732 106.227 19.5321 105.113 20.9696C103.886 22.5792 102.192 23.3866 100.031 23.3866C97.8878 23.3866 96.2179 22.5792 95.0129 20.9696C93.9201 19.5321 93.375 17.732 93.375 15.5691C93.375 13.5359 93.9655 11.8258 95.1465 10.4333C96.3943 8.95612 98.0348 8.21484 100.063 8.21484C102.091 8.21484 103.742 8.95612 105.014 10.4333C106.195 11.8258 106.785 13.5359 106.785 15.5691M104.117 15.5562C104.117 14.0366 103.825 12.7818 103.246 11.789C102.556 10.5792 101.485 9.94123 100.037 9.875C97.3594 10.0286 96.0234 11.9293 96.0234 15.5721C96.0234 17.2425 96.3013 18.6377 96.8624 19.7574C97.5785 21.1844 98.6526 21.8886 100.085 21.8647C102.773 21.8435 104.117 19.7416 104.117 15.5562" fill="#7F66F5"/>
<path fill-rule="evenodd" clip-rule="evenodd" d="M120.784 23.0875H118.342V13.2183C118.342 12.1355 118.013 11.291 117.356 10.6822C116.698 10.0759 115.822 9.78205 114.729 9.80588C113.57 9.82707 112.466 10.203 111.419 10.931V23.0875H108.977V10.6319C110.382 9.61793 111.675 8.95612 112.856 8.64636C113.97 8.35783 114.954 8.21484 115.801 8.21484C116.38 8.21484 116.925 8.27045 117.438 8.38162C118.398 8.60139 119.178 9.00904 119.779 9.60737C120.45 10.2692 120.784 11.0634 120.784 11.9926V23.0875Z" fill="#7F66F5"/>
<mask id="mask0_60_1485" style="mask-type:luminance" maskUnits="userSpaceOnUse" x="0" y="0" width="23" height="24">
<path fill-rule="evenodd" clip-rule="evenodd" d="M0 0.851562H22.5586V23.4201H0V0.851562Z" fill="white"/>
</mask>
<g mask="url(#mask0_60_1485)">
<path fill-rule="evenodd" clip-rule="evenodd" d="M11.0823 3.08594C11.8415 3.08594 12.4615 3.71024 12.4615 4.47788C12.4615 5.2428 11.8415 5.86134 11.0823 5.86134C10.3204 5.86134 9.70312 5.2428 9.70312 4.47788C9.70312 3.71024 10.3204 3.08594 11.0823 3.08594M15.0545 0.851814C13.798 0.857615 12.5981 0.963802 11.5423 1.14888C8.43205 1.69332 7.86734 2.83283 7.86734 4.93435V7.70976H15.2173V8.6349H7.86734H5.10896C2.9729 8.6349 1.10244 9.907 0.517412 12.3269C-0.157416 15.1008 -0.187363 16.8317 0.517412 19.728C1.03987 21.884 2.28758 23.4201 4.42368 23.4201H6.95074V20.093C6.95074 17.6894 9.04973 15.5692 11.5423 15.5692H18.8836C20.9272 15.5692 22.5586 13.902 22.5586 11.8686V4.93435C22.5586 2.96078 20.8782 1.47826 18.8836 1.14888C17.621 0.940633 16.311 0.846012 15.0545 0.851814" fill="#7F66F5"/>
</g>
<path fill-rule="evenodd" clip-rule="evenodd" d="M19.3479 26.1953C20.1098 26.1953 20.7271 26.8139 20.7271 27.5788C20.7271 28.3464 20.1098 28.9707 19.3479 28.9707C18.5888 28.9707 17.9688 28.3464 17.9688 27.5788C17.9688 26.8139 18.5887 26.1953 19.3479 26.1953V26.1953ZM23.4829 8.63672V11.8704C23.4829 14.3775 21.3376 16.4876 18.8913 16.4876H11.55C9.53906 16.4876 7.875 18.1929 7.875 20.1882V27.1225C7.875 29.096 9.60709 30.2568 11.55 30.823C13.8765 31.5008 16.1076 31.6234 18.8913 30.823C20.7417 30.2922 22.5663 29.224 22.5663 27.1225V24.3471H15.2249V23.4219H22.5663H26.2413C28.3774 23.4219 29.1733 21.9457 29.9162 19.7298C30.6836 17.4487 30.6509 15.255 29.9162 12.3287C29.3883 10.2218 28.38 8.63672 26.2413 8.63672H23.4829Z" fill="#7F66F5"/>
</g>
<defs>
<clipPath id="clip0_60_1485">
<rect width="121" height="32" fill="white"/>
</clipPath>
</defs>
</svg>
