<svg width="116" height="26" viewBox="0 0 116 26" fill="none" xmlns="http://www.w3.org/2000/svg">
<g clip-path="url(#clip0_60_1611)">
<path fill-rule="evenodd" clip-rule="evenodd" d="M6.77911 8.3233H10.5286V4.67582H6.77911V8.3233ZM11.4953 8.3233H15.2448V4.67582H11.4953V8.3233ZM2.1779 12.9052H5.92736V9.25775H2.1779V12.9052ZM11.4953 12.9052H15.2448V9.25775H11.4953V12.9052ZM6.77911 12.9052H10.5286V9.25775H6.77911V12.9052ZM20.7208 12.9052H24.4702V9.25775H20.7208V12.9052ZM16.1042 3.64748H19.8537V0H16.1042V3.64748ZM16.1042 8.3233H19.8537V4.67582H16.1042V8.3233ZM16.1042 12.9052H19.8537V9.25775H16.1042V12.9052ZM32.2644 10.7554C32.0722 9.25908 31.1108 8.04325 29.8609 7.10801L29.3802 6.73393L28.9957 7.2015C28.2266 8.04325 27.9382 9.53966 28.0343 10.6619C28.1304 11.5037 28.4189 12.3454 28.8996 13C28.515 13.1871 28.0343 13.3742 27.6497 13.5612C26.7845 13.8418 25.9192 13.9353 25.054 13.9353H0.15379L0.0576826 14.4965C-0.134585 16.2734 0.15379 18.1439 0.922913 19.8273L1.3075 20.482V20.5756C3.61482 24.3165 7.74886 26 12.2674 26C20.92 26 28.0343 22.3526 31.3992 14.4965C33.6104 14.5899 35.8216 14.0288 36.8792 11.9713L37.1675 11.5037L36.6868 11.2231C35.4371 10.4749 33.7065 10.3814 32.2644 10.7554V10.7554ZM7.45603 20.9495C6.39848 20.9495 5.43709 20.1078 5.43709 19.0791C5.43709 18.0503 6.30237 17.2085 7.45603 17.2085C8.60969 17.2085 9.47497 18.0503 9.47497 19.0791C9.47497 20.1078 8.51358 20.9495 7.45603 20.9495V20.9495Z" fill="#7F66F5"/>
<path fill-rule="evenodd" clip-rule="evenodd" d="M16.1118 8.32326H19.8613V4.67578H16.1118V8.32326Z" fill="#7F66F5"/>
<path fill-rule="evenodd" clip-rule="evenodd" d="M16.1118 12.9092H19.8613V9.26172H16.1118V12.9092Z" fill="#7F66F5"/>
<path fill-rule="evenodd" clip-rule="evenodd" d="M16.1118 3.64748H19.8613V0H16.1118V3.64748Z" fill="#7F66F5"/>
<path fill-rule="evenodd" clip-rule="evenodd" d="M11.5029 8.32326H15.2524V4.67578H11.5029V8.32326Z" fill="#7F66F5"/>
<path fill-rule="evenodd" clip-rule="evenodd" d="M20.7363 12.9092H24.4858V9.26172H20.7363V12.9092Z" fill="#7F66F5"/>
<path fill-rule="evenodd" clip-rule="evenodd" d="M2.17041 12.9092H5.91986V9.26172H2.17041V12.9092Z" fill="#7F66F5"/>
<path fill-rule="evenodd" clip-rule="evenodd" d="M7.45603 20.9495C6.39848 20.9495 5.43709 20.1078 5.43709 19.079C5.43709 18.0502 6.30237 17.2085 7.45603 17.2085C8.60969 17.2085 9.47497 18.0502 9.47497 19.079C9.47497 20.1078 8.51353 20.9495 7.45603 20.9495V20.9495ZM36.6868 11.2231C35.4371 10.4748 33.7065 10.3813 32.2644 10.7554C32.0722 9.25903 31.1108 8.04315 29.8609 7.10796L29.3802 6.73389L28.9957 7.20146C28.2265 8.04315 27.9382 9.53961 28.0343 10.6618C28.1304 11.5036 28.4189 12.3453 28.8996 13C28.515 13.1871 28.0343 13.3741 27.6497 13.5612C26.7845 13.8418 25.9192 13.9352 25.054 13.9352H0.15379L0.0576826 14.4964C-0.134585 16.2734 0.15379 18.1439 0.922913 19.8273L1.3075 20.482V20.5755C3.61482 24.3165 7.74886 26 12.2674 26C20.92 26 28.0343 22.3525 31.3992 14.4964C33.6104 14.5899 35.8216 14.0288 36.8792 11.9712L37.1675 11.5036L36.6868 11.2231Z" fill="#7F66F5"/>
<path fill-rule="evenodd" clip-rule="evenodd" d="M6.79443 12.9092H10.5439V9.26172H6.79443V12.9092Z" fill="#7F66F5"/>
<path fill-rule="evenodd" clip-rule="evenodd" d="M11.5029 12.9092H15.2524V9.26172H11.5029V12.9092Z" fill="#7F66F5"/>
<path fill-rule="evenodd" clip-rule="evenodd" d="M6.79443 8.32326H10.5439V4.67578H6.79443V8.32326Z" fill="#7F66F5"/>
<path fill-rule="evenodd" clip-rule="evenodd" d="M54.0884 11.2221V6.63942C54.0884 6.07831 54.4729 5.51709 55.1459 5.51709H55.3382C56.0111 5.51709 56.3957 5.98476 56.3957 6.63942V16.2725C56.3957 18.6106 55.242 20.4811 53.127 21.6034C52.1656 22.1645 51.108 22.4451 49.9544 22.4451H49.4737C47.0702 22.4451 45.1474 21.3228 43.9937 19.2653C43.4168 18.33 43.1284 17.3013 43.1284 16.1789V15.7113C43.1284 13.3732 44.2821 11.5027 46.3972 10.3804C47.3586 9.81923 48.4161 9.53869 49.5698 9.53869H50.0505C51.4926 9.63219 52.9347 10.1934 54.0884 11.2221V11.2221ZM45.245 15.9936C45.245 17.677 46.1103 18.9863 47.6484 19.7346C48.2253 20.0151 48.8983 20.2022 49.6674 20.2022C51.3979 20.2022 52.6477 19.454 53.5129 18.0511C53.8975 17.3964 54.0898 16.6482 54.0898 15.9C54.0898 14.4036 53.4168 13.2813 52.167 12.4396C51.3979 11.972 50.6288 11.6914 49.6674 11.6914C47.8407 11.6914 46.4948 12.6267 45.7257 14.2166C45.4372 14.8713 45.245 15.4324 45.245 15.9936V15.9936ZM63.8949 9.63331H64.1833C66.779 9.63331 68.7019 10.8492 69.9517 13.0003C70.4324 13.842 70.7208 14.7772 70.7208 15.806V16.2736C70.7208 18.6117 69.5671 20.4822 67.452 21.6045C66.4907 22.1656 65.4331 22.4462 64.2794 22.4462H63.7988C61.3952 22.4462 59.4724 21.3239 58.3188 19.2664C57.7419 18.3311 57.4535 17.3024 57.4535 16.1801V15.7124C57.4535 13.3743 58.6072 11.5038 60.7223 10.3816C61.7798 9.9139 62.7412 9.63331 63.8949 9.63331V9.63331ZM59.8538 15.9936C59.8538 17.5835 60.7191 18.7993 62.0651 19.641C62.738 20.0151 63.5071 20.2022 64.2763 20.2022C65.9106 20.2022 67.1604 19.3605 68.0257 18.0511C68.4103 17.3964 68.6025 16.6482 68.6025 15.9C68.6025 14.4036 67.8334 13.1878 66.5836 12.3461C65.9106 11.8785 65.0454 11.6914 64.2763 11.6914C62.4496 11.6914 61.1037 12.6267 60.3345 14.2166C59.8538 14.8713 59.8538 15.4324 59.8538 15.9936H59.8538ZM80.0455 11.9684C79.757 11.7814 79.0841 11.7814 78.6995 11.7814C76.8729 11.6879 75.5269 12.7167 74.7578 14.3066C74.4693 14.8677 74.3732 15.4288 74.3732 16.0835C74.3732 17.954 75.3346 19.2634 77.0651 20.0116C77.642 20.2922 78.5072 20.3857 79.1802 20.3857C79.757 20.3857 80.6223 20.0116 81.103 19.8245H81.5837C82.0644 19.9181 82.4489 20.1986 82.4489 20.7598V20.9468C82.4489 22.2562 79.9493 22.5368 79.0841 22.6303C75.8153 22.8173 73.3157 21.0404 72.3543 18.0475C72.162 17.4864 72.162 17.0188 72.162 16.4576V15.99C72.162 13.6519 73.3157 11.7814 75.4308 10.6591C76.3922 10.098 77.4497 9.81734 78.6034 9.81734H79.0841C80.2377 9.81734 81.3914 10.098 82.3528 10.7526L82.4489 10.8462L82.5451 10.9397C82.6412 11.1267 82.7374 11.3138 82.7374 11.5008V11.6879C82.7374 12.249 82.3528 12.5296 81.776 12.6231H81.6798C81.0069 12.4361 80.2377 12.062 80.0455 11.9684V11.9684ZM87.1534 13.3739L89.7491 10.8488C90.0375 10.6617 90.9028 9.63288 91.2874 9.63288H91.672C92.1526 9.72643 92.5372 10.007 92.5372 10.5682V10.7552C92.5372 11.1293 92.0565 11.5034 91.8642 11.784C91.3835 12.3451 90.8067 12.8128 90.326 13.3739L87.6341 15.9926L91.0951 19.3595L92.0565 20.2947L92.441 20.6688C92.5372 20.8558 92.6333 20.9494 92.6333 21.1364V21.4171C92.5372 21.8847 92.1526 22.2588 91.672 22.2588H91.4797C91.0951 22.2588 90.7105 21.8847 90.4221 21.6041C89.9414 21.1364 89.3646 20.6688 88.8839 20.1077L87.1534 18.5177V21.1364C87.1534 21.6976 86.7688 22.2588 86.0958 22.2588H85.9036C85.2306 22.2588 84.846 21.7911 84.846 21.1364V6.73366C84.846 6.1725 85.2306 5.70487 85.9036 5.70487H86.0958C86.7688 5.70487 87.1534 6.1725 87.1534 6.73366V13.3739ZM114.654 9.72345H114.846C115.519 9.72345 116 10.1911 116 10.8458C116 11.781 115.135 11.968 114.365 11.968C113.404 11.968 112.443 12.5292 111.77 13.1839C110.904 14.0256 110.52 15.0544 110.52 16.1767V21.4141C110.52 21.9752 110.135 22.5364 109.462 22.5364H109.27C108.597 22.5364 108.212 22.0687 108.212 21.4141V15.8961C108.212 13.745 109.27 12.0616 111.001 10.8458C112.25 10.0976 113.404 9.72345 114.654 9.72345V9.72345ZM98.9828 20.013C99.7519 20.2936 100.713 20.2936 101.579 20.1065C101.963 19.9195 103.117 19.4519 103.501 19.5454H103.694C103.982 19.6389 104.174 19.8259 104.27 20.1065C104.559 20.6676 104.463 21.2288 103.886 21.5094L103.694 21.6029C101.579 22.8187 99.3673 22.6317 97.2523 21.5094C96.2909 20.9482 95.5218 20.2 94.9449 19.2648L94.8488 19.0777C93.5028 16.8331 93.6952 14.4015 95.2333 12.2504C95.714 11.5022 96.4832 10.9411 97.2523 10.4735L97.5407 10.2864C99.5597 9.16409 101.675 9.25763 103.694 10.1929C104.751 10.754 105.713 11.5022 106.289 12.531L106.386 12.7181C106.866 13.4662 106.289 14.1209 105.616 14.5886L103.597 16.272C101.867 17.5814 100.425 18.7971 98.9828 20.013V20.013ZM97.0628 18.7034C98.6972 17.3005 100.332 15.9912 101.966 14.5883C102.543 14.1206 103.12 13.6531 103.696 13.0919C103.216 12.5308 102.543 12.1567 101.87 11.8761C100.62 11.4085 99.3701 11.5955 98.1203 12.2502C96.5821 13.0919 95.9091 14.4948 96.0053 16.1782C96.0053 16.8329 96.1975 17.4876 96.5821 18.0487C96.8705 18.3293 96.9666 18.5163 97.0628 18.7034V18.7034Z" fill="#7F66F5"/>
</g>
<defs>
<clipPath id="clip0_60_1611">
<rect width="116" height="26" fill="white"/>
</clipPath>
</defs>
</svg>
