<svg width="41" height="25" viewBox="0 0 41 25" fill="none" xmlns="http://www.w3.org/2000/svg">
<g clip-path="url(#clip0_60_1559)">
<path fill-rule="evenodd" clip-rule="evenodd" d="M34.4937 13.0695C33.7847 13.0695 33.0756 12.9861 32.3939 12.8193C31.7121 12.6524 31.1804 12.4717 30.8259 12.2631C30.6077 12.138 30.4577 11.9989 30.4032 11.8738C30.3486 11.7486 30.3214 11.6097 30.3214 11.4845V10.7754C30.3214 10.4834 30.4304 10.3444 30.635 10.3444C30.7168 10.3444 30.7986 10.3583 30.8804 10.3861C30.9622 10.4139 31.0849 10.4695 31.2213 10.5251C31.6849 10.7337 32.1894 10.9006 32.7211 11.0118C33.2665 11.123 33.7983 11.1786 34.3437 11.1786C35.2027 11.1786 35.8708 11.0257 36.3344 10.7198C36.798 10.4139 37.0434 9.96898 37.0434 9.39893C37.0434 9.00964 36.9207 8.68983 36.6753 8.42566C36.4299 8.16149 35.9663 7.92512 35.2982 7.70269L33.3211 7.077C32.3257 6.75722 31.5894 6.28448 31.1394 5.65882C30.6895 5.04707 30.4577 4.36577 30.4577 3.6428C30.4577 3.05881 30.5804 2.54437 30.8259 2.09947C31.0713 1.65454 31.3985 1.26522 31.8076 0.95934C32.2166 0.63956 32.6802 0.403192 33.2256 0.236368C33.771 0.0695103 34.3437 0 34.9437 0C35.2436 0 35.5572 0.0138694 35.8572 0.0556082C36.1708 0.0973144 36.4572 0.152923 36.7435 0.208531C37.0162 0.278041 37.2752 0.347584 37.5206 0.431029C37.7661 0.514409 37.957 0.597854 38.0933 0.681299C38.2842 0.792515 38.4206 0.903732 38.5024 1.02885C38.5842 1.1401 38.6251 1.29305 38.6251 1.48772V2.14118C38.6251 2.43312 38.516 2.58611 38.3115 2.58611C38.2024 2.58611 38.0252 2.53047 37.7933 2.41925C37.0162 2.05773 36.1436 1.87697 35.1755 1.87697C34.3983 1.87697 33.7847 2.00212 33.362 2.2663C32.9393 2.53047 32.7211 2.93366 32.7211 3.50374C32.7211 3.89307 32.8575 4.22671 33.1302 4.49092C33.4029 4.75509 33.9074 5.01923 34.6301 5.25563L36.5662 5.88126C37.5479 6.20107 38.257 6.646 38.6796 7.21605C39.1023 7.7861 39.3068 8.43956 39.3068 9.16256C39.3068 9.76045 39.1841 10.3027 38.9523 10.7754C38.7069 11.2481 38.3797 11.6653 37.957 11.9989C37.5343 12.3465 37.0298 12.5968 36.4435 12.7776C35.8299 12.9722 35.1891 13.0695 34.4937 13.0695V13.0695ZM16.9745 12.6936C16.729 12.6936 16.5654 12.6519 16.4563 12.5546C16.3473 12.4711 16.2518 12.2765 16.17 12.0123L12.9658 1.26468C12.884 0.98664 12.8431 0.80588 12.8431 0.708533C12.8431 0.4861 12.9521 0.360949 13.1703 0.360949H14.5065C14.7656 0.360949 14.9429 0.402655 15.0383 0.500002C15.1474 0.583415 15.2292 0.778044 15.311 1.04225L17.6017 10.2465L19.7288 1.04225C19.797 0.764141 19.8787 0.583415 19.9878 0.500002C20.0969 0.416557 20.2878 0.360949 20.5332 0.360949H21.6241C21.8831 0.360949 22.0604 0.402655 22.1695 0.500002C22.2785 0.583415 22.374 0.778044 22.4285 1.04225L24.5829 10.3578L26.9417 1.04225C27.0235 0.764141 27.119 0.583415 27.2144 0.500002C27.3235 0.416557 27.5007 0.360949 27.7461 0.360949H29.0142C29.2324 0.360949 29.3551 0.472166 29.3551 0.708533C29.3551 0.778044 29.3415 0.847586 29.3278 0.930999C29.3142 1.01441 29.2869 1.12563 29.2324 1.27858L25.9464 12.0262C25.8645 12.3043 25.7691 12.485 25.66 12.5685C25.551 12.6519 25.3737 12.7075 25.1419 12.7075H23.9693C23.7102 12.7075 23.5329 12.6658 23.4239 12.5685C23.3148 12.4711 23.2193 12.2904 23.1648 12.0123L21.0514 3.04437L18.9516 11.9984C18.8834 12.2765 18.8016 12.4572 18.6925 12.5546C18.5834 12.6519 18.3925 12.6936 18.1471 12.6936H16.9745ZM6.02065 11.1916C6.47062 11.1916 6.93422 11.1082 7.42508 10.9414C7.91595 10.7745 8.35228 10.4687 8.72041 10.0516C8.93858 9.78735 9.10218 9.49538 9.18401 9.16169C9.26581 8.82801 9.32034 8.42479 9.32034 7.95208V7.3681C8.92491 7.27079 8.50225 7.18734 8.06591 7.13173C7.62961 7.07612 7.20692 7.04835 6.78425 7.04835C5.87069 7.04835 5.20259 7.22908 4.75259 7.60447C4.30266 7.97986 4.08449 8.50823 4.08449 9.20343C4.08449 9.85689 4.24812 10.3435 4.58899 10.6772C4.91625 11.0248 5.39345 11.1916 6.02065 11.1916V11.1916ZM11.5569 9.08091C11.5569 9.59532 11.6114 10.0125 11.7068 10.3184C11.8159 10.6242 11.9523 10.9579 12.1432 11.3194C12.2113 11.4307 12.2386 11.5419 12.2386 11.6392C12.2386 11.7782 12.1568 11.9173 11.9795 12.0563L11.1205 12.6403C10.9978 12.7237 10.8751 12.7654 10.766 12.7654C10.6297 12.7654 10.4933 12.6959 10.357 12.5708C10.1661 12.3622 10.0025 12.1397 9.86611 11.9173C9.72978 11.6809 9.59341 11.4168 9.44344 11.0969C8.37988 12.3761 7.04365 13.0157 5.43472 13.0157C4.28939 13.0157 3.37583 12.682 2.70773 12.0146C2.0396 11.3472 1.69873 10.4574 1.69873 9.34505C1.69873 8.16325 2.10776 7.20391 2.9395 6.4809C3.77123 5.7579 4.87569 5.39641 6.28009 5.39641C6.74369 5.39641 7.22092 5.43812 7.72542 5.50766C8.22991 5.57714 8.74805 5.68839 9.29345 5.81354V4.79856C9.29345 3.74187 9.07528 3.00496 8.65261 2.57394C8.21628 2.14294 7.47998 1.93438 6.43012 1.93438C5.95285 1.93438 5.46202 1.98998 4.95752 2.1151C4.45299 2.24025 3.96213 2.39321 3.48493 2.58787C3.26676 2.68518 3.10313 2.74079 3.00769 2.7686C2.91226 2.7964 2.84409 2.8103 2.78953 2.8103C2.59866 2.8103 2.5032 2.67125 2.5032 2.37927V1.69801C2.5032 1.47554 2.53046 1.30872 2.59866 1.21137C2.66683 1.11406 2.78953 1.01671 2.98043 0.919394C3.45766 0.669125 4.03032 0.460561 4.69842 0.293737C5.36655 0.112977 6.07555 0.0295322 6.82552 0.0295322C8.44808 0.0295322 9.63434 0.404953 10.3979 1.15576C11.1478 1.90657 11.5296 3.04667 11.5296 4.57609V9.08091H11.5569Z" fill="#7F66F5"/>
<path fill-rule="evenodd" clip-rule="evenodd" d="M37.0644 19.8279C32.5785 23.2065 26.0609 25.0001 20.4569 25.0001C12.6031 25.0001 5.52656 22.0386 0.181604 17.1167C-0.241062 16.7274 0.140736 16.199 0.645235 16.5049C6.42646 19.9253 13.5576 21.9969 20.9342 21.9969C25.9109 21.9969 31.3786 20.9402 36.4099 18.7713C37.1598 18.4237 37.8007 19.2718 37.0644 19.8279" fill="#7F66F5"/>
<path fill-rule="evenodd" clip-rule="evenodd" d="M38.9359 17.6557C38.3632 16.9049 35.1453 17.2943 33.6864 17.475C33.2501 17.5306 33.1819 17.1413 33.5773 16.8493C36.1407 15.0141 40.3539 15.5424 40.8447 16.1541C41.3356 16.7798 40.7084 21.0761 38.3087 23.1338C37.9405 23.4536 37.586 23.2868 37.7496 22.8697C38.295 21.4932 39.5086 18.3926 38.9359 17.6557" fill="#7F66F5"/>
</g>
<defs>
<clipPath id="clip0_60_1559">
<rect width="41" height="25" fill="white"/>
</clipPath>
</defs>
</svg>
