<svg width="68" height="24" viewBox="0 0 68 24" fill="none" xmlns="http://www.w3.org/2000/svg">
<mask id="mask0_60_1542" style="mask-type:luminance" maskUnits="userSpaceOnUse" x="0" y="0" width="66" height="24">
<path fill-rule="evenodd" clip-rule="evenodd" d="M0.00683594 23.0849H65.8378V0H0.00683594V23.0849Z" fill="white"/>
</mask>
<g mask="url(#mask0_60_1542)">
<path fill-rule="evenodd" clip-rule="evenodd" d="M7.81182 0H11.3183V16.7038C7.95724 17.2568 4.73818 17.6075 2.43527 16.3116C-0.529897 14.6431 -0.76827 9.34099 1.57808 6.97953C2.76772 5.78234 5.16266 4.93949 7.73395 5.48952V0.235286C7.7272 0.123947 7.72098 0.0130893 7.81182 0M3.60365 11.2925C3.5922 13.4822 5.18757 14.7876 7.73348 14.194V8.39092C5.15542 7.60075 3.61443 9.19937 3.60365 11.2925" fill="#7F66F5"/>
<path fill-rule="evenodd" clip-rule="evenodd" d="M13.5117 3.6858H17.0181V0H13.5117V3.6858Z" fill="#7F66F5"/>
<path fill-rule="evenodd" clip-rule="evenodd" d="M59.2564 5.3354C62.1756 5.0213 64.3779 6.31774 65.2565 8.31546C66.7555 11.7239 65.174 15.635 62.763 16.785C61.5134 17.381 60.2049 17.4377 59.0227 17.3339C55.3688 17.0132 53.0643 13.2656 54.3474 9.09958C54.5482 8.4476 54.7738 8.04874 54.8929 7.84489C55.6872 6.48573 57.0281 5.57526 59.2564 5.3354M59.1042 14.352C62.9268 15.8471 63.3497 7.46606 59.4939 8.23512C57.0994 8.71276 57.1763 13.598 59.1042 14.352" fill="#7F66F5"/>
<path fill-rule="evenodd" clip-rule="evenodd" d="M27.9973 16.8625C25.1008 17.0302 20.6989 18.0232 19.1143 16.0783C18.1834 14.9355 18.2835 12.756 19.1143 11.6867C20.188 10.305 22.5318 10.0036 24.6467 9.80457C24.8387 9.32873 24.7093 8.55462 24.4908 8.23598C22.5563 7.74007 20.6342 8.50852 19.2702 9.09863V6.35397C21.3304 5.40138 26.1022 4.39832 27.5298 6.58921C28.2796 7.73991 27.9973 9.74671 27.9973 11.5297V16.8625ZM21.8428 13.0178C20.873 14.6581 23.3098 15.0511 24.8817 14.5862V12.1552C23.6739 12.3249 22.2991 12.2459 21.8428 13.0178V13.0178Z" fill="#7F66F5"/>
<path fill-rule="evenodd" clip-rule="evenodd" d="M40.3144 17.0166H36.8079V12.4681C36.8079 10.9705 37.0486 9.07151 36.2623 8.46856C35.6466 7.9961 34.1857 8.23315 33.3015 8.46856V17.0166H29.7949V6.11594C33.3794 5.17885 39.8497 4.17414 40.3144 8.70381C40.5435 10.9371 40.1446 14.2876 40.3144 17.0166" fill="#7F66F5"/>
<path fill-rule="evenodd" clip-rule="evenodd" d="M54.3419 5.80583C54.0298 6.74653 53.5731 7.54145 53.1731 8.39378C52.8118 8.47525 52.4985 8.2492 52.3159 8.39378C52.236 12.2165 53.1249 17.3987 51.6147 20.1569C50.7054 21.8175 49.0313 22.8829 46.4719 23.0585C44.6074 23.1865 43.1603 22.8799 41.7966 22.3528V19.059C43.3961 19.9989 47.438 20.7653 48.5757 18.8237C48.9105 18.2525 48.8893 17.6621 49.0432 16.7848C48.3107 16.8235 47.5995 17.1649 46.7056 17.1769C43.0308 17.226 40.7572 14.2812 41.6408 10.1973C41.9825 8.61766 42.9021 7.34579 44.1343 6.58999C46.6934 5.02027 50.6271 5.13944 54.3419 5.80583M45.5397 13.2548C46.1297 14.2156 47.7275 14.5758 49.046 13.9606C48.9736 12.1252 48.9483 10.2424 48.9681 8.31421C45.9378 7.50846 44.1318 10.9629 45.5397 13.2548" fill="#7F66F5"/>
<path fill-rule="evenodd" clip-rule="evenodd" d="M17.0168 5.55371C17.0128 8.15234 17.0134 10.0197 17.0132 13.1766C16.8642 16.2792 16.8989 18.7497 15.7701 20.2342C15.5475 20.527 15.0747 20.954 14.6792 21.2538C14.347 21.5054 13.7139 22.0158 13.3545 22.038C12.9922 22.0604 12.0615 21.5318 11.6402 21.3322C11.0871 21.07 10.5757 20.7218 10.0039 20.548C11.3377 19.7162 12.6038 19.0926 13.1207 17.4111C13.5703 15.9488 13.5104 13.8298 13.5104 11.7647C13.5104 9.72567 13.5194 7.35498 13.5194 5.55463L17.0168 5.55383V5.55371Z" fill="#7F66F5"/>
</g>
</svg>
