<svg width="260" height="260" viewBox="0 0 260 260" fill="none" xmlns="http://www.w3.org/2000/svg">
<g clip-path="url(#clip0_75_1300)">
<path d="M254.129 125.214C254.129 133.296 251.354 138.997 246.818 141.704L246.722 141.762L228.424 152.358C231.429 150.419 233.611 147.156 234.702 142.702C235.2 140.725 235.449 138.498 235.449 136.041C235.449 119.685 224.003 99.7969 209.897 91.6382C206.298 89.5457 202.12 88.2496 199 88L217.5 77.5C220.62 77.7304 224.941 78.7186 228.539 80.811C242.665 88.989 254.11 108.858 254.11 125.214H254.129Z" fill="white" stroke="#3D0F9A" stroke-linecap="round" stroke-linejoin="round"/>
<path d="M133 17.81L129.07 20.1209C124.555 22.4318 120.965 26.4615 118.679 32C116.072 29.5554 113.295 27.4546 110.423 25.7549C107.249 23.9023 104.207 22.7182 101.355 22.1835C97.047 21.305 93.1551 21.8779 90 23.6923L107.986 13.1882L108.628 12.8062C113.843 9.9033 120.984 10.3999 128.844 15.0216C130.261 15.8429 131.659 16.7978 133 17.81Z" fill="white" stroke="#3D0F9A" stroke-linecap="round" stroke-linejoin="round"/>
<path d="M218 77.2854L199.344 88C196.075 63.0881 178.738 35.5118 157.787 23.4651C150.963 19.5256 144.502 17.7176 138.825 17.7366C137.047 17.7557 135.365 17.946 133.76 18.3076C132.097 18.6882 130.491 19.2591 129 20.0204L132.976 17.7176L145.286 10.638L145.611 10.4287C153.295 5.36634 164.229 5.72793 176.406 12.7314C197.375 24.7782 214.712 52.3735 217.962 77.2854H218Z" fill="white" stroke="#3D0F9A" stroke-linecap="round" stroke-linejoin="round"/>
<path d="M209.897 91.6381C206.299 89.5648 202.873 88.4514 199.772 88.2018C196.518 63.0729 179.139 35.2372 158.142 23.0854C140.208 12.6998 124.915 16.8272 118.809 31.5513C116.168 29.1133 113.354 26.9824 110.445 25.2931C94.2522 15.9249 81.1221 23.527 81.1221 42.2825C81.1221 61.0572 94.2522 83.8633 110.464 93.2506L209.897 150.842C224.003 159.02 235.449 152.397 235.449 136.041C235.449 119.685 224.003 99.816 209.897 91.6381Z" fill="#3D0F9A" stroke="#3D0F9A" stroke-width="1.1221" stroke-linecap="round" stroke-linejoin="round"/>
</g>
<path d="M164.212 102.624L152.521 80.0603L157.688 83.0529V60.748L170.736 68.2894V90.5742L175.903 93.5668L164.212 102.624Z" fill="white"/>
<path d="M140.594 49.6526L132.235 55.957L134.29 57.0942L134.649 79.3391L147.597 86.5413L147.238 64.2964L149.293 65.4335L140.594 49.6526Z" fill="#FF5A00"/>
<g clip-path="url(#clip1_75_1300)">
<path d="M182.688 201.279C182.634 201.279 182.584 201.264 182.535 201.239L122.207 166.409C121.097 165.768 120.485 164.894 120.485 163.957C120.485 163.019 121.097 162.146 122.207 161.504L161.493 138.824C162.406 138.296 162.909 137.615 162.909 136.904C162.909 136.194 162.406 135.513 161.493 134.985L94.972 96.5673C92.9685 95.4125 89.7066 95.4125 87.703 96.5673L65.3929 109.447C64.4799 109.975 63.9766 110.656 63.9766 111.367C63.9766 112.077 64.4799 112.758 65.3929 113.286L98.5596 132.433C99.6699 133.075 100.282 133.948 100.282 134.886C100.282 135.824 99.6699 136.697 98.5596 137.338L48.9699 165.97C46.7936 167.228 43.2554 167.228 41.0841 165.97L8.15427 146.966C8.00622 146.882 7.95687 146.69 8.04077 146.547C8.12466 146.399 8.31218 146.349 8.46516 146.433L41.395 165.442C43.3985 166.597 46.6604 166.597 48.6639 165.442L98.2536 136.81C99.1665 136.282 99.6699 135.601 99.6699 134.891C99.6699 134.18 99.1665 133.499 98.2536 132.971L65.0869 113.824C63.9766 113.183 63.3647 112.309 63.3647 111.372C63.3647 110.434 63.9766 109.561 65.0869 108.919L87.3971 96.0343C89.5684 94.7809 93.1116 94.7809 95.2829 96.0343L161.804 134.442C162.914 135.083 163.526 135.957 163.526 136.899C163.526 137.842 162.914 138.71 161.804 139.352L122.518 162.032C121.605 162.56 121.102 163.241 121.102 163.952C121.102 164.662 121.605 165.343 122.518 165.871L182.846 200.701C182.994 200.785 183.043 200.978 182.959 201.126C182.9 201.224 182.796 201.279 182.693 201.279H182.688Z" fill="#3D0F9A" stroke="#3D0F9A" stroke-width="0.5"/>
</g>
<path d="M18.6727 147.456L18.0889 145.061H16.6977C15.1864 144.088 12.9823 143.466 10.5217 143.466C8.06114 143.466 5.857 144.082 4.34575 145.061H3.00908L2.37075 147.429H2.38166C2.31074 147.678 2.26709 147.927 2.26709 148.186C2.26709 150.793 5.96612 152.901 10.5217 152.901C15.0773 152.901 18.7763 150.793 18.7763 148.186C18.7763 147.938 18.7327 147.7 18.6672 147.462L18.6727 147.456Z" fill="#3D0F9A"/>
<path d="M10.5274 153.166C5.82451 153.166 2 150.928 2 148.181C2 148.024 2.01637 147.867 2.04365 147.694H2.03273L2.11457 147.353L2.80746 144.785H4.27507C5.88452 143.774 8.15959 143.19 10.5329 143.19C12.9061 143.19 15.1757 143.769 16.7907 144.785H18.3183L18.9511 147.391C19.0275 147.683 19.0657 147.932 19.0657 148.181C19.0657 150.928 15.2412 153.166 10.5383 153.166H10.5274ZM2.73108 147.159L2.64378 147.505C2.57286 147.754 2.54012 147.975 2.54012 148.186C2.54012 150.636 6.11912 152.631 10.5219 152.631C14.9248 152.631 18.5038 150.636 18.5038 148.186C18.5038 147.986 18.471 147.781 18.4056 147.532L17.8764 145.337H16.6215L16.5561 145.293C15.0284 144.309 12.8297 143.747 10.5274 143.747C8.22506 143.747 6.02637 144.309 4.49875 145.293L4.43328 145.337H3.2221L2.73108 147.164V147.159Z" fill="#3D0F9A"/>
<path d="M18.1549 145.607C18.1549 148.002 14.7505 149.949 10.555 149.949C6.35949 149.949 2.95508 148.008 2.95508 145.607C2.95508 143.206 6.35949 141.265 10.555 141.265C14.7505 141.265 18.1549 143.206 18.1549 145.607Z" fill="white"/>
<path d="M18.0675 146.84C18.0675 149.235 14.6631 151.182 10.4676 151.182C6.27209 151.182 2.86768 149.241 2.86768 146.84C2.86768 144.439 6.27209 142.498 10.4676 142.498C14.6631 142.498 18.0675 144.439 18.0675 146.84Z" fill="white"/>
<path d="M10.5548 141C6.21203 141 2.68213 143.071 2.68213 145.612C2.68213 148.154 6.21203 150.225 10.5548 150.225C14.8976 150.225 18.4275 148.154 18.4275 145.612C18.4275 143.071 14.8976 141 10.5548 141ZM10.5548 149.684C6.5121 149.684 3.22771 147.856 3.22771 145.612C3.22771 143.368 6.51755 141.541 10.5548 141.541C14.5921 141.541 17.882 143.368 17.882 145.612C17.882 147.856 14.5921 149.684 10.5548 149.684Z" fill="#3D0F9A"/>
<path d="M10.5273 143.32C8.39412 143.32 6.65918 144.228 6.65918 145.353C6.65918 146.478 8.38867 147.386 10.5273 147.386C12.666 147.386 14.3955 146.478 14.3955 145.353C14.3955 144.228 12.666 143.32 10.5273 143.32Z" fill="#3D0F9A"/>
<g clip-path="url(#clip2_75_1300)">
<path d="M186.595 217.094C188.46 218.173 188.468 219.912 186.619 220.983L179.092 225.348L86.7178 172.169L94.2447 167.805C96.0941 166.734 99.1146 166.734 100.972 167.805L186.587 217.094H186.595Z" fill="#3D0F9A"/>
<path d="M86.7182 172.169L179.084 225.34L129.756 253.926C127.898 255.005 124.886 255.005 123.02 253.926L37.4056 204.645C35.5481 203.574 35.532 201.827 37.3895 200.756L86.7182 172.169Z" fill="#3D0F9A"/>
<path d="M121.324 201.344L119.362 203.389C116.785 202.737 113.983 203.059 110.979 204.38L106.65 206.272C104.146 207.287 101.311 207.496 98.1537 206.908C98.3556 207.673 98.2103 208.406 97.7095 209.107C97.2008 209.807 96.3689 210.443 95.1817 211.015L90.756 212.98L89.7465 213.487C87.8809 214.477 87.3075 215.516 88.0182 216.611L84.3355 217.57C83.1645 216.217 82.8092 214.912 83.2857 213.656C83.7621 212.392 85.0543 211.265 87.146 210.274L91.0145 208.575C91.5394 208.342 91.9755 208.1 92.3389 207.85C93.4777 207.061 93.405 206.232 92.1451 205.362L95.8924 203.558C98.0407 204.694 100.447 204.67 103.153 203.494L107.49 201.594C111.738 199.894 116.357 199.814 121.332 201.352L121.324 201.344Z" fill="#3D0F9A"/>
<rect width="10.8467" height="6.82943" rx="1.5589" transform="matrix(-0.865969 -0.500098 0.865969 -0.500098 145.007 218.84)" fill="white"/>
<rect width="10.8467" height="6.82943" rx="1.5589" transform="matrix(-0.865969 -0.500098 0.865969 -0.500098 142.171 234.429)" fill="#FF5A00"/>
<rect width="10.8467" height="6.82943" rx="1.5589" transform="matrix(-0.865969 -0.500098 0.865969 -0.500098 137.354 223.26)" fill="white"/>
<rect width="10.8467" height="6.82943" rx="1.5589" transform="matrix(-0.865969 -0.500098 0.865969 -0.500098 134.518 238.849)" fill="white"/>
<rect width="10.8467" height="6.82943" rx="1.5589" transform="matrix(-0.865969 -0.500098 0.865969 -0.500098 129.7 227.68)" fill="white"/>
<rect width="10.8467" height="6.82943" rx="1.5589" transform="matrix(-0.865969 -0.500098 0.865969 -0.500098 126.864 243.269)" fill="white"/>
<rect width="10.8467" height="6.82943" rx="1.5589" transform="matrix(-0.865969 -0.500098 0.865969 -0.500098 122.046 232.1)" fill="white"/>
<rect width="10.8467" height="6.82943" rx="1.5589" transform="matrix(-0.865969 -0.500098 0.865969 -0.500098 114.393 236.52)" fill="white"/>
</g>
<path d="M110.741 187.731L102.442 192.535C96.0837 188.879 85.8176 188.879 79.5056 192.535C77.6445 193.611 76.3397 194.884 75.5912 196.25L64.3647 194.132C65.6695 191.796 67.9413 189.592 71.147 187.738C82.0423 181.429 99.7663 181.429 110.741 187.738V187.731Z" fill="#FDFFFF"/>
<path d="M75.5844 196.25L75.5778 198.936L64.3579 196.818L64.3645 194.125L75.5844 196.25Z" fill="#C2E8F2"/>
<path d="M74.7832 201.814V199.121C74.7964 198.151 75.0614 197.181 75.5846 196.244V198.936C75.0481 199.867 74.7832 200.844 74.7832 201.814Z" fill="#206096"/>
<path d="M96.1829 208.023L99.9649 214.483C90.2418 216.35 79.0551 215.05 71.2793 210.576C63.5301 206.129 61.2318 199.728 64.3646 194.125L75.5911 196.244C73.7565 199.484 75.0944 203.186 79.585 205.772C84.0888 208.366 90.5598 209.111 96.1896 208.023H96.1829Z" fill="white"/>
<path d="M15.692 204.273C13.9449 205.248 11.0877 205.239 9.33088 204.264C7.56444 203.289 7.5548 201.701 9.31159 200.727C11.0587 199.752 13.9159 199.761 15.6727 200.736C17.4295 201.711 17.4488 203.299 15.692 204.273Z" fill="#3D0F9A"/>
<path d="M175.46 183.403V190.358L150 175.9V168.945L175.46 183.403Z" fill="#3D0F9A" stroke="#3D0F9A" stroke-linecap="round" stroke-linejoin="round"/>
<path d="M175.459 183.403V190.358L200.919 175.9V168.945L175.459 183.403Z" fill="white" stroke="#3D0F9A" stroke-linecap="round" stroke-linejoin="round"/>
<path d="M200.92 168.945L175.46 183.404L150 168.945L175.46 154.486L200.92 168.945Z" fill="white" stroke="#3D0F9A" stroke-linecap="round" stroke-linejoin="round"/>
<path d="M175.46 172.237V179.192L150 164.734V157.779L175.46 172.237Z" fill="#3D0F9A" stroke="#3D0F9A" stroke-linecap="round" stroke-linejoin="round"/>
<path d="M175.459 172.237V179.192L200.919 164.734V157.779L175.459 172.237Z" fill="white" stroke="#3D0F9A" stroke-linecap="round" stroke-linejoin="round"/>
<path d="M200.92 157.779L175.46 172.238L150 157.779L175.46 143.332L200.92 157.779Z" fill="white" stroke="#3D0F9A" stroke-linecap="round" stroke-linejoin="round"/>
<path d="M175.46 161.083V168.038L150 153.579V146.624L175.46 161.083Z" fill="#3D0F9A" stroke="#3D0F9A" stroke-linecap="round" stroke-linejoin="round"/>
<path d="M175.459 161.083V168.038L200.919 153.579V146.624L175.459 161.083Z" fill="white" stroke="#3D0F9A" stroke-linecap="round" stroke-linejoin="round"/>
<path d="M200.92 146.624L175.46 161.083L150 146.624L175.46 132.166L200.92 146.624Z" fill="white" stroke="#3D0F9A" stroke-linecap="round" stroke-linejoin="round"/>
<path d="M175.46 149.917V156.872L150 142.413V135.458L175.46 149.917Z" fill="#3D0F9A" stroke="#3D0F9A" stroke-linecap="round" stroke-linejoin="round"/>
<path d="M175.459 149.917V156.872L200.919 142.413V135.458L175.459 149.917Z" fill="white" stroke="#3D0F9A" stroke-linecap="round" stroke-linejoin="round"/>
<path d="M200.92 135.459L175.46 149.917L150 135.459L175.46 121L200.92 135.459Z" fill="white" stroke="#3D0F9A" stroke-linecap="round" stroke-linejoin="round"/>
<path d="M168.48 134.943C169.084 134.943 169.573 134.668 169.573 134.327C169.573 133.987 169.084 133.711 168.48 133.711C167.877 133.711 167.387 133.987 167.387 134.327C167.387 134.668 167.877 134.943 168.48 134.943Z" fill="#3D0F9A"/>
<path d="M170.974 133.532C171.578 133.532 172.067 133.257 172.067 132.917C172.067 132.576 171.578 132.301 170.974 132.301C170.37 132.301 169.881 132.576 169.881 132.917C169.881 133.257 170.37 133.532 170.974 133.532Z" fill="#3D0F9A"/>
<path d="M173.467 132.11C174.071 132.11 174.56 131.834 174.56 131.494C174.56 131.154 174.071 130.878 173.467 130.878C172.863 130.878 172.374 131.154 172.374 131.494C172.374 131.834 172.863 132.11 173.467 132.11Z" fill="#3D0F9A"/>
<path d="M171.475 136.646C172.079 136.646 172.568 136.37 172.568 136.03C172.568 135.69 172.079 135.414 171.475 135.414C170.871 135.414 170.382 135.69 170.382 136.03C170.382 136.37 170.871 136.646 171.475 136.646Z" fill="#3D0F9A"/>
<path d="M173.969 135.223C174.572 135.223 175.062 134.947 175.062 134.607C175.062 134.267 174.572 133.991 173.969 133.991C173.365 133.991 172.875 134.267 172.875 134.607C172.875 134.947 173.365 135.223 173.969 135.223Z" fill="#3D0F9A"/>
<path d="M176.462 133.812C177.066 133.812 177.555 133.536 177.555 133.196C177.555 132.856 177.066 132.58 176.462 132.58C175.859 132.58 175.369 132.856 175.369 133.196C175.369 133.536 175.859 133.812 176.462 133.812Z" fill="#3D0F9A"/>
<path d="M174.458 138.337C175.062 138.337 175.551 138.061 175.551 137.721C175.551 137.381 175.062 137.105 174.458 137.105C173.854 137.105 173.365 137.381 173.365 137.721C173.365 138.061 173.854 138.337 174.458 138.337Z" fill="#3D0F9A"/>
<path d="M176.952 136.926C177.556 136.926 178.045 136.65 178.045 136.31C178.045 135.97 177.556 135.694 176.952 135.694C176.348 135.694 175.859 135.97 175.859 136.31C175.859 136.65 176.348 136.926 176.952 136.926Z" fill="#3D0F9A"/>
<path d="M179.445 135.503C180.049 135.503 180.538 135.227 180.538 134.887C180.538 134.547 180.049 134.271 179.445 134.271C178.841 134.271 178.352 134.547 178.352 134.887C178.352 135.227 178.841 135.503 179.445 135.503Z" fill="#3D0F9A"/>
<path d="M177.452 140.039C178.056 140.039 178.546 139.764 178.546 139.423C178.546 139.083 178.056 138.807 177.452 138.807C176.849 138.807 176.359 139.083 176.359 139.423C176.359 139.764 176.849 140.039 177.452 140.039Z" fill="#3D0F9A"/>
<path d="M179.947 138.617C180.55 138.617 181.04 138.341 181.04 138.001C181.04 137.661 180.55 137.385 179.947 137.385C179.343 137.385 178.854 137.661 178.854 138.001C178.854 138.341 179.343 138.617 179.947 138.617Z" fill="#3D0F9A"/>
<path d="M182.44 137.206C183.043 137.206 183.533 136.93 183.533 136.59C183.533 136.249 183.043 135.974 182.44 135.974C181.836 135.974 181.347 136.249 181.347 136.59C181.347 136.93 181.836 137.206 182.44 137.206Z" fill="#3D0F9A"/>
<path d="M172.574 152.452C172.944 152.241 172.943 151.558 172.572 150.926C172.201 150.294 171.6 149.952 171.23 150.163C170.86 150.373 170.86 151.056 171.231 151.688C171.602 152.32 172.203 152.662 172.574 152.452Z" fill="white"/>
<path d="M172.562 163.899C172.933 163.689 172.932 163.006 172.561 162.374C172.19 161.742 171.589 161.4 171.219 161.61C170.849 161.82 170.849 162.503 171.22 163.135C171.591 163.767 172.192 164.109 172.562 163.899Z" fill="white"/>
<path d="M172.568 175.178C172.938 174.967 172.938 174.285 172.567 173.652C172.196 173.02 171.595 172.678 171.224 172.889C170.854 173.099 170.854 173.782 171.226 174.414C171.597 175.046 172.198 175.388 172.568 175.178Z" fill="white"/>
<path d="M172.568 186.555C172.938 186.344 172.938 185.661 172.567 185.029C172.196 184.397 171.595 184.055 171.224 184.266C170.854 184.476 170.854 185.159 171.226 185.791C171.597 186.423 172.198 186.765 172.568 186.555Z" fill="white"/>
<path d="M154.303 142.072C154.674 141.861 154.673 141.178 154.302 140.546C153.931 139.914 153.33 139.572 152.96 139.783C152.589 139.993 152.59 140.676 152.961 141.308C153.332 141.94 153.933 142.282 154.303 142.072Z" fill="white"/>
<path d="M154.303 153.519C154.674 153.308 154.673 152.625 154.302 151.993C153.931 151.361 153.33 151.019 152.96 151.23C152.589 151.44 152.59 152.123 152.961 152.755C153.332 153.387 153.933 153.729 154.303 153.519Z" fill="white"/>
<path d="M154.309 164.797C154.679 164.587 154.679 163.904 154.308 163.272C153.937 162.64 153.336 162.298 152.965 162.508C152.595 162.718 152.596 163.401 152.967 164.033C153.338 164.665 153.939 165.007 154.309 164.797Z" fill="white"/>
<path d="M154.309 176.175C154.679 175.964 154.679 175.282 154.308 174.65C153.937 174.017 153.336 173.676 152.965 173.886C152.595 174.096 152.596 174.779 152.967 175.411C153.338 176.043 153.939 176.385 154.309 176.175Z" fill="white"/>
<path d="M168.059 160.165L157.344 154.084C157.116 153.949 156.923 154.061 156.923 154.319C156.923 154.576 157.105 154.901 157.344 155.024L168.059 161.106C168.286 161.24 168.48 161.128 168.48 160.871C168.48 160.613 168.298 160.288 168.059 160.165Z" fill="white"/>
<path d="M168.059 171.32L157.344 165.238C157.116 165.104 156.923 165.216 156.923 165.474C156.923 165.731 157.105 166.056 157.344 166.179L168.059 172.26C168.286 172.395 168.48 172.283 168.48 172.025C168.48 171.768 168.298 171.443 168.059 171.32Z" fill="white"/>
<path d="M168.059 182.799L157.344 176.718C157.116 176.583 156.923 176.695 156.923 176.953C156.923 177.211 157.105 177.535 157.344 177.659L168.059 183.74C168.286 183.874 168.48 183.762 168.48 183.505C168.48 183.247 168.298 182.922 168.059 182.799Z" fill="white"/>
<path d="M168.059 148.506L157.344 142.424C157.116 142.29 156.923 142.402 156.923 142.66C156.923 142.917 157.105 143.242 157.344 143.365L168.059 149.447C168.286 149.581 168.48 149.469 168.48 149.211C168.48 148.954 168.298 148.629 168.059 148.506Z" fill="white"/>
<path d="M222.54 203.403V210.358L197.081 195.9V188.945L222.54 203.403Z" fill="#3D0F9A" stroke="#3D0F9A" stroke-linecap="round" stroke-linejoin="round"/>
<path d="M222.541 203.403V210.358L248 195.9V188.945L222.541 203.403Z" fill="white" stroke="#3D0F9A" stroke-linecap="round" stroke-linejoin="round"/>
<path d="M248 188.945L222.54 203.404L197.081 188.945L222.54 174.486L248 188.945Z" fill="white" stroke="#3D0F9A" stroke-linecap="round" stroke-linejoin="round"/>
<path d="M222.54 192.237V199.192L197.081 184.734V177.779L222.54 192.237Z" fill="#3D0F9A" stroke="#3D0F9A" stroke-linecap="round" stroke-linejoin="round"/>
<path d="M222.541 192.237V199.192L248 184.734V177.779L222.541 192.237Z" fill="white" stroke="#3D0F9A" stroke-linecap="round" stroke-linejoin="round"/>
<path d="M248 177.779L222.54 192.238L197.081 177.779L222.54 163.332L248 177.779Z" fill="white" stroke="#3D0F9A" stroke-linecap="round" stroke-linejoin="round"/>
<path d="M222.54 181.083V188.038L197.081 173.579V166.624L222.54 181.083Z" fill="#3D0F9A" stroke="#3D0F9A" stroke-linecap="round" stroke-linejoin="round"/>
<path d="M222.541 181.083V188.038L248 173.579V166.624L222.541 181.083Z" fill="white" stroke="#3D0F9A" stroke-linecap="round" stroke-linejoin="round"/>
<path d="M248 166.624L222.54 181.083L197.081 166.624L222.54 152.166L248 166.624Z" fill="white" stroke="#3D0F9A" stroke-linecap="round" stroke-linejoin="round"/>
<path d="M222.54 169.917V176.872L197.081 162.413V155.458L222.54 169.917Z" fill="#3D0F9A" stroke="#3D0F9A" stroke-linecap="round" stroke-linejoin="round"/>
<path d="M222.541 169.917V176.872L248 162.413V155.458L222.541 169.917Z" fill="white" stroke="#3D0F9A" stroke-linecap="round" stroke-linejoin="round"/>
<path d="M248 155.459L222.54 169.917L197.081 155.459L222.54 141L248 155.459Z" fill="white" stroke="#3D0F9A" stroke-linecap="round" stroke-linejoin="round"/>
<path d="M215.561 154.943C216.165 154.943 216.654 154.668 216.654 154.327C216.654 153.987 216.165 153.711 215.561 153.711C214.957 153.711 214.468 153.987 214.468 154.327C214.468 154.668 214.957 154.943 215.561 154.943Z" fill="#3D0F9A"/>
<path d="M218.055 153.532C218.658 153.532 219.148 153.256 219.148 152.916C219.148 152.576 218.658 152.3 218.055 152.3C217.451 152.3 216.961 152.576 216.961 152.916C216.961 153.256 217.451 153.532 218.055 153.532Z" fill="#3D0F9A"/>
<path d="M220.548 152.11C221.151 152.11 221.641 151.834 221.641 151.494C221.641 151.154 221.151 150.878 220.548 150.878C219.944 150.878 219.455 151.154 219.455 151.494C219.455 151.834 219.944 152.11 220.548 152.11Z" fill="#3D0F9A"/>
<path d="M218.555 156.646C219.159 156.646 219.649 156.37 219.649 156.03C219.649 155.69 219.159 155.414 218.555 155.414C217.952 155.414 217.462 155.69 217.462 156.03C217.462 156.37 217.952 156.646 218.555 156.646Z" fill="#3D0F9A"/>
<path d="M221.049 155.223C221.653 155.223 222.142 154.947 222.142 154.607C222.142 154.267 221.653 153.991 221.049 153.991C220.445 153.991 219.956 154.267 219.956 154.607C219.956 154.947 220.445 155.223 221.049 155.223Z" fill="#3D0F9A"/>
<path d="M223.543 153.812C224.146 153.812 224.636 153.536 224.636 153.196C224.636 152.856 224.146 152.58 223.543 152.58C222.939 152.58 222.45 152.856 222.45 153.196C222.45 153.536 222.939 153.812 223.543 153.812Z" fill="#3D0F9A"/>
<path d="M221.538 158.337C222.142 158.337 222.631 158.061 222.631 157.721C222.631 157.381 222.142 157.105 221.538 157.105C220.935 157.105 220.445 157.381 220.445 157.721C220.445 158.061 220.935 158.337 221.538 158.337Z" fill="#3D0F9A"/>
<path d="M224.033 156.926C224.636 156.926 225.126 156.65 225.126 156.31C225.126 155.97 224.636 155.694 224.033 155.694C223.429 155.694 222.939 155.97 222.939 156.31C222.939 156.65 223.429 156.926 224.033 156.926Z" fill="#3D0F9A"/>
<path d="M226.526 155.503C227.129 155.503 227.619 155.228 227.619 154.887C227.619 154.547 227.129 154.271 226.526 154.271C225.922 154.271 225.433 154.547 225.433 154.887C225.433 155.228 225.922 155.503 226.526 155.503Z" fill="#3D0F9A"/>
<path d="M224.533 160.039C225.137 160.039 225.626 159.763 225.626 159.423C225.626 159.083 225.137 158.807 224.533 158.807C223.929 158.807 223.44 159.083 223.44 159.423C223.44 159.763 223.929 160.039 224.533 160.039Z" fill="#3D0F9A"/>
<path d="M227.027 158.617C227.631 158.617 228.12 158.341 228.12 158.001C228.12 157.661 227.631 157.385 227.027 157.385C226.423 157.385 225.934 157.661 225.934 158.001C225.934 158.341 226.423 158.617 227.027 158.617Z" fill="#3D0F9A"/>
<path d="M229.52 157.206C230.124 157.206 230.613 156.93 230.613 156.59C230.613 156.249 230.124 155.974 229.52 155.974C228.917 155.974 228.427 156.249 228.427 156.59C228.427 156.93 228.917 157.206 229.52 157.206Z" fill="#3D0F9A"/>
<path d="M219.654 172.452C220.025 172.241 220.024 171.558 219.653 170.926C219.282 170.294 218.681 169.952 218.311 170.163C217.94 170.373 217.941 171.056 218.312 171.688C218.683 172.32 219.284 172.662 219.654 172.452Z" fill="white"/>
<path d="M219.643 183.899C220.013 183.689 220.013 183.006 219.642 182.374C219.271 181.742 218.67 181.4 218.299 181.61C217.929 181.82 217.93 182.503 218.301 183.135C218.672 183.767 219.273 184.109 219.643 183.899Z" fill="white"/>
<path d="M219.648 195.178C220.019 194.967 220.018 194.285 219.647 193.652C219.276 193.02 218.675 192.678 218.305 192.889C217.934 193.099 217.935 193.782 218.306 194.414C218.677 195.046 219.278 195.388 219.648 195.178Z" fill="white"/>
<path d="M219.648 206.555C220.019 206.344 220.018 205.661 219.647 205.029C219.276 204.397 218.675 204.055 218.305 204.266C217.934 204.476 217.935 205.159 218.306 205.791C218.677 206.423 219.278 206.765 219.648 206.555Z" fill="white"/>
<path d="M201.384 162.071C201.754 161.861 201.754 161.178 201.382 160.546C201.011 159.914 200.41 159.572 200.04 159.782C199.67 159.993 199.67 160.675 200.041 161.308C200.412 161.94 201.013 162.282 201.384 162.071Z" fill="white"/>
<path d="M201.384 173.519C201.754 173.308 201.754 172.625 201.382 171.993C201.011 171.361 200.41 171.019 200.04 171.23C199.67 171.44 199.67 172.123 200.041 172.755C200.412 173.387 201.013 173.729 201.384 173.519Z" fill="white"/>
<path d="M201.39 184.797C201.76 184.587 201.759 183.904 201.388 183.272C201.017 182.64 200.416 182.298 200.046 182.508C199.676 182.718 199.676 183.401 200.047 184.033C200.418 184.665 201.019 185.007 201.39 184.797Z" fill="white"/>
<path d="M201.39 196.175C201.76 195.964 201.759 195.282 201.388 194.65C201.017 194.017 200.416 193.676 200.046 193.886C199.676 194.096 199.676 194.779 200.047 195.411C200.418 196.043 201.019 196.385 201.39 196.175Z" fill="white"/>
<path d="M215.14 180.164L204.425 174.083C204.197 173.949 204.004 174.061 204.004 174.318C204.004 174.576 204.186 174.901 204.425 175.024L215.14 181.105C215.367 181.24 215.561 181.128 215.561 180.87C215.561 180.612 215.379 180.288 215.14 180.164Z" fill="white"/>
<path d="M215.14 191.32L204.425 185.238C204.197 185.104 204.004 185.216 204.004 185.474C204.004 185.731 204.186 186.056 204.425 186.179L215.14 192.26C215.367 192.395 215.561 192.283 215.561 192.025C215.561 191.768 215.379 191.443 215.14 191.32Z" fill="white"/>
<path d="M215.14 202.799L204.425 196.718C204.197 196.583 204.004 196.695 204.004 196.953C204.004 197.211 204.186 197.535 204.425 197.659L215.14 203.74C215.367 203.874 215.561 203.762 215.561 203.505C215.561 203.247 215.379 202.922 215.14 202.799Z" fill="white"/>
<path d="M215.14 168.506L204.425 162.424C204.197 162.29 204.004 162.402 204.004 162.66C204.004 162.917 204.186 163.242 204.425 163.365L215.14 169.447C215.367 169.581 215.561 169.469 215.561 169.211C215.561 168.954 215.379 168.629 215.14 168.506Z" fill="white"/>
<path d="M191.673 200.456L191.089 198.061H189.698C188.186 197.088 185.982 196.466 183.522 196.466C181.061 196.466 178.857 197.082 177.346 198.061H176.009L175.371 200.429H175.382C175.311 200.678 175.267 200.927 175.267 201.186C175.267 203.793 178.966 205.901 183.522 205.901C188.077 205.901 191.776 203.793 191.776 201.186C191.776 200.938 191.733 200.7 191.667 200.462L191.673 200.456Z" fill="#3D0F9A"/>
<path d="M183.527 206.166C178.825 206.166 175 203.928 175 201.181C175 201.024 175.016 200.867 175.044 200.694H175.033L175.115 200.353L175.807 197.785H177.275C178.885 196.774 181.16 196.19 183.533 196.19C185.906 196.19 188.176 196.769 189.791 197.785H191.318L191.951 200.391C192.028 200.683 192.066 200.932 192.066 201.181C192.066 203.928 188.241 206.166 183.538 206.166H183.527ZM175.731 200.159L175.644 200.505C175.573 200.754 175.54 200.975 175.54 201.186C175.54 203.636 179.119 205.631 183.522 205.631C187.925 205.631 191.504 203.636 191.504 201.186C191.504 200.986 191.471 200.781 191.406 200.532L190.876 198.337H189.622L189.556 198.293C188.028 197.309 185.83 196.747 183.527 196.747C181.225 196.747 179.026 197.309 177.499 198.293L177.433 198.337H176.222L175.731 200.164V200.159Z" fill="#3D0F9A"/>
<path d="M191.155 198.607C191.155 201.002 187.751 202.949 183.555 202.949C179.359 202.949 175.955 201.008 175.955 198.607C175.955 196.206 179.359 194.265 183.555 194.265C187.751 194.265 191.155 196.206 191.155 198.607Z" fill="white"/>
<path d="M191.068 199.84C191.068 202.235 187.663 204.182 183.468 204.182C179.272 204.182 175.868 202.241 175.868 199.84C175.868 197.439 179.272 195.498 183.468 195.498C187.663 195.498 191.068 197.439 191.068 199.84Z" fill="white"/>
<path d="M183.555 194C179.212 194 175.682 196.071 175.682 198.612C175.682 201.154 179.212 203.225 183.555 203.225C187.898 203.225 191.428 201.154 191.428 198.612C191.428 196.071 187.898 194 183.555 194ZM183.555 202.684C179.512 202.684 176.228 200.856 176.228 198.612C176.228 196.368 179.518 194.541 183.555 194.541C187.592 194.541 190.882 196.368 190.882 198.612C190.882 200.856 187.592 202.684 183.555 202.684Z" fill="#3D0F9A" stroke="#3D0F9A" stroke-width="0.5"/>
<path d="M183.527 196.32C181.394 196.32 179.659 197.228 179.659 198.353C179.659 199.478 181.389 200.386 183.527 200.386C185.666 200.386 187.395 199.478 187.395 198.353C187.395 197.228 185.666 196.32 183.527 196.32Z" fill="#3D0F9A"/>
<path d="M73.4598 106.403V113.358L48 98.8995V91.9446L73.4598 106.403Z" fill="#3D0F9A" stroke="#3D0F9A" stroke-linecap="round" stroke-linejoin="round"/>
<path d="M73.4595 106.403V113.358L98.9192 98.8995V91.9446L73.4595 106.403Z" fill="white" stroke="#3D0F9A" stroke-linecap="round" stroke-linejoin="round"/>
<path d="M98.9195 91.9447L73.4598 106.403L48 91.9447L73.4598 77.4861L98.9195 91.9447Z" fill="white" stroke="#3D0F9A" stroke-linecap="round" stroke-linejoin="round"/>
<path d="M73.4598 95.2374V102.192L48 87.7337V80.7788L73.4598 95.2374Z" fill="#3D0F9A" stroke="#3D0F9A" stroke-linecap="round" stroke-linejoin="round"/>
<path d="M73.4595 95.2374V102.192L98.9192 87.7337V80.7788L73.4595 95.2374Z" fill="white" stroke="#3D0F9A" stroke-linecap="round" stroke-linejoin="round"/>
<path d="M98.9195 80.779L73.4598 95.2376L48 80.779L73.4598 66.3315L98.9195 80.779Z" fill="white" stroke="#3D0F9A" stroke-linecap="round" stroke-linejoin="round"/>
<path d="M73.4598 84.0824V91.0373L48 76.5787V69.6238L73.4598 84.0824Z" fill="#3D0F9A" stroke="#3D0F9A" stroke-linecap="round" stroke-linejoin="round"/>
<path d="M73.4595 84.0824V91.0373L98.9192 76.5787V69.6238L73.4595 84.0824Z" fill="white" stroke="#3D0F9A" stroke-linecap="round" stroke-linejoin="round"/>
<path d="M98.9195 69.6241L73.4598 84.0828L48 69.6241L73.4598 55.1655L98.9195 69.6241Z" fill="white" stroke="#3D0F9A" stroke-linecap="round" stroke-linejoin="round"/>
<path d="M73.4598 72.9169V79.8718L48 65.4132V58.4583L73.4598 72.9169Z" fill="#3D0F9A" stroke="#3D0F9A" stroke-linecap="round" stroke-linejoin="round"/>
<path d="M73.4595 72.9169V79.8718L98.9192 65.4132V58.4583L73.4595 72.9169Z" fill="white" stroke="#3D0F9A" stroke-linecap="round" stroke-linejoin="round"/>
<path d="M98.9195 58.4586L73.4598 72.9172L48 58.4586L73.4598 44L98.9195 58.4586Z" fill="white" stroke="#3D0F9A" stroke-linecap="round" stroke-linejoin="round"/>
<path d="M66.4803 57.9434C67.084 57.9434 67.5734 57.6676 67.5734 57.3274C67.5734 56.9872 67.084 56.7114 66.4803 56.7114C65.8766 56.7114 65.3872 56.9872 65.3872 57.3274C65.3872 57.6676 65.8766 57.9434 66.4803 57.9434Z" fill="#3D0F9A"/>
<path d="M68.9739 56.5325C69.5776 56.5325 70.067 56.2567 70.067 55.9165C70.067 55.5763 69.5776 55.3005 68.9739 55.3005C68.3703 55.3005 67.8809 55.5763 67.8809 55.9165C67.8809 56.2567 68.3703 56.5325 68.9739 56.5325Z" fill="#3D0F9A"/>
<path d="M71.4671 55.1099C72.0708 55.1099 72.5602 54.8341 72.5602 54.4939C72.5602 54.1537 72.0708 53.8779 71.4671 53.8779C70.8634 53.8779 70.374 54.1537 70.374 54.4939C70.374 54.8341 70.8634 55.1099 71.4671 55.1099Z" fill="#3D0F9A"/>
<path d="M69.4749 59.6458C70.0786 59.6458 70.568 59.37 70.568 59.0298C70.568 58.6896 70.0786 58.4138 69.4749 58.4138C68.8712 58.4138 68.3818 58.6896 68.3818 59.0298C68.3818 59.37 68.8712 59.6458 69.4749 59.6458Z" fill="#3D0F9A"/>
<path d="M71.9686 58.2232C72.5723 58.2232 73.0617 57.9474 73.0617 57.6072C73.0617 57.267 72.5723 56.9912 71.9686 56.9912C71.3649 56.9912 70.8755 57.267 70.8755 57.6072C70.8755 57.9474 71.3649 58.2232 71.9686 58.2232Z" fill="#3D0F9A"/>
<path d="M74.4622 56.8123C75.0659 56.8123 75.5553 56.5365 75.5553 56.1963C75.5553 55.8561 75.0659 55.5803 74.4622 55.5803C73.8585 55.5803 73.3691 55.8561 73.3691 56.1963C73.3691 56.5365 73.8585 56.8123 74.4622 56.8123Z" fill="#3D0F9A"/>
<path d="M72.4578 61.3369C73.0615 61.3369 73.5509 61.0611 73.5509 60.721C73.5509 60.3808 73.0615 60.105 72.4578 60.105C71.8541 60.105 71.3647 60.3808 71.3647 60.721C71.3647 61.0611 71.8541 61.3369 72.4578 61.3369Z" fill="#3D0F9A"/>
<path d="M74.952 59.9258C75.5557 59.9258 76.0451 59.65 76.0451 59.3098C76.0451 58.9696 75.5557 58.6938 74.952 58.6938C74.3483 58.6938 73.8589 58.9696 73.8589 59.3098C73.8589 59.65 74.3483 59.9258 74.952 59.9258Z" fill="#3D0F9A"/>
<path d="M77.4451 58.5032C78.0488 58.5032 78.5382 58.2274 78.5382 57.8872C78.5382 57.547 78.0488 57.2712 77.4451 57.2712C76.8414 57.2712 76.3521 57.547 76.3521 57.8872C76.3521 58.2274 76.8414 58.5032 77.4451 58.5032Z" fill="#3D0F9A"/>
<path d="M75.4525 63.0393C76.0562 63.0393 76.5455 62.7635 76.5455 62.4233C76.5455 62.0832 76.0562 61.8074 75.4525 61.8074C74.8488 61.8074 74.3594 62.0832 74.3594 62.4233C74.3594 62.7635 74.8488 63.0393 75.4525 63.0393Z" fill="#3D0F9A"/>
<path d="M77.9466 61.617C78.5503 61.617 79.0397 61.3412 79.0397 61.001C79.0397 60.6608 78.5503 60.385 77.9466 60.385C77.3429 60.385 76.8535 60.6608 76.8535 61.001C76.8535 61.3412 77.3429 61.617 77.9466 61.617Z" fill="#3D0F9A"/>
<path d="M80.4398 60.2056C81.0435 60.2056 81.5328 59.9298 81.5328 59.5896C81.5328 59.2494 81.0435 58.9736 80.4398 58.9736C79.8361 58.9736 79.3467 59.2494 79.3467 59.5896C79.3467 59.9298 79.8361 60.2056 80.4398 60.2056Z" fill="#3D0F9A"/>
<path d="M70.5737 75.4514C70.944 75.2411 70.9435 74.5582 70.5724 73.9261C70.2014 73.2941 69.6004 72.9521 69.2301 73.1624C68.8598 73.3727 68.8603 74.0556 69.2314 74.6877C69.6024 75.3198 70.2034 75.6617 70.5737 75.4514Z" fill="white"/>
<path d="M70.5625 86.8984C70.9328 86.6881 70.9322 86.0052 70.5612 85.3732C70.1902 84.7411 69.5892 84.3991 69.2189 84.6094C68.8485 84.8198 68.8491 85.5026 69.2201 86.1347C69.5912 86.7668 70.1921 87.1087 70.5625 86.8984Z" fill="white"/>
<path d="M70.5678 98.1775C70.9382 97.9672 70.9376 97.2843 70.5666 96.6522C70.1956 96.0201 69.5946 95.6782 69.2242 95.8885C68.8539 96.0988 68.8545 96.7817 69.2255 97.4138C69.5965 98.0459 70.1975 98.3878 70.5678 98.1775Z" fill="white"/>
<path d="M70.5678 109.554C70.9382 109.344 70.9376 108.661 70.5666 108.029C70.1956 107.397 69.5946 107.055 69.2242 107.265C68.8539 107.476 68.8545 108.159 69.2255 108.791C69.5965 109.423 70.1975 109.765 70.5678 109.554Z" fill="white"/>
<path d="M52.3032 65.0715C52.6735 64.8612 52.6729 64.1783 52.3019 63.5463C51.9309 62.9142 51.3299 62.5722 50.9596 62.7825C50.5893 62.9928 50.5898 63.6757 50.9609 64.3078C51.3319 64.9399 51.9329 65.2818 52.3032 65.0715Z" fill="white"/>
<path d="M52.3032 76.5186C52.6735 76.3083 52.6729 75.6254 52.3019 74.9933C51.9309 74.3612 51.3299 74.0193 50.9596 74.2296C50.5893 74.4399 50.5898 75.1228 50.9609 75.7548C51.3319 76.3869 51.9329 76.7289 52.3032 76.5186Z" fill="white"/>
<path d="M52.309 87.7971C52.6794 87.5868 52.6788 86.9039 52.3078 86.2718C51.9368 85.6398 51.3358 85.2978 50.9655 85.5081C50.5951 85.7184 50.5957 86.4013 50.9667 87.0334C51.3377 87.6655 51.9387 88.0074 52.309 87.7971Z" fill="white"/>
<path d="M52.309 99.1746C52.6794 98.9643 52.6788 98.2814 52.3078 97.6493C51.9368 97.0172 51.3358 96.6753 50.9655 96.8856C50.5951 97.0959 50.5957 97.7788 50.9667 98.4109C51.3377 99.0429 51.9387 99.3849 52.309 99.1746Z" fill="white"/>
<path d="M66.0587 83.1647L55.3441 77.0833C55.1164 76.9489 54.9229 77.0609 54.9229 77.3185C54.9229 77.5761 55.105 77.9009 55.3441 78.0241L66.0587 84.1055C66.2864 84.2399 66.4799 84.1279 66.4799 83.8703C66.4799 83.6127 66.2978 83.2879 66.0587 83.1647Z" fill="white"/>
<path d="M66.0587 94.3195L55.3441 88.2381C55.1164 88.1037 54.9229 88.2157 54.9229 88.4733C54.9229 88.7309 55.105 89.0557 55.3441 89.1789L66.0587 95.2602C66.2864 95.3946 66.4799 95.2826 66.4799 95.0251C66.4799 94.7675 66.2978 94.4427 66.0587 94.3195Z" fill="white"/>
<path d="M66.0587 105.799L55.3441 99.7179C55.1164 99.5835 54.9229 99.6955 54.9229 99.9531C54.9229 100.211 55.105 100.535 55.3441 100.659L66.0587 106.74C66.2864 106.874 66.4799 106.762 66.4799 106.505C66.4799 106.247 66.2978 105.922 66.0587 105.799Z" fill="white"/>
<path d="M66.0587 71.5058L55.3441 65.4244C55.1164 65.29 54.9229 65.402 54.9229 65.6596C54.9229 65.9172 55.105 66.242 55.3441 66.3652L66.0587 72.4465C66.2864 72.5809 66.4799 72.4689 66.4799 72.2113C66.4799 71.9537 66.2978 71.629 66.0587 71.5058Z" fill="white"/>
<g clip-path="url(#clip3_75_1300)">
<path d="M38 142.517C38 146.023 40.3148 149.513 44.9444 152.185C54.2035 157.529 69.1985 157.529 78.4407 152.185C83.0702 149.513 85.385 146.006 85.385 142.517V152.423C85.385 155.929 83.0702 159.418 78.4407 162.091C69.1815 167.435 54.1865 167.435 44.9444 162.091C40.3148 159.418 38 155.912 38 152.423V142.517Z" fill="#3D0F9A"/>
<path d="M38 141.513C38 145.019 40.3148 148.508 44.9444 151.18C54.2035 156.525 69.1985 156.525 78.4407 151.18C83.0702 148.508 85.385 145.002 85.385 141.513V151.419C85.385 154.925 83.0702 158.414 78.4407 161.086C69.1815 166.431 54.1865 166.431 44.9444 161.086C40.3148 158.414 38 154.908 38 151.419V141.513Z" fill="#3D0F9A"/>
<path d="M78.2602 132.158L78.2605 132.158C82.8245 134.792 85.0246 138.198 85.0246 141.513C85.0246 144.828 82.8245 148.234 78.2605 150.869C73.6985 153.502 67.701 154.829 61.6861 154.829C55.6712 154.829 49.6781 153.502 45.1248 150.869L45.1246 150.869C40.5605 148.234 38.3605 144.828 38.3605 141.513C38.3605 138.181 40.5602 134.792 45.1246 132.158C49.6865 129.524 55.684 128.198 61.6989 128.198C67.7138 128.198 73.7069 129.524 78.2602 132.158Z" fill="white" stroke="#3D0F9A" stroke-width="0.720912"/>
<path d="M43.9569 155.028C43.9569 155.725 43.4804 155.998 42.8676 155.657C42.2719 155.317 41.7783 154.466 41.7783 153.785C41.7783 153.104 42.2549 152.815 42.8676 153.155C43.4633 153.496 43.9569 154.347 43.9569 155.028Z" fill="#F6F6F6"/>
<path d="M47.1396 157.632C47.1396 158.329 46.646 158.602 46.0502 158.261C45.4545 157.921 44.9609 157.07 44.9609 156.389C44.9609 155.708 45.4375 155.419 46.0502 155.759C46.663 156.1 47.1396 156.951 47.1396 157.632Z" fill="#F6F6F6"/>
<path d="M50.1786 160.015C50.1786 160.713 49.702 160.986 49.0893 160.645C48.4936 160.305 48 159.454 48 158.773C48 158.092 48.4936 157.803 49.0893 158.143C49.685 158.484 50.1786 159.335 50.1786 160.015Z" fill="#FF5A00"/>
<path d="M38 128.594C38 132.1 40.3148 135.59 44.9444 138.262C54.2035 143.606 69.1985 143.606 78.4407 138.262C83.0702 135.59 85.385 132.083 85.385 128.594V138.5C85.385 142.006 83.0702 145.496 78.4407 148.168C69.1815 153.512 54.1865 153.512 44.9444 148.168C40.3148 145.496 38 141.989 38 138.5V128.594Z" fill="#3D0F9A"/>
<path d="M38 127.59C38 131.096 40.3148 134.585 44.9444 137.257C54.2035 142.602 69.1985 142.602 78.4407 137.257C83.0702 134.585 85.385 131.079 85.385 127.59V137.496C85.385 141.002 83.0702 144.491 78.4407 147.163C69.1815 152.508 54.1865 152.508 44.9444 147.163C40.3148 144.491 38 140.985 38 137.496V127.59Z" fill="#3D0F9A"/>
<path d="M78.2602 118.235L78.2605 118.235C82.8245 120.869 85.0246 124.275 85.0246 127.59C85.0246 130.905 82.8245 134.311 78.2605 136.946C73.6985 139.579 67.701 140.906 61.6861 140.906C55.6712 140.906 49.6781 139.579 45.1248 136.946L45.1246 136.946C40.5605 134.311 38.3605 130.905 38.3605 127.59C38.3605 124.259 40.5602 120.869 45.1246 118.235C49.6865 115.602 55.684 114.275 61.6989 114.275C67.7138 114.275 73.7069 115.602 78.2602 118.235Z" fill="white" stroke="#3D0F9A" stroke-width="0.720912"/>
<path d="M43.9569 141.104C43.9569 141.802 43.4804 142.075 42.8676 141.734C42.2719 141.394 41.7783 140.543 41.7783 139.862C41.7783 139.181 42.2549 138.892 42.8676 139.232C43.4633 139.573 43.9569 140.424 43.9569 141.104Z" fill="#F6F6F6"/>
<path d="M47.1396 143.709C47.1396 144.407 46.646 144.679 46.0502 144.338C45.4545 143.998 44.9609 143.147 44.9609 142.466C44.9609 141.785 45.4375 141.496 46.0502 141.836C46.663 142.177 47.1396 143.028 47.1396 143.709Z" fill="#F6F6F6"/>
<path d="M50.1786 146.015C50.1786 146.713 49.702 146.986 49.0893 146.645C48.4936 146.305 48 145.454 48 144.773C48 144.092 48.4936 143.803 49.0893 144.143C49.685 144.484 50.1786 145.335 50.1786 146.015Z" fill="#FF5A00"/>
<path d="M38 114C38 117.423 40.296 121.806 44.8879 124.415C54.0718 129.633 68.945 129.633 78.1121 124.415C82.704 121.806 85 118.383 85 114.976V124.648C85 128.071 82.704 131.478 78.1121 134.087C68.9282 139.304 54.055 139.304 44.8879 134.087C40.296 131.478 38 128.054 38 124.648V114Z" fill="#3D0F9A"/>
<path d="M77.8657 106.328L77.866 106.328C82.3695 108.874 84.5 112.141 84.5 115.283C84.5 118.424 82.3695 121.692 77.866 124.237C73.3671 126.78 67.4428 128.065 61.4937 128.065C55.5445 128.065 49.6246 126.78 45.1343 124.237L45.1328 124.236C40.6304 121.708 38.5 118.441 38.5 115.299C38.5 112.14 40.631 108.873 45.134 106.328C49.6329 103.786 55.5572 102.5 61.5063 102.5C67.4555 102.5 73.3754 103.786 77.8657 106.328Z" fill="white" stroke="#3D0F9A"/>
<path d="M43.9569 127.199C43.9569 127.897 43.4804 128.169 42.8676 127.829C42.2719 127.489 41.7783 126.638 41.7783 125.957C41.7783 125.276 42.2549 124.987 42.8676 125.327C43.4633 125.667 43.9569 126.518 43.9569 127.199Z" fill="#F6F6F6"/>
<path d="M47.1396 129.786C47.1396 130.484 46.646 130.757 46.0502 130.416C45.4545 130.076 44.9609 129.225 44.9609 128.544C44.9609 127.863 45.4375 127.574 46.0502 127.914C46.663 128.255 47.1396 129.106 47.1396 129.786Z" fill="#F6F6F6"/>
<path d="M50.1786 132.015C50.1786 132.713 49.702 132.986 49.0893 132.645C48.4936 132.305 48 131.454 48 130.773C48 130.092 48.4936 129.803 49.0893 130.143C49.685 130.484 50.1786 131.335 50.1786 132.015Z" fill="#FF5A00"/>
</g>
<path d="M161.874 117L15 202" stroke="#3D0F9A" stroke-dasharray="2 2"/>
<path d="M114.741 188.731C125.709 195.04 125.769 205.268 114.867 211.576C111.694 213.411 107.959 214.711 103.965 215.483L100.183 209.023C102.495 208.581 104.667 207.828 106.502 206.766C112.807 203.117 112.781 197.191 106.436 193.535L114.734 188.731H114.741Z" fill="#FF5A00" stroke="#3D0F9A"/>
<path d="M133.61 124.135V128.597V128.225C133.61 129.65 134.539 131.075 136.429 132.16C140.209 134.329 146.313 134.329 150.093 132.16C151.983 131.075 152.913 130.022 152.913 128.597V128.225V124.166L135.5 122.5L133.61 124.135Z" fill="#3D0F9A" stroke="#3D0F9A" stroke-miterlimit="10"/>
<path d="M143.277 129.712C148.616 129.712 152.944 127.215 152.944 124.135C152.944 121.055 148.616 118.558 143.277 118.558C137.938 118.558 133.61 121.055 133.61 124.135C133.61 127.215 137.938 129.712 143.277 129.712Z" fill="white" stroke="#3D0F9A" stroke-linecap="round" stroke-linejoin="round"/>
<path d="M108.142 138.852V143.314V142.942C108.142 144.367 109.071 145.793 110.961 146.877C114.741 149.046 120.845 149.046 124.625 146.877C126.515 145.793 127.444 144.739 127.444 143.314V142.942V138.883L114.5 136L108.142 138.852Z" fill="#3D0F9A" stroke="#3D0F9A" stroke-miterlimit="10"/>
<path d="M117.808 144.429C123.147 144.429 127.475 141.932 127.475 138.852C127.475 135.772 123.147 133.275 117.808 133.275C112.47 133.275 108.142 135.772 108.142 138.852C108.142 141.932 112.47 144.429 117.808 144.429Z" fill="white" stroke="#3D0F9A" stroke-linecap="round" stroke-linejoin="round"/>
<defs>
<clipPath id="clip0_75_1300">
<rect width="174.61" height="148.815" fill="white" transform="translate(80 6)"/>
</clipPath>
<clipPath id="clip1_75_1300">
<rect width="182.094" height="110.493" fill="white" transform="translate(5 90)"/>
</clipPath>
<clipPath id="clip2_75_1300">
<rect width="152" height="87.7315" fill="white" transform="translate(36 167)"/>
</clipPath>
<clipPath id="clip3_75_1300">
<rect width="47.385" height="66.0905" fill="white" transform="translate(38 100)"/>
</clipPath>
</defs>
</svg>
