<svg width="48" height="48" viewBox="0 0 48 48" fill="none" xmlns="http://www.w3.org/2000/svg">
<path d="M12.0076 10.2501C11.9719 9.45096 12.0964 8.65274 12.3737 7.90241C12.651 7.15207 13.0756 6.46476 13.6224 5.88091C14.1692 5.29706 14.8273 4.82844 15.5579 4.50263C16.2885 4.17682 17.0768 4.0004 17.8766 3.98372C18.6764 3.96705 19.4714 4.11048 20.2149 4.40556C20.9585 4.70065 21.6355 5.14143 22.2062 5.70199C22.7768 6.26255 23.2297 6.93157 23.538 7.6697C23.8463 8.40783 24.004 9.20016 24.0016 10.0001V36.0001M12.0076 10.2501C10.832 10.5524 9.74062 11.1182 8.81608 11.9047C7.89153 12.6912 7.15809 13.6778 6.6713 14.7898C6.18451 15.9017 5.95713 17.1099 6.00639 18.3227C6.05565 19.5356 6.38025 20.7213 6.95561 21.7901C5.94397 22.612 5.14847 23.6686 4.63829 24.868C4.12812 26.0674 3.91873 27.3733 4.02834 28.6721C4.13795 29.9709 4.56325 31.2232 5.26722 32.3201C5.9712 33.4171 6.93254 34.3254 8.06761 34.9661C7.92745 36.0506 8.01109 37.1523 8.31339 38.2031C8.61568 39.254 9.13021 40.2318 9.82518 41.076C10.5202 41.9202 11.3808 42.613 12.3541 43.1116C13.3273 43.6102 14.3924 43.904 15.4836 43.9748C16.5748 44.0456 17.6689 43.8919 18.6984 43.5233C19.7279 43.1547 20.6709 42.579 21.4691 41.8316C22.2674 41.0843 22.904 40.1812 23.3395 39.1782C23.7751 38.1752 24.0004 37.0936 24.0016 36.0001M12.0076 10.2501C12.0472 11.2176 12.3203 12.1611 12.8036 13.0001M24.0016 36.0001H36.0016C37.0625 36.0001 38.0799 36.4215 38.83 37.1717C39.5802 37.9218 40.0016 38.9392 40.0016 40.0001V42.0001M18.0016 26.0001C19.6807 25.4094 21.147 24.3341 22.215 22.9101C23.2829 21.4861 23.9047 19.7774 24.0016 18.0001M6.95561 21.7921C7.32149 21.4941 7.71302 21.2291 8.12561 21.0001M12.0016 36.0001C10.6233 36.0007 9.26815 35.6453 8.06761 34.9681M24.0016 26.0001H32.0016M24.0016 16.0001H40.0016M32.0016 16.0001V10.0001C32.0016 8.93923 32.423 7.92182 33.1732 7.17167C33.9233 6.42153 34.9407 6.0001 36.0016 6.0001" stroke="#3D0F9A" stroke-width="2" stroke-linecap="round" stroke-linejoin="round"/>
<path d="M32 27C32.5523 27 33 26.5523 33 26C33 25.4477 32.5523 25 32 25C31.4477 25 31 25.4477 31 26C31 26.5523 31.4477 27 32 27Z" stroke="#FF5A00" stroke-width="2" stroke-linecap="round" stroke-linejoin="round"/>
<path d="M36 7C36.5523 7 37 6.55228 37 6C37 5.44772 36.5523 5 36 5C35.4477 5 35 5.44772 35 6C35 6.55228 35.4477 7 36 7Z" stroke="#FF5A00" stroke-width="2" stroke-linecap="round" stroke-linejoin="round"/>
<path d="M40 43C40.5523 43 41 42.5523 41 42C41 41.4477 40.5523 41 40 41C39.4477 41 39 41.4477 39 42C39 42.5523 39.4477 43 40 43Z" stroke="#FF5A00" stroke-width="2" stroke-linecap="round" stroke-linejoin="round"/>
<path d="M40 17C40.5523 17 41 16.5523 41 16C41 15.4477 40.5523 15 40 15C39.4477 15 39 15.4477 39 16C39 16.5523 39.4477 17 40 17Z" stroke="#FF5A00" stroke-width="2" stroke-linecap="round" stroke-linejoin="round"/>
</svg>
