<svg width="260" height="260" viewBox="0 0 260 260" fill="none" xmlns="http://www.w3.org/2000/svg">
<rect x="0.433095" y="-0.250048" width="128.293" height="187.462" rx="4.5" transform="matrix(0.000110185 -1 0.866081 0.499904 90.1579 135.059)" stroke="#3D0F9A" stroke-dasharray="2 2"/>
<g clip-path="url(#clip0_75_1167)">
<rect width="51.4423" height="83.2876" rx="1" transform="matrix(0.866077 0.499911 -0.000102572 1 199.071 36.8628)" fill="#FF5A00"/>
<path d="M186.832 87.7796C188.205 88.565 189.327 90.5143 189.313 92.085C189.299 93.6557 188.177 94.3008 186.804 93.5155L181.14 90.2338C179.766 89.4485 178.644 87.4991 178.658 85.9284C178.672 84.3578 179.794 83.7126 181.168 84.498L186.832 87.7796Z" fill="white"/>
<path d="M220.169 104.861C224.838 107.553 228.637 114.145 228.623 119.516V120.105L62.48 24.2926V23.7036C62.494 18.3464 66.3213 16.1586 70.9897 18.8512L220.169 104.861ZM186.817 93.5013C188.191 94.2867 189.313 93.6416 189.327 92.0709C189.341 90.5002 188.205 88.5508 186.845 87.7655L181.182 84.4839C179.808 83.6985 178.686 84.3296 178.672 85.9143C178.658 87.499 179.794 89.4344 181.154 90.2197L186.817 93.5013ZM213.412 108.998C214.786 109.797 215.908 109.152 215.922 107.567C215.936 105.983 214.814 104.047 213.44 103.262L207.776 99.9805C206.402 99.1951 205.281 99.8402 205.281 101.411C205.281 102.982 206.388 104.931 207.762 105.716L213.426 108.998H213.412ZM200.038 101.13C201.412 101.93 202.533 101.271 202.547 99.7C202.561 98.1293 201.44 96.1799 200.066 95.3946L194.402 92.113C193.028 91.3276 191.906 91.9587 191.906 93.5434C191.906 95.1281 193.014 97.0635 194.388 97.8488L200.052 101.13H200.038Z" fill="#3D0F9A"/>
<path d="M200.051 95.4085C201.425 96.2079 202.547 98.1432 202.533 99.7139C202.519 101.285 201.411 101.93 200.023 101.144L194.359 97.8627C192.985 97.0774 191.878 95.1281 191.878 93.5574C191.878 91.9867 192.999 91.3416 194.373 92.1269L200.037 95.4085H200.051Z" fill="white"/>
<path d="M213.426 103.276C214.8 104.075 215.922 106.011 215.908 107.581C215.894 109.152 214.786 109.797 213.398 109.012L207.734 105.73C206.36 104.945 205.253 103.01 205.253 101.425C205.253 99.8401 206.374 99.2091 207.748 99.9944L213.412 103.276H213.426Z" fill="white"/>
<path d="M62.4797 23.7036V24.2926L228.623 120.105L228.3 231.779C228.286 237.15 224.459 239.338 219.791 236.631L70.6109 150.621C65.9425 147.929 62.1432 141.337 62.1573 135.966L62.4797 23.7036Z" fill="white"/>
<path d="M62.4658 24.2928V23.7178" stroke="#3D0F9A" stroke-linecap="round" stroke-linejoin="round"/>
<path d="M228.623 119.516V120.105L228.3 231.765C228.3 237.136 224.459 239.323 219.791 236.617L70.6109 150.621C65.9425 147.915 62.1432 141.337 62.1573 135.952L62.4797 24.2925V23.7175C62.4797 18.3603 66.321 16.1725 70.9754 18.8652L220.155 104.875C224.81 107.567 228.623 114.159 228.609 119.53L228.623 119.516Z" stroke="#3D0F9A" stroke-linecap="round" stroke-linejoin="round"/>
<path d="M62.4798 23.7175V24.2925H62.4658L62.4798 23.7175Z" stroke="#3D0F9A" stroke-linecap="round" stroke-linejoin="round"/>
<circle cx="17.7974" cy="17.7974" r="17.7974" transform="matrix(0.866087 0.499893 -0.000123428 1 74.416 46.3816)" fill="#3D0F9A"/>
<path d="M89.8293 64.622C90.698 65.1234 91.5311 66.0027 92.1453 67.0665C92.7595 68.1303 93.1045 69.2915 93.1044 70.2945C93.1042 71.2975 92.759 72.0603 92.1447 72.415C91.5303 72.7697 90.6971 72.6873 89.8284 72.1859C88.9597 71.6845 88.1266 70.8051 87.5124 69.7413C86.8982 68.6775 86.5532 67.5164 86.5534 66.5133C86.5535 65.5103 86.8987 64.7475 87.5131 64.3928C88.1274 64.0381 88.9606 64.1206 89.8293 64.622ZM89.8282 74.0769C93.4476 76.1659 96.379 79.5504 96.3787 81.64L96.3785 83.5309L83.2765 75.9686L83.2767 74.0777C83.2769 71.9881 86.2087 71.9878 89.8282 74.0769Z" fill="white"/>
<circle cx="5.83848" cy="5.83848" r="5.83848" transform="matrix(0.866084 0.499898 -0.000117551 1 97.0576 60.9199)" fill="#FF5A00"/>
<path d="M102.742 67.4459C102.742 67.1422 102.529 66.7728 102.266 66.621L101.962 66.4455C101.699 66.2937 101.486 66.4168 101.486 66.7206L101.485 68.0389C101.485 68.3426 101.272 68.4658 101.009 68.3139L99.8672 67.6549C99.6041 67.5031 99.3908 67.6262 99.3908 67.93L99.3907 68.2809C99.3907 68.5847 99.6039 68.9541 99.867 69.1059L101.009 69.7649C101.272 69.9168 101.485 70.2861 101.485 70.5899L101.485 71.9082C101.485 72.2119 101.698 72.5813 101.961 72.7331L102.265 72.9086C102.528 73.0604 102.742 72.9373 102.742 72.6335L102.742 71.3152C102.742 71.0115 102.955 70.8883 103.218 71.0402L104.36 71.6992C104.623 71.851 104.836 71.7279 104.836 71.4241L104.836 71.0731C104.836 70.7694 104.623 70.4 104.36 70.2482L103.218 69.5892C102.955 69.4373 102.742 69.068 102.742 68.7642L102.742 67.4459Z" fill="white"/>
<rect width="75.6205" height="4.62983" rx="2.31491" transform="matrix(0.866084 0.499899 -0.000116937 1 136.368 95.9062)" fill="#3D0F9A"/>
<rect width="75.6205" height="4.62983" rx="2.31491" transform="matrix(0.866084 0.499899 -0.000116937 1 136.368 88)" fill="#3D0F9A"/>
<rect width="75.6205" height="4.62983" rx="2.31491" transform="matrix(0.866084 0.499899 -0.000116964 1 136.367 103.623)" fill="#3D0F9A"/>
<rect width="75.6205" height="4.62983" rx="2.31491" transform="matrix(0.866084 0.499899 -0.000116964 1 136.366 111.339)" fill="#3D0F9A"/>
<rect width="46.8127" height="4.62983" rx="2.31491" transform="matrix(0.866084 0.499899 -0.000116964 1 136.365 119.055)" fill="#3D0F9A"/>
<rect width="28.3196" height="62.3031" rx="2" transform="matrix(0.000117506 -1 0.866084 0.499898 17.2617 214.899)" fill="#3D0F9A"/>
</g>
<rect width="51.3233" height="75.7019" rx="5" transform="matrix(0.000121053 -1 0.866086 0.499895 136.222 179.982)" fill="#3D0F9A"/>
<path d="M111.754 118.781L14.0137 64.5279C12.0467 63.4299 6.88721 64.4956 6.88721 68.9197L9.62818 150.816C9.62818 151.881 10.2086 152.882 11.1438 153.399L107.013 210.138C108.98 211.236 113.269 209.654 113.269 205.068V121.364C113.269 120.298 112.689 119.297 111.754 118.781Z" fill="#3D0F9A" stroke="#3D0F9A" stroke-width="1.18202"/>
<path d="M109.819 120.299L11.305 65.5937C9.30571 64.4957 6.88721 65.9167 6.88721 68.2095V152.56C6.88721 153.658 7.46765 154.659 8.43505 155.175L106.949 209.848C108.948 210.946 111.367 209.525 111.367 207.232V122.882C111.367 121.816 110.786 120.783 109.819 120.266V120.299Z" fill="#3D0F9A" stroke="#3D0F9A" stroke-width="1.18202"/>
<path d="M141.088 196.959L123.19 186.675C122.332 186.171 121.63 184.852 121.63 183.707V163.683C121.63 162.538 122.332 162.014 123.19 162.5L141.088 172.783C141.945 173.288 142.647 174.607 142.647 175.752V195.756C142.647 196.901 141.945 197.425 141.088 196.94V196.959Z" fill="#FF5A00"/>
<path d="M141.711 197.793C141.399 197.793 141.087 197.696 140.756 197.522L122.878 187.238C121.825 186.637 120.986 185.084 120.986 183.707V163.683C120.986 162.849 121.298 162.189 121.844 161.879C122.332 161.607 122.936 161.626 123.501 161.956L141.399 172.24C142.452 172.841 143.291 174.393 143.291 175.771V195.775C143.291 196.61 142.979 197.269 142.433 197.58C142.218 197.716 141.965 197.774 141.711 197.774V197.793ZM141.399 196.416C141.555 196.513 141.711 196.532 141.789 196.493C141.867 196.455 142.004 196.241 142.004 195.795V175.771C142.004 174.859 141.419 173.734 140.756 173.346L122.878 163.062C122.722 162.965 122.566 162.946 122.488 162.985C122.41 163.023 122.273 163.237 122.273 163.683V183.687C122.273 184.599 122.858 185.725 123.521 186.113L141.419 196.396L141.399 196.416Z" fill="#FF5A00"/>
<path d="M243.271 201.473L217.684 186.772C216.458 186.051 215.455 184.165 215.455 182.528V153.93C215.455 152.293 216.458 151.544 217.684 152.238L243.271 166.939C244.498 167.66 245.501 169.547 245.501 171.183V199.781C245.501 201.418 244.498 202.167 243.271 201.473Z" fill="#3D0F9A"/>
<path d="M244.163 202.639C243.717 202.639 243.271 202.5 242.797 202.25L217.238 187.549C215.733 186.689 214.535 184.47 214.535 182.501V153.902C214.535 152.71 214.981 151.767 215.761 151.323C216.458 150.934 217.322 150.962 218.13 151.434L243.717 166.135C245.222 166.995 246.421 169.214 246.421 171.183V199.782C246.421 200.974 245.975 201.917 245.194 202.361C244.888 202.555 244.525 202.639 244.163 202.639ZM243.717 200.669C243.94 200.808 244.163 200.863 244.275 200.78C244.386 200.725 244.581 200.42 244.581 199.782V171.183C244.581 169.88 243.745 168.271 242.797 167.716L217.238 153.015C217.015 152.876 216.792 152.821 216.681 152.904C216.569 152.959 216.374 153.264 216.374 153.902V182.501C216.374 183.804 217.21 185.413 218.158 185.968L243.745 200.669H243.717Z" fill="#3D0F9A"/>
<path d="M186.874 204L147 227.026" stroke="#3D0F9A" stroke-dasharray="2 2"/>
<path d="M82.8735 185L42.9999 208.026" stroke="#3D0F9A" stroke-dasharray="2 2"/>
<g clip-path="url(#clip1_75_1167)">
<path d="M18.025 93.0089L20.085 91.9068C21.2913 91.1396 22.8899 90.9946 24.3056 91.8067L62.2991 113.62C64.4253 114.841 65.735 117.095 65.735 119.537V148.052C65.735 149.753 64.7196 151.102 63.3596 151.719H63.3622L61.3924 152.795L59.754 153.541C59.1204 153.52 60.263 151.893 59.6506 151.543L21.6598 129.732C19.5335 128.511 18.2239 126.257 18.2239 123.815V95.2973C18.2239 94.7858 16.8983 94.0318 17.0653 93.5941L18.0277 93.0089H18.025Z" fill="#3D0F9A"/>
<path d="M59.0073 152H58.9491C58.7516 151.992 58.6478 151.887 58.6048 151.826C58.4453 151.597 58.5516 151.277 58.6858 150.872C58.7668 150.63 58.9339 150.124 58.8124 150.056L22.5299 129.218C20.4285 128.012 19.1221 125.76 19.1221 123.348V96.1058C19.1221 95.9773 18.8082 95.6651 18.6208 95.4812C18.2461 95.111 17.8917 94.7609 18.0309 94.3907L18.0613 94.3101L19.0664 93.6982L21.0336 92.6455C22.3223 91.8219 23.9679 91.7816 25.3097 92.5523L61.5923 113.39C63.6936 114.596 65 116.845 65 119.26V146.5C65 148.124 64.0734 149.555 62.5847 150.232L60.5568 151.325L59.0073 152ZM18.5246 94.6199C18.593 94.7458 18.8386 94.9851 18.9778 95.1236C19.312 95.4535 19.6285 95.7683 19.6285 96.1058V123.345C19.6285 125.579 20.8361 127.662 22.783 128.78L59.0656 149.618C59.5441 149.892 59.3365 150.522 59.1668 151.028C59.1263 151.149 59.0706 151.312 59.0453 151.431L60.334 150.872L62.3569 149.781C63.681 149.179 64.4937 147.923 64.4937 146.5V119.26C64.4937 117.026 63.286 114.944 61.3391 113.826L25.0566 92.988C23.8793 92.313 22.4362 92.3458 21.2918 93.0786L19.312 94.1389L18.5246 94.6199Z" fill="white" stroke="white" stroke-width="0.3"/>
<path d="M55.1091 152.472L27.5287 136.61C26.6919 136.13 25.6523 136.155 24.8438 136.682L20.6496 139.403C20.09 139.766 19.3482 139.364 19.3482 138.7V133.082C19.3482 132.353 18.958 131.68 18.3266 131.317C16.268 130.133 15 127.947 15 125.579V97.9159C15 94.9061 18.2701 93.0241 20.8883 94.5302L57.6734 115.688C59.732 116.872 61 119.058 61 121.426V149.084C61 152.094 57.7299 153.976 55.1117 152.47L55.1091 152.472Z" fill="white"/>
<path d="M23.4465 111.524C21.4184 110.358 19.7588 111.313 19.7588 113.641C19.7588 115.969 21.4184 118.829 23.4465 119.994C25.4746 121.16 27.1343 120.205 27.1343 117.877C27.1343 115.549 25.4746 112.689 23.4465 111.524Z" fill="#FF5A00"/>
<path d="M25.0849 120.759C24.5335 120.759 23.9317 120.58 23.3139 120.224C21.2063 119.014 19.4937 116.061 19.4937 113.641C19.4937 112.415 19.9258 111.492 20.7105 111.044C21.4953 110.593 22.5133 110.683 23.5817 111.294C25.6894 112.504 27.402 115.457 27.402 117.878C27.402 119.103 26.9699 120.026 26.1851 120.474C25.8564 120.664 25.4852 120.756 25.0876 120.756L25.0849 120.759ZM21.8081 111.289C21.5006 111.289 21.2195 111.36 20.973 111.5C20.3606 111.853 20.0212 112.613 20.0212 113.641C20.0212 115.892 21.6172 118.639 23.5764 119.765C24.4725 120.279 25.3023 120.369 25.9174 120.016C26.5298 119.662 26.8691 118.903 26.8691 117.875C26.8691 115.623 25.2731 112.876 23.3139 111.75C22.7784 111.442 22.2641 111.286 21.8081 111.286V111.289Z" fill="#FF5A00"/>
<path d="M37.5691 119.654C35.541 118.489 33.8813 119.444 33.8813 121.771C33.8813 124.099 35.541 126.96 37.5691 128.125C39.5972 129.291 41.2568 128.336 41.2568 126.008C41.2568 123.68 39.5972 120.82 37.5691 119.654Z" fill="#3D0F9A"/>
<path d="M39.2101 128.89C38.6587 128.89 38.0569 128.711 37.4392 128.355C35.3315 127.145 33.6162 124.192 33.6162 121.772C33.6162 120.546 34.0483 119.626 34.8331 119.175C35.6178 118.724 36.6359 118.814 37.7043 119.425C39.8119 120.635 41.5246 123.588 41.5246 126.008C41.5246 127.234 41.0924 128.157 40.3077 128.605C39.9789 128.795 39.6078 128.887 39.2101 128.887V128.89ZM35.9333 119.42C35.6258 119.42 35.3448 119.491 35.0982 119.631C34.4858 119.984 34.1464 120.743 34.1464 121.772C34.1464 124.023 35.7424 126.77 37.7043 127.896C38.6004 128.41 39.4302 128.5 40.0452 128.147C40.6576 127.793 40.997 127.034 40.997 126.006C40.997 123.754 39.401 121.007 37.4418 119.881C36.9063 119.573 36.392 119.417 35.936 119.417L35.9333 119.42Z" fill="#3D0F9A"/>
<path d="M51.6946 127.788C49.6665 126.622 48.0068 127.577 48.0068 129.905C48.0068 132.233 49.6665 135.093 51.6946 136.259C53.7227 137.424 55.3823 136.469 55.3823 134.142C55.3823 131.814 53.7227 128.953 51.6946 127.788Z" fill="#3D0F9A"/>
<path d="M53.333 137.021C52.7815 137.021 52.1797 136.841 51.562 136.485C49.4543 135.275 47.7417 132.322 47.7417 129.902C47.7417 128.676 48.1738 127.754 48.9586 127.305C49.7433 126.855 50.7613 126.944 51.8298 127.556C53.9374 128.766 55.6527 131.719 55.6527 134.139C55.6527 135.365 55.2206 136.288 54.4358 136.736C54.1071 136.926 53.7359 137.018 53.3383 137.018L53.333 137.021ZM50.0561 127.551C49.7486 127.551 49.4676 127.622 49.221 127.761C48.6086 128.115 48.2693 128.874 48.2693 129.902C48.2693 132.154 49.8653 134.901 51.8245 136.027C52.7205 136.541 53.5503 136.63 54.1654 136.277C54.7778 135.924 55.1172 135.165 55.1172 134.136C55.1172 131.885 53.5212 129.138 51.5593 128.012C51.0238 127.703 50.5095 127.548 50.0535 127.548L50.0561 127.551Z" fill="#3D0F9A"/>
</g>
<path d="M104.014 125.67C104.384 125.459 104.384 124.776 104.013 124.144C103.642 123.512 103.041 123.17 102.671 123.381C102.3 123.591 102.301 124.274 102.672 124.906C103.043 125.538 103.644 125.88 104.014 125.67Z" fill="white"/>
<path d="M104.014 137.117C104.384 136.906 104.384 136.224 104.013 135.591C103.642 134.959 103.041 134.617 102.671 134.828C102.3 135.038 102.301 135.721 102.672 136.353C103.043 136.985 103.644 137.327 104.014 137.117Z" fill="white"/>
<path d="M104.02 148.395C104.39 148.185 104.39 147.502 104.019 146.87C103.648 146.238 103.047 145.896 102.676 146.106C102.306 146.316 102.307 146.999 102.678 147.631C103.049 148.263 103.65 148.605 104.02 148.395Z" fill="white"/>
<path d="M104.02 159.773C104.39 159.563 104.39 158.88 104.019 158.248C103.648 157.616 103.047 157.274 102.676 157.484C102.306 157.694 102.307 158.377 102.678 159.009C103.049 159.641 103.65 159.983 104.02 159.773Z" fill="white"/>
<path d="M98.0141 122.67C98.3844 122.459 98.3839 121.776 98.0129 121.144C97.6418 120.512 97.0409 120.17 96.6705 120.381C96.3002 120.591 96.3008 121.274 96.6718 121.906C97.0428 122.538 97.6438 122.88 98.0141 122.67Z" fill="white"/>
<path d="M98.0141 134.117C98.3844 133.906 98.3839 133.224 98.0129 132.591C97.6418 131.959 97.0409 131.617 96.6705 131.828C96.3002 132.038 96.3008 132.721 96.6718 133.353C97.0428 133.985 97.6438 134.327 98.0141 134.117Z" fill="white"/>
<path d="M98.02 145.395C98.3903 145.185 98.3897 144.502 98.0187 143.87C97.6477 143.238 97.0467 142.896 96.6764 143.106C96.3061 143.316 96.3066 143.999 96.6777 144.631C97.0487 145.263 97.6497 145.605 98.02 145.395Z" fill="white"/>
<path d="M98.02 156.773C98.3903 156.563 98.3897 155.88 98.0187 155.248C97.6477 154.616 97.0467 154.274 96.6764 154.484C96.3061 154.694 96.3066 155.377 96.6777 156.009C97.0487 156.641 97.6497 156.983 98.02 156.773Z" fill="white"/>
<path d="M92.0141 118.67C92.3844 118.459 92.3839 117.776 92.0129 117.144C91.6418 116.512 91.0409 116.17 90.6705 116.381C90.3002 116.591 90.3008 117.274 90.6718 117.906C91.0428 118.538 91.6438 118.88 92.0141 118.67Z" fill="white"/>
<path d="M92.0141 130.117C92.3844 129.906 92.3839 129.224 92.0129 128.591C91.6418 127.959 91.0409 127.617 90.6705 127.828C90.3002 128.038 90.3008 128.721 90.6718 129.353C91.0428 129.985 91.6438 130.327 92.0141 130.117Z" fill="white"/>
<path d="M92.02 141.395C92.3903 141.185 92.3897 140.502 92.0187 139.87C91.6477 139.238 91.0467 138.896 90.6764 139.106C90.3061 139.317 90.3066 139.999 90.6777 140.632C91.0487 141.264 91.6497 141.606 92.02 141.395Z" fill="white"/>
<path d="M92.02 152.773C92.3903 152.563 92.3897 151.88 92.0187 151.248C91.6477 150.616 91.0467 150.274 90.6764 150.484C90.3061 150.694 90.3066 151.377 90.6777 152.009C91.0487 152.641 91.6497 152.983 92.02 152.773Z" fill="white"/>
<path d="M64.1358 235.139L53.4213 229.057C53.1936 228.923 53 229.035 53 229.292C53 229.55 53.1822 229.875 53.4213 229.998L64.1358 236.079C64.3635 236.214 64.5571 236.102 64.5571 235.844C64.5571 235.587 64.3749 235.262 64.1358 235.139Z" fill="white"/>
<path d="M64.1358 232.139L53.4213 226.057C53.1936 225.923 53 226.035 53 226.292C53 226.55 53.1822 226.875 53.4213 226.998L64.1358 233.079C64.3635 233.214 64.5571 233.102 64.5571 232.844C64.5571 232.587 64.3749 232.262 64.1358 232.139Z" fill="white"/>
<path d="M64.1358 229.139L53.4213 223.057C53.1936 222.923 53 223.035 53 223.292C53 223.55 53.1822 223.875 53.4213 223.998L64.1358 230.079C64.3635 230.214 64.5571 230.102 64.5571 229.844C64.5571 229.587 64.3749 229.262 64.1358 229.139Z" fill="white"/>
<circle cx="5.99626" cy="5.99626" r="5.49626" transform="matrix(0.866117 0.499841 -0.000183002 1 220.195 78.3525)" stroke="#3D0F9A"/>
<path d="M221.926 81.3503L228.849 93.3416" stroke="#3D0F9A" stroke-width="1.2"/>
<path d="M228.85 85.3467L221.924 89.3455" stroke="#3D0F9A" stroke-width="0.8"/>
<path d="M154.983 241.234L155 234.967L146.506 234.912L134.502 227.701C132.948 226.766 131.031 226.766 129.477 227.701L117.772 234.732L109 234.678V241.234H109.017C108.912 242.221 109.333 243.261 110.281 243.825L129.636 255.314C131.187 256.233 133.091 256.228 134.637 255.301L153.729 243.832C154.672 243.264 155.09 242.223 154.981 241.237L154.983 241.234Z" fill="#3D0F9A"/>
<path d="M132.124 255.998C131.233 255.998 130.339 255.762 129.544 255.292L110.387 243.994C109.456 243.444 108.934 242.433 109.007 241.336L109 241.234V234.543L117.856 234.599L129.384 227.718C130.991 226.761 132.987 226.761 134.593 227.718L146.42 234.779L154.999 234.833L154.982 241.225C155.105 242.365 154.585 243.43 153.625 244.001L134.73 255.28C133.928 255.759 133.027 256 132.124 256V255.998ZM109.47 240.991H109.499L109.487 241.261C109.386 242.214 109.821 243.097 110.62 243.571L129.777 254.869C131.235 255.728 133.041 255.723 134.495 254.857L153.39 243.578C154.19 243.102 154.62 242.214 154.514 241.264V241.234L154.528 235.314L146.295 235.263L146.241 235.231L134.36 228.139C132.9 227.266 131.082 227.266 129.622 228.139L117.983 235.085L109.473 235.032V240.991H109.47Z" fill="#3D0F9A"/>
<path d="M109.297 232.239L128.922 220.699C130.51 219.767 132.466 219.767 134.056 220.699L153.704 232.252C155.432 233.268 155.432 235.812 153.704 236.828L134.197 248.299C132.617 249.229 130.67 249.234 129.087 248.312L109.5 236.5C107.759 235.489 107.563 233.26 109.297 232.239Z" fill="white"/>
<path d="M132.125 249C131.233 249 130.34 248.772 129.545 248.319L110.388 237.409C109.522 236.916 109.002 236.029 109 235.033C108.998 234.038 109.51 233.148 110.373 232.651L129.385 221.694C130.991 220.769 132.988 220.769 134.594 221.694L153.627 232.662C154.487 233.158 155 234.047 155 235.038C155 236.029 154.487 236.919 153.627 237.414L134.73 248.305C133.928 248.768 133.028 249 132.125 249ZM110.609 233.057C109.894 233.47 109.468 234.207 109.47 235.031C109.47 235.855 109.903 236.592 110.62 237.001L129.778 247.911C131.233 248.739 133.042 248.735 134.495 247.899L153.391 237.008C154.104 236.597 154.53 235.86 154.53 235.038C154.53 234.216 154.104 233.479 153.391 233.068L134.359 222.1C132.898 221.257 131.083 221.257 129.62 222.1L110.609 233.057Z" fill="#3D0F9A" stroke="#3D0F9A" stroke-width="0.483283"/>
<path d="M139 236.937L138.076 236.867L134.984 230.632C134.68 230.017 133.77 229.807 133.109 230.199L125.497 234.715L123 234.649V236.736C123 237.197 123.355 237.648 123.989 237.753L137.477 239.979C138.297 240.115 139.004 239.562 138.998 238.927V236.937H139Z" fill="#3D0F9A"/>
<path d="M137.551 240C137.458 240 137.366 239.992 137.27 239.977L124.142 237.842C123.469 237.733 123 237.247 123 236.663L124 235L125.586 234.517L132.946 230.22C133.329 229.996 133.8 229.939 134.237 230.067C134.616 230.178 134.912 230.411 135.07 230.723L138.024 236.589L138 236.663V239C137.93 239.197 138.74 239.495 138.565 239.642C138.289 239.876 137.929 240 137.551 240ZM123.426 234.88V236.663C123.426 236.981 123.667 237.341 124.212 237.429L137.341 239.562C137.688 239.619 138.044 239.529 138.289 239.321C138.472 239.168 138.574 238.965 138.574 238.764L138.57 238.368H138.574V237.048L137.75 236.987L134.686 230.907C134.582 230.7 134.38 230.545 134.115 230.467C133.796 230.375 133.44 230.417 133.161 230.578L125.699 234.938L123.426 234.88Z" fill="#3D0F9A"/>
<path d="M133.237 228.413L133.237 228.413L123.791 234.016V234.018L123.668 234.091C123.304 234.308 123.205 234.626 123.268 234.891C123.333 235.161 123.58 235.432 124.03 235.506C124.03 235.506 124.03 235.506 124.03 235.506L137.518 237.733L133.237 228.413ZM133.237 228.413C133.507 228.253 133.833 228.214 134.124 228.282M133.237 228.413L134.124 228.282M134.124 228.282C134.416 228.349 134.649 228.517 134.761 228.742M134.124 228.282L134.761 228.742M134.761 228.742L134.761 228.742M134.761 228.742L134.761 228.742M134.761 228.742L138.68 236.647C138.816 236.922 138.747 237.211 138.527 237.433C138.305 237.659 137.934 237.801 137.518 237.733L134.761 228.742Z" fill="white" stroke="#3D0F9A" stroke-width="0.5"/>
<path d="M137.544 237.998C137.452 237.998 137.361 237.99 137.269 237.975L124.141 235.842C123.556 235.748 123.115 235.362 123.019 234.861C122.929 234.39 123.164 233.929 123.63 233.656L132.945 228.219C133.328 227.995 133.799 227.941 134.236 228.066C134.615 228.177 134.911 228.41 135.069 228.722L138.884 236.294C139.071 236.667 139.031 237.08 138.771 237.424C138.496 237.788 138.034 238 137.544 238V237.998ZM133.769 228.42C133.554 228.42 133.341 228.475 133.16 228.58L123.847 234.019C123.532 234.203 123.379 234.49 123.436 234.786C123.5 235.115 123.796 235.362 124.21 235.429L137.337 237.562C137.77 237.633 138.198 237.48 138.428 237.172C138.522 237.047 138.658 236.789 138.5 236.479L134.687 228.909C134.583 228.701 134.381 228.546 134.117 228.469C134.004 228.435 133.889 228.42 133.772 228.42H133.769Z" fill="#3D0F9A"/>
<path d="M163.5 161.766L125.25 183.854" stroke="#FF5A00" stroke-dasharray="2 2"/>
<mask id="path-66-inside-1_75_1167" fill="white">
<path d="M194.764 190.297C194.764 193.343 193.981 195.869 192.515 197.556C191.049 199.242 188.966 200.014 186.528 199.773C184.091 199.532 181.409 198.289 178.822 196.201C176.234 194.113 173.858 191.275 171.993 188.044C170.128 184.814 168.858 181.337 168.343 178.052C167.829 174.768 168.094 171.824 169.103 169.592C170.113 167.361 171.823 165.942 174.017 165.516C176.211 165.09 178.79 165.675 181.428 167.198L181.426 182.598L194.764 190.297Z"/>
</mask>
<path d="M194.764 190.297C194.764 193.343 193.981 195.869 192.515 197.556C191.049 199.242 188.966 200.014 186.528 199.773C184.091 199.532 181.409 198.289 178.822 196.201C176.234 194.113 173.858 191.275 171.993 188.044C170.128 184.814 168.858 181.337 168.343 178.052C167.829 174.768 168.094 171.824 169.103 169.592C170.113 167.361 171.823 165.942 174.017 165.516C176.211 165.09 178.79 165.675 181.428 167.198L181.426 182.598L194.764 190.297Z" stroke="white" stroke-width="2" mask="url(#path-66-inside-1_75_1167)"/>
<mask id="path-67-inside-2_75_1167" fill="white">
<path d="M184.052 164.673C185.804 165.684 187.538 167.083 189.156 168.791C190.775 170.499 192.245 172.482 193.483 174.627L184.05 180.073L184.052 164.673Z"/>
</mask>
<path d="M184.052 164.673C185.804 165.684 187.538 167.083 189.156 168.791C190.775 170.499 192.245 172.482 193.483 174.627L184.05 180.073L184.052 164.673Z" stroke="white" stroke-width="2" mask="url(#path-67-inside-2_75_1167)"/>
<path d="M162.5 159.368C161.125 158.506 160 159.212 160 160.933C160 162.655 161.125 164.77 162.5 165.632C163.875 166.494 165 165.788 165 164.067C165 162.345 163.875 160.23 162.5 159.368Z" fill="#FF5A00"/>
<path d="M98.5 170.368C97.1251 169.506 96 170.212 96 171.933C96 173.655 97.1251 175.77 98.5 176.632C99.8749 177.494 101 176.788 101 175.067C101 173.345 99.8749 171.23 98.5 170.368Z" fill="white"/>
<path d="M70.4683 190.5L70.4683 157.141L97 172.456" stroke="white" stroke-dasharray="2 2"/>
<g clip-path="url(#clip2_75_1167)">
<path d="M230.603 183C230.603 183 230.517 183 230.483 183C230.26 182.952 230.055 182.794 229.935 182.572L226.103 175.453C225.949 175.168 225.983 174.851 226.188 174.677C226.376 174.518 226.65 174.502 226.872 174.629L227.437 174.93V170.555C227.437 170.349 227.54 170.174 227.711 170.079C227.882 169.984 228.104 170 228.293 170.095L233.101 172.663C233.357 172.806 233.546 173.107 233.546 173.377V178.18L234.538 178.751C234.777 178.878 234.966 179.147 234.983 179.417C235 179.607 234.931 179.797 234.777 179.908L230.945 182.905C230.842 182.984 230.722 183.016 230.603 183.016V183Z" fill="white"/>
</g>
<path d="M210.515 56.6399C213.001 58.1276 215.008 61.7325 215 64.6929C214.992 67.6533 212.971 68.8477 210.485 67.3601C208.001 65.8724 205.992 62.2662 206 59.3071C206.008 56.3467 208.029 55.1523 210.515 56.6399Z" stroke="white"/>
<path d="M210.515 72.6399C213.001 74.1276 215.008 77.7325 215 80.6929C214.992 83.6533 212.971 84.8477 210.485 83.3601C208.001 81.8724 205.992 78.2662 206 75.3071C206.008 72.3467 208.029 71.1523 210.515 72.6399Z" stroke="white"/>
<rect x="0.432984" y="0.749951" width="15.7193" height="7.51164" rx="3.75582" transform="matrix(0.866082 0.499902 -0.000113307 1 21.7446 194.964)" stroke="white"/>
<circle cx="2.52251" cy="2.52251" r="2.52251" transform="matrix(0.866082 0.499902 -0.000113307 1 23.4175 197.771)" fill="white"/>
<g clip-path="url(#clip3_75_1167)">
<rect width="10.6135" height="10.6135" rx="2.59969" transform="matrix(0.866049 0.499959 -4.68649e-05 1 127.596 171.512)" fill="white"/>
<path d="M134.49 179.472L131.617 181.13L129.894 178.146" stroke="#FF5A00" stroke-width="1.29985" stroke-linecap="round" stroke-linejoin="round"/>
</g>
<defs>
<clipPath id="clip0_75_1167">
<rect width="260" height="233" fill="white" transform="translate(0 17)"/>
</clipPath>
<clipPath id="clip1_75_1167">
<rect width="51" height="63" fill="white" transform="translate(15 91)"/>
</clipPath>
<clipPath id="clip2_75_1167">
<rect width="9" height="13" fill="white" transform="translate(226 170)"/>
</clipPath>
<clipPath id="clip3_75_1167">
<rect width="10.6135" height="10.6135" rx="2.59969" transform="matrix(0.866049 0.499959 -4.68649e-05 1 127.596 171.512)" fill="white"/>
</clipPath>
</defs>
</svg>
