<svg width="260" height="260" viewBox="0 0 260 260" fill="none" xmlns="http://www.w3.org/2000/svg">
<rect x="-0.865972" width="49.6259" height="49.6259" rx="4.5" transform="matrix(-0.865972 0.500092 -0.865972 -0.500092 86.0653 205.75)" stroke="#3D0F9A" stroke-dasharray="2 2"/>
<g clip-path="url(#clip0_75_1734)">
<path d="M7.18968 86.8501L10.0389 85.2356C10.2274 85.1098 10.4265 84.9945 10.6307 84.9001H10.636C12.2125 84.1715 14.2917 84.3759 16.5596 85.6864C21.4462 88.5117 25.4424 95.4362 25.4424 101.082C25.4424 103.97 24.3949 105.983 22.7189 106.884L19.6183 108.661L17.4238 106.664C17.1409 106.533 16.8529 106.381 16.5596 106.213C11.673 103.393 7.67676 96.4636 7.67676 90.8181C7.67676 90.1786 7.72914 89.5863 7.82866 89.0307L7.18445 86.8448L7.18968 86.8501Z" fill="#3D0F9A"/>
<path d="M19.5552 109.306L23.6195 106.931C25.1437 105.773 25.9712 103.729 25.9712 101.087C25.9712 95.2578 21.8702 88.1499 16.8265 85.2354C14.7367 84.0298 12.6993 83.6681 11.0024 84.2028L10.3687 84.4544C10.1801 84.5382 9.9549 84.664 9.7454 84.8108L6.57147 86.6035L7.29948 89.0672C7.2052 89.6281 7.15807 90.2151 7.15807 90.8232C7.15807 96.6521 11.259 103.76 16.3027 106.674C16.5751 106.832 16.8527 106.979 17.1355 107.11L19.5552 109.306ZM21.8021 106.816L19.6967 108.016L17.6488 106.187C17.3712 106.056 17.0936 105.914 16.8265 105.762C12.0761 103.016 8.20557 96.3114 8.20557 90.818C8.20557 90.2309 8.2527 89.6595 8.34698 89.1248L8.36793 89.0043L7.80752 87.1015L10.2953 85.6914C10.4944 85.5604 10.6672 85.4608 10.84 85.3822H10.8557C12.3327 84.6955 14.2654 84.9681 16.2975 86.1422C21.0532 88.889 24.9184 95.5933 24.9184 101.087C24.9184 103.681 24.049 105.579 22.4725 106.428L21.7759 106.806L21.7969 106.821L21.8021 106.816Z" fill="#3D0F9A"/>
<path d="M13.4062 87.4944C8.51965 84.6743 4.52344 86.9807 4.52344 92.6262C4.52344 98.2716 8.51965 105.201 13.4062 108.021C18.2928 110.847 22.2891 108.535 22.2891 102.89C22.2891 97.2442 18.2928 90.3145 13.4062 87.4944Z" fill="white"/>
<path d="M17.3555 109.757C18.293 109.757 19.1677 109.537 19.9428 109.086C21.7917 108.017 22.813 105.815 22.813 102.89C22.813 97.0611 18.712 89.9532 13.6683 87.0388C11.1386 85.5763 8.7241 85.3614 6.87003 86.4307C5.02119 87.5 3.99987 89.7016 3.99987 92.6266C3.99987 98.4555 8.10083 105.563 13.1445 108.478C14.6163 109.327 16.0461 109.757 17.3555 109.757ZM9.46258 86.8081C10.5834 86.8081 11.8352 87.1908 13.1445 87.9456C17.9002 90.6923 21.7655 97.3966 21.7655 102.89C21.7655 105.427 20.9327 107.304 19.4191 108.179C17.9054 109.054 15.8628 108.834 13.6683 107.571C8.91264 104.824 5.04737 98.12 5.04737 92.6266C5.04737 90.0895 5.88014 88.2129 7.39378 87.3375C8.00657 86.9863 8.70314 86.8081 9.46258 86.8081Z" fill="#3D0F9A"/>
<path d="M7.18968 8.8884L10.0389 7.27392C10.2274 7.14811 10.4265 7.03279 10.6307 6.93844H10.636C12.2125 6.20983 14.2917 6.41426 16.5596 7.72472C21.4462 10.5501 25.4424 17.4745 25.4424 23.12C25.4424 26.0082 24.3949 28.0211 22.7189 28.9227L19.6183 30.6997L17.4238 28.7025C17.1409 28.5715 16.8529 28.4195 16.5596 28.2517C11.673 25.4316 7.67676 18.5019 7.67676 12.8565C7.67676 12.217 7.72914 11.6246 7.82866 11.069L7.18445 8.88316L7.18968 8.8884Z" fill="#3D0F9A"/>
<path d="M19.5552 31.3444L23.6195 28.9698C25.1437 27.8114 25.9712 25.767 25.9712 23.1252C25.9712 17.2962 21.8702 10.1883 16.8265 7.27386C14.7367 6.06824 12.6941 5.71179 11.0024 6.24122L10.8191 6.31641L10.2953 6.55469C10.0963 6.6438 9.7454 6.84927 9.7454 6.84927L6.57147 8.64722L7.29948 11.1161C7.2052 11.677 7.15807 12.2641 7.15807 12.8721C7.15807 18.7011 11.259 25.809 16.3027 28.7234C16.5751 28.8807 16.8527 29.0275 17.1355 29.1585L19.5552 31.3548V31.3444ZM21.8021 28.8545L19.6967 30.0549L17.6488 28.2255C17.3712 28.0944 17.0936 27.9529 16.8265 27.7956C12.0761 25.0489 8.20557 18.3446 8.20557 12.8512C8.20557 12.2641 8.2527 11.6927 8.34698 11.1581L8.36793 11.0375L7.80752 9.13471L10.2953 7.7299C10.4839 7.6041 10.6515 7.50974 10.8191 7.42587L10.8557 7.41015C12.3327 6.72871 14.2654 7.00129 16.2975 8.17546C21.0532 10.9222 24.9184 17.6265 24.9184 23.1199C24.9184 25.7146 24.049 27.6122 22.4725 28.4613L21.7759 28.8388L21.7969 28.8545H21.8021Z" fill="#3D0F9A"/>
<path d="M13.4062 9.53277C8.51965 6.71266 4.52344 9.01907 4.52344 14.6645C4.52344 20.31 8.51965 27.2397 13.4062 30.0598C18.2928 32.8851 22.2891 30.5735 22.2891 24.928C22.2891 19.2826 18.2928 12.3529 13.4062 9.53277Z" fill="white"/>
<path d="M17.3555 31.795C18.293 31.795 19.1677 31.5748 19.9428 31.124C21.7917 30.0547 22.813 27.8531 22.813 24.9282C22.813 19.0992 18.712 11.9913 13.6683 9.07685C11.1386 7.61438 8.7241 7.39947 6.87003 8.4688C5.02119 9.53813 3.99987 11.7397 3.99987 14.6646C3.99987 20.4936 8.10083 27.6015 13.1445 30.5159C14.6163 31.3651 16.0461 31.795 17.3555 31.795ZM9.46258 8.84621C10.5834 8.84621 11.8352 9.22887 13.1445 9.98369C17.9002 12.7304 21.7655 19.4347 21.7655 24.9282C21.7655 27.4652 20.9327 29.3418 19.4191 30.2172C17.9054 31.0926 15.8628 30.8776 13.6683 29.6091C8.91264 26.8624 5.04737 20.1581 5.04737 14.6646C5.04737 12.1276 5.88014 10.251 7.39378 9.37564C8.00657 9.02443 8.70314 8.84621 9.46258 8.84621Z" fill="#3D0F9A"/>
<path d="M72.0249 87.3376L58.1403 95.0588L44.2557 70.8363L58.1246 63.3667L72.0249 87.3376Z" fill="white"/>
<path d="M68.7983 89.1301L54.9137 96.8565L41.0291 72.6288L54.898 65.1592L68.7983 89.1301Z" fill="white"/>
<path d="M54.7149 97.5642L69.5161 89.3293L55.0973 64.4568L40.3066 72.4244L54.7149 97.5642Z" fill="#3D0F9A"/>
<path d="M72.283 90.2695L101.702 107.406L101.175 108.312L71.7561 91.1756L72.283 90.2695Z" fill="#3D0F9A"/>
<path d="M69.0499 89.5917L72.7476 87.5369L58.3235 62.6592L54.6467 64.7035L55.1548 65.6208L57.9307 64.0745L71.3072 87.1385L68.5418 88.6744L69.0499 89.5917Z" fill="#3D0F9A"/>
<path d="M54.6415 61.2699H55.689V40.9002L27.7207 24.7344L27.197 25.6465L54.6415 41.503V61.2699Z" fill="#3D0F9A"/>
<path d="M55.4114 121.651L55.689 101.161L54.6415 101.145L54.3848 119.853L27.7207 104.442L27.197 105.349L55.4114 121.651Z" fill="#3D0F9A"/>
</g>
<g clip-path="url(#clip1_75_1734)">
<path d="M246.704 207.361L252.579 204.092C253.563 203.423 254.111 202.388 254.111 201.232V94.0164C254.111 91.588 252.805 89.3255 250.703 88.1085L107.681 5.4647C106.597 4.83962 105.302 4.84515 104.218 5.4813L104.141 5.53661L103.847 5.78554C103.77 5.84086 103.687 5.91277 103.571 6.01787C103.527 6.06213 103.482 6.10085 103.455 6.11744L99.3279 9.20414L101.115 12.6393L103.272 116.165C103.272 118.583 104.578 120.845 106.68 122.062L246.433 205.248C246.311 205.436 246.184 205.696 246.317 205.989C246.344 206.05 246.378 206.1 246.422 206.15L246.704 207.361ZM246.743 205.431H246.748C246.748 205.431 246.748 205.431 246.743 205.431Z" fill="#3D0F9A"/>
<path d="M243.927 206.718C244.387 206.983 244.892 207.115 245.395 207.116C245.896 207.115 246.396 206.984 246.863 206.718C247.782 206.187 248.333 205.24 248.333 204.175V96.9591C248.333 94.7093 247.123 92.6116 245.175 91.4839L102.905 9.34934C101.987 8.8191 100.889 8.8191 99.9701 9.34934C99.0508 9.8801 98.4998 10.8274 98.4998 11.8924V119.108C98.4998 121.358 99.71 123.456 101.658 124.583L243.927 206.718Z" fill="white" stroke="#3D0F9A"/>
<g clip-path="url(#clip2_75_1734)">
<path d="M128.694 58.6578L127.562 58.0011C126.135 57.1633 124.979 54.9443 124.979 53.0423C124.979 51.1402 126.157 50.2571 127.584 51.0949L128.717 51.7516C130.144 52.5894 131.299 54.8084 131.299 56.7105C131.299 58.6125 130.121 59.4956 128.694 58.6578Z" fill="#3D0F9A"/>
<path d="M129.736 59.6994C129.283 59.6994 128.808 59.5635 128.332 59.2918L127.199 58.6352C125.546 57.6615 124.255 55.216 124.255 53.0423C124.255 51.7743 124.731 50.778 125.523 50.3025C126.225 49.8949 127.109 49.9402 127.97 50.4383L129.102 51.095C130.756 52.0686 132.047 54.5141 132.047 56.6878C132.047 57.9559 131.571 58.9522 130.778 59.4277C130.461 59.6088 130.121 59.6994 129.736 59.6994ZM129.079 58.0011C129.306 58.137 129.714 58.3182 130.031 58.137C130.348 57.9559 130.552 57.3898 130.552 56.6878C130.552 55.0575 129.555 53.0649 128.355 52.3856L127.222 51.729C126.996 51.5931 126.588 51.412 126.271 51.5931C125.954 51.7743 125.75 52.3403 125.75 53.0423C125.75 54.6726 126.746 56.6652 127.947 57.3445L129.079 58.0011Z" fill="#3D0F9A"/>
<path d="M147.743 69.7079L136.939 63.4357C135.512 62.5979 134.357 60.3789 134.357 58.4768C134.357 56.5748 135.535 55.6917 136.962 56.5295L147.766 62.8017C149.193 63.6395 150.348 65.8585 150.348 67.7605C150.348 69.6626 149.17 70.5457 147.743 69.7079Z" fill="#3D0F9A"/>
<path d="M148.786 70.7495C148.333 70.7495 147.857 70.6136 147.381 70.3419L136.577 64.0697C134.923 63.0961 133.632 60.6506 133.632 58.4769C133.632 57.2088 134.108 56.2125 134.901 55.737C135.603 55.3295 136.486 55.3747 137.347 55.8729L148.151 62.1451C149.805 63.1187 151.119 65.5642 151.096 67.7379C151.096 69.0059 150.62 70.0022 149.827 70.4778C149.51 70.6589 149.171 70.7495 148.786 70.7495ZM148.129 69.0512C148.355 69.1871 148.763 69.3682 149.08 69.1871C149.397 69.0059 149.601 68.4399 149.601 67.7379C149.601 66.1076 148.604 64.115 147.404 63.4357L136.6 57.1636C136.373 57.0277 135.965 56.8465 135.648 57.0277C135.331 57.2088 135.127 57.7749 135.127 58.4769C135.127 60.1072 136.124 62.0998 137.324 62.7791L148.129 69.0512Z" fill="#3D0F9A"/>
<path d="M176.94 86.645L156.237 74.6215C154.81 73.7837 153.655 71.5647 153.655 69.6626C153.655 67.7606 154.833 66.8775 156.26 67.7153L176.963 79.7388C178.39 80.5766 179.545 82.7957 179.545 84.6977C179.545 86.5997 178.367 87.4828 176.94 86.645Z" fill="#3D0F9A"/>
<path d="M177.959 87.7093C177.506 87.7093 177.031 87.5735 176.555 87.3018L155.852 75.2782C154.199 74.3046 152.908 71.8591 152.908 69.6854C152.908 68.4173 153.383 67.421 154.176 66.9455C154.878 66.5379 155.762 66.5832 156.622 67.0814L177.325 79.1049C178.978 80.0786 180.292 82.524 180.27 84.6978C180.27 85.9658 179.794 86.9621 179.001 87.4376C178.684 87.6188 178.344 87.7093 177.959 87.7093ZM177.302 86.0111C177.529 86.147 177.937 86.3281 178.254 86.147C178.571 85.9658 178.775 85.3997 178.775 84.6978C178.775 83.0675 177.778 81.0749 176.578 80.3956L155.875 68.372C155.648 68.2362 155.241 68.055 154.924 68.2362C154.607 68.4173 154.403 68.9834 154.403 69.6854C154.403 71.3157 155.399 73.3083 156.6 73.9876L177.302 86.0111Z" fill="#3D0F9A"/>
<path d="M118.207 52.5443L107.403 46.2721C105.976 45.4343 104.821 43.2153 104.821 41.3133C104.821 39.4112 105.999 38.5281 107.426 39.3659L118.23 45.6381C119.657 46.4759 120.812 48.6949 120.812 50.597C120.812 52.499 119.634 53.3821 118.207 52.5443Z" fill="#3D0F9A"/>
<path d="M119.227 53.6086C118.774 53.6086 118.298 53.4727 117.822 53.201L107.018 46.9289C105.365 45.9552 104.051 43.5097 104.074 41.336C104.074 40.068 104.549 39.0717 105.342 38.5962C106.044 38.1886 106.927 38.2339 107.788 38.732L118.593 45.0042C120.246 45.9778 121.537 48.4233 121.537 50.5971C121.537 51.8651 121.061 52.8614 120.269 53.3369C119.952 53.518 119.612 53.6086 119.227 53.6086ZM118.57 51.9104C118.796 52.0462 119.204 52.2274 119.521 52.0462C119.838 51.8651 120.042 51.299 120.042 50.5971C120.042 48.9667 119.046 46.9741 117.845 46.2948L107.041 40.0227C106.814 39.8868 106.407 39.7057 106.089 39.8868C105.772 40.068 105.568 40.634 105.568 41.336C105.568 42.9663 106.565 44.9589 107.766 45.6382L118.57 51.9104Z" fill="#3D0F9A"/>
<path d="M221.041 112.255L185.683 91.7399C184.256 90.9021 183.101 88.6831 183.101 86.781C183.101 84.879 184.279 83.9959 185.706 84.8337L221.063 105.348C222.49 106.186 223.646 108.405 223.646 110.307C223.646 112.209 222.468 113.092 221.041 112.255Z" fill="#3D0F9A"/>
<path d="M222.083 113.319C221.63 113.319 221.154 113.183 220.679 112.911L185.321 92.3964C183.668 91.4227 182.376 88.9773 182.376 86.8035C182.376 85.5355 182.852 84.5392 183.645 84.0637C184.347 83.6561 185.23 83.7014 186.091 84.1996L221.449 104.714C223.102 105.688 224.393 108.133 224.393 110.307C224.393 111.575 223.918 112.571 223.125 113.047C222.808 113.228 222.468 113.319 222.083 113.319ZM184.687 85.2638C184.687 85.2638 184.483 85.2638 184.392 85.3317C184.075 85.5129 183.871 86.0789 183.871 86.7809C183.871 88.4112 184.868 90.4038 186.069 91.0831L221.426 111.598C221.653 111.734 222.06 111.915 222.377 111.734C222.694 111.553 222.898 110.986 222.898 110.285C222.898 108.654 221.902 106.662 220.701 105.982L185.344 85.4676C185.185 85.377 184.936 85.2638 184.687 85.2638Z" fill="#3D0F9A"/>
<path d="M240.634 123.621L229.829 117.349C228.402 116.511 227.247 114.292 227.247 112.39C227.247 110.488 228.425 109.605 229.852 110.443L240.656 116.715C242.083 117.553 243.238 119.772 243.238 121.674C243.238 123.576 242.061 124.459 240.634 123.621Z" fill="#3D0F9A"/>
<path d="M241.653 124.686C241.2 124.686 240.724 124.55 240.248 124.278L229.444 118.006C227.791 117.032 226.5 114.587 226.5 112.413C226.5 111.145 226.975 110.149 227.768 109.673C228.493 109.266 229.353 109.311 230.214 109.809L241.019 116.081C242.672 117.055 243.963 119.5 243.963 121.674C243.963 122.942 243.487 123.939 242.695 124.414C242.378 124.595 242.038 124.686 241.653 124.686ZM240.996 122.988C241.222 123.123 241.63 123.305 241.947 123.123C242.264 122.942 242.468 122.376 242.468 121.674C242.468 120.044 241.472 118.051 240.271 117.372L229.467 111.1C229.24 110.964 228.833 110.783 228.515 110.964C228.198 111.145 227.994 111.711 227.994 112.413C227.994 114.043 228.991 116.036 230.192 116.715L240.996 122.988Z" fill="#3D0F9A"/>
<path d="M129.079 70.8853L123.168 67.4435C121.741 66.6057 120.585 64.3867 120.585 62.4846C120.585 60.5826 121.763 59.6995 123.19 60.5373L129.102 63.9791C130.529 64.8169 131.684 67.0359 131.684 68.938C131.684 70.84 130.506 71.7231 129.079 70.8853Z" fill="#3D0F9A"/>
<path d="M130.122 71.9496C129.669 71.9496 129.193 71.8137 128.717 71.542L122.805 68.1002C121.152 67.1266 119.861 64.6811 119.861 62.5074C119.861 61.2394 120.337 60.2431 121.129 59.7675C121.831 59.36 122.715 59.4053 123.576 59.9034L129.487 63.3452C131.141 64.3188 132.432 66.7643 132.432 68.938C132.432 70.2061 131.956 71.2024 131.163 71.6779C130.846 71.859 130.507 71.9496 130.122 71.9496ZM129.465 70.2513C129.691 70.3872 130.099 70.5684 130.416 70.3872C130.733 70.2061 130.937 69.64 130.937 68.938C130.937 67.3077 129.94 65.3151 128.74 64.6358L122.828 61.1941C122.602 61.0582 122.194 60.8771 121.877 61.0582C121.56 61.2394 121.356 61.8054 121.356 62.5074C121.356 64.1377 122.352 66.1303 123.553 66.8096L129.465 70.2513Z" fill="#3D0F9A"/>
<path d="M173.271 96.54L137.913 76.0253C136.486 75.1875 135.331 72.9685 135.331 71.0664C135.331 69.1644 136.509 68.2813 137.936 69.1191L173.293 89.6339C174.72 90.4717 175.876 92.6907 175.876 94.5927C175.876 96.4948 174.698 97.3778 173.271 96.54Z" fill="#FF5A00"/>
<path d="M174.29 97.6043C173.837 97.6043 173.362 97.4685 172.886 97.1968L137.529 76.682C135.875 75.7084 134.584 73.2629 134.584 71.0892C134.584 69.8211 135.06 68.8248 135.852 68.3493C136.555 67.9418 137.438 67.987 138.299 68.4852L173.656 88.9999C175.31 89.9736 176.623 92.4191 176.601 94.5928C176.601 95.8608 176.125 96.8571 175.332 97.3326C175.015 97.5138 174.675 97.6043 174.29 97.6043ZM173.634 95.9061C173.86 96.042 174.268 96.2231 174.585 96.042C174.902 95.8608 175.106 95.2947 175.106 94.5928C175.106 92.9625 174.109 90.9699 172.909 90.2906L137.551 69.7759C137.325 69.64 136.917 69.4589 136.6 69.64C136.283 69.8211 136.079 70.3872 136.079 71.0892C136.079 72.7195 137.076 74.7121 138.276 75.3914L173.634 95.9061Z" fill="#FF5A00"/>
<path d="M202.015 113.228L191.211 106.956C189.784 106.118 188.628 103.899 188.628 101.997C188.628 100.095 189.806 99.212 191.233 100.05L202.038 106.322C203.465 107.16 204.62 109.379 204.62 111.281C204.62 113.183 203.442 114.066 202.015 113.228Z" fill="#3D0F9A"/>
<path d="M203.034 114.292C202.581 114.292 202.105 114.156 201.63 113.885L190.825 107.612C189.172 106.639 187.881 104.193 187.881 102.02C187.881 100.752 188.357 99.7553 189.149 99.2798C189.851 98.8722 190.735 98.9175 191.596 99.4156L202.4 105.688C204.053 106.661 205.344 109.107 205.344 111.281C205.344 112.549 204.869 113.545 204.076 114.02C203.759 114.202 203.419 114.292 203.034 114.292ZM190.191 100.48C190.191 100.48 189.987 100.48 189.897 100.548C189.58 100.729 189.376 101.295 189.376 101.997C189.376 103.627 190.372 105.62 191.573 106.299L202.377 112.571C202.604 112.707 203.011 112.888 203.329 112.707C203.646 112.526 203.849 111.96 203.849 111.258C203.849 109.628 202.853 107.635 201.652 106.956L190.848 100.684C190.69 100.593 190.44 100.48 190.191 100.48Z" fill="#3D0F9A"/>
<path d="M231.188 130.165L210.485 118.142C209.058 117.304 207.903 115.085 207.903 113.183C207.903 111.281 209.081 110.398 210.508 111.235L231.211 123.259C232.638 124.097 233.793 126.316 233.793 128.218C233.793 130.12 232.615 131.003 231.188 130.165Z" fill="#3D0F9A"/>
<path d="M232.23 131.229C231.777 131.229 231.302 131.094 230.826 130.822L210.123 118.798C208.47 117.825 207.179 115.379 207.179 113.205C207.179 111.937 207.654 110.941 208.447 110.466C209.149 110.058 210.033 110.103 210.893 110.601L231.596 122.625C233.249 123.599 234.563 126.044 234.541 128.218C234.541 129.486 234.065 130.482 233.272 130.958C232.955 131.139 232.615 131.229 232.23 131.229ZM231.573 129.531C231.8 129.667 232.208 129.848 232.525 129.667C232.842 129.486 233.046 128.92 233.046 128.218C233.046 126.588 232.049 124.595 230.849 123.916L210.146 111.892C209.919 111.756 209.512 111.575 209.195 111.756C208.878 111.937 208.674 112.503 208.674 113.205C208.674 114.836 209.67 116.828 210.871 117.508L231.573 129.531Z" fill="#3D0F9A"/>
<path d="M154.607 97.3782L119.249 76.8634C117.822 76.0256 116.667 73.8066 116.667 71.9046C116.667 70.0025 117.845 69.1195 119.272 69.9573L154.629 90.472C156.056 91.3098 157.211 93.5288 157.211 95.4309C157.211 97.3329 156.034 98.216 154.607 97.3782Z" fill="#3D0F9A"/>
<path d="M155.649 98.4422C155.196 98.4422 154.72 98.3064 154.244 98.0347L118.887 77.5199C117.233 76.5463 115.942 74.1008 115.942 71.9271C115.942 70.659 116.418 69.6627 117.211 69.1872C117.913 68.7796 118.796 68.8249 119.657 69.3231L155.015 89.8378C156.668 90.8115 157.959 93.257 157.959 95.4307C157.959 96.6987 157.483 97.695 156.691 98.1705C156.374 98.3517 156.034 98.4422 155.649 98.4422ZM154.992 96.744C155.218 96.8799 155.626 97.061 155.943 96.8799C156.26 96.6987 156.464 96.1326 156.464 95.4307C156.464 93.8004 155.468 91.8078 154.267 91.1285L118.91 70.6137C118.683 70.4779 118.275 70.2967 117.958 70.4779C117.641 70.659 117.437 71.2251 117.437 71.9271C117.437 73.5574 118.434 75.55 119.634 76.2293L154.992 96.744Z" fill="#3D0F9A"/>
<path d="M163.961 102.812L162.829 102.155C161.402 101.318 160.247 99.0986 160.247 97.1966C160.247 95.2945 161.424 94.4114 162.851 95.2492L163.984 95.9059C165.411 96.7437 166.566 98.9627 166.566 100.865C166.566 102.767 165.388 103.65 163.961 102.812Z" fill="#3D0F9A"/>
<path d="M165.003 103.876C164.55 103.876 164.075 103.741 163.599 103.469L162.467 102.812C160.813 101.838 159.522 99.393 159.522 97.2193C159.522 95.9513 159.998 94.955 160.79 94.4795C161.493 94.0719 162.376 94.1172 163.237 94.6153L164.369 95.272C166.023 96.2456 167.336 98.6911 167.314 100.865C167.314 102.133 166.838 103.129 166.045 103.605C165.728 103.786 165.388 103.876 165.003 103.876ZM164.347 102.178C164.573 102.314 164.981 102.495 165.298 102.314C165.615 102.133 165.819 101.567 165.819 100.865C165.819 99.2345 164.822 97.2419 163.622 96.5626L162.489 95.906C162.263 95.7701 161.855 95.589 161.538 95.7701C161.221 95.9513 161.017 96.5173 161.017 97.2193C161.017 98.8496 162.014 100.842 163.214 101.521L164.347 102.178Z" fill="#3D0F9A"/>
<path d="M183.351 114.066L172.547 107.794C171.12 106.956 169.964 104.737 169.964 102.835C169.964 100.933 171.142 100.05 172.569 100.887L183.373 107.16C184.8 107.997 185.956 110.216 185.956 112.118C185.956 114.02 184.778 114.904 183.351 114.066Z" fill="#3D0F9A"/>
<path d="M184.393 115.13C183.94 115.13 183.464 114.994 182.988 114.723L172.184 108.45C170.531 107.477 169.217 105.031 169.24 102.857C169.24 101.589 169.715 100.593 170.508 100.118C171.21 99.7101 172.094 99.7554 172.954 100.254L183.759 106.526C185.412 107.499 186.703 109.945 186.703 112.119C186.703 113.387 186.227 114.383 185.435 114.858C185.118 115.04 184.778 115.13 184.393 115.13ZM183.736 113.432C183.962 113.568 184.37 113.749 184.687 113.568C185.004 113.387 185.208 112.82 185.208 112.119C185.208 110.488 184.212 108.496 183.011 107.816L172.207 101.544C171.98 101.408 171.573 101.227 171.255 101.408C170.938 101.589 170.734 102.156 170.734 102.857C170.734 104.488 171.731 106.48 172.932 107.16L183.736 113.432Z" fill="#3D0F9A"/>
<path d="M212.547 131.003L191.844 118.979C190.417 118.142 189.262 115.923 189.262 114.021C189.262 112.119 190.44 111.235 191.867 112.073L212.57 124.097C213.997 124.935 215.152 127.154 215.152 129.056C215.152 130.958 213.974 131.841 212.547 131.003Z" fill="#3D0F9A"/>
<path d="M213.589 132.067C213.136 132.067 212.66 131.931 212.185 131.66L191.482 119.636C189.828 118.662 188.515 116.217 188.537 114.043C188.537 112.775 189.013 111.779 189.806 111.303C190.508 110.896 191.391 110.941 192.252 111.439L212.955 123.463C214.608 124.436 215.899 126.882 215.899 129.056C215.899 130.324 215.424 131.32 214.631 131.796C214.314 131.977 213.974 132.067 213.589 132.067ZM212.932 130.369C213.159 130.505 213.566 130.686 213.883 130.505C214.2 130.324 214.404 129.758 214.404 129.056C214.404 127.425 213.408 125.433 212.207 124.754L191.505 112.73C191.278 112.594 190.87 112.413 190.553 112.594C190.236 112.775 190.032 113.341 190.032 114.043C190.032 115.674 191.029 117.666 192.229 118.345L212.932 130.369Z" fill="#3D0F9A"/>
<path d="M227.541 139.72L221.63 136.279C220.203 135.441 219.047 133.222 219.047 131.32C219.047 129.418 220.225 128.535 221.652 129.373L227.564 132.814C228.991 133.652 230.146 135.871 230.146 137.773C230.146 139.675 228.968 140.558 227.541 139.72Z" fill="#3D0F9A"/>
<path d="M228.583 140.785C228.13 140.785 227.655 140.649 227.179 140.377L221.267 136.936C219.614 135.962 218.323 133.517 218.323 131.343C218.323 130.075 218.798 129.079 219.591 128.603C220.293 128.195 221.177 128.241 222.037 128.739L227.949 132.181C229.603 133.154 230.894 135.6 230.894 137.773C230.894 139.042 230.418 140.038 229.625 140.513C229.308 140.694 228.969 140.785 228.583 140.785ZM220.61 129.826C220.61 129.826 220.407 129.826 220.316 129.894C219.999 130.075 219.795 130.641 219.795 131.343C219.795 132.973 220.792 134.966 221.992 135.645L227.904 139.087C228.13 139.223 228.538 139.404 228.855 139.223C229.172 139.042 229.376 138.475 229.376 137.773C229.376 136.143 228.38 134.151 227.179 133.471L221.267 130.03C221.109 129.939 220.86 129.826 220.61 129.826Z" fill="#3D0F9A"/>
<path d="M128.853 93.5738L127.72 92.9171C126.293 92.0793 125.138 89.8603 125.138 87.9583C125.138 86.0562 126.316 85.1732 127.743 86.011L128.876 86.6676C130.303 87.5054 131.458 89.7244 131.458 91.6265C131.458 93.5285 130.28 94.4116 128.853 93.5738Z" fill="#3D0F9A"/>
<path d="M129.873 94.6381C129.42 94.6381 128.944 94.5023 128.468 94.2305L127.336 93.5739C125.682 92.6002 124.391 90.1548 124.391 87.981C124.391 86.713 124.867 85.7167 125.66 85.2412C126.362 84.8336 127.245 84.8789 128.106 85.377L129.238 86.0337C130.892 87.0073 132.206 89.4528 132.183 91.6266C132.183 92.8946 131.707 93.8909 130.914 94.3664C130.597 94.5475 130.258 94.6381 129.873 94.6381ZM129.216 92.9399C129.442 93.0757 129.85 93.2569 130.167 93.0757C130.484 92.8946 130.688 92.3285 130.688 91.6266C130.688 89.9962 129.691 88.0036 128.491 87.3243L127.358 86.6677C127.132 86.5318 126.724 86.3507 126.407 86.5318C126.09 86.713 125.886 87.2791 125.886 87.981C125.886 89.6113 126.883 91.6039 128.083 92.2832L129.216 92.9399Z" fill="#3D0F9A"/>
<path d="M147.88 104.624L137.075 98.3515C135.648 97.5137 134.493 95.2946 134.493 93.3926C134.493 91.4906 135.671 90.6075 137.098 91.4453L147.902 97.7174C149.329 98.5552 150.484 100.774 150.484 102.676C150.484 104.578 149.307 105.461 147.88 104.624Z" fill="#3D0F9A"/>
<path d="M148.922 105.688C148.469 105.688 147.993 105.552 147.517 105.28L136.713 99.0082C135.06 98.0345 133.769 95.5891 133.769 93.4153C133.769 92.1473 134.244 91.151 135.037 90.6755C135.739 90.2679 136.623 90.3132 137.483 90.8114L148.288 97.0835C149.941 98.0572 151.232 100.503 151.232 102.676C151.232 103.944 150.756 104.941 149.964 105.416C149.647 105.597 149.307 105.688 148.922 105.688ZM136.079 91.8756C136.079 91.8756 135.875 91.8756 135.784 91.9435C135.467 92.1247 135.263 92.6907 135.263 93.3927C135.263 95.023 136.26 97.0156 137.461 97.6949L148.265 103.967C148.491 104.103 148.899 104.284 149.216 104.103C149.533 103.922 149.737 103.356 149.737 102.654C149.737 101.023 148.741 99.0308 147.54 98.3516L136.736 92.0794C136.577 91.9888 136.328 91.8756 136.079 91.8756Z" fill="#3D0F9A"/>
<path d="M177.076 121.584L156.374 109.56C154.947 108.722 153.792 106.503 153.792 104.601C153.792 102.699 154.969 101.816 156.396 102.654L177.099 114.677C178.526 115.515 179.681 117.734 179.681 119.636C179.681 121.538 178.503 122.421 177.076 121.584Z" fill="#3D0F9A"/>
<path d="M178.118 122.625C177.665 122.625 177.19 122.489 176.714 122.218L156.011 110.194C154.358 109.22 153.067 106.775 153.067 104.601C153.067 103.333 153.543 102.337 154.335 101.861C155.037 101.454 155.921 101.499 156.782 101.997L177.484 114.021C179.138 114.994 180.429 117.44 180.429 119.614C180.429 120.882 179.953 121.878 179.16 122.353C178.843 122.535 178.503 122.625 178.118 122.625ZM177.462 120.927C177.688 121.063 178.096 121.244 178.413 121.063C178.73 120.882 178.934 120.316 178.934 119.614C178.934 117.983 177.937 115.991 176.737 115.311L156.034 103.288C155.808 103.152 155.4 102.971 155.083 103.152C154.766 103.333 154.562 103.899 154.562 104.601C154.562 106.231 155.558 108.224 156.759 108.903L177.462 120.927Z" fill="#3D0F9A"/>
<path d="M221.2 147.193L185.842 126.678C184.415 125.841 183.26 123.622 183.26 121.72C183.26 119.817 184.438 118.934 185.865 119.772L221.223 140.287C222.65 141.125 223.805 143.344 223.805 145.246C223.805 147.148 222.627 148.031 221.2 147.193Z" fill="#3D0F9A"/>
<path d="M222.219 148.235C221.766 148.235 221.29 148.099 220.815 147.827L185.457 127.312C183.804 126.339 182.513 123.893 182.513 121.72C182.513 120.452 182.988 119.455 183.781 118.98C184.483 118.572 185.367 118.617 186.227 119.116L221.585 139.63C223.238 140.604 224.552 143.049 224.529 145.223C224.529 146.491 224.054 147.487 223.261 147.963C222.944 148.144 222.604 148.235 222.219 148.235ZM221.562 146.536C221.789 146.672 222.196 146.853 222.514 146.672C222.831 146.491 223.035 145.925 223.035 145.223C223.035 143.593 222.038 141.6 220.837 140.921L185.48 120.406C185.253 120.27 184.846 120.089 184.529 120.27C184.211 120.452 184.008 121.018 184.008 121.72C184.008 123.35 185.004 125.342 186.205 126.022L221.562 146.536Z" fill="#3D0F9A"/>
<path d="M240.77 158.56L229.965 152.287C228.538 151.45 227.383 149.231 227.383 147.329C227.383 145.427 228.561 144.544 229.988 145.381L240.792 151.653C242.219 152.491 243.375 154.71 243.375 156.612C243.375 158.514 242.197 159.397 240.77 158.56Z" fill="#3D0F9A"/>
<path d="M241.812 159.602C241.359 159.602 240.883 159.466 240.407 159.194L229.603 152.922C227.95 151.948 226.636 149.503 226.658 147.329C226.658 146.061 227.134 145.065 227.927 144.589C228.629 144.182 229.512 144.227 230.373 144.725L241.178 150.997C242.831 151.971 244.122 154.416 244.122 156.59C244.122 157.858 243.646 158.854 242.854 159.33C242.537 159.511 242.197 159.602 241.812 159.602ZM241.155 157.903C241.381 158.039 241.789 158.22 242.106 158.039C242.423 157.858 242.627 157.292 242.627 156.59C242.627 154.96 241.631 152.967 240.43 152.288L229.626 146.016C229.399 145.88 228.991 145.699 228.674 145.88C228.357 146.061 228.153 146.627 228.153 147.329C228.153 148.959 229.15 150.952 230.351 151.631L241.155 157.903Z" fill="#3D0F9A"/>
<path d="M173.588 131.569L138.231 111.055C136.804 110.217 135.648 107.998 135.648 106.096C135.648 104.194 136.826 103.311 138.253 104.148L173.611 124.663C175.038 125.501 176.193 127.72 176.193 129.622C176.193 131.524 175.015 132.407 173.588 131.569Z" fill="#3D0F9A"/>
<path d="M174.607 132.633C174.154 132.633 173.679 132.498 173.203 132.226L137.845 111.711C136.192 110.737 134.901 108.292 134.901 106.118C134.901 104.85 135.377 103.854 136.169 103.378C136.871 102.971 137.755 103.016 138.616 103.514L173.973 124.029C175.627 125.003 176.918 127.448 176.918 129.622C176.918 130.89 176.442 131.886 175.649 132.362C175.332 132.543 174.992 132.633 174.607 132.633ZM173.95 130.935C174.177 131.071 174.585 131.252 174.902 131.071C175.219 130.89 175.423 130.324 175.423 129.622C175.423 127.992 174.426 125.999 173.226 125.32L137.868 104.805C137.642 104.669 137.234 104.488 136.917 104.669C136.6 104.85 136.396 105.416 136.396 106.118C136.396 107.749 137.392 109.741 138.593 110.42L173.95 130.935Z" fill="#3D0F9A"/>
<path d="M182.943 137.004L181.81 136.347C180.383 135.509 179.228 133.29 179.228 131.388C179.228 129.486 180.406 128.603 181.833 129.441L182.965 130.098C184.392 130.935 185.548 133.154 185.548 135.056C185.548 136.958 184.37 137.842 182.943 137.004Z" fill="#FF5A00"/>
<path d="M183.985 138.068C183.532 138.068 183.056 137.932 182.581 137.66L181.448 137.004C179.794 136.03 178.503 133.585 178.503 131.411C178.503 130.143 178.979 129.147 179.772 128.671C180.474 128.264 181.357 128.309 182.218 128.807L183.351 129.464C185.004 130.437 186.295 132.883 186.295 135.056C186.295 136.325 185.82 137.321 185.027 137.796C184.71 137.977 184.37 138.068 183.985 138.068ZM183.328 136.37C183.554 136.506 183.962 136.687 184.279 136.506C184.596 136.325 184.8 135.758 184.8 135.056C184.8 133.426 183.804 131.434 182.603 130.754L181.471 130.098C181.244 129.962 180.836 129.781 180.519 129.962C180.202 130.143 179.998 130.709 179.998 131.411C179.998 133.041 180.995 135.034 182.195 135.713L183.328 136.37Z" fill="#FF5A00"/>
<path d="M202.332 148.257L191.527 141.985C190.1 141.147 188.945 138.928 188.945 137.026C188.945 135.124 190.123 134.241 191.55 135.079L202.354 141.351C203.781 142.189 204.937 144.408 204.937 146.31C204.937 148.212 203.759 149.095 202.332 148.257Z" fill="#FF5A00"/>
<path d="M203.374 149.321C202.921 149.321 202.445 149.186 201.97 148.914L191.165 142.642C189.512 141.668 188.221 139.223 188.221 137.049C188.221 135.781 188.696 134.785 189.489 134.309C190.214 133.901 191.075 133.947 191.935 134.445L202.74 140.717C204.393 141.691 205.684 144.136 205.684 146.31C205.684 147.578 205.209 148.574 204.416 149.05C204.099 149.231 203.759 149.321 203.374 149.321ZM202.717 147.623C202.944 147.759 203.351 147.94 203.668 147.759C203.985 147.578 204.189 147.012 204.189 146.31C204.189 144.68 203.193 142.687 201.992 142.008L191.188 135.736C190.961 135.6 190.554 135.419 190.237 135.6C189.92 135.781 189.716 136.347 189.716 137.049C189.716 138.679 190.712 140.672 191.913 141.351L202.717 147.623Z" fill="#FF5A00"/>
<path d="M216.919 168.5L181.561 147.985C180.134 147.147 178.979 144.928 178.979 143.026C178.979 141.124 180.157 140.241 181.584 141.079L216.941 161.594C218.368 162.432 219.523 164.651 219.523 166.553C219.523 168.455 218.346 169.338 216.919 168.5Z" fill="#3D0F9A"/>
<path d="M217.938 169.564C217.485 169.564 217.009 169.428 216.534 169.157L181.176 148.642C179.523 147.668 178.231 145.223 178.231 143.049C178.231 141.781 178.707 140.785 179.5 140.309C180.202 139.902 181.085 139.947 181.946 140.445L217.304 160.96C218.957 161.934 220.248 164.379 220.248 166.553C220.248 167.821 219.773 168.817 218.98 169.293C218.663 169.474 218.323 169.564 217.938 169.564ZM217.281 167.866C217.508 168.002 217.915 168.183 218.232 168.002C218.549 167.821 218.753 167.255 218.753 166.553C218.753 164.922 217.757 162.93 216.556 162.251L181.199 141.736C180.972 141.6 180.564 141.419 180.247 141.6C179.93 141.781 179.726 142.347 179.726 143.049C179.726 144.679 180.723 146.672 181.923 147.351L217.281 167.866Z" fill="#3D0F9A"/>
<path d="M226.273 173.934L225.141 173.277C223.714 172.439 222.559 170.22 222.559 168.318C222.559 166.416 223.736 165.533 225.163 166.371L226.296 167.028C227.723 167.866 228.878 170.085 228.878 171.987C228.878 173.889 227.7 174.772 226.273 173.934Z" fill="#3D0F9A"/>
<path d="M227.292 174.999C226.839 174.999 226.364 174.863 225.888 174.591L224.756 173.934C223.102 172.961 221.811 170.515 221.811 168.342C221.811 167.074 222.287 166.077 223.079 165.602C223.782 165.194 224.665 165.239 225.526 165.738L226.658 166.394C228.312 167.368 229.625 169.813 229.603 171.987C229.603 173.255 229.127 174.251 228.334 174.727C228.017 174.908 227.678 174.999 227.292 174.999ZM226.636 173.3C226.862 173.436 227.27 173.617 227.587 173.436C227.904 173.255 228.108 172.689 228.108 171.987C228.108 170.357 227.111 168.364 225.911 167.685L224.778 167.028C224.552 166.892 224.144 166.711 223.827 166.892C223.51 167.074 223.306 167.64 223.306 168.342C223.306 169.972 224.303 171.965 225.503 172.644L226.636 173.3Z" fill="#3D0F9A"/>
<path d="M99.5 13.0001C99.5096 10.2304 101.027 9.21015 103.455 10.5997L245 92.5001C247.428 93.8897 247.5 96.7304 247.5 99.5001L247.465 106.845L242.775 104.27L99.5 21.5001V13.0001Z" fill="#3D0F9A"/>
<path d="M103.455 10.5997C101.027 9.21015 99.5096 10.2304 99.5 13.0001V21.5001L242.775 104.27L247.465 106.845L247.389 122.657L247.233 155L247.127 177L247 203.5L247.5 99.5001C247.5 96.7304 247.428 93.8897 245 92.5001L103.455 10.5997Z" stroke="white"/>
</g>
</g>
<path d="M225.158 85.2943C223.975 84.6097 223.007 85.1604 223 86.5222C223 87.884 223.953 89.5509 225.143 90.2355C226.326 90.9202 227.294 90.3695 227.301 89.0077C227.309 87.6459 226.349 85.9789 225.158 85.2943Z" fill="white"/>
<path d="M232.54 89.5509C231.349 88.8663 230.382 89.417 230.382 90.7788C230.382 92.1406 231.334 93.8075 232.532 94.4921C233.716 95.1768 234.683 94.6261 234.691 93.2643C234.691 91.9024 233.738 90.2355 232.547 89.5509H232.54Z" fill="white"/>
<path d="M239.915 93.8148C238.732 93.1302 237.764 93.6809 237.757 95.0427C237.749 96.4045 238.709 98.0714 239.9 98.756C241.091 99.4407 242.058 98.89 242.058 97.5282C242.058 96.1664 241.106 94.4994 239.907 93.8148H239.915Z" fill="white"/>
<path d="M117.652 175.436L33 127" stroke="#3D0F9A" stroke-dasharray="2 2"/>
<g clip-path="url(#clip3_75_1734)">
<path d="M223.377 214.96C225.532 216.208 225.541 218.221 223.405 219.46L214.709 224.51L107.994 162.981L116.689 157.932C118.826 156.693 122.315 156.693 124.461 157.932L223.368 214.96H223.377Z" fill="#3D0F9A"/>
<path d="M107.994 162.981L214.7 224.5L157.713 257.575C155.567 258.823 152.087 258.823 149.932 257.575L51.025 200.556C48.8791 199.317 48.8605 197.295 51.0064 196.056L107.994 162.981Z" fill="#3D0F9A"/>
<path d="M110.673 166.456L110.089 164.061H108.698C107.186 163.088 104.982 162.466 102.522 162.466C100.061 162.466 97.857 163.082 96.3457 164.061H95.0091L94.3707 166.429H94.3817C94.3107 166.678 94.2671 166.927 94.2671 167.186C94.2671 169.793 97.9661 171.901 102.522 171.901C107.077 171.901 110.776 169.793 110.776 167.186C110.776 166.938 110.733 166.7 110.667 166.462L110.673 166.456Z" fill="white"/>
<path d="M102.527 172.166C97.8245 172.166 94 169.928 94 167.181C94 167.024 94.0164 166.867 94.0436 166.694H94.0327L94.1146 166.353L94.8075 163.785H96.2751C97.8845 162.774 100.16 162.19 102.533 162.19C104.906 162.19 107.176 162.769 108.791 163.785H110.318L110.951 166.391C111.028 166.683 111.066 166.932 111.066 167.181C111.066 169.928 107.241 172.166 102.538 172.166H102.527ZM94.7311 166.159L94.6438 166.505C94.5729 166.754 94.5401 166.975 94.5401 167.186C94.5401 169.636 98.1191 171.631 102.522 171.631C106.925 171.631 110.504 169.636 110.504 167.186C110.504 166.986 110.471 166.781 110.406 166.532L109.876 164.337H108.622L108.556 164.293C107.028 163.309 104.83 162.747 102.527 162.747C100.225 162.747 98.0264 163.309 96.4988 164.293L96.4333 164.337H95.2221L94.7311 166.164V166.159Z" fill="#3D0F9A"/>
<path d="M110.155 164.607C110.155 167.002 106.751 168.949 102.555 168.949C98.3595 168.949 94.9551 167.008 94.9551 164.607C94.9551 162.206 98.3595 160.265 102.555 160.265C106.751 160.265 110.155 162.206 110.155 164.607Z" fill="white"/>
<path d="M110.068 165.84C110.068 168.235 106.663 170.182 102.468 170.182C98.2721 170.182 94.8677 168.241 94.8677 165.84C94.8677 163.439 98.2721 161.498 102.468 161.498C106.663 161.498 110.068 163.439 110.068 165.84Z" fill="white"/>
<path d="M102.555 160C98.212 160 94.6821 162.071 94.6821 164.612C94.6821 167.154 98.212 169.225 102.555 169.225C106.898 169.225 110.428 167.154 110.428 164.612C110.428 162.071 106.898 160 102.555 160ZM102.555 168.684C98.5121 168.684 95.2277 166.856 95.2277 164.612C95.2277 162.368 98.5176 160.541 102.555 160.541C106.592 160.541 109.882 162.368 109.882 164.612C109.882 166.856 106.592 168.684 102.555 168.684Z" fill="#3D0F9A"/>
<path d="M102.527 162.32C100.394 162.32 98.6592 163.228 98.6592 164.353C98.6592 165.478 100.389 166.386 102.527 166.386C104.666 166.386 106.395 165.478 106.395 164.353C106.395 163.228 104.666 162.32 102.527 162.32Z" fill="#3D0F9A"/>
<path d="M153.692 248.273C151.945 249.248 149.088 249.239 147.331 248.264C145.564 247.289 145.555 245.701 147.312 244.727C149.059 243.752 151.916 243.761 153.673 244.736C155.429 245.711 155.449 247.299 153.692 248.273Z" fill="white"/>
<path d="M144.692 243.273C142.945 244.248 140.088 244.239 138.331 243.264C136.564 242.289 136.555 240.701 138.312 239.727C140.059 238.752 142.916 238.761 144.673 239.736C146.429 240.711 146.449 242.299 144.692 243.273Z" fill="white"/>
<path d="M135.692 238.273C133.945 239.248 131.088 239.239 129.331 238.264C127.564 237.289 127.555 235.701 129.312 234.727C131.059 233.752 133.916 233.761 135.673 234.736C137.429 235.711 137.449 237.299 135.692 238.273Z" fill="white"/>
<path d="M126.692 233.273C124.945 234.248 122.088 234.239 120.331 233.264C118.564 232.289 118.555 230.701 120.312 229.727C122.059 228.752 124.916 228.761 126.673 229.736C128.429 230.711 128.449 232.299 126.692 233.273Z" fill="#FF5A00"/>
<path d="M77.0931 202.065C77.6968 202.065 78.1862 201.79 78.1862 201.449C78.1862 201.109 77.6968 200.833 77.0931 200.833C76.4894 200.833 76 201.109 76 201.449C76 201.79 76.4894 202.065 77.0931 202.065Z" fill="white"/>
<path d="M79.5867 200.654C80.1904 200.654 80.6798 200.379 80.6798 200.038C80.6798 199.698 80.1904 199.422 79.5867 199.422C78.983 199.422 78.4937 199.698 78.4937 200.038C78.4937 200.379 78.983 200.654 79.5867 200.654Z" fill="white"/>
<path d="M82.0799 199.232C82.6836 199.232 83.173 198.956 83.173 198.616C83.173 198.276 82.6836 198 82.0799 198C81.4762 198 80.9868 198.276 80.9868 198.616C80.9868 198.956 81.4762 199.232 82.0799 199.232Z" fill="white"/>
<path d="M80.0877 203.768C80.6914 203.768 81.1808 203.492 81.1808 203.152C81.1808 202.812 80.6914 202.536 80.0877 202.536C79.484 202.536 78.9946 202.812 78.9946 203.152C78.9946 203.492 79.484 203.768 80.0877 203.768Z" fill="white"/>
<path d="M82.5814 202.345C83.1851 202.345 83.6745 202.069 83.6745 201.729C83.6745 201.389 83.1851 201.113 82.5814 201.113C81.9777 201.113 81.4883 201.389 81.4883 201.729C81.4883 202.069 81.9777 202.345 82.5814 202.345Z" fill="white"/>
<path d="M85.075 200.934C85.6787 200.934 86.1681 200.658 86.1681 200.318C86.1681 199.978 85.6787 199.702 85.075 199.702C84.4713 199.702 83.9819 199.978 83.9819 200.318C83.9819 200.658 84.4713 200.934 85.075 200.934Z" fill="white"/>
<path d="M83.0706 205.459C83.6743 205.459 84.1637 205.183 84.1637 204.843C84.1637 204.503 83.6743 204.227 83.0706 204.227C82.4669 204.227 81.9775 204.503 81.9775 204.843C81.9775 205.183 82.4669 205.459 83.0706 205.459Z" fill="white"/>
<path d="M85.5648 204.048C86.1685 204.048 86.6578 203.772 86.6578 203.432C86.6578 203.092 86.1685 202.816 85.5648 202.816C84.9611 202.816 84.4717 203.092 84.4717 203.432C84.4717 203.772 84.9611 204.048 85.5648 204.048Z" fill="white"/>
<path d="M88.0579 202.626C88.6616 202.626 89.151 202.35 89.151 202.01C89.151 201.669 88.6616 201.394 88.0579 201.394C87.4542 201.394 86.9648 201.669 86.9648 202.01C86.9648 202.35 87.4542 202.626 88.0579 202.626Z" fill="white"/>
<path d="M86.0653 207.161C86.6689 207.161 87.1583 206.885 87.1583 206.545C87.1583 206.205 86.6689 205.929 86.0653 205.929C85.4616 205.929 84.9722 206.205 84.9722 206.545C84.9722 206.885 85.4616 207.161 86.0653 207.161Z" fill="white"/>
<path d="M88.5594 205.739C89.1631 205.739 89.6525 205.463 89.6525 205.123C89.6525 204.783 89.1631 204.507 88.5594 204.507C87.9557 204.507 87.4663 204.783 87.4663 205.123C87.4663 205.463 87.9557 205.739 88.5594 205.739Z" fill="white"/>
<path d="M91.0526 204.328C91.6563 204.328 92.1456 204.052 92.1456 203.712C92.1456 203.371 91.6563 203.096 91.0526 203.096C90.4489 203.096 89.9595 203.371 89.9595 203.712C89.9595 204.052 90.4489 204.328 91.0526 204.328Z" fill="white"/>
<path d="M92.0931 192.065C92.6968 192.065 93.1862 191.79 93.1862 191.449C93.1862 191.109 92.6968 190.833 92.0931 190.833C91.4894 190.833 91 191.109 91 191.449C91 191.79 91.4894 192.065 92.0931 192.065Z" fill="white"/>
<path d="M94.5867 190.654C95.1904 190.654 95.6798 190.379 95.6798 190.038C95.6798 189.698 95.1904 189.422 94.5867 189.422C93.983 189.422 93.4937 189.698 93.4937 190.038C93.4937 190.379 93.983 190.654 94.5867 190.654Z" fill="white"/>
<path d="M97.0799 189.232C97.6836 189.232 98.173 188.956 98.173 188.616C98.173 188.276 97.6836 188 97.0799 188C96.4762 188 95.9868 188.276 95.9868 188.616C95.9868 188.956 96.4762 189.232 97.0799 189.232Z" fill="white"/>
<path d="M95.0877 193.768C95.6914 193.768 96.1808 193.492 96.1808 193.152C96.1808 192.812 95.6914 192.536 95.0877 192.536C94.484 192.536 93.9946 192.812 93.9946 193.152C93.9946 193.492 94.484 193.768 95.0877 193.768Z" fill="white"/>
<path d="M97.5814 192.345C98.1851 192.345 98.6745 192.069 98.6745 191.729C98.6745 191.389 98.1851 191.113 97.5814 191.113C96.9777 191.113 96.4883 191.389 96.4883 191.729C96.4883 192.069 96.9777 192.345 97.5814 192.345Z" fill="white"/>
<path d="M100.075 190.934C100.679 190.934 101.168 190.658 101.168 190.318C101.168 189.978 100.679 189.702 100.075 189.702C99.4713 189.702 98.9819 189.978 98.9819 190.318C98.9819 190.658 99.4713 190.934 100.075 190.934Z" fill="white"/>
<path d="M98.0706 195.459C98.6743 195.459 99.1637 195.183 99.1637 194.843C99.1637 194.503 98.6743 194.227 98.0706 194.227C97.4669 194.227 96.9775 194.503 96.9775 194.843C96.9775 195.183 97.4669 195.459 98.0706 195.459Z" fill="white"/>
<path d="M100.565 194.048C101.168 194.048 101.658 193.772 101.658 193.432C101.658 193.092 101.168 192.816 100.565 192.816C99.9611 192.816 99.4717 193.092 99.4717 193.432C99.4717 193.772 99.9611 194.048 100.565 194.048Z" fill="white"/>
<path d="M103.058 192.626C103.662 192.626 104.151 192.35 104.151 192.01C104.151 191.669 103.662 191.394 103.058 191.394C102.454 191.394 101.965 191.669 101.965 192.01C101.965 192.35 102.454 192.626 103.058 192.626Z" fill="white"/>
<path d="M101.065 197.161C101.669 197.161 102.158 196.885 102.158 196.545C102.158 196.205 101.669 195.929 101.065 195.929C100.462 195.929 99.9722 196.205 99.9722 196.545C99.9722 196.885 100.462 197.161 101.065 197.161Z" fill="white"/>
<path d="M103.559 195.739C104.163 195.739 104.652 195.463 104.652 195.123C104.652 194.783 104.163 194.507 103.559 194.507C102.956 194.507 102.466 194.783 102.466 195.123C102.466 195.463 102.956 195.739 103.559 195.739Z" fill="white"/>
<path d="M106.053 194.328C106.656 194.328 107.146 194.052 107.146 193.712C107.146 193.371 106.656 193.096 106.053 193.096C105.449 193.096 104.959 193.371 104.959 193.712C104.959 194.052 105.449 194.328 106.053 194.328Z" fill="white"/>
</g>
<g clip-path="url(#clip4_75_1734)">
<path d="M111.527 70.2778V145.308L107.306 147.679L89.6887 133.041L85.5618 59.7528L89.4715 57.543L111.527 70.2778Z" fill="#3D0F9A"/>
<path d="M107.254 148.25L112 145.582V70.004L89.4715 57L85.0754 59.4837L85.0896 59.7765L89.226 133.272L107.249 148.245L107.254 148.25ZM111.055 145.03L107.358 147.107L90.1515 132.81L86.0529 60.0173L89.4715 58.086L111.055 70.5517V145.03Z" fill="#3D0F9A"/>
<path d="M107.306 72.3034V97.5229L85.4723 84.9155V59.696L107.306 72.3034Z" fill="white"/>
<path d="M107.306 97.2963V122.516L85.4723 109.904V84.689L107.306 97.2963Z" fill="white"/>
<path d="M107.306 122.459V147.679L85.4723 135.071V109.852L107.306 122.459Z" fill="white"/>
<path d="M107.259 148.193L107.528 148.056C107.684 147.967 107.778 147.801 107.778 147.622V72.0344L85.798 59.3421C85.6328 59.2476 85.425 59.2476 85.2645 59.3421C85.0992 59.4365 85.0001 59.6159 85.0001 59.8048V135.34L107.264 148.193H107.259ZM106.834 72.5775V146.857L85.9397 134.793V60.5178L106.834 72.5775Z" fill="#3D0F9A"/>
<path d="M85.7007 84.5007L107.539 96.8865L107.073 97.7079L85.2349 85.3222L85.7007 84.5007Z" fill="#3D0F9A"/>
<path d="M85.7081 109.504L107.547 122.107L107.075 122.925L85.236 110.322L85.7081 109.504Z" fill="#3D0F9A"/>
</g>
<path d="M9.29297 149.386V181.482L36.9987 197.53V165.434L9.29297 149.386Z" fill="white"/>
<path d="M64.7072 149.386V181.482L36.9985 197.53V165.434L64.7072 149.386Z" fill="#3D0F9A"/>
<path d="M36.9987 133.664L64.1435 149.386L36.9987 165.107L9.85677 149.386L36.9987 133.664Z" fill="white" stroke="#3D0F9A" stroke-width="0.565178"/>
<path d="M36.9987 165.775L36.8523 165.689L9.53891 149.868C9.36615 149.768 9.26074 149.589 9.26074 149.386C9.26074 149.183 9.36323 149.004 9.53891 148.904L36.9987 133L37.1451 133.085L64.4584 148.907C64.6312 149.007 64.7366 149.189 64.7366 149.389C64.7366 149.589 64.6341 149.768 64.4584 149.871L36.9987 165.778V165.775ZM9.87857 149.386L36.9987 165.093L64.1188 149.383L36.9987 133.679L9.87857 149.386Z" fill="#3D0F9A"/>
<path d="M36.9985 197.871L36.8521 197.785L9 181.652L9.2606 149.386L9.84622 149.389L9.58855 181.314L36.9985 197.192L64.4115 181.314L64.1509 149.389L64.7365 149.386L65 181.652L64.8536 181.737L36.9985 197.871Z" fill="#3D0F9A"/>
<path d="M37.2912 165.434H36.7056V197.53H37.2912V165.434Z" fill="#3D0F9A"/>
<path d="M45.6763 166.117C45.306 165.906 45.3065 165.224 45.6776 164.591C46.0486 163.959 46.6496 163.617 47.0199 163.828C47.3902 164.038 47.3897 164.721 47.0186 165.353C46.6476 165.985 46.0466 166.327 45.6763 166.117Z" fill="white"/>
<path d="M45.6705 177.395C45.3001 177.185 45.3007 176.502 45.6717 175.87C46.0427 175.238 46.6437 174.896 47.014 175.106C47.3844 175.316 47.3838 175.999 47.0128 176.631C46.6418 177.263 46.0408 177.605 45.6705 177.395Z" fill="white"/>
<path d="M45.6705 188.772C45.3001 188.562 45.3007 187.879 45.6717 187.247C46.0427 186.615 46.6437 186.273 47.014 186.483C47.3844 186.694 47.3838 187.377 47.0128 188.009C46.6418 188.641 46.0408 188.983 45.6705 188.772Z" fill="white"/>
<path d="M51.6763 163.117C51.306 162.906 51.3065 162.224 51.6776 161.591C52.0486 160.959 52.6496 160.617 53.0199 160.828C53.3902 161.038 53.3897 161.721 53.0186 162.353C52.6476 162.985 52.0466 163.327 51.6763 163.117Z" fill="white"/>
<path d="M51.6705 174.395C51.3001 174.185 51.3007 173.502 51.6717 172.87C52.0427 172.238 52.6437 171.896 53.014 172.106C53.3844 172.316 53.3838 172.999 53.0128 173.631C52.6418 174.263 52.0408 174.605 51.6705 174.395Z" fill="white"/>
<path d="M51.6705 185.772C51.3001 185.562 51.3007 184.879 51.6717 184.247C52.0427 183.615 52.6437 183.273 53.014 183.483C53.3844 183.694 53.3838 184.377 53.0128 185.009C52.6418 185.641 52.0408 185.983 51.6705 185.772Z" fill="white"/>
<path d="M57.6763 159.117C57.306 158.906 57.3065 158.224 57.6776 157.591C58.0486 156.959 58.6496 156.617 59.0199 156.828C59.3902 157.038 59.3897 157.721 59.0186 158.353C58.6476 158.985 58.0466 159.327 57.6763 159.117Z" fill="white"/>
<path d="M57.6705 170.395C57.3001 170.185 57.3007 169.502 57.6717 168.87C58.0427 168.238 58.6437 167.896 59.014 168.106C59.3844 168.316 59.3838 168.999 59.0128 169.631C58.6418 170.263 58.0408 170.605 57.6705 170.395Z" fill="white"/>
<path d="M57.6705 181.772C57.3001 181.562 57.3007 180.879 57.6717 180.247C58.0427 179.615 58.6437 179.273 59.014 179.483C59.3844 179.694 59.3838 180.377 59.0128 181.009C58.6418 181.641 58.0408 181.983 57.6705 181.772Z" fill="white"/>
<path d="M59.9834 143.234L60 136.967L51.5057 136.912L39.502 129.701C37.948 128.766 36.0306 128.766 34.4767 129.701L22.7723 136.732L14 136.678V143.234H14.0166C13.9121 144.221 14.3326 145.261 15.2807 145.825L34.6358 157.314C36.1874 158.233 38.0906 158.228 39.6374 157.301L58.7288 145.832C59.6721 145.264 60.0903 144.223 59.981 143.237L59.9834 143.234Z" fill="#3D0F9A"/>
<path d="M37.124 157.998C36.2328 157.998 35.3391 157.762 34.5443 157.292L15.3875 145.994C14.4562 145.444 13.9342 144.433 14.0071 143.336L14 143.234V136.543L22.8564 136.599L34.3843 129.718C35.9905 128.761 37.9871 128.761 39.5933 129.718L51.4199 136.779L59.9988 136.833L59.9824 143.225C60.1046 144.365 59.5849 145.43 58.6254 146.001L39.7297 157.28C38.9278 157.759 38.0271 158 37.124 158V157.998ZM14.4703 142.991H14.4986L14.4868 143.261C14.3857 144.214 14.8207 145.097 15.6203 145.571L34.7771 156.869C36.2351 157.728 38.0412 157.723 39.4945 156.857L58.3903 145.578C59.1898 145.102 59.6202 144.214 59.5144 143.264V143.234L59.5285 137.314L51.2953 137.263L51.2412 137.231L39.3605 130.139C37.9001 129.266 36.0823 129.266 34.6219 130.139L22.9834 137.085L14.4727 137.032V142.991H14.4703Z" fill="#3D0F9A"/>
<path d="M14.2967 134.239L23.5 130.5L33.922 122.699C35.5097 121.767 37.4664 121.767 39.0565 122.699L58.7036 134.252C60.4321 135.268 60.4321 137.812 58.7036 138.828L39.1973 150.299C37.6169 151.229 35.6699 151.234 34.0871 150.312L14.5 138.5C12.7594 137.489 12.5633 135.26 14.2967 134.239Z" fill="white"/>
<path d="M37.1246 151C36.2333 151 35.3397 150.772 34.5448 150.319L15.3875 139.409C14.5221 138.916 14.0024 138.029 14 137.033C13.9977 136.038 14.5103 135.148 15.3734 134.651L34.3849 123.694C35.9911 122.769 37.9877 122.769 39.594 123.694L58.6266 134.662C59.4873 135.158 60 136.047 60 137.038C60 138.029 59.4873 138.919 58.6266 139.414L39.7304 150.305C38.9284 150.768 38.0277 151 37.1246 151ZM15.6086 135.057C14.8937 135.47 14.468 136.207 14.4704 137.031C14.4704 137.855 14.9031 138.592 15.6204 139.001L34.7776 149.911C36.2333 150.739 38.0418 150.735 39.4952 149.899L58.3914 139.008C59.104 138.597 59.5297 137.86 59.5297 137.038C59.5297 136.216 59.104 135.479 58.3914 135.068L39.3588 124.1C37.8984 123.257 36.0828 123.257 34.62 124.1L15.6086 135.057Z" fill="#3D0F9A" stroke="#3D0F9A" stroke-width="0.483283"/>
<g clip-path="url(#clip5_75_1734)">
<path d="M49.7582 135.487C49.7582 135.169 49.3087 134.913 48.7578 134.913H46.625C46.2702 134.913 45.6888 135.284 45.5976 135.173C45.4488 134.987 45.5029 134.771 45.753 134.629L47.2605 133.76C47.6492 133.534 45.1717 133.638 44.7796 133.415L44.7999 131.533C44.4112 131.31 43.7758 131.31 43.3871 131.533L41.8661 132.408C41.6262 132.547 41.2679 132.584 40.9569 132.509C40.7406 132.455 40.504 132.401 40.3046 132.357C39.9869 132.286 39.7807 132.111 39.7807 131.915V130.674C39.7807 130.356 39.3346 130.1 38.7803 130.1H35.3057C34.7548 130.1 34.3053 130.356 34.3053 130.674V131.901C34.3053 132.104 34.0788 132.28 33.7476 132.351C33.538 132.395 33.3318 132.445 33.129 132.499C32.808 132.584 32.4328 132.553 32.1793 132.411L30.6651 131.546C30.273 131.323 29.641 131.323 29.2523 131.546L29.0732 133.591C28.6845 133.818 26.4165 133.551 26.8052 133.777L28.3296 134.649C28.5695 134.788 28.6371 134.994 28.5053 135.173C28.4141 135.298 27.8158 134.93 27.4745 134.93H25.335C24.784 134.933 24.3379 135.193 24.3379 135.507L24.3447 138.428C24.3447 138.745 24.7942 139.002 25.3451 139.002H26.5957L26.5653 141.412C26.5551 141.453 26.5551 141.497 26.5653 141.537C26.5889 141.666 26.6802 141.791 26.8492 141.885L29.3131 143.295C29.5531 143.433 29.881 143.474 30.1885 143.444L30.2054 143.454V143.444C30.3947 143.423 30.5806 143.379 30.7259 143.295L32.2435 142.419C32.4835 142.281 32.8418 142.244 33.1527 142.318C33.369 142.372 33.6022 142.426 33.805 142.47C34.1227 142.541 34.3289 142.717 34.3289 142.913V144.153C34.3323 144.471 34.7818 144.728 35.3328 144.728H38.8073C39.3582 144.725 39.8044 144.468 39.8044 144.15V142.923C39.801 142.72 40.0275 142.544 40.3587 142.473C40.5581 142.43 40.7541 142.382 40.9468 142.332C41.2679 142.247 41.6431 142.277 41.8932 142.419L43.404 143.285C43.5493 143.369 43.7318 143.41 43.9211 143.43V143.447L43.9482 143.433C44.2557 143.464 44.5802 143.42 44.8168 143.281L47.2706 141.865C47.4328 141.77 47.5241 141.656 47.5511 141.534L47.5613 141.527V141.47C47.5613 141.47 47.5613 141.453 47.5613 141.443L47.5309 138.975H48.7612C49.3121 138.975 49.7582 138.718 49.7582 138.401V135.48V135.487ZM41.8932 137.924C41.3152 139.692 38.1313 140.692 35.2719 140.057C33.0986 139.574 31.7737 138.222 32.2063 136.903C32.7843 135.136 35.9682 134.135 38.8276 134.771C41.0009 135.254 42.3258 136.606 41.8932 137.924Z" fill="#3D0F9A"/>
<path d="M35.3329 145.066C34.5724 145.066 33.9978 144.674 33.9944 144.157V142.916C33.9944 142.916 33.8998 142.842 33.7308 142.805C33.5246 142.757 33.288 142.703 33.0717 142.649C32.8452 142.595 32.5748 142.622 32.4126 142.713L30.895 143.589C30.7227 143.687 30.5097 143.751 30.2427 143.781C29.8168 143.825 29.4315 143.758 29.1442 143.592L26.6803 142.183C26.4302 142.041 26.2713 141.831 26.2307 141.598C26.2172 141.527 26.2172 141.456 26.2307 141.385L26.2578 139.344H25.3486C24.5881 139.344 24.0135 138.951 24.0101 138.434L24 135.511C24 135.318 24.0777 135.136 24.2298 134.983C24.4698 134.74 24.8855 134.595 25.3351 134.595H27.4915C27.5151 134.602 27.5422 134.595 27.5692 134.595L26.6532 134.071C26.3896 133.919 26.4369 133.686 26.4504 133.638C26.5349 133.327 26.7918 133.331 27.6402 133.344C27.9579 133.351 28.4919 133.361 28.7724 133.327L28.9482 131.34L29.1003 131.252C29.5904 130.968 30.3576 130.968 30.8511 131.252L32.3653 132.117C32.5343 132.215 32.8182 132.236 33.0582 132.171C33.2677 132.117 33.4773 132.067 33.6902 132.019C33.8761 131.979 33.9707 131.904 33.9876 131.877V130.674C33.9843 130.154 34.5589 129.761 35.3193 129.761H38.7939C39.5544 129.761 40.1323 130.154 40.1323 130.674V131.914C40.1323 131.914 40.2236 131.989 40.3892 132.026C40.592 132.073 40.8286 132.127 41.0483 132.181C41.2747 132.236 41.5451 132.209 41.7074 132.117L43.2283 131.242C43.7184 130.958 44.4857 130.958 44.9791 131.242L45.1515 131.34L45.1312 133.165C45.4118 133.209 45.9221 133.233 46.2601 133.25C47.2842 133.3 47.5614 133.314 47.6391 133.635C47.6695 133.763 47.6357 133.942 47.4397 134.057L46.5204 134.588C46.5576 134.585 46.5981 134.581 46.6353 134.581H48.768C49.5285 134.581 50.1031 134.973 50.1031 135.494V138.414C50.1031 138.688 49.9375 138.945 49.6434 139.114C49.4034 139.252 49.0925 139.327 48.768 139.327H47.8825L47.9129 141.74L47.8318 141.784C47.7676 141.912 47.656 142.051 47.4498 142.169L44.996 143.585C44.7121 143.751 44.3302 143.819 43.928 143.781H43.8908C43.6305 143.748 43.4176 143.687 43.2486 143.589L41.7378 142.72C41.5688 142.622 41.2849 142.602 41.0449 142.666C40.8455 142.72 40.6461 142.767 40.4399 142.811C40.254 142.852 40.1594 142.926 40.1425 142.953L40.1492 144.157C40.1492 144.349 40.0715 144.532 39.9194 144.684C39.676 144.927 39.2637 145.072 38.8142 145.072H35.3396L35.3329 145.066ZM32.825 141.943C32.9602 141.943 33.0987 141.96 33.2339 141.99C33.4469 142.044 33.6801 142.095 33.8795 142.142C34.3561 142.247 34.667 142.551 34.667 142.913V144.153C34.6772 144.214 34.9137 144.39 35.3329 144.39H38.8108C39.2265 144.386 39.4631 144.211 39.4699 144.15V142.923C39.4665 142.558 39.7876 142.25 40.2912 142.142C40.4872 142.102 40.6765 142.054 40.8658 142.004C41.2849 141.895 41.7446 141.943 42.069 142.125L43.5798 142.994C43.6677 143.045 43.7962 143.078 43.9652 143.099C44.2457 143.126 44.4958 143.085 44.6547 142.994L47.1085 141.578C47.193 141.53 47.2234 141.483 47.2268 141.466V141.459L47.193 138.647H48.7646C49.1804 138.647 49.417 138.472 49.4237 138.411V135.49C49.4136 135.43 49.1736 135.254 48.7613 135.254H46.6285C46.517 135.254 46.3041 135.338 46.1486 135.399C45.8478 135.517 45.5368 135.639 45.3374 135.386C45.209 135.227 45.1583 135.034 45.1954 134.848C45.236 134.645 45.3746 134.463 45.5909 134.338L46.3041 133.929C46.277 133.929 46.25 133.929 46.2263 133.926C45.3104 133.882 44.8541 133.844 44.6209 133.713L44.4485 133.615L44.4688 131.759C44.1815 131.671 43.7995 131.698 43.5663 131.83L42.0454 132.705C41.7277 132.888 41.2849 132.942 40.8861 132.841C40.6697 132.786 40.4399 132.736 40.2405 132.688C39.7639 132.58 39.4564 132.28 39.4564 131.918V130.677C39.4496 130.617 39.213 130.441 38.7939 130.441H35.3193C34.9036 130.441 34.6636 130.617 34.6569 130.677V131.904C34.6569 132.276 34.3425 132.574 33.8322 132.682C33.6294 132.726 33.4266 132.773 33.2272 132.827C32.8114 132.939 32.3518 132.891 32.0239 132.705L30.5097 131.84C30.2697 131.702 29.8743 131.681 29.5836 131.776L29.4045 133.8L29.2524 133.888C29.0259 134.02 28.5967 134.04 27.9342 134.03L28.5088 134.358C28.7251 134.48 28.8671 134.659 28.9076 134.862C28.9448 135.038 28.9043 135.223 28.7893 135.376C28.5899 135.649 28.2587 135.524 27.941 135.403C27.7923 135.345 27.5861 135.267 27.4881 135.267H25.3351C24.9193 135.271 24.6827 135.446 24.676 135.507L24.6827 138.428C24.6861 138.475 24.9024 138.664 25.3452 138.664H26.9405L26.9 141.476C26.9 141.497 26.9304 141.544 27.0183 141.591L29.4822 143.001C29.6445 143.092 29.8946 143.132 30.1548 143.105C30.3373 143.085 30.4692 143.051 30.557 142.997L32.0746 142.122C32.2842 142 32.5512 141.936 32.825 141.936V141.943ZM37.087 140.591C36.4651 140.591 35.8297 140.523 35.1977 140.385C33.7308 140.06 32.5917 139.354 32.0746 138.444C31.7704 137.91 31.7062 137.343 31.882 136.795C32.5174 134.852 35.7959 133.75 38.8987 134.439C40.3655 134.764 41.5046 135.47 42.0217 136.379C42.3259 136.913 42.3901 137.481 42.2144 138.029C41.7074 139.577 39.5239 140.591 37.087 140.591ZM37.06 134.919C34.9171 134.919 32.9331 135.761 32.5275 137.008C32.4092 137.373 32.4532 137.745 32.6627 138.11C33.0785 138.84 34.0823 139.445 35.3464 139.725C38.0334 140.32 41.0584 139.394 41.5756 137.819C41.6939 137.454 41.6499 137.082 41.4404 136.717C41.0246 135.987 40.0208 135.382 38.7567 135.102C38.199 134.977 37.6244 134.919 37.0634 134.919H37.06Z" fill="#3D0F9A"/>
<path d="M47.5646 133.743L47.5545 130.593H45.3035L44.8033 130.306C44.4146 130.083 43.7791 130.083 43.3904 130.306L42.8902 130.593H39.7841V129.447C39.7841 129.129 39.3379 128.873 38.7836 128.873H35.3091C34.7581 128.873 34.3086 129.129 34.3086 129.447V130.593H31.1518L30.6718 130.319C30.2798 130.096 29.6477 130.096 29.259 130.319L28.7858 130.593H26.5179V133.709C26.5112 133.861 26.6058 134.017 26.8086 134.132L28.3329 133.422L45.7462 133.398L47.2537 134.111C47.4328 134.01 47.5241 133.875 47.541 133.743H47.5579H47.5646Z" fill="#3D0F9A"/>
<path d="M26.8019 134.514L26.6498 134.426C26.3423 134.25 26.1733 133.983 26.1868 133.692V130.255H28.7014L29.0935 130.029C29.5836 129.745 30.3508 129.745 30.8443 130.029L31.2465 130.258H33.9741V129.451C33.9741 128.93 34.5487 128.538 35.3126 128.538H38.7871C39.5476 128.538 40.1256 128.93 40.1256 129.451V130.258H42.8025L43.2249 130.015C43.715 129.735 44.4856 129.735 44.9757 130.015L45.3982 130.258H47.896L47.9095 134.085H47.7844C47.7067 134.21 47.5884 134.321 47.4363 134.409L47.2842 134.497L45.6855 133.74L28.4243 133.763L26.8087 134.517L26.8019 134.514ZM26.8628 130.931V133.709C26.8628 133.709 26.8628 133.726 26.8695 133.736L28.2654 133.084H28.3398L45.8309 133.06L47.2099 133.713V133.706L47.2234 133.581L47.2132 130.931H45.209L44.631 130.6C44.3437 130.434 43.8401 130.434 43.5562 130.6L42.9782 130.931H39.4462V129.447C39.4428 129.4 39.2265 129.211 38.7837 129.211H35.3092C34.8698 129.211 34.6535 129.4 34.6467 129.447V130.931H31.064L30.5029 130.61C30.2156 130.444 29.712 130.448 29.4281 130.61L28.8772 130.928H26.8594L26.8628 130.931Z" fill="#3D0F9A"/>
<path d="M46.0369 136.221H48.7612C49.3121 136.221 49.7582 135.96 49.7582 135.643V133.642C49.7582 133.324 49.3087 133.067 48.7544 133.067H46.6217C46.2668 133.067 45.966 132.939 45.8409 132.746C45.7666 132.631 45.6854 132.52 45.5976 132.408C45.4488 132.222 45.5029 132.006 45.753 131.864L47.2605 130.995C47.6492 130.772 47.6492 130.407 47.2605 130.181L44.8033 128.768C44.4146 128.545 43.7792 128.545 43.3905 128.768L41.8729 129.643C41.6329 129.782 41.2746 129.819 40.9637 129.745C40.7474 129.691 40.5108 129.636 40.3114 129.592C39.9937 129.522 39.7875 129.346 39.7875 129.15V127.909C39.7875 127.592 39.3413 127.335 38.787 127.335H35.3125C34.7615 127.335 34.312 127.592 34.312 127.909V129.136C34.312 129.339 34.0856 129.515 33.7543 129.586C33.5448 129.63 33.3386 129.68 33.1358 129.734C32.8147 129.819 32.4395 129.789 32.1861 129.647L30.6719 128.781C30.2798 128.558 29.6477 128.558 29.259 128.781L26.8086 130.201C26.4199 130.427 26.4233 130.789 26.812 131.012L28.3363 131.884C28.5763 132.023 28.6439 132.229 28.5121 132.408C28.4208 132.533 28.3262 132.668 28.2485 132.783C28.1268 132.966 27.8226 133.084 27.4812 133.084H25.335C24.784 133.087 24.3379 133.344 24.3379 133.662L24.3447 135.663C24.3447 135.981 24.7942 136.237 25.3451 136.237H27.4778C27.8293 136.234 28.1335 136.366 28.2586 136.555C28.333 136.67 28.4174 136.782 28.5053 136.893C28.654 137.079 28.6 137.295 28.3498 137.437L26.8424 138.306C26.4537 138.532 26.4537 138.894 26.8424 139.117L29.3064 140.53C29.6984 140.753 30.3305 140.753 30.7192 140.53L32.2368 139.655C32.4767 139.516 32.835 139.475 33.1459 139.553C33.3623 139.607 33.5955 139.661 33.7983 139.705C34.116 139.776 34.3222 139.952 34.3222 140.148V141.388C34.3255 141.706 34.7751 141.963 35.326 141.963H38.8005C39.3515 141.96 39.7976 141.703 39.7976 141.385V140.158C39.7942 139.955 40.0207 139.78 40.3519 139.709C40.5513 139.665 40.7474 139.617 40.94 139.567C41.2611 139.482 41.6363 139.513 41.8864 139.655L43.3972 140.523C43.7893 140.746 44.4213 140.746 44.81 140.523L47.2639 139.107C47.6525 138.884 47.6525 138.519 47.2639 138.296L45.7429 137.424C45.5029 137.285 45.4353 137.079 45.5671 136.9C45.7902 136.602 46.0167 136.244 46.0268 136.224L46.0369 136.221ZM32.2063 134.138C32.7843 132.371 35.9682 131.37 38.8276 132.006C41.0009 132.489 42.3258 133.841 41.8932 135.159C41.3152 136.927 38.1313 137.927 35.2719 137.292C33.0986 136.809 31.7737 135.457 32.2063 134.138Z" fill="white"/>
<path d="M35.3329 142.304C34.5724 142.304 33.9978 141.912 33.9978 141.392V140.151C33.9978 140.151 33.9032 140.077 33.7342 140.04C33.5314 139.996 33.2948 139.942 33.0751 139.888C32.8486 139.834 32.5782 139.861 32.416 139.952L30.8984 140.827C30.4083 141.111 29.6411 141.111 29.1476 140.827L26.6837 139.414C26.3896 139.245 26.2206 138.992 26.2206 138.715C26.2206 138.441 26.3896 138.184 26.6803 138.015L28.1877 137.147C28.235 137.119 28.2553 137.096 28.2587 137.089C28.1539 136.984 28.0627 136.863 27.9849 136.741C27.9376 136.67 27.7551 136.572 27.4881 136.572H25.3486C25.3486 136.572 25.3486 136.572 25.3452 136.572C24.5847 136.579 24.0101 136.19 24.0068 135.669L24 133.669C24 133.476 24.0777 133.293 24.2298 133.141C24.4732 132.898 24.8855 132.753 25.3351 132.753H27.4915C27.7551 132.749 27.9376 132.658 27.9782 132.597C28.0559 132.482 28.1472 132.35 28.2384 132.225C28.2249 132.212 28.208 132.198 28.1776 132.181L26.6532 131.309C26.3592 131.14 26.1902 130.887 26.1902 130.61C26.1902 130.336 26.3558 130.079 26.6499 129.91L29.1003 128.491C29.5904 128.207 30.3576 128.207 30.8511 128.491L32.3653 129.356C32.5343 129.454 32.8182 129.474 33.0582 129.41C33.2643 129.356 33.4773 129.305 33.6902 129.258C33.8761 129.217 33.9707 129.143 33.9876 129.116V127.913C33.9843 127.392 34.5589 127 35.3193 127H38.7939C39.5544 127 40.1323 127.392 40.1323 127.913V129.153C40.1323 129.153 40.2236 129.227 40.3892 129.265C40.592 129.308 40.8286 129.366 41.0483 129.42C41.2747 129.477 41.5451 129.45 41.7074 129.356L43.2283 128.48C43.7184 128.196 44.489 128.196 44.9791 128.48L47.4363 129.893C47.7304 130.062 47.8994 130.316 47.8994 130.593C47.8994 130.87 47.7304 131.123 47.4363 131.292L45.9289 132.161C45.8816 132.188 45.8613 132.212 45.8579 132.219C45.9627 132.323 46.0506 132.445 46.1317 132.567C46.1756 132.638 46.3615 132.736 46.6285 132.736H48.7613C49.5217 132.736 50.0963 133.128 50.0963 133.648V135.649C50.0963 135.842 50.0186 136.024 49.8699 136.176C49.6265 136.42 49.2142 136.565 48.7646 136.565H46.2229C46.1283 136.71 45.9897 136.917 45.8613 137.092C45.8748 137.103 45.8917 137.119 45.9221 137.136L47.4431 138.008C47.7371 138.177 47.9061 138.431 47.9061 138.708C47.9061 138.982 47.7371 139.239 47.4465 139.408L44.9927 140.824C44.5026 141.108 43.7353 141.108 43.2419 140.824L41.731 139.955C41.562 139.861 41.2781 139.837 41.0382 139.898C40.8387 139.948 40.6393 139.999 40.4331 140.043C40.2473 140.084 40.1526 140.158 40.1357 140.185L40.1425 141.388C40.1425 141.581 40.0647 141.763 39.9126 141.916C39.6693 142.159 39.2569 142.304 38.8074 142.304H35.3329ZM32.8283 139.181C32.9635 139.181 33.1021 139.198 33.2373 139.229C33.4502 139.283 33.6835 139.333 33.8829 139.377C34.3594 139.485 34.6704 139.786 34.6704 140.148V141.388C34.6772 141.436 34.8935 141.625 35.3329 141.625H38.8108C39.2231 141.625 39.4631 141.446 39.4699 141.385V140.158C39.4665 139.793 39.7876 139.485 40.2912 139.377C40.4872 139.337 40.6765 139.289 40.8658 139.239C41.2815 139.127 41.7446 139.174 42.069 139.36L43.5798 140.229C43.8671 140.395 44.3707 140.395 44.6547 140.229L47.1085 138.813C47.2065 138.759 47.2302 138.708 47.2302 138.698C47.2302 138.691 47.2031 138.64 47.1051 138.583L45.5841 137.711C45.3678 137.586 45.2292 137.41 45.1853 137.207C45.1481 137.032 45.1921 136.846 45.307 136.694C45.5098 136.416 45.7227 136.089 45.7464 136.048L45.8444 135.882H46.0404L48.7646 135.876C49.1804 135.876 49.417 135.7 49.4237 135.639V133.638C49.4136 133.577 49.177 133.402 48.7613 133.402H46.6285C46.1655 133.402 45.7565 133.219 45.5672 132.928C45.4963 132.824 45.4219 132.719 45.3408 132.614C45.2123 132.452 45.1616 132.263 45.1988 132.073C45.2394 131.87 45.378 131.688 45.5943 131.563L47.1017 130.694C47.1997 130.637 47.2234 130.589 47.2234 130.579C47.2234 130.569 47.1964 130.522 47.1017 130.468L44.6445 129.055C44.3572 128.889 43.8536 128.889 43.5697 129.055L42.0487 129.93C41.7344 130.113 41.2883 130.164 40.8894 130.066C40.6765 130.012 40.4433 129.961 40.2439 129.913C39.7673 129.805 39.4564 129.505 39.4564 129.143V127.902C39.4496 127.842 39.213 127.666 38.7939 127.666H35.3193C34.9036 127.666 34.6636 127.842 34.6569 127.902V129.129C34.6569 129.494 34.3324 129.799 33.8322 129.907C33.6294 129.951 33.4266 129.998 33.2305 130.052C32.8114 130.164 32.3518 130.116 32.0273 129.93L30.5131 129.065C30.2258 128.9 29.7222 128.9 29.4383 129.065L26.9878 130.485C26.8932 130.539 26.8662 130.589 26.8662 130.596C26.8662 130.603 26.8932 130.654 26.9912 130.711L28.5156 131.583C28.7319 131.705 28.8738 131.884 28.9144 132.087C28.9516 132.263 28.911 132.448 28.7961 132.601C28.7082 132.722 28.617 132.851 28.5426 132.962C28.3567 133.239 27.9545 133.412 27.4948 133.415H25.3351C24.9227 133.418 24.6827 133.594 24.676 133.655L24.6827 135.656C24.6827 135.7 24.9024 135.893 25.3418 135.893H27.4779C27.941 135.893 28.35 136.075 28.5392 136.366C28.6102 136.474 28.6846 136.579 28.7657 136.68C28.8941 136.842 28.9448 137.032 28.911 137.221C28.8705 137.424 28.7319 137.606 28.5156 137.731L27.0081 138.6C26.9101 138.654 26.8864 138.705 26.8864 138.711C26.8864 138.722 26.9135 138.769 27.0115 138.826L29.4755 140.239C29.7628 140.405 30.2664 140.405 30.5503 140.239L32.0679 139.364C32.2774 139.242 32.5444 139.178 32.8182 139.178L32.8283 139.181ZM37.0904 137.829C36.4685 137.829 35.8331 137.762 35.201 137.623C33.7342 137.299 32.5951 136.592 32.078 135.683C31.7738 135.149 31.7062 134.581 31.8853 134.034C32.5208 132.09 35.7993 130.992 38.902 131.678C40.3689 132.002 41.508 132.709 42.0251 133.618C42.3293 134.152 42.3935 134.72 42.2177 135.267C41.7108 136.815 39.5273 137.829 37.0904 137.829ZM32.5275 134.247C32.4092 134.612 32.4532 134.983 32.6627 135.348C33.0785 136.078 34.0823 136.683 35.3464 136.964C38.03 137.562 41.0584 136.633 41.5756 135.058C41.6939 134.693 41.6499 134.321 41.4404 133.956C41.0246 133.226 40.0208 132.621 38.7567 132.34C36.0697 131.745 33.0447 132.671 32.5275 134.247Z" fill="#3D0F9A" stroke="#3D0F9A" stroke-width="0.3"/>
</g>
<path d="M225.669 178.69L143.958 133.335C142.313 132.417 138 133.308 138 137.006L140.291 205.471C140.291 206.362 140.777 207.199 141.559 207.631L221.706 255.066C223.35 255.984 226.936 254.661 226.936 250.827V180.85C226.936 179.959 226.451 179.122 225.669 178.69Z" fill="white" stroke="#3D0F9A" stroke-width="0.988176"/>
<path d="M224.051 179.959L141.693 134.226C140.022 133.308 138 134.496 138 136.412V206.929C138 207.847 138.485 208.684 139.294 209.116L221.652 254.823C223.323 255.741 225.345 254.553 225.345 252.636V182.119C225.345 181.228 224.86 180.364 224.051 179.932V179.959Z" fill="white" stroke="#3D0F9A" stroke-width="0.988176"/>
<path d="M159.155 182.187L159.156 179.933C160.896 180.937 162.11 181.214 162.798 180.762C163.496 180.317 163.845 179.1 163.845 177.112L163.846 171.294C163.846 169.622 163.982 168.251 164.253 167.184C164.535 166.122 164.988 165.371 165.613 164.932C166.239 164.493 167.072 164.38 168.114 164.594C169.156 164.808 170.443 165.356 171.975 166.24L171.975 169.804C170.766 169.106 169.812 168.774 169.114 168.808C168.426 168.847 167.937 169.243 167.645 169.996C167.363 170.742 167.222 171.825 167.222 173.243L167.221 180.515C167.221 181.461 167.112 182.258 166.893 182.908C166.684 183.563 166.293 184.004 165.72 184.231C165.147 184.458 164.329 184.416 163.266 184.106C162.214 183.801 160.843 183.162 159.155 182.187ZM171.969 212.784C170.437 211.9 169.151 210.963 168.109 209.974C167.067 208.985 166.233 207.91 165.608 206.749C164.983 205.588 164.53 204.314 164.249 202.928C163.978 201.547 163.842 200.021 163.843 198.348L163.843 192.53C163.844 190.542 163.495 188.922 162.797 187.671C162.109 186.426 160.895 185.301 159.155 184.296L159.155 182.042C160.843 183.016 162.214 183.959 163.266 184.869C164.329 185.786 165.147 186.688 165.72 187.576C166.293 188.465 166.684 189.357 166.892 190.253C167.111 191.155 167.22 192.079 167.22 193.024L167.219 200.297C167.219 201.715 167.359 202.959 167.64 204.031C167.932 205.108 168.422 206.064 169.109 206.897C169.808 207.748 170.761 208.523 171.97 209.221L171.969 212.784ZM159.155 184.296L159.156 179.933L162.844 182.062L162.844 186.425L159.155 184.296Z" fill="#3D0F9A"/>
<path d="M200.173 205.717L200.173 207.971C198.433 206.967 197.214 206.687 196.515 207.133C195.828 207.584 195.484 208.804 195.483 210.792L195.483 216.61C195.482 218.283 195.342 219.65 195.06 220.712C194.789 221.779 194.341 222.533 193.715 222.972C193.09 223.411 192.256 223.524 191.214 223.31C190.172 223.097 188.885 222.548 187.354 221.664L187.354 218.1C188.563 218.798 189.511 219.121 190.199 219.069C190.897 219.036 191.387 218.646 191.668 217.899C191.96 217.159 192.106 216.079 192.106 214.661L192.107 207.389C192.107 206.443 192.212 205.643 192.42 204.987C192.639 204.338 193.035 203.9 193.608 203.673C194.182 203.446 194.994 203.485 196.047 203.79C197.11 204.1 198.485 204.742 200.173 205.717ZM187.359 175.12C188.891 176.004 190.178 176.941 191.22 177.93C192.262 178.919 193.096 179.994 193.721 181.155C194.346 182.316 194.794 183.587 195.065 184.967C195.346 186.354 195.486 187.884 195.486 189.556L195.485 195.374C195.485 197.362 195.829 198.979 196.516 200.224C197.214 201.476 198.434 202.603 200.174 203.608L200.173 205.862C198.485 204.888 197.11 203.943 196.047 203.026C194.995 202.116 194.182 201.216 193.609 200.328C193.036 199.439 192.64 198.544 192.421 197.642C192.213 196.746 192.109 195.826 192.109 194.88L192.11 187.608C192.11 186.19 191.964 184.942 191.673 183.864C191.391 182.781 190.902 181.819 190.204 180.98C189.516 180.147 188.568 179.381 187.359 178.683L187.359 175.12ZM200.174 203.608L200.173 207.971L196.484 205.842L196.485 201.479L200.174 203.608Z" fill="#3D0F9A"/>
<defs>
<clipPath id="clip0_75_1734">
<rect width="160.367" height="151.699" fill="white" transform="matrix(-1 0 0 1 164.367 6)"/>
</clipPath>
<clipPath id="clip1_75_1734">
<rect width="156.105" height="202.616" fill="white" transform="matrix(-1 0 0 1 254.105 5)"/>
</clipPath>
<clipPath id="clip2_75_1734">
<rect width="208" height="202" fill="white" transform="translate(61 1)"/>
</clipPath>
<clipPath id="clip3_75_1734">
<rect width="175.599" height="101.506" fill="white" transform="translate(49.4014 157)"/>
</clipPath>
<clipPath id="clip4_75_1734">
<rect width="26.9996" height="91.25" fill="white" transform="matrix(-1 0 0 1 112 57)"/>
</clipPath>
<clipPath id="clip5_75_1734">
<rect width="26.0997" height="18.0656" fill="white" transform="translate(24 127)"/>
</clipPath>
</defs>
</svg>
