<svg width="48" height="48" viewBox="0 0 48 48" fill="none" xmlns="http://www.w3.org/2000/svg">
<path d="M24 26C25.1046 26 26 25.1046 26 24C26 22.8954 25.1046 22 24 22C22.8954 22 22 22.8954 22 24C22 25.1046 22.8954 26 24 26Z" stroke="#FF5A00" stroke-width="2" stroke-linecap="round" stroke-linejoin="round"/>
<path d="M6 14V10C6 8.93913 6.42143 7.92172 7.17157 7.17157C7.92172 6.42143 8.93913 6 10 6H14M34 6H38C39.0609 6 40.0783 6.42143 40.8284 7.17157C41.5786 7.92172 42 8.93913 42 10V14M42 34V38C42 39.0609 41.5786 40.0783 40.8284 40.8284C40.0783 41.5786 39.0609 42 38 42H34M14 42H10C8.93913 42 7.92172 41.5786 7.17157 40.8284C6.42143 40.0783 6 39.0609 6 38V34M37.888 24.66C38.0374 24.2327 38.0374 23.7673 37.888 23.34C36.762 20.5809 34.8396 18.2196 32.3661 16.5575C29.8926 14.8954 26.9801 14.0078 24 14.0078C21.0199 14.0078 18.1074 14.8954 15.6339 16.5575C13.1604 18.2196 11.238 20.5809 10.112 23.34C9.96262 23.7673 9.96262 24.2327 10.112 24.66C11.238 27.4191 13.1604 29.7804 15.6339 31.4425C18.1074 33.1046 21.0199 33.9922 24 33.9922C26.9801 33.9922 29.8926 33.1046 32.3661 31.4425C34.8396 29.7804 36.762 27.4191 37.888 24.66Z" stroke="#3D0F9A" stroke-width="2" stroke-linecap="round" stroke-linejoin="round"/>
</svg>
