<svg width="222" height="80" viewBox="0 0 222 80" fill="none" xmlns="http://www.w3.org/2000/svg">
<path d="M36.523 10.1195C32.0779 10.622 27.4466 12.2696 23.851 14.6184C17.4626 18.8135 13.2269 24.4809 11.1557 31.6674C9.7942 36.3767 9.63129 41.7052 10.6902 46.6131C12.4589 54.7695 17.928 62.1313 25.3055 66.2796C28.3543 67.9974 32.2525 69.2945 35.8248 69.7853C37.9427 70.0657 42.4343 70.0774 44.1798 69.7853C48.4271 69.0958 51.7318 67.9273 54.9784 65.9992C64.4155 60.3668 69.8031 50.8549 69.8031 39.8355C69.8031 33.9344 68.1391 28.3605 64.9391 23.5461C63.5893 21.5128 62.6002 20.2975 61.0177 18.6849C56.4213 14.0458 50.3005 11.0427 43.7492 10.2247C41.7129 9.9793 38.2452 9.92088 36.523 10.1195ZM43.179 14.8521C54.5362 16.3128 63.5311 25.4041 64.974 36.8674C65.3464 39.7888 65.1253 43.3762 64.3922 46.2976C62.6351 53.2855 57.806 59.3151 51.3245 62.6221C41.2707 67.7286 29.4248 65.6603 21.5935 57.4338C17.7186 53.3789 15.368 48.214 14.7513 42.418C14.5651 40.6886 14.6815 37.5452 14.984 35.8158C16.0197 29.973 18.7775 24.9834 23.1295 21.0571C26.8299 17.715 31.5775 15.5299 36.5928 14.8521C38.2219 14.6184 41.4336 14.6301 43.179 14.8521Z" fill="black"/>
<path d="M50.6612 21.6764C50.6263 21.7816 50.7776 22.2139 51.0103 22.658C51.3362 23.2773 51.4176 23.5811 51.4176 24.0836C51.4176 24.7029 51.0336 25.8832 50.8358 25.8832C50.7892 25.8832 50.6962 25.7546 50.6263 25.591C50.3122 24.9016 49.0787 24.7614 48.6598 25.369C48.4271 25.7079 48.3107 25.8131 47.6125 26.4207C46.8794 27.04 46.7398 27.8229 47.054 29.3537L47.1354 29.716L46.6351 29.5991C46.3558 29.5407 45.7972 29.5173 45.4132 29.5524L44.7034 29.6225L44.0983 28.6993L43.4816 27.7645L43.6212 26.4207C43.8423 24.2589 43.5514 24.0602 43.2256 26.1519C42.9812 27.6827 42.9929 28.0567 43.3303 28.9681C43.4932 29.4005 43.6212 29.7744 43.6212 29.7978C43.6212 29.8913 42.667 29.3888 42.4343 29.1901C42.3296 29.085 42.027 28.3722 41.7594 27.5892C41.259 26.0935 41.1194 25.778 40.9914 25.9065C40.8634 26.0468 41.6198 29.2602 41.8758 29.6225L42.1085 29.9614L41.7827 29.8562C41.1892 29.6926 40.9332 29.5056 39.9208 28.4656C38.8968 27.414 38.5594 27.3322 39.211 28.302C40.107 29.6108 40.9099 30.2886 42.1318 30.7794C42.8416 31.0715 43.1441 31.3169 42.9696 31.4922C42.9114 31.5389 41.1776 31.2935 38.9667 30.9079C32.171 29.716 29.4481 29.4589 24.363 29.4706C20.8953 29.494 18.987 29.6225 18.603 29.8562C18.312 30.0315 18.6611 30.5106 19.5571 31.1767C21.0699 32.2868 22.6524 33.245 24.107 33.9461C26.8066 35.2432 28.4124 35.6405 30.9375 35.6405C32.8226 35.6405 32.4735 35.7457 34.9056 34.4486C35.6852 34.0396 35.6852 34.0396 39.1994 33.689C41.1427 33.5021 42.7601 33.3852 42.8183 33.4436C42.8649 33.4904 43.051 33.8409 43.214 34.2149L43.5049 34.8926L43.2489 34.7991C43.0976 34.7524 42.5856 34.7057 42.1085 34.7057C40.9448 34.7057 40.1652 35.0913 38.3848 36.5519C35.3361 39.0409 33.2997 41.4715 31.147 45.1641C30.0997 46.952 27.9121 51.4275 27.9121 51.778C27.9121 51.965 28.4706 51.7196 31.403 50.2589C36.3368 47.805 39.3739 45.6198 42.0852 42.5582C44.8547 39.4266 45.4132 38.1879 44.8547 36.4351L44.7732 36.178L45.4481 36.4701C45.8205 36.6337 46.1696 36.809 46.2278 36.8675C46.2743 36.9142 46.2394 37.814 46.1347 38.8773C46.03 39.9173 45.902 41.4014 45.8321 42.1609C45.6925 43.7618 45.4249 44.6499 44.7732 45.7016C44.1449 46.6949 43.9703 47.3259 43.9703 48.6113C43.9703 49.7565 44.366 52.0819 44.8198 53.5192C45.4016 55.4239 48.1129 60.1565 49.0903 60.9745C49.5791 61.3951 49.7536 61.3718 49.9049 60.8576C50.1143 60.1331 50.2772 56.3587 50.2074 54.045C50.0562 49.6279 49.7652 46.987 48.7878 41.0742C48.4387 38.9825 48.1594 37.1362 48.1594 36.9493C48.1594 36.3299 48.4503 36.6454 49.0205 37.8607C49.5791 39.076 49.5907 39.076 50.7078 39.9641C51.3245 40.4432 51.8598 40.8405 51.918 40.8405C52.174 40.8405 51.8947 40.4549 51.0569 39.6486C50.3471 38.9708 50.0678 38.6203 49.8932 38.1528L49.6605 37.5452L50.0212 37.8023C50.4052 38.0827 53.5587 38.8423 53.71 38.7021C53.8496 38.5618 53.5587 38.4216 51.9762 37.8958L50.4983 37.405L50.1842 36.8324C50.0212 36.5286 49.9049 36.2364 49.9398 36.2014C49.9747 36.1663 50.4052 36.2715 50.8823 36.4351C51.8249 36.7506 52.0809 36.7506 54.0707 36.3883C55.3507 36.1546 55.0482 36.0261 53.3143 36.0728L51.6969 36.1079L50.8707 35.5353L50.0445 34.9744L50.0562 33.7474C50.0562 32.5672 50.0678 32.5322 50.3005 32.6023C50.4402 32.6373 50.894 32.7074 51.3245 32.7425C52.3136 32.8243 53.0234 32.5205 53.4889 31.796C53.6634 31.5389 53.8496 31.2935 53.9194 31.2701C53.9776 31.2468 54.1754 31.0715 54.35 30.8962C54.8736 30.3704 54.7224 29.4005 54.0474 29.0382C53.8845 28.9564 53.7449 28.8513 53.7449 28.8162C53.7449 28.711 55.3856 28.1034 55.6416 28.1034C55.7464 28.1034 56.2584 28.3137 56.7704 28.5708C57.2824 28.8279 57.7711 29.0382 57.8758 29.0382C58.3645 29.0382 57.7944 28.5358 56.7471 28.045C55.8976 27.6477 55.2227 27.6593 54.1754 28.1151L53.3376 28.4656L53.0467 28.08C52.6976 27.6126 52.0693 26.9699 51.5689 26.5843L51.1965 26.2922L51.534 25.4742C51.9762 24.3991 51.9762 23.7564 51.5456 22.8099C51.1267 21.8868 50.766 21.4193 50.6612 21.6764Z" fill="black"/>
<path d="M82.8475 25.9533C82.1843 26.0468 81.1719 26.2805 80.6017 26.4674C78.3792 27.2153 77.2737 28.3722 76.8432 30.3937C76.5988 31.574 76.5872 46.5897 76.8432 47.7699C77.4715 50.738 79.3799 51.9533 84.1741 52.4207C85.7101 52.5726 89.1196 52.5025 90.7487 52.2922C93.4949 51.9416 95.4265 50.925 96.2527 49.3942C96.9741 48.0504 96.9741 48.1205 96.9741 39.2045C96.9741 30.4872 96.9625 30.3353 96.3691 29.0616C95.9618 28.1969 95.1007 27.3672 94.0883 26.8881C92.3661 26.0584 90.4112 25.7663 86.6759 25.778C85.1283 25.7897 83.5574 25.8598 82.8475 25.9533ZM90.0505 28.5241C91.9821 28.8279 92.9363 29.4005 93.46 30.534C93.716 31.0832 93.716 31.0949 93.716 39.1461C93.716 48.1439 93.7625 47.5713 92.8898 48.5529C91.6796 49.885 86.769 50.4225 83.0803 49.6162C81.3465 49.2306 80.625 48.7165 80.1246 47.5012L79.8686 46.8585V39.2045C79.8686 32.3101 79.8919 31.4922 80.0665 30.9079C80.5668 29.2953 81.8003 28.6409 84.9305 28.3371C86.1872 28.2086 88.7123 28.302 90.0505 28.5241Z" fill="black"/>
<path d="M144.858 25.8364C142.344 26.1402 141.03 26.4908 140.017 27.1452C138.877 27.8814 138.19 28.9214 137.876 30.3236C137.678 31.2468 137.574 51.8832 137.771 52.1286C137.958 52.3623 140.576 52.3623 140.774 52.1403C140.855 52.0234 140.913 50.516 140.925 47.3142L140.96 42.6517H154.574L154.609 47.3142C154.621 50.516 154.679 52.0234 154.761 52.1403C154.958 52.3623 157.577 52.3623 157.763 52.1286C157.867 52.0001 157.891 49.3592 157.856 41.4014C157.809 29.5758 157.833 29.9497 156.971 28.6059C156.11 27.262 154.726 26.5025 152.305 26.0468C151.595 25.9065 150.467 25.8481 148.291 25.8247C146.627 25.8014 145.079 25.813 144.858 25.8364ZM150.793 28.4656C152.654 28.711 153.667 29.2836 154.225 30.3704L154.574 31.0715V39.7304L148 39.7654C144.381 39.7771 141.309 39.7654 141.158 39.7304L140.89 39.6603L140.925 35.3717C140.96 31.3169 140.971 31.0598 141.204 30.5573C141.832 29.1784 143.031 28.6059 145.742 28.3488C146.976 28.2319 149.547 28.2904 150.793 28.4656Z" fill="black"/>
<path d="M170.458 25.8481C166.525 26.222 164.814 26.8998 163.697 28.5358C162.987 29.5641 162.859 30.1483 162.801 32.7074C162.743 35.3951 162.859 36.0728 163.593 37.1946C164.093 37.9776 164.64 38.4684 165.559 38.9475C166.537 39.4499 167.177 39.6018 172.32 40.4315C174.915 40.8522 177.289 41.2845 177.603 41.4014C178.359 41.6702 179.104 42.3362 179.395 43.0374C179.721 43.7969 179.825 45.1174 179.662 46.3911C179.36 48.6113 178.766 49.1722 176.16 49.7331C173.926 50.2122 170.411 50.072 168.154 49.4176C167.456 49.2189 166.711 48.6113 166.385 47.9686C166.071 47.3493 165.92 46.3326 165.92 44.8019C165.92 44.0072 165.873 43.4113 165.803 43.3879C165.745 43.3645 165.035 43.3645 164.233 43.3879L162.778 43.423V45.1992C162.778 47.1857 162.871 47.9452 163.243 48.9268C163.546 49.7565 164.43 50.7497 165.257 51.2288C166.025 51.6612 167.456 52.1169 168.713 52.3156C170.074 52.5259 175.636 52.5259 176.974 52.3039C180.617 51.7079 182.385 50.2239 182.793 47.4077C182.967 46.1924 182.932 43.3529 182.734 42.4998C182.304 40.6652 181.117 39.4499 179.116 38.7955C178.592 38.6203 176.16 38.1645 173.262 37.6854C170.539 37.2297 168.049 36.7857 167.747 36.6805C166.921 36.4117 166.339 35.7924 166.094 34.951C165.931 34.3901 165.908 33.9695 165.955 32.7308C165.99 31.8895 166.083 30.9897 166.176 30.7326C166.397 30.0549 167.246 29.2369 168.014 28.9447C170.889 27.8814 176.846 28.1501 178.499 29.4238C179.267 30.0081 179.546 30.6859 179.674 32.2985C179.732 33.0463 179.814 33.689 179.872 33.7474C179.918 33.7942 180.617 33.8176 181.408 33.8059L182.851 33.7708L182.886 32.6724C182.932 31.3052 182.676 29.9146 182.211 28.9681C181.326 27.1686 179.29 26.2104 175.636 25.8949C174.345 25.778 171.412 25.7546 170.458 25.8481Z" fill="black"/>
<path d="M102.083 26.1402C102.024 26.222 102.001 31.0014 102.013 36.7506C102.059 48.0504 102.059 48.1322 102.688 49.4059C103.083 50.2356 103.933 51.0886 104.771 51.521C106.179 52.2338 108.506 52.596 110.938 52.4909C113.556 52.374 115.069 51.8131 116.5 50.4108L117.291 49.6396L118.071 50.4225C118.979 51.334 120.084 51.9183 121.527 52.2571C122.26 52.4207 122.912 52.4675 124.552 52.4558C126.938 52.4558 128.404 52.2104 129.696 51.5911C130.568 51.1821 131.453 50.329 131.883 49.4877C132.512 48.2374 132.512 48.2023 132.523 36.774C132.535 30.978 132.5 26.1753 132.465 26.1169C132.36 25.9416 129.696 25.965 129.521 26.1402C129.416 26.2454 129.382 28.6409 129.382 36.2248C129.382 42.4998 129.335 46.4261 129.265 46.9052C128.974 48.6697 128.171 49.3708 125.949 49.7798C124.25 50.107 121.783 49.8733 120.596 49.289C120.014 48.9969 119.502 48.4243 119.223 47.7466L118.967 47.0922L118.932 36.7039C118.909 29.4122 118.862 26.2571 118.769 26.1519C118.595 25.9299 115.965 25.9416 115.779 26.1519C115.697 26.2688 115.651 29.4005 115.627 36.7623L115.592 47.209L115.313 47.8284C114.964 48.5996 114.219 49.2657 113.416 49.5344C112.346 49.885 110.682 50.0135 109.274 49.8616C107.552 49.6863 106.877 49.441 106.202 48.7749C105.189 47.7583 105.248 48.4243 105.178 36.5169L105.12 26.0584L103.642 26.0234C102.548 26 102.152 26.0351 102.083 26.1402Z" fill="black"/>
<path d="M187.994 26.0818C187.948 26.1169 187.913 32.0063 187.913 39.1578V52.1753L188.18 52.2338C188.32 52.2688 189.018 52.2922 189.716 52.2688L190.996 52.2338L191.031 48.623C191.043 46.1924 191.101 44.9538 191.182 44.8486C191.287 44.7317 192.253 44.6967 196.105 44.6967C200.852 44.6967 202.121 44.6266 203.459 44.2877C205.74 43.7034 207.334 42.0791 207.834 39.8472C208.055 38.854 208.044 31.8427 207.823 30.8495C207.567 29.7043 207.136 28.9331 206.31 28.1034C205.111 26.9115 203.761 26.3623 201.516 26.1169C200.305 25.9883 188.11 25.9533 187.994 26.0818ZM201.329 28.7344C203.203 29.0966 204.332 30.1016 204.657 31.7259C204.739 32.0764 204.832 33.3151 204.867 34.4719C204.937 36.8674 204.785 38.7722 204.425 39.7304C204.157 40.4432 203.494 41.1911 202.819 41.5416C201.702 42.1025 201.283 42.1493 196.279 42.2077C192.835 42.2544 191.485 42.2311 191.31 42.1376L191.054 41.9973V35.36C191.054 31.7142 191.089 28.6877 191.136 28.6526C191.171 28.6059 193.289 28.5708 195.837 28.5708C199.375 28.5708 200.666 28.6059 201.329 28.7344Z" fill="black"/>
<path d="M204.902 48.5529C204.902 48.7515 204.972 48.7866 205.484 48.7866H206.065V50.5394C206.065 52.2104 206.077 52.2922 206.298 52.2922C206.519 52.2922 206.531 52.2104 206.531 50.5394V48.7866H207.183C207.729 48.7866 207.823 48.7515 207.788 48.5762C207.753 48.401 207.578 48.3776 206.321 48.3425C204.96 48.3192 204.902 48.3192 204.902 48.5529Z" fill="black"/>
<path d="M208.276 50.3057C208.276 52.2104 208.288 52.2922 208.509 52.2922C208.73 52.2922 208.742 52.2104 208.753 50.6212V48.9619L209.312 50.5394C209.801 51.9533 209.894 52.1169 210.138 52.1169C210.371 52.1169 210.452 51.9533 210.941 50.5394L211.476 48.9619L211.511 50.6212C211.535 52.1987 211.558 52.2922 211.767 52.2922C211.988 52.2922 212 52.2104 212 50.3057V48.3192H211.197L210.697 49.8383C210.429 50.6679 210.173 51.3574 210.138 51.3574C210.103 51.3574 209.847 50.6679 209.58 49.8383L209.079 48.3192H208.276V50.3057Z" fill="black"/>
</svg>
