<svg width="80" height="80" viewBox="0 0 80 80" fill="none" xmlns="http://www.w3.org/2000/svg">
<path d="M5.00061 40.0006C5.00094 59.3302 20.6707 75 40.0003 75C59.3301 75 75 59.3298 75 40C75 20.6702 59.3301 5 40.0003 5C20.6703 5 5.00027 20.6706 5.00061 40.0006Z" fill="#063897"/>
<path d="M39.367 10L40.4542 13.3503H43.9935L41.1366 15.4182L42.2239 18.757L39.367 16.6891L36.5101 18.757L37.5973 15.4182L34.7404 13.3503H38.2798L39.367 10Z" fill="#FECB2F"/>
<path d="M39.367 60.243L40.4542 63.5817H43.9935L41.1366 65.6497L42.2239 69L39.367 66.932L36.5101 69L37.5973 65.6497L34.7404 63.5817H38.2798L39.367 60.243Z" fill="#FECB2F"/>
<path d="M56.9941 52.3871L58.0929 55.7259H61.6207L58.7638 57.7938L59.8626 61.1441L56.9941 59.0762L54.1372 61.1441L55.236 57.7938L52.3676 55.7259H55.9069L56.9941 52.3871Z" fill="#FECB2F"/>
<path d="M21.9943 52.3871L23.0931 55.7259H26.6324L23.764 57.7938L24.8628 61.1441L21.9943 59.0762L19.1374 61.1441L20.2362 57.7938L17.3678 55.7259H20.9071L21.9943 52.3871Z" fill="#FECB2F"/>
<path d="M56.9941 17.4862L58.0929 20.8365H61.6207L58.7638 22.9044L59.8626 26.2547L56.9941 24.1868L54.1372 26.2547L55.236 22.9044L52.3676 20.8365H55.9069L56.9941 17.4862Z" fill="#FECB2F"/>
<path d="M21.9943 17.4862L23.0931 20.8365H26.6324L23.764 22.9044L24.8628 26.2547L21.9943 24.1868L19.1374 26.2547L20.2362 22.9044L17.3678 20.8365H20.9071L21.9943 17.4862Z" fill="#FECB2F"/>
<path d="M64.3735 35.2775L65.4723 38.6162H69L66.1431 40.6842L67.2303 44.0345L64.3735 41.9665L61.5166 44.0345L62.6038 40.6842L59.7469 38.6162H63.2862L64.3735 35.2775Z" fill="#FECB2F"/>
<path d="M14.6265 35.2775L15.7138 38.6162H19.2531L16.3962 40.6842L17.4834 44.0345L14.6265 41.9665L11.7697 44.0345L12.8569 40.6842L10 38.6162H13.5277L14.6265 35.2775Z" fill="#FECB2F"/>
<path d="M28.2742 35.001C28.8919 34.9861 29.504 35.1415 30.0609 35.4546C30.6178 35.7677 31.1039 36.2298 31.4798 36.8034L30.6587 37.3954C30.3708 36.9813 30.007 36.6482 29.5943 36.4205C29.1816 36.1928 28.7305 36.0763 28.2742 36.0798C27.8391 36.077 27.4082 36.1788 27.0082 36.3791C26.6082 36.5794 26.2477 36.8738 25.9492 37.244C25.6506 37.6142 25.4204 38.0522 25.2727 38.531C25.1251 39.0097 25.0633 39.5188 25.091 40.0267C25.0517 40.7771 25.2074 41.5238 25.5378 42.1687C25.8681 42.8135 26.3576 43.3263 26.9419 43.6395C27.5262 43.9527 28.1778 44.0518 28.8111 43.9235C29.4444 43.7953 30.0297 43.4458 30.49 42.9211V40.9213H27.6555V39.8425H31.5135V43.3421C31.1041 43.8701 30.6038 44.2907 30.0455 44.5764C29.4872 44.8621 28.8835 45.0064 28.2742 44.9998C27.1406 44.9998 26.0534 44.4731 25.2519 43.5355C24.4503 42.5979 24 41.3263 24 40.0004C24 38.6745 24.4503 37.4028 25.2519 36.4653C26.0534 35.5277 27.1406 35.001 28.2742 35.001Z" fill="white"/>
<path d="M33.4931 35.1589H36.3163C36.8584 35.1589 37.3952 35.2837 37.896 35.5264C38.3969 35.769 38.8519 36.1247 39.2352 36.573C39.6186 37.0214 39.9226 37.5537 40.1301 38.1395C40.3375 38.7253 40.4443 39.3532 40.4443 39.9872C40.4443 40.6213 40.3375 41.2492 40.1301 41.835C39.9226 42.4208 39.6186 42.953 39.2352 43.4014C38.8519 43.8498 38.3969 44.2054 37.896 44.4481C37.3952 44.6907 36.8584 44.8156 36.3163 44.8156H33.4931V35.1589ZM36.3163 43.7368C36.736 43.759 37.1551 43.6791 37.547 43.5022C37.9389 43.3252 38.2952 43.0551 38.5933 42.7089C38.8914 42.3627 39.1248 41.9479 39.2789 41.4907C39.4329 41.0336 39.5042 40.544 39.4882 40.053C39.5157 39.555 39.4529 39.0559 39.3038 38.5883C39.1548 38.1208 38.9229 37.6954 38.6233 37.34C38.3238 36.9847 37.9634 36.7075 37.5658 36.5266C37.1682 36.3457 36.7424 36.2651 36.3163 36.2903H34.5279V43.7368H36.3163Z" fill="white"/>
<path d="M42.4689 35.1589H45.7757C46.435 35.1589 47.0673 35.4652 47.5334 36.0105C47.9996 36.5557 48.2615 37.2953 48.2615 38.0664C48.2615 38.8375 47.9996 39.5771 47.5334 40.1223C47.0673 40.6676 46.435 40.9739 45.7757 40.9739H43.5262V44.8156H42.5026L42.4689 35.1589ZM43.5262 36.2245V39.9083H45.6858C46.1034 39.9083 46.5039 39.7142 46.7992 39.3688C47.0946 39.0234 47.2605 38.5549 47.2605 38.0664C47.2605 37.5779 47.0946 37.1094 46.7992 36.764C46.5039 36.4186 46.1034 36.2245 45.6858 36.2245H43.5262Z" fill="white"/>
<path d="M52.7156 40.9739H51.0622V44.8156H50.0387V35.1589H53.413C53.7424 35.146 54.0705 35.2125 54.3771 35.354C54.6836 35.4956 54.9621 35.7093 55.1951 35.9819C55.4281 36.2545 55.6108 36.5802 55.7319 36.9387C55.8529 37.2973 55.9097 37.6811 55.8988 38.0664C55.9201 38.4174 55.881 38.7698 55.7839 39.1028C55.6867 39.4357 55.5335 39.7426 55.3332 40.0051C55.1329 40.2676 54.8896 40.4804 54.6177 40.631C54.3459 40.7816 54.051 40.8669 53.7504 40.8819L56 44.8288H54.774L52.7156 40.9739ZM53.233 36.2245H51.0622V39.9214H53.233C53.4518 39.943 53.672 39.9113 53.8797 39.8282C54.0874 39.7451 54.2781 39.6125 54.4397 39.4388C54.6013 39.265 54.7303 39.0539 54.8186 38.8188C54.9068 38.5837 54.9524 38.3297 54.9524 38.073C54.9524 37.8162 54.9068 37.5622 54.8186 37.3272C54.7303 37.0921 54.6013 36.881 54.4397 36.7072C54.2781 36.5334 54.0874 36.4008 53.8797 36.3177C53.672 36.2347 53.4518 36.2029 53.233 36.2245Z" fill="white"/>
</svg>
