<svg width="436" height="93" viewBox="0 0 436 93" fill="none" xmlns="http://www.w3.org/2000/svg">
<rect x="14.5" y="2" width="62" height="62" rx="31" fill="#E5FAEF"/>
<rect x="14.5" y="2" width="62" height="62" rx="31" stroke="#00CC66" stroke-width="4"/>
<path d="M30.4062 42V27.375L30.957 27.9258L26.8906 29.7539V26.9766L32.3047 24.7266H33.1719V42H30.4062ZM26.6211 42V39.5039H36.2656V42H26.6211ZM44.7617 42.1875C43.5664 42.1875 42.5469 41.8984 41.7031 41.3203C40.8594 40.7344 40.2148 39.8633 39.7695 38.707C39.3242 37.5508 39.1016 36.1172 39.1016 34.4062V32.4023C39.1016 30.6758 39.3242 29.2305 39.7695 28.0664C40.2148 26.9023 40.8594 26.0234 41.7031 25.4297C42.5469 24.8359 43.5664 24.5391 44.7617 24.5391C45.957 24.5391 46.9727 24.8359 47.8086 25.4297C48.6523 26.0234 49.293 26.9023 49.7305 28.0664C50.1758 29.2305 50.3984 30.6758 50.3984 32.4023V34.4062C50.3984 36.1172 50.1758 37.5508 49.7305 38.707C49.293 39.8633 48.6523 40.7344 47.8086 41.3203C46.9727 41.8984 45.957 42.1875 44.7617 42.1875ZM44.7617 39.6445C45.3711 39.6445 45.8867 39.4648 46.3086 39.1055C46.7383 38.7383 47.0625 38.1992 47.2812 37.4883C47.5078 36.7695 47.6211 35.8789 47.6211 34.8164V31.9453C47.6211 30.875 47.5078 29.9805 47.2812 29.2617C47.0625 28.543 46.7383 28 46.3086 27.6328C45.8867 27.2656 45.3711 27.082 44.7617 27.082C44.1523 27.082 43.6328 27.2656 43.2031 27.6328C42.7812 27.9922 42.4531 28.5312 42.2188 29.25C41.9922 29.9688 41.8789 30.8672 41.8789 31.9453V34.8164C41.8789 35.8711 41.9922 36.7578 42.2188 37.4766C42.4453 38.1953 42.7734 38.7383 43.2031 39.1055C43.6328 39.4648 44.1523 39.6445 44.7617 39.6445ZM41.3398 37.7578L40.2031 35.8359L48.207 28.9922L49.2734 30.8672L41.3398 37.7578ZM58.2617 42.1875C57.0664 42.1875 56.0469 41.8984 55.2031 41.3203C54.3594 40.7344 53.7148 39.8633 53.2695 38.707C52.8242 37.5508 52.6016 36.1172 52.6016 34.4062V32.4023C52.6016 30.6758 52.8242 29.2305 53.2695 28.0664C53.7148 26.9023 54.3594 26.0234 55.2031 25.4297C56.0469 24.8359 57.0664 24.5391 58.2617 24.5391C59.457 24.5391 60.4727 24.8359 61.3086 25.4297C62.1523 26.0234 62.793 26.9023 63.2305 28.0664C63.6758 29.2305 63.8984 30.6758 63.8984 32.4023V34.4062C63.8984 36.1172 63.6758 37.5508 63.2305 38.707C62.793 39.8633 62.1523 40.7344 61.3086 41.3203C60.4727 41.8984 59.457 42.1875 58.2617 42.1875ZM58.2617 39.6445C58.8711 39.6445 59.3867 39.4648 59.8086 39.1055C60.2383 38.7383 60.5625 38.1992 60.7812 37.4883C61.0078 36.7695 61.1211 35.8789 61.1211 34.8164V31.9453C61.1211 30.875 61.0078 29.9805 60.7812 29.2617C60.5625 28.543 60.2383 28 59.8086 27.6328C59.3867 27.2656 58.8711 27.082 58.2617 27.082C57.6523 27.082 57.1328 27.2656 56.7031 27.6328C56.2812 27.9922 55.9531 28.5312 55.7188 29.25C55.4922 29.9688 55.3789 30.8672 55.3789 31.9453V34.8164C55.3789 35.8711 55.4922 36.7578 55.7188 37.4766C55.9453 38.1953 56.2734 38.7383 56.7031 39.1055C57.1328 39.4648 57.6523 39.6445 58.2617 39.6445ZM54.8398 37.7578L53.7031 35.8359L61.707 28.9922L62.7734 30.8672L54.8398 37.7578Z" fill="#008800"/>
<path d="M9.48145 86.2881H6.89062V84.9277H9.48145C9.93262 84.9277 10.2972 84.8548 10.5752 84.709C10.8532 84.5632 11.056 84.3626 11.1836 84.1074C11.3158 83.8477 11.3818 83.5514 11.3818 83.2188C11.3818 82.9043 11.3158 82.6104 11.1836 82.3369C11.056 82.0589 10.8532 81.8356 10.5752 81.667C10.2972 81.4984 9.93262 81.4141 9.48145 81.4141H7.41699V90H5.70117V80.0469H9.48145C10.2516 80.0469 10.9056 80.1836 11.4434 80.457C11.9857 80.7259 12.3981 81.0996 12.6807 81.5781C12.9632 82.0521 13.1045 82.5944 13.1045 83.2051C13.1045 83.8477 12.9632 84.3991 12.6807 84.8594C12.3981 85.3197 11.9857 85.6729 11.4434 85.9189C10.9056 86.165 10.2516 86.2881 9.48145 86.2881ZM17.6436 90.1367C17.0967 90.1367 16.6022 90.0479 16.1602 89.8701C15.7227 89.6878 15.349 89.4349 15.0391 89.1113C14.7337 88.7878 14.499 88.4072 14.335 87.9697C14.1709 87.5322 14.0889 87.0605 14.0889 86.5547V86.2812C14.0889 85.7025 14.1732 85.1784 14.3418 84.709C14.5104 84.2396 14.7451 83.8385 15.0459 83.5059C15.3467 83.1686 15.7021 82.9111 16.1123 82.7334C16.5225 82.5557 16.9668 82.4668 17.4453 82.4668C17.974 82.4668 18.4365 82.5557 18.833 82.7334C19.2295 82.9111 19.5576 83.1618 19.8174 83.4854C20.0817 83.8044 20.2777 84.1849 20.4053 84.627C20.5374 85.069 20.6035 85.5566 20.6035 86.0898V86.7939H14.8887V85.6113H18.9766V85.4814C18.9674 85.1852 18.9082 84.9072 18.7988 84.6475C18.694 84.3877 18.5322 84.1781 18.3135 84.0186C18.0947 83.859 17.8031 83.7793 17.4385 83.7793C17.165 83.7793 16.9212 83.8385 16.707 83.957C16.4974 84.071 16.3219 84.2373 16.1807 84.4561C16.0394 84.6748 15.93 84.9391 15.8525 85.249C15.7796 85.5544 15.7432 85.8984 15.7432 86.2812V86.5547C15.7432 86.8783 15.7865 87.179 15.873 87.457C15.9642 87.7305 16.0964 87.9697 16.2695 88.1748C16.4427 88.3799 16.6523 88.5417 16.8984 88.6602C17.1445 88.7741 17.4248 88.8311 17.7393 88.8311C18.1357 88.8311 18.4889 88.7513 18.7988 88.5918C19.1087 88.4323 19.3776 88.2067 19.6055 87.915L20.4736 88.7559C20.3141 88.9883 20.1068 89.2116 19.8516 89.4258C19.5964 89.6354 19.2842 89.8063 18.915 89.9385C18.5505 90.0706 18.1266 90.1367 17.6436 90.1367ZM23.543 84.0117V90H21.8955V82.6035H23.4678L23.543 84.0117ZM25.8057 82.5557L25.792 84.0869C25.6917 84.0687 25.5824 84.055 25.4639 84.0459C25.3499 84.0368 25.236 84.0322 25.1221 84.0322C24.8395 84.0322 24.5911 84.0732 24.377 84.1553C24.1628 84.2327 23.9827 84.3467 23.8369 84.4971C23.6956 84.6429 23.5863 84.8206 23.5088 85.0303C23.4313 85.2399 23.3857 85.4746 23.3721 85.7344L22.9961 85.7617C22.9961 85.2969 23.0417 84.8662 23.1328 84.4697C23.224 84.0732 23.3607 83.7246 23.543 83.4238C23.7298 83.123 23.9622 82.8883 24.2402 82.7197C24.5228 82.5511 24.8486 82.4668 25.2178 82.4668C25.318 82.4668 25.4251 82.4759 25.5391 82.4941C25.6576 82.5124 25.7464 82.5329 25.8057 82.5557ZM29.1895 90H27.542V81.8926C27.542 81.3411 27.6445 80.8786 27.8496 80.5049C28.0592 80.1266 28.3577 79.8418 28.7451 79.6504C29.1325 79.4544 29.5905 79.3564 30.1191 79.3564C30.2832 79.3564 30.445 79.3678 30.6045 79.3906C30.764 79.4089 30.9189 79.4385 31.0693 79.4795L31.0283 80.751C30.9372 80.7282 30.8369 80.7122 30.7275 80.7031C30.6227 80.694 30.5088 80.6895 30.3857 80.6895C30.1351 80.6895 29.9186 80.7373 29.7363 80.833C29.5586 80.9242 29.4219 81.0586 29.3262 81.2363C29.235 81.4141 29.1895 81.6328 29.1895 81.8926V90ZM30.7139 82.6035V83.8066H26.4072V82.6035H30.7139ZM31.5957 86.3838V86.2266C31.5957 85.6934 31.6732 85.1989 31.8281 84.7432C31.9831 84.2829 32.2064 83.8841 32.498 83.5469C32.7943 83.2051 33.1543 82.9408 33.5781 82.7539C34.0065 82.5625 34.4896 82.4668 35.0273 82.4668C35.5697 82.4668 36.0527 82.5625 36.4766 82.7539C36.9049 82.9408 37.2673 83.2051 37.5635 83.5469C37.8597 83.8841 38.0853 84.2829 38.2402 84.7432C38.3952 85.1989 38.4727 85.6934 38.4727 86.2266V86.3838C38.4727 86.917 38.3952 87.4115 38.2402 87.8672C38.0853 88.3229 37.8597 88.7217 37.5635 89.0635C37.2673 89.4007 36.9072 89.665 36.4834 89.8564C36.0596 90.0433 35.5788 90.1367 35.041 90.1367C34.4987 90.1367 34.0133 90.0433 33.585 89.8564C33.1611 89.665 32.8011 89.4007 32.5049 89.0635C32.2087 88.7217 31.9831 88.3229 31.8281 87.8672C31.6732 87.4115 31.5957 86.917 31.5957 86.3838ZM33.2432 86.2266V86.3838C33.2432 86.7165 33.2773 87.0309 33.3457 87.3271C33.4141 87.6234 33.5212 87.8831 33.667 88.1064C33.8128 88.3298 33.9997 88.5052 34.2275 88.6328C34.4554 88.7604 34.7266 88.8242 35.041 88.8242C35.3464 88.8242 35.6107 88.7604 35.834 88.6328C36.0618 88.5052 36.2487 88.3298 36.3945 88.1064C36.5404 87.8831 36.6475 87.6234 36.7158 87.3271C36.7887 87.0309 36.8252 86.7165 36.8252 86.3838V86.2266C36.8252 85.8984 36.7887 85.5885 36.7158 85.2969C36.6475 85.0007 36.5381 84.7386 36.3877 84.5107C36.2419 84.2829 36.055 84.1051 35.8271 83.9775C35.6038 83.8454 35.3372 83.7793 35.0273 83.7793C34.7174 83.7793 34.4486 83.8454 34.2207 83.9775C33.9974 84.1051 33.8128 84.2829 33.667 84.5107C33.5212 84.7386 33.4141 85.0007 33.3457 85.2969C33.2773 85.5885 33.2432 85.8984 33.2432 86.2266ZM41.5078 84.0117V90H39.8604V82.6035H41.4326L41.5078 84.0117ZM43.7705 82.5557L43.7568 84.0869C43.6566 84.0687 43.5472 84.055 43.4287 84.0459C43.3148 84.0368 43.2008 84.0322 43.0869 84.0322C42.8044 84.0322 42.556 84.0732 42.3418 84.1553C42.1276 84.2327 41.9476 84.3467 41.8018 84.4971C41.6605 84.6429 41.5511 84.8206 41.4736 85.0303C41.3962 85.2399 41.3506 85.4746 41.3369 85.7344L40.9609 85.7617C40.9609 85.2969 41.0065 84.8662 41.0977 84.4697C41.1888 84.0732 41.3255 83.7246 41.5078 83.4238C41.6947 83.123 41.9271 82.8883 42.2051 82.7197C42.4876 82.5511 42.8135 82.4668 43.1826 82.4668C43.2829 82.4668 43.39 82.4759 43.5039 82.4941C43.6224 82.5124 43.7113 82.5329 43.7705 82.5557ZM46.4502 84.1074V90H44.8027V82.6035H46.3545L46.4502 84.1074ZM46.1836 86.0283L45.623 86.0215C45.623 85.5111 45.6868 85.0394 45.8145 84.6064C45.9421 84.1735 46.1289 83.7975 46.375 83.4785C46.6211 83.1549 46.9264 82.9066 47.291 82.7334C47.6602 82.5557 48.0863 82.4668 48.5693 82.4668C48.9066 82.4668 49.2142 82.5169 49.4922 82.6172C49.7747 82.7129 50.0186 82.8656 50.2236 83.0752C50.4333 83.2848 50.5928 83.5537 50.7021 83.8818C50.8161 84.21 50.873 84.6064 50.873 85.0713V90H49.2256V85.2148C49.2256 84.8548 49.1709 84.5723 49.0615 84.3672C48.9567 84.1621 48.804 84.0163 48.6035 83.9297C48.4076 83.8385 48.1729 83.793 47.8994 83.793C47.5895 83.793 47.3252 83.8522 47.1064 83.9707C46.8923 84.0892 46.7168 84.251 46.5801 84.4561C46.4434 84.6611 46.3431 84.8981 46.2793 85.167C46.2155 85.4359 46.1836 85.723 46.1836 86.0283ZM50.7705 85.5908L49.998 85.7617C49.998 85.3151 50.0596 84.8936 50.1826 84.4971C50.3102 84.096 50.4948 83.7451 50.7363 83.4443C50.9824 83.139 51.2855 82.8997 51.6455 82.7266C52.0055 82.5534 52.418 82.4668 52.8828 82.4668C53.2611 82.4668 53.5983 82.5192 53.8945 82.624C54.1953 82.7243 54.4505 82.8838 54.6602 83.1025C54.8698 83.3213 55.0293 83.6061 55.1387 83.957C55.248 84.3034 55.3027 84.7227 55.3027 85.2148V90H53.6484V85.208C53.6484 84.8343 53.5938 84.5449 53.4844 84.3398C53.3796 84.1348 53.2292 83.9935 53.0332 83.916C52.8372 83.834 52.6025 83.793 52.3291 83.793C52.0739 83.793 51.8483 83.8408 51.6523 83.9365C51.4609 84.0277 51.2992 84.1576 51.167 84.3262C51.0348 84.4902 50.9346 84.6794 50.8662 84.8936C50.8024 85.1077 50.7705 85.3402 50.7705 85.5908ZM61.168 88.5166V84.9893C61.168 84.7249 61.1201 84.4971 61.0244 84.3057C60.9287 84.1143 60.7829 83.9661 60.5869 83.8613C60.3955 83.7565 60.154 83.7041 59.8623 83.7041C59.5934 83.7041 59.361 83.7497 59.165 83.8408C58.9691 83.932 58.8164 84.055 58.707 84.21C58.5977 84.3649 58.543 84.5404 58.543 84.7363H56.9023C56.9023 84.4447 56.973 84.1621 57.1143 83.8887C57.2555 83.6152 57.4606 83.3714 57.7295 83.1572C57.9984 82.943 58.3197 82.7744 58.6934 82.6514C59.0671 82.5283 59.4863 82.4668 59.9512 82.4668C60.5072 82.4668 60.9993 82.5602 61.4277 82.7471C61.8607 82.9339 62.2002 83.2165 62.4463 83.5947C62.6969 83.9684 62.8223 84.4378 62.8223 85.0029V88.291C62.8223 88.6283 62.8451 88.9313 62.8906 89.2002C62.9408 89.4645 63.0114 89.6947 63.1025 89.8906V90H61.4141C61.3366 89.8223 61.2751 89.5967 61.2295 89.3232C61.1885 89.0452 61.168 88.7764 61.168 88.5166ZM61.4072 85.502L61.4209 86.5205H60.2383C59.9329 86.5205 59.6641 86.5501 59.4316 86.6094C59.1992 86.6641 59.0055 86.7461 58.8506 86.8555C58.6956 86.9648 58.5794 87.097 58.502 87.252C58.4245 87.4069 58.3857 87.5824 58.3857 87.7783C58.3857 87.9743 58.4313 88.1543 58.5225 88.3184C58.6136 88.4779 58.7458 88.6032 58.9189 88.6943C59.0967 88.7855 59.3109 88.8311 59.5615 88.8311C59.8988 88.8311 60.1927 88.7627 60.4434 88.626C60.6986 88.4847 60.8991 88.3138 61.0449 88.1133C61.1908 87.9082 61.2682 87.7145 61.2773 87.5322L61.8105 88.2637C61.7559 88.4505 61.6624 88.651 61.5303 88.8652C61.3981 89.0794 61.2249 89.2845 61.0107 89.4805C60.8011 89.6719 60.5482 89.8291 60.252 89.9521C59.9603 90.0752 59.623 90.1367 59.2402 90.1367C58.7572 90.1367 58.3265 90.041 57.9482 89.8496C57.57 89.6536 57.2738 89.3916 57.0596 89.0635C56.8454 88.7308 56.7383 88.3548 56.7383 87.9355C56.7383 87.5436 56.8112 87.1973 56.957 86.8965C57.1074 86.5911 57.3262 86.3359 57.6133 86.1309C57.9049 85.9258 58.2604 85.7708 58.6797 85.666C59.099 85.5566 59.5775 85.502 60.1152 85.502H61.4072ZM66.1787 84.1826V90H64.5312V82.6035H66.083L66.1787 84.1826ZM65.8848 86.0283L65.3516 86.0215C65.3561 85.4974 65.429 85.0166 65.5703 84.5791C65.7161 84.1416 65.9167 83.7656 66.1719 83.4512C66.4316 83.1367 66.7415 82.8952 67.1016 82.7266C67.4616 82.5534 67.8626 82.4668 68.3047 82.4668C68.6602 82.4668 68.9814 82.5169 69.2686 82.6172C69.5602 82.7129 69.8086 82.8701 70.0137 83.0889C70.2233 83.3076 70.3828 83.5924 70.4922 83.9434C70.6016 84.2897 70.6562 84.7158 70.6562 85.2217V90H69.002V85.2148C69.002 84.8594 68.9495 84.5791 68.8447 84.374C68.7445 84.1644 68.5964 84.0163 68.4004 83.9297C68.209 83.8385 67.9697 83.793 67.6826 83.793C67.4001 83.793 67.1471 83.8522 66.9238 83.9707C66.7005 84.0892 66.5114 84.251 66.3564 84.4561C66.2061 84.6611 66.0898 84.8981 66.0078 85.167C65.9258 85.4359 65.8848 85.723 65.8848 86.0283ZM75.3594 88.8242C75.6283 88.8242 75.8698 88.7718 76.084 88.667C76.3027 88.5576 76.4782 88.4072 76.6104 88.2158C76.7471 88.0244 76.8223 87.8034 76.8359 87.5527H78.3877C78.3786 88.0312 78.2373 88.4665 77.9639 88.8584C77.6904 89.2503 77.3281 89.5625 76.877 89.7949C76.4258 90.0228 75.9268 90.1367 75.3799 90.1367C74.8148 90.1367 74.3226 90.041 73.9033 89.8496C73.484 89.6536 73.1354 89.3848 72.8574 89.043C72.5794 88.7012 72.3698 88.307 72.2285 87.8604C72.0918 87.4137 72.0234 86.9352 72.0234 86.4248V86.1855C72.0234 85.6751 72.0918 85.1966 72.2285 84.75C72.3698 84.2988 72.5794 83.9023 72.8574 83.5605C73.1354 83.2188 73.484 82.9521 73.9033 82.7607C74.3226 82.5648 74.8125 82.4668 75.373 82.4668C75.9655 82.4668 76.485 82.5853 76.9316 82.8223C77.3783 83.0547 77.7292 83.3805 77.9844 83.7998C78.2441 84.2145 78.3786 84.6976 78.3877 85.249H76.8359C76.8223 84.9756 76.7539 84.7295 76.6309 84.5107C76.5124 84.2874 76.3438 84.1097 76.125 83.9775C75.9108 83.8454 75.6533 83.7793 75.3525 83.7793C75.0199 83.7793 74.7441 83.8477 74.5254 83.9844C74.3066 84.1165 74.1357 84.2988 74.0127 84.5312C73.8896 84.7591 73.8008 85.0166 73.7461 85.3037C73.696 85.5863 73.6709 85.8802 73.6709 86.1855V86.4248C73.6709 86.7301 73.696 87.0264 73.7461 87.3135C73.7962 87.6006 73.8828 87.8581 74.0059 88.0859C74.1335 88.3092 74.3066 88.4893 74.5254 88.626C74.7441 88.7581 75.0221 88.8242 75.3594 88.8242ZM82.9131 90.1367C82.3662 90.1367 81.8717 90.0479 81.4297 89.8701C80.9922 89.6878 80.6185 89.4349 80.3086 89.1113C80.0033 88.7878 79.7686 88.4072 79.6045 87.9697C79.4404 87.5322 79.3584 87.0605 79.3584 86.5547V86.2812C79.3584 85.7025 79.4427 85.1784 79.6113 84.709C79.7799 84.2396 80.0146 83.8385 80.3154 83.5059C80.6162 83.1686 80.9717 82.9111 81.3818 82.7334C81.792 82.5557 82.2363 82.4668 82.7148 82.4668C83.2435 82.4668 83.7061 82.5557 84.1025 82.7334C84.499 82.9111 84.8271 83.1618 85.0869 83.4854C85.3512 83.8044 85.5472 84.1849 85.6748 84.627C85.807 85.069 85.873 85.5566 85.873 86.0898V86.7939H80.1582V85.6113H84.2461V85.4814C84.237 85.1852 84.1777 84.9072 84.0684 84.6475C83.9635 84.3877 83.8018 84.1781 83.583 84.0186C83.3643 83.859 83.0726 83.7793 82.708 83.7793C82.4346 83.7793 82.1908 83.8385 81.9766 83.957C81.7669 84.071 81.5915 84.2373 81.4502 84.4561C81.3089 84.6748 81.1995 84.9391 81.1221 85.249C81.0492 85.5544 81.0127 85.8984 81.0127 86.2812V86.5547C81.0127 86.8783 81.056 87.179 81.1426 87.457C81.2337 87.7305 81.3659 87.9697 81.5391 88.1748C81.7122 88.3799 81.9219 88.5417 82.168 88.6602C82.4141 88.7741 82.6943 88.8311 83.0088 88.8311C83.4053 88.8311 83.7585 88.7513 84.0684 88.5918C84.3783 88.4323 84.6471 88.2067 84.875 87.915L85.7432 88.7559C85.5837 88.9883 85.3763 89.2116 85.1211 89.4258C84.8659 89.6354 84.5537 89.8063 84.1846 89.9385C83.82 90.0706 83.3962 90.1367 82.9131 90.1367Z" fill="#46444B"/>
<rect x="129.5" y="2" width="62" height="62" rx="31" fill="#E5FAEF"/>
<rect x="129.5" y="2" width="62" height="62" rx="31" stroke="#00CC66" stroke-width="4"/>
<path d="M145.406 42V27.375L145.957 27.9258L141.891 29.7539V26.9766L147.305 24.7266H148.172V42H145.406ZM141.621 42V39.5039H151.266V42H141.621ZM159.762 42.1875C158.566 42.1875 157.547 41.8984 156.703 41.3203C155.859 40.7344 155.215 39.8633 154.77 38.707C154.324 37.5508 154.102 36.1172 154.102 34.4062V32.4023C154.102 30.6758 154.324 29.2305 154.77 28.0664C155.215 26.9023 155.859 26.0234 156.703 25.4297C157.547 24.8359 158.566 24.5391 159.762 24.5391C160.957 24.5391 161.973 24.8359 162.809 25.4297C163.652 26.0234 164.293 26.9023 164.73 28.0664C165.176 29.2305 165.398 30.6758 165.398 32.4023V34.4062C165.398 36.1172 165.176 37.5508 164.73 38.707C164.293 39.8633 163.652 40.7344 162.809 41.3203C161.973 41.8984 160.957 42.1875 159.762 42.1875ZM159.762 39.6445C160.371 39.6445 160.887 39.4648 161.309 39.1055C161.738 38.7383 162.062 38.1992 162.281 37.4883C162.508 36.7695 162.621 35.8789 162.621 34.8164V31.9453C162.621 30.875 162.508 29.9805 162.281 29.2617C162.062 28.543 161.738 28 161.309 27.6328C160.887 27.2656 160.371 27.082 159.762 27.082C159.152 27.082 158.633 27.2656 158.203 27.6328C157.781 27.9922 157.453 28.5312 157.219 29.25C156.992 29.9688 156.879 30.8672 156.879 31.9453V34.8164C156.879 35.8711 156.992 36.7578 157.219 37.4766C157.445 38.1953 157.773 38.7383 158.203 39.1055C158.633 39.4648 159.152 39.6445 159.762 39.6445ZM156.34 37.7578L155.203 35.8359L163.207 28.9922L164.273 30.8672L156.34 37.7578ZM173.262 42.1875C172.066 42.1875 171.047 41.8984 170.203 41.3203C169.359 40.7344 168.715 39.8633 168.27 38.707C167.824 37.5508 167.602 36.1172 167.602 34.4062V32.4023C167.602 30.6758 167.824 29.2305 168.27 28.0664C168.715 26.9023 169.359 26.0234 170.203 25.4297C171.047 24.8359 172.066 24.5391 173.262 24.5391C174.457 24.5391 175.473 24.8359 176.309 25.4297C177.152 26.0234 177.793 26.9023 178.23 28.0664C178.676 29.2305 178.898 30.6758 178.898 32.4023V34.4062C178.898 36.1172 178.676 37.5508 178.23 38.707C177.793 39.8633 177.152 40.7344 176.309 41.3203C175.473 41.8984 174.457 42.1875 173.262 42.1875ZM173.262 39.6445C173.871 39.6445 174.387 39.4648 174.809 39.1055C175.238 38.7383 175.562 38.1992 175.781 37.4883C176.008 36.7695 176.121 35.8789 176.121 34.8164V31.9453C176.121 30.875 176.008 29.9805 175.781 29.2617C175.562 28.543 175.238 28 174.809 27.6328C174.387 27.2656 173.871 27.082 173.262 27.082C172.652 27.082 172.133 27.2656 171.703 27.6328C171.281 27.9922 170.953 28.5312 170.719 29.25C170.492 29.9688 170.379 30.8672 170.379 31.9453V34.8164C170.379 35.8711 170.492 36.7578 170.719 37.4766C170.945 38.1953 171.273 38.7383 171.703 39.1055C172.133 39.4648 172.652 39.6445 173.262 39.6445ZM169.84 37.7578L168.703 35.8359L176.707 28.9922L177.773 30.8672L169.84 37.7578Z" fill="#008800"/>
<path d="M125.637 81.373L122.663 90H120.865L124.611 80.0469H125.76L125.637 81.373ZM128.125 90L125.145 81.373L125.015 80.0469H126.17L129.93 90H128.125ZM127.981 86.3086V87.6689H122.567V86.3086H127.981ZM133.901 88.8242C134.17 88.8242 134.412 88.7718 134.626 88.667C134.845 88.5576 135.02 88.4072 135.152 88.2158C135.289 88.0244 135.364 87.8034 135.378 87.5527H136.93C136.921 88.0312 136.779 88.4665 136.506 88.8584C136.232 89.2503 135.87 89.5625 135.419 89.7949C134.968 90.0228 134.469 90.1367 133.922 90.1367C133.357 90.1367 132.865 90.041 132.445 89.8496C132.026 89.6536 131.677 89.3848 131.399 89.043C131.121 88.7012 130.912 88.307 130.771 87.8604C130.634 87.4137 130.565 86.9352 130.565 86.4248V86.1855C130.565 85.6751 130.634 85.1966 130.771 84.75C130.912 84.2988 131.121 83.9023 131.399 83.5605C131.677 83.2188 132.026 82.9521 132.445 82.7607C132.865 82.5648 133.354 82.4668 133.915 82.4668C134.507 82.4668 135.027 82.5853 135.474 82.8223C135.92 83.0547 136.271 83.3805 136.526 83.7998C136.786 84.2145 136.921 84.6976 136.93 85.249H135.378C135.364 84.9756 135.296 84.7295 135.173 84.5107C135.054 84.2874 134.886 84.1097 134.667 83.9775C134.453 83.8454 134.195 83.7793 133.895 83.7793C133.562 83.7793 133.286 83.8477 133.067 83.9844C132.849 84.1165 132.678 84.2988 132.555 84.5312C132.432 84.7591 132.343 85.0166 132.288 85.3037C132.238 85.5863 132.213 85.8802 132.213 86.1855V86.4248C132.213 86.7301 132.238 87.0264 132.288 87.3135C132.338 87.6006 132.425 87.8581 132.548 88.0859C132.675 88.3092 132.849 88.4893 133.067 88.626C133.286 88.7581 133.564 88.8242 133.901 88.8242ZM141.216 88.8242C141.485 88.8242 141.726 88.7718 141.94 88.667C142.159 88.5576 142.335 88.4072 142.467 88.2158C142.604 88.0244 142.679 87.8034 142.692 87.5527H144.244C144.235 88.0312 144.094 88.4665 143.82 88.8584C143.547 89.2503 143.185 89.5625 142.733 89.7949C142.282 90.0228 141.783 90.1367 141.236 90.1367C140.671 90.1367 140.179 90.041 139.76 89.8496C139.34 89.6536 138.992 89.3848 138.714 89.043C138.436 88.7012 138.226 88.307 138.085 87.8604C137.948 87.4137 137.88 86.9352 137.88 86.4248V86.1855C137.88 85.6751 137.948 85.1966 138.085 84.75C138.226 84.2988 138.436 83.9023 138.714 83.5605C138.992 83.2188 139.34 82.9521 139.76 82.7607C140.179 82.5648 140.669 82.4668 141.229 82.4668C141.822 82.4668 142.341 82.5853 142.788 82.8223C143.235 83.0547 143.586 83.3805 143.841 83.7998C144.101 84.2145 144.235 84.6976 144.244 85.249H142.692C142.679 84.9756 142.61 84.7295 142.487 84.5107C142.369 84.2874 142.2 84.1097 141.981 83.9775C141.767 83.8454 141.51 83.7793 141.209 83.7793C140.876 83.7793 140.601 83.8477 140.382 83.9844C140.163 84.1165 139.992 84.2988 139.869 84.5312C139.746 84.7591 139.657 85.0166 139.603 85.3037C139.552 85.5863 139.527 85.8802 139.527 86.1855V86.4248C139.527 86.7301 139.552 87.0264 139.603 87.3135C139.653 87.6006 139.739 87.8581 139.862 88.0859C139.99 88.3092 140.163 88.4893 140.382 88.626C140.601 88.7581 140.879 88.8242 141.216 88.8242ZM148.77 90.1367C148.223 90.1367 147.728 90.0479 147.286 89.8701C146.849 89.6878 146.475 89.4349 146.165 89.1113C145.86 88.7878 145.625 88.4072 145.461 87.9697C145.297 87.5322 145.215 87.0605 145.215 86.5547V86.2812C145.215 85.7025 145.299 85.1784 145.468 84.709C145.636 84.2396 145.871 83.8385 146.172 83.5059C146.473 83.1686 146.828 82.9111 147.238 82.7334C147.648 82.5557 148.093 82.4668 148.571 82.4668C149.1 82.4668 149.562 82.5557 149.959 82.7334C150.355 82.9111 150.684 83.1618 150.943 83.4854C151.208 83.8044 151.404 84.1849 151.531 84.627C151.663 85.069 151.729 85.5566 151.729 86.0898V86.7939H146.015V85.6113H150.103V85.4814C150.093 85.1852 150.034 84.9072 149.925 84.6475C149.82 84.3877 149.658 84.1781 149.439 84.0186C149.221 83.859 148.929 83.7793 148.564 83.7793C148.291 83.7793 148.047 83.8385 147.833 83.957C147.623 84.071 147.448 84.2373 147.307 84.4561C147.165 84.6748 147.056 84.9391 146.979 85.249C146.906 85.5544 146.869 85.8984 146.869 86.2812V86.5547C146.869 86.8783 146.912 87.179 146.999 87.457C147.09 87.7305 147.222 87.9697 147.396 88.1748C147.569 88.3799 147.778 88.5417 148.024 88.6602C148.271 88.7741 148.551 88.8311 148.865 88.8311C149.262 88.8311 149.615 88.7513 149.925 88.5918C150.235 88.4323 150.504 88.2067 150.731 87.915L151.6 88.7559C151.44 88.9883 151.233 89.2116 150.978 89.4258C150.722 89.6354 150.41 89.8063 150.041 89.9385C149.676 90.0706 149.253 90.1367 148.77 90.1367ZM157.164 87.9971C157.164 87.833 157.123 87.6849 157.041 87.5527C156.959 87.416 156.802 87.293 156.569 87.1836C156.341 87.0742 156.004 86.974 155.558 86.8828C155.166 86.7962 154.806 86.6937 154.478 86.5752C154.154 86.4521 153.876 86.304 153.644 86.1309C153.411 85.9577 153.231 85.7526 153.104 85.5156C152.976 85.2786 152.912 85.0052 152.912 84.6953C152.912 84.3945 152.978 84.1097 153.11 83.8408C153.243 83.5719 153.432 83.335 153.678 83.1299C153.924 82.9248 154.222 82.763 154.573 82.6445C154.929 82.526 155.325 82.4668 155.763 82.4668C156.382 82.4668 156.913 82.5716 157.355 82.7812C157.802 82.9863 158.144 83.2666 158.381 83.6221C158.618 83.973 158.736 84.3695 158.736 84.8115H157.089C157.089 84.6156 157.039 84.4333 156.938 84.2646C156.843 84.0915 156.697 83.9525 156.501 83.8477C156.305 83.7383 156.059 83.6836 155.763 83.6836C155.48 83.6836 155.245 83.7292 155.059 83.8203C154.876 83.9069 154.74 84.0208 154.648 84.1621C154.562 84.3034 154.519 84.4583 154.519 84.627C154.519 84.75 154.541 84.8617 154.587 84.9619C154.637 85.0576 154.719 85.1465 154.833 85.2285C154.947 85.306 155.102 85.3789 155.298 85.4473C155.498 85.5156 155.749 85.5817 156.05 85.6455C156.615 85.764 157.1 85.9167 157.506 86.1035C157.916 86.2858 158.23 86.5228 158.449 86.8145C158.668 87.1016 158.777 87.4661 158.777 87.9082C158.777 88.2363 158.707 88.5371 158.565 88.8105C158.429 89.0794 158.228 89.3141 157.964 89.5146C157.7 89.7106 157.383 89.8633 157.014 89.9727C156.649 90.082 156.239 90.1367 155.783 90.1367C155.113 90.1367 154.546 90.0182 154.081 89.7812C153.616 89.5397 153.263 89.2321 153.021 88.8584C152.785 88.4801 152.666 88.0882 152.666 87.6826H154.259C154.277 87.988 154.361 88.2318 154.512 88.4141C154.667 88.5918 154.858 88.7217 155.086 88.8037C155.318 88.8812 155.558 88.9199 155.804 88.9199C156.1 88.9199 156.348 88.8812 156.549 88.8037C156.749 88.7217 156.902 88.6123 157.007 88.4756C157.112 88.3343 157.164 88.1748 157.164 87.9971ZM164.369 87.9971C164.369 87.833 164.328 87.6849 164.246 87.5527C164.164 87.416 164.007 87.293 163.774 87.1836C163.547 87.0742 163.209 86.974 162.763 86.8828C162.371 86.7962 162.011 86.6937 161.683 86.5752C161.359 86.4521 161.081 86.304 160.849 86.1309C160.616 85.9577 160.436 85.7526 160.309 85.5156C160.181 85.2786 160.117 85.0052 160.117 84.6953C160.117 84.3945 160.183 84.1097 160.315 83.8408C160.448 83.5719 160.637 83.335 160.883 83.1299C161.129 82.9248 161.427 82.763 161.778 82.6445C162.134 82.526 162.53 82.4668 162.968 82.4668C163.588 82.4668 164.118 82.5716 164.561 82.7812C165.007 82.9863 165.349 83.2666 165.586 83.6221C165.823 83.973 165.941 84.3695 165.941 84.8115H164.294C164.294 84.6156 164.244 84.4333 164.144 84.2646C164.048 84.0915 163.902 83.9525 163.706 83.8477C163.51 83.7383 163.264 83.6836 162.968 83.6836C162.685 83.6836 162.451 83.7292 162.264 83.8203C162.081 83.9069 161.945 84.0208 161.854 84.1621C161.767 84.3034 161.724 84.4583 161.724 84.627C161.724 84.75 161.746 84.8617 161.792 84.9619C161.842 85.0576 161.924 85.1465 162.038 85.2285C162.152 85.306 162.307 85.3789 162.503 85.4473C162.703 85.5156 162.954 85.5817 163.255 85.6455C163.82 85.764 164.305 85.9167 164.711 86.1035C165.121 86.2858 165.436 86.5228 165.654 86.8145C165.873 87.1016 165.982 87.4661 165.982 87.9082C165.982 88.2363 165.912 88.5371 165.771 88.8105C165.634 89.0794 165.433 89.3141 165.169 89.5146C164.905 89.7106 164.588 89.8633 164.219 89.9727C163.854 90.082 163.444 90.1367 162.988 90.1367C162.318 90.1367 161.751 90.0182 161.286 89.7812C160.821 89.5397 160.468 89.2321 160.227 88.8584C159.99 88.4801 159.871 88.0882 159.871 87.6826H161.464C161.482 87.988 161.566 88.2318 161.717 88.4141C161.872 88.5918 162.063 88.7217 162.291 88.8037C162.523 88.8812 162.763 88.9199 163.009 88.9199C163.305 88.9199 163.553 88.8812 163.754 88.8037C163.954 88.7217 164.107 88.6123 164.212 88.4756C164.317 88.3343 164.369 88.1748 164.369 87.9971ZM169.188 82.6035V90H167.534V82.6035H169.188ZM167.425 80.6621C167.425 80.4115 167.507 80.2041 167.671 80.04C167.84 79.8714 168.072 79.7871 168.368 79.7871C168.66 79.7871 168.89 79.8714 169.059 80.04C169.227 80.2041 169.312 80.4115 169.312 80.6621C169.312 80.9082 169.227 81.1133 169.059 81.2773C168.89 81.4414 168.66 81.5234 168.368 81.5234C168.072 81.5234 167.84 81.4414 167.671 81.2773C167.507 81.1133 167.425 80.9082 167.425 80.6621ZM171 79.5H172.647V88.4209L172.49 90H171V79.5ZM177.474 86.2334V86.377C177.474 86.9238 177.412 87.4274 177.289 87.8877C177.171 88.3434 176.988 88.7399 176.742 89.0771C176.501 89.4144 176.2 89.6764 175.84 89.8633C175.484 90.0456 175.072 90.1367 174.603 90.1367C174.142 90.1367 173.741 90.0501 173.399 89.877C173.058 89.7038 172.771 89.4577 172.538 89.1387C172.31 88.8197 172.126 88.4391 171.984 87.9971C171.843 87.555 171.743 87.0674 171.684 86.5342V86.0762C171.743 85.5384 171.843 85.0508 171.984 84.6133C172.126 84.1712 172.31 83.7907 172.538 83.4717C172.771 83.1481 173.055 82.8997 173.393 82.7266C173.734 82.5534 174.133 82.4668 174.589 82.4668C175.063 82.4668 175.48 82.5579 175.84 82.7402C176.204 82.9225 176.507 83.1823 176.749 83.5195C176.991 83.8522 177.171 84.2487 177.289 84.709C177.412 85.1693 177.474 85.6774 177.474 86.2334ZM175.826 86.377V86.2334C175.826 85.9007 175.799 85.5885 175.744 85.2969C175.689 85.0007 175.598 84.7409 175.471 84.5176C175.348 84.2943 175.179 84.1188 174.965 83.9912C174.755 83.859 174.493 83.793 174.179 83.793C173.887 83.793 173.636 83.8431 173.427 83.9434C173.217 84.0436 173.042 84.1803 172.9 84.3535C172.759 84.5267 172.647 84.7272 172.565 84.9551C172.488 85.1829 172.436 85.429 172.408 85.6934V86.9307C172.449 87.2725 172.536 87.5869 172.668 87.874C172.805 88.1566 172.996 88.3844 173.242 88.5576C173.488 88.7262 173.805 88.8105 174.192 88.8105C174.498 88.8105 174.755 88.749 174.965 88.626C175.174 88.5029 175.341 88.332 175.464 88.1133C175.591 87.89 175.683 87.6302 175.737 87.334C175.797 87.0378 175.826 86.7188 175.826 86.377ZM180.632 82.6035V90H178.978V82.6035H180.632ZM178.868 80.6621C178.868 80.4115 178.95 80.2041 179.114 80.04C179.283 79.8714 179.515 79.7871 179.812 79.7871C180.103 79.7871 180.333 79.8714 180.502 80.04C180.671 80.2041 180.755 80.4115 180.755 80.6621C180.755 80.9082 180.671 81.1133 180.502 81.2773C180.333 81.4414 180.103 81.5234 179.812 81.5234C179.515 81.5234 179.283 81.4414 179.114 81.2773C178.95 81.1133 178.868 80.9082 178.868 80.6621ZM184.2 79.5V90H182.546V79.5H184.2ZM187.769 82.6035V90H186.114V82.6035H187.769ZM186.005 80.6621C186.005 80.4115 186.087 80.2041 186.251 80.04C186.42 79.8714 186.652 79.7871 186.948 79.7871C187.24 79.7871 187.47 79.8714 187.639 80.04C187.807 80.2041 187.892 80.4115 187.892 80.6621C187.892 80.9082 187.807 81.1133 187.639 81.2773C187.47 81.4414 187.24 81.5234 186.948 81.5234C186.652 81.5234 186.42 81.4414 186.251 81.2773C186.087 81.1133 186.005 80.9082 186.005 80.6621ZM192.964 82.6035V83.8066H188.794V82.6035H192.964ZM189.997 80.792H191.645V87.9561C191.645 88.1839 191.676 88.3594 191.74 88.4824C191.809 88.6009 191.902 88.6807 192.021 88.7217C192.139 88.7627 192.278 88.7832 192.438 88.7832C192.551 88.7832 192.661 88.7764 192.766 88.7627C192.87 88.749 192.955 88.7354 193.019 88.7217L193.025 89.9795C192.889 90.0205 192.729 90.057 192.547 90.0889C192.369 90.1208 192.164 90.1367 191.932 90.1367C191.553 90.1367 191.218 90.0706 190.927 89.9385C190.635 89.8018 190.407 89.5807 190.243 89.2754C190.079 88.9701 189.997 88.5645 189.997 88.0586V80.792ZM196.382 89.1934L198.392 82.6035H200.155L197.188 91.1279C197.12 91.3102 197.031 91.5085 196.922 91.7227C196.812 91.9368 196.669 92.1396 196.491 92.3311C196.318 92.527 196.102 92.6842 195.842 92.8027C195.582 92.9258 195.268 92.9873 194.898 92.9873C194.753 92.9873 194.611 92.9736 194.475 92.9463C194.342 92.9235 194.217 92.8984 194.099 92.8711L194.092 91.6133C194.137 91.6178 194.192 91.6224 194.256 91.627C194.324 91.6315 194.379 91.6338 194.42 91.6338C194.693 91.6338 194.921 91.5996 195.104 91.5312C195.286 91.4674 195.434 91.3626 195.548 91.2168C195.666 91.071 195.767 90.875 195.849 90.6289L196.382 89.1934ZM195.247 82.6035L197.004 88.1406L197.298 89.877L196.156 90.1709L193.47 82.6035H195.247Z" fill="#46444B"/>
<rect x="244.5" y="2" width="62" height="62" rx="31" fill="#E5FAEF"/>
<rect x="244.5" y="2" width="62" height="62" rx="31" stroke="#00CC66" stroke-width="4"/>
<path d="M260.406 42V27.375L260.957 27.9258L256.891 29.7539V26.9766L262.305 24.7266H263.172V42H260.406ZM256.621 42V39.5039H266.266V42H256.621ZM274.762 42.1875C273.566 42.1875 272.547 41.8984 271.703 41.3203C270.859 40.7344 270.215 39.8633 269.77 38.707C269.324 37.5508 269.102 36.1172 269.102 34.4062V32.4023C269.102 30.6758 269.324 29.2305 269.77 28.0664C270.215 26.9023 270.859 26.0234 271.703 25.4297C272.547 24.8359 273.566 24.5391 274.762 24.5391C275.957 24.5391 276.973 24.8359 277.809 25.4297C278.652 26.0234 279.293 26.9023 279.73 28.0664C280.176 29.2305 280.398 30.6758 280.398 32.4023V34.4062C280.398 36.1172 280.176 37.5508 279.73 38.707C279.293 39.8633 278.652 40.7344 277.809 41.3203C276.973 41.8984 275.957 42.1875 274.762 42.1875ZM274.762 39.6445C275.371 39.6445 275.887 39.4648 276.309 39.1055C276.738 38.7383 277.062 38.1992 277.281 37.4883C277.508 36.7695 277.621 35.8789 277.621 34.8164V31.9453C277.621 30.875 277.508 29.9805 277.281 29.2617C277.062 28.543 276.738 28 276.309 27.6328C275.887 27.2656 275.371 27.082 274.762 27.082C274.152 27.082 273.633 27.2656 273.203 27.6328C272.781 27.9922 272.453 28.5312 272.219 29.25C271.992 29.9688 271.879 30.8672 271.879 31.9453V34.8164C271.879 35.8711 271.992 36.7578 272.219 37.4766C272.445 38.1953 272.773 38.7383 273.203 39.1055C273.633 39.4648 274.152 39.6445 274.762 39.6445ZM271.34 37.7578L270.203 35.8359L278.207 28.9922L279.273 30.8672L271.34 37.7578ZM288.262 42.1875C287.066 42.1875 286.047 41.8984 285.203 41.3203C284.359 40.7344 283.715 39.8633 283.27 38.707C282.824 37.5508 282.602 36.1172 282.602 34.4062V32.4023C282.602 30.6758 282.824 29.2305 283.27 28.0664C283.715 26.9023 284.359 26.0234 285.203 25.4297C286.047 24.8359 287.066 24.5391 288.262 24.5391C289.457 24.5391 290.473 24.8359 291.309 25.4297C292.152 26.0234 292.793 26.9023 293.23 28.0664C293.676 29.2305 293.898 30.6758 293.898 32.4023V34.4062C293.898 36.1172 293.676 37.5508 293.23 38.707C292.793 39.8633 292.152 40.7344 291.309 41.3203C290.473 41.8984 289.457 42.1875 288.262 42.1875ZM288.262 39.6445C288.871 39.6445 289.387 39.4648 289.809 39.1055C290.238 38.7383 290.562 38.1992 290.781 37.4883C291.008 36.7695 291.121 35.8789 291.121 34.8164V31.9453C291.121 30.875 291.008 29.9805 290.781 29.2617C290.562 28.543 290.238 28 289.809 27.6328C289.387 27.2656 288.871 27.082 288.262 27.082C287.652 27.082 287.133 27.2656 286.703 27.6328C286.281 27.9922 285.953 28.5312 285.719 29.25C285.492 29.9688 285.379 30.8672 285.379 31.9453V34.8164C285.379 35.8711 285.492 36.7578 285.719 37.4766C285.945 38.1953 286.273 38.7383 286.703 39.1055C287.133 39.4648 287.652 39.6445 288.262 39.6445ZM284.84 37.7578L283.703 35.8359L291.707 28.9922L292.773 30.8672L284.84 37.7578Z" fill="#008800"/>
<path d="M235.011 85.502H232.475L232.461 84.251H234.676C235.049 84.251 235.366 84.1963 235.626 84.0869C235.89 83.973 236.091 83.8112 236.228 83.6016C236.364 83.3874 236.433 83.1299 236.433 82.8291C236.433 82.4964 236.369 82.2253 236.241 82.0156C236.114 81.806 235.918 81.6533 235.653 81.5576C235.394 81.4619 235.061 81.4141 234.655 81.4141H232.994V90H231.278V80.0469H234.655C235.202 80.0469 235.69 80.0993 236.118 80.2041C236.551 80.3089 236.918 80.473 237.219 80.6963C237.524 80.915 237.754 81.193 237.909 81.5303C238.069 81.8675 238.148 82.2686 238.148 82.7334C238.148 83.1436 238.05 83.5195 237.854 83.8613C237.659 84.1986 237.369 84.4743 236.986 84.6885C236.604 84.9027 236.127 85.0303 235.558 85.0713L235.011 85.502ZM234.936 90H231.935L232.707 88.6396H234.936C235.323 88.6396 235.646 88.5758 235.906 88.4482C236.166 88.3161 236.36 88.1361 236.487 87.9082C236.619 87.6758 236.686 87.4046 236.686 87.0947C236.686 86.7712 236.629 86.4909 236.515 86.2539C236.401 86.0124 236.221 85.8278 235.975 85.7002C235.729 85.568 235.407 85.502 235.011 85.502H233.083L233.097 84.251H235.605L235.995 84.7227C236.542 84.7409 236.991 84.8617 237.342 85.085C237.697 85.3083 237.962 85.5977 238.135 85.9531C238.308 86.3086 238.395 86.6914 238.395 87.1016C238.395 87.735 238.256 88.266 237.978 88.6943C237.704 89.1227 237.31 89.4486 236.795 89.6719C236.28 89.8906 235.66 90 234.936 90ZM243.221 90.1367C242.674 90.1367 242.179 90.0479 241.737 89.8701C241.3 89.6878 240.926 89.4349 240.616 89.1113C240.311 88.7878 240.076 88.4072 239.912 87.9697C239.748 87.5322 239.666 87.0605 239.666 86.5547V86.2812C239.666 85.7025 239.75 85.1784 239.919 84.709C240.088 84.2396 240.322 83.8385 240.623 83.5059C240.924 83.1686 241.279 82.9111 241.689 82.7334C242.1 82.5557 242.544 82.4668 243.022 82.4668C243.551 82.4668 244.014 82.5557 244.41 82.7334C244.807 82.9111 245.135 83.1618 245.395 83.4854C245.659 83.8044 245.855 84.1849 245.982 84.627C246.115 85.069 246.181 85.5566 246.181 86.0898V86.7939H240.466V85.6113H244.554V85.4814C244.545 85.1852 244.485 84.9072 244.376 84.6475C244.271 84.3877 244.109 84.1781 243.891 84.0186C243.672 83.859 243.38 83.7793 243.016 83.7793C242.742 83.7793 242.498 83.8385 242.284 83.957C242.075 84.071 241.899 84.2373 241.758 84.4561C241.617 84.6748 241.507 84.9391 241.43 85.249C241.357 85.5544 241.32 85.8984 241.32 86.2812V86.5547C241.32 86.8783 241.364 87.179 241.45 87.457C241.541 87.7305 241.674 87.9697 241.847 88.1748C242.02 88.3799 242.229 88.5417 242.476 88.6602C242.722 88.7741 243.002 88.8311 243.316 88.8311C243.713 88.8311 244.066 88.7513 244.376 88.5918C244.686 88.4323 244.955 88.2067 245.183 87.915L246.051 88.7559C245.891 88.9883 245.684 89.2116 245.429 89.4258C245.174 89.6354 244.861 89.8063 244.492 89.9385C244.128 90.0706 243.704 90.1367 243.221 90.1367ZM251.615 87.9971C251.615 87.833 251.574 87.6849 251.492 87.5527C251.41 87.416 251.253 87.293 251.021 87.1836C250.793 87.0742 250.455 86.974 250.009 86.8828C249.617 86.7962 249.257 86.6937 248.929 86.5752C248.605 86.4521 248.327 86.304 248.095 86.1309C247.862 85.9577 247.682 85.7526 247.555 85.5156C247.427 85.2786 247.363 85.0052 247.363 84.6953C247.363 84.3945 247.429 84.1097 247.562 83.8408C247.694 83.5719 247.883 83.335 248.129 83.1299C248.375 82.9248 248.674 82.763 249.024 82.6445C249.38 82.526 249.776 82.4668 250.214 82.4668C250.834 82.4668 251.365 82.5716 251.807 82.7812C252.253 82.9863 252.595 83.2666 252.832 83.6221C253.069 83.973 253.188 84.3695 253.188 84.8115H251.54C251.54 84.6156 251.49 84.4333 251.39 84.2646C251.294 84.0915 251.148 83.9525 250.952 83.8477C250.756 83.7383 250.51 83.6836 250.214 83.6836C249.931 83.6836 249.697 83.7292 249.51 83.8203C249.327 83.9069 249.191 84.0208 249.1 84.1621C249.013 84.3034 248.97 84.4583 248.97 84.627C248.97 84.75 248.993 84.8617 249.038 84.9619C249.088 85.0576 249.17 85.1465 249.284 85.2285C249.398 85.306 249.553 85.3789 249.749 85.4473C249.95 85.5156 250.2 85.5817 250.501 85.6455C251.066 85.764 251.551 85.9167 251.957 86.1035C252.367 86.2858 252.682 86.5228 252.9 86.8145C253.119 87.1016 253.229 87.4661 253.229 87.9082C253.229 88.2363 253.158 88.5371 253.017 88.8105C252.88 89.0794 252.679 89.3141 252.415 89.5146C252.151 89.7106 251.834 89.8633 251.465 89.9727C251.1 90.082 250.69 90.1367 250.234 90.1367C249.564 90.1367 248.997 90.0182 248.532 89.7812C248.067 89.5397 247.714 89.2321 247.473 88.8584C247.236 88.4801 247.117 88.0882 247.117 87.6826H248.71C248.728 87.988 248.812 88.2318 248.963 88.4141C249.118 88.5918 249.309 88.7217 249.537 88.8037C249.77 88.8812 250.009 88.9199 250.255 88.9199C250.551 88.9199 250.799 88.8812 251 88.8037C251.201 88.7217 251.353 88.6123 251.458 88.4756C251.563 88.3343 251.615 88.1748 251.615 87.9971ZM258.062 82.6035V83.8066H253.892V82.6035H258.062ZM255.095 80.792H256.742V87.9561C256.742 88.1839 256.774 88.3594 256.838 88.4824C256.906 88.6009 257 88.6807 257.118 88.7217C257.237 88.7627 257.376 88.7832 257.535 88.7832C257.649 88.7832 257.758 88.7764 257.863 88.7627C257.968 88.749 258.052 88.7354 258.116 88.7217L258.123 89.9795C257.986 90.0205 257.827 90.057 257.645 90.0889C257.467 90.1208 257.262 90.1367 257.029 90.1367C256.651 90.1367 256.316 90.0706 256.024 89.9385C255.733 89.8018 255.505 89.5807 255.341 89.2754C255.177 88.9701 255.095 88.5645 255.095 88.0586V80.792ZM266.764 86.2881H264.173V84.9277H266.764C267.215 84.9277 267.579 84.8548 267.857 84.709C268.135 84.5632 268.338 84.3626 268.466 84.1074C268.598 83.8477 268.664 83.5514 268.664 83.2188C268.664 82.9043 268.598 82.6104 268.466 82.3369C268.338 82.0589 268.135 81.8356 267.857 81.667C267.579 81.4984 267.215 81.4141 266.764 81.4141H264.699V90H262.983V80.0469H266.764C267.534 80.0469 268.188 80.1836 268.726 80.457C269.268 80.7259 269.68 81.0996 269.963 81.5781C270.245 82.0521 270.387 82.5944 270.387 83.2051C270.387 83.8477 270.245 84.3991 269.963 84.8594C269.68 85.3197 269.268 85.6729 268.726 85.9189C268.188 86.165 267.534 86.2881 266.764 86.2881ZM273.415 84.0117V90H271.768V82.6035H273.34L273.415 84.0117ZM275.678 82.5557L275.664 84.0869C275.564 84.0687 275.454 84.055 275.336 84.0459C275.222 84.0368 275.108 84.0322 274.994 84.0322C274.712 84.0322 274.463 84.0732 274.249 84.1553C274.035 84.2327 273.855 84.3467 273.709 84.4971C273.568 84.6429 273.458 84.8206 273.381 85.0303C273.303 85.2399 273.258 85.4746 273.244 85.7344L272.868 85.7617C272.868 85.2969 272.914 84.8662 273.005 84.4697C273.096 84.0732 273.233 83.7246 273.415 83.4238C273.602 83.123 273.834 82.8883 274.112 82.7197C274.395 82.5511 274.721 82.4668 275.09 82.4668C275.19 82.4668 275.297 82.4759 275.411 82.4941C275.53 82.5124 275.618 82.5329 275.678 82.5557ZM280.634 88.5166V84.9893C280.634 84.7249 280.586 84.4971 280.49 84.3057C280.395 84.1143 280.249 83.9661 280.053 83.8613C279.861 83.7565 279.62 83.7041 279.328 83.7041C279.059 83.7041 278.827 83.7497 278.631 83.8408C278.435 83.932 278.282 84.055 278.173 84.21C278.063 84.3649 278.009 84.5404 278.009 84.7363H276.368C276.368 84.4447 276.439 84.1621 276.58 83.8887C276.721 83.6152 276.926 83.3714 277.195 83.1572C277.464 82.943 277.785 82.7744 278.159 82.6514C278.533 82.5283 278.952 82.4668 279.417 82.4668C279.973 82.4668 280.465 82.5602 280.894 82.7471C281.326 82.9339 281.666 83.2165 281.912 83.5947C282.163 83.9684 282.288 84.4378 282.288 85.0029V88.291C282.288 88.6283 282.311 88.9313 282.356 89.2002C282.407 89.4645 282.477 89.6947 282.568 89.8906V90H280.88C280.802 89.8223 280.741 89.5967 280.695 89.3232C280.654 89.0452 280.634 88.7764 280.634 88.5166ZM280.873 85.502L280.887 86.5205H279.704C279.399 86.5205 279.13 86.5501 278.897 86.6094C278.665 86.6641 278.471 86.7461 278.316 86.8555C278.161 86.9648 278.045 87.097 277.968 87.252C277.89 87.4069 277.852 87.5824 277.852 87.7783C277.852 87.9743 277.897 88.1543 277.988 88.3184C278.079 88.4779 278.212 88.6032 278.385 88.6943C278.562 88.7855 278.777 88.8311 279.027 88.8311C279.365 88.8311 279.659 88.7627 279.909 88.626C280.164 88.4847 280.365 88.3138 280.511 88.1133C280.657 87.9082 280.734 87.7145 280.743 87.5322L281.276 88.2637C281.222 88.4505 281.128 88.651 280.996 88.8652C280.864 89.0794 280.691 89.2845 280.477 89.4805C280.267 89.6719 280.014 89.8291 279.718 89.9521C279.426 90.0752 279.089 90.1367 278.706 90.1367C278.223 90.1367 277.792 90.041 277.414 89.8496C277.036 89.6536 276.74 89.3916 276.525 89.0635C276.311 88.7308 276.204 88.3548 276.204 87.9355C276.204 87.5436 276.277 87.1973 276.423 86.8965C276.573 86.5911 276.792 86.3359 277.079 86.1309C277.371 85.9258 277.726 85.7708 278.146 85.666C278.565 85.5566 279.043 85.502 279.581 85.502H280.873ZM287.032 88.8242C287.301 88.8242 287.543 88.7718 287.757 88.667C287.976 88.5576 288.151 88.4072 288.283 88.2158C288.42 88.0244 288.495 87.8034 288.509 87.5527H290.061C290.051 88.0312 289.91 88.4665 289.637 88.8584C289.363 89.2503 289.001 89.5625 288.55 89.7949C288.099 90.0228 287.6 90.1367 287.053 90.1367C286.488 90.1367 285.995 90.041 285.576 89.8496C285.157 89.6536 284.808 89.3848 284.53 89.043C284.252 88.7012 284.043 88.307 283.901 87.8604C283.765 87.4137 283.696 86.9352 283.696 86.4248V86.1855C283.696 85.6751 283.765 85.1966 283.901 84.75C284.043 84.2988 284.252 83.9023 284.53 83.5605C284.808 83.2188 285.157 82.9521 285.576 82.7607C285.995 82.5648 286.485 82.4668 287.046 82.4668C287.638 82.4668 288.158 82.5853 288.604 82.8223C289.051 83.0547 289.402 83.3805 289.657 83.7998C289.917 84.2145 290.051 84.6976 290.061 85.249H288.509C288.495 84.9756 288.427 84.7295 288.304 84.5107C288.185 84.2874 288.017 84.1097 287.798 83.9775C287.584 83.8454 287.326 83.7793 287.025 83.7793C286.693 83.7793 286.417 83.8477 286.198 83.9844C285.979 84.1165 285.809 84.2988 285.686 84.5312C285.562 84.7591 285.474 85.0166 285.419 85.3037C285.369 85.5863 285.344 85.8802 285.344 86.1855V86.4248C285.344 86.7301 285.369 87.0264 285.419 87.3135C285.469 87.6006 285.556 87.8581 285.679 88.0859C285.806 88.3092 285.979 88.4893 286.198 88.626C286.417 88.7581 286.695 88.8242 287.032 88.8242ZM294.716 82.6035V83.8066H290.546V82.6035H294.716ZM291.749 80.792H293.396V87.9561C293.396 88.1839 293.428 88.3594 293.492 88.4824C293.561 88.6009 293.654 88.6807 293.772 88.7217C293.891 88.7627 294.03 88.7832 294.189 88.7832C294.303 88.7832 294.413 88.7764 294.518 88.7627C294.622 88.749 294.707 88.7354 294.771 88.7217L294.777 89.9795C294.641 90.0205 294.481 90.057 294.299 90.0889C294.121 90.1208 293.916 90.1367 293.684 90.1367C293.305 90.1367 292.97 90.0706 292.679 89.9385C292.387 89.8018 292.159 89.5807 291.995 89.2754C291.831 88.9701 291.749 88.5645 291.749 88.0586V80.792ZM297.751 82.6035V90H296.097V82.6035H297.751ZM295.987 80.6621C295.987 80.4115 296.069 80.2041 296.233 80.04C296.402 79.8714 296.634 79.7871 296.931 79.7871C297.222 79.7871 297.452 79.8714 297.621 80.04C297.79 80.2041 297.874 80.4115 297.874 80.6621C297.874 80.9082 297.79 81.1133 297.621 81.2773C297.452 81.4414 297.222 81.5234 296.931 81.5234C296.634 81.5234 296.402 81.4414 296.233 81.2773C296.069 81.1133 295.987 80.9082 295.987 80.6621ZM302.577 88.8242C302.846 88.8242 303.088 88.7718 303.302 88.667C303.521 88.5576 303.696 88.4072 303.828 88.2158C303.965 88.0244 304.04 87.8034 304.054 87.5527H305.605C305.596 88.0312 305.455 88.4665 305.182 88.8584C304.908 89.2503 304.546 89.5625 304.095 89.7949C303.644 90.0228 303.145 90.1367 302.598 90.1367C302.033 90.1367 301.54 90.041 301.121 89.8496C300.702 89.6536 300.353 89.3848 300.075 89.043C299.797 88.7012 299.588 88.307 299.446 87.8604C299.31 87.4137 299.241 86.9352 299.241 86.4248V86.1855C299.241 85.6751 299.31 85.1966 299.446 84.75C299.588 84.2988 299.797 83.9023 300.075 83.5605C300.353 83.2188 300.702 82.9521 301.121 82.7607C301.54 82.5648 302.03 82.4668 302.591 82.4668C303.183 82.4668 303.703 82.5853 304.149 82.8223C304.596 83.0547 304.947 83.3805 305.202 83.7998C305.462 84.2145 305.596 84.6976 305.605 85.249H304.054C304.04 84.9756 303.972 84.7295 303.849 84.5107C303.73 84.2874 303.562 84.1097 303.343 83.9775C303.129 83.8454 302.871 83.7793 302.57 83.7793C302.238 83.7793 301.962 83.8477 301.743 83.9844C301.524 84.1165 301.354 84.2988 301.23 84.5312C301.107 84.7591 301.019 85.0166 300.964 85.3037C300.914 85.5863 300.889 85.8802 300.889 86.1855V86.4248C300.889 86.7301 300.914 87.0264 300.964 87.3135C301.014 87.6006 301.101 87.8581 301.224 88.0859C301.351 88.3092 301.524 88.4893 301.743 88.626C301.962 88.7581 302.24 88.8242 302.577 88.8242ZM310.131 90.1367C309.584 90.1367 309.09 90.0479 308.647 89.8701C308.21 89.6878 307.836 89.4349 307.526 89.1113C307.221 88.7878 306.986 88.4072 306.822 87.9697C306.658 87.5322 306.576 87.0605 306.576 86.5547V86.2812C306.576 85.7025 306.66 85.1784 306.829 84.709C306.998 84.2396 307.232 83.8385 307.533 83.5059C307.834 83.1686 308.189 82.9111 308.6 82.7334C309.01 82.5557 309.454 82.4668 309.933 82.4668C310.461 82.4668 310.924 82.5557 311.32 82.7334C311.717 82.9111 312.045 83.1618 312.305 83.4854C312.569 83.8044 312.765 84.1849 312.893 84.627C313.025 85.069 313.091 85.5566 313.091 86.0898V86.7939H307.376V85.6113H311.464V85.4814C311.455 85.1852 311.396 84.9072 311.286 84.6475C311.181 84.3877 311.02 84.1781 310.801 84.0186C310.582 83.859 310.29 83.7793 309.926 83.7793C309.652 83.7793 309.409 83.8385 309.194 83.957C308.985 84.071 308.809 84.2373 308.668 84.4561C308.527 84.6748 308.417 84.9391 308.34 85.249C308.267 85.5544 308.23 85.8984 308.23 86.2812V86.5547C308.23 86.8783 308.274 87.179 308.36 87.457C308.451 87.7305 308.584 87.9697 308.757 88.1748C308.93 88.3799 309.14 88.5417 309.386 88.6602C309.632 88.7741 309.912 88.8311 310.227 88.8311C310.623 88.8311 310.976 88.7513 311.286 88.5918C311.596 88.4323 311.865 88.2067 312.093 87.915L312.961 88.7559C312.801 88.9883 312.594 89.2116 312.339 89.4258C312.084 89.6354 311.771 89.8063 311.402 89.9385C311.038 90.0706 310.614 90.1367 310.131 90.1367ZM318.525 87.9971C318.525 87.833 318.484 87.6849 318.402 87.5527C318.32 87.416 318.163 87.293 317.931 87.1836C317.703 87.0742 317.366 86.974 316.919 86.8828C316.527 86.7962 316.167 86.6937 315.839 86.5752C315.515 86.4521 315.237 86.304 315.005 86.1309C314.772 85.9577 314.592 85.7526 314.465 85.5156C314.337 85.2786 314.273 85.0052 314.273 84.6953C314.273 84.3945 314.34 84.1097 314.472 83.8408C314.604 83.5719 314.793 83.335 315.039 83.1299C315.285 82.9248 315.584 82.763 315.935 82.6445C316.29 82.526 316.687 82.4668 317.124 82.4668C317.744 82.4668 318.275 82.5716 318.717 82.7812C319.163 82.9863 319.505 83.2666 319.742 83.6221C319.979 83.973 320.098 84.3695 320.098 84.8115H318.45C318.45 84.6156 318.4 84.4333 318.3 84.2646C318.204 84.0915 318.058 83.9525 317.862 83.8477C317.666 83.7383 317.42 83.6836 317.124 83.6836C316.841 83.6836 316.607 83.7292 316.42 83.8203C316.238 83.9069 316.101 84.0208 316.01 84.1621C315.923 84.3034 315.88 84.4583 315.88 84.627C315.88 84.75 315.903 84.8617 315.948 84.9619C315.998 85.0576 316.08 85.1465 316.194 85.2285C316.308 85.306 316.463 85.3789 316.659 85.4473C316.86 85.5156 317.11 85.5817 317.411 85.6455C317.976 85.764 318.462 85.9167 318.867 86.1035C319.277 86.2858 319.592 86.5228 319.811 86.8145C320.029 87.1016 320.139 87.4661 320.139 87.9082C320.139 88.2363 320.068 88.5371 319.927 88.8105C319.79 89.0794 319.59 89.3141 319.325 89.5146C319.061 89.7106 318.744 89.8633 318.375 89.9727C318.01 90.082 317.6 90.1367 317.145 90.1367C316.475 90.1367 315.907 90.0182 315.442 89.7812C314.978 89.5397 314.624 89.2321 314.383 88.8584C314.146 88.4801 314.027 88.0882 314.027 87.6826H315.62C315.638 87.988 315.723 88.2318 315.873 88.4141C316.028 88.5918 316.219 88.7217 316.447 88.8037C316.68 88.8812 316.919 88.9199 317.165 88.9199C317.461 88.9199 317.71 88.8812 317.91 88.8037C318.111 88.7217 318.263 88.6123 318.368 88.4756C318.473 88.3343 318.525 88.1748 318.525 87.9971Z" fill="#46444B"/>
<rect x="359.5" y="2" width="62" height="62" rx="31" fill="#E5FAEF"/>
<rect x="359.5" y="2" width="62" height="62" rx="31" stroke="#00CC66" stroke-width="4"/>
<path d="M375.406 42V27.375L375.957 27.9258L371.891 29.7539V26.9766L377.305 24.7266H378.172V42H375.406ZM371.621 42V39.5039H381.266V42H371.621ZM389.762 42.1875C388.566 42.1875 387.547 41.8984 386.703 41.3203C385.859 40.7344 385.215 39.8633 384.77 38.707C384.324 37.5508 384.102 36.1172 384.102 34.4062V32.4023C384.102 30.6758 384.324 29.2305 384.77 28.0664C385.215 26.9023 385.859 26.0234 386.703 25.4297C387.547 24.8359 388.566 24.5391 389.762 24.5391C390.957 24.5391 391.973 24.8359 392.809 25.4297C393.652 26.0234 394.293 26.9023 394.73 28.0664C395.176 29.2305 395.398 30.6758 395.398 32.4023V34.4062C395.398 36.1172 395.176 37.5508 394.73 38.707C394.293 39.8633 393.652 40.7344 392.809 41.3203C391.973 41.8984 390.957 42.1875 389.762 42.1875ZM389.762 39.6445C390.371 39.6445 390.887 39.4648 391.309 39.1055C391.738 38.7383 392.062 38.1992 392.281 37.4883C392.508 36.7695 392.621 35.8789 392.621 34.8164V31.9453C392.621 30.875 392.508 29.9805 392.281 29.2617C392.062 28.543 391.738 28 391.309 27.6328C390.887 27.2656 390.371 27.082 389.762 27.082C389.152 27.082 388.633 27.2656 388.203 27.6328C387.781 27.9922 387.453 28.5312 387.219 29.25C386.992 29.9688 386.879 30.8672 386.879 31.9453V34.8164C386.879 35.8711 386.992 36.7578 387.219 37.4766C387.445 38.1953 387.773 38.7383 388.203 39.1055C388.633 39.4648 389.152 39.6445 389.762 39.6445ZM386.34 37.7578L385.203 35.8359L393.207 28.9922L394.273 30.8672L386.34 37.7578ZM403.262 42.1875C402.066 42.1875 401.047 41.8984 400.203 41.3203C399.359 40.7344 398.715 39.8633 398.27 38.707C397.824 37.5508 397.602 36.1172 397.602 34.4062V32.4023C397.602 30.6758 397.824 29.2305 398.27 28.0664C398.715 26.9023 399.359 26.0234 400.203 25.4297C401.047 24.8359 402.066 24.5391 403.262 24.5391C404.457 24.5391 405.473 24.8359 406.309 25.4297C407.152 26.0234 407.793 26.9023 408.23 28.0664C408.676 29.2305 408.898 30.6758 408.898 32.4023V34.4062C408.898 36.1172 408.676 37.5508 408.23 38.707C407.793 39.8633 407.152 40.7344 406.309 41.3203C405.473 41.8984 404.457 42.1875 403.262 42.1875ZM403.262 39.6445C403.871 39.6445 404.387 39.4648 404.809 39.1055C405.238 38.7383 405.562 38.1992 405.781 37.4883C406.008 36.7695 406.121 35.8789 406.121 34.8164V31.9453C406.121 30.875 406.008 29.9805 405.781 29.2617C405.562 28.543 405.238 28 404.809 27.6328C404.387 27.2656 403.871 27.082 403.262 27.082C402.652 27.082 402.133 27.2656 401.703 27.6328C401.281 27.9922 400.953 28.5312 400.719 29.25C400.492 29.9688 400.379 30.8672 400.379 31.9453V34.8164C400.379 35.8711 400.492 36.7578 400.719 37.4766C400.945 38.1953 401.273 38.7383 401.703 39.1055C402.133 39.4648 402.652 39.6445 403.262 39.6445ZM399.84 37.7578L398.703 35.8359L406.707 28.9922L407.773 30.8672L399.84 37.7578Z" fill="#008800"/>
<path d="M383.726 87.4365C383.726 87.2314 383.694 87.0492 383.63 86.8896C383.571 86.7301 383.464 86.5843 383.309 86.4521C383.154 86.32 382.935 86.1924 382.652 86.0693C382.374 85.9417 382.019 85.8118 381.586 85.6797C381.112 85.5339 380.674 85.3721 380.273 85.1943C379.877 85.012 379.531 84.8024 379.234 84.5654C378.938 84.3239 378.708 84.0482 378.544 83.7383C378.38 83.4238 378.298 83.0615 378.298 82.6514C378.298 82.2458 378.382 81.8766 378.551 81.5439C378.724 81.2113 378.968 80.9242 379.282 80.6826C379.601 80.4365 379.977 80.2474 380.41 80.1152C380.843 79.9785 381.322 79.9102 381.846 79.9102C382.584 79.9102 383.22 80.0469 383.753 80.3203C384.291 80.5938 384.703 80.9606 384.99 81.4209C385.282 81.8812 385.428 82.3893 385.428 82.9453H383.726C383.726 82.6172 383.655 82.3278 383.514 82.0771C383.377 81.8219 383.167 81.6214 382.885 81.4756C382.607 81.3298 382.254 81.2568 381.825 81.2568C381.42 81.2568 381.082 81.3184 380.813 81.4414C380.545 81.5645 380.344 81.7308 380.212 81.9404C380.08 82.1501 380.014 82.387 380.014 82.6514C380.014 82.8382 380.057 83.0091 380.144 83.1641C380.23 83.3145 380.362 83.4557 380.54 83.5879C380.718 83.7155 380.941 83.8363 381.21 83.9502C381.479 84.0641 381.796 84.1735 382.16 84.2783C382.712 84.4424 383.192 84.6247 383.603 84.8252C384.013 85.0212 384.354 85.2445 384.628 85.4951C384.901 85.7458 385.106 86.0306 385.243 86.3496C385.38 86.6641 385.448 87.0218 385.448 87.4229C385.448 87.8421 385.364 88.2204 385.195 88.5576C385.027 88.8903 384.785 89.1751 384.471 89.4121C384.161 89.6445 383.787 89.8245 383.35 89.9521C382.917 90.0752 382.434 90.1367 381.9 90.1367C381.422 90.1367 380.95 90.0729 380.485 89.9453C380.025 89.8177 379.606 89.624 379.228 89.3643C378.849 89.0999 378.549 88.7718 378.325 88.3799C378.102 87.9834 377.99 87.5208 377.99 86.9922H379.706C379.706 87.3158 379.761 87.5915 379.87 87.8193C379.984 88.0472 380.141 88.234 380.342 88.3799C380.542 88.5212 380.775 88.626 381.039 88.6943C381.308 88.7627 381.595 88.7969 381.9 88.7969C382.301 88.7969 382.636 88.7399 382.905 88.626C383.179 88.512 383.384 88.3525 383.521 88.1475C383.657 87.9424 383.726 87.7054 383.726 87.4365ZM393.48 88.6396V90H388.196V88.6396H393.48ZM388.682 80.0469V90H386.966V80.0469H388.682ZM392.79 84.2031V85.543H388.196V84.2031H392.79ZM393.446 80.0469V81.4141H388.196V80.0469H393.446ZM402.818 84.75V85.2969C402.818 86.0488 402.72 86.7233 402.524 87.3203C402.328 87.9173 402.048 88.4255 401.684 88.8447C401.324 89.264 400.891 89.5853 400.385 89.8086C399.879 90.0273 399.318 90.1367 398.703 90.1367C398.092 90.1367 397.534 90.0273 397.028 89.8086C396.527 89.5853 396.092 89.264 395.723 88.8447C395.354 88.4255 395.066 87.9173 394.861 87.3203C394.661 86.7233 394.561 86.0488 394.561 85.2969V84.75C394.561 83.998 394.661 83.3258 394.861 82.7334C395.062 82.1364 395.344 81.6283 395.709 81.209C396.078 80.7852 396.513 80.4639 397.015 80.2451C397.521 80.0218 398.079 79.9102 398.689 79.9102C399.305 79.9102 399.865 80.0218 400.371 80.2451C400.877 80.4639 401.312 80.7852 401.677 81.209C402.041 81.6283 402.322 82.1364 402.518 82.7334C402.718 83.3258 402.818 83.998 402.818 84.75ZM401.103 85.2969V84.7363C401.103 84.1803 401.048 83.6904 400.938 83.2666C400.834 82.8382 400.676 82.4805 400.467 82.1934C400.262 81.9017 400.009 81.6829 399.708 81.5371C399.407 81.3867 399.068 81.3115 398.689 81.3115C398.311 81.3115 397.974 81.3867 397.678 81.5371C397.382 81.6829 397.129 81.9017 396.919 82.1934C396.714 82.4805 396.557 82.8382 396.447 83.2666C396.338 83.6904 396.283 84.1803 396.283 84.7363V85.2969C396.283 85.8529 396.338 86.3451 396.447 86.7734C396.557 87.2018 396.716 87.5641 396.926 87.8604C397.14 88.152 397.395 88.373 397.691 88.5234C397.988 88.6693 398.325 88.7422 398.703 88.7422C399.086 88.7422 399.425 88.6693 399.722 88.5234C400.018 88.373 400.269 88.152 400.474 87.8604C400.679 87.5641 400.834 87.2018 400.938 86.7734C401.048 86.3451 401.103 85.8529 401.103 85.2969Z" fill="#46444B"/>
</svg>
