<svg width="100" height="80" viewBox="0 0 100 80" fill="none" xmlns="http://www.w3.org/2000/svg">
<path d="M32.5456 33.4332C32.5456 34.421 32.652 35.2219 32.8383 35.8092C33.0511 36.3966 33.3172 37.0373 33.6897 37.7314C33.8227 37.945 33.8759 38.1586 33.8759 38.3455C33.8759 38.6124 33.7163 38.8794 33.3704 39.1464L31.6941 40.2676C31.4547 40.4278 31.2152 40.5079 31.0024 40.5079C30.7363 40.5079 30.4702 40.3744 30.2041 40.1342C29.8316 39.7337 29.5124 39.3065 29.2463 38.8794C28.9802 38.4255 28.7141 37.9183 28.4215 37.3043C26.3461 39.7604 23.7386 40.9885 20.599 40.9885C18.364 40.9885 16.5813 40.3477 15.2775 39.0663C13.9738 37.7848 13.3086 36.0762 13.3086 33.9404C13.3086 31.6712 14.1068 29.8291 15.7298 28.4408C17.3529 27.0526 19.5081 26.3585 22.2486 26.3585C23.1532 26.3585 24.0845 26.4386 25.069 26.572C26.0534 26.7055 27.0645 26.9191 28.1288 27.1594V25.2105C28.1288 23.1815 27.7031 21.7666 26.8782 20.939C26.0268 20.1113 24.59 19.7109 22.5413 19.7109C21.61 19.7109 20.6522 19.8177 19.6677 20.058C18.6832 20.2982 17.7254 20.5919 16.7941 20.9657C16.3684 21.1525 16.0491 21.2593 15.8629 21.3127C15.6766 21.3661 15.5436 21.3928 15.4372 21.3928C15.0647 21.3928 14.8784 21.1258 14.8784 20.5652V19.257C14.8784 18.8299 14.9316 18.5095 15.0647 18.3226C15.1977 18.1358 15.4372 17.9489 15.8097 17.762C16.7409 17.2815 17.8584 16.881 19.1622 16.5606C20.4659 16.2136 21.8495 16.0534 23.3129 16.0534C26.4791 16.0534 28.794 16.7742 30.284 18.2159C31.7474 19.6575 32.4924 21.8467 32.4924 24.7833V33.4332H32.5456ZM21.7431 37.4911C22.6211 37.4911 23.5257 37.331 24.4836 37.0106C25.4415 36.6902 26.2929 36.1029 27.0113 35.302C27.437 34.7947 27.7563 34.2341 27.9159 33.5934C28.0756 32.9526 28.182 32.1784 28.182 31.2707V30.1494C27.4104 29.9626 26.5856 29.8024 25.7341 29.6956C24.8827 29.5888 24.0579 29.5354 23.2331 29.5354C21.4504 29.5354 20.1466 29.8825 19.2686 30.6033C18.3906 31.3241 17.9648 32.3386 17.9648 33.6735C17.9648 34.9282 18.2841 35.8626 18.9493 36.5034C19.5879 37.1708 20.5191 37.4911 21.7431 37.4911ZM43.1086 40.3744C42.6297 40.3744 42.3104 40.2943 42.0975 40.1075C41.8847 39.9473 41.6984 39.5735 41.5388 39.0663L35.2861 18.4294C35.1265 17.8955 35.0466 17.5484 35.0466 17.3616C35.0466 16.9344 35.2595 16.6941 35.6852 16.6941H38.2927C38.7983 16.6941 39.1442 16.7742 39.3304 16.9611C39.5433 17.1213 39.7029 17.495 39.8625 18.0023L44.3325 35.6757L48.4833 18.0023C48.6163 17.4683 48.7759 17.1213 48.9888 16.9611C49.2017 16.8009 49.5742 16.6941 50.0531 16.6941H52.1817C52.6872 16.6941 53.0331 16.7742 53.2459 16.9611C53.4588 17.1213 53.6451 17.495 53.7515 18.0023L57.9554 35.8893L62.5585 18.0023C62.7181 17.4683 62.9043 17.1213 63.0906 16.9611C63.3035 16.8009 63.6493 16.6941 64.1283 16.6941H66.6027C67.0285 16.6941 67.2679 16.9077 67.2679 17.3616C67.2679 17.495 67.2413 17.6285 67.2147 17.7887C67.1881 17.9489 67.1349 18.1625 67.0285 18.4561L60.6161 39.093C60.4565 39.6269 60.2702 39.974 60.0574 40.1342C59.8445 40.2943 59.4986 40.4011 59.0463 40.4011H56.7581C56.2526 40.4011 55.9067 40.321 55.6938 40.1342C55.4809 39.9473 55.2947 39.6002 55.1883 39.0663L51.0642 21.8467L46.9667 39.0396C46.8336 39.5735 46.674 39.9206 46.4611 40.1075C46.2483 40.2943 45.8758 40.3744 45.3968 40.3744H43.1086ZM77.2988 41.0952C75.9153 41.0952 74.5317 40.9351 73.2013 40.6147C71.871 40.2943 70.8333 39.9473 70.1415 39.5468C69.7158 39.3065 69.4231 39.0396 69.3167 38.7993C69.2102 38.559 69.157 38.2921 69.157 38.0518V36.6902C69.157 36.1296 69.3699 35.8626 69.769 35.8626C69.9286 35.8626 70.0883 35.8893 70.2479 35.9427C70.4076 35.9961 70.647 36.1029 70.9131 36.2097C71.8177 36.6101 72.8022 36.9305 73.8399 37.1441C74.9042 37.3577 75.9419 37.4644 77.0061 37.4644C78.6824 37.4644 79.9861 37.1708 80.8908 36.5834C81.7954 35.9961 82.2744 35.1418 82.2744 34.0472C82.2744 33.2997 82.0349 32.6857 81.556 32.1784C81.077 31.6712 80.1724 31.2173 78.8686 30.7902L75.0106 29.5888C73.0683 28.9748 71.6315 28.0671 70.7535 26.8657C69.8754 25.691 69.4231 24.3829 69.4231 22.9946C69.4231 21.8734 69.6626 20.8856 70.1415 20.0313C70.6204 19.177 71.259 18.4294 72.0572 17.8421C72.8554 17.2281 73.7601 16.7742 74.8244 16.4539C75.8886 16.1335 77.0061 16 78.1769 16C78.7622 16 79.3742 16.0267 79.9595 16.1068C80.5715 16.1869 81.1303 16.2937 81.689 16.4005C82.2212 16.5339 82.7267 16.6674 83.2056 16.8276C83.6845 16.9878 84.057 17.148 84.3231 17.3082C84.6956 17.5217 84.9617 17.7353 85.1213 17.9756C85.281 18.1892 85.3608 18.4828 85.3608 18.8566V20.1113C85.3608 20.672 85.1479 20.9657 84.7488 20.9657C84.536 20.9657 84.1901 20.8589 83.7378 20.6453C82.2211 19.9512 80.5183 19.6041 78.6292 19.6041C77.1126 19.6041 75.9153 19.8444 75.0904 20.3516C74.2656 20.8589 73.8399 21.6331 73.8399 22.7277C73.8399 23.4752 74.106 24.1159 74.6381 24.6232C75.1703 25.1304 76.1547 25.6376 77.5649 26.0915L81.3431 27.2929C83.2588 27.9069 84.6424 28.7612 85.4672 29.8558C86.292 30.9504 86.6912 32.2051 86.6912 33.5934C86.6912 34.7413 86.4517 35.7825 85.9994 36.6902C85.5204 37.5979 84.8819 38.3988 84.057 39.0396C83.2322 39.707 82.2478 40.1875 81.1036 40.5346C79.9063 40.9084 78.6558 41.0952 77.2988 41.0952Z" fill="#252F3E"/>
<path fill-rule="evenodd" clip-rule="evenodd" d="M82.3268 54.0687C73.573 60.5561 60.8548 64 49.9193 64C34.5935 64 20.7844 58.3135 10.3544 48.8628C9.52959 48.1153 10.2746 47.1008 11.2591 47.6881C22.5405 54.2556 36.456 58.2335 50.8505 58.2335C60.5621 58.2335 71.2316 56.2045 81.0496 52.0397C82.513 51.3723 83.7636 53.0008 82.3268 54.0687Z" fill="#FF9900"/>
<path fill-rule="evenodd" clip-rule="evenodd" d="M85.9735 49.9047C84.856 48.4631 78.5767 49.2106 75.7298 49.5577C74.8783 49.6645 74.7453 48.9169 75.5169 48.3563C80.5191 44.8323 88.7407 45.8468 89.6985 47.0215C90.6564 48.2228 89.4325 56.4722 84.7496 60.4234C84.0312 61.0374 83.3394 60.7171 83.6587 59.9161C84.723 57.2731 87.091 51.3197 85.9735 49.9047Z" fill="#FF9900"/>
</svg>
