<svg width="144" height="80" viewBox="0 0 144 80" fill="none" xmlns="http://www.w3.org/2000/svg">
<path d="M79.5725 16V44.9796C79.5725 50.6694 80.9772 53.2662 87.0995 53.2662C88.5495 53.2662 90.5419 52.8932 92.0462 52.5712L91.0786 46.7635C90.0606 46.9782 89.1705 46.9523 88.5263 46.9682C85.8489 47.034 86.0802 46.1544 86.0802 43.631V32.7224H91.1765V27.8883H86.0802V16H79.5725ZM100.896 16L94.3881 16.0009L94.389 20.9261V53.2664H104.107V48.325H100.896L100.896 16ZM21.1615 16.0002C14.4492 16.0002 13.3036 18.2834 13.3036 23.5448V27.8885L10 28.4315V32.7224H13.3036V48.325H10.0002V53.267L23.0807 53.2656V48.3251H19.8114V32.7224H24.7216V27.8883H19.8114V24.1294C19.8114 21.8198 20.4093 21.584 22.7741 21.584C23.4182 21.584 23.9237 21.6126 24.9426 21.774L25.8343 16.4851C24.3298 16.2141 22.6113 16.0002 21.1615 16.0002ZM34.8172 22.8476V24.4997H35.6111V26.7461H35.6563C29.4321 27.8914 24.7152 33.3394 24.7152 39.8923C24.7152 47.2772 30.7043 53.2639 38.0923 53.2639C40.6137 53.2639 42.9717 52.5656 44.9847 51.3534L46.1571 53.2664H53.031V46.7635H51.4756L51.4712 26.5208H44.9637V28.4192C43.6233 27.6155 42.1303 27.0407 40.539 26.7461H40.5758V24.4997H41.3698V22.8476H34.8172ZM66.0614 26.4786C59.952 26.4786 56.2834 28.6295 56.2834 34.1124C56.2834 39.9049 60.8109 41.8517 66.5157 42.8261C69.5437 43.4399 70.4702 44.0551 70.4702 45.336C70.4702 46.259 69.9475 47.9951 66.7172 47.9951C65.5564 47.9951 63.3328 48.0361 61.2121 47.6267L61.215 46.7635H56.287V51.6214C59.3136 52.3892 63.2803 53.2664 67.3684 53.2664C73.4778 53.2664 76.3802 50.3539 76.3802 44.7167C76.3802 38.7725 71.5638 37.6496 66.768 36.5734C63.487 35.8563 63.0667 35.1907 63.0667 33.9596C63.0667 33.0894 63.4361 31.484 66.4646 31.484C67.5251 31.484 69.4802 31.4891 71.449 31.8481V32.7135H76.3757V27.8884C73.3474 27.1202 70.2004 26.4786 66.0614 26.4786ZM120.578 27.8884V32.7179H123.779L119.054 44.3383L114.328 32.7179H117.536V27.8885H104.107V32.7179H107.316L115.656 53.2335C114.691 56.1848 111.604 57.8799 108.867 57.8799C108.276 57.8799 107.15 57.7741 106.291 57.6134L105.702 63.5174C107.042 63.8392 108.973 64 110.424 64C116.326 64 120.201 58.6478 122.56 52.9612L130.792 32.7177H134V27.8883L120.578 27.8884ZM38.482 33.0061C41.9077 33.1891 44.6672 35.8751 44.9654 39.2676V39.4912H44.1842V40.2705H44.9655V40.4839C44.669 43.878 41.9088 46.5657 38.482 46.7487V45.9841H37.7024V46.7467C34.2097 46.5433 31.4159 43.7382 31.2336 40.2412H32.0086V39.4619H31.2377C31.4448 35.9892 34.2271 33.2109 37.7024 33.0084V33.7748H38.482V33.0061ZM41.0126 36.4884L38.4974 38.6791C38.3705 38.6337 38.2348 38.6076 38.0929 38.6076C37.4142 38.6076 36.8648 39.173 36.8648 39.8697C36.8648 40.5672 37.4142 41.1324 38.0929 41.1324C38.7712 41.1324 39.322 40.5672 39.322 39.8697C39.322 39.7374 39.3019 39.61 39.2651 39.4901L41.5077 36.9836L41.0126 36.4884ZM131.505 48.3516C130.138 48.3516 129.037 49.4383 129.037 50.8055C129.037 52.1723 130.138 53.2588 131.505 53.2588C132.873 53.2588 133.981 52.1723 133.981 50.8055C133.981 49.4383 132.873 48.3516 131.505 48.3516ZM131.505 48.7654C132.641 48.7654 133.567 49.6694 133.567 50.8055C133.567 51.941 132.641 52.8731 131.505 52.8731C130.37 52.8731 129.45 51.9409 129.45 50.8055C129.45 49.6695 130.37 48.7654 131.505 48.7654ZM130.566 49.5992V52.0109H131.12V51.2819H131.463L131.961 52.0109H132.641L132.039 51.1836C132.347 51.0926 132.543 50.8259 132.543 50.434C132.543 49.9007 132.171 49.5992 131.575 49.5992H130.566ZM131.12 50.083H131.575C131.814 50.083 131.982 50.1817 131.982 50.4341C131.982 50.7 131.814 50.798 131.561 50.798H131.12V50.083Z" fill="#FF282D"/>
</svg>
