<svg width="20" height="20" viewBox="0 0 20 20" fill="none" xmlns="http://www.w3.org/2000/svg">
<path d="M20 9.99996C20 8.77676 19.78 7.605 19.378 6.52172L10 6.08691L0.621992 6.52168C0.220039 7.605 0 8.77676 0 9.99996C0 11.2232 0.220039 12.3949 0.621992 13.4782L10 13.913L19.378 13.4782C19.78 12.3949 20 11.2232 20 9.99996Z" fill="#0052B4"/>
<path d="M9.9991 20.0003C14.2987 20.0003 17.9642 17.2865 19.3771 13.4785L0.621094 13.4785C2.03402 17.2865 5.69945 20.0003 9.9991 20.0003Z" fill="#FF9811"/>
<path d="M0.621094 6.52176L19.3771 6.52176C17.9642 2.71375 14.2987 0 9.9991 0C5.69945 0 2.03402 2.71375 0.621094 6.52176V6.52176Z" fill="#D80027"/>
</svg>
