<svg width="20" height="20" viewBox="0 0 20 20" fill="none" xmlns="http://www.w3.org/2000/svg">
<path d="M10 20C15.5228 20 20 15.5228 20 10C20 4.47715 15.5228 0 10 0C4.47715 0 0 4.47715 0 10C0 15.5228 4.47715 20 10 20Z" fill="#F0F0F0"/>
<path d="M19.9154 8.69566H11.3044H11.3044L11.3044 0.0846484C10.8774 0.0290625 10.4421 0 10 0C9.55793 0 9.12262 0.0290625 8.69566 0.0846484L8.69566 8.69559V8.69563L0.0846484 8.69563C0.0290625 9.12262 0 9.55793 0 10C0 10.4421 0.0290625 10.8774 0.0846484 11.3043L8.69559 11.3043H8.69563V19.9154C9.12262 19.9709 9.55793 20 10 20C10.4421 20 10.8774 19.971 11.3043 19.9154V11.3044V11.3044H19.9154C19.9709 10.8774 20 10.4421 20 10C20 9.55793 19.9709 9.12262 19.9154 8.69566V8.69566Z" fill="#D80027"/>
<path d="M6.08527 4.78289V3.47852L4.78094 3.47852V4.78289H3.47656L3.47656 6.08723H4.78094V7.39156H6.08527V6.08723H7.38961V4.78289H6.08527Z" fill="#D80027"/>
<path d="M15.218 4.78289V3.47852L13.9137 3.47852V4.78289H12.6094V6.08723H13.9137V7.39156H15.218V6.08723H16.5224V4.78289H15.218Z" fill="#D80027"/>
<path d="M6.08527 13.9127V12.6084H4.78094V13.9127H3.47656L3.47656 15.2171H4.78094V16.5214H6.08527V15.2171H7.38961V13.9127H6.08527Z" fill="#D80027"/>
<path d="M15.218 13.9127V12.6084H13.9137V13.9127H12.6094V15.2171H13.9137V16.5214H15.218V15.2171H16.5224V13.9127H15.218Z" fill="#D80027"/>
</svg>
