<svg width="20" height="20" viewBox="0 0 20 20" fill="none" xmlns="http://www.w3.org/2000/svg">
<path d="M10 0C15.5228 0 20 4.47715 20 10C20 15.5228 15.5228 20 10 20C4.47715 20 0 15.5228 0 10C0 4.47715 4.47715 0 10 0Z" fill="#D80027"/>
<path d="M14.8904 10.0002L12.8921 9.06023L13.9562 7.1248L11.7862 7.54L11.5114 5.34797L9.99984 6.96008L8.48844 5.34797L8.21348 7.54L6.04363 7.12488L7.1077 9.06031L5.10938 10.0002L7.1077 10.94L6.04363 12.8755L8.2134 12.4603L8.48852 14.6523L9.99984 13.0402L11.5114 14.6523L11.7862 12.4603L13.9563 12.8755L12.8922 10.9399L14.8904 10.0002Z" fill="#FFDA44"/>
<path d="M10.0005 6.95699C11.6814 6.95699 13.044 8.3196 13.044 10.0005C13.044 11.6813 11.6814 13.0439 10.0005 13.0439C8.31964 13.0439 6.95703 11.6813 6.95703 10.0005C6.95703 8.3196 8.31964 6.95699 10.0005 6.95699Z" fill="#D80027"/>
<path d="M8.47887 10C8.40555 10 8.33316 9.99625 8.26172 9.98914C8.26434 9.56762 8.41684 9.1818 8.66871 8.88207C8.80309 9.24367 9.00371 9.5734 9.25672 9.85559C9.01508 9.94852 8.75293 10 8.47887 10Z" fill="#FFDA44"/>
<path d="M9.41406 8.36234C9.59687 8.29703 9.79371 8.26121 9.99902 8.26121C10.2043 8.26121 10.4012 8.29703 10.584 8.36234C10.4843 8.75344 10.2786 9.10258 9.99902 9.37695C9.71945 9.10262 9.51371 8.75344 9.41406 8.36234Z" fill="#FFDA44"/>
<path d="M11.5082 10.8694C11.2075 11.3892 10.6459 11.7393 10.0021 11.7393C9.3584 11.7393 8.7968 11.3892 8.49609 10.8694C9.0443 10.8666 9.55836 10.7176 10.0021 10.4602C10.4459 10.7176 10.9599 10.8666 11.5082 10.8694Z" fill="#FFDA44"/>
<path d="M10.7461 9.85559C10.9991 9.57344 11.1997 9.24371 11.3341 8.88207C11.586 9.1818 11.7385 9.56762 11.7411 9.98914C11.6696 9.99629 11.5972 10 11.5239 10C11.25 10 10.9878 9.94856 10.7461 9.85559V9.85559Z" fill="#FFDA44"/>
</svg>
