<svg width="20" height="20" viewBox="0 0 20 20" fill="none" xmlns="http://www.w3.org/2000/svg">
<path d="M19.378 13.4784C19.78 12.3951 20 11.2234 20 10.0002C20 8.77695 19.78 7.6052 19.378 6.52191L10 5.65234L0.621992 6.52191C0.22 7.6052 0 8.77695 0 10.0002C0 11.2234 0.22 12.3951 0.621992 13.4784L10 14.348L19.378 13.4784Z" fill="#6DA544"/>
<path d="M19.3771 6.52176C17.9642 2.71375 14.2987 0 9.9991 0C5.69945 0 2.03402 2.71375 0.621094 6.52176L19.3771 6.52176Z" fill="#FFDA44"/>
<path d="M9.9991 20.0003C14.2987 20.0003 17.9642 17.2865 19.3771 13.4785L0.621094 13.4785C2.03402 17.2865 5.69945 20.0003 9.9991 20.0003Z" fill="#D80027"/>
</svg>
