<svg width="20" height="20" viewBox="0 0 20 20" fill="none" xmlns="http://www.w3.org/2000/svg">
<path d="M14.3464 0.992266C13.0318 0.356563 11.5568 0 9.99863 0C8.44043 0 6.96551 0.356563 5.65082 0.992266L4.78125 10L5.65082 19.0077C6.96551 19.6434 8.44043 20 9.99863 20C11.5568 20 13.0318 19.6434 14.3464 19.0077L15.216 10L14.3464 0.992266Z" fill="#FFDA44"/>
<path d="M5.65219 0.992187C2.30727 2.60965 0 6.035 0 9.99957C0 13.9641 2.30727 17.3895 5.65219 19.007L5.65219 0.992187Z" fill="#0052B4"/>
<path d="M14.3477 0.992188L14.3477 19.007C17.6926 17.3895 19.9998 13.9641 19.9998 9.99957C19.9998 6.035 17.6926 2.60965 14.3477 0.992188Z" fill="#D80027"/>
<path d="M13.4799 7.8682H11.0886C11.0886 7.26789 10.602 6.78125 10.0017 6.78125C9.40137 6.78125 8.91473 7.26789 8.91473 7.8682H6.52344C6.52344 8.45926 7.03832 8.93836 7.6293 8.93836H7.59367C7.59367 9.52945 8.07281 10.0086 8.66391 10.0086C8.66391 10.532 9.03977 10.9668 9.53617 11.0598L8.69281 12.9637C9.09691 13.128 9.53855 13.2193 10.0017 13.2193C10.4648 13.2193 10.9064 13.128 11.3105 12.9637L10.4672 11.0598C10.9636 10.9668 11.3395 10.532 11.3395 10.0086C11.9305 10.0086 12.4097 9.52945 12.4097 8.93836H12.374C12.9651 8.93836 13.4799 8.45922 13.4799 7.8682V7.8682Z" fill="#FF9811"/>
<path d="M9.99898 9.34766L8.58594 9.99984V11.3042L9.99898 12.1738L11.412 11.3042V9.99984L9.99898 9.34766Z" fill="#0052B4"/>
<path d="M8.58594 8.69531H11.412V9.99965H8.58594V8.69531Z" fill="#D80027"/>
</svg>
