<svg width="20" height="20" viewBox="0 0 20 20" fill="none" xmlns="http://www.w3.org/2000/svg">
<path d="M10 0C15.5228 0 20 4.47715 20 10C20 15.5228 15.5228 20 10 20C4.47715 20 0 15.5228 0 10C0 4.47715 4.47715 0 10 0Z" fill="#F0F0F0"/>
<path d="M10 20C4.47719 20 0 15.5228 0 10C0 8.7768 0.220039 7.60504 0.621992 6.52176L19.378 6.52176C19.78 7.60504 20 8.7768 20 10C20 15.5228 15.5228 20 10 20Z" fill="#0052B4"/>
<path d="M9.9991 20C5.69945 20 2.03402 17.2862 0.621094 13.4782L19.3771 13.4782C17.9642 17.2862 14.2987 20 9.9991 20V20Z" fill="#D80027"/>
<path d="M2.58594 14.3477L2.58594 9.35914C2.58594 6.52148 6.29301 5.65199 6.29301 5.65199C6.29301 5.65199 10 6.52148 10 9.35914V14.3477L2.58594 14.3477Z" fill="#D80027"/>
<path d="M4.11719 13.4782H8.46504V15.2173L7.59547 14.7826L6.29113 16.0869L4.98676 14.7826L4.11719 15.2173V13.4782Z" fill="#FFDA44"/>
<path d="M9.12875 8.66512L6.30266 11.4912L3.47656 8.66512L4.39887 7.74281L6.30266 9.6466L8.20645 7.74281L9.12875 8.66512Z" fill="#FFDA44"/>
<path d="M9.12875 11.3041H7.81016C7.8843 11.4321 7.92742 11.5803 7.92742 11.7388C7.92742 12.2191 7.53809 12.6084 7.05785 12.6084C6.72602 12.6084 6.43785 12.4225 6.29125 12.1493C6.14465 12.4225 5.85648 12.6084 5.52465 12.6084C5.04441 12.6084 4.65508 12.2191 4.65508 11.7388C4.65508 11.5803 4.6982 11.4321 4.77234 11.3041H3.47656C3.47656 10.8239 3.89488 10.4346 4.37508 10.4346H4.34613C4.34613 9.9543 4.73543 9.565 5.2157 9.565C5.2157 9.13977 5.52109 8.78648 5.92441 8.71086L5.23926 7.16391C5.56762 7.03043 5.92645 6.95629 6.3027 6.95629C6.67895 6.95629 7.03777 7.03043 7.36613 7.16391L6.68098 8.71086C7.0843 8.78641 7.38969 9.13973 7.38969 9.565C7.86996 9.565 8.25926 9.9543 8.25926 10.4346H8.23031C8.71047 10.4346 9.12875 10.8239 9.12875 11.3041V11.3041Z" fill="#F0F0F0"/>
</svg>
