<svg width="20" height="20" viewBox="0 0 20 20" fill="none" xmlns="http://www.w3.org/2000/svg">
<path d="M0 9.99984C0 8.77664 0.220039 7.60492 0.621992 6.5216L10 5.65203L19.378 6.5216C19.78 7.60492 20 8.77664 20 9.99984C20 11.223 19.78 12.3948 19.378 13.4781L10 14.3477L0.621992 13.4781C0.220039 12.3948 0 11.223 0 9.99984H0Z" fill="#FFDA44"/>
<path d="M19.3771 13.4782C17.9642 17.2862 14.2987 20 9.9991 20C5.69945 20 2.03402 17.2862 0.621094 13.4782L19.3771 13.4782Z" fill="#D80027"/>
<path d="M0.621094 6.52148C2.03402 2.71352 5.69945 -0.000272844 9.9991 -0.000272844C14.2987 -0.000272844 17.9642 2.71352 19.3771 6.52148L0.621094 6.52148Z" fill="#D80027"/>
</svg>
