<svg width="20" height="20" viewBox="0 0 20 20" fill="none" xmlns="http://www.w3.org/2000/svg">
<path d="M10 0C15.5228 0 20 4.47715 20 10C20 15.5228 15.5228 20 10 20C4.47715 20 0 15.5228 0 10C0 4.47715 4.47715 0 10 0Z" fill="#F0F0F0"/>
<path d="M19.378 13.4785L0.621992 13.4785C0.22 12.3952 0 11.2235 0 10.0003C0 8.77707 0.22 7.60535 0.621992 6.52203L19.378 6.52203C19.78 7.60535 20 8.77707 20 10.0003C20 11.2235 19.78 12.3952 19.378 13.4785Z" fill="#0052B4"/>
<path d="M9.99848 20C6.96758 20 4.25184 18.6514 2.41797 16.5218H17.5789C15.7451 18.6514 13.0294 20 9.99848 20V20Z" fill="#D80027"/>
<path d="M17.579 3.47852L2.41797 3.47852C4.25184 1.34887 6.96758 0.000272803 9.99848 0.000272803C13.0294 0.000272803 15.7451 1.34887 17.579 3.47852Z" fill="#D80027"/>
</svg>
