<svg width="20" height="20" viewBox="0 0 20 20" fill="none" xmlns="http://www.w3.org/2000/svg">
<path d="M10 20C15.5228 20 20 15.5228 20 10C20 4.47715 15.5228 0 10 0C4.47715 0 0 4.47715 0 10C0 15.5228 4.47715 20 10 20Z" fill="#F0F0F0"/>
<path d="M9.56641 10.0003L20.0012 10.0003C20.0012 9.09773 19.8809 8.22336 19.6567 7.3916L9.56641 7.3916V10.0003Z" fill="#D80027"/>
<path d="M9.56641 4.78254L18.5334 4.78254C17.9213 3.78363 17.1386 2.9007 16.226 2.17383L9.56641 2.17383V4.78254Z" fill="#D80027"/>
<path d="M9.99828 20.0001C12.3518 20.0001 14.5149 19.1866 16.2231 17.8262H3.77344C5.48164 19.1866 7.6448 20.0001 9.99828 20.0001Z" fill="#D80027"/>
<path d="M1.46699 15.2171L18.5315 15.2171C19.023 14.4152 19.4041 13.5386 19.6548 12.6084L0.34375 12.6084C0.594414 13.5386 0.975547 14.4152 1.46699 15.2171V15.2171Z" fill="#D80027"/>
<path d="M4.63219 1.56164H5.54348L4.69582 2.17746L5.01961 3.17391L4.17199 2.55809L3.32437 3.17391L3.60406 2.31309C2.85773 2.93477 2.20359 3.66313 1.66453 4.47469H1.95652L1.41695 4.86668C1.33289 5.00691 1.25227 5.14937 1.175 5.29395L1.43266 6.08695L0.951953 5.7377C0.832461 5.99086 0.723164 6.24973 0.624922 6.51398L0.908789 7.38773H1.95652L1.10887 8.00355L1.43266 9L0.585039 8.38418L0.0773047 8.75309C0.0264844 9.1616 0 9.5777 0 10L10 10C10 4.47719 10 3.82609 10 0C8.02453 0 6.18301 0.573047 4.63219 1.56164V1.56164ZM5.01961 9L4.17199 8.38418L3.32437 9L3.64816 8.00355L2.80051 7.38773L3.84824 7.38773L4.17199 6.39129L4.49574 7.38773H5.54348L4.69582 8.00355L5.01961 9ZM4.69582 5.09051L5.01961 6.08695L4.17199 5.47113L3.32437 6.08695L3.64816 5.09051L2.80051 4.47469L3.84824 4.47469L4.17199 3.47824L4.49574 4.47469H5.54348L4.69582 5.09051ZM8.60656 9L7.75895 8.38418L6.91133 9L7.23512 8.00355L6.38746 7.38773H7.4352L7.75895 6.39129L8.0827 7.38773H9.13043L8.28277 8.00355L8.60656 9ZM8.28277 5.09051L8.60656 6.08695L7.75895 5.47113L6.91133 6.08695L7.23512 5.09051L6.38746 4.47469H7.4352L7.75895 3.47824L8.0827 4.47469H9.13043L8.28277 5.09051ZM8.28277 2.17746L8.60656 3.17391L7.75895 2.55809L6.91133 3.17391L7.23512 2.17746L6.38746 1.56164H7.4352L7.75895 0.565195L8.0827 1.56164L9.13043 1.56164L8.28277 2.17746Z" fill="#0052B4"/>
</svg>
