<svg width="20" height="20" viewBox="0 0 20 20" fill="none" xmlns="http://www.w3.org/2000/svg">
<path d="M0.472188 6.95629C0.165859 7.91598 -3.90556e-05 8.93836 6.89667e-09 9.99965C-3.90556e-05 11.061 0.165898 12.0834 0.472227 13.0431L10 13.478L19.5278 13.0432C19.8341 12.0835 20 11.061 20 9.99973C20 8.9384 19.8341 7.91598 19.5278 6.95625L10 6.52148L0.472188 6.95629Z" fill="#F0F0F0"/>
<path d="M19.5283 6.95625L10.0005 6.52148L0.472734 6.95625C0.381953 7.24078 0.303789 7.5309 0.238281 7.82582L19.7627 7.82582C19.6972 7.53086 19.6191 7.2407 19.5283 6.95625Z" fill="#D80027"/>
<path d="M0.238281 12.1738C0.303711 12.4688 0.381875 12.7588 0.472656 13.0434L0.473594 13.0434L10.0004 13.4782L19.5282 13.0434C19.6189 12.7589 19.6971 12.4688 19.7626 12.1738L0.238281 12.1738Z" fill="#D80027"/>
<path d="M10.0004 19.9995C14.462 19.9995 18.2405 17.0775 19.5282 13.043L0.472656 13.043C1.76035 17.0775 5.53894 19.9995 10.0004 19.9995V19.9995Z" fill="#6DA544"/>
<path d="M10.0004 3.91643e-10C5.53895 3.90629e-05 1.76043 2.92203 0.472656 6.95652L19.5282 6.95656C18.2405 2.92199 14.462 -3.90621e-05 10.0004 3.91643e-10V3.91643e-10Z" fill="#338AF3"/>
<path d="M4.56898 4.13031C4.56898 3.19371 5.22723 2.41129 6.10625 2.21934C5.97117 2.1898 5.83098 2.17383 5.68699 2.17383C4.60645 2.17383 3.73047 3.04977 3.73047 4.13035C3.73047 5.21094 4.60637 6.08688 5.68699 6.08688C5.83098 6.08688 5.97113 6.07086 6.10625 6.04137C5.22727 5.84934 4.56898 5.06691 4.56898 4.13031V4.13031Z" fill="#F0F0F0"/>
<path d="M7.26422 5.01953L7.39664 5.42715H7.82523L7.47852 5.6791L7.61094 6.08672L7.26422 5.8348L6.91742 6.08672L7.04988 5.6791L6.70312 5.42715H7.13172L7.26422 5.01953Z" fill="#F0F0F0"/>
<path d="M8.63133 5.01953L8.76379 5.42715H9.19238L8.84562 5.6791L8.97809 6.08672L8.63133 5.8348L8.28457 6.08672L8.41703 5.6791L8.07031 5.42715H8.49887L8.63133 5.01953Z" fill="#F0F0F0"/>
<path d="M9.99859 5.01953L10.131 5.42715H10.5596L10.2129 5.6791L10.3453 6.08672L9.99859 5.8348L9.6518 6.08672L9.7843 5.6791L9.4375 5.42715H9.86613L9.99859 5.01953Z" fill="#F0F0F0"/>
<path d="M11.3658 5.01953L11.4982 5.42715H11.9268L11.5801 5.6791L11.7125 6.08672L11.3658 5.8348L11.019 6.08672L11.1515 5.6791L10.8047 5.42715H11.2333L11.3658 5.01953Z" fill="#F0F0F0"/>
<path d="M12.7329 5.01953L12.8654 5.42715H13.2939L12.9472 5.6791L13.0797 6.08672L12.7329 5.8348L12.3861 6.08672L12.5186 5.6791L12.1719 5.42715H12.6004L12.7329 5.01953Z" fill="#F0F0F0"/>
<path d="M8.63133 3.59668L8.76379 4.00426H9.19238L8.84562 4.25625L8.97809 4.66383L8.63133 4.41191L8.28457 4.66383L8.41703 4.25625L8.07031 4.00426H8.49887L8.63133 3.59668Z" fill="#F0F0F0"/>
<path d="M9.99859 3.59668L10.131 4.00426H10.5596L10.2129 4.25625L10.3453 4.66383L9.99859 4.41191L9.6518 4.66383L9.7843 4.25625L9.4375 4.00426H9.86613L9.99859 3.59668Z" fill="#F0F0F0"/>
<path d="M11.3658 3.59668L11.4982 4.00426H11.9268L11.5801 4.25625L11.7125 4.66383L11.3658 4.41191L11.019 4.66383L11.1515 4.25625L10.8047 4.00426H11.2333L11.3658 3.59668Z" fill="#F0F0F0"/>
<path d="M12.7329 3.59668L12.8654 4.00426H13.2939L12.9472 4.25625L13.0797 4.66383L12.7329 4.41191L12.3861 4.66383L12.5186 4.25625L12.1719 4.00426H12.6004L12.7329 3.59668Z" fill="#F0F0F0"/>
<path d="M9.99859 2.17383L10.131 2.58148H10.5596L10.2129 2.8334L10.3453 3.24105L9.99859 2.98914L9.6518 3.24105L9.7843 2.8334L9.4375 2.58148H9.86613L9.99859 2.17383Z" fill="#F0F0F0"/>
<path d="M11.3658 2.17383L11.4982 2.58148H11.9268L11.5801 2.8334L11.7125 3.24105L11.3658 2.98914L11.019 3.24105L11.1515 2.8334L10.8047 2.58148H11.2333L11.3658 2.17383Z" fill="#F0F0F0"/>
<path d="M12.7329 2.17383L12.8654 2.58148H13.2939L12.9472 2.8334L13.0797 3.24105L12.7329 2.98914L12.3861 3.24105L12.5186 2.8334L12.1719 2.58148H12.6004L12.7329 2.17383Z" fill="#F0F0F0"/>
</svg>
