<svg width="40" height="40" viewBox="0 0 40 40" fill="none" xmlns="http://www.w3.org/2000/svg">
<path fill-rule="evenodd" clip-rule="evenodd" d="M7.21043 12.1625C9.07655 9.11728 11.968 6.83782 15.3648 5.73415C15.6021 5.65703 15.8409 5.586 16.0808 5.52106C15.9492 6.08323 15.8067 6.58393 15.6716 7.05855C15.5992 7.31297 15.5289 7.55989 15.4636 7.80477C15.2092 8.75853 15.0051 9.76336 15.356 10.8162C15.6439 11.6798 16.4258 12.0321 17.0096 12.1913C17.616 12.3567 18.3373 12.4055 18.9792 12.4363C19.142 12.4442 19.3011 12.4509 19.4567 12.4575C19.9575 12.4787 20.4216 12.4983 20.8552 12.5482C21.4418 12.6155 21.7803 12.7222 21.9452 12.8321C22.52 13.2153 22.7545 13.574 22.9833 13.9537C23.0017 13.9842 23.0207 14.0164 23.0406 14.0499C23.2731 14.4427 23.6176 15.0246 24.3575 15.3945C25.0179 15.7246 25.7842 15.8654 26.4552 15.9325C27.13 16 27.7961 16 28.2891 16H28.3047C28.3294 16 28.4477 16.0163 28.7048 16.1381C28.9488 16.2537 29.2174 16.4138 29.5402 16.6075L29.5611 16.6201C29.8588 16.7987 30.2068 17.0075 30.5484 17.1694C30.8851 17.3288 31.3293 17.5 31.8047 17.5C32.3484 17.5 32.8328 17.2432 33.1507 17.0508C33.4046 16.8971 33.679 16.7013 33.9156 16.5325C33.9909 16.4788 34.0624 16.4278 34.1282 16.3817C34.2657 16.2855 34.3868 16.2044 34.4943 16.1378C35.1319 18.531 35.1713 21.0616 34.5855 23.5017C33.7518 26.9745 31.7062 30.036 28.8168 32.1353C28.37 32.4599 28.2709 33.0853 28.5955 33.5321C28.9202 33.9789 29.5455 34.0779 29.9923 33.7533C33.267 31.3741 35.5853 27.9045 36.5303 23.9686C37.4752 20.0327 36.9847 15.8887 35.1471 12.2822C33.3095 8.67559 30.2452 5.84306 26.5056 4.29405C22.766 2.74504 18.5964 2.58122 14.7467 3.83204C10.8971 5.08287 7.62009 7.66625 5.50515 11.1175C3.39021 14.5688 2.57613 18.6615 3.20934 22.6594C3.84254 26.6573 5.88148 30.2981 8.95941 32.9269C12.0373 35.5557 15.9523 37 20 37C20.5523 37 21 36.5523 21 36C21 35.4477 20.5523 35 20 35C17.2708 35 14.61 34.2559 12.2949 32.8698C12.5754 32.3743 12.7476 31.878 12.8301 31.3831C12.9533 30.644 12.8665 29.9679 12.7201 29.3827C12.6071 28.9307 12.4451 28.4898 12.3133 28.1311C12.281 28.0431 12.2505 27.96 12.223 27.883C12.0648 27.4401 12 27.1829 12 27.0008C12 26.8746 12.0509 26.6764 12.2307 26.3458C12.3564 26.1148 12.4984 25.897 12.666 25.6399C12.7491 25.5126 12.8384 25.3756 12.9351 25.2226C13.4515 24.4059 14.136 23.2029 13.7748 21.7582C13.4493 20.456 12.5094 19.4121 11.6382 18.6748C10.7471 17.9207 9.79872 17.3795 9.2519 17.1061C8.82 16.8901 8.31458 16.8174 7.88039 16.7913C7.42612 16.7639 6.93882 16.7828 6.48365 16.8152C6.07851 16.844 5.67215 16.8858 5.31934 16.9215C5.66956 15.2514 6.30484 13.6403 7.21043 12.1625ZM5.18471 22.3465C5.74342 25.8741 7.54248 29.0866 10.2583 31.4061C10.3841 31.5135 10.5114 31.6187 10.6403 31.7216C10.7574 31.481 10.8232 31.2589 10.8574 31.0542C10.9217 30.6685 10.8835 30.2824 10.7799 29.8679C10.6954 29.5301 10.5816 29.2195 10.4545 28.8725C10.4172 28.7706 10.3787 28.6655 10.3395 28.5558C10.1852 28.1238 10 27.5687 10 27.0008C10 26.3769 10.2372 25.8251 10.4739 25.3901C10.6388 25.0868 10.8517 24.76 11.0408 24.4697C11.1136 24.3578 11.1829 24.2514 11.2446 24.1539C11.7556 23.3456 11.9734 22.7987 11.8345 22.2433C11.6601 21.5456 11.0999 20.8393 10.3462 20.2015C9.61231 19.5804 8.81065 19.1215 8.35747 18.8949C8.28937 18.8609 8.1073 18.8085 7.76024 18.7877C7.43325 18.768 7.04556 18.7802 6.62572 18.8101C6.27584 18.835 5.92703 18.8703 5.58848 18.9045L5.54783 18.9086C5.37614 18.926 5.20606 18.9432 5.03622 18.9584C4.95798 20.0822 5.00607 21.2186 5.18471 22.3465ZM33.3651 13.1901C31.7436 10.0079 29.0399 7.50858 25.7402 6.14181C23.3465 5.15027 20.753 4.80198 18.2125 5.10686C18.0199 6.11863 17.7765 6.97247 17.5778 7.66986C17.5109 7.90431 17.4492 8.12108 17.396 8.32023C17.1573 9.21524 17.1071 9.7081 17.2412 10.1455C17.2736 10.1681 17.3557 10.2127 17.5358 10.2618C17.9035 10.3621 18.4185 10.407 19.0753 10.4387C19.2089 10.4451 19.3486 10.451 19.4922 10.457C20.0064 10.4786 20.5708 10.5023 21.0835 10.5612C21.721 10.6345 22.4693 10.7778 23.0545 11.1679C23.9798 11.7847 24.3978 12.426 24.6963 12.9213C24.9897 13.4082 25.0548 13.507 25.2519 13.6056C25.5916 13.7754 26.0753 13.8846 26.6542 13.9425C27.2222 13.9993 27.799 14 28.3047 14C28.78 14 29.2243 14.1712 29.5609 14.3306C29.9026 14.4925 30.2506 14.7013 30.5482 14.8799L30.5692 14.8925C30.892 15.0862 31.1606 15.2463 31.4046 15.3619C31.6347 15.4709 31.7536 15.4954 31.7938 15.4994C31.8004 15.4957 31.8946 15.4733 32.115 15.3398C32.2991 15.2284 32.4809 15.0987 32.6973 14.9445C32.7854 14.8816 32.8792 14.8147 32.9812 14.7433C33.2259 14.572 33.5222 14.3721 33.8393 14.2142C33.6945 13.8681 33.5365 13.5265 33.3651 13.1901ZM17.223 10.1299C17.223 10.1299 17.2261 10.132 17.23 10.137C17.2246 10.1325 17.223 10.1299 17.223 10.1299Z" fill="#3D0F9A"/>
<path fill-rule="evenodd" clip-rule="evenodd" d="M23.6967 22.9553C23.4364 22.8997 23.0278 22.9247 22.6462 23.0871C22.2536 23.2542 22.0359 23.4986 21.9661 23.7591C21.9437 23.8428 21.9193 23.9303 21.8941 24.0211C21.7545 24.5231 21.5866 25.1269 21.5576 25.7436C21.5238 26.4603 21.6907 26.9131 22.0735 27.181C22.4458 27.4415 23.1321 27.4619 23.9638 27.1245C24.3483 26.9685 24.6888 26.7627 24.9326 26.5629C25.1235 26.4065 25.1955 26.3038 25.2164 26.275C25.215 26.2253 25.2097 26.0494 25.1239 25.712C25.0271 25.3312 24.8624 24.8763 24.6564 24.4303C24.4495 23.9822 24.2172 23.5782 23.999 23.2867C23.8899 23.1408 23.7989 23.0429 23.7323 22.9845C23.7174 22.9714 23.7055 22.9619 23.6967 22.9553ZM27.0622 25.2191C27.18 25.6824 27.2876 26.2928 27.1505 26.8045C27.0026 27.3566 26.5727 27.8047 26.2002 28.1099C25.7891 28.4468 25.2718 28.7522 24.7156 28.9778C23.6662 29.4035 22.1397 29.6683 20.9268 28.8196C19.7245 27.9783 19.512 26.6641 19.5598 25.6495C19.6006 24.783 19.8411 23.9296 19.9783 23.4427C19.9999 23.3661 20.0189 23.2986 20.0342 23.2415C20.3093 22.2148 21.0917 21.5751 21.863 21.2469C22.6226 20.9236 23.5157 20.835 24.259 21.0341C24.59 21.1228 24.8567 21.3105 25.051 21.4808C25.2537 21.6586 25.4375 21.8709 25.6002 22.0883C25.9258 22.5232 26.2256 23.0578 26.4722 23.5919C26.7198 24.128 26.93 24.699 27.0622 25.2191Z" fill="#FF5A00"/>
</svg>
