<svg width="260" height="260" viewBox="0 0 260 260" fill="none" xmlns="http://www.w3.org/2000/svg">
<path d="M229.898 119.758C229.8 119.758 229.701 119.742 229.619 119.692L141.068 68.998C140.904 68.8994 140.789 68.7186 140.789 68.5213L140.559 4.10137C140.559 3.90411 140.657 3.7233 140.838 3.62467C140.92 3.57536 141.019 3.54248 141.117 3.54248C141.216 3.54248 141.315 3.55892 141.397 3.60823L229.948 54.3026C230.112 54.4012 230.227 54.582 230.227 54.7793L230.474 119.183C230.474 119.38 230.375 119.561 230.194 119.66C230.112 119.709 230.013 119.742 229.915 119.742L229.898 119.758Z" fill="white"/>
<path d="M141.101 4.10134L229.652 54.7957L229.882 119.199L141.348 68.5049L141.101 4.10134ZM141.101 3C140.904 3 140.723 3.04931 140.542 3.14794C140.214 3.3452 140 3.72327 140 4.11777L140.23 68.5213C140.23 68.9158 140.444 69.2775 140.789 69.4747L229.34 120.169C229.504 120.268 229.701 120.317 229.899 120.317C230.096 120.317 230.277 120.268 230.458 120.169C230.803 119.972 231.016 119.61 231 119.216L230.77 54.8121C230.77 54.4176 230.556 54.056 230.211 53.8587L141.66 3.14794C141.479 3.04931 141.299 3 141.101 3Z" fill="#3D0F9A"/>
<path d="M223.212 82.8057C221.091 78.1045 217.968 72.2362 216.176 71.1513C214.993 70.4445 213.892 71.4801 212.823 72.4992C211.82 73.4526 210.949 74.2909 210.111 73.7649C207.547 72.1376 205.262 66.4172 203.043 60.8776C200.692 55.0093 198.473 49.4862 195.777 47.7438C194.429 46.8726 193.131 48.0561 191.881 49.1903C190.533 50.4067 189.596 51.1629 188.676 50.604C187.049 49.5848 185.75 45.837 184.369 41.859C182.38 36.0893 180.112 29.5635 175.937 27.9033C173.208 26.8184 170.841 27.2786 168.671 29.3334C166.814 31.0922 165.383 33.7223 164.003 36.2702C161.34 41.1851 159.499 44.0781 156.507 42.6974C153.976 41.5303 151.444 34.7414 151.428 34.6757L151.839 34.5277C152.792 37.1085 154.945 41.4974 156.688 42.3029C159.334 43.5028 161.06 40.7577 163.608 36.0729C165.022 33.4757 166.468 30.8128 168.375 29.0046C170.676 26.8348 173.208 26.3417 176.101 27.4923C180.457 29.2348 182.758 35.8592 184.78 41.7111C186.128 45.6069 187.394 49.2889 188.906 50.2259C189.564 50.6368 190.385 49.9465 191.585 48.8616C192.835 47.7273 194.396 46.3137 196.024 47.3657C198.835 49.1739 201.087 54.7792 203.47 60.7133C205.656 66.1871 207.925 71.8417 210.374 73.4033C210.834 73.6992 211.393 73.2882 212.544 72.2033C213.612 71.1842 214.96 69.902 216.423 70.7897C218.856 72.2526 222.867 80.9154 223.639 82.6414L223.228 82.8222L223.212 82.8057Z" fill="#3D0F9A" stroke="#3D0F9A" stroke-width="0.564473"/>
<path d="M188.278 86.0115L200.245 92.8661L200.13 60.1876L188.163 53.333L188.278 86.0115Z" fill="#3D0F9A"/>
<path d="M200.475 93.2438L188.064 86.1426L187.949 52.9546L200.36 60.0557L200.475 93.2438ZM188.508 85.8796L200.031 92.4712L199.916 60.3023L188.393 53.7107L188.508 85.8796Z" fill="#3D0F9A"/>
<path d="M152.378 65.4642L164.345 72.3187L164.263 51.9522L152.296 45.0977L152.378 65.4642Z" fill="#3D0F9A"/>
<path d="M164.575 72.6965L152.164 65.5953L152.082 44.7192L164.493 51.8204L164.575 72.6965ZM152.608 65.3323L164.131 71.9239L164.065 52.067L152.542 45.4754L152.608 65.3323Z" fill="#3D0F9A"/>
<path d="M170.329 75.7379L182.295 82.5924L182.147 41.054L170.181 34.2158L170.329 75.7379Z" fill="#3D0F9A"/>
<path d="M182.295 82.8226C182.295 82.8226 182.213 82.8226 182.18 82.7898L170.213 75.9352C170.213 75.9352 170.098 75.8201 170.098 75.7379L169.95 34.1994C169.95 34.1994 170 34.0515 170.065 34.0022C170.131 33.9693 170.213 33.9693 170.279 34.0022L182.246 40.8568C182.246 40.8568 182.361 40.9718 182.361 41.054L182.509 82.5925C182.509 82.5925 182.459 82.7405 182.394 82.7898C182.361 82.8062 182.328 82.8226 182.279 82.8226H182.295ZM170.542 75.6229L182.065 82.2144L181.917 41.1855L170.394 34.594L170.542 75.6229Z" fill="#3D0F9A"/>
<path d="M173.817 195.559C174.562 195.134 175.812 195.134 176.557 195.559C177.302 195.985 177.302 196.703 176.557 197.155C175.812 197.581 174.562 197.581 173.817 197.155C173.073 196.73 173.073 196.012 173.817 195.559Z" fill="#FF5A00"/>
<path d="M163.365 201.73C164.11 201.305 165.36 201.305 166.105 201.73C166.85 202.156 166.85 202.874 166.105 203.326C165.36 203.752 164.11 203.752 163.365 203.326C162.62 202.901 162.62 202.182 163.365 201.73Z" fill="#3D0F9A"/>
<path d="M69.0839 81.5139V87.0128C69.0839 90.5951 66.711 94.1774 62.0106 96.9154C52.5415 102.414 37.1172 102.414 27.5796 96.9154C22.788 94.1545 20.3694 90.5038 20.3922 86.8759V81.377C20.3922 85.0049 22.788 88.6556 27.5796 91.4165C37.1172 96.9154 52.5415 96.9154 62.0106 91.4165C66.711 88.6784 69.0839 85.0961 69.0839 81.5139Z" fill="white" stroke="#3D0F9A"/>
<path d="M61.8956 71.4733C71.4332 76.9722 71.4788 85.9165 62.0097 91.4155C52.5406 96.9144 37.1163 96.9144 27.5787 91.4155C18.0412 85.9165 17.9955 76.9722 27.4646 71.4733C36.9337 65.9744 52.3581 65.9744 61.8956 71.4733Z" fill="white" stroke="#3D0F9A"/>
<path d="M68.4227 71.3371V79.2775C68.3999 82.7685 66.0953 86.2367 61.5091 88.9063C52.291 94.2683 37.3001 94.2683 28.0364 88.9063C23.3589 86.2139 21.0315 82.6772 21.0544 79.1405V71.2002C21.0544 74.7368 23.4045 78.2735 28.0592 80.9659C37.3458 86.3279 52.3138 86.3279 61.5319 80.9659C66.1181 78.2963 68.3999 74.8281 68.4227 71.3371Z" fill="#3D0F9A"/>
<path d="M44.8067 93.2189C38.6917 93.2189 32.5539 91.8727 27.8992 89.1803C23.2902 86.5107 20.7347 82.9512 20.7575 79.1408V71.2004C20.7575 71.0407 20.9172 70.9038 21.0769 70.9038C21.2366 70.9038 21.3735 71.0407 21.3735 71.2004C21.3735 74.7827 23.7921 78.1368 28.2187 80.6923C37.3911 85.9859 52.2679 85.9859 61.3947 80.6923C65.73 78.1825 68.103 74.8512 68.1258 71.3373C68.1258 71.1776 68.2627 71.0179 68.4224 71.0407C68.5821 71.0407 68.719 71.1776 68.719 71.3602V79.3005C68.6962 83.0425 66.1863 86.5563 61.6685 89.2031C57.0367 91.8955 50.9217 93.2418 44.8067 93.2418V93.2189ZM21.3735 74.3948V79.1408C21.3507 82.7231 23.7693 86.0772 28.1959 88.6327C37.3683 93.9263 52.2451 93.9263 61.3719 88.6327C65.7072 86.1228 68.0801 82.7915 68.103 79.2777V74.5089C67.1218 77.0416 64.9314 79.3461 61.7142 81.2171C52.4276 86.602 37.2771 86.602 27.922 81.2171C24.6364 79.3233 22.4003 76.9503 21.3735 74.372V74.3948Z" fill="#3D0F9A"/>
<path d="M69.0839 65.2907V70.7896C69.0839 74.3719 66.711 77.9542 62.0106 80.6922C52.5415 86.1912 37.1172 86.1912 27.5796 80.6922C22.788 77.9314 20.3694 74.2806 20.3922 70.6527V65.1538C20.3922 68.7817 22.788 72.4325 27.5796 75.1933C37.1172 80.6922 52.5415 80.6922 62.0106 75.1933C66.711 72.4553 69.0839 68.873 69.0839 65.2907Z" fill="white" stroke="#3D0F9A"/>
<path d="M61.8956 55.2507C71.4332 60.7496 71.4788 69.6939 62.0097 75.1928C52.5406 80.6917 37.1163 80.6917 27.5787 75.1928C18.0412 69.6939 17.9955 60.7496 27.4646 55.2507C36.9337 49.7517 52.3581 49.7517 61.8956 55.2507Z" fill="white" stroke="#3D0F9A"/>
<path d="M68.4227 55.114V63.0543C68.3999 66.5453 66.0953 70.0135 61.5091 72.6831C52.291 78.0451 37.3001 78.0451 28.0364 72.6831C23.3589 69.9907 21.0315 66.454 21.0544 62.9174V54.9771C21.0544 58.5137 23.4045 62.0504 28.0592 64.7428C37.3458 70.1048 52.3138 70.1048 61.5319 64.7428C66.1181 62.0732 68.3999 58.605 68.4227 55.114Z" fill="#3D0F9A"/>
<path d="M44.8067 77.0182C38.6917 77.0182 32.5539 75.672 27.8992 72.9796C23.2902 70.31 20.7347 66.7506 20.7575 62.9401V54.9997C20.7575 54.84 20.9172 54.7031 21.0769 54.7031C21.2366 54.7031 21.3735 54.84 21.3735 54.9997C21.3735 58.582 23.7921 61.959 28.2187 64.4917C37.3911 69.7852 52.2679 69.7852 61.3947 64.4917C65.73 61.9818 68.103 58.6505 68.1258 55.1367C68.1258 54.9769 68.2627 54.84 68.4224 54.84C68.5821 54.84 68.719 54.9769 68.719 55.1367V63.077C68.6962 66.819 66.1863 70.3328 61.6685 72.9796C57.0367 75.672 50.9217 77.0182 44.8067 77.0182ZM21.3735 58.1941V62.9401C21.3507 66.5224 23.7693 69.8765 28.1959 72.432C37.3683 77.7256 52.2451 77.7256 61.3719 72.432C65.7072 69.9221 68.0801 66.5908 68.103 63.077V58.3082C67.1218 60.8409 64.9314 63.1455 61.7142 65.0165C52.4276 70.4013 37.2771 70.4013 27.922 65.0165C24.6364 63.1226 22.4003 60.7497 21.3735 58.1713V58.1941Z" fill="#3D0F9A"/>
<path d="M69.0839 49.2272V54.7262C69.0839 58.3084 66.711 61.8907 62.0106 64.6288C52.5415 70.1277 37.1172 70.1277 27.5796 64.6288C22.788 61.8679 20.3694 58.2172 20.3922 54.5893V49.0903C20.3922 52.7183 22.788 56.369 27.5796 59.1299C37.1172 64.6288 52.5415 64.6288 62.0106 59.1299C66.711 56.3918 69.0839 52.8095 69.0839 49.2272Z" fill="white" stroke="#3D0F9A"/>
<path d="M61.8956 39.1877C71.4332 44.6866 71.4788 53.6309 62.0097 59.1298C52.5406 64.6287 37.1163 64.6287 27.5787 59.1298C18.0412 53.6309 17.9955 44.6866 27.4646 39.1877C36.9337 33.6887 52.3581 33.6887 61.8956 39.1877Z" fill="white" stroke="#3D0F9A"/>
<path d="M68.4227 39.051V46.9913C68.3999 50.4823 66.0953 53.9505 61.5091 56.6201C52.291 61.9822 37.3001 61.9822 28.0364 56.6201C23.3589 53.9277 21.0315 50.3911 21.0544 46.8544V38.9141C21.0544 42.4507 23.4045 45.9874 28.0592 48.6798C37.3458 54.0418 52.3138 54.0418 61.5319 48.6798C66.1181 46.0102 68.3999 42.542 68.4227 39.051Z" fill="#3D0F9A"/>
<path d="M44.8067 60.9328C38.6917 60.9328 32.5539 59.5866 27.8992 56.8942C23.2902 54.2246 20.7347 50.6651 20.7575 46.8546V38.9143C20.7575 38.7546 20.9172 38.6177 21.0769 38.6177C21.2366 38.6177 21.3735 38.7546 21.3735 38.9371C21.3735 42.5194 23.7921 45.8735 28.2187 48.429C37.3911 53.7226 52.2679 53.7226 61.3947 48.429C65.73 45.9191 68.103 42.5878 68.1258 39.074C68.1258 38.9143 68.2627 38.7774 68.4224 38.7774C68.5821 38.7774 68.719 38.9143 68.719 39.074V47.0144C68.6962 50.7564 66.1863 54.2702 61.6685 56.917C57.0367 59.6094 50.9217 60.9556 44.8067 60.9556V60.9328ZM21.3735 42.1087V46.8546C21.3507 50.4369 23.7693 53.791 28.1959 56.3466C37.3683 61.6401 52.2451 61.6401 61.3719 56.3466C65.7072 53.8367 68.0801 50.5054 68.103 46.9916V42.2228C67.1218 44.7555 64.9314 47.06 61.7142 48.931C52.4276 54.3158 37.2771 54.3158 27.922 48.931C24.6364 47.0372 22.4003 44.6642 21.3735 42.0859V42.1087Z" fill="#3D0F9A"/>
<path d="M69.0839 33.1638V38.6627C69.0839 42.245 66.711 45.8272 62.0106 48.5653C52.5415 54.0642 37.1172 54.0642 27.5796 48.5653C22.788 45.8044 20.3694 42.1537 20.3922 38.5258V33.0269C20.3922 36.6548 22.788 40.3055 27.5796 43.0664C37.1172 48.5653 52.5415 48.5653 62.0106 43.0664C66.711 40.3283 69.0839 36.746 69.0839 33.1638Z" fill="white" stroke="#3D0F9A"/>
<path d="M61.8956 23.1242C71.4332 28.6231 71.4788 37.5674 62.0097 43.0663C52.5406 48.5653 37.1163 48.5653 27.5787 43.0663C18.0412 37.5674 17.9955 28.6231 27.4646 23.1242C36.9337 17.6253 52.3581 17.6253 61.8956 23.1242Z" fill="white" stroke="#3D0F9A"/>
<path d="M131.784 88.8703V94.3692C131.784 97.9515 129.411 101.534 124.71 104.272C115.241 109.771 99.8169 109.771 90.2793 104.272C85.4878 101.511 83.0691 97.8602 83.092 94.2323V88.7334C83.092 92.3613 85.4878 96.0121 90.2793 98.7729C99.8169 104.272 115.241 104.272 124.71 98.7729C129.411 96.0349 131.784 92.4526 131.784 88.8703Z" fill="white" stroke="#3D0F9A"/>
<path d="M124.596 78.8307C134.134 84.3297 134.179 93.274 124.71 98.7729C115.241 104.272 99.8169 104.272 90.2794 98.7729C80.7418 93.274 80.6962 84.3297 90.1653 78.8307C99.6344 73.3318 115.059 73.3318 124.596 78.8307Z" fill="white" stroke="#3D0F9A"/>
<path d="M131.099 78.6935V86.6339C131.076 90.1249 128.772 93.5931 124.185 96.2627C114.967 101.625 99.9764 101.625 90.7127 96.2627C86.0352 93.5703 83.7078 90.0336 83.7306 86.497V78.5566C83.7306 82.0933 86.0808 85.6299 90.7355 88.3224C100.022 93.6844 114.99 93.6844 124.208 88.3224C128.794 85.6528 131.076 82.1846 131.099 78.6935Z" fill="#FF5A00" stroke="#3D0F9A"/>
<path d="M131.784 72.6472V78.1461C131.784 81.7284 129.411 85.3106 124.71 88.0487C115.241 93.5476 99.8169 93.5476 90.2793 88.0487C85.4878 85.2878 83.0691 81.6371 83.092 78.0092V72.5103C83.092 76.1382 85.4878 79.7889 90.2793 82.5498C99.8169 88.0487 115.241 88.0487 124.71 82.5498C129.411 79.8117 131.784 76.2294 131.784 72.6472Z" fill="white" stroke="#3D0F9A"/>
<path d="M124.596 62.6071C134.134 68.106 134.179 77.0503 124.71 82.5492C115.241 88.0482 99.8169 88.0482 90.2794 82.5492C80.7418 77.0503 80.6962 68.106 90.1653 62.6071C99.6344 57.1082 115.059 57.1082 124.596 62.6071Z" fill="white" stroke="#3D0F9A"/>
<path d="M131.099 62.4934V70.4337C131.076 73.9247 128.772 77.3929 124.185 80.0625C114.967 85.4245 99.9764 85.4245 90.7127 80.0625C86.0352 77.3701 83.7078 73.8335 83.7306 70.2968V62.3564C83.7306 65.8931 86.0808 69.4297 90.7355 72.1222C100.022 77.4842 114.99 77.4842 124.208 72.1222C128.794 69.4526 131.076 65.9844 131.099 62.4934Z" fill="#FF5A00" stroke="#3D0F9A"/>
<path d="M131.784 56.5837V62.0826C131.784 65.6649 129.411 69.2472 124.71 71.9852C115.241 77.4841 99.8169 77.4841 90.2793 71.9852C85.4878 69.2243 83.0691 65.5736 83.092 61.9457V56.4468C83.092 60.0747 85.4878 63.7254 90.2793 66.4863C99.8169 71.9852 115.241 71.9852 124.71 66.4863C129.411 63.7482 131.784 60.166 131.784 56.5837Z" fill="white" stroke="#3D0F9A"/>
<path d="M124.596 46.5441C134.134 52.043 134.179 60.9873 124.71 66.4863C115.241 71.9852 99.8169 71.9852 90.2794 66.4863C80.7418 60.9873 80.6962 52.043 90.1653 46.5441C99.6344 41.0452 115.059 41.0452 124.596 46.5441Z" fill="white" stroke="#3D0F9A"/>
<path d="M150.438 218.469L93.6713 185.686" stroke="#3D0F9A"/>
<path d="M83.5993 190.709L120.223 211.86L104.429 220.981L150.5 248" stroke="#3D0F9A" stroke-dasharray="1.29 1.29"/>
<path d="M102.369 179.869L138.993 201.02L154.788 191.899L185.46 209.613" stroke="#3D0F9A" stroke-dasharray="1.29 1.29"/>
<path d="M73.7581 196.922L102.142 213.314L53.5005 242.5" stroke="#FF5A00"/>
<path d="M113.128 174.185L141.512 190.577L170.811 173.656" stroke="#3D0F9A"/>
<path d="M53.5009 150.303V155.802C53.5009 159.385 51.128 162.967 46.4276 165.705C36.9585 171.204 21.5342 171.204 11.9966 165.705C7.20504 162.944 4.78642 159.293 4.80924 155.665V150.167C4.80924 153.794 7.20504 157.445 11.9966 160.206C21.5342 165.705 36.9585 165.705 46.4276 160.206C51.128 157.468 53.5009 153.886 53.5009 150.303Z" fill="white" stroke="#3D0F9A"/>
<path d="M46.3131 140.263C55.8507 145.762 55.8963 154.707 46.4272 160.205C36.9581 165.704 21.5337 165.704 11.9962 160.205C2.45864 154.707 2.413 145.762 11.8821 140.263C21.3512 134.764 36.7756 134.764 46.3131 140.263Z" fill="white" stroke="#3D0F9A"/>
<path d="M52.8397 140.149V148.089C52.8168 151.58 50.5123 155.049 45.9261 157.718C36.708 163.08 21.7171 163.08 12.4534 157.718C7.77589 155.026 5.44854 151.489 5.47136 147.953V140.012C5.47136 143.549 7.82152 147.086 12.4762 149.778C21.7628 155.14 36.7308 155.14 45.9489 149.778C50.5351 147.108 52.8168 143.64 52.8397 140.149Z" fill="#3D0F9A"/>
<path d="M29.2007 162.031C23.0858 162.031 16.948 160.685 12.2933 157.992C7.68422 155.323 5.1287 151.763 5.15152 147.953V140.012C5.17434 139.853 5.31124 139.716 5.47096 139.716C5.63068 139.716 5.76758 139.853 5.76758 140.035C5.76758 143.618 8.18619 146.972 12.6127 149.527C21.7852 154.821 36.6619 154.821 45.7888 149.527C50.124 147.017 52.497 143.686 52.5198 140.172C52.5198 140.012 52.6567 139.876 52.8164 139.876C52.9762 139.876 53.1131 140.012 53.1131 140.195V148.135C53.0903 151.877 50.5804 155.391 46.0626 158.038C41.4307 160.73 35.3157 162.077 29.2007 162.077V162.031ZM5.76758 143.207V147.953C5.74476 151.535 8.16338 154.889 12.5899 157.445C21.7624 162.738 36.6391 162.738 45.766 157.445C50.1012 154.935 52.4742 151.604 52.497 148.09V143.321C51.5159 145.854 49.3254 148.158 46.1082 150.029C36.8217 155.414 21.6711 155.414 12.3161 150.029C9.03043 148.135 6.79435 145.762 5.76758 143.184V143.207Z" fill="#3D0F9A"/>
<path d="M53.5009 134.24V139.739C53.5009 143.321 51.128 146.903 46.4276 149.641C36.9585 155.14 21.5342 155.14 11.9966 149.641C7.20504 146.881 4.78642 143.23 4.80924 139.602V134.103C4.80924 137.731 7.20504 141.382 11.9966 144.143C21.5342 149.641 36.9585 149.641 46.4276 144.143C51.128 141.404 53.5009 137.822 53.5009 134.24Z" fill="white" stroke="#3D0F9A"/>
<path d="M46.3131 124.2C55.8507 129.699 55.8963 138.643 46.4272 144.142C36.9581 149.641 21.5337 149.641 11.9962 144.142C2.45864 138.643 2.413 129.699 11.8821 124.2C21.3512 118.701 36.7756 118.701 46.3131 124.2Z" fill="white" stroke="#3D0F9A"/>
<path d="M52.8397 124.063V132.004C52.8168 135.495 50.5123 138.963 45.9261 141.632C36.708 146.994 21.7171 146.994 12.4534 141.632C7.77589 138.94 5.44854 135.403 5.47136 131.867V123.926C5.47136 127.463 7.82152 131 12.4762 133.692C21.7628 139.054 36.7308 139.054 45.9489 133.692C50.5351 131.022 52.8168 127.554 52.8397 124.063Z" fill="#3D0F9A"/>
<path d="M29.2007 145.945C23.0858 145.945 16.948 144.599 12.2933 141.906C7.68422 139.237 5.1287 135.677 5.15152 131.867V123.927C5.17434 123.767 5.31124 123.63 5.47096 123.63C5.63068 123.63 5.76758 123.767 5.76758 123.949C5.76758 127.532 8.18619 130.886 12.6127 133.441C21.7852 138.735 36.6619 138.735 45.7888 133.441C50.124 130.931 52.497 127.6 52.5198 124.086C52.5198 123.927 52.6567 123.767 52.8164 123.79C52.9762 123.79 53.1131 123.927 53.1131 124.109V132.049C53.0903 135.791 50.5804 139.305 46.0626 141.952C41.4307 144.644 35.3157 145.991 29.2007 145.991V145.945ZM5.76758 127.121V131.867C5.74476 135.449 8.16338 138.803 12.5899 141.359C21.7624 146.652 36.6391 146.652 45.766 141.359C50.1012 138.849 52.4742 135.518 52.497 132.004V127.235C51.5159 129.768 49.3254 132.072 46.1082 133.943C36.8217 139.328 21.6711 139.328 12.3161 133.943C9.03043 132.049 6.79435 129.676 5.76758 127.098V127.121Z" fill="#3D0F9A"/>
<path d="M53.5009 118.017V123.516C53.5009 127.098 51.128 130.681 46.4276 133.419C36.9585 138.918 21.5342 138.918 11.9966 133.419C7.20504 130.658 4.78642 127.007 4.80924 123.379V117.88C4.80924 121.508 7.20504 125.159 11.9966 127.92C21.5342 133.419 36.9585 133.419 46.4276 127.92C51.128 125.182 53.5009 121.6 53.5009 118.017Z" fill="white" stroke="#3D0F9A"/>
<path d="M46.3131 107.977C55.8507 113.476 55.8963 122.42 46.4272 127.919C36.9581 133.418 21.5337 133.418 11.9962 127.919C2.45864 122.42 2.413 113.476 11.8821 107.977C21.3512 102.478 36.7756 102.478 46.3131 107.977Z" fill="white" stroke="#3D0F9A"/>
<path d="M52.8397 107.841V115.781C52.8168 119.272 50.5123 122.74 45.9261 125.41C36.708 130.772 21.7171 130.772 12.4534 125.41C7.77588 122.717 5.44854 119.181 5.47136 115.644V107.704C5.47136 111.24 7.82152 114.777 12.4762 117.469C21.7628 122.831 36.7308 122.831 45.9489 117.469C50.5351 114.8 52.8168 111.332 52.8397 107.841Z" fill="#3D0F9A"/>
<path d="M29.2007 129.744C23.0858 129.744 16.948 128.398 12.2933 125.706C7.68422 123.036 5.1287 119.477 5.15152 115.666V107.726C5.17434 107.566 5.31124 107.429 5.47096 107.429C5.63068 107.429 5.76758 107.566 5.76758 107.749C5.76758 111.331 8.18619 114.685 12.6127 117.241C21.7852 122.534 36.6619 122.534 45.7888 117.241C50.124 114.731 52.497 111.399 52.5198 107.886C52.5198 107.726 52.6567 107.589 52.8164 107.589C52.9762 107.589 53.1131 107.726 53.1131 107.908V115.849C53.0903 119.591 50.5804 123.105 46.0626 125.751C41.4307 128.444 35.3157 129.79 29.2007 129.79V129.744ZM5.76758 110.897V115.643C5.74476 119.226 8.16338 122.58 12.5899 125.135C21.7624 130.429 36.6391 130.429 45.766 125.135C50.1012 122.625 52.4742 119.294 52.497 115.78V111.011C51.5159 113.544 49.3254 115.849 46.1082 117.72C36.8217 123.105 21.6711 123.105 12.3161 117.72C9.03043 115.826 6.79435 113.453 5.76758 110.875V110.897Z" fill="#3D0F9A"/>
<path d="M53.5009 101.954V107.453C53.5009 111.035 51.128 114.617 46.4276 117.355C36.9585 122.854 21.5342 122.854 11.9966 117.355C7.20504 114.594 4.78642 110.944 4.80924 107.316V101.817C4.80924 105.445 7.20504 109.096 11.9966 111.856C21.5342 117.355 36.9585 117.355 46.4276 111.856C51.128 109.118 53.5009 105.536 53.5009 101.954Z" fill="white" stroke="#3D0F9A"/>
<path d="M46.3131 91.9142C55.8507 97.4132 55.8963 106.357 46.4272 111.856C36.9581 117.355 21.5337 117.355 11.9962 111.856C2.45864 106.357 2.413 97.4132 11.8821 91.9142C21.3512 86.4153 36.7756 86.4153 46.3131 91.9142Z" fill="white" stroke="#3D0F9A"/>
<path d="M145.137 100.171C141.284 97.9362 135.961 98.2597 130.079 101.642C128.815 102.377 127.58 103.2 126.403 104.141L137.932 110.847C139.137 109.906 140.343 109.082 141.608 108.347C147.49 104.936 152.813 104.641 156.665 106.877L145.137 100.171Z" fill="white" stroke="#3D0F9A" stroke-width="0.900375"/>
<path d="M118.112 92.1423C112.347 88.7896 104.348 89.2602 95.5254 94.3479C80.6738 102.935 68.2044 121.875 64.793 139.726L76.3213 146.431C79.7327 128.58 92.1728 109.641 107.054 101.053C115.876 95.9654 123.876 95.4949 129.64 98.8475L118.112 92.1423Z" fill="white" stroke="#3D0F9A" stroke-width="0.900375"/>
<path d="M40.0001 178.046C40.0001 184.722 42.3822 189.427 46.176 191.633L57.7043 198.338C53.9105 196.133 51.5578 191.427 51.5284 184.751C51.499 171.311 60.9393 154.96 72.6441 148.196C73.9087 147.461 75.1438 146.872 76.3202 146.431L64.7919 139.726C63.5861 140.167 62.3509 140.755 61.1157 141.491C49.411 148.255 39.9707 164.606 40.0001 178.046Z" fill="white" stroke="#3D0F9A" stroke-width="0.900375"/>
<path d="M107.023 101.054C121.875 92.4662 134.403 96.9952 137.903 110.847C139.108 109.906 140.314 109.082 141.579 108.347C153.284 101.583 162.783 107.024 162.812 120.464C162.842 133.051 154.548 148.226 143.902 155.637L72.7617 196.839C61.0569 203.603 51.5578 198.162 51.5284 184.722C51.499 171.282 60.9393 154.931 72.6441 148.167C73.9087 147.432 75.1438 146.843 76.3202 146.402C79.7316 128.551 92.1716 109.612 107.053 101.024L107.023 101.054Z" fill="#3D0F9A" stroke="#3D0F9A" stroke-width="0.900375"/>
<path d="M123.641 125.992C120.347 119.169 112.142 119.316 104.142 126.345C98.9958 130.874 94.8492 137.52 92.8788 144.314L89.585 146.284L95.2903 154.019L100.731 139.638L97.9077 141.314C99.5252 137.255 102.143 133.432 105.289 130.668C111.142 125.521 117.141 125.433 119.553 130.403C120.053 131.432 121.376 131.256 122.494 130.05C123.611 128.815 124.141 127.021 123.641 125.992Z" fill="white"/>
<path d="M127.64 140.755L122.788 131.991L116.524 146.255L119.553 144.755C117.965 149.078 115.23 153.195 111.877 156.107C106.378 160.93 100.525 161.283 97.9373 156.959C97.3786 156.018 96.0258 156.283 94.9376 157.577C93.8495 158.871 93.4084 160.665 93.9671 161.606C96.8492 166.429 102.731 166.988 108.848 163.429C110.23 162.635 111.613 161.635 112.995 160.43C118.2 155.871 122.347 149.195 124.288 142.373L127.611 140.726L127.64 140.755Z" fill="white"/>
<path d="M237.747 132.19L231.147 136.032C227.079 138.389 221.451 138.081 215.26 134.496C211.832 132.498 208.558 129.731 205.667 126.427C200.679 120.792 196.713 113.646 194.616 106.5C193.567 102.889 192.979 99.277 192.979 95.8448C192.979 89.4158 195.076 84.703 198.504 82.1672L205.104 78.3252C201.676 80.8609 199.604 85.5738 199.579 92.0028C199.579 95.435 200.141 99.0465 201.216 102.658C203.314 109.804 207.279 116.95 212.267 122.585C215.184 125.864 218.433 128.656 221.861 130.654C228.077 134.239 233.679 134.572 237.747 132.19Z" fill="#3D0F9A" stroke="#3D0F9A" stroke-width="1.04398"/>
<path d="M199.501 81.5002L206.101 77.6582C205.743 77.8631 205.41 78.0936 205.103 78.3242L198.503 82.1662C198.835 81.9357 199.168 81.7051 199.501 81.5002Z" fill="#3D0F9A"/>
<path d="M198.478 82.4994C198.478 82.4994 198.247 82.4481 198.196 82.3457C198.094 82.192 198.119 81.9871 198.273 81.8846C198.605 81.6285 198.964 81.398 199.322 81.1931L205.922 77.351C206.075 77.2486 206.306 77.2998 206.382 77.4791C206.485 77.6328 206.434 77.8633 206.254 77.9402C205.922 78.1451 205.589 78.35 205.282 78.5805C205.282 78.5805 205.282 78.5805 205.257 78.5805L198.657 82.4225C198.657 82.4225 198.554 82.4737 198.478 82.4737V82.4994Z" fill="#3D0F9A"/>
<path d="M199.501 81.5002L206.101 77.6582C205.743 77.8631 205.41 78.0936 205.103 78.3242L198.503 82.1662C198.835 81.9357 199.168 81.7051 199.501 81.5002Z" fill="black"/>
<path d="M198.478 82.4994C198.478 82.4994 198.247 82.4481 198.196 82.3457C198.094 82.192 198.119 81.9871 198.273 81.8846C198.605 81.6285 198.964 81.398 199.322 81.1931L205.922 77.351C206.075 77.2486 206.306 77.2998 206.382 77.4791C206.485 77.6328 206.434 77.8633 206.254 77.9402C205.922 78.1451 205.589 78.35 205.282 78.5805C205.282 78.5805 205.282 78.5805 205.257 78.5805L198.657 82.4225C198.657 82.4225 198.554 82.4737 198.478 82.4737V82.4994Z" fill="black"/>
<path d="M199.501 81.5007L206.101 77.6587C205.743 77.8636 205.41 78.0941 205.103 78.3246L198.503 82.1667C198.835 81.9361 199.168 81.7056 199.501 81.5007Z" fill="#3D0F9A"/>
<path d="M198.478 82.4994C198.478 82.4994 198.247 82.4481 198.196 82.3457C198.094 82.192 198.119 81.9871 198.273 81.8846C198.605 81.6285 198.964 81.398 199.322 81.1931L205.922 77.351C206.075 77.2486 206.306 77.2998 206.382 77.4791C206.485 77.6328 206.434 77.8633 206.254 77.9402C205.922 78.1451 205.589 78.35 205.282 78.5805C205.282 78.5805 205.282 78.5805 205.257 78.5805L198.657 82.4225C198.657 82.4225 198.554 82.4737 198.478 82.4737V82.4994Z" fill="#3D0F9A"/>
<path d="M191.008 70.333L198.478 82.1664C195.05 84.7022 192.978 89.415 192.952 95.844C192.952 99.2762 193.515 102.888 194.589 106.499C196.687 113.645 200.652 120.792 205.641 126.427C208.557 129.705 211.806 132.497 215.234 134.495C221.962 138.388 228.025 138.439 232.144 135.366L239.613 147.199C233.653 151.63 224.929 151.553 215.183 145.944C210.22 143.075 205.513 139.054 201.317 134.315C194.103 126.145 188.373 115.848 185.354 105.526C183.819 100.301 182.975 95.0756 183.001 90.1322C183.026 80.8345 186.045 74.047 190.982 70.3842L191.008 70.333Z" fill="white" stroke="#3D0F9A" stroke-width="1.04398"/>
<path d="M232.144 135.365L238.769 131.523L246.239 143.331L239.639 147.198L232.144 135.365Z" fill="#3D0F9A"/>
<path d="M239.639 147.532C239.639 147.532 239.409 147.481 239.357 147.378L231.887 135.545C231.887 135.545 231.811 135.366 231.836 135.289C231.836 135.186 231.913 135.109 231.99 135.084L238.59 131.242C238.743 131.139 238.948 131.191 239.05 131.344L246.52 143.178C246.52 143.178 246.597 143.357 246.571 143.434C246.571 143.536 246.495 143.613 246.418 143.639L239.818 147.481C239.818 147.481 239.716 147.532 239.639 147.532ZM232.629 135.494L239.741 146.738L245.753 143.229L238.641 131.985L232.629 135.494Z" fill="#3D0F9A"/>
<path d="M244.781 144.304L238.181 148.146C238.692 147.864 239.178 147.531 239.639 147.173L246.239 143.331C245.778 143.689 245.292 143.997 244.781 144.304Z" fill="#3D0F9A"/>
<path d="M238.18 148.504C238.18 148.504 237.95 148.453 237.873 148.325C237.771 148.171 237.822 147.941 238.001 147.864C238.487 147.582 238.973 147.275 239.434 146.916C239.434 146.916 239.434 146.916 239.46 146.916L246.06 143.074C246.213 142.972 246.418 143.023 246.52 143.177C246.622 143.33 246.597 143.535 246.443 143.638C245.957 143.996 245.471 144.329 244.96 144.611L238.36 148.453C238.36 148.453 238.257 148.504 238.18 148.504Z" fill="#3D0F9A"/>
<path d="M244.781 144.304L238.181 148.146C238.692 147.864 239.178 147.531 239.639 147.173L246.239 143.331C245.778 143.689 245.292 143.997 244.781 144.304Z" fill="black"/>
<path d="M238.181 148.504C238.181 148.504 237.951 148.453 237.874 148.325C237.772 148.171 237.823 147.941 238.002 147.864C238.488 147.582 238.974 147.275 239.435 146.916C239.435 146.916 239.435 146.916 239.461 146.916L246.061 143.074C246.214 142.972 246.419 143.023 246.521 143.177C246.623 143.33 246.598 143.535 246.444 143.638C245.958 143.996 245.472 144.329 244.961 144.611L238.36 148.453C238.36 148.453 238.258 148.504 238.181 148.504Z" fill="black"/>
<path d="M239.64 147.198L246.24 143.356C245.779 143.715 245.293 144.022 244.782 144.329L238.182 148.171C238.693 147.89 239.179 147.557 239.64 147.198Z" fill="#3D0F9A"/>
<path d="M238.181 148.504C238.181 148.504 237.951 148.453 237.874 148.325C237.772 148.171 237.823 147.941 238.002 147.864C238.488 147.582 238.974 147.275 239.435 146.916C239.435 146.916 239.435 146.916 239.461 146.916L246.061 143.074C246.214 142.972 246.419 143.023 246.521 143.177C246.623 143.33 246.598 143.535 246.444 143.638C245.958 143.996 245.472 144.329 244.961 144.611L238.36 148.453C238.36 148.453 238.258 148.504 238.181 148.504Z" fill="#3D0F9A"/>
<path d="M229.304 83.2414L235.904 79.3994L231.606 87.2371L225.006 91.1048L229.304 83.2414Z" fill="#3D0F9A"/>
<path d="M225.006 91.4382C225.006 91.4382 224.827 91.4126 224.775 91.3358C224.673 91.2333 224.648 91.054 224.724 90.926L229.022 83.0626C229.022 83.0626 229.099 82.9602 229.15 82.9346L235.75 79.0925C235.878 79.0157 236.057 79.0413 236.159 79.1438C236.262 79.2462 236.287 79.4255 236.211 79.5536L231.913 87.4169C231.913 87.4169 231.836 87.5194 231.785 87.545L225.185 91.387C225.185 91.387 225.082 91.4382 225.006 91.4382ZM229.559 83.4981L225.901 90.1832L231.35 87.0071L235.008 80.322L229.559 83.4981Z" fill="#3D0F9A"/>
<path d="M215.413 71.6131C220.376 74.4819 225.083 78.5032 229.278 83.2417L224.981 91.105C222.064 87.8265 218.815 85.0346 215.387 83.0368C208.659 79.1435 202.596 79.0923 198.478 82.1659L191.008 70.3325C196.968 65.9013 205.692 65.9782 215.439 71.5875L215.413 71.6131Z" fill="#FF5A00" stroke="#3D0F9A" stroke-width="1.04398"/>
<path d="M229.304 83.2419C236.518 91.4126 242.248 101.709 245.267 112.031C246.802 117.257 247.646 122.482 247.62 127.425C247.595 136.723 244.576 143.51 239.639 147.173L232.169 135.34C235.597 132.804 237.669 128.091 237.695 121.662C237.695 118.23 237.132 114.618 236.057 111.007C233.96 103.861 229.994 96.7146 225.006 91.0796L229.304 83.2163V83.2419Z" fill="white" stroke="#3D0F9A" stroke-width="1.04398"/>
<path d="M222.039 67.7458C213.085 62.5719 204.95 62.1108 199.066 65.5174L192.466 69.3594C198.35 65.9528 206.459 66.4139 215.438 71.5878C220.401 74.4565 225.108 78.4778 229.304 83.2163L235.904 79.3743C231.709 74.6358 227.001 70.6145 222.039 67.7458Z" fill="#FF5A00" stroke="#3D0F9A" stroke-width="1.04398"/>
<path d="M229.304 83.2419L235.904 79.3999C243.118 87.5706 248.848 97.8672 251.867 108.189C253.402 113.415 254.221 118.64 254.221 123.583C254.195 132.881 251.176 139.668 246.239 143.331L239.639 147.173C244.576 143.485 247.595 136.723 247.62 127.425C247.62 122.456 246.802 117.257 245.267 112.031C242.248 101.684 236.518 91.387 229.304 83.2419Z" fill="white" stroke="#3D0F9A" stroke-width="1.04398"/>
<path d="M252.656 197.061L235.703 206.927C234.333 207.721 232.13 207.721 230.76 206.927L194.135 185.786C193.441 185.389 193.103 184.872 193.103 184.336L193.063 190.907C193.063 191.423 193.401 191.959 194.096 192.356L230.721 213.497C232.09 214.291 234.314 214.291 235.663 213.497L252.616 203.632C253.291 203.234 253.629 202.718 253.629 202.202L253.668 195.632C253.668 196.148 253.331 196.664 252.656 197.061Z" fill="white" stroke="#3D0F9A"/>
<path d="M252.637 194.183C254.006 194.977 254.006 196.267 252.637 197.041L235.684 206.907C234.314 207.701 232.111 207.701 230.741 206.907L194.116 185.766C192.746 184.972 192.746 183.701 194.116 182.907L211.069 173.041C212.439 172.247 214.642 172.247 216.012 173.041L252.637 194.183Z" fill="#3D0F9A" stroke="#3D0F9A"/>
<path d="M233.659 207.502H233.123V214.073H233.659V207.502Z" fill="#3D0F9A" stroke="#3D0F9A" stroke-width="0.5"/>
<path d="M252.656 145.945L235.704 155.811C234.334 156.605 232.13 156.605 230.761 155.811L194.116 134.65C193.421 134.253 193.084 133.737 193.084 133.201L193.044 181.558C193.044 182.074 193.381 182.61 194.076 183.007L230.701 204.148C232.071 204.942 234.294 204.942 235.644 204.148L252.597 194.282C253.272 193.885 253.609 193.369 253.609 192.853L253.649 144.496C253.649 145.012 253.311 145.529 252.636 145.926L252.656 145.945Z" fill="white" stroke="#3D0F9A"/>
<path d="M252.637 143.066C254.006 143.86 254.006 145.151 252.637 145.925L235.684 155.791C234.314 156.585 232.111 156.585 230.741 155.791L194.116 134.65C192.746 133.856 192.746 132.585 194.116 131.791L211.069 121.925C212.439 121.131 214.642 121.131 216.012 121.925L252.637 143.066Z" fill="white" stroke="#3D0F9A"/>
<path d="M233.659 156.386H233.123V204.723H233.659V156.386Z" fill="#3D0F9A" stroke="#3D0F9A" stroke-width="0.5"/>
<path d="M226.256 212.367L209.304 222.232C207.934 223.026 205.731 223.026 204.361 222.232L167.736 201.091C167.041 200.694 166.704 200.178 166.704 199.642L166.664 206.213C166.664 206.729 167.002 207.265 167.696 207.662L204.321 228.803C205.691 229.597 207.914 229.597 209.264 228.803L226.217 218.937C226.892 218.54 227.229 218.024 227.229 217.508L227.269 210.937C227.269 211.453 226.931 211.969 226.256 212.367Z" fill="white" stroke="#3D0F9A"/>
<path d="M226.256 209.508C227.625 210.302 227.625 211.592 226.256 212.366L209.303 222.232C207.933 223.026 205.73 223.026 204.36 222.232L167.735 201.091C166.366 200.297 166.366 199.026 167.735 198.232L184.688 188.367C186.058 187.572 188.261 187.572 189.631 188.367L226.256 209.508Z" fill="#3D0F9A" stroke="#3D0F9A"/>
<path d="M207.279 222.827H206.743V229.398H207.279V222.827Z" fill="#3D0F9A" stroke="#3D0F9A" stroke-width="0.5"/>
<path d="M226.256 161.27L209.304 171.136C207.934 171.93 205.731 171.93 204.361 171.136L167.736 149.975C167.041 149.578 166.704 149.062 166.704 148.526L166.664 196.883C166.664 197.399 167.002 197.935 167.696 198.332L204.321 219.473C205.691 220.267 207.914 220.267 209.264 219.473L226.217 209.607C226.892 209.21 227.229 208.694 227.229 208.178L227.269 159.821C227.269 160.337 226.931 160.853 226.256 161.25V161.27Z" fill="white" stroke="#3D0F9A"/>
<path d="M226.256 158.392C227.625 159.186 227.625 160.476 226.256 161.25L209.303 171.116C207.933 171.91 205.73 171.91 204.36 171.116L167.735 149.975C166.366 149.181 166.366 147.91 167.735 147.116L184.688 137.25C186.058 136.456 188.261 136.456 189.631 137.25L226.256 158.392Z" fill="white" stroke="#3D0F9A"/>
<path d="M207.279 171.711H206.743V220.048H207.279V171.711Z" fill="#3D0F9A" stroke="#3D0F9A" stroke-width="0.5"/>
<path d="M198.882 228.227L181.929 238.093C180.559 238.887 178.356 238.887 176.986 238.093L140.341 216.932C139.647 216.535 139.309 216.018 139.309 215.482L139.27 222.053C139.27 222.569 139.607 223.105 140.302 223.502L176.927 244.643C178.296 245.437 180.52 245.437 181.87 244.643L198.822 234.777C199.497 234.38 199.835 233.864 199.835 233.348L199.874 226.778C199.874 227.294 199.537 227.81 198.862 228.207L198.882 228.227Z" fill="white" stroke="#3D0F9A"/>
<path d="M198.861 225.349C200.231 226.143 200.231 227.433 198.861 228.207L181.909 238.073C180.539 238.867 178.335 238.867 176.966 238.073L140.341 216.932C138.971 216.138 138.971 214.867 140.341 214.073L157.293 204.207C158.663 203.413 160.867 203.413 162.236 204.207L198.861 225.349Z" fill="#3D0F9A" stroke="#3D0F9A"/>
<path d="M179.884 238.668H179.348V245.239H179.884V238.668Z" fill="#3D0F9A" stroke="#3D0F9A" stroke-width="0.5"/>
<path d="M208.5 171.5H207V220L217 216L227 208.5V178.5L227.5 160.5L221.5 164L208.5 171.5Z" fill="#3D0F9A"/>
<path d="M198.882 177.111L181.929 186.977C180.559 187.771 178.356 187.771 176.986 186.977L140.341 165.816C139.647 165.419 139.309 164.903 139.309 164.367L139.27 212.724C139.27 213.24 139.607 213.776 140.302 214.173L176.927 235.314C178.296 236.108 180.52 236.108 181.87 235.314L198.822 225.448C199.497 225.051 199.835 224.535 199.835 224.019L199.874 175.662C199.874 176.178 199.537 176.695 198.862 177.092L198.882 177.111Z" fill="white" stroke="#3D0F9A"/>
<path d="M237 155L233.5 156.5V205L243.5 199.5L253.5 193.5V163.5V145L248.5 148.5L237 155Z" fill="#3D0F9A"/>
<path d="M252.31 149.256L235.258 159.161L235.278 165.633L252.31 155.727V149.256Z" fill="white"/>
<path d="M235.278 165.911C235.278 165.911 235.179 165.911 235.139 165.871C235.06 165.831 235 165.732 235 165.633V159.161C235 159.161 235.04 158.983 235.119 158.923L252.171 149.018C252.171 149.018 252.35 148.978 252.429 149.018C252.508 149.057 252.568 149.157 252.568 149.256V155.727C252.568 155.727 252.508 155.906 252.429 155.965L235.377 165.871C235.377 165.871 235.298 165.911 235.238 165.911H235.278ZM235.536 159.32V165.176L252.052 155.588V149.732L235.536 159.34V159.32Z" fill="white"/>
<path d="M252.31 158.05L235.258 167.975L235.278 171.489L252.31 161.583V158.05Z" fill="white"/>
<path d="M235.278 171.746C235.278 171.746 235.179 171.746 235.139 171.707C235.06 171.667 235 171.568 235 171.469V167.955C235 167.955 235.04 167.776 235.119 167.717L252.171 157.811C252.171 157.811 252.35 157.771 252.429 157.811C252.508 157.851 252.568 157.95 252.568 158.049V161.583C252.568 161.583 252.508 161.761 252.429 161.821L235.377 171.727C235.377 171.727 235.298 171.766 235.238 171.766L235.278 171.746ZM235.536 168.114V171.012L252.052 161.424V158.526L235.536 168.134V168.114Z" fill="white"/>
<path d="M198.861 174.232C200.231 175.026 200.231 176.317 198.861 177.091L181.909 186.957C180.539 187.751 178.335 187.751 176.966 186.957L140.341 165.816C138.971 165.022 138.971 163.751 140.341 162.957L157.293 153.091C158.663 152.297 160.867 152.297 162.236 153.091L198.861 174.232Z" fill="white" stroke="#3D0F9A"/>
<path d="M179.884 187.552H179.348V235.889H179.884V187.552Z" fill="#3D0F9A" stroke="#3D0F9A" stroke-width="0.5"/>
<path d="M162.093 168.065C162.697 168.065 163.186 167.79 163.186 167.449C163.186 167.109 162.697 166.833 162.093 166.833C161.489 166.833 161 167.109 161 167.449C161 167.79 161.489 168.065 162.093 168.065Z" fill="#3D0F9A"/>
<path d="M164.586 166.654C165.19 166.654 165.679 166.379 165.679 166.038C165.679 165.698 165.19 165.422 164.586 165.422C163.983 165.422 163.493 165.698 163.493 166.038C163.493 166.379 163.983 166.654 164.586 166.654Z" fill="#3D0F9A"/>
<path d="M167.08 165.232C167.684 165.232 168.173 164.956 168.173 164.616C168.173 164.276 167.684 164 167.08 164C166.477 164 165.987 164.276 165.987 164.616C165.987 164.956 166.477 165.232 167.08 165.232Z" fill="#3D0F9A"/>
<path d="M165.088 169.768C165.692 169.768 166.181 169.492 166.181 169.152C166.181 168.812 165.692 168.536 165.088 168.536C164.485 168.536 163.995 168.812 163.995 169.152C163.995 169.492 164.485 169.768 165.088 169.768Z" fill="#3D0F9A"/>
<path d="M167.581 168.345C168.185 168.345 168.674 168.069 168.674 167.729C168.674 167.389 168.185 167.113 167.581 167.113C166.978 167.113 166.488 167.389 166.488 167.729C166.488 168.069 166.978 168.345 167.581 168.345Z" fill="#3D0F9A"/>
<path d="M170.076 166.934C170.679 166.934 171.169 166.658 171.169 166.318C171.169 165.978 170.679 165.702 170.076 165.702C169.472 165.702 168.982 165.978 168.982 166.318C168.982 166.658 169.472 166.934 170.076 166.934Z" fill="#3D0F9A"/>
<path d="M168.071 171.459C168.674 171.459 169.164 171.183 169.164 170.843C169.164 170.503 168.674 170.227 168.071 170.227C167.467 170.227 166.978 170.503 166.978 170.843C166.978 171.183 167.467 171.459 168.071 171.459Z" fill="#3D0F9A"/>
<path d="M170.565 170.048C171.168 170.048 171.658 169.772 171.658 169.432C171.658 169.092 171.168 168.816 170.565 168.816C169.961 168.816 169.472 169.092 169.472 169.432C169.472 169.772 169.961 170.048 170.565 170.048Z" fill="#3D0F9A"/>
<path d="M173.058 168.626C173.662 168.626 174.151 168.35 174.151 168.01C174.151 167.669 173.662 167.394 173.058 167.394C172.454 167.394 171.965 167.669 171.965 168.01C171.965 168.35 172.454 168.626 173.058 168.626Z" fill="#3D0F9A"/>
<path d="M171.066 173.162C171.669 173.162 172.159 172.886 172.159 172.546C172.159 172.205 171.669 171.93 171.066 171.93C170.462 171.93 169.973 172.205 169.973 172.546C169.973 172.886 170.462 173.162 171.066 173.162Z" fill="#3D0F9A"/>
<path d="M173.559 171.739C174.163 171.739 174.652 171.463 174.652 171.123C174.652 170.783 174.163 170.507 173.559 170.507C172.955 170.507 172.466 170.783 172.466 171.123C172.466 171.463 172.955 171.739 173.559 171.739Z" fill="#3D0F9A"/>
<path d="M176.053 170.328C176.657 170.328 177.146 170.052 177.146 169.712C177.146 169.371 176.657 169.096 176.053 169.096C175.449 169.096 174.96 169.371 174.96 169.712C174.96 170.052 175.449 170.328 176.053 170.328Z" fill="#3D0F9A"/>
<path d="M190.093 152.065C190.697 152.065 191.186 151.79 191.186 151.449C191.186 151.109 190.697 150.833 190.093 150.833C189.489 150.833 189 151.109 189 151.449C189 151.79 189.489 152.065 190.093 152.065Z" fill="#3D0F9A"/>
<path d="M192.586 150.654C193.19 150.654 193.679 150.379 193.679 150.038C193.679 149.698 193.19 149.422 192.586 149.422C191.983 149.422 191.493 149.698 191.493 150.038C191.493 150.379 191.983 150.654 192.586 150.654Z" fill="#3D0F9A"/>
<path d="M195.08 149.232C195.684 149.232 196.173 148.956 196.173 148.616C196.173 148.276 195.684 148 195.08 148C194.477 148 193.987 148.276 193.987 148.616C193.987 148.956 194.477 149.232 195.08 149.232Z" fill="#3D0F9A"/>
<path d="M193.088 153.768C193.692 153.768 194.181 153.492 194.181 153.152C194.181 152.812 193.692 152.536 193.088 152.536C192.485 152.536 191.995 152.812 191.995 153.152C191.995 153.492 192.485 153.768 193.088 153.768Z" fill="#3D0F9A"/>
<path d="M195.581 152.345C196.185 152.345 196.674 152.069 196.674 151.729C196.674 151.389 196.185 151.113 195.581 151.113C194.978 151.113 194.488 151.389 194.488 151.729C194.488 152.069 194.978 152.345 195.581 152.345Z" fill="#3D0F9A"/>
<path d="M198.076 150.934C198.679 150.934 199.169 150.658 199.169 150.318C199.169 149.978 198.679 149.702 198.076 149.702C197.472 149.702 196.982 149.978 196.982 150.318C196.982 150.658 197.472 150.934 198.076 150.934Z" fill="#3D0F9A"/>
<path d="M196.071 155.459C196.674 155.459 197.164 155.183 197.164 154.843C197.164 154.503 196.674 154.227 196.071 154.227C195.467 154.227 194.978 154.503 194.978 154.843C194.978 155.183 195.467 155.459 196.071 155.459Z" fill="#3D0F9A"/>
<path d="M198.565 154.048C199.168 154.048 199.658 153.772 199.658 153.432C199.658 153.092 199.168 152.816 198.565 152.816C197.961 152.816 197.472 153.092 197.472 153.432C197.472 153.772 197.961 154.048 198.565 154.048Z" fill="#3D0F9A"/>
<path d="M201.058 152.626C201.662 152.626 202.151 152.35 202.151 152.01C202.151 151.669 201.662 151.394 201.058 151.394C200.454 151.394 199.965 151.669 199.965 152.01C199.965 152.35 200.454 152.626 201.058 152.626Z" fill="#3D0F9A"/>
<path d="M199.066 157.162C199.669 157.162 200.159 156.886 200.159 156.546C200.159 156.205 199.669 155.93 199.066 155.93C198.462 155.93 197.973 156.205 197.973 156.546C197.973 156.886 198.462 157.162 199.066 157.162Z" fill="#3D0F9A"/>
<path d="M201.559 155.739C202.163 155.739 202.652 155.463 202.652 155.123C202.652 154.783 202.163 154.507 201.559 154.507C200.955 154.507 200.466 154.783 200.466 155.123C200.466 155.463 200.955 155.739 201.559 155.739Z" fill="#3D0F9A"/>
<path d="M204.053 154.328C204.657 154.328 205.146 154.052 205.146 153.712C205.146 153.371 204.657 153.096 204.053 153.096C203.449 153.096 202.96 153.371 202.96 153.712C202.96 154.052 203.449 154.328 204.053 154.328Z" fill="#3D0F9A"/>
<path d="M217.093 137.065C217.697 137.065 218.186 136.79 218.186 136.449C218.186 136.109 217.697 135.833 217.093 135.833C216.489 135.833 216 136.109 216 136.449C216 136.79 216.489 137.065 217.093 137.065Z" fill="#3D0F9A"/>
<path d="M219.586 135.654C220.19 135.654 220.679 135.379 220.679 135.038C220.679 134.698 220.19 134.422 219.586 134.422C218.983 134.422 218.493 134.698 218.493 135.038C218.493 135.379 218.983 135.654 219.586 135.654Z" fill="#3D0F9A"/>
<path d="M222.08 134.232C222.684 134.232 223.173 133.956 223.173 133.616C223.173 133.276 222.684 133 222.08 133C221.477 133 220.987 133.276 220.987 133.616C220.987 133.956 221.477 134.232 222.08 134.232Z" fill="#3D0F9A"/>
<path d="M220.088 138.768C220.692 138.768 221.181 138.492 221.181 138.152C221.181 137.812 220.692 137.536 220.088 137.536C219.485 137.536 218.995 137.812 218.995 138.152C218.995 138.492 219.485 138.768 220.088 138.768Z" fill="#3D0F9A"/>
<path d="M222.581 137.345C223.185 137.345 223.674 137.069 223.674 136.729C223.674 136.389 223.185 136.113 222.581 136.113C221.978 136.113 221.488 136.389 221.488 136.729C221.488 137.069 221.978 137.345 222.581 137.345Z" fill="#3D0F9A"/>
<path d="M225.076 135.934C225.679 135.934 226.169 135.658 226.169 135.318C226.169 134.978 225.679 134.702 225.076 134.702C224.472 134.702 223.982 134.978 223.982 135.318C223.982 135.658 224.472 135.934 225.076 135.934Z" fill="#3D0F9A"/>
<path d="M223.071 140.459C223.674 140.459 224.164 140.183 224.164 139.843C224.164 139.503 223.674 139.227 223.071 139.227C222.467 139.227 221.978 139.503 221.978 139.843C221.978 140.183 222.467 140.459 223.071 140.459Z" fill="#3D0F9A"/>
<path d="M225.565 139.048C226.168 139.048 226.658 138.772 226.658 138.432C226.658 138.092 226.168 137.816 225.565 137.816C224.961 137.816 224.472 138.092 224.472 138.432C224.472 138.772 224.961 139.048 225.565 139.048Z" fill="#3D0F9A"/>
<path d="M228.058 137.626C228.662 137.626 229.151 137.35 229.151 137.01C229.151 136.669 228.662 136.394 228.058 136.394C227.454 136.394 226.965 136.669 226.965 137.01C226.965 137.35 227.454 137.626 228.058 137.626Z" fill="#3D0F9A"/>
<path d="M226.066 142.162C226.669 142.162 227.159 141.886 227.159 141.546C227.159 141.205 226.669 140.93 226.066 140.93C225.462 140.93 224.973 141.205 224.973 141.546C224.973 141.886 225.462 142.162 226.066 142.162Z" fill="#3D0F9A"/>
<path d="M228.559 140.739C229.163 140.739 229.652 140.463 229.652 140.123C229.652 139.783 229.163 139.507 228.559 139.507C227.955 139.507 227.466 139.783 227.466 140.123C227.466 140.463 227.955 140.739 228.559 140.739Z" fill="#3D0F9A"/>
<path d="M231.053 139.328C231.657 139.328 232.146 139.052 232.146 138.712C232.146 138.371 231.657 138.096 231.053 138.096C230.449 138.096 229.96 138.371 229.96 138.712C229.96 139.052 230.449 139.328 231.053 139.328Z" fill="#3D0F9A"/>
<path d="M165.014 198.67C165.384 198.46 165.384 197.777 165.013 197.145C164.642 196.513 164.041 196.171 163.671 196.381C163.3 196.591 163.301 197.274 163.672 197.906C164.043 198.538 164.644 198.88 165.014 198.67Z" fill="#3D0F9A"/>
<path d="M165.02 209.948C165.39 209.738 165.39 209.055 165.019 208.423C164.648 207.791 164.047 207.449 163.676 207.659C163.306 207.87 163.307 208.552 163.678 209.185C164.049 209.817 164.65 210.159 165.02 209.948Z" fill="#3D0F9A"/>
<path d="M159.014 195.67C159.384 195.46 159.384 194.777 159.013 194.145C158.642 193.513 158.041 193.171 157.671 193.381C157.3 193.591 157.301 194.274 157.672 194.906C158.043 195.538 158.644 195.88 159.014 195.67Z" fill="#3D0F9A"/>
<path d="M159.02 206.948C159.39 206.738 159.39 206.055 159.019 205.423C158.648 204.791 158.047 204.449 157.676 204.659C157.306 204.87 157.307 205.552 157.678 206.185C158.049 206.817 158.65 207.159 159.02 206.948Z" fill="#3D0F9A"/>
<path d="M153.014 191.67C153.384 191.46 153.384 190.777 153.013 190.145C152.642 189.513 152.041 189.171 151.671 189.381C151.3 189.591 151.301 190.274 151.672 190.906C152.043 191.538 152.644 191.88 153.014 191.67Z" fill="#3D0F9A"/>
<path d="M153.02 202.948C153.39 202.738 153.39 202.055 153.019 201.423C152.648 200.791 152.047 200.449 151.676 200.659C151.306 200.87 151.307 201.552 151.678 202.185C152.049 202.817 152.65 203.159 153.02 202.948Z" fill="#3D0F9A"/>
<path d="M30.895 178.366L30.71 206.414L18.4609 213.531L18.646 185.483L30.895 178.366Z" fill="#3D0F9A" stroke="#3D0F9A" stroke-linejoin="round"/>
<path d="M18.6457 185.482L18.4606 213.531L6.12744 206.413L6.31252 178.365L18.6457 185.482Z" fill="#FF5A00" stroke="#3D0F9A" stroke-linejoin="round"/>
<path d="M30.8942 178.365L18.6452 185.482L6.31201 178.365L18.561 171.248L30.8942 178.365Z" fill="white" stroke="#3D0F9A" stroke-linejoin="round"/>
<path d="M46.5073 160.245L46.3223 215.433L34.0732 222.55L34.2583 167.362L46.5073 160.245Z" fill="#3D0F9A" stroke="#3D0F9A" stroke-linejoin="round"/>
<path d="M34.259 167.362L34.0739 222.55L21.7407 215.433L21.9258 160.245L34.259 167.362Z" fill="white" stroke="#3D0F9A" stroke-linejoin="round"/>
<path d="M46.5075 160.245L34.2584 167.362L21.9253 160.245L34.1743 153.127L46.5075 160.245Z" fill="white" stroke="#3D0F9A" stroke-linejoin="round"/>
<path d="M225.84 164.545L208.788 174.451V180.922L225.84 171.016V164.545Z" fill="white"/>
<path d="M208.788 181.2C208.788 181.2 208.688 181.2 208.649 181.16C208.569 181.12 208.51 181.021 208.51 180.922V174.451C208.51 174.451 208.549 174.272 208.629 174.212L225.681 164.307C225.681 164.307 225.859 164.267 225.939 164.307C226.018 164.346 226.078 164.446 226.078 164.545V171.016C226.078 171.016 226.018 171.195 225.939 171.255L208.887 181.16C208.887 181.16 208.808 181.2 208.748 181.2H208.788ZM209.046 174.609V180.465L225.562 170.877V165.021L209.046 174.609Z" fill="white"/>
<path d="M225.84 173.398L208.788 183.304V186.818L225.84 176.912V173.398Z" fill="white"/>
<path d="M208.788 187.036C208.788 187.036 208.688 187.036 208.649 186.996C208.569 186.957 208.51 186.857 208.51 186.758V183.244C208.51 183.244 208.549 183.066 208.629 183.006L225.681 173.101C225.681 173.101 225.859 173.061 225.939 173.101C226.018 173.14 226.078 173.24 226.078 173.339V176.872C226.078 176.872 226.018 177.051 225.939 177.111L208.887 187.016C208.887 187.016 208.808 187.056 208.748 187.056L208.788 187.036ZM209.046 183.403V186.302L225.562 176.714V173.815L209.046 183.403Z" fill="white"/>
<path d="M181.463 186.908L180 187.5L179.5 238L190.5 231.5L200 224.5L199.512 193.849L200 176L194.146 179.471L181.463 186.908Z" fill="#3D0F9A"/>
<path d="M198.464 180.386L181.412 190.291V196.763L198.464 186.857V180.386Z" fill="#FF5A00"/>
<path d="M181.413 197.041C181.413 197.041 181.313 197.041 181.274 197.001C181.194 196.962 181.135 196.862 181.135 196.763V190.292C181.135 190.292 181.174 190.113 181.254 190.054L198.306 180.148C198.306 180.148 198.484 180.108 198.564 180.148C198.643 180.188 198.703 180.287 198.703 180.386V186.858C198.703 186.858 198.643 187.036 198.564 187.096L181.512 197.001C181.512 197.001 181.433 197.041 181.373 197.041H181.413ZM181.671 190.451V196.307L198.187 186.719V180.863L181.671 190.451Z" fill="#FF5A00"/>
<path d="M198.464 189.24L181.412 199.145V202.679L198.464 192.773V189.24Z" fill="#FF5A00"/>
<path d="M181.413 202.877C181.413 202.877 181.313 202.877 181.274 202.838C181.194 202.798 181.135 202.699 181.135 202.599V199.086C181.135 199.086 181.174 198.907 181.254 198.848L198.306 188.942C198.306 188.942 198.484 188.902 198.564 188.942C198.643 188.982 198.703 189.081 198.703 189.18V192.714C198.703 192.714 198.643 192.892 198.564 192.952L181.512 202.857C181.512 202.857 181.433 202.897 181.373 202.897L181.413 202.877ZM181.671 199.245V202.143L198.187 192.555V189.657L181.671 199.264V199.245Z" fill="#FF5A00"/>
<path d="M158.673 248.456L158.089 246.061H156.698C155.187 245.088 152.983 244.466 150.522 244.466C148.062 244.466 145.857 245.082 144.346 246.061H143.01L142.371 248.429H142.382C142.311 248.678 142.268 248.927 142.268 249.186C142.268 251.793 145.967 253.901 150.522 253.901C155.078 253.901 158.777 251.793 158.777 249.186C158.777 248.938 158.733 248.7 158.668 248.462L158.673 248.456Z" fill="#3D0F9A"/>
<path d="M150.527 254.166C145.825 254.166 142 251.928 142 249.181C142 249.024 142.016 248.867 142.044 248.694H142.033L142.115 248.353L142.807 245.785H144.275C145.885 244.774 148.16 244.19 150.533 244.19C152.906 244.19 155.176 244.769 156.791 245.785H158.318L158.951 248.391C159.028 248.683 159.066 248.932 159.066 249.181C159.066 251.928 155.241 254.166 150.538 254.166H150.527ZM142.731 248.159L142.644 248.505C142.573 248.754 142.54 248.975 142.54 249.186C142.54 251.636 146.119 253.631 150.522 253.631C154.925 253.631 158.504 251.636 158.504 249.186C158.504 248.986 158.471 248.781 158.406 248.532L157.876 246.337H156.622L156.556 246.293C155.028 245.309 152.83 244.747 150.527 244.747C148.225 244.747 146.026 245.309 144.499 246.293L144.433 246.337H143.222L142.731 248.164V248.159Z" fill="#3D0F9A"/>
<path d="M158.155 246.607C158.155 249.002 154.751 250.949 150.555 250.949C146.359 250.949 142.955 249.008 142.955 246.607C142.955 244.206 146.359 242.265 150.555 242.265C154.751 242.265 158.155 244.206 158.155 246.607Z" fill="white"/>
<path d="M158.067 247.84C158.067 250.235 154.663 252.182 150.467 252.182C146.272 252.182 142.867 250.241 142.867 247.84C142.867 245.439 146.272 243.498 150.467 243.498C154.663 243.498 158.067 245.439 158.067 247.84Z" fill="white"/>
<path d="M150.554 242C146.212 242 142.682 244.071 142.682 246.612C142.682 249.154 146.212 251.225 150.554 251.225C154.897 251.225 158.427 249.154 158.427 246.612C158.427 244.071 154.897 242 150.554 242ZM150.554 250.684C146.512 250.684 143.227 248.856 143.227 246.612C143.227 244.368 146.517 242.541 150.554 242.541C154.592 242.541 157.881 244.368 157.881 246.612C157.881 248.856 154.592 250.684 150.554 250.684Z" fill="#3D0F9A" stroke="#3D0F9A" stroke-width="0.5"/>
<path d="M150.527 244.32C148.394 244.32 146.659 245.228 146.659 246.353C146.659 247.478 148.389 248.386 150.527 248.386C152.666 248.386 154.395 247.478 154.395 246.353C154.395 245.228 152.666 244.32 150.527 244.32Z" fill="#3D0F9A"/>
<path d="M62.6727 242.456L62.0889 240.061H60.6977C59.1864 239.088 56.9823 238.466 54.5217 238.466C52.0611 238.466 49.857 239.082 48.3457 240.061H47.0091L46.3707 242.429H46.3817C46.3107 242.678 46.2671 242.927 46.2671 243.186C46.2671 245.793 49.9661 247.901 54.5217 247.901C59.0773 247.901 62.7763 245.793 62.7763 243.186C62.7763 242.938 62.7327 242.7 62.6672 242.462L62.6727 242.456Z" fill="#3D0F9A"/>
<path d="M54.5274 248.166C49.8245 248.166 46 245.928 46 243.181C46 243.024 46.0164 242.867 46.0436 242.694H46.0327L46.1146 242.353L46.8075 239.785H48.2751C49.8845 238.774 52.1596 238.19 54.5329 238.19C56.9061 238.19 59.1757 238.769 60.7907 239.785H62.3183L62.9511 242.391C63.0275 242.683 63.0657 242.932 63.0657 243.181C63.0657 245.928 59.2412 248.166 54.5383 248.166H54.5274ZM46.7311 242.159L46.6438 242.505C46.5729 242.754 46.5401 242.975 46.5401 243.186C46.5401 245.636 50.1191 247.631 54.5219 247.631C58.9248 247.631 62.5038 245.636 62.5038 243.186C62.5038 242.986 62.471 242.781 62.4056 242.532L61.8764 240.337H60.6215L60.5561 240.293C59.0284 239.309 56.8297 238.747 54.5274 238.747C52.2251 238.747 50.0264 239.309 48.4988 240.293L48.4333 240.337H47.2221L46.7311 242.164V242.159Z" fill="#3D0F9A"/>
<path d="M62.1544 240.607C62.1544 243.002 58.75 244.949 54.5545 244.949C50.359 244.949 46.9546 243.008 46.9546 240.607C46.9546 238.206 50.359 236.265 54.5545 236.265C58.75 236.265 62.1544 238.206 62.1544 240.607Z" fill="white"/>
<path d="M62.0675 241.84C62.0675 244.235 58.6631 246.182 54.4676 246.182C50.2721 246.182 46.8677 244.241 46.8677 241.84C46.8677 239.439 50.2721 237.498 54.4676 237.498C58.6631 237.498 62.0675 239.439 62.0675 241.84Z" fill="white"/>
<path d="M54.5548 236C50.212 236 46.6821 238.071 46.6821 240.612C46.6821 243.154 50.212 245.225 54.5548 245.225C58.8976 245.225 62.4275 243.154 62.4275 240.612C62.4275 238.071 58.8976 236 54.5548 236ZM54.5548 244.684C50.5121 244.684 47.2277 242.856 47.2277 240.612C47.2277 238.368 50.5176 236.541 54.5548 236.541C58.5921 236.541 61.882 238.368 61.882 240.612C61.882 242.856 58.5921 244.684 54.5548 244.684Z" fill="#3D0F9A" stroke="#3D0F9A" stroke-width="0.5"/>
<path d="M54.5273 238.32C52.3941 238.32 50.6592 239.228 50.6592 240.353C50.6592 241.478 52.3887 242.386 54.5273 242.386C56.666 242.386 58.3955 241.478 58.3955 240.353C58.3955 239.228 56.666 238.32 54.5273 238.32Z" fill="#3D0F9A"/>
</svg>
