<svg width="260" height="260" viewBox="0 0 260 260" fill="none" xmlns="http://www.w3.org/2000/svg">
<rect width="83.6817" height="121.977" rx="3.58545" transform="matrix(0.000110185 -1 0.866081 0.499904 122.233 88.2612)" stroke="#3D0F9A" stroke-dasharray="1.43 1.43"/>
<path d="M198.214 35.3713C198.214 32.5546 200.189 31.4065 202.638 32.8148L235.26 51.6441C237.71 53.0524 239.685 56.4815 239.685 59.2982V65.6512L198.23 41.709V35.3713H198.214Z" fill="#3D0F9A"/>
<path d="M239.185 64.9643L198.714 41.5908V84.6748C198.714 85.9749 199.173 87.4507 199.941 88.78C200.708 90.1094 201.757 91.2456 202.888 91.8955L202.888 91.8959L235.51 110.725C236.643 111.377 237.55 111.374 238.14 111.032C238.731 110.69 239.185 109.905 239.185 108.602V64.9643Z" fill="#3D0F9A" stroke="#3D0F9A"/>
<path d="M197 40.5L241 66" stroke="white"/>
<path d="M204.567 40.3525C204.567 41.424 203.817 41.8527 202.899 41.3169C201.98 40.7811 201.23 39.4952 201.23 38.4236C201.23 37.352 201.98 36.9234 202.899 37.4592C203.817 37.995 204.567 39.2809 204.567 40.3525Z" fill="white"/>
<path d="M203.649 41.7766C203.848 41.7766 204.031 41.7307 204.2 41.6388C204.583 41.4092 204.797 40.9653 204.797 40.3529C204.797 39.2048 204.016 37.8424 203.006 37.2606C202.485 36.9545 201.98 36.9239 201.597 37.1382C201.215 37.3678 201 37.8117 201 38.4241C201 39.5875 201.781 40.9346 202.791 41.5164C203.098 41.6848 203.389 41.7766 203.649 41.7766ZM204.338 40.3529C204.338 40.7816 204.2 41.103 203.955 41.2408C203.71 41.3786 203.373 41.3327 203.006 41.1183C202.149 40.6285 201.444 39.4191 201.444 38.4241C201.444 37.9954 201.582 37.674 201.827 37.5362C202.072 37.3984 202.409 37.4443 202.776 37.6587C203.633 38.1485 204.338 39.3579 204.338 40.3529Z" fill="#3D0F9A"/>
<path d="M209.833 43.3993C209.833 44.4709 209.083 44.8995 208.164 44.3638C207.246 43.828 206.496 42.5421 206.496 41.4705C206.496 40.3989 207.246 39.9703 208.164 40.5061C209.083 41.0418 209.833 42.3277 209.833 43.3993Z" fill="white"/>
<path d="M208.914 44.8235C209.113 44.8235 209.297 44.7776 209.465 44.6857C209.848 44.4561 210.062 44.0121 210.062 43.3998C210.062 42.2517 209.282 40.8892 208.271 40.3075C207.751 40.0014 207.246 39.9707 206.863 40.1851C206.48 40.4147 206.266 40.8586 206.266 41.471C206.266 42.6191 207.047 43.9815 208.057 44.5632C208.363 44.7316 208.654 44.8235 208.914 44.8235ZM209.603 43.3998C209.603 43.8284 209.465 44.1499 209.221 44.2877C208.976 44.4255 208.639 44.3795 208.271 44.1652C207.414 43.6754 206.71 42.466 206.71 41.471C206.71 41.0423 206.848 40.7208 207.093 40.5831C207.338 40.4453 207.674 40.4912 208.042 40.7055C208.899 41.1954 209.603 42.4048 209.603 43.3998Z" fill="#3D0F9A"/>
<path d="M215.099 46.4301C215.099 47.5017 214.349 47.9303 213.431 47.3945C212.512 46.8587 211.762 45.5728 211.762 44.5012C211.762 43.4297 212.512 43.001 213.431 43.5368C214.349 44.0726 215.099 45.3585 215.099 46.4301Z" fill="white"/>
<path d="M214.18 47.8542C214.379 47.8542 214.563 47.8083 214.732 47.7165C215.114 47.4868 215.329 47.0429 215.329 46.4306C215.329 45.2671 214.548 43.92 213.538 43.3383C213.017 43.0321 212.512 43.0015 212.129 43.2158C211.746 43.4454 211.532 43.8894 211.532 44.5017C211.532 45.6652 212.313 47.0123 213.323 47.594C213.629 47.7624 213.92 47.8542 214.18 47.8542ZM212.696 43.5373C212.879 43.5373 213.094 43.5985 213.323 43.7363C214.18 44.2262 214.885 45.4355 214.885 46.4306C214.885 46.8592 214.747 47.1807 214.502 47.3184C214.257 47.4562 213.92 47.4103 213.553 47.196C212.696 46.7061 211.991 45.4968 211.991 44.5017C211.991 44.0731 212.129 43.7516 212.374 43.6138C212.466 43.5526 212.573 43.5373 212.696 43.5373Z" fill="#3D0F9A"/>
<path d="M109.337 178.574C96.8454 185.781 96.7854 197.492 109.187 204.699C121.619 211.906 141.828 211.906 154.32 204.699C166.811 197.492 166.901 185.781 154.47 178.544C142.038 171.337 121.859 171.337 109.337 178.544V178.574Z" fill="white"/>
<path d="M100.238 191.697C100.238 186.848 103.562 182.273 109.502 178.835L109.502 178.835C115.716 175.246 123.851 173.47 131.948 173.47C140.045 173.47 148.15 175.246 154.334 178.835C160.214 182.243 163.478 186.788 163.447 191.608C163.447 196.457 160.123 201.032 154.184 204.469L154.184 204.469C147.97 208.059 139.842 209.849 131.734 209.849C123.626 209.849 115.52 208.059 109.351 204.469M100.238 191.697C100.238 191.697 100.238 191.697 100.238 191.697H100.388L100.238 191.696C100.238 191.697 100.238 191.697 100.238 191.697ZM100.238 191.697C100.208 196.516 103.471 201.061 109.351 204.469M109.351 204.469L109.426 204.339L109.351 204.469C109.351 204.469 109.351 204.469 109.351 204.469ZM154.484 204.99L154.484 204.99C160.674 201.431 164.048 196.668 164.048 191.607C164.048 186.606 160.734 181.872 154.634 178.314C148.401 174.697 140.186 172.884 131.952 172.884C123.717 172.884 115.479 174.697 109.201 178.314L109.201 178.315C103.011 181.873 99.6372 186.636 99.6372 191.697C99.6372 196.699 102.952 201.432 109.052 204.99C115.299 208.607 123.5 210.435 131.738 210.435C139.976 210.435 148.206 208.607 154.484 204.99Z" fill="#3D0F9A" stroke="#3D0F9A" stroke-width="0.3"/>
<path d="M147.803 195.091L155.46 190.647L145.972 136.746L138.284 141.19L147.803 195.091Z" fill="#3D0F9A"/>
<path d="M147.803 195.541C147.803 195.541 147.953 195.541 148.014 195.481L155.671 191.037C155.821 190.947 155.911 190.766 155.881 190.586L146.362 136.685C146.362 136.685 146.242 136.415 146.122 136.355C146.002 136.295 145.821 136.295 145.701 136.355L138.044 140.799C137.894 140.889 137.804 141.07 137.834 141.25L147.353 195.151C147.353 195.151 147.473 195.421 147.593 195.481C147.653 195.481 147.713 195.511 147.773 195.511L147.803 195.541ZM154.98 190.406L148.134 194.37L138.795 141.4L145.641 137.436L154.98 190.406Z" fill="#3D0F9A"/>
<path d="M138.284 141.19L145.972 136.746L118.886 121.161L111.199 125.605L138.284 141.19Z" fill="white"/>
<path d="M138.284 141.641C138.284 141.641 138.434 141.641 138.494 141.581L146.152 137.137C146.152 137.137 146.362 136.896 146.362 136.746C146.362 136.596 146.272 136.446 146.152 136.356L119.066 120.801C119.066 120.801 118.766 120.711 118.616 120.801L110.958 125.245C110.958 125.245 110.748 125.486 110.748 125.636C110.748 125.786 110.838 125.936 110.958 126.026L138.044 141.581C138.044 141.581 138.194 141.641 138.254 141.641H138.284ZM145.071 136.746L138.284 140.68L112.1 125.636L118.886 121.702L145.071 136.746Z" fill="#3D0F9A"/>
<path d="M111.199 125.605L120.718 179.536L147.803 195.091L138.284 141.19L111.199 125.605Z" fill="white"/>
<path d="M147.803 195.541C147.803 195.541 147.983 195.541 148.073 195.451C148.223 195.361 148.283 195.181 148.253 195.001L138.734 141.1C138.734 141.1 138.644 140.86 138.524 140.799L111.439 125.245C111.288 125.155 111.108 125.155 110.958 125.245C110.808 125.335 110.748 125.515 110.778 125.695L120.297 179.596C120.297 179.596 120.387 179.836 120.507 179.896L147.593 195.451C147.593 195.451 147.743 195.511 147.803 195.511V195.541ZM137.893 141.46L147.202 194.22L121.138 179.236L111.829 126.476L137.893 141.46Z" fill="#3D0F9A" stroke="#3D0F9A" stroke-width="0.3"/>
<path d="M99.9074 191.758V196.202C99.9074 200.917 103.03 205.601 109.186 209.175C121.618 216.382 141.827 216.382 154.319 209.175C160.625 205.541 163.748 200.767 163.748 196.022V191.578C163.748 196.353 160.595 201.097 154.319 204.731C141.827 211.937 121.618 211.937 109.186 204.731C103.03 201.157 99.9374 196.443 99.9074 191.758Z" fill="#3D0F9A"/>
<path d="M131.737 215C139.995 215 148.253 213.168 154.559 209.535C160.805 205.931 164.228 201.127 164.198 195.992V191.548C164.198 191.307 163.988 191.097 163.748 191.097C163.507 191.097 163.297 191.307 163.297 191.548C163.297 196.352 160.054 200.886 154.109 204.31C141.737 211.456 121.708 211.456 109.426 204.31C103.601 200.916 100.388 196.442 100.388 191.728C100.388 191.488 100.178 191.277 99.9375 191.277C99.6972 191.277 99.487 191.488 99.487 191.728V196.172C99.487 201.247 102.88 205.991 109.006 209.535C115.282 213.168 123.51 215 131.767 215H131.737ZM163.297 196.022C163.297 200.826 160.024 205.331 154.109 208.754C141.737 215.901 121.708 215.901 109.426 208.754C103.631 205.391 100.418 200.916 100.388 196.202C101.769 199.565 104.712 202.628 108.976 205.09C121.498 212.357 141.947 212.357 154.559 205.09C158.943 202.568 161.946 199.445 163.327 196.022H163.297Z" fill="#3D0F9A"/>
<path d="M60.6909 11.1672C60.6909 9.27543 61.3515 7.95419 62.4325 7.35362L66.6665 4.8913C67.7475 4.26071 69.2489 4.35079 70.9005 5.3117L209.061 85.0368C212.364 86.9286 215.006 91.553 215.006 95.3366L214.736 195.811C214.736 197.703 214.075 199.024 212.994 199.625L208.76 202.087C208.76 202.087 208.881 201.997 208.971 201.937C207.89 202.688 206.298 202.688 204.526 201.667L66.3962 121.942C63.0931 120.05 60.4506 115.425 60.4506 111.642L60.7209 11.1672H60.6909Z" fill="#3D0F9A"/>
<path d="M207.169 202.898C207.8 202.898 208.37 202.748 208.881 202.478C208.911 202.478 208.941 202.478 208.971 202.448L213.205 199.986C214.466 199.265 215.157 197.764 215.157 195.782L215.427 95.307C215.427 91.4034 212.664 86.5988 209.271 84.617L71.1407 4.89178C69.3991 3.87082 67.7175 3.72068 66.4563 4.47139L62.2223 6.93371C60.9611 7.65439 60.2705 9.1558 60.2705 11.1377L60.0002 111.612C60.0002 115.546 62.7628 120.321 66.156 122.302L204.286 202.028C205.277 202.598 206.268 202.898 207.169 202.898ZM208.67 201.547C207.679 202.238 206.238 202.118 204.707 201.247L66.5764 121.522C63.4234 119.69 60.841 115.246 60.871 111.612L61.1413 11.1377C61.1413 9.48612 61.6818 8.25496 62.6727 7.68442L66.8767 5.25212C67.8676 4.68159 69.2189 4.83173 70.6603 5.67252L208.821 85.4277C211.974 87.2594 214.556 91.7036 214.526 95.3371L214.256 195.812C214.256 197.463 213.715 198.695 212.754 199.265L208.821 201.547C208.821 201.547 208.7 201.577 208.67 201.607V201.547Z" fill="#3D0F9A" stroke="#3D0F9A" stroke-width="0.3"/>
<path d="M62.4622 7.32392C61.3811 7.95451 60.7205 9.27576 60.6905 11.1675L60.4202 111.642C60.4202 115.426 63.0627 120.02 66.3658 121.942L204.496 201.667C207.799 203.559 210.472 202.027 210.472 198.244L210 97.5C210 93.7164 207.803 89.9218 204.5 88L66.6661 7.74431C65.0146 6.78341 63.5432 6.69332 62.4321 7.32392H62.4622Z" fill="white"/>
<path d="M207.169 202.898C207.8 202.898 208.4 202.747 208.941 202.447C210.202 201.727 210.923 200.225 210.923 198.243L211.193 107.227C211.193 106.987 210.983 106.777 210.742 106.777C210.502 106.777 210.292 106.987 210.292 107.227L210.022 198.243C210.022 199.895 209.481 201.126 208.49 201.697C207.499 202.267 206.148 202.117 204.707 201.276L66.5765 121.551C63.4235 119.719 60.8411 115.275 60.8711 111.642L61.1414 11.1669C61.1414 9.5153 61.6819 8.28414 62.6728 7.7136C63.6638 7.14306 64.985 7.29321 66.4564 8.134L196.449 83.1748C196.659 83.2949 196.929 83.2348 197.05 83.0246C197.17 82.8144 197.11 82.5442 196.899 82.424L66.9068 7.35326C65.1652 6.36233 63.5136 6.21219 62.2524 6.93287C60.9912 7.65355 60.2706 9.15496 60.2706 11.1669L60.0003 111.642C60.0003 115.575 62.7629 120.35 66.1561 122.332L204.286 202.057C205.307 202.627 206.298 202.928 207.169 202.928V202.898Z" fill="#3D0F9A" stroke="#3D0F9A" stroke-width="0.3"/>
<path d="M70.9006 116.866L200.263 191.546C202.605 192.898 204.497 191.817 204.497 189.084V98.3085C204.497 95.606 202.605 92.3029 200.263 90.9516L70.9006 16.3012C68.5584 14.9499 66.6666 16.031 66.6666 18.7635V109.539C66.6666 112.242 68.5584 115.545 70.9006 116.896V116.866Z" stroke="#3D0F9A"/>
<path d="M145.105 212.203V221.573L200.223 256.744V247.309L145.105 212.203Z" fill="#3D0F9A"/>
<path d="M200.223 257.706C200.223 257.706 200.515 257.706 200.632 257.578C200.925 257.385 201.042 257.064 201.042 256.743V247.309C201.042 246.988 200.866 246.667 200.632 246.475L145.515 211.304C145.515 211.304 144.93 211.112 144.637 211.304C144.345 211.497 144.227 211.818 144.227 212.139V221.573C144.227 221.894 144.403 222.215 144.637 222.407L199.755 257.578C199.755 257.578 200.047 257.706 200.164 257.706H200.223ZM199.345 247.886V255.075L145.924 221.06V213.872L199.345 247.886Z" fill="#3D0F9A"/>
<path d="M200.154 247.614V257.215L256.002 221.908V212.548L200.154 247.614Z" fill="white" stroke="#3D0F9A" stroke-width="0.946586" stroke-linejoin="round"/>
<path d="M144.778 211.602L200.575 247.31L256.044 212.204L200.926 177.034L144.778 211.602Z" fill="white" stroke="#3D0F9A" stroke-width="0.946586" stroke-linejoin="round"/>
<path d="M145.4 195.711V205.081L200.576 240.251V230.817L145.4 195.711Z" fill="#3D0F9A"/>
<path d="M200.295 240.946C200.295 240.946 200.583 240.946 200.698 240.818C200.986 240.626 201.101 240.305 201.101 239.985V230.572C201.101 230.252 200.928 229.932 200.698 229.74L146.517 194.648C146.517 194.648 145.942 194.456 145.655 194.648C145.367 194.84 145.252 195.161 145.252 195.481V204.894C145.252 205.214 145.425 205.534 145.655 205.726L199.835 240.818C199.835 240.818 200.123 240.946 200.238 240.946H200.295ZM199.433 231.148V238.32L146.92 204.382V197.21L199.433 231.148Z" fill="#3D0F9A"/>
<path d="M200.575 230.817V240.739L256.044 205.081V195.711L200.575 230.817Z" fill="white" stroke="#3D0F9A" stroke-width="0.946586" stroke-linejoin="round"/>
<path d="M145.399 195.71L200.575 230.816L256.044 195.71L200.926 160.54L145.399 195.71Z" fill="white" stroke="#3D0F9A" stroke-width="0.946586" stroke-linejoin="round"/>
<path d="M132.878 187.563V196.997L187.996 232.103V222.733L132.878 187.563Z" fill="#3D0F9A"/>
<path d="M187.995 233.067C187.995 233.067 188.288 233.067 188.405 232.938C188.697 232.746 188.814 232.425 188.814 232.104V222.67C188.814 222.349 188.639 222.028 188.405 221.835L133.287 186.665C133.287 186.665 132.702 186.473 132.41 186.665C132.117 186.858 132 187.179 132 187.5V196.934C132 197.255 132.176 197.576 132.41 197.768L187.527 232.938C187.527 232.938 187.82 233.067 187.937 233.067H187.995ZM187.118 223.247V230.435L133.697 196.42V189.232L187.118 223.247Z" fill="#3D0F9A"/>
<path d="M187.995 222.732V232.102L243.522 196.996V187.562L187.995 222.732Z" fill="white" stroke="#3D0F9A" stroke-width="0.946586" stroke-linejoin="round"/>
<path d="M212.628 207.137L243.522 187.563L188.346 152.393L132.946 186.99L187.995 222.733L212.628 207.137Z" fill="white" stroke="#3D0F9A" stroke-width="0.946586" stroke-linejoin="round"/>
<path d="M132.473 171.845V181.311L187.848 216.808L187.996 207.137L132.473 171.845Z" fill="#3D0F9A"/>
<path d="M187.995 207.136V216.335L243.522 181.4V171.966L187.995 207.136Z" fill="white" stroke="#3D0F9A" stroke-width="0.946586" stroke-linejoin="round"/>
<path d="M132.946 171.845L187.995 207.135L243.522 171.964L188.346 136.858L132.946 171.845Z" fill="white" stroke="#3D0F9A" stroke-width="0.946586" stroke-linejoin="round"/>
<path d="M51.5089 179.532C51.5089 182.522 49.5157 185.559 45.5767 187.837C37.6988 192.393 24.9328 192.393 17.0549 187.837C13.1635 185.559 11.2177 182.617 11.1703 179.627L7.13641 133.166C7.65844 136.251 9.98384 139.288 14.0652 141.661C23.4617 147.119 38.7904 147.119 48.2818 141.661C52.458 139.241 54.7834 136.203 55.3055 133.071L51.5089 179.579V179.532ZM7.13641 133.166C7.04149 132.692 7.0415 132.264 6.99404 131.79L7.13641 133.166ZM55.3055 133.024L55.4004 131.647C55.4004 132.122 55.4004 132.549 55.3055 133.024Z" fill="white"/>
<path d="M7.13641 133.166L11.1703 179.627C11.2177 182.617 13.1635 185.559 17.0549 187.837C24.9328 192.393 37.6988 192.393 45.5767 187.837C49.5157 185.559 51.5089 182.522 51.5089 179.532V179.579L55.3055 133.071C54.7834 136.203 52.458 139.241 48.2818 141.661C38.7904 147.119 23.4617 147.119 14.0652 141.661C9.98384 139.288 7.65844 136.251 7.13641 133.166ZM7.13641 133.166C7.04149 132.692 7.0415 132.264 6.99404 131.79L7.13641 133.166ZM55.3055 133.024L55.4004 131.647C55.4004 132.122 55.4004 132.549 55.3055 133.024Z" stroke="#3D0F9A"/>
<path d="M14.1596 121.823C4.66815 127.28 4.62071 136.155 14.0647 141.66C23.4612 147.117 38.7899 147.117 48.2813 141.66C57.7728 136.202 57.8202 127.328 48.3763 121.823C38.9797 116.365 23.651 116.365 14.1596 121.823Z" fill="#3D0F9A"/>
<path d="M31.1493 146.407C37.4611 146.407 43.8204 145.03 48.6136 142.23C53.4542 139.43 56.1118 135.681 56.1118 131.695C56.1118 127.708 53.5017 123.959 48.7085 121.207C39.1221 115.607 23.4613 115.607 13.78 121.207C8.93935 124.007 6.28174 127.756 6.28174 131.742C6.28174 135.729 8.89187 139.478 13.6851 142.23C18.4782 145.03 24.7901 146.407 31.1019 146.407H31.1493ZM31.2917 118.407C37.3662 118.407 43.4407 119.736 48.0441 122.441C52.3627 124.956 54.7356 128.23 54.7356 131.695C54.7356 135.207 52.3152 138.529 47.9492 141.044C38.695 146.407 23.6511 146.407 14.4444 141.044C10.1258 138.529 7.7529 135.254 7.7529 131.79C7.7529 128.278 10.1732 125.003 14.5393 122.441C19.1901 119.783 25.2646 118.407 31.3391 118.407H31.2917Z" fill="#3D0F9A"/>
<path d="M12.6406 137.627C22.8439 143.559 39.5014 143.559 49.7521 137.627C54.925 134.637 57.5351 130.698 57.4876 126.807V130.793C57.4876 134.732 54.925 138.624 49.7521 141.613C39.4539 147.545 22.8439 147.545 12.6406 141.613C7.56268 138.671 5.04744 134.779 4.99999 130.935V126.949C4.99999 130.793 7.5627 134.685 12.5932 137.627H12.6406Z" fill="#3D0F9A" stroke="#3D0F9A"/>
<path d="M12.7831 116.128C2.48492 122.06 2.43744 131.694 12.6407 137.626C22.844 143.559 39.5015 143.559 49.7523 137.626C60.0505 131.694 60.098 122.06 49.8947 116.128C39.6914 110.196 23.0339 110.196 12.7831 116.128Z" fill="white" stroke="#3D0F9A"/>
<path d="M14.8712 111.951C5.7594 117.219 5.71196 125.761 14.7763 131.029C23.8406 136.296 38.5998 136.296 47.7116 131.029C56.8234 125.761 56.8708 117.219 47.8065 111.951C38.7422 106.683 23.983 106.683 14.8712 111.951Z" fill="white" stroke="#3D0F9A"/>
<path d="M54.5923 125.286C54.5923 128.75 52.3143 132.262 47.711 134.872C38.5992 140.14 23.84 140.14 14.7757 134.872C10.2672 132.262 8.03675 128.845 7.9893 125.381V121.537C7.9893 124.954 10.2198 128.418 14.7282 131.028C23.7925 136.296 38.5517 136.296 47.6635 131.028C52.2669 128.371 54.5923 124.98 54.5923 121.516V124.047V125.286Z" fill="#3D0F9A" stroke="#3D0F9A"/>
<path d="M18.1457 129.084C25.3592 133.26 37.0337 133.26 44.2946 129.084C45.6234 128.325 46.715 127.47 47.5217 126.569C51.2708 122.535 50.2268 117.362 44.3421 113.945C37.1286 109.769 25.4541 109.769 18.1932 113.945C15.7729 115.321 14.1593 117.03 13.3525 118.786C11.739 122.345 13.3525 126.284 18.0982 129.084H18.1457Z" fill="#3D0F9A"/>
<path d="M31.1967 132.928C36.0373 132.928 40.9254 131.836 44.6271 129.701C46.0033 128.941 47.1423 128.04 48.044 127.043C49.8948 125.05 50.7016 122.772 50.3694 120.446C49.9423 117.741 47.9491 115.226 44.722 113.328C37.3661 109.057 25.312 109.057 17.8612 113.328C15.3935 114.752 13.6375 116.555 12.7358 118.501C10.885 122.535 12.8307 126.806 17.7663 129.701C21.468 131.836 26.3086 132.928 31.1967 132.928ZM31.2916 111.525C35.895 111.525 40.4983 112.521 44.0101 114.562C46.8576 116.223 48.6135 118.406 48.9457 120.636C49.2304 122.487 48.566 124.385 46.9999 126.046C46.1932 126.901 45.1491 127.707 43.9152 128.419C36.8916 132.501 25.4544 132.501 18.4782 128.419C14.1596 125.904 12.4985 122.392 14.0172 119.023C14.7765 117.314 16.3426 115.748 18.5731 114.514C22.0849 112.474 26.6883 111.477 31.2916 111.477V111.525Z" fill="#3D0F9A"/>
<path d="M18.1454 129.082C25.3589 133.259 37.0334 133.259 44.2943 129.082C45.6231 128.323 46.7147 127.469 47.5214 126.567C49.135 123.008 47.5689 119.069 42.7757 116.269C35.5622 112.093 23.8877 112.093 16.6268 116.269C15.298 117.028 14.2065 117.882 13.3522 118.784C11.7387 122.343 13.3522 126.282 18.098 129.082H18.1454Z" fill="#3D0F9A"/>
<path d="M31.196 132.927C36.0366 132.927 40.9247 131.835 44.6263 129.699C46.0026 128.94 47.1416 128.038 48.0433 127.042C48.0907 126.994 48.1382 126.947 48.1856 126.852C50.0365 122.818 48.0907 118.547 43.1552 115.652C35.7993 111.381 23.7452 111.381 16.2944 115.652C14.9181 116.411 13.7792 117.313 12.8775 118.31C12.83 118.357 12.7826 118.405 12.7351 118.5C10.8843 122.533 12.83 126.805 17.7656 129.699C21.4672 131.835 26.3079 132.927 31.196 132.927ZM46.9518 126.188C46.145 127.042 45.1484 127.801 43.9619 128.513C36.9383 132.594 25.5011 132.594 18.5249 128.513C14.2537 126.045 12.5453 122.581 14.0164 119.211C14.8232 118.357 15.8198 117.598 17.0063 116.886C24.0299 112.805 35.4671 112.805 42.4433 116.886C46.7145 119.354 48.4229 122.818 46.9518 126.188Z" fill="#3D0F9A"/>
<path d="M19.0472 125.905L21.7048 127.424C22.559 127.898 23.9353 127.898 24.7895 127.424C25.6437 126.949 25.6437 126.142 24.7895 125.62L22.1319 124.102C21.2776 123.627 19.9014 123.627 19.0472 124.102C18.193 124.576 18.193 125.383 19.0472 125.905Z" fill="white"/>
<path d="M9.33594 152.84L10.8359 169.86C11.8075 170.773 13.1298 171.835 14.5641 172.617C18.2655 174.66 22.9385 175.834 27.7502 176.225C34.8754 176.79 42.4169 175.573 47.9227 172.617C49.4958 171.748 50.7913 170.835 51.8091 169.835L53.3359 152.36C52.1793 154.012 50.3749 155.577 47.9227 156.924C42.4169 159.924 34.8754 161.141 27.7502 160.532C22.8922 160.141 18.2655 158.924 14.5641 156.924C12.2045 155.664 10.4926 154.448 9.33594 152.84Z" fill="#FF5A00"/>
<path d="M79.5371 111.939L110.905 130.032C113.398 131.488 115.442 130.312 115.442 127.427V116.56C115.442 113.675 113.426 110.174 110.905 108.718L79.5371 90.6254C77.0445 89.169 74.9999 90.3453 74.9999 93.2301V104.097C74.9999 106.982 77.0165 110.482 79.5371 111.939Z" fill="#FF5A00"/>
<path d="M47.037 217.004C45.5006 217.9 42.9972 217.9 41.4498 217.004L13.1826 200.578C12.4034 200.127 12.0166 199.532 12.0166 198.937C12.0111 200.906 12.0055 202.869 12 204.839C12 205.434 12.3868 206.023 13.1661 206.48L41.4277 222.906C42.9751 223.802 45.4785 223.802 47.0148 222.906L94.569 195.087L94.5855 189.185L47.0314 217.004H47.037Z" fill="#3D0F9A" stroke="#3D0F9A" stroke-width="0.75" stroke-linecap="round" stroke-linejoin="round"/>
<path d="M94.5852 189.191L47.0311 217.01C45.4947 217.906 42.9913 217.906 41.4439 217.01L13.1823 200.578C11.6349 199.677 11.6294 198.219 13.1657 197.324L60.7198 169.504L94.5852 189.185V189.191Z" fill="white" stroke="#3D0F9A" stroke-width="0.75" stroke-linecap="round" stroke-linejoin="round"/>
<path d="M93.4526 189.853V195.743" stroke="#3D0F9A" stroke-width="0.75" stroke-linecap="round" stroke-linejoin="round"/>
<path d="M66.5722 172.286C66.5722 172.486 66.5556 172.692 66.528 172.897L69.5122 174.628C69.5398 174.427 69.5564 174.221 69.5564 174.027C69.5564 173.048 69.2082 172.358 68.6556 172.035L65.6714 170.289C66.224 170.611 66.5667 171.301 66.5722 172.28V172.286Z" fill="#3D0F9A" stroke="#3D0F9A" stroke-width="0.75" stroke-linecap="round" stroke-linejoin="round"/>
<path d="M66.8154 168.319C65.9644 167.819 64.7818 167.891 63.472 168.648C61.8196 169.61 60.3662 171.44 59.5317 173.42L62.516 175.167C63.3504 173.187 64.7983 171.357 66.4562 170.394C67.7605 169.638 68.9431 169.565 69.7997 170.066C68.8049 169.482 67.8102 168.903 66.8154 168.319Z" fill="white" stroke="#3D0F9A" stroke-width="0.75" stroke-linecap="round" stroke-linejoin="round"/>
<path d="M66.4619 172.258C68.164 171.267 69.5511 172.063 69.5567 174.032C69.5567 174.227 69.5401 174.427 69.5125 174.633L70.8111 175.389C71.0377 174.616 71.1648 173.837 71.1648 173.098C71.1538 170.099 69.0482 168.887 66.4564 170.394C64.804 171.356 63.3506 173.187 62.5161 175.167L64.7266 173.882C65.2185 173.209 65.8153 172.63 66.4564 172.258H66.4619Z" fill="#3D0F9A" stroke="#3D0F9A" stroke-width="0.75" stroke-linecap="round" stroke-linejoin="round"/>
<path d="M72.4247 175.685C72.4247 175.885 72.4081 176.091 72.3805 176.296L75.3647 178.026C75.3924 177.826 75.4089 177.626 75.4089 177.426C75.4089 176.447 75.0608 175.757 74.5081 175.434L71.5239 173.688C72.0766 174.01 72.4192 174.7 72.4247 175.679V175.685Z" fill="#3D0F9A" stroke="#3D0F9A" stroke-width="0.75" stroke-linecap="round" stroke-linejoin="round"/>
<path d="M72.668 171.718C71.8114 171.218 70.6343 171.29 69.3246 172.046C67.6722 173.009 66.2188 174.839 65.3843 176.819L68.3685 178.566C69.203 176.586 70.6509 174.756 72.3088 173.793C73.613 173.037 74.7956 172.964 75.6522 173.465C74.6575 172.881 73.6627 172.302 72.668 171.718Z" fill="white" stroke="#3D0F9A" stroke-width="0.75" stroke-linecap="round" stroke-linejoin="round"/>
<path d="M72.314 175.657C74.0161 174.666 75.4032 175.462 75.4087 177.431C75.4087 177.626 75.3921 177.826 75.3645 178.032L76.6632 178.788C76.8898 178.015 77.0169 177.236 77.0169 176.497C77.0058 173.498 74.9003 172.286 72.3084 173.793C70.6561 174.755 69.2026 176.586 68.3682 178.566L70.5787 177.281C71.0705 176.608 71.6674 176.029 72.3084 175.657H72.314Z" fill="#3D0F9A" stroke="#3D0F9A" stroke-width="0.75" stroke-linecap="round" stroke-linejoin="round"/>
<path d="M78.2826 179.083C78.2826 179.284 78.2661 179.49 78.2384 179.695L81.2226 181.425C81.2503 181.225 81.2668 181.019 81.2668 180.825C81.2668 179.846 80.9187 179.156 80.3661 178.833L77.3818 177.086C77.9345 177.409 78.2771 178.099 78.2826 179.078V179.083Z" fill="#3D0F9A" stroke="#3D0F9A" stroke-width="0.75" stroke-linecap="round" stroke-linejoin="round"/>
<path d="M78.5259 175.117C77.6748 174.617 76.4922 174.689 75.1825 175.445C73.5246 176.408 72.0767 178.238 71.2422 180.218L74.2264 181.965C75.0609 179.985 76.5088 178.154 78.1667 177.192C79.4709 176.436 80.6535 176.363 81.5101 176.864C80.5154 176.285 79.5206 175.701 78.5259 175.117Z" fill="white" stroke="#3D0F9A" stroke-width="0.75" stroke-linecap="round" stroke-linejoin="round"/>
<path d="M78.1719 179.055C79.874 178.065 81.2611 178.861 81.2666 180.83C81.2666 181.025 81.25 181.225 81.2224 181.431L82.5211 182.187C82.7477 181.414 82.8748 180.635 82.8748 179.895C82.8637 176.897 80.7582 175.684 78.1663 177.192C76.514 178.154 75.0606 179.984 74.2261 181.965L76.4366 180.68C76.9285 180.007 77.5253 179.428 78.1663 179.055H78.1719Z" fill="#3D0F9A" stroke="#3D0F9A" stroke-width="0.75" stroke-linecap="round" stroke-linejoin="round"/>
<path d="M84.1352 182.482C84.1352 182.682 84.1186 182.888 84.091 183.094L87.0752 184.824C87.1028 184.624 87.1194 184.418 87.1194 184.223C87.1194 183.244 86.7712 182.56 86.2186 182.232L83.2344 180.485C83.787 180.808 84.1296 181.497 84.1352 182.476V182.482Z" fill="#3D0F9A" stroke="#3D0F9A" stroke-width="0.75" stroke-linecap="round" stroke-linejoin="round"/>
<path d="M84.3779 178.516C83.5269 178.015 82.3443 178.087 81.0345 178.844C79.3766 179.806 77.9287 181.636 77.0942 183.617L80.0785 185.363C80.9129 183.383 82.3608 181.553 84.0187 180.591C85.3229 179.834 86.5056 179.762 87.3622 180.262C86.3674 179.684 85.3727 179.1 84.3779 178.521V178.516Z" fill="white" stroke="#3D0F9A" stroke-width="0.75" stroke-linecap="round" stroke-linejoin="round"/>
<path d="M84.0244 182.454C85.7265 181.464 87.1136 182.26 87.1192 184.229C87.1192 184.424 87.1026 184.624 87.075 184.83L88.3736 185.586C88.6002 184.807 88.7273 184.029 88.7273 183.294C88.7163 180.296 86.6107 179.083 84.0189 180.591C82.3665 181.553 80.9131 183.383 80.0786 185.364L82.2891 184.079C82.781 183.4 83.3778 182.827 84.0189 182.454H84.0244Z" fill="#3D0F9A" stroke="#3D0F9A" stroke-width="0.75" stroke-linecap="round" stroke-linejoin="round"/>
<path d="M89.9931 185.881C89.9931 186.081 89.9765 186.287 89.9489 186.493L92.9331 188.223C92.9607 188.022 92.9773 187.822 92.9773 187.622C92.9773 186.643 92.6291 185.959 92.0765 185.63L89.0923 183.884C89.6449 184.206 89.9876 184.896 89.9931 185.875V185.881Z" fill="#3D0F9A" stroke="#3D0F9A" stroke-width="0.75" stroke-linecap="round" stroke-linejoin="round"/>
<path d="M90.2359 181.915C89.3848 181.414 88.2022 181.486 86.8924 182.243C85.2345 183.205 83.7866 185.035 82.9521 187.016L85.9364 188.762C86.7708 186.782 88.2187 184.952 89.8766 183.989C91.1809 183.233 92.3635 183.161 93.2201 183.661C92.2253 183.083 91.2306 182.499 90.2359 181.915Z" fill="white" stroke="#3D0F9A" stroke-width="0.75" stroke-linecap="round" stroke-linejoin="round"/>
<path d="M89.8822 185.853C91.5843 184.863 92.9714 185.658 92.9769 187.627C92.9769 187.822 92.9603 188.022 92.9327 188.228L94.2369 188.985C94.4635 188.206 94.5906 187.433 94.5906 186.693C94.5796 183.695 92.474 182.482 89.8822 183.989C88.2298 184.952 86.7764 186.782 85.9419 188.762L88.1524 187.477C88.6443 186.804 89.2411 186.226 89.8822 185.853Z" fill="#3D0F9A" stroke="#3D0F9A" stroke-width="0.75" stroke-linecap="round" stroke-linejoin="round"/>
<path d="M80.1615 189.257L58.7856 176.836C58.0396 176.402 56.8293 176.402 56.0888 176.836L45.749 182.882C45.0029 183.316 45.0029 184.023 45.749 184.457L67.1249 196.878C67.8709 197.312 69.0867 197.312 69.8272 196.878L80.167 190.832C80.9131 190.398 80.9075 189.691 80.1559 189.257H80.1615Z" fill="#3D0F9A" stroke="#3D0F9A" stroke-width="0.75" stroke-linecap="round" stroke-linejoin="round"/>
<path d="M36.2424 238.508L37.4502 241.634L36.223 243.352C36.223 243.352 33.5168 243.927 31.1722 244.386C31.4112 242.293 29.5898 241.402 29.5898 241.402C31.4887 239.458 33.8074 237.1 33.8074 237.1L36.2424 238.502V238.508Z" fill="white"/>
<path d="M86.5833 210.685C86.6057 210.565 86.6131 210.454 86.6206 210.334C86.6206 210.297 86.6206 210.252 86.6206 210.207C86.6206 210.163 86.6206 210.111 86.6206 210.058C86.6057 209.685 86.5907 209.439 86.4341 208.917C86.4117 208.828 86.3222 208.604 86.2924 208.522C86.2178 208.358 86.1258 208.174 86.0165 207.97C85.9642 207.881 85.7778 207.552 85.3974 207.15C85.1364 206.866 84.853 206.68 84.7038 206.575C84.2638 206.27 83.6 206.038 83.0928 206.008C82.9586 206.001 82.6006 205.979 82.25 206.061C81.9517 206.128 81.7205 206.202 81.3625 206.404L76.8801 209.007C76.3953 209.29 76.0969 209.894 76.1119 210.759C76.1342 212.452 77.335 214.489 78.7968 215.294C79.5128 215.697 80.1617 215.727 80.6316 215.451C81.9741 214.668 83.7715 213.623 85.114 212.848C85.2557 212.758 85.3601 212.691 85.4571 212.609C85.554 212.527 85.651 212.445 85.7629 212.326C85.927 212.162 86.1134 211.901 86.1955 211.751C86.2104 211.722 86.2327 211.677 86.2626 211.625C86.285 211.58 86.3073 211.535 86.3297 211.49C86.3297 211.475 86.3446 211.46 86.3521 211.446C86.367 211.416 86.3745 211.386 86.3894 211.349C86.4043 211.304 86.4267 211.259 86.4416 211.207C86.4416 211.192 86.449 211.177 86.4565 211.155C86.4714 211.11 86.4863 211.073 86.4938 211.028C86.4938 211.013 86.5012 210.991 86.5087 210.976C86.5087 210.961 86.5162 210.946 86.5236 210.931C86.546 210.841 86.5609 210.752 86.5758 210.662L86.5833 210.685Z" fill="#FF5A00" stroke="#FF5A00" stroke-width="1.15475" stroke-linecap="round" stroke-linejoin="round"/>
<path d="M14.9983 246.887C14.9983 246.887 17.1016 247.917 16.8256 250.333C15.0878 250.684 13.5365 250.989 13.0965 251.034C11.9852 251.161 11.6794 250.378 12.3656 249.617C12.7534 249.192 13.805 248.103 14.9909 246.88L14.9983 246.887Z" fill="#3D0F9A"/>
<path d="M81.6979 209.372L78.5729 211.192L75.5 213L74.5 210L78.8862 207.753L81.6979 209.372Z" fill="white"/>
<path d="M83.0173 212.928L80.7078 216.393L75.5114 218.125L73.7793 214.083L78.5731 211.192L81.6981 209.372L83.0173 212.928Z" fill="white"/>
<path d="M83.017 213.506L81.6757 214.966L78.5656 216.778L22.6509 249.14" stroke="#3D0F9A" stroke-linecap="round" stroke-linejoin="round"/>
<path d="M19.8618 241.92L75.8063 209.543L78.8866 207.753L81.6984 209.372L78.5734 211.192L22.6736 243.538" stroke="#3D0F9A" stroke-linecap="round" stroke-linejoin="round"/>
<path d="M19.8615 241.92C19.8615 241.92 17.184 244.642 14.9913 246.88C13.7979 248.103 12.7463 249.192 12.3659 249.617C11.6798 250.37 11.9781 251.161 13.0969 251.034C13.5369 250.989 15.0882 250.683 16.826 250.333C19.5259 249.796 22.6584 249.14 22.6584 249.14L24.1249 247.571L22.6807 243.546L19.869 241.927L19.8615 241.92Z" stroke="#3D0F9A" stroke-linecap="round" stroke-linejoin="round"/>
<path d="M14.999 246.887C14.999 246.887 17.1023 247.916 16.8263 250.333" stroke="#3D0F9A" stroke-linecap="round" stroke-linejoin="round"/>
<path d="M76 210L78.5729 211.185V211.192L79.9676 214.794L80.1303 215.238V215.815" stroke="#3D0F9A" stroke-linecap="round" stroke-linejoin="round"/>
<path d="M81.8623 209.464L83.0171 213.506" stroke="#3D0F9A" stroke-linecap="round" stroke-linejoin="round"/>
<path d="M105.446 106.019L105.446 72.6602L131.978 87.9746" stroke="#3D0F9A" stroke-dasharray="2 2"/>
<path d="M105.5 102.368C104.125 101.506 103 102.212 103 103.933C103 105.655 104.125 107.77 105.5 108.632C106.875 109.494 108 108.788 108 107.067C108 105.345 106.875 103.23 105.5 102.368Z" fill="white" stroke="#3D0F9A"/>
<path d="M79.696 231.304L107.309 214.988C109.542 213.671 112.295 213.671 114.533 214.988L142.176 231.321C144.608 232.758 144.608 236.355 142.176 237.792L114.731 254.009C112.507 255.324 109.768 255.331 107.541 254.027L79.982 237.328C77.533 235.898 77.2572 232.747 79.696 231.304Z" fill="#3D0F9A"/>
<path d="M123.983 240.435C122.624 241.193 120.402 241.186 119.035 240.428C117.661 239.67 117.654 238.435 119.02 237.676C120.379 236.918 122.601 236.925 123.968 237.684C125.334 238.442 125.349 239.677 123.983 240.435Z" fill="white"/>
<path d="M116.983 236.546C115.624 237.304 113.402 237.297 112.035 236.539C110.661 235.78 110.654 234.546 112.02 233.787C113.379 233.029 115.601 233.036 116.968 233.795C118.334 234.553 118.349 235.788 116.983 236.546Z" fill="white"/>
<path d="M109.983 232.657C108.624 233.416 106.402 233.408 105.035 232.65C103.661 231.892 103.654 230.657 105.02 229.899C106.379 229.14 108.601 229.148 109.968 229.906C111.334 230.664 111.349 231.899 109.983 232.657Z" fill="white"/>
<path d="M102.983 228.768C101.624 229.526 99.4015 229.519 98.0351 228.761C96.6612 228.003 96.6537 226.768 98.0201 226.009C99.379 225.251 101.601 225.258 102.968 226.017C104.334 226.775 104.349 228.01 102.983 228.768Z" fill="#FF5A00"/>
<path d="M151.707 70.1759L141.705 64.4009L129.382 71.5622L126.86 108.936L139.184 101.774L149.734 122.142L162.058 114.981L151.707 70.1759Z" fill="#3D0F9A"/>
<path d="M149.734 122.543C149.697 122.543 149.659 122.537 149.622 122.527C149.517 122.496 149.429 122.424 149.378 122.326L139.021 102.332L127.061 109.282C126.933 109.356 126.774 109.354 126.648 109.276C126.523 109.198 126.45 109.056 126.46 108.908L128.981 71.5344C128.99 71.4016 129.064 71.2819 129.18 71.2147L141.504 64.0539C141.628 63.9817 141.781 63.9812 141.905 64.0534L151.908 69.8284C152.004 69.884 152.073 69.9767 152.098 70.0854L162.448 114.89C162.488 115.062 162.411 115.239 162.259 115.327L149.936 122.489C149.874 122.524 149.804 122.543 149.734 122.543ZM139.183 101.373C139.221 101.373 139.258 101.378 139.296 101.389C139.401 101.419 139.489 101.492 139.54 101.589L149.897 121.584L161.6 114.782L151.356 70.4351L141.706 64.8636L129.767 71.8015L127.311 108.21L138.982 101.427C139.044 101.392 139.113 101.373 139.183 101.373V101.373Z" fill="#3D0F9A"/>
<path d="M186.771 121.972L186.799 112.197C186.817 105.591 184.232 98.5607 176.071 93.8489C171.617 91.2771 168.264 90.7289 166.553 90.8332L154.229 98.4099L165.411 104.581L154.229 110.69C154.229 110.69 158.206 123.261 161.138 125.356C164.07 127.45 170.855 129.022 170.855 129.022L174.774 136.599L187.098 129.022C186.857 127.328 186.764 124.679 186.771 121.972Z" fill="#3D0F9A"/>
<path d="M174.774 137C174.738 137 174.702 136.995 174.667 136.986C174.56 136.956 174.469 136.883 174.418 136.784L170.584 129.37C169.46 129.099 163.634 127.631 160.906 125.683C157.9 123.535 154.012 111.33 153.848 110.812C153.79 110.629 153.87 110.431 154.038 110.339L159 106.5L164.578 104.58L154.036 98.7617C153.911 98.6925 153.833 98.5628 153.829 98.42C153.826 98.2777 153.898 98.1439 154.02 98.0693L166.343 90.4925C166.399 90.458 166.463 90.4379 166.529 90.4339C166.663 90.4259 166.807 90.4214 166.96 90.4214C168.155 90.4214 171.455 90.7215 176.272 93.5023C185.333 98.7336 187.216 106.557 187.199 112.199L187.172 121.974C187.163 124.962 187.278 127.445 187.495 128.966C187.517 129.124 187.443 129.28 187.308 129.364L174.984 136.941C174.92 136.98 174.847 137 174.774 137ZM154.713 110.883C155.348 112.83 158.832 123.216 161.371 125.03C164.206 127.054 170.879 128.616 170.946 128.632C171.061 128.658 171.158 128.734 171.212 128.838L174.932 136.032L186.666 128.818C186.467 127.246 186.362 124.833 186.37 121.971L186.398 112.197C186.413 106.766 184.599 99.2362 175.871 94.1967C171.222 91.5127 168.091 91.2231 166.96 91.2231C166.861 91.2231 166.767 91.2251 166.676 91.2291L155.025 98.3919L165.604 104.231C165.732 104.301 165.812 104.436 165.811 104.582C165.811 104.729 165.731 104.863 165.603 104.933L154.713 110.883Z" fill="#3D0F9A"/>
<path d="M139.384 77.337L149.735 122.142L141.53 117.405L138.957 105.948L129.301 100.373L126.861 108.936L118.957 104.373L129.382 71.562L139.384 77.337ZM130.413 94.45L137.87 98.7554L135.795 89.3209C135.199 86.6769 134.604 83.4552 134.108 80.8563L134.019 80.8047C133.51 82.8239 132.999 85.4584 132.435 87.3808L130.413 94.45Z" fill="white" stroke="#3D0F9A" stroke-linejoin="round"/>
<path d="M174.448 129.549C174.441 132.256 174.534 134.905 174.775 136.599L167.92 132.642L167.482 129.562L167.326 129.472C165.723 130.795 163.219 130.557 160.305 128.875C155.36 126.019 152.413 120.168 152.426 115.691C152.446 108.433 158.08 108.175 166.637 113.115C166.699 113.151 166.761 113.187 166.824 113.224L166.825 112.826C166.829 111.325 166.132 108.803 162.381 106.637C159.88 105.193 157.221 104.621 155.621 104.854L154.23 98.4108C155.941 98.3066 159.294 98.8547 163.748 101.427C171.909 106.138 174.494 113.168 174.476 119.775L174.448 129.55V129.549ZM167.045 121.883L167.054 118.83C166.965 118.777 166.876 118.726 166.789 118.675C162.921 116.442 159.95 115.844 159.941 119.156C159.934 121.4 161.227 123.239 162.935 124.225C164.833 125.321 166.388 124.78 166.896 123.287C166.998 122.896 167.044 122.396 167.045 121.883Z" fill="white"/>
<path d="M174.774 137C174.705 137 174.636 136.982 174.574 136.946L167.72 132.989C167.613 132.928 167.541 132.82 167.523 132.699L167.152 130.09C166.479 130.511 165.688 130.723 164.792 130.723C163.407 130.723 161.83 130.218 160.105 129.222C154.784 126.15 152.012 120.089 152.025 115.69C152.04 110.463 154.872 109.366 157.245 109.366C159.619 109.366 162.694 110.429 166.415 112.527C166.33 111.203 165.609 108.963 162.181 106.984C160.28 105.886 158.054 105.205 156.373 105.205C156.122 105.205 155.889 105.22 155.679 105.251C155.47 105.28 155.273 105.144 155.229 104.938L153.839 98.4951C153.814 98.3808 153.841 98.2616 153.911 98.1684C153.982 98.0752 154.09 98.0176 154.206 98.0106C154.341 98.0026 154.485 97.998 154.638 97.998C155.833 97.998 159.133 98.2982 163.95 101.079C173.01 106.311 174.893 114.134 174.877 119.776L174.85 129.551C174.841 132.503 174.954 134.963 175.165 136.488C175.175 136.524 175.18 136.561 175.18 136.6C175.18 136.821 175.001 137 174.78 137H174.776L174.774 137ZM168.289 132.392L174.281 135.852C174.122 134.292 174.04 132.098 174.047 129.549L174.074 119.774C174.089 114.343 172.275 106.813 163.547 101.774C159.012 99.1554 155.922 98.8157 154.724 98.8007L155.936 104.418C156.076 104.408 156.222 104.403 156.372 104.403C158.214 104.403 160.535 105.109 162.581 106.29C166.631 108.629 167.229 111.39 167.225 112.828L167.224 113.226C167.224 113.369 167.147 113.501 167.023 113.572C166.898 113.644 166.745 113.643 166.621 113.57L166.436 113.463C162.648 111.276 159.556 110.167 157.244 110.167C154.323 110.167 152.836 112.026 152.826 115.692C152.814 119.759 155.502 125.639 160.505 128.527C162.084 129.439 163.566 129.921 164.791 129.921C165.694 129.921 166.46 129.666 167.07 129.163C167.199 129.056 167.381 129.041 167.525 129.125L167.681 129.215C167.788 129.276 167.86 129.384 167.878 129.505L168.289 132.392H168.289ZM164.829 125.206C164.166 125.206 163.461 124.993 162.734 124.573C160.728 123.414 159.534 121.389 159.54 119.155C159.547 116.789 161.009 116.436 161.879 116.436C163.094 116.436 164.813 117.073 166.988 118.328C167.078 118.38 167.167 118.432 167.257 118.485C167.379 118.558 167.454 118.689 167.454 118.831L167.445 121.884C167.444 122.29 167.415 122.881 167.283 123.388C167.281 123.398 167.278 123.407 167.275 123.416C166.894 124.537 165.979 125.206 164.828 125.206H164.829ZM161.879 117.237C161.166 117.237 160.347 117.456 160.342 119.158C160.336 121.101 161.38 122.866 163.135 123.878C163.73 124.222 164.316 124.404 164.829 124.404C165.639 124.404 166.236 123.966 166.512 123.172C166.597 122.836 166.643 122.391 166.644 121.882L166.652 119.059C166.631 119.047 166.609 119.034 166.588 119.022C164.536 117.838 162.953 117.237 161.88 117.237L161.879 117.237Z" fill="#3D0F9A"/>
<path d="M90.25 39.7656L52 61.8542" stroke="#3D0F9A" stroke-dasharray="2 2"/>
<path d="M87.3018 38.9334C87.3018 38.1721 87.5493 37.7922 87.7774 37.6493C87.9876 37.5176 88.3747 37.4702 88.957 37.8352C89.5398 38.2005 90.1061 38.8599 90.5285 39.6539C90.9498 40.4459 91.1982 41.3164 91.1982 42.0666C91.1982 42.8279 90.9507 43.2078 90.7226 43.3507C90.5124 43.4824 90.1253 43.5298 89.543 43.1648C88.9602 42.7995 88.3939 42.1401 87.9715 41.3461C87.5502 40.5541 87.3018 39.6836 87.3018 38.9334Z" fill="#3D0F9A" stroke="#3D0F9A" stroke-width="1.10351"/>
<path d="M26.9871 35.9689L74.5249 63.4202V79.3739L26.9641 51.9225C24.4244 50.4449 22.3696 46.8894 22.3696 43.9572V38.6239C22.3696 35.6918 24.4244 34.4912 26.9641 35.9689H26.9871Z" fill="white" stroke="#3D0F9A"/>
<path d="M84.3137 69.0773C86.8534 70.5549 88.9082 74.1104 88.9082 77.0426V82.3758C88.9082 85.308 86.8534 86.5085 84.3137 85.0309L74.5476 79.3975V63.4438L84.3137 69.0773Z" fill="#3D0F9A" stroke="#3D0F9A"/>
<path d="M81.0815 76.7196C81.3585 76.7196 81.6356 76.6504 81.8665 76.5118C82.4206 76.1886 82.7207 75.5422 82.7207 74.6879C82.7207 73.9029 82.4667 73.0025 81.9819 72.1944C80.9429 70.3936 79.2806 69.4931 78.1724 70.1396C77.0642 70.7861 77.018 72.6793 78.057 74.4801C78.5418 75.3113 79.1652 75.9808 79.8578 76.3733C80.2734 76.6273 80.7121 76.7427 81.0815 76.7427V76.7196ZM78.9805 70.6014C79.7424 70.6014 80.7352 71.3633 81.4047 72.5177C81.8203 73.2334 82.0512 73.9953 82.0512 74.6879C82.0512 75.2882 81.8665 75.7269 81.5201 75.9116C81.1738 76.0963 80.7121 76.0501 80.181 75.7499C79.6039 75.4036 79.0497 74.8264 78.6342 74.1107C77.8261 72.7024 77.7568 71.1555 78.5187 70.7168C78.6573 70.6475 78.7958 70.6014 78.9805 70.6014Z" fill="white"/>
<path d="M85.1676 82.5836C85.1676 82.5836 85.283 82.5836 85.3292 82.5374C85.4908 82.445 85.5601 82.2372 85.4446 82.0756L81.9815 76.0497C81.8891 75.8881 81.6813 75.8188 81.5197 75.9343C81.3581 76.0266 81.2888 76.2344 81.4043 76.396L84.8674 82.4219C84.8674 82.4219 85.0521 82.5836 85.1676 82.5836Z" fill="white"/>
<path d="M96.4899 109.613L93.6173 111.272L91.894 108.287" stroke="#FF5A00" stroke-width="1.29985" stroke-linecap="round" stroke-linejoin="round"/>
<path d="M29.9295 89.3856L50.4028 101.205C52.8954 102.661 54.9399 101.485 54.9399 98.6V87.7332C54.9399 84.8485 52.9234 81.3476 50.4028 79.8912L29.9295 68.0722C27.4368 66.6158 25.3923 67.7921 25.3923 70.6768V81.5436C25.3923 84.4284 27.4088 87.9293 29.9295 89.3856Z" fill="#3D0F9A"/>
<path d="M52.4191 102.242C52.9232 102.242 53.3994 102.13 53.8195 101.878C54.7997 101.317 55.3599 100.141 55.3599 98.5727V87.7059C55.3599 84.6811 53.2313 81.0122 50.6266 79.4998L30.1534 67.6807C28.809 66.8965 27.5207 66.7845 26.5404 67.3726C25.5602 67.9328 25 69.1091 25 70.6775V81.5443C25 84.5691 27.1286 88.238 29.7332 89.7504L50.2065 101.569C50.9907 102.018 51.7469 102.242 52.4471 102.242H52.4191ZM27.9128 67.8768C28.4449 67.8768 29.0891 68.0728 29.7332 68.4369L50.2065 80.256C52.5871 81.6283 54.5196 84.9892 54.5196 87.7339V98.6007C54.5196 99.833 54.1275 100.757 53.3994 101.177C52.6712 101.597 51.6909 101.485 50.6266 100.869L30.1534 89.0502C27.7727 87.6779 25.8402 84.317 25.8402 81.5723V70.7055C25.8402 69.4732 26.2323 68.5489 26.9605 68.1288C27.2406 67.9608 27.5767 67.8768 27.9408 67.8768H27.9128Z" fill="#3D0F9A"/>
<path d="M46.0141 83.6699C46.3844 83.4596 46.3839 82.7767 46.0129 82.1446C45.6418 81.5126 45.0409 81.1706 44.6705 81.3809C44.3002 81.5912 44.3008 82.2741 44.6718 82.9062C45.0428 83.5383 45.6438 83.8802 46.0141 83.6699Z" fill="white"/>
<path d="M46.02 94.9482C46.3903 94.7379 46.3897 94.055 46.0187 93.423C45.6477 92.7909 45.0467 92.449 44.6764 92.6593C44.3061 92.8696 44.3066 93.5524 44.6777 94.1845C45.0487 94.8166 45.6497 95.1585 46.02 94.9482Z" fill="white"/>
<path d="M40.0141 80.6699C40.3844 80.4596 40.3839 79.7767 40.0129 79.1446C39.6418 78.5126 39.0409 78.1706 38.6705 78.3809C38.3002 78.5912 38.3008 79.2741 38.6718 79.9062C39.0428 80.5383 39.6438 80.8802 40.0141 80.6699Z" fill="white"/>
<path d="M40.02 91.9482C40.3903 91.7379 40.3897 91.055 40.0187 90.423C39.6477 89.7909 39.0467 89.449 38.6764 89.6593C38.3061 89.8696 38.3066 90.5524 38.6777 91.1845C39.0487 91.8166 39.6497 92.1585 40.02 91.9482Z" fill="white"/>
<path d="M34.0141 76.6699C34.3844 76.4596 34.3839 75.7767 34.0129 75.1446C33.6418 74.5126 33.0409 74.1706 32.6705 74.3809C32.3002 74.5912 32.3008 75.2741 32.6718 75.9062C33.0428 76.5383 33.6438 76.8802 34.0141 76.6699Z" fill="white"/>
<path d="M34.02 87.9482C34.3903 87.7379 34.3897 87.055 34.0187 86.423C33.6477 85.7909 33.0467 85.449 32.6764 85.6593C32.3061 85.8696 32.3066 86.5524 32.6777 87.1845C33.0487 87.8166 33.6497 88.1585 34.02 87.9482Z" fill="white"/>
<rect width="26.0476" height="4.05185" rx="2.02593" transform="matrix(0.86597 -0.500096 -0.86597 -0.500096 160.539 181)" fill="#3D0F9A"/>
<rect width="26.0476" height="4.05185" rx="2.02593" transform="matrix(0.86597 -0.500096 -0.86597 -0.500096 154.523 177.526)" fill="#3D0F9A"/>
<rect width="26.0476" height="4.05185" rx="2.02593" transform="matrix(0.86597 -0.500096 -0.86597 -0.500096 148.509 174.053)" fill="#3D0F9A"/>
<path d="M228.003 107.359L228.003 74" stroke="white" stroke-dasharray="2 2"/>
<circle cx="7.30249" cy="7.30249" r="7.30249" transform="matrix(0.866087 0.499893 -0.000123428 1 221.326 62.6519)" fill="#FF5A00"/>
<path d="M227.65 70.1364C228.006 70.3421 228.348 70.7029 228.6 71.1394C228.852 71.5759 228.994 72.0524 228.994 72.4639C228.994 72.8755 228.852 73.1884 228.6 73.334C228.348 73.4795 228.006 73.4457 227.649 73.24C227.293 73.0342 226.951 72.6734 226.699 72.2369C226.447 71.8005 226.306 71.324 226.306 70.9125C226.306 70.5009 226.447 70.1879 226.699 70.0424C226.952 69.8969 227.293 69.9307 227.65 70.1364ZM227.649 74.0159C229.134 74.873 230.337 76.2617 230.337 77.1191L230.337 77.895L224.961 74.7921L224.961 74.0162C224.961 73.1588 226.164 73.1587 227.649 74.0159Z" fill="white"/>
</svg>
