<svg width="260" height="260" viewBox="0 0 260 260" fill="none" xmlns="http://www.w3.org/2000/svg">
<path d="M184.688 212.184C184.634 212.184 184.584 212.169 184.535 212.145L124.207 177.315C123.097 176.674 122.485 175.8 122.485 174.862C122.485 173.925 123.097 173.051 124.207 172.41L163.493 149.73C164.406 149.202 164.909 148.521 164.909 147.81C164.909 147.099 164.406 146.418 163.493 145.89L96.972 107.473C94.9685 106.318 91.7066 106.318 89.703 107.473L67.3929 120.353C66.4799 120.881 65.9766 121.562 65.9766 122.272C65.9766 122.983 66.4799 123.664 67.3929 124.192L100.56 143.339C101.67 143.981 102.282 144.854 102.282 145.792C102.282 146.729 101.67 147.603 100.56 148.244L50.9699 176.876C48.7936 178.134 45.2554 178.134 43.0841 176.876L10.1543 157.872C10.0062 157.788 9.95687 157.596 10.0408 157.453C10.1247 157.305 10.3122 157.255 10.4652 157.339L43.395 176.348C45.3985 177.503 48.6604 177.503 50.6639 176.348L100.254 147.716C101.167 147.188 101.67 146.507 101.67 145.797C101.67 145.086 101.167 144.405 100.254 143.877L67.0869 124.73C65.9766 124.088 65.3647 123.215 65.3647 122.277C65.3647 121.34 65.9766 120.466 67.0869 119.825L89.3971 106.94C91.5684 105.687 95.1116 105.687 97.2829 106.94L163.804 145.348C164.914 145.989 165.526 146.863 165.526 147.805C165.526 148.748 164.914 149.616 163.804 150.258L124.518 172.938C123.605 173.466 123.102 174.147 123.102 174.858C123.102 175.568 123.605 176.249 124.518 176.777L184.846 211.607C184.994 211.691 185.043 211.883 184.959 212.031C184.9 212.13 184.796 212.184 184.693 212.184H184.688Z" fill="#3D0F9A" stroke="#3D0F9A" stroke-width="0.5"/>
<path d="M20.6727 158.362L20.0889 155.967H18.6977C17.1864 154.993 14.9823 154.372 12.5217 154.372C10.0611 154.372 7.857 154.988 6.34575 155.967H5.00908L4.37075 158.335H4.38166C4.31074 158.584 4.26709 158.832 4.26709 159.092C4.26709 161.698 7.96612 163.807 12.5217 163.807C17.0773 163.807 20.7763 161.698 20.7763 159.092C20.7763 158.843 20.7327 158.605 20.6672 158.367L20.6727 158.362Z" fill="#3D0F9A"/>
<path d="M12.5274 164.072C7.82451 164.072 4 161.833 4 159.087C4 158.93 4.01637 158.773 4.04365 158.6H4.03273L4.11457 158.259L4.80746 155.691H6.27507C7.88452 154.68 10.1596 154.096 12.5329 154.096C14.9061 154.096 17.1757 154.674 18.7907 155.691H20.3183L20.9511 158.297C21.0275 158.589 21.0657 158.838 21.0657 159.087C21.0657 161.833 17.2412 164.072 12.5383 164.072H12.5274ZM4.73108 158.065L4.64378 158.411C4.57286 158.659 4.54012 158.881 4.54012 159.092C4.54012 161.541 8.11912 163.537 12.5219 163.537C16.9248 163.537 20.5038 161.541 20.5038 159.092C20.5038 158.892 20.471 158.686 20.4056 158.438L19.8764 156.242H18.6215L18.5561 156.199C17.0284 155.215 14.8297 154.653 12.5274 154.653C10.2251 154.653 8.02637 155.215 6.49875 156.199L6.43328 156.242H5.2221L4.73108 158.07V158.065Z" fill="#3D0F9A"/>
<path d="M20.1544 156.513C20.1544 158.908 16.75 160.855 12.5545 160.855C8.359 160.855 4.95459 158.914 4.95459 156.513C4.95459 154.112 8.359 152.171 12.5545 152.171C16.75 152.171 20.1544 154.112 20.1544 156.513Z" fill="white"/>
<path d="M20.0675 157.746C20.0675 160.141 16.6631 162.088 12.4676 162.088C8.27209 162.088 4.86768 160.147 4.86768 157.746C4.86768 155.345 8.27209 153.404 12.4676 153.404C16.6631 153.404 20.0675 155.345 20.0675 157.746Z" fill="white"/>
<path d="M12.5548 151.906C8.21203 151.906 4.68213 153.977 4.68213 156.518C4.68213 159.059 8.21203 161.13 12.5548 161.13C16.8976 161.13 20.4275 159.059 20.4275 156.518C20.4275 153.977 16.8976 151.906 12.5548 151.906ZM12.5548 160.59C8.5121 160.59 5.22771 158.762 5.22771 156.518C5.22771 154.274 8.51755 152.446 12.5548 152.446C16.5921 152.446 19.882 154.274 19.882 156.518C19.882 158.762 16.5921 160.59 12.5548 160.59Z" fill="#3D0F9A"/>
<path d="M12.5273 154.226C10.3941 154.226 8.65918 155.134 8.65918 156.259C8.65918 157.383 10.3887 158.292 12.5273 158.292C14.666 158.292 16.3955 157.383 16.3955 156.259C16.3955 155.134 14.666 154.226 12.5273 154.226Z" fill="#3D0F9A"/>
<rect x="-0.865972" width="75.4387" height="75.4387" rx="4.5" transform="matrix(-0.865972 0.500092 -0.865972 -0.500092 207.714 214.622)" stroke="#3D0F9A" stroke-dasharray="2 2"/>
<rect x="-0.865972" width="71.3635" height="71.3635" rx="4.5" transform="matrix(-0.865972 0.500092 -0.865972 -0.500092 147.714 76.6215)" stroke="#3D0F9A" stroke-dasharray="2 2"/>
<path d="M33.8394 192.968L33.5059 193.541L75.788 218.16L76.1216 217.587L33.8394 192.968Z" fill="#3D0F9A" stroke="#3D0F9A"/>
<path d="M101.062 51.3334L95.5416 50.0488V43.9265L84.4427 43.5909L84.4775 39.2856L76.353 41.7392L66.481 41.0332L63.1942 39.0889V43.1395L57.7894 44.6903L54.41 44.1233L52.0838 43.8802L52.1185 48.5327L49.2946 49.6553L46.5518 51.3218L46.5865 63.0572C46.5402 63.1613 46.5402 63.2771 46.5865 63.3928L48.01 66.4713C48.1836 66.8532 48.8664 67.0731 49.5145 66.969L52.1995 66.5523C52.1995 66.5523 51.8755 70.5798 52.2111 70.7766L56.4469 73.2185C56.8751 73.4732 57.5927 73.4732 58.0209 73.2185L60.1967 71.9686C61.1573 72.3621 62.1641 72.6977 63.1942 72.9986L63.2057 74.8735C63.0321 75.2554 63.4141 75.6489 64.0737 75.7531L69.3975 76.5748C70.0571 76.679 70.7284 76.4475 70.902 76.0771L71.6658 74.4337C73.1125 74.5148 74.5707 74.5148 76.0174 74.4337L76.7812 76.0771C76.9548 76.4591 77.6376 76.679 78.2858 76.5748L83.6095 75.7531C84.1997 75.6605 84.5701 75.3365 84.5122 74.9893V72.9986C85.5306 72.6977 86.5375 72.3621 87.4865 71.9802L89.6623 73.2301C90.0905 73.4847 90.8081 73.4847 91.2363 73.2301L95.4721 70.7881C95.773 70.6145 95.5763 66.587 95.5763 66.587L98.1687 66.9921C98.8284 67.0963 99.4996 66.8648 99.6732 66.4945L101.097 63.416C101.155 63.3002 101.062 51.345 101.062 51.345V51.3334Z" fill="#3D0F9A"/>
<path d="M69.6982 77.107C69.5709 77.107 69.432 77.107 69.3047 77.0723L63.9694 76.2506C63.3907 76.158 62.9509 75.8918 62.7542 75.5215C62.6269 75.2784 62.6037 75.0123 62.6963 74.7692C62.6847 74.5146 62.6732 74.098 62.6732 73.392C61.7589 73.1142 60.9487 72.8365 60.2081 72.5471L58.2522 73.6813C57.6619 74.0285 56.7708 74.0285 56.1805 73.6813L51.9447 71.2394C51.6901 71.0889 51.3661 70.9037 51.6438 67.1771L49.5838 67.5012C48.6926 67.6401 47.8246 67.3044 47.5469 66.7142L46.1233 63.6357C46.0308 63.439 46.0076 63.2306 46.0655 63.0107L46.0308 51.1481L46.2738 50.9282L49.0861 49.2269L51.5975 48.2201L51.5628 43.4056H52.0605L54.4446 43.6486L57.7545 44.2041L62.6963 42.7806V38.8225L63.1708 38.5332L63.4254 38.6605L66.6428 40.5585L76.3065 41.2529L84.5814 38.7647L84.9865 39.054V39.3086L84.9518 43.1394L96.0506 43.475V43.9611V49.6899L101.143 50.8703H101.583V51.368C101.675 63.439 101.629 63.52 101.583 63.6588L100.159 66.7373C99.8929 67.3276 99.0133 67.6632 98.1222 67.5243L96.12 67.2118C96.2705 70.9616 95.9927 71.1236 95.7497 71.2625L91.5138 73.7045C90.9236 74.0517 90.0325 74.0517 89.4422 73.7045L87.4748 72.5703C86.7456 72.8596 85.9355 73.1374 85.0328 73.4151V75.0007C85.0559 75.2322 84.9981 75.4636 84.8592 75.6719C84.6277 75.996 84.2227 76.2159 83.7134 76.2853L78.3781 77.107C77.487 77.2459 76.619 76.9103 76.3412 76.32L75.7163 74.9775C74.4779 75.0354 73.2165 75.0354 71.9781 74.9775L71.3532 76.32C71.1217 76.8177 70.462 77.1302 69.7213 77.1302L69.6982 77.107ZM63.6685 74.6766L63.7611 74.7692L63.6338 75.0817C63.6338 75.0817 63.7726 75.2206 64.1198 75.2784L69.4436 76.1001C69.9759 76.1812 70.381 75.9844 70.4273 75.8803L71.33 73.9244L71.6656 73.9475C73.0891 74.0285 74.5358 74.0285 75.9709 73.9475L76.3065 73.9244L77.2092 75.8803C77.2555 75.9844 77.6606 76.1812 78.193 76.1001L83.5167 75.2784C83.8639 75.2206 83.9912 75.0933 84.0143 75.0586V72.6513L84.3615 72.5471C85.4726 72.2231 86.4332 71.8875 87.2896 71.5403L87.5095 71.4477L89.8936 72.8249C90.1713 72.9869 90.6921 72.9869 90.9699 72.8249L95.0553 70.4639C95.1479 69.9547 95.1247 68.1493 95.0553 66.6332L95.0206 66.0314L98.2148 66.529C98.7472 66.61 99.1522 66.4133 99.1985 66.3091L100.587 63.3116C100.61 62.5131 100.587 56.1941 100.553 51.7499L95.4603 50.5694H95.0206V50.0718V44.424L83.9218 44.0884V43.6023L83.9449 39.9567L76.376 42.2367L66.2262 41.5075L66.1336 41.4265L63.6453 39.9567V43.5097L63.2981 43.6255L57.7661 45.211L54.271 44.6323L52.5118 44.4472L52.5465 48.9145L52.1993 49.0302L49.4449 50.1297L46.9798 51.6226L47.0145 63.1728L46.9798 63.2654L48.4033 66.286C48.4496 66.3901 48.8431 66.5869 49.387 66.5059L52.6854 65.9967L52.6391 66.6216C52.5118 68.1377 52.4539 69.9432 52.5465 70.4524L56.6435 72.8133C56.9212 72.9754 57.442 72.9754 57.7198 72.8133L60.1039 71.4361L60.3238 71.5287C61.1802 71.8759 62.1524 72.2115 63.275 72.5356L63.6338 72.6397V73.0101C63.6338 73.0101 63.6338 74.2021 63.6453 74.6766H63.6685Z" fill="#3D0F9A"/>
<path d="M59.6874 61.9692L56.8057 64.4112L57.1181 66.1009V73.4037C57.4306 73.4152 57.7547 73.3689 57.9977 73.2301L60.1735 71.9801L60.1388 64.7005L59.699 61.9692H59.6874Z" fill="#3D0F9A"/>
<path d="M57.2223 73.9128C57.2223 73.9128 57.1297 73.9128 57.095 73.9128L56.6205 73.8897V66.1587L56.2617 64.226L60.0346 61.0317L60.6249 64.7005L60.6596 72.2694L58.2408 73.6698C57.963 73.8318 57.6042 73.9128 57.2223 73.9128ZM57.338 64.6079L57.6042 66.1124V72.8712C57.6042 72.8712 57.7084 72.8365 57.7431 72.8134L59.6643 71.7023L59.6295 64.7468L59.3286 62.9182L57.3265 64.6079H57.338Z" fill="#3D0F9A"/>
<path d="M49.4565 59.7355L49.4913 66.8299C49.4913 66.9109 49.5607 66.9804 49.6533 66.9688L52.0605 66.5984C52.13 66.5984 52.1763 66.529 52.1763 66.4596L52.0605 63.3811C52.0605 63.3232 52.1068 63.2653 52.1647 63.2538L56.9445 61.9576C57.0255 61.9344 57.0718 61.8418 57.0255 61.7608L54.3289 57.0505C54.3289 57.0505 54.271 56.981 54.2247 56.981L50.637 56.7148C50.5792 56.7148 50.5213 56.7496 50.4981 56.8074L49.4681 59.6892C49.4681 59.6892 49.4681 59.7239 49.4681 59.7355H49.4565Z" fill="#3D0F9A"/>
<path d="M49.6299 67.4668C49.4794 67.4668 49.3406 67.4089 49.2248 67.3163C49.0859 67.2006 49.0049 67.027 49.0049 66.8418L48.9702 59.6664L49.0049 59.5275L50.035 56.6457C50.1275 56.3796 50.3937 56.2175 50.6715 56.2291L54.2592 56.4953C54.4675 56.5069 54.6527 56.6342 54.7569 56.8078L57.4534 61.5181C57.546 61.6917 57.5692 61.8884 57.4882 62.0736C57.4187 62.2588 57.2567 62.3861 57.0715 62.444L52.5695 63.6592L52.6737 66.4483C52.6737 66.7724 52.4422 67.0386 52.1413 67.0964L49.7341 67.4668C49.7341 67.4668 49.6646 67.4668 49.6415 67.4668H49.6299ZM49.9539 59.7937L49.9887 66.4136L51.6668 66.1474L51.5626 63.393C51.5626 63.0921 51.7478 62.8375 52.0256 62.768L56.3656 61.5991L53.993 57.4559L50.8682 57.2244L49.9539 59.7821V59.7937Z" fill="#3D0F9A"/>
<path d="M70.89 75.9846L71.6539 74.3411C73.1005 74.4222 74.5588 74.4222 76.0054 74.3411L76.7693 75.9846C76.9429 76.3665 77.6257 76.5864 78.2738 76.4822L83.5975 75.6605C84.1878 75.5679 84.5581 75.2439 84.5002 74.8967V72.9061C85.5187 72.6051 86.5256 72.2695 87.4746 71.8876L89.6504 73.1375C90.0786 73.3921 90.7961 73.3921 91.2243 73.1375L95.4602 70.6956C95.7611 70.522 95.5643 66.4944 95.5643 66.4944L98.1567 66.8995C98.8164 67.0037 99.4877 66.7722 99.6613 66.4019L101.085 63.3234C101.143 63.2076 101.05 51.2524 101.05 51.2524L95.5296 49.9678V43.8455L84.4308 43.5099L84.4655 39.2046L79.1302 40.8133L69.3276 64.5386V69.2373L69.3624 76.5169C70.022 76.6211 70.6933 76.3896 70.8669 76.0193L70.89 75.9846Z" fill="#3D0F9A"/>
<path d="M69.6984 77.0029C69.5711 77.0029 69.4322 77.0029 69.3049 76.9682L68.8882 76.8987L68.8535 64.3996L68.8882 64.307L78.7718 40.3618L84.5585 38.6143L84.9636 38.9036V39.1582L84.9288 42.989L96.0276 43.3246V43.8107V49.5395L101.282 50.7778L101.56 50.9167V51.2292C101.652 63.2885 101.606 63.3811 101.56 63.5084L100.136 66.5869C99.87 67.1656 98.9904 67.5128 98.0993 67.3739L96.1086 67.0614C96.2591 70.8112 95.9813 70.9732 95.7383 71.1121L91.5025 73.5541C90.9122 73.8897 90.0211 73.8897 89.4308 73.5541L87.4634 72.4199C86.7343 72.7092 85.9241 72.987 85.0214 73.2647V74.8503C85.0446 75.0817 84.9867 75.3132 84.8478 75.5215C84.6164 75.8456 84.2113 76.0655 83.7021 76.1349L78.3668 76.9566C77.4756 77.0955 76.6076 76.7599 76.3299 76.1696L75.7049 74.8271C74.4666 74.885 73.2051 74.885 71.9667 74.8271L71.3418 76.1696C71.1103 76.6673 70.4506 76.9798 69.7099 76.9798L69.6984 77.0029ZM76.3183 73.8202L77.221 75.7761C77.2673 75.8803 77.6724 76.077 78.2047 75.996L83.54 75.1743C83.8872 75.1165 84.0145 74.9892 84.0377 74.9544V72.5472L84.3849 72.443C85.4959 72.119 86.4565 71.7833 87.3129 71.4361L87.5328 71.3436L89.9169 72.7208C90.1947 72.8828 90.7155 72.8828 90.9933 72.7208L95.0786 70.3598C95.1712 69.8506 95.1481 68.0452 95.0786 66.5291L95.0555 65.9273L98.2497 66.4249C98.7821 66.5059 99.1871 66.3092 99.2334 66.205L100.622 63.2075C100.645 62.409 100.622 56.0899 100.588 51.6458L95.0555 50.3612V49.9677V44.3199L83.9567 43.9843V43.4982L83.9798 39.8526L79.5125 41.2067L69.8372 64.6195L69.872 76.0192C70.1845 75.9845 70.4043 75.8571 70.4391 75.7877L71.3418 73.8318H71.6774C73.1009 73.9244 74.5592 73.9244 75.9827 73.8434H76.3183V73.8202Z" fill="#3D0F9A"/>
<path d="M89.535 41.2068L87.4403 42.4105C86.2366 41.9128 84.9751 41.4962 83.6674 41.149L84.4312 39.5056C84.6048 39.1236 84.2229 38.7417 83.5632 38.6376L78.2279 37.8159C77.5682 37.7117 76.897 37.9432 76.7234 38.3135L75.9595 39.9569C74.5129 39.8759 73.0546 39.8759 71.608 39.9569L70.8441 38.3135C70.6705 37.9316 69.9877 37.7117 69.3396 37.8159L64.0043 38.6376C63.3446 38.7417 62.9627 39.1236 63.1363 39.5056L63.9002 41.149C62.5924 41.4962 61.3309 41.9128 60.1273 42.4105L58.0325 41.2068C57.5464 40.9291 56.771 40.9291 56.2965 41.2068L52.3963 43.4636C51.9102 43.7414 51.9102 44.1928 52.3963 44.4705L54.4911 45.6741C53.6346 46.3685 52.9055 47.0977 52.3037 47.8499L49.4567 47.4101C48.797 47.306 48.1257 47.5374 47.9521 47.9078L46.5286 50.9863C46.355 51.3682 46.737 51.7501 47.3966 51.8543L50.2437 52.2941C50.1048 53.1273 50.1048 53.9722 50.2437 54.8055L47.3966 55.2453C46.737 55.3494 46.355 55.7313 46.5286 56.1133L47.9521 59.1918C48.1257 59.5737 48.8086 59.7936 49.4567 59.6894L52.3037 59.2496C52.9055 60.0019 53.6346 60.731 54.4911 61.4254L52.4079 62.629C51.9218 62.9068 51.9218 63.3581 52.4079 63.6359L56.3081 65.8927C56.7942 66.1705 57.5696 66.1705 58.0441 65.8927L60.1273 64.6891C61.3309 65.1867 62.5924 65.6034 63.9002 65.9506L63.1363 67.594C62.9627 67.9759 63.3446 68.3578 64.0043 68.462L69.328 69.2837C69.9877 69.3878 70.659 69.1564 70.8326 68.786L71.5964 67.1426C73.0431 67.2236 74.5013 67.2236 75.948 67.1426L76.7118 68.786C76.8854 69.1679 77.5682 69.3878 78.2163 69.2837L83.5401 68.462C84.1997 68.3578 84.5817 67.9759 84.4081 67.594L83.6442 65.9506C84.952 65.6034 86.2135 65.1867 87.4171 64.6891L89.5119 65.8927C89.998 66.1705 90.7734 66.1705 91.2479 65.8927L95.1481 63.6359C95.6342 63.3581 95.6342 62.9068 95.1481 62.629L93.0533 61.4254C93.9097 60.731 94.6389 60.0019 95.2407 59.2496L98.0877 59.6894C98.7474 59.7936 99.4186 59.5621 99.5922 59.1918L101.016 56.1133C101.189 55.7313 100.807 55.3494 100.148 55.2453L97.3007 54.8055C97.4396 53.9722 97.4396 53.1273 97.3007 52.2941L100.148 51.8543C100.807 51.7501 101.189 51.3682 101.016 50.9863L99.5922 47.9078C99.4186 47.5259 98.7358 47.306 98.0877 47.4101L95.2407 47.8499C94.6389 47.0977 93.9097 46.3685 93.0533 45.6741L95.1481 44.4705C95.6342 44.1928 95.6342 43.7414 95.1481 43.4636L91.2479 41.2068C90.7618 40.9291 89.9864 40.9291 89.5119 41.2068H89.535Z" fill="white"/>
<path d="M77.9153 69.8158C77.1746 69.8158 76.5149 69.5033 76.2834 69.0057L75.6585 67.6632C74.4201 67.721 73.1586 67.721 71.9203 67.6632L71.2953 69.0057C71.0291 69.5959 70.1496 69.9315 69.2584 69.7926L63.9231 68.9709C63.356 68.8783 62.9047 68.6122 62.7079 68.2418C62.5691 67.9756 62.5575 67.6747 62.6848 67.4085L63.2056 66.2975C62.164 65.9966 61.1455 65.6494 60.1734 65.2675L58.2985 66.3554C57.662 66.7257 56.7014 66.7257 56.0649 66.3554L52.1647 64.0986C51.7827 63.8787 51.5513 63.5315 51.5513 63.1611C51.5513 62.7908 51.7712 62.4552 52.1647 62.2353L53.646 61.3789C53.0789 60.8696 52.5581 60.3488 52.1184 59.8165L49.5491 60.2099C48.6579 60.3488 47.7899 60.0132 47.5122 59.423L46.0887 56.3445C45.9614 56.0667 45.9729 55.7774 46.1118 55.5112C46.3086 55.1293 46.7599 54.8631 47.327 54.7821L49.6995 54.4117C49.6417 53.8562 49.6417 53.2891 49.6995 52.7336L47.327 52.3632C46.7599 52.2707 46.3086 52.0045 46.1118 51.6341C45.9729 51.3679 45.9614 51.067 46.0887 50.8008L47.5122 47.7223C47.7784 47.1321 48.6579 46.7965 49.5491 46.9354L52.1184 47.3289C52.5697 46.7965 53.0789 46.2641 53.6576 45.7665L52.1762 44.91C51.7943 44.6901 51.5628 44.3429 51.5628 43.9726C51.5628 43.6023 51.7827 43.2666 52.1762 43.0467L56.0764 40.7899C56.713 40.4196 57.6735 40.4196 58.3101 40.7899L60.185 41.8778C61.1571 41.4843 62.1756 41.1371 63.2172 40.8478L62.6964 39.7368C62.5691 39.459 62.5806 39.1697 62.7195 38.9035C62.9163 38.5216 63.3676 38.2554 63.9347 38.1744L69.2584 37.3527C70.1496 37.2254 71.0176 37.5494 71.2953 38.1397L71.9203 39.4822C73.1586 39.4243 74.4201 39.4243 75.6585 39.4822L76.2834 38.1397C76.5496 37.561 77.4292 37.2254 78.3203 37.3527L83.6556 38.1744C84.2227 38.267 84.6741 38.5331 84.8708 38.9035C85.0097 39.1697 85.0213 39.4706 84.894 39.7368L84.3732 40.8478C85.4148 41.1487 86.4332 41.4959 87.4054 41.8778L89.2802 40.7899C89.9168 40.4196 90.8774 40.4196 91.5139 40.7899L95.4141 43.0467C95.796 43.2666 96.0275 43.6138 96.0275 43.9726C96.0275 44.3314 95.8076 44.6786 95.4141 44.8985L93.9327 45.7549C94.4998 46.2641 95.0206 46.7849 95.472 47.3173L98.0412 46.9238C98.9324 46.7849 99.8004 47.1205 100.078 47.7108L101.502 50.7893C101.629 51.067 101.617 51.3564 101.479 51.6226C101.282 52.0045 100.83 52.2707 100.263 52.3517L97.8908 52.722C97.9486 53.2775 97.9486 53.8446 97.8908 54.4001L100.263 54.7705C100.83 54.8631 101.282 55.1293 101.479 55.4996C101.617 55.7658 101.629 56.0667 101.502 56.3329L100.078 59.4114C99.812 59.9901 98.9324 60.3257 98.0412 60.1984L95.472 59.8049C95.0206 60.3373 94.5114 60.8696 93.9443 61.3673L95.4257 62.2237C95.8076 62.4436 96.0391 62.7908 96.0391 63.1496C96.0391 63.5199 95.8192 63.8555 95.4257 64.087L91.5255 66.3438C90.8889 66.7141 89.9284 66.7141 89.2918 66.3438L87.4169 65.2559C86.4448 65.6494 85.4263 65.9966 84.3847 66.2859L84.9055 67.397C85.0328 67.6747 85.0213 67.9641 84.8824 68.2302C84.6856 68.6122 84.2343 68.8784 83.6672 68.9594L78.3435 69.7811C78.2046 69.8042 78.0773 69.8158 77.95 69.8158H77.9153ZM76.2718 66.6331L77.1746 68.589C77.2209 68.6932 77.6259 68.8899 78.1583 68.8089L83.482 67.9872C83.8292 67.9293 83.9681 67.7905 83.9797 67.7673L82.9728 65.6378L83.5399 65.4874C84.8245 65.1517 86.0744 64.7351 87.2549 64.249L87.4748 64.1564L89.7779 65.4874C90.1019 65.6725 90.6922 65.6725 91.0278 65.4874L94.928 63.2306C94.9859 63.1959 95.0206 63.1611 95.0322 63.1496C95.0206 63.1496 94.9859 63.1264 94.928 63.0917L92.2199 61.5293L92.7754 61.0779C93.5971 60.4067 94.3031 59.7007 94.8817 58.9716L95.0553 58.7517L98.1801 59.2378C98.7125 59.3188 99.1176 59.1221 99.1638 59.0179L100.587 55.9394C100.587 55.9394 100.437 55.8237 100.09 55.7658L96.745 55.245L96.826 54.7589C96.9533 53.9719 96.9533 53.1849 96.826 52.398L96.745 51.9119L100.09 51.3911C100.437 51.3332 100.576 51.1943 100.587 51.1712L99.1638 48.139C99.1176 48.0348 98.7125 47.8381 98.1801 47.9191L95.0553 48.4052L94.8817 48.1853C94.3031 47.4562 93.5971 46.7502 92.7754 46.0789L92.2199 45.6276L94.928 44.0652C94.9859 44.0305 95.0206 43.9957 95.0322 43.9842C95.0322 43.9842 94.9859 43.9495 94.928 43.9263L91.0278 41.6695C90.7038 41.4843 90.1135 41.4843 89.7779 41.6695L87.4748 43.0004L87.2549 42.9079C86.0744 42.4218 84.8245 42.0051 83.5399 41.6695L82.9728 41.5191L83.9797 39.3433C83.9797 39.3433 83.8292 39.2275 83.482 39.1697L78.1467 38.348C77.6143 38.267 77.2093 38.4637 77.163 38.5679L76.2603 40.5238H75.9246C74.5011 40.4312 73.0545 40.4312 71.6194 40.5122H71.2837L70.381 38.5794C70.3347 38.4753 69.9297 38.2785 69.3973 38.3595L64.0736 39.1813C63.7264 39.2391 63.5875 39.3664 63.5759 39.4011L64.5828 41.5306L64.0157 41.6811C62.7311 42.0283 61.4812 42.4449 60.3123 42.9194L60.0924 43.012L57.7893 41.6811C57.4652 41.4959 56.875 41.4959 56.5394 41.6811L52.6392 43.9379C52.5813 43.9726 52.5466 44.0073 52.535 44.0189C52.535 44.0189 52.5813 44.0536 52.6392 44.0883L55.3473 45.6507L54.7918 46.1021C53.9701 46.7733 53.2525 47.4793 52.6855 48.2084L52.5119 48.4283L49.3871 47.9422C48.8547 47.8612 48.4496 48.058 48.4033 48.1621L46.9798 51.2406C46.9798 51.2406 47.1534 51.3679 47.4775 51.4142L50.8222 51.935L50.7411 52.4211C50.6138 53.2081 50.6138 53.9951 50.7411 54.7821L50.8222 55.2681L47.4775 55.7889C47.1303 55.8468 46.9914 55.9857 46.9798 56.0088L48.4033 59.041C48.4496 59.1452 48.8547 59.3419 49.3871 59.2609L52.5119 58.7749L52.6855 58.9947C53.2641 59.7239 53.9701 60.4298 54.7918 61.1011L55.3473 61.5524L52.6392 63.1148C52.5813 63.1496 52.5466 63.1843 52.535 63.1959C52.535 63.1959 52.5813 63.2306 52.6392 63.2653L56.5394 65.5221C56.8634 65.7073 57.4537 65.7073 57.7893 65.5221L60.0924 64.1912L60.3123 64.2837C61.4927 64.7698 62.7427 65.1865 64.0273 65.5221L64.5944 65.6725L63.5875 67.8483C63.5875 67.8483 63.738 67.9641 64.0852 68.0219L69.4205 68.8436C69.9528 68.9246 70.3579 68.7279 70.4042 68.6237L71.3069 66.6679H71.6425C73.066 66.7604 74.5243 66.7604 75.9478 66.6794H76.2834L76.2718 66.6331Z" fill="#3D0F9A"/>
<path d="M79.0728 50.5115C81.9893 52.1897 81.9893 54.921 79.0728 56.6107C76.1563 58.3004 71.4344 58.2888 68.5179 56.6107C65.6014 54.9325 65.6014 52.2012 68.5179 50.5115C71.4344 48.8334 76.1563 48.8334 79.0728 50.5115Z" fill="#3D0F9A"/>
<path d="M73.7956 58.3586C71.7934 58.3586 69.7912 57.9188 68.2751 57.0392C66.7011 56.1365 65.8447 54.8982 65.8447 53.5672C65.8447 52.2363 66.7127 50.998 68.2751 50.0952C71.3189 48.3361 76.2838 48.3361 79.3276 50.0952C80.9016 50.998 81.758 52.2363 81.758 53.5672C81.758 54.8982 80.89 56.1365 79.3276 57.0392C77.8 57.9188 75.8093 58.3586 73.8072 58.3586H73.7956ZM73.7956 49.748C71.9786 49.748 70.15 50.1531 68.7612 50.9517C67.5113 51.6692 66.8169 52.6066 66.8169 53.5672C66.8169 54.5278 67.5113 55.4652 68.7612 56.1828C71.5388 57.7799 76.0524 57.7799 78.8184 56.1828C80.0683 55.4652 80.7627 54.5278 80.7627 53.5672C80.7627 52.6066 80.0683 51.6692 78.8184 50.9517C77.4296 50.1531 75.6126 49.748 73.784 49.748H73.7956Z" fill="#3D0F9A"/>
<path d="M73.7954 49.25C71.8858 49.25 69.9762 49.6666 68.5179 50.5115C65.6014 52.1896 65.6014 54.9209 68.5179 56.6106C69.8604 57.386 71.5849 57.8027 73.344 57.8605H73.7954V49.25Z" fill="#3D0F9A"/>
<path d="M74.2815 58.3584H73.3441C71.4229 58.289 69.6175 57.8261 68.2634 57.0391C66.6894 56.1364 65.833 54.898 65.833 53.5671C65.833 52.2362 66.701 50.9978 68.2634 50.0951C69.7448 49.2387 71.7123 48.7642 73.7839 48.7642H74.2815V58.3584ZM73.2862 49.7595C71.5618 49.8289 69.9763 50.2455 68.7495 50.9399C67.4996 51.6575 66.8052 52.5949 66.8052 53.5555C66.8052 54.5161 67.4996 55.4535 68.7495 56.1711C69.9531 56.8655 71.5618 57.2821 73.2862 57.3516V49.7479V49.7595Z" fill="#3D0F9A"/>
<path d="M68.5059 56.576C68.5059 56.576 68.5059 56.5876 68.5059 56.6107C71.4455 58.2889 76.2137 58.2773 79.107 56.5529C79.107 56.5413 79.107 56.5413 79.107 56.5182C76.1674 54.84 71.3992 54.8516 68.5059 56.576Z" fill="#3D0F9A"/>
<path d="M73.7607 58.3469C71.7701 58.3469 69.7911 57.9071 68.2634 57.0391L68.0319 56.9003L68.0088 56.3332L68.2634 56.148C71.2956 54.3426 76.2837 54.3194 79.3622 56.0901L79.6168 56.229V56.7961L79.3738 56.9697C77.8345 57.884 75.7976 58.3353 73.7723 58.3353L73.7607 58.3469ZM69.5828 56.5878C72.1057 57.6525 75.5546 57.6294 78.0428 56.5415C75.5199 55.4767 72.071 55.4999 69.5828 56.5878Z" fill="#3D0F9A"/>
<path d="M71.4577 50.0142H70.4624V55.037H71.4577V50.0142Z" fill="#3D0F9A"/>
<path d="M62.6989 68.0554L62.6787 74.8721L63.674 74.875L63.6942 68.0584L62.6989 68.0554Z" fill="#3D0F9A"/>
<path d="M77.8688 70.001H76.8735V76.0307H77.8688V70.001Z" fill="#3D0F9A"/>
<path d="M90.5993 66.8647H89.604V72.8944H90.5993V66.8647Z" fill="#3D0F9A"/>
<path d="M99.1872 60.4531H98.1919V66.4828H99.1872V60.4531Z" fill="#3D0F9A"/>
<path d="M113.48 40.6165L113.433 34.4017C113.433 34.3322 113.387 34.2744 113.318 34.2512L110.332 33.499C110.332 33.499 110.309 33.499 110.297 33.4874L101.166 28.3488C101.166 28.3488 101.085 28.2678 101.085 28.2215V22.8978C101.085 22.7937 100.981 22.7126 100.876 22.7589L97.7632 24.0089C97.7632 24.0089 97.7285 24.0089 97.7169 24.0089L80.1487 25.3977L65.0802 27.3883C65.0108 27.3883 64.9529 27.4577 64.9529 27.5387L64.8487 35.0614C64.8487 35.1539 64.7677 35.2234 64.6867 35.2118L61.5619 34.8762C61.4693 34.8762 61.3999 34.9341 61.3999 35.0266V41.797C61.3999 41.797 61.4115 41.8317 61.423 41.8549C61.3999 42.0516 61.423 42.2484 61.5041 42.4451L64.0849 48.0119C64.5131 48.9378 66.1797 49.4933 67.7884 49.2502L70.728 48.7989C71.2951 49.2271 71.8969 49.6322 72.5797 50.0256C72.9848 50.2571 73.3898 50.4654 73.8181 50.6738V53.4282C73.9685 54.1226 74.8134 54.7244 76.0517 54.9212L85.6923 56.4141C87.301 56.6687 88.9675 56.1132 89.3957 55.1758L90.1827 53.4745C92.0344 53.3356 93.8514 53.0578 95.599 52.6412L97.7401 53.8796C98.9205 54.5624 100.83 54.5624 102.011 53.8796L109.059 49.8058C109.73 49.4238 110.008 48.903 109.915 48.3938C109.915 48.3707 109.938 48.3591 109.938 48.3359V42.7229L111.292 42.5146C112.762 42.2831 113.677 41.4614 113.491 40.6165H113.48Z" fill="#3D0F9A"/>
<path d="M86.445 56.9582C86.1672 56.9582 85.8779 56.935 85.5885 56.8887L75.948 55.3958C74.536 55.1759 73.506 54.4352 73.3208 53.5209V53.4283L73.2977 50.9748C72.9621 50.8012 72.6264 50.6276 72.3024 50.4424C71.7006 50.0952 71.1219 49.7133 70.578 49.3082L67.8467 49.7364C65.9949 50.0258 64.1432 49.3545 63.6224 48.2203L61.0416 42.6536C60.9374 42.4221 60.8911 42.1675 60.9027 41.9013V41.8087L60.8911 35.0383C60.8911 34.8532 60.9721 34.6796 61.111 34.5523C61.2499 34.425 61.4235 34.3671 61.6087 34.3902L64.3631 34.6796L64.4557 27.5388C64.4557 27.2148 64.6987 26.9486 65.0112 26.9023L80.1491 24.9001L97.6248 23.5229L100.692 22.2846C100.888 22.2035 101.12 22.2267 101.294 22.354C101.467 22.4697 101.583 22.6781 101.583 22.8864V28.0133L110.494 33.0362L113.434 33.7769C113.723 33.8463 113.92 34.1009 113.92 34.4018L113.966 40.5704C114.036 40.9754 113.943 41.3921 113.689 41.7624C113.26 42.3874 112.404 42.8387 111.339 43.0123L110.402 43.1628V48.4634V48.4865C110.448 49.1693 110.055 49.8059 109.291 50.2457L102.243 54.3195C100.912 55.0949 98.8053 55.0949 97.4743 54.3195L95.4953 53.1737C93.8866 53.5441 92.2085 53.8102 90.4841 53.9491L89.8244 55.3842C89.3846 56.3448 87.9842 56.9698 86.4565 56.9698L86.445 56.9582ZM74.3046 53.3705C74.4203 53.7639 75.0105 54.2616 76.0984 54.4236L85.739 55.9166C87.2435 56.1481 88.6207 55.6041 88.9101 54.9676L89.8244 53.0117L90.1137 52.9885C91.9539 52.8497 93.7477 52.5719 95.449 52.1668L95.6457 52.1205L97.9604 53.463C98.9789 54.0533 100.715 54.0533 101.745 53.463L108.793 49.3892C109.244 49.1346 109.464 48.8106 109.406 48.4981L109.383 48.3476L109.43 48.2551V42.318L111.212 42.0402C111.987 41.9245 112.624 41.612 112.89 41.2069C113.006 41.0449 113.04 40.8829 113.006 40.7324V40.6282L112.948 34.6796L110.055 33.9389L100.923 28.8003C100.715 28.6846 100.599 28.4647 100.599 28.2332V23.4187L97.7752 24.5298L80.207 25.9186L65.451 27.8745L65.3584 35.0962C65.3584 35.2814 65.2774 35.455 65.1385 35.5707C64.9996 35.6864 64.826 35.7443 64.6409 35.7327L61.898 35.4434L61.9211 41.8087V41.9592C61.898 42.0749 61.9096 42.1791 61.9559 42.2717L64.5367 47.8384C64.8376 48.475 66.2148 49.0305 67.7078 48.7874L70.8557 48.3013L71.0178 48.4287C71.5848 48.8569 72.1867 49.2619 72.8116 49.6207C73.2051 49.8406 73.6102 50.0605 74.0152 50.2572L74.293 50.3961V53.4052L74.3046 53.3705Z" fill="#3D0F9A"/>
<path d="M65.312 49.0069C66.0064 49.2731 66.8976 49.3889 67.7771 49.25L70.7167 48.7986C70.7167 48.7986 70.7167 48.7986 70.7283 48.8102V37.0864H65.312V49.0069Z" fill="#3D0F9A"/>
<path d="M67.0018 49.8059C66.3537 49.8059 65.7056 49.6902 65.1269 49.4703L64.8145 49.343V36.5776H71.2261V49.7596L70.5895 49.3083L67.8467 49.7365C67.5689 49.7828 67.2796 49.8059 67.0018 49.8059ZM65.8098 48.6486C66.4 48.8106 67.0712 48.8569 67.6962 48.7643L70.2308 48.3708V37.5729H65.7982V48.6486H65.8098Z" fill="#3D0F9A"/>
<path d="M89.3611 55.1757L90.1481 53.4744C91.9998 53.3355 93.8168 53.0577 95.5644 52.6411L97.7054 53.8795C98.8859 54.5623 100.796 54.5623 101.976 53.8795L109.024 49.8057C109.695 49.4237 109.973 48.9029 109.881 48.3937C109.881 48.3706 109.904 48.359 109.904 48.3358V42.7228L111.258 42.5145C112.728 42.283 113.642 41.4613 113.457 40.6165L113.41 34.4016C113.41 34.3321 113.364 34.2743 113.295 34.2511L110.309 33.4989C110.309 33.4989 110.286 33.4989 110.274 33.4873L109.51 33.0591C107.045 34.2511 104.337 35.5821 104.279 35.6746C104.163 35.8367 96.5018 42.4335 96.5018 42.4335L85.6113 45.2226V49.5279L85.646 56.3909C87.2547 56.6455 88.9213 56.09 89.3495 55.1525L89.3611 55.1757Z" fill="#3D0F9A"/>
<path d="M86.445 56.9583C86.1672 56.9583 85.8779 56.9352 85.5886 56.8889L85.1719 56.8194L85.1372 44.841L96.2939 41.9824C99.2566 39.4363 103.666 35.6171 103.932 35.3509C103.99 35.2468 104.036 35.1773 109.325 32.6196L109.557 32.5039L110.506 33.0363L113.446 33.777C113.735 33.8464 113.932 34.101 113.932 34.4019L113.978 40.5705C114.047 40.9756 113.955 41.3922 113.7 41.7625C113.272 42.3875 112.415 42.8389 111.351 43.0125L110.413 43.1629V48.4635V48.4866C110.46 49.1695 110.066 49.806 109.302 50.2458L102.254 54.3196C100.923 55.095 98.8169 55.095 97.4859 54.3196L95.5069 53.1738C93.8982 53.5442 92.2201 53.8104 90.4957 53.9492L89.836 55.3843C89.3962 56.3449 87.9958 56.9699 86.4681 56.9699L86.445 56.9583ZM86.1557 55.963C87.4866 56.044 88.6439 55.5464 88.9101 54.9677L89.8244 53.0118L90.1137 52.9887C91.9539 52.8498 93.7477 52.572 95.449 52.1669L95.6458 52.1207L97.9604 53.4632C98.9789 54.0534 100.715 54.0534 101.745 53.4632L108.793 49.3894C109.244 49.1347 109.464 48.8107 109.406 48.4982L109.383 48.3478L109.43 48.2552V42.3181L111.212 42.0403C111.987 41.9246 112.624 41.6121 112.89 41.207C113.006 41.045 113.04 40.883 113.006 40.7325V40.6284L112.948 34.6797L110.055 33.939L109.522 33.6381C105.472 35.6056 104.731 35.999 104.615 36.0801C104.303 36.381 102.983 37.5614 96.8494 42.8273L96.7568 42.8967L86.1209 45.628L86.1557 55.9746V55.963Z" fill="#3D0F9A"/>
<path d="M107.103 26.7172L104.164 27.1686C103.597 26.7404 102.995 26.3353 102.312 25.9418C101.641 25.5483 100.935 25.2011 100.194 24.8771L100.981 23.1758C101.409 22.2499 100.46 21.2893 98.84 21.0347L89.1994 19.5418C87.5907 19.2872 85.9242 19.8427 85.496 20.7801L84.709 22.4814C82.8573 22.6203 81.0403 22.898 79.2927 23.3147L77.1516 22.0763C75.9711 21.3935 74.0616 21.3935 72.8811 22.0763L65.8329 26.1501C64.6525 26.833 64.6525 27.9324 65.8329 28.6152L67.974 29.8536C67.2449 30.8605 66.7704 31.9136 66.5273 32.9784L63.5877 33.4297C61.979 33.6843 61.0184 34.6334 61.4466 35.5708L64.0275 41.1376C64.4557 42.0634 66.1223 42.6189 67.731 42.3759L70.6706 41.9245C71.2377 42.3528 71.8395 42.7578 72.5223 43.1513C73.1936 43.5448 73.8995 43.892 74.6402 44.2161L73.8532 45.9173C73.425 46.8432 74.374 47.8038 75.9943 48.0584L85.6349 49.5513C87.2435 49.806 88.9101 49.2504 89.3383 48.313L90.1253 46.6117C91.977 46.4728 93.794 46.1951 95.5416 45.7785L97.6827 47.0168C98.8631 47.6996 100.773 47.6996 101.953 47.0168L109.001 42.943C110.182 42.2602 110.182 41.1607 109.001 40.4779L106.86 39.2395C107.589 38.2327 108.064 37.1795 108.307 36.1147L111.247 35.6634C112.855 35.4088 113.816 34.4598 113.388 33.5223L110.807 27.9556C110.379 27.0297 108.712 26.4742 107.103 26.7172Z" fill="white"/>
<path d="M86.4102 50.0952C86.1325 50.0952 85.8431 50.0721 85.5538 50.0258L75.9132 48.5328C74.7443 48.3476 73.83 47.8153 73.4481 47.1093C73.2051 46.6579 73.1935 46.1603 73.4018 45.6973L73.9805 44.459C73.3671 44.1697 72.8116 43.8803 72.2792 43.5794C71.6774 43.2322 71.0987 42.8503 70.5548 42.4452L67.8235 42.8735C65.9833 43.1628 64.12 42.4915 63.5992 41.3574L61.0184 35.7906C60.8101 35.3277 60.8216 34.83 61.0647 34.3786C61.4466 33.6611 62.3725 33.1287 63.5298 32.9551L66.1454 32.5501C66.3768 31.6821 66.7587 30.8372 67.2795 30.0271L65.6014 29.0549C64.8723 28.6383 64.4672 28.0481 64.4672 27.3884C64.4672 26.7287 64.8723 26.15 65.6014 25.7218L72.6496 21.648C73.9805 20.8726 76.0868 20.8726 77.4178 21.648L79.3968 22.7938C80.9939 22.4234 82.6836 22.1572 84.408 22.0184L85.0677 20.5833C85.5885 19.4491 87.4518 18.7778 89.292 19.0672L98.9325 20.5601C100.09 20.7453 101.016 21.2777 101.398 21.9836C101.641 22.435 101.652 22.9327 101.444 23.3956L100.865 24.6339C101.467 24.9117 102.046 25.2126 102.567 25.5135C103.168 25.8607 103.747 26.2426 104.291 26.6477L107.022 26.2195C108.874 25.9301 110.726 26.6014 111.247 27.7356L113.827 33.3023C114.036 33.7653 114.024 34.2629 113.781 34.7143C113.399 35.4318 112.473 35.9642 111.316 36.1378L108.7 36.5429C108.469 37.4109 108.087 38.2557 107.566 39.0658L109.244 40.038C109.973 40.4546 110.379 41.0449 110.379 41.7046C110.379 42.3642 109.973 42.9429 109.244 43.3711L102.196 47.4449C100.865 48.2203 98.7589 48.2203 97.428 47.4449L95.449 46.2992C93.8519 46.6695 92.1621 46.9357 90.4377 47.0746L89.778 48.5097C89.3383 49.4702 87.9379 50.0952 86.4102 50.0952ZM70.8094 41.4036L70.9714 41.531C71.5385 41.9592 72.1403 42.3642 72.7653 42.723C73.3903 43.0818 74.0731 43.429 74.8369 43.7646L75.2998 43.9729L74.3045 46.1256C74.2235 46.2992 74.2235 46.4728 74.3277 46.6464C74.5592 47.0746 75.242 47.4333 76.0753 47.5606L85.7158 49.0536C87.2203 49.2851 88.5976 48.7411 88.8985 48.1046L89.8128 46.1487L90.1021 46.1256C91.9423 45.9867 93.7361 45.7089 95.4374 45.3038L95.6341 45.2576L97.9488 46.6001C98.9672 47.1903 100.703 47.1903 101.733 46.6001L108.781 42.5263C109.186 42.2948 109.418 41.9939 109.418 41.7161C109.418 41.4384 109.186 41.149 108.781 40.906L106.166 39.3899L106.49 38.9501C107.173 38.0127 107.624 37.0174 107.856 36.0105L107.925 35.6749L111.2 35.1656C112.034 35.0383 112.716 34.6796 112.948 34.2513C113.04 34.0777 113.052 33.9041 112.971 33.7305L110.39 28.1638C110.089 27.5273 108.712 26.9717 107.219 27.2148L104.071 27.7009L103.909 27.5735C103.342 27.1453 102.74 26.7518 102.115 26.3815C101.49 26.0227 100.796 25.664 100.044 25.3399L99.5806 25.1316L100.576 22.9789C100.657 22.8053 100.657 22.6317 100.553 22.4581C100.321 22.0299 99.6385 21.6712 98.8052 21.5439L89.1647 20.0509C87.6601 19.8194 86.2829 20.3634 85.9936 20.9999L85.0793 22.9558L84.79 22.9789C82.9498 23.1178 81.1559 23.3956 79.4547 23.8007L79.2579 23.8469L76.9433 22.5044C75.9248 21.9142 74.1888 21.9142 73.1588 22.5044L66.1106 26.5782C65.7056 26.8097 65.4741 27.1106 65.4741 27.3884C65.4741 27.6661 65.7056 27.9555 66.1106 28.1985L68.7262 29.7146L68.4022 30.1544C67.7193 31.0918 67.268 32.0871 67.0365 33.094L66.9671 33.4296L63.6918 33.9389C62.8585 34.0662 62.1757 34.4249 61.9442 34.8532C61.8517 35.0268 61.8401 35.2004 61.9211 35.374L64.502 40.9407C64.8029 41.5772 66.1801 42.1212 67.673 41.8897L70.821 41.4036H70.8094Z" fill="#3D0F9A"/>
<path d="M93.6669 30.9417C97.1157 32.9323 97.1157 36.1612 93.6669 38.1519C90.218 40.1425 84.6165 40.1425 81.1677 38.1519C77.7188 36.1612 77.7188 32.9323 81.1677 30.9417C84.6165 28.9511 90.218 28.9511 93.6669 30.9417Z" fill="#3D0F9A"/>
<path d="M87.4174 40.1422C85.0681 40.1422 82.7187 39.6214 80.9248 38.5914C79.0962 37.5382 78.0894 36.1031 78.0894 34.5523C78.0894 33.0014 79.0962 31.5664 80.9248 30.5132C84.5125 28.4416 90.3339 28.4416 93.9216 30.5132C95.7502 31.5664 96.7571 33.0014 96.7571 34.5523C96.7571 36.1031 95.7502 37.5382 93.9216 38.5914C92.1278 39.6214 89.7784 40.1422 87.429 40.1422H87.4174ZM87.4174 29.9461C85.2417 29.9461 83.0659 30.4206 81.4109 31.3812C79.9064 32.2492 79.0731 33.3834 79.0731 34.5638C79.0731 35.7443 79.9064 36.8669 81.4109 37.7465C84.7209 39.6561 90.1024 39.6561 93.4124 37.7465C94.9169 36.8785 95.7502 35.7443 95.7502 34.5638C95.7502 33.3834 94.9169 32.2608 93.4124 31.3812C91.7574 30.4322 89.5816 29.9461 87.4174 29.9461Z" fill="#3D0F9A"/>
<path d="M87.4173 29.46C85.1605 29.46 82.8921 29.9576 81.1677 30.9529C77.7188 32.9435 77.7188 36.1725 81.1677 38.1631C82.7532 39.0774 84.8017 39.575 86.8849 39.6445H87.4173V29.46Z" fill="#3D0F9A"/>
<path d="M87.9151 40.1421H86.8851C84.6283 40.0611 82.5104 39.5171 80.9248 38.5912C79.0962 37.5381 78.0894 36.103 78.0894 34.5522C78.0894 33.0013 79.0962 31.5778 80.9248 30.5131C82.6724 29.5062 84.9755 28.9507 87.4174 28.9507H87.9151V40.1305V40.1421ZM86.9198 29.9576C84.8366 30.027 82.8923 30.5247 81.4109 31.3811C79.9064 32.2491 79.0731 33.3833 79.0731 34.5637C79.0731 35.7442 79.9064 36.8668 81.4109 37.7464C82.8691 38.5797 84.8134 39.0889 86.8966 39.1583H86.9082V29.9691L86.9198 29.9576Z" fill="#3D0F9A"/>
<path d="M81.1558 38.1282C81.1558 38.1282 81.1558 38.1398 81.1558 38.163C84.6393 40.1536 90.2755 40.1304 93.7128 38.0935C93.7128 38.0704 93.7128 38.082 93.7128 38.0588C90.2292 36.0682 84.593 36.0913 81.1558 38.1282Z" fill="#3D0F9A"/>
<path d="M87.3824 40.1306C85.0446 40.1306 82.7184 39.6214 80.9245 38.5914L80.6699 38.4525V37.8854L80.913 37.7002C84.4775 35.5823 90.3336 35.5476 93.9677 37.6308L94.2107 37.7697L94.2338 38.3368L93.9792 38.5219C92.1738 39.5982 89.7781 40.1306 87.394 40.1306H87.3824ZM82.2092 38.14C85.2992 39.5172 89.6277 39.4941 92.6714 38.0821C89.5814 36.7049 85.253 36.7281 82.2092 38.14Z" fill="#3D0F9A"/>
<path d="M74.3044 46.7041H73.3091V53.4282H74.3044V46.7041Z" fill="#3D0F9A"/>
<path d="M84.5583 30.3511H83.563V36.2998H84.5583V30.3511Z" fill="#3D0F9A"/>
<path d="M90.8195 47.3174H89.8242V52.8031H90.8195V47.3174Z" fill="#3D0F9A"/>
<path d="M100.692 48.2437H99.6963V53.7294H100.692V48.2437Z" fill="#3D0F9A"/>
<path d="M110.552 36.2998H109.557V40.9291H110.552V36.2998Z" fill="#3D0F9A"/>
<path d="M198.282 53.5122L201.178 51.8297L138.101 15.4233L135.205 17.1058L198.282 53.5122Z" fill="white"/>
<path d="M198.281 53.9254C198.281 53.9254 198.419 53.9254 198.474 53.8703L201.37 52.1878C201.37 52.1878 201.563 51.9672 201.563 51.8293C201.563 51.6914 201.481 51.5535 201.37 51.4708L138.294 15.0368C138.294 15.0368 138.018 14.954 137.88 15.0368L134.984 16.7192C134.984 16.7192 134.791 16.9398 134.791 17.0777C134.791 17.2156 134.874 17.3535 134.984 17.4363L198.061 53.8703C198.061 53.8703 198.199 53.9254 198.254 53.9254H198.281ZM200.35 51.8293L198.281 53.0429L136.004 17.1053L138.073 15.8918L200.35 51.8293Z" fill="#3D0F9A"/>
<path d="M237.86 60.1035L240.756 58.4211L208.266 39.6938L205.37 41.3487L237.86 60.1035Z" fill="white"/>
<path d="M237.86 60.5168C237.86 60.5168 237.998 60.5168 238.053 60.4616L240.949 58.7792C240.949 58.7792 241.142 58.5585 241.142 58.4206C241.142 58.2827 241.059 58.1448 240.949 58.0621L208.459 39.3073C208.459 39.3073 208.183 39.2245 208.045 39.3073L205.149 40.9897C205.149 40.9897 204.956 41.2103 204.956 41.3482C204.956 41.4861 205.039 41.6241 205.149 41.7068L237.639 60.4616C237.639 60.4616 237.777 60.5168 237.832 60.5168H237.86ZM239.929 58.4206L237.86 59.6342L206.197 41.3758L208.266 40.1623L239.929 58.4206Z" fill="#3D0F9A"/>
<path d="M205.37 41.3483L198.282 53.5114L135.205 17.105L134.957 105.335L237.585 164.606L237.86 60.1031L205.37 41.3483Z" fill="white"/>
<path d="M237.584 164.992C237.584 164.992 237.722 164.992 237.777 164.937C237.915 164.854 237.97 164.716 237.97 164.579L238.246 60.1032C238.246 59.9653 238.163 59.8274 238.053 59.7446L205.563 40.9898C205.37 40.8795 205.122 40.9347 205.011 41.1277L198.116 52.9322L135.398 16.7189C135.398 16.7189 135.122 16.6362 134.984 16.7189C134.846 16.8016 134.791 16.9395 134.791 17.0775L134.543 105.308C134.543 105.446 134.626 105.584 134.736 105.666L237.391 164.937C237.391 164.937 237.529 164.992 237.584 164.992ZM237.446 60.3238L237.198 163.861L135.37 105.087L135.619 17.7945L198.089 53.87C198.282 53.9803 198.53 53.9251 198.64 53.7321L205.535 41.9276L237.474 60.3514L237.446 60.3238Z" fill="#3D0F9A"/>
<path d="M226.083 163.697L233.502 159.422L233.695 82.582L226.304 86.8846L226.083 163.697Z" fill="#3D0F9A"/>
<path d="M226.083 164.111C226.083 164.111 226.221 164.111 226.276 164.056L233.667 159.753C233.667 159.753 233.86 159.533 233.86 159.395L234.081 82.5827C234.081 82.4448 233.998 82.3069 233.888 82.2242C233.75 82.1414 233.612 82.1414 233.474 82.2242L226.083 86.5267C226.083 86.5267 225.89 86.7474 225.89 86.8853L225.669 163.697C225.669 163.835 225.752 163.973 225.862 164.056C225.917 164.083 226 164.111 226.055 164.111H226.083ZM233.061 159.174L226.469 163.008L226.662 87.1335L233.254 83.2998L233.061 159.174Z" fill="#3D0F9A"/>
<path d="M226.304 86.8854L233.695 82.5828L139.563 28.249L132.171 32.5516L226.304 86.8854Z" fill="white"/>
<path d="M226.303 87.2984C226.303 87.2984 226.441 87.2984 226.496 87.2433L233.888 82.9407C233.888 82.9407 234.081 82.7201 234.081 82.5822C234.081 82.4442 233.998 82.3063 233.888 82.2236L139.783 27.8898C139.783 27.8898 139.507 27.8071 139.369 27.8898L131.978 32.1924C131.978 32.1924 131.785 32.413 131.785 32.5509C131.785 32.6888 131.867 32.8267 131.978 32.9095L226.083 87.2433C226.083 87.2433 226.221 87.2984 226.276 87.2984H226.303ZM232.895 82.5822L226.303 86.4159L132.998 32.5509L139.59 28.7172L232.868 82.5822H232.895Z" fill="#3D0F9A"/>
<path d="M132.172 32.5518L131.951 107.543L226.084 161.877L226.304 86.8856L132.172 32.5518Z" fill="white"/>
<path d="M226.083 162.263C226.083 162.263 226.221 162.263 226.276 162.208C226.414 162.125 226.469 161.987 226.469 161.849L226.69 86.8849C226.69 86.747 226.607 86.6091 226.497 86.5263L132.364 32.1925C132.364 32.1925 132.088 32.1098 131.951 32.1925C131.813 32.2753 131.757 32.4132 131.757 32.5511L131.537 107.515C131.537 107.653 131.62 107.791 131.73 107.874L225.89 162.208C225.89 162.208 226.028 162.263 226.083 162.263ZM225.89 87.1055L225.697 161.132L132.392 107.267L132.585 33.2406L225.89 87.1331V87.1055Z" fill="#3D0F9A"/>
<path d="M228.262 90.7471L231.158 89.0647L128.531 29.7939L125.635 31.4764L228.262 90.7471Z" fill="white"/>
<path d="M228.262 91.1601C228.262 91.1601 228.4 91.1601 228.455 91.105L231.351 89.4225C231.351 89.4225 231.544 89.2019 231.544 89.064C231.544 88.9261 231.461 88.7882 231.351 88.7054L128.723 29.4347C128.723 29.4347 128.448 29.352 128.31 29.4347L125.414 31.1171C125.414 31.1171 125.221 31.3378 125.221 31.4757C125.221 31.6136 125.303 31.7515 125.414 31.8342L228.069 91.105C228.069 91.105 228.207 91.1601 228.262 91.1601ZM230.33 89.064L228.262 90.2775L126.462 31.4757L128.53 30.2621L230.33 89.064Z" fill="#3D0F9A"/>
<path d="M125.635 31.4756L125.414 110.825L228.042 170.096L228.262 90.7463L125.635 31.4756Z" fill="#3D0F9A"/>
<path d="M228.041 170.509C228.041 170.509 228.179 170.509 228.234 170.454C228.372 170.371 228.427 170.233 228.427 170.096L228.648 90.7461C228.648 90.6082 228.565 90.4703 228.455 90.3876L125.827 31.1169C125.827 31.1169 125.552 31.0341 125.414 31.1169C125.276 31.1996 125.221 31.3375 125.221 31.4754L125 110.825C125 110.963 125.083 111.101 125.193 111.183L227.848 170.454C227.848 170.454 227.986 170.509 228.041 170.509ZM227.848 90.9944L227.627 169.406L125.8 110.632L126.021 32.2201L227.848 90.9668V90.9944Z" fill="#3D0F9A"/>
<path d="M228.042 163.393L228.262 90.7454L230.855 89.2284L230.662 161.821L237.612 157.683L237.86 60.1033L240.867 58.3657L240.618 162.951L228.042 170.095V163.393Z" fill="white"/>
<path d="M228.042 170.509C228.042 170.509 228.179 170.509 228.235 170.454L240.811 163.31C240.811 163.31 241.032 163.089 241.032 162.952L241.28 58.3659C241.28 58.228 241.198 58.0901 241.087 58.0074C240.949 57.9246 240.811 57.9246 240.674 58.0074L237.667 59.7449C237.667 59.7449 237.474 59.9656 237.474 60.1035L237.226 157.435L231.103 161.076L231.269 89.201C231.269 89.0631 231.186 88.9252 231.075 88.8425C230.938 88.7597 230.8 88.7597 230.662 88.8425L228.069 90.3594C228.069 90.3594 227.876 90.5801 227.876 90.718L227.655 163.393V170.095C227.655 170.233 227.738 170.371 227.849 170.454C227.904 170.481 227.986 170.509 228.042 170.509ZM240.205 162.703L228.455 169.378V163.393L228.648 90.9662L230.441 89.9181L230.276 161.793C230.276 161.931 230.358 162.069 230.496 162.152C230.634 162.234 230.772 162.234 230.91 162.152L237.833 158.015C237.833 158.015 238.026 157.794 238.026 157.656L238.274 60.3241L240.453 59.0554L240.205 162.676V162.703Z" fill="#3D0F9A"/>
<path d="M162.896 94.1926C162.896 97.916 160.276 99.4329 157.049 97.5574C153.822 95.6819 151.202 91.1587 151.202 87.4629C151.202 83.7671 153.822 82.2226 157.049 84.0981C160.276 85.946 162.896 90.4692 162.896 94.1926Z" fill="#FF5A00"/>
<path d="M159.641 98.7711C160.276 98.7711 160.855 98.6332 161.351 98.3298C162.592 97.6128 163.254 96.151 163.254 94.1928C163.254 90.3591 160.551 85.6428 157.214 83.7397C155.532 82.7744 153.905 82.6089 152.691 83.326C151.45 84.0431 150.788 85.5049 150.788 87.4631C150.788 91.2968 153.491 96.0131 156.828 97.9161C157.821 98.4953 158.759 98.7711 159.641 98.7711ZM162.455 94.1928C162.455 95.8476 161.931 97.0611 160.938 97.6127C159.972 98.1644 158.648 98.0265 157.214 97.199C154.098 95.4063 151.588 91.021 151.588 87.4355C151.588 85.7807 152.112 84.5671 153.077 84.0155C154.042 83.4639 155.366 83.6018 156.801 84.4292C159.917 86.222 162.427 90.6073 162.427 94.1652L162.455 94.1928Z" fill="#3D0F9A"/>
<path d="M181.266 104.811C181.266 108.535 178.645 110.052 175.419 108.176C172.192 106.301 169.571 101.777 169.571 98.0816C169.571 94.3858 172.192 92.8413 175.419 94.7167C178.645 96.5646 181.266 101.115 181.266 104.811Z" fill="white"/>
<path d="M178.038 109.39C178.673 109.39 179.252 109.252 179.748 108.949C180.989 108.232 181.651 106.77 181.651 104.812C181.651 100.978 178.948 96.2619 175.611 94.3588C173.929 93.3935 172.302 93.228 171.088 93.9451C169.847 94.6622 169.185 96.124 169.185 98.0822C169.185 101.916 171.888 106.632 175.225 108.535C176.218 109.114 177.156 109.39 178.038 109.39ZM180.852 104.812C180.852 106.467 180.327 107.68 179.335 108.232C178.369 108.784 177.045 108.646 175.611 107.818C172.495 106.025 169.985 101.64 169.985 98.0822C169.985 96.4274 170.509 95.2138 171.502 94.6622C172.467 94.1106 173.791 94.2485 175.225 95.0759C178.342 96.8687 180.852 101.254 180.852 104.812Z" fill="#3D0F9A"/>
<path d="M199.634 115.403C199.634 119.126 197.014 120.643 193.787 118.767C190.56 116.92 187.94 112.396 187.94 108.673C187.94 104.95 190.56 103.433 193.787 105.308C197.014 107.156 199.634 111.679 199.634 115.403Z" fill="white"/>
<path d="M196.406 119.981C197.041 119.981 197.62 119.843 198.144 119.539C199.385 118.822 200.047 117.36 200.047 115.402C200.047 111.569 197.344 106.852 194.007 104.949C192.324 103.984 190.697 103.818 189.484 104.535C188.242 105.253 187.58 106.714 187.58 108.673C187.58 112.506 190.283 117.223 193.621 119.126C194.613 119.705 195.551 119.981 196.434 119.981H196.406ZM191.194 104.922C191.911 104.922 192.738 105.17 193.593 105.666C196.71 107.459 199.219 111.844 199.219 115.402C199.219 117.057 198.695 118.271 197.703 118.822C196.737 119.374 195.413 119.236 193.979 118.409C190.863 116.616 188.353 112.23 188.353 108.673C188.353 107.018 188.877 105.804 189.87 105.253C190.256 105.032 190.697 104.922 191.194 104.922Z" fill="#3D0F9A"/>
<path d="M130.593 96.7281C131.823 97.431 132.827 99.1759 132.814 100.582C132.802 101.988 131.798 102.565 130.568 101.862L125.499 98.9248C124.269 98.2218 123.265 96.477 123.277 95.0711C123.29 93.6652 124.294 93.0878 125.524 93.7908L130.593 96.7281Z" fill="white"/>
<path d="M160.433 112.017C164.612 114.428 168.012 120.327 168 125.135V125.662L19.2886 39.9025V39.3752C19.3011 34.5801 22.7268 32.6219 26.9055 35.032L160.433 112.017ZM130.58 101.85C131.81 102.553 132.814 101.975 132.827 100.569C132.839 99.1635 131.823 97.4187 130.606 96.7158L125.536 93.7784C124.306 93.0755 123.302 93.6404 123.29 95.0588C123.277 96.4773 124.294 98.2095 125.511 98.9125L130.58 101.85ZM154.385 115.72C155.615 116.436 156.618 115.859 156.631 114.44C156.644 113.022 155.64 111.289 154.41 110.586L149.34 107.649C148.111 106.946 147.107 107.524 147.107 108.929C147.107 110.335 148.098 112.08 149.328 112.783L154.397 115.72H154.385ZM142.414 108.678C143.643 109.394 144.647 108.804 144.66 107.398C144.672 105.992 143.668 104.247 142.439 103.544L137.369 100.607C136.139 99.9041 135.136 100.469 135.136 101.887C135.136 103.306 136.127 105.038 137.357 105.741L142.426 108.678H142.414Z" fill="#3D0F9A"/>
<path d="M142.427 103.557C143.656 104.272 144.66 106.004 144.648 107.41C144.635 108.816 143.644 109.394 142.401 108.691L137.332 105.753C136.102 105.05 135.111 103.306 135.111 101.9C135.111 100.494 136.115 99.9164 137.344 100.619L142.414 103.557H142.427Z" fill="white"/>
<path d="M154.398 110.599C155.628 111.314 156.631 113.047 156.619 114.453C156.606 115.859 155.615 116.436 154.373 115.733L149.303 112.796C148.073 112.093 147.082 110.36 147.082 108.942C147.082 107.524 148.086 106.959 149.316 107.662L154.385 110.599H154.398Z" fill="white"/>
<path d="M19.2886 39.3755V39.9027L168 125.662L167.711 225.619C167.699 230.427 164.273 232.385 160.094 229.962L26.5667 152.977C22.3881 150.567 18.9875 144.667 19 139.859L19.2886 39.3755Z" fill="white"/>
<path d="M19.2764 39.9028V39.3882" stroke="#3D0F9A" stroke-linecap="round" stroke-linejoin="round"/>
<path d="M168 125.135V125.662L167.711 225.607C167.711 230.414 164.273 232.372 160.094 229.95L26.5667 152.977C22.3881 150.554 18.9875 144.667 19 139.847L19.2886 39.9026V39.3879C19.2886 34.5928 22.7269 32.6346 26.893 35.0447L160.421 112.03C164.587 114.44 168 120.34 167.987 125.148L168 125.135Z" stroke="#3D0F9A" stroke-linecap="round" stroke-linejoin="round"/>
<path d="M19.2889 39.3877V39.9024H19.2764L19.2889 39.3877Z" stroke="#3D0F9A" stroke-linecap="round" stroke-linejoin="round"/>
<path d="M127.457 117.697C113.766 109.786 100.797 111.802 95.4532 124.277C88.7595 139.851 96.3659 166.093 112.511 184.234L116.257 175.525C105.322 162.784 100.245 144.757 104.866 133.975C108.65 125.189 117.778 123.782 127.438 129.354C129.796 130.704 132.173 132.492 134.512 134.678L138.258 125.969C134.702 122.546 131.051 119.789 127.457 117.716V117.697Z" fill="#FF5A00"/>
<path d="M138.239 125.95L134.493 134.66C135.083 135.211 135.672 135.781 136.262 136.39C148.679 149.188 154.745 168.85 149.82 180.317C149.63 180.735 149.44 181.116 149.25 181.515C149.174 181.648 149.098 181.781 149.021 181.933C145.427 188.266 138.544 189.806 130.918 186.745C129.72 186.269 128.522 185.68 127.286 184.976C126.963 184.786 126.64 184.596 126.297 184.387C125.708 184.006 125.251 183.702 124.795 183.398L124.586 183.246C123.597 182.561 122.627 181.8 121.657 180.964C121.543 180.869 121.41 180.754 121.296 180.64C120.935 180.317 120.573 179.994 120.212 179.671C120.079 179.556 119.946 179.423 119.813 179.29C119.337 178.853 118.881 178.377 118.406 177.902C117.645 177.122 116.941 176.324 116.219 175.525L112.473 184.234C113.195 185.033 113.899 185.832 114.659 186.592C115.325 187.277 115.991 187.924 116.675 188.57C116.865 188.76 117.055 188.931 117.246 189.103C117.759 189.578 118.273 190.034 118.786 190.491C118.957 190.643 119.128 190.795 119.299 190.947C120.688 192.126 122.076 193.21 123.464 194.18C123.578 194.256 123.692 194.332 123.787 194.408C124.415 194.864 125.061 195.264 125.689 195.663L125.917 195.796C126.354 196.062 126.773 196.329 127.21 196.576C128.237 197.165 129.264 197.698 130.272 198.192C131.032 198.553 131.755 198.858 132.478 199.162C144.115 203.783 154.536 200.873 159.214 190.015C166.212 173.757 157.598 145.841 139.989 127.7C139.399 127.091 138.81 126.521 138.22 125.969L138.239 125.95Z" fill="#3D0F9A"/>
<path d="M75.8588 138.789C74.6288 138.072 73.6192 138.66 73.6192 140.077L73.5641 157.573L82.9449 163L83 145.504C83 144.088 82.0087 142.358 80.7787 141.641L75.8588 138.789Z" fill="#3D0F9A"/>
<path d="M60.6952 118.957C59.4653 118.24 58.4556 118.81 58.4556 120.245L58.3822 148.797L67.763 154.224L67.8364 125.672C67.8364 124.237 66.8451 122.526 65.6151 121.809L60.6952 118.957Z" fill="#3D0F9A"/>
<path d="M45.5317 104.497C44.2833 103.779 43.292 104.368 43.292 105.785L43.2002 139.985L52.5811 145.412L52.6729 111.212C52.6729 109.795 51.6815 108.066 50.4516 107.348L45.55 104.515L45.5317 104.497Z" fill="#FF5A00"/>
<path d="M30.35 90.3127C29.1201 89.5952 28.1104 90.1839 28.1104 91.6005L28.0002 131.21L37.3811 136.637L37.4912 97.0276C37.4912 95.6111 36.4999 93.8817 35.2699 93.1642L30.35 90.3127Z" fill="#3D0F9A"/>
<path d="M214.434 197.934V208.16L177 186.901V176.675L214.434 197.934Z" fill="#3D0F9A" stroke="#3D0F9A" stroke-linecap="round" stroke-linejoin="round"/>
<path d="M214.434 197.934V208.16L251.868 186.901V176.675L214.434 197.934Z" fill="white" stroke="#3D0F9A" stroke-linecap="round" stroke-linejoin="round"/>
<path d="M251.867 176.676L214.434 197.934L177 176.676L214.434 155.417L251.867 176.676Z" fill="white" stroke="#3D0F9A" stroke-linecap="round" stroke-linejoin="round"/>
<path d="M214.434 181.517V191.743L177 170.484V160.258L214.434 181.517Z" fill="#3D0F9A" stroke="#3D0F9A" stroke-linecap="round" stroke-linejoin="round"/>
<path d="M214.434 181.517V191.743L251.868 170.484V160.258L214.434 181.517Z" fill="white" stroke="#3D0F9A" stroke-linecap="round" stroke-linejoin="round"/>
<path d="M251.867 160.259L214.434 181.517L177 160.259L214.434 139L251.867 160.259Z" fill="white" stroke="#3D0F9A" stroke-linecap="round" stroke-linejoin="round"/>
<path d="M204.172 159.501C205.059 159.501 205.779 159.096 205.779 158.596C205.779 158.095 205.059 157.69 204.172 157.69C203.284 157.69 202.564 158.095 202.564 158.596C202.564 159.096 203.284 159.501 204.172 159.501Z" fill="#3D0F9A"/>
<path d="M207.838 157.427C208.726 157.427 209.445 157.021 209.445 156.521C209.445 156.021 208.726 155.615 207.838 155.615C206.951 155.615 206.231 156.021 206.231 156.521C206.231 157.021 206.951 157.427 207.838 157.427Z" fill="#3D0F9A"/>
<path d="M211.504 155.335C212.392 155.335 213.111 154.929 213.111 154.429C213.111 153.929 212.392 153.523 211.504 153.523C210.617 153.523 209.897 153.929 209.897 154.429C209.897 154.929 210.617 155.335 211.504 155.335Z" fill="#3D0F9A"/>
<path d="M208.575 162.005C209.463 162.005 210.182 161.599 210.182 161.099C210.182 160.599 209.463 160.193 208.575 160.193C207.687 160.193 206.968 160.599 206.968 161.099C206.968 161.599 207.687 162.005 208.575 162.005Z" fill="#3D0F9A"/>
<path d="M212.241 159.912C213.129 159.912 213.848 159.507 213.848 159.007C213.848 158.507 213.129 158.101 212.241 158.101C211.353 158.101 210.634 158.507 210.634 159.007C210.634 159.507 211.353 159.912 212.241 159.912Z" fill="#3D0F9A"/>
<path d="M215.907 157.838C216.795 157.838 217.515 157.433 217.515 156.933C217.515 156.432 216.795 156.027 215.907 156.027C215.02 156.027 214.3 156.432 214.3 156.933C214.3 157.433 215.02 157.838 215.907 157.838Z" fill="#3D0F9A"/>
<path d="M212.96 164.491C213.848 164.491 214.567 164.085 214.567 163.585C214.567 163.085 213.848 162.679 212.96 162.679C212.073 162.679 211.353 163.085 211.353 163.585C211.353 164.085 212.073 164.491 212.96 164.491Z" fill="#3D0F9A"/>
<path d="M216.627 162.416C217.515 162.416 218.234 162.01 218.234 161.51C218.234 161.01 217.515 160.604 216.627 160.604C215.74 160.604 215.02 161.01 215.02 161.51C215.02 162.01 215.74 162.416 216.627 162.416Z" fill="#3D0F9A"/>
<path d="M220.294 160.325C221.181 160.325 221.901 159.919 221.901 159.419C221.901 158.919 221.181 158.513 220.294 158.513C219.406 158.513 218.687 158.919 218.687 159.419C218.687 159.919 219.406 160.325 220.294 160.325Z" fill="#3D0F9A"/>
<path d="M217.364 166.994C218.252 166.994 218.971 166.588 218.971 166.088C218.971 165.588 218.252 165.183 217.364 165.183C216.476 165.183 215.757 165.588 215.757 166.088C215.757 166.588 216.476 166.994 217.364 166.994Z" fill="#3D0F9A"/>
<path d="M221.031 164.903C221.918 164.903 222.638 164.497 222.638 163.997C222.638 163.497 221.918 163.091 221.031 163.091C220.143 163.091 219.423 163.497 219.423 163.997C219.423 164.497 220.143 164.903 221.031 164.903Z" fill="#3D0F9A"/>
<path d="M224.697 162.827C225.584 162.827 226.304 162.421 226.304 161.921C226.304 161.421 225.584 161.016 224.697 161.016C223.809 161.016 223.089 161.421 223.089 161.921C223.089 162.421 223.809 162.827 224.697 162.827Z" fill="#3D0F9A"/>
<path d="M210.19 185.243C210.735 184.934 210.734 183.93 210.189 183.001C209.643 182.071 208.759 181.568 208.215 181.878C207.67 182.187 207.671 183.191 208.217 184.12C208.762 185.05 209.646 185.552 210.19 185.243Z" fill="white"/>
<path d="M210.174 202.074C210.718 201.765 210.717 200.761 210.172 199.832C209.626 198.902 208.743 198.399 208.198 198.709C207.654 199.018 207.655 200.022 208.2 200.951C208.746 201.881 209.629 202.383 210.174 202.074Z" fill="white"/>
<path d="M183.328 169.981C183.872 169.672 183.871 168.668 183.326 167.739C182.78 166.809 181.897 166.307 181.352 166.616C180.808 166.925 180.808 167.929 181.354 168.859C181.899 169.788 182.783 170.291 183.328 169.981Z" fill="white"/>
<path d="M183.328 186.812C183.872 186.503 183.871 185.499 183.326 184.569C182.78 183.64 181.897 183.137 181.352 183.446C180.808 183.756 180.808 184.76 181.354 185.689C181.899 186.618 182.783 187.121 183.328 186.812Z" fill="white"/>
<path d="M203.552 196.584L187.799 187.643C187.464 187.445 187.179 187.61 187.179 187.989C187.179 188.367 187.447 188.845 187.799 189.026L203.552 197.967C203.887 198.165 204.172 198 204.172 197.622C204.172 197.243 203.904 196.765 203.552 196.584Z" fill="white"/>
<path d="M203.552 179.442L187.799 170.501C187.464 170.303 187.179 170.468 187.179 170.846C187.179 171.225 187.447 171.703 187.799 171.884L203.552 180.825C203.887 181.023 204.172 180.858 204.172 180.479C204.172 180.101 203.904 179.623 203.552 179.442Z" fill="white"/>
<path d="M70.9601 246.042V256.411L108.92 234.854V224.484L70.9601 246.042Z" fill="#3D0F9A" stroke="#3D0F9A" stroke-linecap="round" stroke-linejoin="round"/>
<path d="M70.96 246.042V256.411L33.0001 234.854V224.484L70.96 246.042Z" fill="white" stroke="#3D0F9A" stroke-linecap="round" stroke-linejoin="round"/>
<path d="M33.0003 224.485L70.9601 246.042L108.92 224.485L70.9601 202.927L33.0003 224.485Z" fill="white" stroke="#3D0F9A" stroke-linecap="round" stroke-linejoin="round"/>
<path d="M70.9601 229.394V239.763L108.92 218.206V207.836L70.9601 229.394Z" fill="#3D0F9A" stroke="#3D0F9A" stroke-linecap="round" stroke-linejoin="round"/>
<path d="M70.96 229.394V239.763L33.0001 218.206V207.836L70.96 229.394Z" fill="white" stroke="#3D0F9A" stroke-linecap="round" stroke-linejoin="round"/>
<path d="M33.0003 207.837L70.9601 229.394L108.92 207.837L70.9601 186.296L33.0003 207.837Z" fill="white" stroke="#3D0F9A" stroke-linecap="round" stroke-linejoin="round"/>
<path d="M70.9601 212.762V223.132L108.92 201.574V191.205L70.9601 212.762Z" fill="#3D0F9A" stroke="#3D0F9A" stroke-linecap="round" stroke-linejoin="round"/>
<path d="M70.96 212.762V223.132L33.0001 201.574V191.205L70.96 212.762Z" fill="white" stroke="#3D0F9A" stroke-linecap="round" stroke-linejoin="round"/>
<path d="M33.0003 191.205L70.9601 212.762L108.92 191.205L70.9601 169.647L33.0003 191.205Z" fill="white" stroke="#3D0F9A" stroke-linecap="round" stroke-linejoin="round"/>
<path d="M70.9601 196.115V206.484L108.92 184.927V174.557L70.9601 196.115Z" fill="#3D0F9A" stroke="#3D0F9A" stroke-linecap="round" stroke-linejoin="round"/>
<path d="M70.96 196.115V206.484L33.0001 184.927V174.557L70.96 196.115Z" fill="white" stroke="#3D0F9A" stroke-linecap="round" stroke-linejoin="round"/>
<path d="M33.0003 174.557L70.9601 196.115L108.92 174.557L70.9601 153L33.0003 174.557Z" fill="white" stroke="#3D0F9A" stroke-linecap="round" stroke-linejoin="round"/>
<path d="M81.3663 173.789C80.4662 173.789 79.7366 173.378 79.7366 172.871C79.7366 172.364 80.4662 171.953 81.3663 171.953C82.2664 171.953 82.9961 172.364 82.9961 172.871C82.9961 173.378 82.2664 173.789 81.3663 173.789Z" fill="#3D0F9A"/>
<path d="M77.6486 171.685C76.7485 171.685 76.0188 171.274 76.0188 170.767C76.0188 170.26 76.7485 169.849 77.6486 169.849C78.5487 169.849 79.2783 170.26 79.2783 170.767C79.2783 171.274 78.5487 171.685 77.6486 171.685Z" fill="#3D0F9A"/>
<path d="M73.9308 169.565C73.0307 169.565 72.301 169.154 72.301 168.646C72.301 168.139 73.0307 167.728 73.9308 167.728C74.8309 167.728 75.5605 168.139 75.5605 168.646C75.5605 169.154 74.8309 169.565 73.9308 169.565Z" fill="#3D0F9A"/>
<path d="M76.901 176.328C76.0009 176.328 75.2712 175.917 75.2712 175.41C75.2712 174.902 76.0009 174.491 76.901 174.491C77.8011 174.491 78.5308 174.902 78.5308 175.41C78.5308 175.917 77.8011 176.328 76.901 176.328Z" fill="#3D0F9A"/>
<path d="M73.1837 174.206C72.2836 174.206 71.554 173.795 71.554 173.288C71.554 172.781 72.2836 172.37 73.1837 172.37C74.0838 172.37 74.8135 172.781 74.8135 173.288C74.8135 173.795 74.0838 174.206 73.1837 174.206Z" fill="#3D0F9A"/>
<path d="M69.4655 172.103C68.5654 172.103 67.8357 171.692 67.8357 171.185C67.8357 170.677 68.5654 170.266 69.4655 170.266C70.3655 170.266 71.0952 170.677 71.0952 171.185C71.0952 171.692 70.3655 172.103 69.4655 172.103Z" fill="#3D0F9A"/>
<path d="M72.4542 178.849C71.5541 178.849 70.8245 178.438 70.8245 177.931C70.8245 177.423 71.5541 177.012 72.4542 177.012C73.3543 177.012 74.084 177.423 74.084 177.931C74.084 178.438 73.3543 178.849 72.4542 178.849Z" fill="#3D0F9A"/>
<path d="M68.7355 176.745C67.8354 176.745 67.1057 176.334 67.1057 175.827C67.1057 175.319 67.8354 174.908 68.7355 174.908C69.6356 174.908 70.3652 175.319 70.3652 175.827C70.3652 176.334 69.6356 176.745 68.7355 176.745Z" fill="#3D0F9A"/>
<path d="M65.0182 174.624C64.1181 174.624 63.3884 174.213 63.3884 173.706C63.3884 173.199 64.1181 172.788 65.0182 172.788C65.9183 172.788 66.6479 173.199 66.6479 173.706C66.6479 174.213 65.9183 174.624 65.0182 174.624Z" fill="#3D0F9A"/>
<path d="M67.9889 181.387C67.0888 181.387 66.3591 180.976 66.3591 180.469C66.3591 179.961 67.0888 179.55 67.9889 179.55C68.889 179.55 69.6187 179.961 69.6187 180.469C69.6187 180.976 68.889 181.387 67.9889 181.387Z" fill="#3D0F9A"/>
<path d="M64.2706 179.266C63.3705 179.266 62.6409 178.855 62.6409 178.348C62.6409 177.841 63.3705 177.43 64.2706 177.43C65.1707 177.43 65.9004 177.841 65.9004 178.348C65.9004 178.855 65.1707 179.266 64.2706 179.266Z" fill="#3D0F9A"/>
<path d="M60.5529 177.162C59.6528 177.162 58.9231 176.751 58.9231 176.244C58.9231 175.736 59.6528 175.325 60.5529 175.325C61.453 175.325 62.1826 175.736 62.1826 176.244C62.1826 176.751 61.453 177.162 60.5529 177.162Z" fill="#3D0F9A"/>
<path d="M75.2631 199.893C74.711 199.58 74.7118 198.562 75.265 197.619C75.8182 196.677 76.7142 196.167 77.2664 196.481C77.8185 196.794 77.8177 197.812 77.2645 198.755C76.7113 199.697 75.8153 200.207 75.2631 199.893Z" fill="white"/>
<path d="M75.2797 216.96C74.7276 216.647 74.7284 215.629 75.2816 214.686C75.8348 213.744 76.7308 213.234 77.283 213.547C77.8351 213.861 77.8343 214.879 77.2811 215.822C76.7279 216.764 75.8319 217.274 75.2797 216.96Z" fill="white"/>
<path d="M75.2714 233.777C74.7193 233.464 74.7201 232.445 75.2733 231.503C75.8265 230.561 76.7225 230.051 77.2747 230.364C77.8268 230.678 77.826 231.696 77.2728 232.639C76.7196 233.581 75.8236 234.091 75.2714 233.777Z" fill="white"/>
<path d="M75.2714 250.74C74.7193 250.427 74.7201 249.408 75.2733 248.466C75.8265 247.524 76.7225 247.014 77.2747 247.327C77.8268 247.641 77.826 248.659 77.2728 249.601C76.7196 250.544 75.8236 251.054 75.2714 250.74Z" fill="white"/>
<path d="M102.504 184.417C101.952 184.103 101.953 183.085 102.506 182.143C103.059 181.2 103.955 180.69 104.507 181.004C105.059 181.318 105.058 182.336 104.505 183.278C103.952 184.221 103.056 184.73 102.504 184.417Z" fill="white"/>
<path d="M102.504 201.484C101.952 201.171 101.953 200.153 102.506 199.21C103.059 198.268 103.955 197.758 104.507 198.071C105.059 198.385 105.058 199.403 104.505 200.346C103.952 201.288 103.056 201.798 102.504 201.484Z" fill="white"/>
<path d="M102.495 218.3C101.943 217.987 101.944 216.968 102.497 216.026C103.05 215.084 103.946 214.574 104.498 214.887C105.05 215.201 105.05 216.219 104.496 217.161C103.943 218.104 103.047 218.614 102.495 218.3Z" fill="white"/>
<path d="M102.495 235.264C101.943 234.95 101.944 233.932 102.497 232.99C103.05 232.047 103.946 231.538 104.498 231.851C105.05 232.165 105.05 233.183 104.496 234.125C103.943 235.068 103.047 235.578 102.495 235.264Z" fill="white"/>
<path d="M81.9945 211.394L97.9695 202.327C98.3091 202.126 98.5977 202.293 98.5977 202.677C98.5977 203.061 98.326 203.545 97.9695 203.729L81.9945 212.796C81.6549 212.997 81.3663 212.83 81.3663 212.446C81.3663 212.062 81.638 211.577 81.9945 211.394Z" fill="white"/>
<path d="M81.9945 228.025L97.9695 218.958C98.3091 218.757 98.5977 218.924 98.5977 219.309C98.5977 219.693 98.326 220.177 97.9695 220.361L81.9945 229.428C81.6549 229.628 81.3663 229.461 81.3663 229.077C81.3663 228.693 81.638 228.209 81.9945 228.025Z" fill="white"/>
<path d="M81.9945 245.141L97.9695 236.074C98.3091 235.873 98.5977 236.04 98.5977 236.424C98.5977 236.808 98.326 237.293 97.9695 237.476L81.9945 246.543C81.6549 246.744 81.3663 246.577 81.3663 246.193C81.3663 245.809 81.638 245.324 81.9945 245.141Z" fill="white"/>
<path d="M81.9945 194.01L97.9695 184.943C98.3091 184.743 98.5977 184.91 98.5977 185.294C98.5977 185.678 98.326 186.162 97.9695 186.346L81.9945 195.413C81.6549 195.613 81.3663 195.446 81.3663 195.062C81.3663 194.678 81.638 194.194 81.9945 194.01Z" fill="white"/>
<path d="M212.761 245.198V248.283L195.777 239.117V236.032L212.761 245.198Z" fill="#3D0F9A"/>
<path d="M212.761 248.737C212.761 248.737 212.923 248.737 212.987 248.677C213.149 248.586 213.214 248.435 213.214 248.283V245.228C213.214 245.077 213.117 244.925 212.987 244.835L196.036 235.669C196.036 235.669 195.713 235.578 195.551 235.669C195.39 235.76 195.325 235.911 195.325 236.062V239.117C195.325 239.269 195.422 239.42 195.551 239.511L212.502 248.677C212.502 248.677 212.664 248.737 212.729 248.737H212.761ZM212.276 245.47V247.497L196.263 238.845V236.818L212.276 245.47Z" fill="#3D0F9A"/>
<path d="M233.497 252.79L233.464 255.876L206.129 251.883V248.797L233.497 252.79Z" fill="#3D0F9A"/>
<path d="M233.464 256.33C233.464 256.33 233.69 256.3 233.787 256.209C233.885 256.118 233.949 255.997 233.949 255.876V252.821C233.949 252.609 233.787 252.397 233.561 252.367L206.194 248.374C206.194 248.374 205.903 248.374 205.806 248.465C205.708 248.556 205.644 248.677 205.644 248.798V251.853C205.644 252.065 205.806 252.276 206.032 252.307L233.399 256.3H233.464V256.33ZM232.979 253.184V255.332L206.582 251.49V249.342L232.979 253.184Z" fill="#3D0F9A"/>
<path d="M226.024 237.998L233.497 252.791L206.129 248.798L212.761 245.198L195.778 236.032L202.441 232.432L219.392 241.598L226.024 237.998Z" fill="white" stroke="#3D0F9A" stroke-linejoin="round"/>
<path d="M204.9 218.335L204.932 221.753L211.823 218.063V214.614L204.9 218.335Z" fill="#3D0F9A"/>
<path d="M204.933 222.207C204.933 222.207 205.094 222.207 205.159 222.147L212.082 218.456C212.082 218.456 212.308 218.214 212.308 218.063V214.644C212.308 214.493 212.211 214.342 212.049 214.251C211.888 214.16 211.726 214.16 211.564 214.251L204.641 217.942C204.641 217.942 204.415 218.184 204.415 218.335V221.753C204.415 221.905 204.512 222.056 204.674 222.147C204.738 222.177 204.835 222.207 204.9 222.207H204.933ZM211.37 217.79L205.418 220.967V218.577L211.37 215.401V217.79Z" fill="#3D0F9A"/>
<path d="M191.055 225.776L191.088 229.195L197.978 225.474V222.056L191.055 225.776Z" fill="#3D0F9A"/>
<path d="M191.087 229.648C191.087 229.648 191.249 229.648 191.314 229.588L198.236 225.867C198.236 225.867 198.463 225.625 198.463 225.474V222.056C198.463 221.904 198.366 221.753 198.204 221.662C198.042 221.572 197.881 221.572 197.719 221.662L190.796 225.383C190.796 225.383 190.57 225.625 190.57 225.776V229.195C190.57 229.346 190.667 229.497 190.829 229.588C190.893 229.618 190.99 229.648 191.055 229.648H191.087ZM197.525 225.232L191.573 228.408V226.018L197.525 222.812V225.202V225.232Z" fill="#3D0F9A"/>
<path d="M183.518 210.439V213.858L191.087 229.195L191.055 225.777L183.518 210.439Z" fill="#3D0F9A"/>
<path d="M191.087 229.648C191.087 229.648 191.152 229.648 191.184 229.648C191.411 229.588 191.572 229.406 191.572 229.195V225.776C191.572 225.776 191.572 225.655 191.508 225.595L183.938 210.258C183.841 210.076 183.614 209.955 183.388 210.016C183.161 210.076 183 210.258 183 210.469V213.888C183 213.888 183 214.009 183.064 214.069L190.634 229.406C190.699 229.558 190.893 229.679 191.087 229.679V229.648ZM190.602 225.867V227.138L184.003 213.767V212.496L190.602 225.867Z" fill="#3D0F9A"/>
<path d="M215.446 231.554L215.479 235.003L222.401 231.252V227.833L215.446 231.554Z" fill="#3D0F9A"/>
<path d="M215.479 235.426C215.479 235.426 215.641 235.426 215.705 235.366L222.66 231.645C222.66 231.645 222.887 231.403 222.887 231.252V227.833C222.887 227.682 222.79 227.531 222.628 227.44C222.466 227.349 222.304 227.349 222.143 227.44L215.188 231.161C215.188 231.161 214.961 231.403 214.961 231.554V234.973C214.961 235.124 215.058 235.275 215.22 235.366C215.285 235.396 215.382 235.426 215.446 235.426H215.479ZM221.949 230.979L215.964 234.186V231.796L221.949 228.59V230.979Z" fill="#3D0F9A"/>
<path d="M197.978 222.056V225.474L215.479 235.003L215.446 231.554L197.978 222.056Z" fill="#3D0F9A"/>
<path d="M215.478 235.426C215.478 235.426 215.64 235.426 215.705 235.366C215.866 235.275 215.931 235.124 215.931 234.973V231.554C215.931 231.403 215.834 231.252 215.672 231.161L198.204 221.662C198.204 221.662 197.88 221.572 197.719 221.662C197.557 221.753 197.492 221.904 197.492 222.056V225.474C197.492 225.625 197.589 225.776 197.751 225.867L215.219 235.366C215.219 235.366 215.381 235.426 215.446 235.426H215.478ZM214.993 231.796V234.186L198.495 225.202V222.812L214.993 231.796Z" fill="#3D0F9A"/>
<path d="M183.517 210.439L191.055 225.777L197.977 222.056L215.446 231.554L222.401 227.834L204.9 218.335L211.823 214.614L183.517 210.439Z" fill="white" stroke="#3D0F9A" stroke-linejoin="round"/>
<path d="M118 86.5L160 111C163.5 113.5 169 117.2 169 126V146.5" stroke="white" stroke-linejoin="round"/>
<path d="M152.673 250.456L152.089 248.061H150.698C149.186 247.088 146.982 246.466 144.522 246.466C142.061 246.466 139.857 247.082 138.346 248.061H137.009L136.371 250.429H136.382C136.311 250.678 136.267 250.927 136.267 251.186C136.267 253.793 139.966 255.901 144.522 255.901C149.077 255.901 152.776 253.793 152.776 251.186C152.776 250.938 152.733 250.7 152.667 250.462L152.673 250.456Z" fill="#3D0F9A"/>
<path d="M144.527 256.166C139.825 256.166 136 253.928 136 251.181C136 251.024 136.016 250.867 136.044 250.694H136.033L136.115 250.353L136.807 247.785H138.275C139.885 246.774 142.16 246.19 144.533 246.19C146.906 246.19 149.176 246.769 150.791 247.785H152.318L152.951 250.391C153.028 250.683 153.066 250.932 153.066 251.181C153.066 253.928 149.241 256.166 144.538 256.166H144.527ZM136.731 250.159L136.644 250.505C136.573 250.754 136.54 250.975 136.54 251.186C136.54 253.636 140.119 255.631 144.522 255.631C148.925 255.631 152.504 253.636 152.504 251.186C152.504 250.986 152.471 250.781 152.406 250.532L151.876 248.337H150.622L150.556 248.293C149.028 247.309 146.83 246.747 144.527 246.747C142.225 246.747 140.026 247.309 138.499 248.293L138.433 248.337H137.222L136.731 250.164V250.159Z" fill="#3D0F9A"/>
<path d="M152.154 248.607C152.154 251.002 148.75 252.949 144.555 252.949C140.359 252.949 136.955 251.008 136.955 248.607C136.955 246.206 140.359 244.265 144.555 244.265C148.75 244.265 152.154 246.206 152.154 248.607Z" fill="white"/>
<path d="M152.068 249.84C152.068 252.235 148.663 254.182 144.468 254.182C140.272 254.182 136.868 252.241 136.868 249.84C136.868 247.439 140.272 245.498 144.468 245.498C148.663 245.498 152.068 247.439 152.068 249.84Z" fill="white"/>
<path d="M144.555 244C140.212 244 136.682 246.071 136.682 248.612C136.682 251.154 140.212 253.225 144.555 253.225C148.898 253.225 152.428 251.154 152.428 248.612C152.428 246.071 148.898 244 144.555 244ZM144.555 252.684C140.512 252.684 137.228 250.856 137.228 248.612C137.228 246.368 140.518 244.541 144.555 244.541C148.592 244.541 151.882 246.368 151.882 248.612C151.882 250.856 148.592 252.684 144.555 252.684Z" fill="#3D0F9A" stroke="#3D0F9A" stroke-width="0.5"/>
<path d="M144.527 246.32C142.394 246.32 140.659 247.228 140.659 248.353C140.659 249.478 142.389 250.386 144.527 250.386C146.666 250.386 148.395 249.478 148.395 248.353C148.395 247.228 146.666 246.32 144.527 246.32Z" fill="#3D0F9A"/>
</svg>
