<svg width="260" height="260" viewBox="0 0 260 260" fill="none" xmlns="http://www.w3.org/2000/svg">
<path d="M89.5093 57.4186C90.2974 58.3083 90.8821 59.2997 91.2379 60.4437C91.4159 61.0029 91.5176 61.5622 91.5176 62.1469V174.685C91.5176 175.092 91.4667 175.524 91.3142 175.905C91.1617 176.286 90.8821 176.617 90.5516 176.846C90.4245 176.897 90.3228 176.973 90.1957 176.998C89.5602 177.176 88.7467 176.922 88.162 176.592L24.3557 139.731C23.8473 139.452 23.4151 139.096 23.0084 138.638C22.2204 137.748 21.6357 136.757 21.2798 135.613C21.1018 135.054 21.0002 134.495 21.0002 133.91V21.3973C21.0002 20.9905 21.051 20.5584 21.2035 20.1771C21.356 19.7957 21.6103 19.4399 21.9661 19.2111L22.1187 19.1348C22.1695 19.1094 22.2204 19.0585 22.2966 19.0585C22.9321 18.8806 23.7456 19.1348 24.3303 19.4653L88.162 56.3255C88.6704 56.6051 89.1026 56.961 89.5093 57.4186Z" fill="#3D0F9A"/>
<path d="M246.258 98.9016L212.025 75.6306C209.813 74.3634 208.023 70.9241 208.023 67.9875L204.965 28.7063C204.965 25.7697 209.853 23.9595 212.065 25.2267L249.054 46.7278C251.266 47.9949 253.056 51.4343 253.056 54.3708L253.016 94.0946C253.016 97.0311 249.5 102 246.278 98.9016H246.258Z" fill="#3D0F9A"/>
<path d="M247.568 101C246.981 101 246.415 100.857 245.95 100.593L245.889 100.552L211.464 76.962C209.036 75.5564 207.074 71.8285 207.074 68.5284L204 28.8453C204 27.3175 204.91 25.9526 206.508 25.0155C208.49 23.8748 210.897 23.671 212.374 24.5266L249.57 46.3034C252.058 47.7498 254 51.4573 254 54.7574L253.96 94.9905C253.96 97.1091 252.18 99.0851 250.44 100.104C249.429 100.694 248.458 100.98 247.568 100.98V101ZM246.799 99.1666C247.426 99.5129 248.388 100.152 249.5 99.5C251.098 98.5833 252.321 96.2331 252.321 94.9905L252.362 54.7574C252.362 52.0888 250.703 48.8702 248.741 47.7294L211.565 25.973C210.614 25.423 208.773 25.6267 207.358 26.4619C206.852 26.7675 205.659 27.5823 205.659 28.7842L208.733 68.4876C208.733 71.2174 210.392 74.436 212.354 75.5768L246.82 99.1666H246.799Z" fill="#3D0F9A"/>
<path d="M251.397 49.1425L248.392 51.0142L248.892 51.8165L251.897 49.9449L251.397 49.1425Z" fill="#3D0F9A"/>
<path d="M213.753 25.9218L210.748 27.793L211.247 28.5954L214.252 26.7243L213.753 25.9218Z" fill="#3D0F9A"/>
<path d="M252.859 91.8608L249.854 93.7319L250.354 94.5344L253.359 92.6632L252.859 91.8608Z" fill="#3D0F9A"/>
<path d="M204 70.3279C204 73.3182 205.823 76.8206 208.076 78.1109L245.742 99.9853C247.995 101.296 249.817 99.9034 249.817 96.9131L249.858 56.4619C249.858 53.4715 248.035 49.9692 245.783 48.6789L208.117 26.784C205.864 25.4937 204.041 26.8659 204.041 29.8767L204 70.3279Z" fill="white" stroke="#3D0F9A"/>
<path d="M224.235 73.9928L108.097 6.94229C107.067 6.35139 106.122 6.28386 105.379 6.64684C105.379 6.64684 105.362 6.64684 105.362 6.65528C105.345 6.65528 105.337 6.66372 105.32 6.67216C101.091 8.56305 98.1616 10.8845 98.1616 10.8845L103.741 16.3208V99.697C103.741 102.905 105.691 106.636 108.097 108.029L220.909 173.163L216.975 175.105L219.82 179.562C219.82 179.562 223.306 178.608 227.257 175.197C228.076 174.615 228.591 173.433 228.591 171.787V82.3245C228.591 79.1168 226.641 75.3856 224.235 73.9928Z" fill="#3D0F9A"/>
<path d="M219.643 180.043L216.376 174.936L220.023 173.138L107.895 108.392C105.379 106.94 103.328 103.04 103.328 99.6969V16.4979L97.5371 10.8505L97.9085 10.5551C98.0267 10.4622 100.922 8.18303 105.151 6.2837L105.379 6.63824L105.21 6.25838C106.105 5.82786 107.203 5.9376 108.317 6.57071L224.454 73.6212C226.97 75.0731 229.021 78.9731 229.021 82.3075V171.77C229.021 173.492 228.489 174.826 227.51 175.518C223.568 178.928 220.09 179.908 219.938 179.941L219.643 180.026V180.043ZM217.583 175.273L220.006 179.063C220.909 178.76 223.813 177.628 226.987 174.876C227.755 174.328 228.177 173.214 228.177 171.787V82.3244C228.177 79.2517 226.312 75.6809 224.024 74.3556L107.895 7.30512C107.025 6.79863 106.215 6.70577 105.565 7.02655L105.506 7.05187C102.231 8.52069 99.715 10.2596 98.8033 10.9349L104.155 16.1602V99.7138C104.155 102.786 106.021 106.357 108.308 107.682L221.795 173.205L217.583 175.282V175.273Z" fill="#3D0F9A"/>
<path d="M103.784 24.3993V55.2022L175.359 97.1816L219.871 71.4436L121.089 14.4131L103.784 24.3993Z" fill="#3D0F9A"/>
<path d="M175.359 97.6625L175.148 97.5358L103.37 55.4383V24.1627L121.089 13.9316L121.3 14.0498L220.715 71.4433L175.367 97.6625H175.359ZM104.206 54.9571L175.367 96.7001L219.043 71.4433L121.089 14.894L104.206 24.6439V54.9656V54.9571Z" fill="#3D0F9A"/>
<path d="M102.29 14.9617L103.691 16.3208V19.022L116.041 11.5598L110.039 8.09033L102.864 12.1591L102.29 14.9617Z" fill="#3D0F9A"/>
<path d="M103.269 19.7644V16.506L101.834 15.1048L102.492 11.897L110.039 7.61719L116.86 11.5509L103.269 19.7644ZM102.737 14.8178L104.096 16.1515V18.2872L115.214 11.5678L110.031 8.57107L103.227 12.4288L102.737 14.8178Z" fill="#3D0F9A"/>
<path d="M194.107 174.607C193.879 173.501 193.119 172.572 192.14 172.007L187.632 169.398C183.032 166.748 179.275 160.231 179.275 154.921V124.979C179.275 124.979 179.259 124.903 179.225 124.887L174.683 122.261C174.599 122.211 174.506 122.295 174.531 122.379C174.886 123.561 175.088 124.743 175.088 125.874V147.569C175.088 148.903 174.81 150 174.312 150.836L173.848 147.29C173.848 147.231 173.788 147.189 173.729 147.197L164.3 148.295C164.3 148.295 164.224 148.286 164.199 148.253C162.181 145.636 160.839 142.284 160.839 139.347V117.652C160.839 116.487 161.05 115.508 161.43 114.723C161.456 114.672 161.43 114.622 161.388 114.588L156.804 111.946C156.737 111.904 156.644 111.954 156.644 112.039V141.744C156.644 147.121 152.837 149.316 148.177 146.632L143.475 143.914C142.986 143.627 142.64 143.568 142.319 143.762L142.226 143.812C142.226 143.812 137.929 145.518 133.43 148.936C133.379 148.979 133.371 149.054 133.43 149.097L136.975 152.262C136.975 152.262 136.984 152.271 136.992 152.279L180.44 176.413C180.44 176.413 180.457 176.43 180.466 176.439L184.72 181.427C184.72 181.427 184.788 181.478 184.83 181.461C185.455 181.225 190.714 179.224 193.795 176.185C194.099 175.898 194.242 175.367 194.09 174.607H194.107Z" fill="#3D0F9A"/>
<path d="M184.813 181.883C184.669 181.883 184.518 181.815 184.416 181.697L180.195 176.751L136.764 152.625L136.714 152.591L133.16 149.417C133.042 149.316 132.982 149.164 132.982 149.004C132.982 148.843 133.067 148.7 133.193 148.607C137.684 145.205 142.04 143.449 142.082 143.432L142.15 143.398C142.682 143.061 143.256 143.306 143.695 143.567L148.397 146.277C150.515 147.501 152.491 147.704 153.959 146.859C155.428 146.015 156.239 144.2 156.239 141.752V112.047C156.239 111.861 156.34 111.684 156.5 111.599C156.661 111.507 156.863 111.507 157.024 111.599L161.607 114.242C161.844 114.377 161.937 114.664 161.818 114.917C161.455 115.677 161.27 116.597 161.27 117.66V139.355C161.27 142.065 162.452 145.239 164.435 147.872L173.696 146.792C173.983 146.758 174.236 146.961 174.27 147.239L174.523 149.155C174.624 148.674 174.683 148.143 174.683 147.577V125.882C174.683 124.836 174.506 123.696 174.143 122.506C174.084 122.303 174.143 122.084 174.32 121.949C174.489 121.814 174.717 121.797 174.903 121.906L179.444 124.532C179.605 124.625 179.706 124.793 179.706 124.979V154.921C179.706 160.112 183.361 166.444 187.852 169.035L192.36 171.644C193.491 172.302 194.284 173.349 194.529 174.522C194.706 175.375 194.554 176.067 194.107 176.489C190.958 179.587 185.598 181.63 184.999 181.858C184.94 181.883 184.881 181.891 184.821 181.891L184.813 181.883ZM137.237 151.933L180.719 176.084L180.795 176.16L184.914 180.988C186.062 180.541 190.722 178.641 193.525 175.881C193.752 175.662 193.82 175.231 193.702 174.682C193.508 173.745 192.866 172.893 191.938 172.361L187.43 169.753C182.703 167.026 178.862 160.366 178.862 154.913V125.148L175.139 122.995C175.384 123.991 175.51 124.954 175.51 125.865V147.56C175.51 148.936 175.232 150.101 174.683 151.038L174.067 152.085L173.485 147.644L164.359 148.708C164.182 148.725 163.996 148.649 163.887 148.505C161.726 145.703 160.442 142.276 160.442 139.338V117.644C160.442 116.571 160.611 115.618 160.957 114.799L157.091 112.562V141.727C157.091 144.479 156.137 146.547 154.398 147.552C152.659 148.556 150.389 148.345 148.008 146.969L143.306 144.259C142.8 143.964 142.665 144.048 142.58 144.099L142.445 144.167C142.369 144.2 138.309 145.83 134.021 149.02L137.254 151.907L137.237 151.933Z" fill="#3D0F9A"/>
<path d="M194.107 174.725C193.989 174.168 194.09 174.1 193.744 173.661C189.372 177.316 184.754 178.658 184.754 178.658L182.517 178.954L184.729 181.554C184.729 181.554 184.796 181.605 184.838 181.588C185.463 181.351 190.722 179.351 193.803 176.312C194.107 176.025 194.251 175.493 194.099 174.733L194.107 174.725Z" fill="#3D0F9A"/>
<path d="M184.813 182.001C184.67 182.001 184.518 181.934 184.417 181.815L181.707 178.633L184.67 178.245C185.067 178.126 189.406 176.742 193.483 173.34L193.812 173.062L194.074 173.399C194.378 173.796 194.42 173.99 194.462 174.302C194.471 174.387 194.487 174.497 194.513 174.632C194.69 175.484 194.538 176.176 194.091 176.598C190.942 179.697 185.582 181.739 184.982 181.967C184.923 181.993 184.864 182.001 184.805 182.001H184.813ZM183.336 179.258L184.915 181.106C186.063 180.659 190.723 178.76 193.525 175.999C193.753 175.78 193.821 175.349 193.702 174.8C193.669 174.64 193.652 174.513 193.635 174.412C193.635 174.362 193.626 174.328 193.618 174.294C189.355 177.721 185.058 178.996 184.873 179.047H184.813L183.336 179.249V179.258Z" fill="#3D0F9A"/>
<path d="M181.327 178.262L179.993 176.692L174.498 173.644L175.165 173.281C176.777 172.403 180.981 170.09 185.312 167.625L185.565 167.482L185.784 167.668C186.409 168.199 187.034 168.647 187.633 168.993L192.571 171.846L181.327 178.27V178.262ZM180.449 175.991L180.508 176.025L180.584 176.101L181.513 177.19L190.891 171.829L187.211 169.702C186.645 169.373 186.054 168.959 185.472 168.478C181.732 170.614 178.111 172.606 176.229 173.636L180.449 175.982V175.991Z" fill="#3D0F9A"/>
<path d="M179.275 154.921V143.331C177.342 142.673 175.89 142.191 175.73 142.191C175.671 142.191 175.443 142.25 175.088 142.352V147.577C175.088 148.911 174.81 150.008 174.312 150.844L173.847 147.298C173.847 147.239 173.788 147.197 173.729 147.206L164.3 148.303C164.3 148.303 164.224 148.295 164.199 148.261C163.718 147.636 163.27 146.961 162.874 146.269C162.612 146.353 162.46 146.404 162.46 146.404L163.49 166.646L168.462 169.651L168.597 169.829L172.649 172.083L173.24 171.331C173.24 171.331 178.245 168.588 183.293 165.481C180.888 162.392 179.267 158.407 179.267 154.93L179.275 154.921Z" fill="#3D0F9A"/>
<path d="M172.767 172.614L168.327 170.149L168.184 169.964L163.085 166.883L162.03 146.1L163.068 145.754L163.237 146.049C163.6 146.691 164.005 147.298 164.419 147.855L173.679 146.775C173.966 146.741 174.219 146.944 174.253 147.222L174.506 149.139C174.608 148.657 174.667 148.126 174.667 147.56V142.022L174.971 141.938C175.536 141.778 175.646 141.761 175.73 141.761C175.857 141.761 176.009 141.761 179.411 142.926L179.689 143.019V154.904C179.689 158.137 181.2 162.088 183.623 165.203L183.91 165.566L183.513 165.81C178.854 168.681 174.169 171.272 173.519 171.627L172.759 172.589L172.767 172.614ZM168.884 169.508L172.548 171.542L172.97 171.002L173.046 170.96C173.097 170.934 177.841 168.334 182.686 165.363C180.28 162.13 178.854 158.255 178.854 154.921V143.626C176.541 142.841 175.891 142.647 175.722 142.605C175.688 142.605 175.621 142.63 175.502 142.664V147.568C175.502 148.944 175.224 150.109 174.675 151.046L174.059 152.093L173.476 147.653L164.351 148.716C164.174 148.742 163.988 148.666 163.878 148.522C163.549 148.092 163.228 147.636 162.925 147.155L163.904 166.418L168.758 169.347L168.884 169.516V169.508Z" fill="#3D0F9A"/>
<path d="M183.597 177.342L178.743 174.539C174.16 171.888 170.437 165.448 170.437 160.155V130.086L165.617 127.301C166.022 128.567 166.25 129.841 166.25 131.049V152.743C166.25 157.285 163.059 159.125 159.134 156.854C155.2 154.583 152.018 149.063 152.018 144.521V122.827C152.018 121.619 152.246 120.615 152.651 119.813L147.831 117.027V147.096C147.831 152.389 144.117 154.541 139.524 151.891L134.671 149.088C133.708 148.531 132.932 148.987 132.932 150.093C132.932 151.198 133.708 152.541 134.671 153.098L183.614 181.351C184.576 181.908 185.353 181.453 185.353 180.347C185.353 179.241 184.576 177.899 183.614 177.342H183.597Z" fill="white"/>
<path d="M184.365 182.001C184.053 182.001 183.724 181.9 183.378 181.706L134.434 153.452C133.345 152.827 132.493 151.342 132.493 150.084C132.493 149.392 132.746 148.868 133.21 148.598C133.674 148.337 134.257 148.37 134.856 148.716L139.71 151.519C141.795 152.726 143.728 152.929 145.163 152.101C146.598 151.274 147.383 149.493 147.383 147.087V116.301L153.174 119.644L152.997 119.999C152.609 120.775 152.406 121.721 152.406 122.827V144.521C152.406 148.919 155.504 154.296 159.32 156.491C161.084 157.512 162.73 157.69 163.937 156.989C165.144 156.288 165.811 154.786 165.811 152.743V131.048C165.811 129.926 165.609 128.71 165.195 127.436L164.866 126.406L170.825 129.85V160.155C170.825 165.312 174.455 171.601 178.921 174.176L183.775 176.978C184.863 177.603 185.716 179.089 185.716 180.347C185.716 181.039 185.463 181.562 184.999 181.832C184.796 181.95 184.576 182.01 184.34 182.01L184.365 182.001ZM133.869 149.265C133.776 149.265 133.691 149.282 133.624 149.324C133.43 149.434 133.328 149.713 133.328 150.084C133.328 151.038 134.029 152.253 134.856 152.726L183.8 180.98C184.121 181.165 184.416 181.208 184.61 181.098C184.804 180.988 184.906 180.71 184.906 180.338C184.906 179.384 184.205 178.169 183.378 177.696L178.524 174.893C173.83 172.184 170.007 165.566 170.007 160.146V130.323L166.284 128.17C166.529 129.166 166.655 130.128 166.655 131.04V152.735C166.655 155.09 165.836 156.854 164.359 157.707C162.882 158.559 160.949 158.382 158.906 157.209C154.863 154.879 151.579 149.181 151.579 144.513V122.818C151.579 121.746 151.748 120.792 152.094 119.973L148.228 117.736V147.079C148.228 149.797 147.291 151.831 145.585 152.819C143.88 153.807 141.652 153.596 139.296 152.237L134.443 149.434C134.232 149.316 134.037 149.257 133.877 149.257L133.869 149.265Z" fill="#3D0F9A"/>
<path d="M151.985 122.886V144.58C151.985 149.122 155.175 154.642 159.101 156.913C163.034 159.184 166.217 157.344 166.217 152.802V131.108C166.217 129.901 165.989 128.626 165.584 127.36L168.108 128.82V120.514H152.339C152.103 121.189 151.976 121.982 151.976 122.877L151.985 122.886Z" fill="white"/>
<path d="M162.283 158.306C161.236 158.306 160.08 157.96 158.89 157.276C154.846 154.946 151.562 149.248 151.562 144.58V122.886C151.562 121.966 151.689 121.122 151.951 120.379L152.044 120.1H168.53V129.546L166.268 128.238C166.512 129.234 166.639 130.196 166.639 131.108V152.802C166.639 155.157 165.829 156.922 164.343 157.774C163.727 158.129 163.034 158.306 162.283 158.306ZM152.651 120.936C152.483 121.518 152.398 122.177 152.398 122.886V144.58C152.398 148.978 155.496 154.356 159.312 156.55C161.084 157.572 162.722 157.749 163.929 157.048C165.136 156.348 165.803 154.837 165.803 152.802V131.108C165.803 129.985 165.601 128.769 165.187 127.495L164.858 126.465L167.694 128.103V120.936H152.643H152.651Z" fill="#3D0F9A"/>
<path d="M164.705 157.124C163.642 157.124 162.485 156.778 161.32 156.103C157.277 153.773 153.993 148.075 153.993 143.407V121.712C153.993 121.29 154.027 120.868 154.086 120.463L154.137 120.108H168.546V129.554L166.284 128.246C166.529 129.242 166.655 130.204 166.655 131.116V152.811C166.655 154.558 166.2 156.001 165.338 156.981L165.229 157.107H165.06C164.95 157.124 164.832 157.133 164.722 157.133L164.705 157.124ZM154.863 120.936C154.837 121.189 154.829 121.451 154.829 121.712V143.407C154.829 147.805 157.927 153.182 161.742 155.377C162.823 156.001 163.887 156.314 164.824 156.288C165.482 155.47 165.82 154.263 165.82 152.802V131.108C165.82 129.985 165.617 128.769 165.203 127.495L164.874 126.465L167.711 128.102L167.685 126.532C167.668 126.456 167.643 126.389 167.626 126.313L167.297 125.283L167.719 125.528V120.936H154.871H154.863Z" fill="#3D0F9A"/>
<path d="M196.116 93.9903L194.783 158.356L220.31 173.095L228.591 168.343V82.6028C228.591 80.5515 227.789 78.2808 226.582 76.5503L212.248 84.7892L196.108 93.9903H196.116Z" fill="#3D0F9A"/>
<path d="M220.318 173.576L194.369 158.593V158.348L195.711 93.7455L212.054 84.4262L226.717 75.9932L226.936 76.3055C228.245 78.1795 229.021 80.5262 229.021 82.5944V168.579L220.318 173.568V173.576ZM195.213 158.12L220.318 172.614L228.186 168.106V82.6028C228.186 80.8132 227.544 78.7873 226.464 77.1074L212.468 85.1521L196.539 94.2351L195.222 158.112L195.213 158.12Z" fill="#3D0F9A"/>
<path d="M217.195 179.224L101.049 112.173C98.6428 110.781 96.6929 107.058 96.6929 103.842V14.3792C96.6929 11.1715 98.6428 9.6942 101.049 11.087L217.186 78.1375C219.592 79.5304 221.542 83.2531 221.542 86.4693V175.932C221.542 179.14 219.592 180.617 217.186 179.224H217.195Z" fill="white"/>
<path d="M218.925 180.169C218.309 180.169 217.651 179.975 216.984 179.587L100.846 112.536C98.3306 111.084 96.2793 107.184 96.2793 103.85V14.379C96.2793 12.5388 96.904 11.1206 97.9929 10.496C98.9215 9.96416 100.078 10.0401 101.26 10.7239L217.397 77.7744C219.913 79.2263 221.964 83.1263 221.964 86.4691V175.932C221.964 177.772 221.339 179.19 220.251 179.815C219.845 180.051 219.398 180.161 218.925 180.161V180.169ZM217.397 178.869C218.309 179.393 219.178 179.477 219.837 179.097C220.664 178.624 221.137 177.468 221.137 175.932V86.4691C221.137 83.3964 219.271 79.8257 216.984 78.5004L100.846 11.4499C99.9344 10.9265 99.065 10.8421 98.4065 11.2219C97.5793 11.6947 97.1066 12.8511 97.1066 14.3875V103.85C97.1066 106.923 98.9721 110.493 101.26 111.819L217.397 178.869Z" fill="#3D0F9A"/>
<path d="M216.798 169.727L101.445 103.124C100.761 102.727 100.196 101.664 100.196 100.744V16.2278C100.196 15.3077 100.753 14.8857 101.445 15.2824L216.798 81.8855C217.481 82.2823 218.047 83.3459 218.047 84.266V168.782C218.047 169.702 217.49 170.124 216.798 169.727Z" fill="white"/>
<path d="M217.296 170.293C217.068 170.293 216.831 170.225 216.595 170.09L101.234 103.487C100.415 103.014 99.7822 101.816 99.7822 100.744V16.2279C99.7822 15.5947 100.019 15.0967 100.424 14.8603C100.787 14.6493 101.217 14.6746 101.656 14.9279L217.009 81.531C217.828 82.0037 218.461 83.2024 218.461 84.2745V168.79C218.461 169.423 218.224 169.921 217.819 170.158C217.659 170.251 217.481 170.301 217.287 170.301L217.296 170.293ZM217.009 169.364C217.102 169.415 217.279 169.499 217.405 169.432C217.515 169.373 217.625 169.17 217.625 168.782V84.266C217.625 83.4978 217.152 82.5693 216.587 82.2485L101.234 15.6454C101.141 15.5863 100.956 15.5103 100.837 15.5779C100.728 15.637 100.618 15.8395 100.618 16.2279V100.744C100.618 101.512 101.091 102.44 101.656 102.761L217.009 169.364Z" fill="#3D0F9A"/>
<path d="M163.296 144.226L154.947 139.406C154.576 139.195 154.272 138.612 154.272 138.114C154.272 137.616 154.576 137.388 154.947 137.608L163.296 142.428C163.667 142.647 163.971 143.221 163.971 143.719C163.971 144.217 163.667 144.445 163.296 144.226Z" fill="#3D0F9A"/>
<path d="M163.566 144.724C163.405 144.724 163.245 144.681 163.085 144.588L154.736 139.768C154.229 139.481 153.85 138.764 153.85 138.114C153.85 137.7 154.01 137.371 154.289 137.211C154.542 137.067 154.854 137.076 155.15 137.244L163.498 142.064C164.005 142.351 164.385 143.061 164.385 143.711C164.385 144.124 164.224 144.453 163.946 144.614C163.827 144.681 163.701 144.715 163.566 144.715V144.724ZM154.694 137.945C154.694 137.945 154.694 138.021 154.694 138.114C154.694 138.494 154.939 138.916 155.158 139.042L163.507 143.863C163.507 143.863 163.54 143.879 163.549 143.879C163.54 143.863 163.549 143.803 163.549 143.711C163.549 143.331 163.304 142.909 163.085 142.782L154.736 137.962C154.736 137.962 154.702 137.945 154.694 137.945Z" fill="#3D0F9A"/>
<rect x="0.433095" y="-0.250048" width="61.6568" height="90.3302" rx="3.08545" transform="matrix(0.000110185 -1 0.866081 0.499904 64.5466 70.7753)" stroke="#3D0F9A" stroke-dasharray="1.43 1.43"/>
<path d="M24.1729 207.33C24.1729 207.33 24.3261 206.909 24.6516 206.583C24.4793 206.832 24.3261 207.062 24.1729 207.33Z" fill="#3D0F9A"/>
<path d="M184.079 206.449L183.964 206.794C183.715 207.483 183.485 207.694 183.064 208.824C183.064 208.824 163.301 220.793 143.173 232.589C132.334 238.966 110.543 252.134 102.5 256.5C100.5 255.974 102.249 255.474 101.177 255.474C101.33 255.397 99.5 256.029 99.5 249.652C99.5 245.171 99.3771 245.177 93 241.5L41.3506 207.157L29.0752 200.053L110.637 153L174.925 190.133C175.308 190.362 175.71 190.611 176.093 190.86C183.428 195.763 186.932 198.118 184.098 206.449H184.079Z" fill="white" stroke="#3D0F9A"/>
<path d="M143.135 232C132.296 238.377 121.543 245.134 113.5 249.5L112.974 243.735C112.744 240.192 110.752 236.975 107.688 235.213L90.0889 225.044L119.906 207.828L137.505 217.997C140.569 219.778 142.561 222.976 142.791 226.538L143.174 232.608L143.135 232Z" fill="#FF5A00"/>
<path d="M99.66 255.199L32.3393 216.139C29.6223 214.544 27.4229 210.319 27.4229 206.697C27.4229 203.076 29.6654 201.394 32.3824 202.99L99.7032 242.05C102.42 243.645 104.62 247.87 104.62 251.491C104.62 255.113 102.377 256.794 99.66 255.199Z" fill="#3D0F9A"/>
<path d="M101.601 257.225C100.739 257.225 99.8329 256.967 98.9272 256.449L31.6065 217.389C28.4582 215.535 26 210.879 26 206.74C26 204.326 26.9057 202.429 28.4151 201.524C29.752 200.748 31.434 200.834 33.0728 201.782L100.394 240.843C103.542 242.696 106 247.353 106 251.491C106 253.906 105.094 255.803 103.585 256.708C102.981 257.053 102.334 257.225 101.601 257.225ZM100.35 253.992C100.782 254.251 101.558 254.596 102.162 254.251C102.766 253.906 103.154 252.828 103.154 251.491C103.154 248.387 101.256 244.593 98.9704 243.3L31.6496 204.24C31.2183 203.981 30.4421 203.636 29.8383 203.981C29.2345 204.326 28.8464 205.404 28.8464 206.74C28.8464 209.845 30.7439 213.638 33.0297 214.932L100.35 253.992Z" fill="#3D0F9A"/>
<path d="M95.1339 257.366L24.4356 216.347C21.5823 214.671 19.2725 210.234 19.2725 206.431C19.2725 202.628 21.6276 200.862 24.4809 202.537L95.1792 243.557C99.5 246.5 100.342 249.669 100.342 253.473C100.342 257.276 97.9872 259.041 95.1339 257.366Z" stroke="white"/>
<rect width="31.2386" height="3.08953" rx="1.54477" transform="matrix(0.866084 0.499899 -0.000116964 1 183.338 100.826)" fill="#3D0F9A"/>
<rect width="31.2386" height="3.08953" rx="1.54477" transform="matrix(0.866084 0.499899 -0.000116964 1 183.338 95.2231)" fill="#3D0F9A"/>
<rect width="31.2386" height="3.08953" rx="1.54477" transform="matrix(0.866084 0.499899 -0.000116964 1 183.338 89.6201)" fill="#3D0F9A"/>
<rect width="31.2386" height="3.08953" rx="1.54477" transform="matrix(0.866084 0.499899 -0.000116964 1 183.338 84.0171)" fill="#3D0F9A"/>
<rect width="31.2386" height="3.08953" rx="1.54477" transform="matrix(0.866084 0.499899 -0.000116964 1 183.338 78.4141)" fill="#3D0F9A"/>
<rect width="31.2386" height="3.08953" rx="1.54477" transform="matrix(0.866084 0.499899 -0.000116964 1 183.338 72.8115)" fill="#3D0F9A"/>
<rect width="31.2386" height="3.08953" rx="1.54477" transform="matrix(0.866084 0.499899 -0.000116964 1 149.338 112.826)" fill="#3D0F9A"/>
<rect width="31.2386" height="3.08953" rx="1.54477" transform="matrix(0.866084 0.499899 -0.000116964 1 149.338 107.223)" fill="#3D0F9A"/>
<rect width="31.2386" height="3.08953" rx="1.54477" transform="matrix(0.866084 0.499899 -0.000116964 1 149.338 101.62)" fill="#3D0F9A"/>
<rect width="31.2386" height="3.08953" rx="1.54477" transform="matrix(0.866084 0.499899 -0.000116964 1 149.338 96.0171)" fill="#3D0F9A"/>
<rect width="31.2386" height="3.08953" rx="1.54477" transform="matrix(0.866084 0.499899 -0.000116964 1 149.338 90.4141)" fill="#3D0F9A"/>
<rect width="31.2386" height="3.08953" rx="1.54477" transform="matrix(0.866084 0.499899 -0.000116964 1 149.338 84.811)" fill="#3D0F9A"/>
<circle cx="13.3044" cy="13.3044" r="13.3044" transform="matrix(0.866087 0.499893 -0.000123428 1 153.599 56.1348)" fill="#FF5A00"/>
<path d="M165.121 69.7699C165.77 70.1448 166.393 70.8021 166.852 71.5974C167.311 72.3926 167.569 73.2606 167.569 74.0104C167.569 74.7602 167.311 75.3304 166.852 75.5956C166.392 75.8608 165.77 75.7991 165.12 75.4243C164.471 75.0495 163.848 74.3921 163.389 73.5969C162.93 72.8017 162.672 71.9337 162.672 71.1838C162.672 70.434 162.93 69.8638 163.389 69.5987C163.849 69.3335 164.471 69.3951 165.121 69.7699ZM165.12 76.8379C167.826 78.3996 170.017 80.9297 170.017 82.4917L170.017 83.9053L160.222 78.2521L160.222 76.8385C160.223 75.2765 162.414 75.2762 165.12 76.8379Z" fill="white"/>
<path d="M175.218 198.548V231.885L204.022 248.55V215.216L175.218 198.548Z" fill="white" stroke="#3D0F9A" stroke-linejoin="round"/>
<path d="M233 199V232.335L204 249V215.668L233 199Z" fill="#3D0F9A"/>
<path d="M204.022 215.216L232.83 198.548L204.022 181.879L175.218 198.548L204.022 215.216Z" fill="white" stroke="#3D0F9A" stroke-linejoin="round"/>
<path d="M204.327 215.213H203.718V248.55H204.327V215.213Z" fill="#3D0F9A"/>
<path d="M192.369 205.291C198.777 209.001 209.268 209.001 215.676 205.291C222.084 201.581 222.084 195.512 215.676 191.805C209.268 188.095 198.777 188.095 192.369 191.805C185.961 195.515 185.961 201.584 192.369 205.291Z" fill="#3D0F9A"/>
<path d="M204.022 208.379C199.748 208.379 195.471 207.436 192.217 205.553C189.02 203.701 187.258 201.215 187.258 198.545C187.258 195.875 189.02 193.388 192.217 191.536C198.726 187.771 209.319 187.771 215.828 191.536C219.028 193.388 220.787 195.875 220.787 198.545C220.787 201.215 219.025 203.701 215.828 205.553C212.574 207.436 208.297 208.379 204.022 208.379ZM192.521 205.025C198.862 208.696 209.182 208.696 215.524 205.025C218.525 203.289 220.178 200.989 220.178 198.548C220.178 196.107 218.525 193.806 215.524 192.067C209.182 188.397 198.862 188.397 192.521 192.067C189.52 193.803 187.867 196.104 187.867 198.548C187.867 200.989 189.52 203.289 192.521 205.025Z" fill="#3D0F9A"/>
<path d="M207 148.725L204.328 141.309C204.214 140.897 203.786 140.897 203.672 141.309L200.281 148.725C202 150.5 205.5 150.5 207 148.725Z" fill="#FF5A00"/>
<path d="M197 155L203.43 141.186C203.545 140.938 203.975 140.938 204.09 141.186L210 155" stroke="#3D0F9A" stroke-linecap="round" stroke-linejoin="round"/>
<path d="M210 206.326V206.579C207.921 206.863 205.728 207 203.5 207C201.272 207 198.866 206.866 197 206.622V155C200.566 157.925 206.472 157.925 210 155V206.323V206.326Z" fill="white" stroke="#3D0F9A" stroke-linejoin="round"/>
<rect width="74.782" height="16.8428" rx="3" transform="matrix(0.865975 -0.500087 -0.865975 -0.500087 60.5854 208.884)" fill="#3D0F9A"/>
<rect width="74.782" height="4.71598" rx="2.35799" transform="matrix(0.865975 -0.500087 -0.865975 -0.500087 85.0859 222.905)" fill="#3D0F9A"/>
<rect width="74.782" height="4.71598" rx="2.35799" transform="matrix(0.865975 -0.500087 -0.865975 -0.500087 78.085 218.862)" fill="#3D0F9A"/>
<rect width="74.782" height="4.71598" rx="2.35799" transform="matrix(0.865975 -0.500087 -0.865975 -0.500087 71.084 214.819)" fill="#3D0F9A"/>
<rect width="26.0476" height="4.05185" rx="2.02593" transform="matrix(0.86597 -0.500096 -0.86597 -0.500096 149.539 215)" fill="#3D0F9A"/>
<rect width="26.0476" height="4.05185" rx="2.02593" transform="matrix(0.86597 -0.500096 -0.86597 -0.500096 143.523 211.526)" fill="#3D0F9A"/>
<rect width="26.0476" height="4.05185" rx="2.02593" transform="matrix(0.86597 -0.500096 -0.86597 -0.500096 137.509 208.053)" fill="#3D0F9A"/>
<rect width="53.8854" height="3.29911" rx="1.64955" transform="matrix(0.864061 0.503388 0.00391651 0.999992 30.8481 44.0137)" fill="white"/>
<rect width="53.8854" height="3.29911" rx="1.64955" transform="matrix(0.864061 0.503388 0.00391653 0.999992 30.8252 38.3799)" fill="white"/>
<rect width="53.8854" height="3.29911" rx="1.64955" transform="matrix(0.864061 0.503388 0.00391649 0.999992 30.8691 49.5122)" fill="white"/>
<rect width="53.8854" height="3.29911" rx="1.64955" transform="matrix(0.864061 0.503388 0.00391649 0.999992 30.8906 55.0107)" fill="white"/>
<rect width="33.3576" height="3.29911" rx="1.64955" transform="matrix(0.864061 0.503388 0.00391649 0.999992 30.9121 60.5093)" fill="white"/>
<rect width="39.1661" height="57.7701" rx="3.84272" transform="matrix(0.000121053 -1 0.866086 0.499895 30.4771 129.805)" fill="white"/>
<path d="M52.4874 86.526L52.887 87.6865C52.9254 87.7941 52.9946 87.9017 53.0792 87.9632L53.9707 88.6241C54.1782 88.7778 54.2627 89.1314 54.1167 89.2159L53.4711 89.5694C53.4096 89.6002 53.3866 89.6847 53.3943 89.7923L53.548 90.899C53.5864 91.1603 53.3635 91.2218 53.1714 90.9989L52.3798 90.0536C52.3029 89.9614 52.2184 89.9153 52.1415 89.9153L51.3499 89.9383C51.1578 89.9383 50.9426 89.6309 50.9733 89.408L51.1271 88.4704C51.1424 88.3859 51.1117 88.2706 51.0502 88.163L50.4046 87.0717C50.2509 86.8104 50.3355 86.5644 50.5506 86.649L51.4422 87.0102C51.5267 87.0409 51.5959 87.0256 51.6343 86.9564L52.0339 86.257C52.1262 86.0879 52.4028 86.2493 52.4951 86.526H52.4874Z" fill="white"/>
<path d="M53.4015 91.2525C53.2939 91.2525 53.1786 91.191 53.0787 91.068L52.2871 90.1227C52.2333 90.0535 52.1718 90.0305 52.1411 90.0305L51.3495 90.0535H51.3418C51.2342 90.0535 51.1189 89.9921 51.0267 89.8845C50.896 89.7384 50.8345 89.5386 50.8576 89.3849L51.0113 88.4473C51.019 88.3858 50.9959 88.3013 50.9498 88.2244L50.2966 87.1331C50.1813 86.9332 50.1736 86.7181 50.2812 86.5951C50.358 86.5105 50.4733 86.4875 50.5963 86.5336L51.4878 86.8948C51.4878 86.8948 51.5262 86.8948 51.5339 86.8948L51.9336 86.1954C51.9874 86.1032 52.0796 86.0571 52.1795 86.0648C52.3563 86.0802 52.5407 86.2569 52.6176 86.4798L53.0172 87.6403C53.048 87.7248 53.1018 87.8094 53.1709 87.8555L54.0624 88.5164C54.2315 88.6394 54.3468 88.87 54.3314 89.0698C54.3314 89.1774 54.2776 89.2619 54.1931 89.308L53.5475 89.6616C53.5475 89.6616 53.5245 89.6923 53.5321 89.7615L53.6858 90.8759C53.7089 91.045 53.6551 91.1756 53.5321 91.2294C53.5014 91.2448 53.463 91.2525 53.4245 91.2525H53.4015ZM52.1411 89.7922C52.2487 89.7922 52.3716 89.8614 52.4639 89.969L53.2631 90.9143C53.34 91.0065 53.4015 91.0142 53.4169 91.0065C53.4169 91.0065 53.4399 90.9758 53.4322 90.9066L53.2785 89.7922C53.2555 89.6385 53.3093 89.5079 53.4169 89.4541L54.0624 89.1005C54.0624 89.1005 54.0778 89.0775 54.0778 89.0544C54.0778 88.9545 54.024 88.8008 53.9087 88.7163L53.0172 88.0553C52.9173 87.9785 52.8251 87.8555 52.779 87.7248L52.3793 86.5643C52.3332 86.4414 52.2487 86.3492 52.1872 86.3184C52.1564 86.303 52.1488 86.3107 52.1411 86.3107L51.7414 87.0178C51.6723 87.1408 51.5416 87.1792 51.3956 87.1177L50.4964 86.7565L50.458 86.7488C50.4426 86.7642 50.4195 86.8641 50.5041 87.0101L51.1497 88.1091C51.2265 88.2398 51.2572 88.3781 51.2419 88.4934L51.0882 89.431C51.0728 89.5156 51.1189 89.6385 51.2034 89.7307C51.2649 89.7999 51.3187 89.8307 51.3418 89.8153L52.1411 89.7922Z" fill="white"/>
<path d="M57.5596 89.4546L57.9593 90.6151C57.9977 90.7227 58.0669 90.8303 58.1514 90.8918L59.0429 91.5527C59.2504 91.7064 59.335 92.06 59.189 92.1445L58.5434 92.498C58.4819 92.5288 58.4588 92.6133 58.4665 92.7209L58.6202 93.8276C58.6587 94.0889 58.4358 94.1504 58.2436 93.9275L57.452 92.9822C57.3752 92.89 57.2907 92.8439 57.2138 92.8439L56.4222 92.8669C56.2301 92.8669 56.0149 92.5595 56.0456 92.3366L56.1993 91.399C56.2147 91.3145 56.1839 91.1992 56.1225 91.0916L55.4769 89.9926C55.3232 89.7313 55.4077 89.4853 55.6229 89.5699L56.5144 89.9311C56.599 89.9618 56.6681 89.9465 56.7066 89.8773L57.1062 89.1779C57.1984 89.0088 57.4751 89.1702 57.5673 89.4469L57.5596 89.4546Z" fill="white"/>
<path d="M58.4744 94.1811C58.3668 94.1811 58.2515 94.1196 58.1516 93.9966L57.3523 93.0513C57.2985 92.9821 57.2447 92.9514 57.2063 92.9591L56.4147 92.9821H56.407C56.2994 92.9821 56.1841 92.9206 56.0919 92.813C55.9613 92.667 55.8998 92.4672 55.9228 92.3135L56.0766 91.3759C56.0842 91.3144 56.0612 91.2298 56.0151 91.153L55.3695 90.054C55.2542 89.8541 55.2465 89.639 55.3464 89.516C55.4233 89.4314 55.5386 89.4084 55.6615 89.4545L56.5531 89.8157C56.5531 89.8157 56.5915 89.8157 56.5992 89.8157L56.9988 89.1163C57.0526 89.0241 57.1371 88.978 57.2447 88.9857C57.4215 89.0011 57.606 89.1778 57.6751 89.4007L58.0748 90.5612C58.1055 90.6457 58.1593 90.7303 58.2285 90.7764L59.12 91.4373C59.2891 91.5603 59.4044 91.7909 59.389 91.9907C59.389 92.0983 59.3352 92.1828 59.2506 92.2289L58.6051 92.5825C58.6051 92.5825 58.582 92.6132 58.5897 92.6824L58.7434 93.7891C58.7665 93.9582 58.7127 94.0888 58.5897 94.1426C58.559 94.158 58.5205 94.1657 58.4821 94.1657L58.4744 94.1811ZM57.214 92.7208C57.3216 92.7208 57.4446 92.79 57.5368 92.8976L58.3361 93.8429C58.4129 93.9351 58.4744 93.9428 58.4898 93.9351C58.4898 93.9351 58.5128 93.9044 58.5052 93.8352L58.3514 92.7208C58.3284 92.5671 58.3822 92.4365 58.4898 92.3827L59.1354 92.0291C59.1354 92.0291 59.1507 92.0061 59.1507 91.983C59.1507 91.8831 59.0969 91.7294 58.9817 91.6449L58.0901 90.9839C57.9902 90.9071 57.898 90.7841 57.8519 90.6534L57.4522 89.4929C57.4061 89.37 57.3216 89.2777 57.2601 89.247C57.2294 89.2316 57.2217 89.2393 57.214 89.2393L56.8144 89.9464C56.7452 90.0693 56.6145 90.1078 56.4685 90.0463L55.577 89.6851L55.5386 89.6774C55.5232 89.6928 55.5001 89.7927 55.5847 89.9387L56.2303 91.0377C56.3071 91.1684 56.3379 91.3067 56.3225 91.422L56.1688 92.3596C56.1534 92.4441 56.1995 92.5671 56.2841 92.6593C56.3455 92.7285 56.3917 92.7439 56.4224 92.7439L57.214 92.7208Z" fill="white"/>
<path d="M62.6246 92.3823L63.0242 93.5428C63.0627 93.6504 63.1318 93.758 63.2164 93.8195L64.1079 94.4804C64.3154 94.6342 64.3999 94.9877 64.2539 95.0722L63.6083 95.4258C63.5468 95.4565 63.5238 95.541 63.5315 95.6486L63.6852 96.7553C63.7236 97.0166 63.5007 97.0781 63.3086 96.8553L62.517 95.9099C62.4401 95.8177 62.3556 95.7716 62.2787 95.7716L61.4871 95.7947C61.295 95.7947 61.0798 95.4872 61.1106 95.2644L61.2643 94.3267C61.2796 94.2422 61.2489 94.1269 61.1874 94.0193L60.5418 92.9203C60.3881 92.659 60.4727 92.4131 60.6879 92.4976L61.5794 92.8588C61.6639 92.8896 61.7331 92.8742 61.7715 92.805L62.1711 92.1056C62.2634 91.9366 62.54 92.098 62.6323 92.3746L62.6246 92.3823Z" fill="white"/>
<path d="M63.5467 97.1088C63.4391 97.1088 63.3238 97.0473 63.2239 96.9243L62.4246 95.979C62.3708 95.9099 62.3093 95.8868 62.2786 95.8868L61.487 95.9099C61.3794 95.9099 61.2641 95.8561 61.1642 95.7408C61.0335 95.5948 60.9721 95.3949 60.9951 95.2412L61.1488 94.3036C61.1565 94.2421 61.1334 94.1576 61.0873 94.0807L60.4418 92.9817C60.3265 92.7819 60.3188 92.5667 60.4187 92.4437C60.4956 92.3592 60.6108 92.3361 60.7338 92.3822L61.6253 92.7435C61.6253 92.7435 61.6637 92.7435 61.6714 92.7435L62.0711 92.0441C62.1249 91.9519 62.2171 91.9057 62.317 91.9134C62.4938 91.9288 62.6782 92.1056 62.7474 92.3284L63.147 93.4889C63.1778 93.5735 63.2316 93.658 63.3007 93.7041L64.1923 94.3651C64.3613 94.488 64.4766 94.7186 64.4612 94.9184C64.4536 95.026 64.4074 95.1106 64.3229 95.1567L63.6773 95.5102C63.6773 95.5102 63.6543 95.541 63.662 95.6101L63.8157 96.7168C63.8387 96.8859 63.7849 97.0166 63.662 97.0704C63.6312 97.0857 63.5928 97.0934 63.5544 97.0934L63.5467 97.1088ZM62.2863 95.6486C62.3939 95.6486 62.5168 95.7177 62.6091 95.833L63.4083 96.7783C63.4852 96.8629 63.539 96.8782 63.5544 96.8705C63.5544 96.8705 63.5774 96.8398 63.5697 96.7706L63.416 95.6639C63.393 95.5102 63.4468 95.3796 63.5544 95.3258L64.1999 94.9722C64.1999 94.9722 64.2153 94.9569 64.2153 94.9261C64.2153 94.8262 64.1615 94.6725 64.0462 94.588L63.1547 93.927C63.0548 93.8502 62.9626 93.7272 62.9165 93.5965L62.5168 92.436C62.4707 92.3131 62.3862 92.2208 62.3247 92.1901C62.294 92.1747 62.2786 92.1824 62.2786 92.1824L61.8789 92.8895C61.8098 93.0124 61.6791 93.0509 61.5331 92.9894L60.6416 92.6282L60.6032 92.6205C60.5878 92.6359 60.5647 92.7358 60.6493 92.8818L61.2948 93.9808C61.3717 94.1115 61.4024 94.2498 61.3871 94.3651L61.2334 95.3027C61.218 95.3872 61.2641 95.5102 61.3486 95.6024C61.4101 95.6716 61.4562 95.687 61.487 95.687L62.2786 95.6639H62.2863V95.6486Z" fill="white"/>
<path d="M67.6969 95.3105L68.0965 96.471C68.1349 96.5786 68.2041 96.6862 68.2886 96.7477L69.1801 97.4087C69.3877 97.5624 69.4722 97.9159 69.3262 98.0005L68.6806 98.354C68.6191 98.3847 68.596 98.4693 68.6037 98.5769L68.7574 99.6836C68.7959 99.9449 68.573 100.006 68.3809 99.7835L67.5893 98.8382C67.5124 98.7459 67.4279 98.6998 67.351 98.6998L66.5594 98.7229C66.3673 98.7229 66.1521 98.4155 66.1828 98.1926L66.3365 97.255C66.3519 97.1704 66.3212 97.0551 66.2597 96.9475L65.6141 95.8485C65.4604 95.5872 65.5449 95.3413 65.7601 95.4258L66.6516 95.787C66.7362 95.8178 66.8053 95.8024 66.8438 95.7332L67.2434 95.0339C67.3356 94.8648 67.6123 95.0262 67.7045 95.3029L67.6969 95.3105Z" fill="white"/>
<path d="M68.6191 100.037C68.5115 100.037 68.3962 99.9755 68.2963 99.8526L67.5047 98.9072C67.4509 98.8381 67.3817 98.815 67.3587 98.815L66.5671 98.8381H66.5594C66.4518 98.8381 66.3365 98.7766 66.2443 98.669C66.1136 98.523 66.0521 98.3232 66.0752 98.1694L66.2289 97.2318C66.2366 97.1703 66.2135 97.0858 66.1674 97.0089L65.5218 95.9099C65.4066 95.7101 65.3989 95.4949 65.4988 95.3719C65.5756 95.2874 65.6909 95.2643 65.8139 95.3105L66.7054 95.6717C66.7054 95.6717 66.7438 95.6717 66.7515 95.6717L67.1512 94.9723C67.2049 94.8801 67.2972 94.834 67.3971 94.8416C67.5739 94.857 67.7583 95.0338 67.8275 95.2567L68.2271 96.4172C68.2579 96.5017 68.3117 96.5862 68.3808 96.6324L69.2723 97.2933C69.4414 97.4163 69.5567 97.6468 69.5413 97.8467C69.5413 97.9543 69.4875 98.0388 69.403 98.0849L68.7574 98.4384C68.7574 98.4384 68.7344 98.4692 68.742 98.5383L68.8957 99.6527C68.9188 99.8218 68.865 99.9525 68.742 100.006C68.7113 100.022 68.6729 100.029 68.6344 100.029L68.6191 100.037ZM67.3587 98.5768C67.4663 98.5768 67.5892 98.6459 67.6814 98.7612L68.4807 99.7065C68.5576 99.7911 68.6191 99.8064 68.6268 99.7988C68.6268 99.7988 68.6498 99.768 68.6421 99.6988L68.4884 98.5845C68.4654 98.4308 68.5192 98.3001 68.6268 98.2463L69.2723 97.8928C69.2723 97.8928 69.2877 97.8774 69.2877 97.8467C69.2877 97.7467 69.2339 97.593 69.1186 97.5085L68.2271 96.8475C68.1195 96.7707 68.035 96.6477 67.9889 96.5171L67.5892 95.3566C67.5431 95.2336 67.4586 95.1414 67.3971 95.1106C67.3663 95.0953 67.351 95.103 67.351 95.103L66.9513 95.81C66.8822 95.933 66.7515 95.9714 66.6055 95.9099L65.714 95.5487L65.6755 95.541C65.6602 95.5564 65.6371 95.6563 65.7217 95.8023L66.3672 96.9013C66.4441 97.032 66.4748 97.1703 66.4595 97.2856L66.3058 98.2232C66.2904 98.3078 66.3365 98.4308 66.421 98.523C66.4825 98.5921 66.5363 98.6152 66.5594 98.6075L67.351 98.5845H67.3587V98.5768Z" fill="white"/>
<path d="M72.7691 98.2388L73.1688 99.3993C73.2072 99.5069 73.2764 99.6145 73.3609 99.6759L74.2524 100.337C74.4599 100.491 74.5445 100.844 74.3984 100.929L73.7529 101.282C73.6914 101.313 73.6683 101.397 73.676 101.505L73.8297 102.612C73.8681 102.873 73.6453 102.935 73.4531 102.712L72.6615 101.766C72.5847 101.674 72.5001 101.628 72.4233 101.628L71.6317 101.651C71.4395 101.651 71.2243 101.344 71.2551 101.121L71.4088 100.183C71.4242 100.099 71.3934 99.9834 71.3319 99.8758L70.6864 98.7767C70.5327 98.5154 70.6172 98.2695 70.8324 98.354L71.7239 98.7153C71.8084 98.746 71.8776 98.7306 71.916 98.6615L72.3157 97.9621C72.4079 97.793 72.6846 97.9544 72.7768 98.2311L72.7691 98.2388Z" fill="white"/>
<path d="M73.684 102.965C73.5764 102.965 73.4611 102.904 73.3612 102.781L72.5696 101.835C72.5158 101.766 72.439 101.743 72.4236 101.743L71.632 101.766C71.509 101.766 71.4091 101.713 71.3092 101.597C71.1786 101.451 71.1171 101.251 71.1401 101.098L71.2938 100.16C71.3015 100.099 71.2785 100.014 71.2324 99.9372L70.5868 98.8381C70.4715 98.6383 70.4638 98.4231 70.5637 98.3002C70.6406 98.2156 70.7559 98.1926 70.8788 98.2387L71.7703 98.5999C71.7703 98.5999 71.8088 98.5999 71.8164 98.5999L72.2161 97.9005C72.2699 97.8083 72.3621 97.7622 72.462 97.7699C72.6388 97.7852 72.8232 97.962 72.9001 98.1849L73.2997 99.3454C73.3305 99.4299 73.3843 99.5145 73.4534 99.5606L74.345 100.222C74.514 100.344 74.6293 100.575 74.614 100.775C74.614 100.882 74.5602 100.967 74.4756 101.013L73.83 101.367C73.83 101.367 73.807 101.397 73.8147 101.467L73.9684 102.581C73.9914 102.75 73.9376 102.881 73.8147 102.934C73.7839 102.95 73.7455 102.958 73.7071 102.958L73.684 102.965ZM72.4236 101.505C72.5312 101.505 72.6542 101.574 72.7541 101.689L73.5457 102.635C73.6225 102.727 73.684 102.735 73.6994 102.727C73.6994 102.727 73.7224 102.696 73.7148 102.627L73.561 101.513C73.538 101.359 73.5918 101.228 73.6994 101.175L74.345 100.821C74.345 100.821 74.3603 100.798 74.3603 100.775C74.3603 100.675 74.3065 100.521 74.1913 100.437L73.2997 99.7758C73.1998 99.6989 73.1076 99.5759 73.0615 99.4453L72.6618 98.2848C72.6157 98.1618 72.5312 98.0696 72.4697 98.0389C72.439 98.0235 72.4236 98.0312 72.4236 98.0312L72.024 98.7382C71.9548 98.8612 71.8241 98.8996 71.6781 98.8381L70.7866 98.4769L70.7482 98.4692C70.7328 98.4846 70.7097 98.5845 70.7943 98.7305L71.4399 99.8296C71.5167 99.9602 71.5475 100.099 71.5321 100.214L71.3784 101.151C71.363 101.236 71.4091 101.359 71.4937 101.451C71.5551 101.52 71.6089 101.536 71.632 101.536L72.4313 101.513H72.439L72.4236 101.505Z" fill="white"/>
<path d="M154.5 143.5L152 141.5C152 144.5 152 148.5 155.5 153.5C159.906 159.795 163.833 158 165 156.5C164 156.833 161.2 156.5 158 152.5C154.8 148.5 154.333 144.833 154.5 143.5Z" fill="#3D0F9A"/>
<path d="M61.1031 128.481C61.1567 128.373 61.1031 128.253 61.0092 128.199L52.1643 123.227C51.8293 123.013 51.119 122.638 51.119 122.638C47.4336 120.922 42.3813 121.713 36.9001 125.572C28.4304 131.523 21.6627 143.396 20.872 153.648C20.47 158.875 21.5957 162.909 23.7533 165.468L34.9703 178.012C35.0775 178.119 42.8637 182.421 43.9493 183.024C44.0029 183.051 44.0699 183.024 44.0833 182.944L44.6595 161.81C51.3468 155.391 56.3188 145.608 57.0156 136.83L57.3909 136.32L61.1031 128.481Z" fill="#3D0F9A"/>
<path d="M43.9896 183.815C43.8422 183.815 43.6948 183.775 43.5742 183.708C34.5818 178.749 34.5148 178.669 34.3942 178.535L22.8154 165.603V165.576C20.6443 162.721 19.6928 158.594 20.0815 153.582C20.899 143.075 27.7739 131.027 36.4446 124.929C41.9526 121.043 47.2863 119.984 51.4542 121.927C51.481 121.941 52.2449 122.343 52.5933 122.571L61.398 127.529C61.8537 127.784 62.0413 128.36 61.8135 128.829L58.0209 136.803L57.7797 137.138C57.0158 145.795 52.2047 155.565 45.4369 162.172L44.8607 183.426L44.4318 183.721C44.2978 183.802 44.1504 183.842 43.9896 183.842V183.815ZM35.4931 177.409C36.0024 177.717 38.9775 179.379 43.3195 181.778L43.869 161.475L44.0968 161.247C50.7841 154.828 55.5416 145.219 56.2117 136.776V136.548L56.6941 135.918L60.1383 128.628L51.749 123.911C51.4006 123.683 50.7305 123.335 50.7305 123.335C47.1791 121.686 42.2876 122.718 37.3291 126.216C29.0336 132.059 22.4401 143.624 21.6494 153.702C21.2742 158.527 22.2123 162.426 24.3431 164.959L24.3967 165.013L35.4931 177.409Z" fill="#3D0F9A"/>
<path d="M53.4379 148.382L53.9337 147.256C56.0378 142.324 57.1367 137.138 56.7346 132.501C56.7078 132.126 56.6542 131.778 56.614 131.429L60.085 128.146C60.1788 128.052 60.1654 127.891 60.0448 127.824L51.8967 123.147C51.6957 123.026 51.2535 122.772 51.2535 122.772C48.533 121.378 45.0218 121.432 41.1354 123.187C36.5119 125.278 32.1833 129.245 28.7793 134.069L53.4379 148.395V148.382Z" fill="#3D0F9A"/>
<path d="M46.9994 171.65L46.8176 171.746L46.7551 171.941C45.7756 175.007 45.7672 178.375 46.0876 181.259L46.0878 181.261C46.1543 181.844 45.8206 182.569 45.3295 183.06C45.0887 183.3 44.8543 183.439 44.6794 183.484C44.5276 183.523 44.4632 183.489 44.4112 183.431L44.4112 183.431L32.8917 170.549L32.8824 170.538L32.8735 170.529C30.766 168.034 29.6388 164.045 30.0448 158.768C30.8452 148.389 37.7173 136.345 46.2943 130.305C51.8402 126.402 56.8338 125.68 60.3897 127.331C63.932 128.976 66.2608 133.078 66.2608 139.31C66.2608 145.147 64.2071 151.651 60.864 157.44C57.5211 163.23 52.9161 168.259 47.8631 171.178C47.5801 171.34 47.2831 171.502 46.9994 171.65Z" fill="white" stroke="#3D0F9A"/>
<path d="M57.0423 148.07C56.307 148.495 55.7974 148.45 55.5149 148.287C55.2323 148.124 54.9386 147.705 54.9386 146.854C54.9386 146.008 55.2404 145.024 55.7602 144.124C56.2799 143.223 56.9811 142.47 57.7131 142.047C58.4483 141.622 58.9579 141.666 59.2405 141.829C59.5231 141.992 59.8167 142.412 59.8167 143.263C59.8167 144.109 59.5149 145.093 58.9952 145.993C58.4755 146.893 57.7743 147.647 57.0423 148.07Z" fill="#3D0F9A" stroke="#3D0F9A" stroke-width="1.34014"/>
<path d="M44.8877 152.282C44.8877 154.265 46.2814 155.069 47.9968 154.078C49.7122 153.086 51.1059 150.674 51.1059 148.69C51.1059 146.707 49.7122 145.903 47.9968 146.894C46.2814 147.886 44.8877 150.298 44.8877 152.282Z" fill="#3D0F9A"/>
<path d="M35.5869 157.642C35.5869 159.626 36.9807 160.43 38.696 159.438C40.4114 158.446 41.8052 156.034 41.8052 154.051C41.8052 152.067 40.4114 151.263 38.696 152.255C36.9807 153.247 35.5869 155.659 35.5869 157.642Z" fill="#FF5A00"/>
<path d="M240.721 72.0186V72.5186H240.731C240.618 76.6703 239.094 79.4756 236.817 80.7882C234.45 82.1529 231.093 82.0064 227.258 79.7928L227.258 79.7926C223.419 77.5806 219.918 73.7605 217.377 69.3567C214.835 64.9529 213.279 60.0123 213.279 55.588C213.279 51.1606 214.829 48.1827 217.192 46.8183C219.554 45.4539 222.908 45.6001 226.742 47.8138L226.743 47.8141C230.582 50.0261 234.082 53.8461 236.624 58.2499C239.165 62.6538 240.721 67.5944 240.721 72.0186Z" stroke="#3D0F9A"/>
<path d="M237.142 69.6716L222.541 51.4927V70.9666L237.142 69.6716Z" fill="#3D0F9A"/>
<path d="M115.961 59.0025L135.937 70.5954C136.61 70.9853 137.146 70.5725 137.146 69.6781C137.146 68.7837 136.598 67.7402 135.937 67.3503L115.961 55.7573C115.288 55.3675 114.752 55.7803 114.752 56.6747C114.752 57.5691 115.3 58.6126 115.961 59.0025Z" fill="#3D0F9A"/>
<path d="M136.416 71.0999C136.199 71.0999 135.982 71.0311 135.754 70.905L115.778 59.312C115.003 58.8648 114.387 57.6952 114.387 56.6746C114.387 56.0669 114.604 55.5967 114.98 55.3789C115.311 55.1839 115.721 55.2069 116.132 55.4477L136.108 67.0406C136.883 67.4878 137.499 68.6575 137.499 69.678C137.499 70.2857 137.282 70.7559 136.906 70.9738C136.758 71.0655 136.587 71.0999 136.416 71.0999ZM116.132 58.6928L136.108 70.2857C136.21 70.3431 136.404 70.4348 136.541 70.3545C136.689 70.2628 136.78 70.0105 136.78 69.678C136.78 68.9097 136.302 67.9924 135.743 67.6598L115.778 56.0669C115.676 56.0095 115.482 55.9178 115.345 55.9981C115.197 56.0898 115.106 56.3421 115.106 56.6746C115.106 57.4429 115.584 58.3602 116.143 58.6928H116.132Z" fill="#3D0F9A"/>
<path d="M109.428 53.6932C109.428 54.6105 110.066 55.7228 110.853 56.17C111.64 56.6172 112.278 56.2618 112.278 55.3444C112.278 54.4271 111.64 53.3148 110.853 52.8561C110.066 52.4089 109.428 52.7758 109.428 53.6932Z" fill="#3D0F9A"/>
<path d="M111.491 56.7203C111.229 56.7203 110.956 56.64 110.682 56.4795C109.781 55.952 109.074 54.725 109.074 53.6815C109.074 53.1082 109.291 52.6725 109.667 52.4546C110.055 52.2367 110.534 52.2711 111.035 52.5578C111.936 53.0738 112.643 54.3008 112.643 55.3557C112.643 55.929 112.426 56.3763 112.05 56.5941C111.879 56.6859 111.697 56.7432 111.503 56.7432L111.491 56.7203ZM110.214 53.0279C110.146 53.0279 110.078 53.0394 110.021 53.0738C109.872 53.1655 109.781 53.3834 109.781 53.693C109.781 54.4728 110.351 55.4704 111.024 55.8602C111.286 56.0093 111.526 56.0437 111.674 55.9634C111.822 55.8717 111.913 55.6538 111.913 55.3442C111.913 54.5645 111.343 53.5669 110.67 53.177C110.499 53.0738 110.34 53.0279 110.214 53.0279Z" fill="#3D0F9A"/>
<path d="M136.416 78.2325C136.199 78.2325 135.983 78.1637 135.755 78.0375L115.779 66.4331C115.003 65.9859 114.388 64.8277 114.388 63.7957C114.388 63.188 114.604 62.7178 114.981 62.5C115.311 62.305 115.722 62.328 116.132 62.5688L136.108 74.1617C136.883 74.6089 137.499 75.7671 137.499 76.7991C137.499 77.4068 137.283 77.877 136.906 78.0948C136.758 78.1866 136.587 78.221 136.416 78.221V78.2325ZM115.482 63.0962C115.482 63.0962 115.391 63.0962 115.345 63.1306C115.197 63.2224 115.106 63.4746 115.106 63.8072C115.106 64.5754 115.585 65.5043 116.144 65.8253L136.12 77.4183C136.222 77.4756 136.416 77.5674 136.553 77.4871C136.701 77.3954 136.792 77.1431 136.792 76.8106C136.792 76.0423 136.313 75.1135 135.755 74.7924L115.779 63.188C115.71 63.1421 115.585 63.0848 115.482 63.0848V63.0962Z" fill="#3D0F9A"/>
<path d="M109.428 60.8141C109.428 61.7314 110.066 62.8437 110.853 63.2909C111.64 63.7381 112.278 63.3827 112.278 62.4653C112.278 61.548 111.64 60.4357 110.853 59.9885C110.066 59.5298 109.428 59.8967 109.428 60.8141Z" fill="#3D0F9A"/>
<path d="M111.492 63.8528C111.229 63.8528 110.956 63.7726 110.671 63.612C109.77 63.0845 109.063 61.8691 109.063 60.8141C109.063 60.2408 109.28 59.7936 109.656 59.5757C110.044 59.3578 110.522 59.3922 111.024 59.6789C111.925 60.2064 112.632 61.4333 112.632 62.4768C112.632 63.0501 112.415 63.4973 112.039 63.7152C111.868 63.807 111.685 63.8643 111.492 63.8643V63.8528ZM110.215 60.149C110.146 60.149 110.078 60.1605 110.021 60.1949C109.873 60.2866 109.781 60.5045 109.781 60.8141C109.781 61.5939 110.351 62.5915 111.024 62.9813C111.286 63.1304 111.526 63.1648 111.674 63.0845C111.822 62.9928 111.913 62.7749 111.913 62.4653C111.913 61.6856 111.343 60.688 110.671 60.2981C110.5 60.1949 110.34 60.149 110.215 60.149Z" fill="#3D0F9A"/>
<path d="M115.961 73.2556L135.937 84.8486C136.61 85.2385 137.146 84.8257 137.146 83.9312C137.146 83.0368 136.598 81.9934 135.937 81.6035L115.961 69.999C115.288 69.6092 114.752 70.022 114.752 70.9164C114.752 71.8108 115.3 72.8543 115.961 73.2442V73.2556Z" stroke="#3D0F9A" stroke-width="0.768545"/>
<path d="M109.428 67.9352C109.428 68.8525 110.066 69.9648 110.853 70.412C111.64 70.8707 112.278 70.5038 112.278 69.5864C112.278 68.6691 111.64 67.5568 110.853 67.1096C110.066 66.6509 109.428 67.0178 109.428 67.9352Z" fill="#3D0F9A"/>
<path d="M111.491 70.9734C111.229 70.9734 110.956 70.8932 110.682 70.7326C109.781 70.2051 109.074 68.9782 109.074 67.9347C109.074 67.3614 109.291 66.9256 109.667 66.6963C110.055 66.4784 110.534 66.5128 111.035 66.7995C111.936 67.3155 112.643 68.5425 112.643 69.5974C112.643 70.1707 112.426 70.618 112.05 70.8358C111.879 70.9276 111.697 70.9849 111.503 70.9849L111.491 70.9734ZM110.214 67.2696C110.146 67.2696 110.078 67.2811 110.021 67.3155C109.872 67.4072 109.781 67.6251 109.781 67.9347C109.781 68.7145 110.351 69.7121 111.024 70.1019C111.286 70.251 111.526 70.2854 111.674 70.2051C111.822 70.1134 111.913 69.8955 111.913 69.5859C111.913 68.8062 111.343 67.8086 110.67 67.4187C110.499 67.3155 110.34 67.2696 110.214 67.2696Z" fill="#3D0F9A"/>
</svg>
