<svg width="260" height="260" viewBox="0 0 260 260" fill="none" xmlns="http://www.w3.org/2000/svg">
<path d="M152.682 39.3174L113.171 16.5002C110.78 15.1193 106.902 15.1193 104.511 16.5002L65.0004 39.3174" stroke="#3D0F9A" stroke-dasharray="2 2"/>
<path d="M109.043 96.5638C109.043 97.0319 109.341 97.5 109.958 97.8404L142.809 116.947C143.447 117.309 144.277 117.5 145.107 117.479C145.894 117.479 146.681 117.287 147.277 116.947L202.022 85.2447C202.639 84.883 202.958 84.4149 202.958 83.9468L202.915 99.883C202.915 100.351 202.596 100.819 201.979 101.181L147.234 132.883C146.639 133.223 145.851 133.415 145.064 133.415C144.234 133.415 143.405 133.245 142.766 132.883L109.915 113.777C109.298 113.415 109 112.947 109 112.5L109.043 96.5638Z" fill="white" stroke="#3D0F9A"/>
<path d="M109.979 95.2664C108.745 95.9898 108.745 97.1387 109.979 97.8621L142.83 116.969C144.064 117.692 146.064 117.692 147.298 116.969L202.043 85.2664C203.277 84.5429 203.277 83.394 202.043 82.6706L147.511 76.1812C146.277 75.4578 144.277 75.4578 143.043 76.1812L109.958 95.2877L109.979 95.2664Z" fill="white" stroke="#3D0F9A"/>
<path d="M125.851 109.819L141.617 118.904V121.33L125.851 112.224V109.819Z" fill="#3D0F9A"/>
<path d="M125.851 113.628L141.617 122.713V125.139L125.851 116.032V113.628Z" fill="#3D0F9A"/>
<path d="M125.851 117.437L141.617 126.522V128.947L125.851 119.841V117.437Z" fill="#3D0F9A"/>
<path d="M122.957 108.182V118.224L111.255 111.458V101.416L122.957 108.182Z" fill="#3D0F9A"/>
<path d="M123.256 118.713V108.032L110.979 100.947V111.628L123.256 118.713ZM122.681 108.352V117.713L111.554 111.288V101.926L122.681 108.352Z" fill="#3D0F9A"/>
<path d="M145.086 133.628C145.235 133.628 145.362 133.5 145.362 133.351V117.543C145.362 117.394 145.235 117.266 145.086 117.266C144.937 117.266 144.809 117.394 144.809 117.543V133.351C144.809 133.5 144.937 133.628 145.086 133.628Z" fill="#3D0F9A"/>
<path d="M113.383 82.266C113.383 82.6702 113.66 83.0745 114.191 83.3936L143.085 100.181C143.638 100.5 144.362 100.649 145.106 100.649C145.809 100.649 146.489 100.479 147.021 100.181L197.787 70.7979C198.341 70.4787 198.617 70.0745 198.617 69.6489L198.575 83.6702C198.575 84.0745 198.298 84.5 197.745 84.8192L146.979 114.202C146.447 114.5 145.766 114.67 145.064 114.67C144.34 114.67 143.596 114.521 143.043 114.202L114.149 97.4149C113.617 97.0958 113.34 96.6915 113.34 96.2873L113.383 82.266Z" fill="#3D0F9A"/>
<path d="M145.021 114.969C145.021 114.969 145.064 114.969 145.085 114.969C145.851 114.969 146.596 114.777 147.149 114.458L197.915 85.0752C198.532 84.7135 198.872 84.2241 198.872 83.6709L198.915 69.6709H198.341C198.341 69.99 198.107 70.3092 197.66 70.5645L146.894 99.9476C146.426 100.224 145.787 100.373 145.106 100.373C144.426 100.373 143.723 100.224 143.234 99.9476L114.34 83.1603C113.915 82.905 113.681 82.6071 113.681 82.2667H113.106L113.064 96.288C113.064 96.8199 113.404 97.3093 114.021 97.671L142.915 114.458C143.489 114.777 144.234 114.969 145.021 114.969ZM198.319 70.7773L198.277 83.6709C198.277 83.9901 198.043 84.3092 197.596 84.5646L146.83 113.948C146.362 114.224 145.723 114.373 145.043 114.373C144.34 114.373 143.66 114.224 143.17 113.948L114.277 97.1603C113.851 96.905 113.617 96.6071 113.617 96.2667L113.66 83.3731C113.766 83.4794 113.894 83.5646 114.043 83.6497L142.936 100.437C143.511 100.777 144.277 100.948 145.106 100.948C145.872 100.948 146.617 100.756 147.17 100.437L197.936 71.0539C198.085 70.9688 198.213 70.8837 198.319 70.7773Z" fill="#3D0F9A"/>
<path d="M114.213 81.1171C113.128 81.7554 113.128 82.7554 114.213 83.3937L143.107 100.181C144.192 100.819 145.958 100.819 147.043 100.181L197.809 70.7979C198.894 70.1596 198.894 69.1596 197.809 68.5213L147.235 64.3298C146.15 63.6915 144.384 63.6915 143.298 64.3298L114.213 81.1171Z" fill="#3D0F9A"/>
<path d="M145.065 100.968C145.831 100.968 146.575 100.798 147.171 100.458L197.937 71.0535C198.554 70.6918 198.895 70.2024 198.895 69.6705C198.895 69.1386 198.554 68.6492 197.937 68.2875L197.873 68.2449H197.809L147.299 64.0534C146.107 63.3939 144.299 63.4151 143.128 64.096L114.043 80.8833C113.426 81.245 113.086 81.7343 113.086 82.2663C113.086 82.7982 113.426 83.2875 114.043 83.6492L142.937 100.437C143.533 100.777 144.277 100.947 145.043 100.947L145.065 100.968ZM197.724 68.8194C198.129 69.0535 198.341 69.3726 198.341 69.6705C198.341 69.9896 198.107 70.3088 197.66 70.5641L146.894 99.9472C145.894 100.522 144.256 100.522 143.256 99.9472L114.362 83.1599C113.937 82.9046 113.703 82.5854 113.703 82.2663C113.703 81.9471 113.937 81.628 114.384 81.3726L143.469 64.5854C144.469 64.0109 146.107 64.0109 147.107 64.5854L147.171 64.6279H147.235L197.746 68.8194H197.724Z" fill="#3D0F9A"/>
<path d="M144.808 100.713H145.383V114.607H144.808V100.713Z" fill="#3D0F9A"/>
<path d="M109.043 66.0536C109.043 66.5217 109.341 66.9897 109.958 67.3302L142.809 86.4366C143.447 86.7983 144.277 86.9898 145.107 86.9685C145.894 86.9685 146.681 86.777 147.277 86.4366L202.022 54.7344C202.639 54.3727 202.958 53.9046 202.958 53.4365L202.915 69.3727C202.915 69.8408 202.596 70.3089 201.979 70.6706L147.234 102.373C146.639 102.713 145.851 102.905 145.064 102.905C144.234 102.905 143.405 102.735 142.766 102.373L109.915 83.2664C109.298 82.9047 109 82.4366 109 81.9898L109.043 66.0536Z" fill="white" stroke="#3D0F9A"/>
<path d="M109.979 64.7555C108.745 65.4789 108.745 66.6278 109.979 67.3512L142.83 86.4577C144.064 87.1811 146.064 87.1811 147.298 86.4577L202.043 54.7555C203.277 54.0321 203.277 52.8831 202.043 52.1597L169.192 33.0533C167.958 32.3299 165.958 32.3299 164.724 33.0533L109.979 64.7555Z" fill="white" stroke="#3D0F9A"/>
<path d="M125.851 79.3086L141.617 88.3937V90.8193L125.851 81.7128V79.3086Z" fill="#3D0F9A"/>
<path d="M125.851 83.1172L141.617 92.2023V94.6279L125.851 85.5214V83.1172Z" fill="#3D0F9A"/>
<path d="M125.851 86.9258L141.617 96.0109V98.4364L125.851 89.33V86.9258Z" fill="#3D0F9A"/>
<path d="M122.957 77.6703V87.7128L111.255 80.9469V70.9043L122.957 77.6703Z" fill="#3D0F9A"/>
<path d="M123.256 88.2025V77.5217L110.979 70.4365V81.1174L123.256 88.2025ZM122.681 77.8408V87.2025L111.554 80.777V71.4153L122.681 77.8408Z" fill="#3D0F9A"/>
<path d="M145.086 103.117C145.235 103.117 145.362 102.989 145.362 102.841V87.032C145.362 86.883 145.235 86.7554 145.086 86.7554C144.937 86.7554 144.809 86.883 144.809 87.032V102.841C144.809 102.989 144.937 103.117 145.086 103.117Z" fill="#3D0F9A"/>
<path d="M113.383 51.7552C113.383 52.1595 113.66 52.5637 114.191 52.8829L143.085 69.6702C143.638 69.9893 144.362 70.1383 145.106 70.1383C145.809 70.1383 146.489 69.968 147.021 69.6702L197.787 40.2871C198.341 39.968 198.617 39.5637 198.617 39.1382L198.575 53.1595C198.575 53.5637 198.298 53.9893 197.745 54.3084L146.979 83.6915C146.447 83.9893 145.766 84.1596 145.064 84.1596C144.34 84.1596 143.596 84.0106 143.043 83.6915L114.149 66.9042C113.617 66.5851 113.34 66.1808 113.34 65.7765L113.383 51.7552Z" fill="#3D0F9A"/>
<path d="M145.021 84.4576C145.021 84.4576 145.064 84.4576 145.085 84.4576C145.851 84.4576 146.596 84.2662 147.149 83.947L197.915 54.564C198.532 54.2023 198.872 53.7129 198.872 53.1597L198.915 39.1597H198.341C198.341 39.4788 198.107 39.798 197.66 40.0533L146.894 69.4363C146.426 69.7129 145.787 69.8619 145.106 69.8619C144.404 69.8619 143.723 69.7129 143.234 69.4363L114.34 52.6491C113.915 52.3937 113.681 52.0959 113.681 51.7554H113.106L113.064 65.7767C113.064 66.3087 113.404 66.798 114.021 67.1597L142.915 83.947C143.489 84.2874 144.234 84.4576 145.021 84.4576ZM198.319 40.2661L198.277 53.1597C198.277 53.4788 198.043 53.798 197.596 54.0533L146.83 83.4364C146.362 83.713 145.723 83.8619 145.043 83.8619C144.362 83.8619 143.66 83.713 143.17 83.4364L114.277 66.6491C113.851 66.3938 113.617 66.0959 113.617 65.7555L113.66 52.8618C113.766 52.9682 113.894 53.0533 114.043 53.1384L142.936 69.9257C143.511 70.2661 144.298 70.4363 145.106 70.4363C145.872 70.4363 146.617 70.2448 147.17 69.9257L197.936 40.5426C198.085 40.4575 198.213 40.3724 198.319 40.2661Z" fill="#3D0F9A"/>
<path d="M114.213 50.6064C113.128 51.2447 113.128 52.2447 114.213 52.883L143.107 69.6703C144.192 70.3086 145.958 70.3086 147.043 69.6703L197.809 40.2872C198.894 39.6489 198.894 38.6489 197.809 38.0106L168.916 21.2234C167.83 20.5851 166.064 20.5851 164.979 21.2234L114.213 50.6064Z" fill="#3D0F9A"/>
<path d="M145.065 70.458C145.831 70.458 146.575 70.2878 147.171 69.9474L197.937 40.5644C198.554 40.2027 198.895 39.7133 198.895 39.1814C198.895 38.6495 198.554 38.1601 197.937 37.7984L169.043 21.0111C167.873 20.3303 166.022 20.3303 164.831 21.0111L114.065 50.3942C113.448 50.7559 113.107 51.2452 113.107 51.7772C113.107 52.3091 113.448 52.7984 114.065 53.1601L142.958 69.9474C143.554 70.2878 144.299 70.458 145.065 70.458ZM166.937 21.0537C167.597 21.0537 168.256 21.2026 168.746 21.4792L197.639 38.2665C198.065 38.5218 198.299 38.841 198.299 39.1601C198.299 39.4793 198.065 39.7984 197.618 40.0537L146.852 69.4368C145.852 70.0112 144.214 70.0112 143.214 69.4368L114.32 52.6495C113.894 52.3942 113.66 52.075 113.66 51.7559C113.66 51.4367 113.894 51.1176 114.341 50.8623L165.107 21.4792C165.618 21.1813 166.277 21.0324 166.937 21.0324V21.0537Z" fill="#3D0F9A"/>
<path d="M144.808 70.2026H145.383V84.0963H144.808V70.2026Z" fill="#3D0F9A"/>
<path d="M109.043 35.5423C109.043 36.0104 109.341 36.4785 109.958 36.8189L142.809 55.9254C143.447 56.2871 144.277 56.4786 145.107 56.4573C145.894 56.4573 146.681 56.2658 147.277 55.9254L202.022 24.2232C202.639 23.8615 202.958 23.3934 202.958 22.9253L202.915 38.8615C202.915 39.3296 202.596 39.7977 201.979 40.1594L147.234 71.8616C146.639 72.202 145.851 72.3935 145.064 72.3935C144.234 72.3935 143.405 72.2233 142.766 71.8616L109.915 52.7552C109.298 52.3934 109 51.9254 109 51.4785L109.043 35.5423Z" fill="white" stroke="#3D0F9A"/>
<path d="M109.979 34.2448C108.745 34.9682 108.745 36.1171 109.979 36.8405L142.83 55.9469C144.064 56.6703 146.064 56.6703 147.298 55.9469L202.043 24.2447C203.277 23.5213 203.277 22.3724 202.043 21.649L169.192 2.54255C167.958 1.81915 165.958 1.81915 164.724 2.54255L109.979 34.2448Z" fill="white" stroke="#3D0F9A"/>
<path d="M125.85 48.7979L141.616 57.883V60.3085L125.85 51.2021V48.7979Z" fill="#3D0F9A"/>
<path d="M125.85 52.6064L141.616 61.6916V64.1171L125.85 55.0107V52.6064Z" fill="#3D0F9A"/>
<path d="M125.85 56.415L141.616 65.5002V67.9257L125.85 58.8193V56.415Z" fill="#3D0F9A"/>
<path d="M122.957 47.1595V57.2021L111.255 50.4361V40.3936L122.957 47.1595Z" fill="#3D0F9A"/>
<path d="M123.255 57.6913V47.0104L110.978 39.9253V50.6062L123.255 57.6913ZM122.68 47.3296V56.6913L111.553 50.2657V40.904L122.68 47.3296Z" fill="#3D0F9A"/>
<path d="M145.085 72.6064C145.234 72.6064 145.361 72.4787 145.361 72.3298V56.5212C145.361 56.3723 145.234 56.2446 145.085 56.2446C144.936 56.2446 144.808 56.3723 144.808 56.5212V72.3298C144.808 72.4787 144.936 72.6064 145.085 72.6064Z" fill="#3D0F9A" stroke="#3D0F9A" stroke-width="0.5"/>
<path d="M159.268 133.006C159.268 133.474 159.566 133.942 160.183 134.282L193.035 153.389C193.673 153.75 194.503 153.942 195.332 153.921C196.12 153.921 196.907 153.729 197.503 153.389L252.247 121.687C252.864 121.325 253.184 120.857 253.184 120.389L253.141 136.325C253.141 136.793 252.822 137.261 252.205 137.623L197.46 169.325C196.864 169.665 196.077 169.857 195.29 169.857C194.46 169.857 193.63 169.687 192.992 169.325L160.141 150.219C159.524 149.857 159.226 149.389 159.226 148.942L159.268 133.006Z" fill="white" stroke="#3D0F9A"/>
<path d="M160.206 131.709C158.972 132.432 158.972 133.581 160.206 134.305L193.057 153.411C194.291 154.134 196.291 154.134 197.525 153.411L252.27 121.709C253.504 120.985 253.504 119.836 252.27 119.113L197.738 112.624C196.504 111.9 194.504 111.9 193.27 112.624L160.184 131.73L160.206 131.709Z" fill="white" stroke="#3D0F9A"/>
<path d="M176.077 146.261L191.843 155.346V157.772L176.077 148.665V146.261Z" fill="#3D0F9A"/>
<path d="M176.077 150.07L191.843 159.155V161.581L176.077 152.475V150.07Z" fill="#3D0F9A"/>
<path d="M176.077 153.879L191.843 162.964V165.39L176.077 156.283V153.879Z" fill="#3D0F9A"/>
<path d="M173.183 144.623V154.666L161.48 147.9V137.857L173.183 144.623Z" fill="#3D0F9A"/>
<path d="M173.481 155.155V144.474L161.205 137.389V148.07L173.481 155.155ZM172.907 144.793V154.155L161.779 147.73V138.368L172.907 144.793Z" fill="#3D0F9A"/>
<path d="M195.311 170.07C195.46 170.07 195.588 169.943 195.588 169.794V153.985C195.588 153.836 195.46 153.708 195.311 153.708C195.162 153.708 195.035 153.836 195.035 153.985V169.794C195.035 169.943 195.162 170.07 195.311 170.07Z" fill="#3D0F9A"/>
<path d="M163.609 118.708C163.609 119.113 163.885 119.517 164.417 119.836L193.311 136.623C193.864 136.942 194.587 137.091 195.332 137.091C196.034 137.091 196.715 136.921 197.247 136.623L248.013 107.24C248.566 106.921 248.843 106.517 248.843 106.091L248.8 120.113C248.8 120.517 248.524 120.942 247.97 121.262L197.204 150.645C196.672 150.942 195.992 151.113 195.289 151.113C194.566 151.113 193.821 150.964 193.268 150.645L164.374 133.857C163.843 133.538 163.566 133.134 163.566 132.73L163.609 118.708Z" fill="#3D0F9A"/>
<path d="M195.247 151.411C195.247 151.411 195.289 151.411 195.311 151.411C196.077 151.411 196.821 151.22 197.375 150.901L248.141 121.518C248.758 121.156 249.098 120.667 249.098 120.113L249.141 106.113H248.566C248.566 106.432 248.332 106.752 247.885 107.007L197.119 136.39C196.651 136.667 196.013 136.815 195.332 136.815C194.651 136.815 193.949 136.667 193.46 136.39L164.566 119.603C164.14 119.347 163.906 119.049 163.906 118.709H163.332L163.289 132.73C163.289 133.262 163.63 133.752 164.247 134.113L193.14 150.901C193.715 151.22 194.46 151.411 195.247 151.411ZM248.545 107.22L248.502 120.113C248.502 120.432 248.268 120.752 247.821 121.007L197.055 150.39C196.587 150.667 195.949 150.816 195.268 150.816C194.566 150.816 193.885 150.667 193.396 150.39L164.502 133.603C164.077 133.347 163.843 133.05 163.843 132.709L163.885 119.815C163.991 119.922 164.119 120.007 164.268 120.092L193.162 136.879C193.736 137.22 194.502 137.39 195.332 137.39C196.098 137.39 196.843 137.198 197.396 136.879L248.162 107.496C248.311 107.411 248.438 107.326 248.545 107.22Z" fill="#3D0F9A"/>
<path d="M164.439 117.559C163.354 118.197 163.354 119.197 164.439 119.836L193.333 136.623C194.418 137.261 196.184 137.261 197.269 136.623L248.035 107.24C249.12 106.601 249.12 105.601 248.035 104.963L197.46 100.772C196.375 100.133 194.609 100.133 193.524 100.772L164.439 117.559Z" fill="#3D0F9A"/>
<path d="M195.29 137.41C196.056 137.41 196.801 137.24 197.397 136.9L248.163 107.495C248.78 107.134 249.12 106.644 249.12 106.112C249.12 105.58 248.78 105.091 248.163 104.729L248.099 104.687H248.035L197.524 100.495C196.333 99.8358 194.524 99.857 193.354 100.538L164.269 117.325C163.652 117.687 163.311 118.176 163.311 118.708C163.311 119.24 163.652 119.729 164.269 120.091L193.163 136.878C193.758 137.219 194.503 137.389 195.269 137.389L195.29 137.41ZM247.95 105.261C248.354 105.495 248.567 105.815 248.567 106.112C248.567 106.432 248.333 106.751 247.886 107.006L197.12 136.389C196.12 136.964 194.482 136.964 193.482 136.389L164.588 119.602C164.162 119.346 163.928 119.027 163.928 118.708C163.928 118.389 164.162 118.07 164.609 117.815L193.694 101.027C194.694 100.453 196.333 100.453 197.333 101.027L197.397 101.07H197.46L247.971 105.261H247.95Z" fill="#3D0F9A"/>
<path d="M195.034 137.155H195.608V151.048H195.034V137.155Z" fill="#3D0F9A"/>
<path d="M159.268 102.496C159.268 102.964 159.566 103.432 160.183 103.773L193.035 122.879C193.673 123.241 194.503 123.432 195.332 123.411C196.12 123.411 196.907 123.219 197.503 122.879L252.247 91.1768C252.864 90.8151 253.184 90.347 253.184 89.8789L253.141 105.815C253.141 106.283 252.822 106.751 252.205 107.113L197.46 138.815C196.864 139.156 196.077 139.347 195.29 139.347C194.46 139.347 193.63 139.177 192.992 138.815L160.141 119.709C159.524 119.347 159.226 118.879 159.226 118.432L159.268 102.496Z" fill="white" stroke="#3D0F9A"/>
<path d="M160.206 101.198C158.972 101.921 158.972 103.07 160.206 103.794L193.057 122.9C194.291 123.623 196.291 123.623 197.525 122.9L252.27 91.1979C253.504 90.4745 253.504 89.3255 252.27 88.6021L219.419 69.4957C218.185 68.7723 216.185 68.7723 214.951 69.4957L160.206 101.198Z" fill="white" stroke="#3D0F9A"/>
<path d="M176.077 115.751L191.843 124.836V127.262L176.077 118.155V115.751Z" fill="#FF5A00"/>
<path d="M176.077 119.56L191.843 128.645V131.07L176.077 121.964V119.56Z" fill="#FF5A00"/>
<path d="M176.077 123.368L191.843 132.453V134.879L176.077 125.772V123.368Z" fill="#FF5A00"/>
<path d="M173.183 114.113V124.155L161.48 117.389V107.347L173.183 114.113Z" fill="#FF5A00"/>
<path d="M173.481 124.644V113.964L161.205 106.878V117.559L173.481 124.644ZM172.907 114.283V123.644L161.779 117.219V107.857L172.907 114.283Z" fill="#FF5A00"/>
<path d="M195.311 139.559C195.46 139.559 195.588 139.431 195.588 139.282V123.474C195.588 123.325 195.46 123.197 195.311 123.197C195.162 123.197 195.035 123.325 195.035 123.474V139.282C195.035 139.431 195.162 139.559 195.311 139.559Z" fill="#3D0F9A"/>
<path d="M163.609 88.1976C163.609 88.6019 163.885 89.0061 164.417 89.3253L193.311 106.113C193.864 106.432 194.587 106.581 195.332 106.581C196.034 106.581 196.715 106.41 197.247 106.113L248.013 76.7295C248.566 76.4104 248.843 76.0061 248.843 75.5806L248.8 89.6019C248.8 90.0061 248.524 90.4317 247.97 90.7508L197.204 120.134C196.672 120.432 195.992 120.602 195.289 120.602C194.566 120.602 193.821 120.453 193.268 120.134L164.374 103.347C163.843 103.027 163.566 102.623 163.566 102.219L163.609 88.1976Z" fill="#3D0F9A"/>
<path d="M195.247 120.9C195.247 120.9 195.289 120.9 195.311 120.9C196.077 120.9 196.821 120.709 197.375 120.389L248.141 91.0063C248.758 90.6446 249.098 90.1553 249.098 89.6021L249.141 75.6021H248.566C248.566 75.9212 248.332 76.2404 247.885 76.4957L197.119 105.879C196.651 106.155 196.013 106.304 195.332 106.304C194.63 106.304 193.949 106.155 193.46 105.879L164.566 89.0914C164.14 88.8361 163.906 88.5383 163.906 88.1978H163.332L163.289 102.219C163.289 102.751 163.63 103.24 164.247 103.602L193.14 120.389C193.715 120.73 194.46 120.9 195.247 120.9ZM248.545 76.7084L248.502 89.6021C248.502 89.9212 248.268 90.2404 247.821 90.4957L197.055 119.879C196.587 120.155 195.949 120.304 195.268 120.304C194.587 120.304 193.885 120.155 193.396 119.879L164.502 103.091C164.077 102.836 163.843 102.538 163.843 102.198L163.885 89.3042C163.991 89.4106 164.119 89.4957 164.268 89.5808L193.162 106.368C193.736 106.709 194.523 106.879 195.332 106.879C196.098 106.879 196.843 106.687 197.396 106.368L248.162 76.985C248.311 76.8999 248.438 76.8148 248.545 76.7084Z" fill="#3D0F9A"/>
<path d="M164.439 87.0488C163.354 87.6871 163.354 88.6871 164.439 89.3254L193.333 106.113C194.418 106.751 196.184 106.751 197.269 106.113L248.035 76.7296C249.12 76.0913 249.12 75.0913 248.035 74.453L219.141 57.6657C218.056 57.0274 216.29 57.0274 215.205 57.6657L164.439 87.0488Z" fill="#3D0F9A"/>
<path d="M195.29 106.9C196.056 106.9 196.801 106.73 197.397 106.389L248.163 77.0063C248.78 76.6446 249.12 76.1552 249.12 75.6233C249.12 75.0914 248.78 74.602 248.163 74.2403L219.269 57.453C218.099 56.7722 216.248 56.7722 215.056 57.453L164.29 86.8361C163.673 87.1978 163.333 87.6871 163.333 88.219C163.333 88.751 163.673 89.2403 164.29 89.602L193.184 106.389C193.78 106.73 194.524 106.9 195.29 106.9ZM217.163 57.4956C217.822 57.4956 218.482 57.6445 218.971 57.9211L247.865 74.7084C248.29 74.9637 248.524 75.2829 248.524 75.602C248.524 75.9211 248.29 76.2403 247.844 76.4956L197.077 105.879C196.077 106.453 194.439 106.453 193.439 105.879L164.545 89.0914C164.12 88.8361 163.886 88.5169 163.886 88.1978C163.886 87.8786 164.12 87.5595 164.567 87.3041L215.333 57.9211C215.843 57.6232 216.503 57.4743 217.163 57.4743V57.4956Z" fill="#3D0F9A"/>
<path d="M195.034 106.645H195.608V120.538H195.034V106.645Z" fill="#3D0F9A"/>
<path d="M159.268 71.9847C159.268 72.4528 159.566 72.9209 160.183 73.2613L193.035 92.3677C193.673 92.7295 194.503 92.9209 195.332 92.8997C196.12 92.8997 196.907 92.7082 197.503 92.3677L252.247 60.6655C252.864 60.3038 253.184 59.8358 253.184 59.3677L253.141 75.3039C253.141 75.772 252.822 76.2401 252.205 76.6018L197.46 108.304C196.864 108.644 196.077 108.836 195.29 108.836C194.46 108.836 193.63 108.666 192.992 108.304L160.141 89.1975C159.524 88.8358 159.226 88.3677 159.226 87.9209L159.268 71.9847Z" fill="white" stroke="#3D0F9A"/>
<path d="M160.206 70.6871C158.972 71.4105 158.972 72.5595 160.206 73.2829L193.057 92.3893C194.291 93.1127 196.291 93.1127 197.525 92.3893L252.27 60.6871C253.504 59.9637 253.504 58.8148 252.27 58.0914L219.419 38.9849C218.185 38.2615 216.185 38.2615 214.951 38.9849L160.206 70.6871Z" fill="white" stroke="#3D0F9A"/>
<path d="M176.077 85.2402L191.843 94.3254V96.7509L176.077 87.6445V85.2402Z" fill="#FF5A00"/>
<path d="M176.077 89.0483L191.843 98.1335V100.559L176.077 91.4526V89.0483Z" fill="#FF5A00"/>
<path d="M176.077 92.8574L191.843 101.943V104.368L176.077 95.2617V92.8574Z" fill="#FF5A00"/>
<path d="M173.183 83.6014V93.644L161.48 86.878V76.8354L173.183 83.6014Z" fill="#FF5A00"/>
<path d="M173.481 94.1337V83.4528L161.205 76.3677V87.0485L173.481 94.1337ZM172.907 83.7719V93.1337L161.779 86.7081V77.3464L172.907 83.7719Z" fill="#FF5A00"/>
<path d="M195.311 109.048C195.46 109.048 195.588 108.921 195.588 108.772V92.9631C195.588 92.8142 195.46 92.6865 195.311 92.6865C195.162 92.6865 195.035 92.8142 195.035 92.9631V108.772C195.035 108.921 195.162 109.048 195.311 109.048Z" fill="#3D0F9A" stroke="#3D0F9A" stroke-width="0.5"/>
<path d="M87.7285 243L17.7881 198.762C14.3167 196.566 14.3802 193.193 17.9335 191.041L127 125" stroke="#3D0F9A" stroke-width="0.5" stroke-dasharray="2 2"/>
<path d="M127.928 155.414V158.077L141.635 150.166L141.608 147.503L127.928 155.414Z" fill="#3D0F9A"/>
<path d="M127.928 158.443C127.928 158.443 127.797 158.443 127.745 158.391C127.615 158.312 127.562 158.182 127.562 158.051V155.414C127.562 155.284 127.641 155.153 127.745 155.075L141.426 147.164C141.426 147.164 141.687 147.086 141.818 147.164C141.948 147.243 142 147.373 142 147.504V150.141C142 150.271 141.922 150.402 141.818 150.48L128.137 158.391C128.137 158.391 128.006 158.443 127.954 158.443H127.928ZM128.32 155.623V157.373L141.243 149.906V148.156L128.32 155.623Z" fill="#3D0F9A"/>
<path d="M111.192 161.967V164.63L133.28 161.158L133.254 158.521L111.192 161.967Z" fill="#3D0F9A" stroke="#3D0F9A" stroke-linejoin="round"/>
<path d="M117.223 149.2L111.192 161.967L133.254 158.521L127.928 155.414L141.609 147.503L136.256 144.396L122.549 152.307L117.223 149.2Z" fill="white" stroke="#3D0F9A" stroke-linejoin="round"/>
<path d="M95.1289 174.214V176.877L108.836 168.966L108.81 166.303L95.1289 174.214Z" fill="#3D0F9A"/>
<path d="M95.1282 177.242C95.1282 177.242 94.9977 177.242 94.9455 177.19C94.8149 177.112 94.7627 176.981 94.7627 176.851V174.214C94.7627 174.083 94.841 173.953 94.9455 173.874L108.626 165.964C108.626 165.964 108.887 165.885 109.018 165.964C109.148 166.042 109.201 166.172 109.201 166.303V168.94C109.201 169.07 109.122 169.201 109.018 169.279L95.3371 177.19C95.3371 177.19 95.2065 177.242 95.1543 177.242H95.1282ZM95.5198 174.423V176.172L108.443 168.705V166.956L95.5198 174.423Z" fill="#3D0F9A"/>
<path d="M78.3926 180.767V183.43L100.48 179.957L100.454 177.32L78.3926 180.767Z" fill="#3D0F9A" stroke="#3D0F9A" stroke-linejoin="round"/>
<path d="M84.4236 168L78.3926 180.767L100.454 177.321L95.128 174.214L108.809 166.303L103.457 163.196L89.7497 171.107L84.4236 168Z" fill="white" stroke="#3D0F9A" stroke-linejoin="round"/>
<path d="M73.5663 210.964C73.5663 210.964 73.7401 210.964 73.8097 210.895L156.82 162.974C157.063 162.835 157.133 162.522 156.994 162.243C156.854 162 156.541 161.93 156.298 162.069L73.3228 209.991C73.0794 210.13 72.9751 210.443 73.149 210.686C73.2533 210.86 73.4272 210.93 73.601 210.93L73.5663 210.964Z" fill="#3D0F9A"/>
<path d="M107.334 209.99L82.6081 224.353C80.6259 225.5 77.3917 225.5 75.4095 224.353L39.5208 203.661C38.5123 203.07 38.0255 202.305 38.0255 201.575L37.9559 228.735C37.9559 229.5 38.4428 230.265 39.4513 230.821L75.34 251.513C77.357 252.66 80.5563 252.66 82.5386 251.513L107.264 237.15C108.238 236.594 108.76 235.829 108.76 235.064L108.829 207.904C108.829 208.669 108.342 209.399 107.334 209.99Z" fill="#3D0F9A"/>
<path d="M78.9555 252.904C80.3465 252.904 81.7376 252.591 82.8156 251.965L107.541 237.603C108.654 236.942 109.28 236.073 109.28 235.099L109.35 207.939C109.35 207.661 109.106 207.417 108.828 207.417C108.55 207.417 108.306 207.661 108.306 207.939C108.306 208.53 107.854 209.121 107.089 209.573L82.3635 223.936C80.5204 225.014 77.5297 225.014 75.6866 223.936L39.7979 203.244C38.998 202.792 38.546 202.201 38.546 201.575C38.546 201.297 38.3025 201.053 38.0243 201.053C37.7461 201.053 37.5027 201.297 37.5027 201.575L37.4331 228.735C37.4331 229.709 38.0591 230.613 39.2067 231.273L75.0954 251.965C76.1734 252.591 77.5645 252.904 78.9555 252.904ZM108.306 209.956V235.064C108.237 235.655 107.819 236.246 107.02 236.698L82.294 251.061C80.4509 252.139 77.4601 252.139 75.617 251.061L39.7283 230.369C38.9285 229.917 38.4764 229.326 38.4764 228.7V203.592C38.7546 203.766 38.9981 203.94 39.2763 204.113L75.1649 224.805C77.321 226.057 80.7291 226.057 82.8852 224.805L107.611 210.443C107.854 210.304 108.098 210.13 108.306 209.956Z" fill="#3D0F9A"/>
<path d="M107.299 205.818C109.316 206.966 109.316 208.843 107.299 209.991L82.5731 224.353C80.5909 225.501 77.3568 225.501 75.3745 224.353L39.4858 203.662C37.4688 202.514 37.4688 200.636 39.4858 199.489L64.2115 185.126C66.1937 183.979 69.4279 183.979 71.4101 185.126L107.299 205.818Z" fill="white" stroke="#3D0F9A"/>
<path d="M79.2694 252.87C79.5476 252.87 79.791 252.626 79.791 252.348V225.223C79.791 224.945 79.5476 224.701 79.2694 224.701C78.9912 224.701 78.7477 224.945 78.7477 225.223V252.348C78.7477 252.626 78.9912 252.87 79.2694 252.87Z" fill="#3D0F9A"/>
<path d="M50.6826 220.249C50.6826 222.336 49.222 223.171 47.4137 222.127C45.6053 221.084 44.1448 218.58 44.1448 216.494C44.1448 214.407 45.6053 213.572 47.4137 214.616C49.222 215.659 50.6826 218.163 50.6826 220.249Z" fill="white"/>
<path d="M60.9082 226.126C60.9082 228.213 59.4476 229.047 57.6393 228.004C55.8309 226.961 54.3703 224.457 54.3703 222.37C54.3703 220.284 55.8309 219.449 57.6393 220.493C59.4476 221.536 60.9082 224.04 60.9082 226.126Z" fill="white"/>
<path d="M71.1328 232.038C71.1328 234.124 69.6722 234.959 67.8639 233.916C66.0555 232.873 64.5949 230.369 64.5949 228.282C64.5949 226.196 66.0555 225.361 67.8639 226.404C69.6722 227.447 71.1328 229.951 71.1328 232.038Z" fill="#FF5A00"/>
<path d="M139.093 190.845C139.093 191.52 139.555 192.195 140.443 192.728L200.755 227.771C201.679 228.304 202.887 228.553 204.096 228.553C205.233 228.553 206.406 228.269 207.294 227.771L255.629 199.872C256.553 199.339 256.98 198.664 256.98 197.953L256.908 213.768C256.908 214.443 256.446 215.154 255.558 215.687L207.223 243.586C206.335 244.084 205.197 244.368 204.025 244.368C202.816 244.368 201.608 244.12 200.684 243.586L140.372 208.544C139.484 208.011 139.021 207.335 139.021 206.66L139.093 190.845Z" fill="white" stroke="#3D0F9A"/>
<path d="M140.443 188.926C138.631 189.956 138.631 191.662 140.443 192.693L200.755 227.735C202.568 228.766 205.482 228.766 207.295 227.735L255.629 199.836C257.442 198.806 257.442 197.1 255.629 196.069L195.318 161.026C193.505 159.996 190.591 159.996 188.778 161.026L140.443 188.926Z" fill="white" stroke="#3D0F9A"/>
<path d="M166.069 215.759C166.069 217.394 164.896 218.069 163.474 217.251C162.053 216.434 160.88 214.408 160.88 212.773C160.88 211.139 162.053 210.463 163.474 211.281C164.896 212.098 166.069 214.124 166.069 215.759Z" fill="#3D0F9A"/>
<path d="M174.206 220.45C174.206 222.085 173.034 222.76 171.612 221.943C170.19 221.125 169.018 219.1 169.018 217.465C169.018 215.83 170.19 215.155 171.612 215.972C173.034 216.79 174.206 218.815 174.206 220.45Z" fill="#3D0F9A"/>
<path d="M182.31 225.105C182.31 226.74 181.137 227.415 179.716 226.598C178.294 225.78 177.121 223.754 177.121 222.12C177.121 220.485 178.294 219.809 179.716 220.627C181.137 221.444 182.31 223.47 182.31 225.105Z" fill="#FF5A00"/>
<path d="M144.672 168.525C144.672 169.13 145.063 169.769 145.881 170.231L200.47 201.969C201.288 202.466 202.39 202.68 203.491 202.68C204.522 202.68 205.588 202.431 206.37 201.969L250.12 176.7C250.938 176.238 251.364 175.598 251.364 174.958L251.293 196.034C251.293 196.673 250.867 197.277 250.049 197.775L206.299 223.044C205.517 223.506 204.451 223.755 203.42 223.755C202.319 223.755 201.217 223.542 200.399 223.044L145.845 191.307C145.028 190.845 144.637 190.205 144.637 189.601L144.708 168.525H144.672Z" fill="#3D0F9A"/>
<path d="M203.385 224.288C202.177 224.288 201.039 224.004 200.151 223.506L145.561 191.769C144.601 191.2 144.068 190.454 144.068 189.601L144.139 168.525C144.139 168.241 144.388 167.992 144.673 167.992C144.957 167.992 145.206 168.241 145.206 168.525C145.206 168.987 145.561 169.414 146.165 169.769L200.755 201.507C201.466 201.933 202.461 202.146 203.527 202.146C204.522 202.146 205.446 201.898 206.157 201.507L249.907 176.238C250.511 175.882 250.867 175.42 250.867 174.994C250.867 174.674 251.116 174.461 251.4 174.461C251.684 174.461 251.933 174.709 251.933 174.994L251.862 196.069C251.862 196.922 251.329 197.704 250.369 198.237L206.619 223.506C205.766 224.004 204.664 224.288 203.492 224.288H203.421H203.385ZM145.206 170.409L145.135 189.601C145.135 190.027 145.49 190.489 146.094 190.845L200.684 222.582C201.395 223.008 202.425 223.257 203.456 223.222C204.451 223.222 205.375 222.973 206.086 222.582L249.836 197.313C250.44 196.957 250.796 196.495 250.796 196.033L250.867 176.842C250.867 176.842 250.582 177.055 250.44 177.126L206.69 202.395C205.837 202.893 204.736 203.177 203.563 203.177C202.319 203.177 201.146 202.928 200.257 202.395L145.632 170.693C145.632 170.693 145.348 170.516 145.206 170.409Z" fill="#3D0F9A"/>
<path d="M139.093 164.403C139.093 165.078 139.555 165.753 140.443 166.286L200.755 201.329C201.679 201.862 202.887 202.111 204.096 202.111C205.233 202.111 206.406 201.827 207.294 201.329L255.629 173.43C256.553 172.897 256.98 172.222 256.98 171.511L256.908 187.326C256.908 188.002 256.446 188.712 255.558 189.245L207.223 217.145C206.335 217.642 205.197 217.926 204.025 217.926C202.816 217.926 201.608 217.678 200.684 217.145L140.372 182.102C139.484 181.569 139.021 180.894 139.021 180.218L139.093 164.403Z" fill="white" stroke="#3D0F9A"/>
<path d="M140.443 162.52C138.631 163.55 138.631 165.256 140.443 166.287L200.755 201.33C202.568 202.36 205.482 202.36 207.295 201.33L255.629 173.43C257.442 172.4 257.442 170.694 255.629 169.663L195.353 134.585C193.541 133.554 190.626 133.554 188.814 134.585L140.443 162.52Z" fill="white" stroke="#3D0F9A"/>
<path d="M203.128 222.466C202.885 222.466 202.673 222.247 202.673 221.996V201.992C202.673 201.741 202.885 202.447 203.128 202.447C203.37 202.447 203.583 201.969 203.583 202.22V221.996C203.583 222.247 203.37 222.466 203.128 222.466Z" fill="#3D0F9A" stroke="#3D0F9A" stroke-width="0.18199"/>
<path d="M203.129 244.305C202.886 244.305 202.674 244.135 202.674 243.941V228.29C202.674 228.096 202.886 228.836 203.129 228.836C203.371 228.836 203.584 228.096 203.584 228.29V243.941C203.584 244.135 203.371 244.305 203.129 244.305Z" fill="#3D0F9A" stroke="#3D0F9A" stroke-width="0.18199"/>
<path d="M166.069 189.317C166.069 190.952 164.896 191.627 163.474 190.81C162.053 189.992 160.88 187.966 160.88 186.331C160.88 184.697 162.053 184.021 163.474 184.839C164.896 185.656 166.069 187.682 166.069 189.317Z" fill="#3D0F9A"/>
<path d="M174.206 194.009C174.206 195.644 173.034 196.319 171.612 195.501C170.19 194.684 169.018 192.658 169.018 191.023C169.018 189.389 170.19 188.713 171.612 189.531C173.034 190.348 174.206 192.374 174.206 194.009Z" fill="#3D0F9A"/>
<path d="M182.31 198.699C182.31 200.334 181.137 201.009 179.716 200.192C178.294 199.374 177.121 197.349 177.121 195.714C177.121 194.079 178.294 193.404 179.716 194.221C181.137 195.039 182.31 197.064 182.31 198.699Z" fill="#FF5A00"/>
<path d="M137.637 228.874V232.889C137.637 232.488 137.356 232.046 136.793 231.725C135.709 231.082 133.902 231.082 132.818 231.725C132.256 232.046 132.015 232.448 132.015 232.849V228.834C132.015 228.432 132.296 227.99 132.858 227.709C133.942 227.067 135.749 227.067 136.834 227.709C137.396 228.031 137.677 228.432 137.677 228.874H137.637Z" fill="white"/>
<path d="M137.596 233.451C137.917 233.451 138.198 233.17 138.198 232.849V228.834C138.198 228.191 137.797 227.589 137.074 227.147C135.789 226.424 133.781 226.424 132.496 227.147C131.774 227.549 131.372 228.151 131.372 228.793V232.809C131.372 233.13 131.653 233.411 131.974 233.411C132.296 233.411 132.577 233.13 132.577 232.809C132.577 232.608 132.777 232.367 133.099 232.166C134.022 231.644 135.548 231.644 136.472 232.166C136.793 232.367 136.994 232.608 136.994 232.809C136.994 233.13 137.275 233.411 137.596 233.411V233.451ZM134.785 227.79C135.387 227.79 136.03 227.91 136.472 228.191C136.793 228.392 136.994 228.633 136.994 228.834V231.122C135.749 230.44 133.821 230.44 132.577 231.122V228.834C132.577 228.633 132.777 228.392 133.099 228.191C133.54 227.91 134.183 227.79 134.785 227.79Z" fill="#3D0F9A"/>
<path d="M137.637 228.874V232.889C137.637 232.488 137.356 232.046 136.793 231.725C135.709 231.082 133.902 231.082 132.818 231.725C132.256 232.046 132.015 232.448 132.015 232.849V228.834C132.015 228.432 132.296 227.99 132.858 227.709C133.942 227.067 135.749 227.067 136.834 227.709C137.396 228.031 137.677 228.432 137.677 228.874H137.637Z" fill="black"/>
<path d="M137.596 233.451C137.917 233.451 138.198 233.17 138.198 232.849V228.834C138.198 228.191 137.797 227.589 137.074 227.147C135.789 226.424 133.781 226.424 132.496 227.147C131.774 227.549 131.372 228.151 131.372 228.793V232.809C131.372 233.13 131.653 233.411 131.974 233.411C132.296 233.411 132.577 233.13 132.577 232.809C132.577 232.608 132.777 232.367 133.099 232.166C134.022 231.644 135.548 231.644 136.472 232.166C136.793 232.367 136.994 232.608 136.994 232.809C136.994 233.13 137.275 233.411 137.596 233.411V233.451ZM134.785 227.79C135.387 227.79 136.03 227.91 136.472 228.191C136.793 228.392 136.994 228.633 136.994 228.834V231.122C135.749 230.44 133.821 230.44 132.577 231.122V228.834C132.577 228.633 132.777 228.392 133.099 228.191C133.54 227.91 134.183 227.79 134.785 227.79Z" fill="black"/>
<path d="M137.596 233.452C137.917 233.452 138.198 233.171 138.198 232.85V228.834C138.198 228.834 138.198 228.593 138.198 228.513C138.118 228.232 137.837 228.031 137.556 228.031C137.235 228.031 137.034 228.312 137.034 228.634V232.649C137.034 232.649 137.034 232.729 137.034 232.769V232.85C137.034 233.171 137.315 233.452 137.636 233.452H137.596Z" fill="#3D0F9A"/>
<path d="M134.465 227.228V231.243C133.862 231.283 133.26 231.444 132.818 231.725C132.256 232.046 132.015 232.448 132.015 232.849V228.834C132.015 228.432 132.296 227.99 132.859 227.709C133.3 227.428 133.903 227.268 134.505 227.228H134.465Z" fill="#3D0F9A"/>
<path d="M153.456 228.03V232.046L141.49 238.992L141.53 234.977L153.456 228.03Z" fill="#3D0F9A" stroke="#3D0F9A" stroke-linejoin="round"/>
<path d="M136.873 234.977V238.993L128.641 234.215V230.239L136.873 234.977Z" fill="#3D0F9A" stroke="#3D0F9A" stroke-linejoin="round"/>
<path d="M141.529 234.977L141.489 238.992H136.871V234.977H141.529Z" fill="#3D0F9A" stroke="#3D0F9A" stroke-linejoin="round"/>
<path d="M145.184 220.602H140.567L128.601 227.548V230.239L136.872 235.017H141.49L153.456 228.07C153.456 227.026 153.456 226.424 153.456 225.38L145.184 220.602ZM132.817 229.998C131.733 229.355 131.692 228.351 132.817 227.709C133.901 227.066 135.708 227.066 136.792 227.709C137.876 228.351 137.916 229.355 136.792 229.998C135.708 230.64 133.901 230.64 132.817 229.998Z" fill="white" stroke="#3D0F9A" stroke-linejoin="round"/>
<path d="M146.309 234.776C146.309 234.776 146.229 234.455 146.229 234.254C146.229 233.291 146.911 232.166 147.714 231.684C148.116 231.444 148.518 231.444 148.758 231.604L181.886 250.838C181.605 250.677 181.243 250.718 180.842 250.918C179.998 251.4 179.356 252.565 179.356 253.488C179.356 253.689 179.356 253.89 179.476 254.05C179.476 254.131 179.517 254.171 179.557 254.211C179.557 254.211 179.557 254.251 179.597 254.291C179.637 254.372 179.717 254.412 179.798 254.452L146.63 235.218C146.63 235.218 146.51 235.098 146.429 235.057C146.429 235.057 146.429 235.017 146.389 234.977C146.389 234.937 146.309 234.857 146.309 234.816V234.776Z" fill="white"/>
<path d="M179.798 255.094C179.999 255.094 180.2 254.974 180.32 254.813C180.481 254.532 180.4 254.171 180.119 254.01L179.959 253.93H180.039C180.039 253.93 179.999 253.689 179.999 253.568C179.999 252.846 180.561 251.882 181.204 251.521C181.444 251.4 181.605 251.36 181.685 251.4C181.966 251.561 182.328 251.48 182.488 251.199C182.649 250.918 182.569 250.557 182.288 250.396L149.04 231.082C148.558 230.801 147.956 230.841 147.394 231.162C146.39 231.724 145.587 233.09 145.587 234.254C145.587 234.455 145.587 234.656 145.667 234.857C145.667 234.897 145.667 234.937 145.667 234.977C145.667 234.977 145.667 235.017 145.667 235.057C145.667 235.138 145.747 235.218 145.787 235.298C145.787 235.298 145.828 235.379 145.868 235.419C145.988 235.539 146.109 235.66 146.229 235.74L179.477 255.014C179.477 255.014 179.678 255.094 179.758 255.094H179.798ZM180.28 250.597C179.477 251.199 178.875 252.243 178.754 253.207L146.912 234.696H146.872C146.872 234.696 146.872 234.616 146.872 234.575C146.872 234.495 146.831 234.375 146.831 234.254C146.831 233.531 147.394 232.568 148.036 232.206C148.036 232.206 148.036 232.206 148.076 232.206C148.277 232.086 148.438 232.086 148.478 232.126L180.28 250.597Z" fill="#3D0F9A"/>
<path d="M180.843 250.958C181.646 250.476 182.329 250.877 182.329 251.801C182.329 252.765 181.646 253.889 180.843 254.371C180 254.853 179.358 254.451 179.358 253.527C179.358 252.564 180.04 251.439 180.843 250.958Z" fill="white"/>
<path d="M180.16 255.174C180.481 255.174 180.802 255.094 181.124 254.893C182.168 254.331 182.931 252.966 182.931 251.802C182.931 251.119 182.65 250.597 182.208 250.316C181.726 250.035 181.124 250.075 180.562 250.436C179.558 250.998 178.755 252.364 178.755 253.528C178.755 254.211 179.036 254.733 179.477 255.014C179.678 255.134 179.919 255.174 180.16 255.174ZM181.485 251.32H181.565C181.646 251.32 181.686 251.52 181.686 251.761C181.686 252.484 181.124 253.448 180.481 253.809C180.24 253.93 180.08 253.97 179.999 253.93C179.919 253.93 179.879 253.729 179.879 253.488C179.879 252.765 180.441 251.802 181.084 251.44H181.124C181.124 251.44 181.405 251.32 181.485 251.32Z" fill="#3D0F9A"/>
<path d="M164.738 250.598V252.726L169.477 255.456V253.328L164.738 250.598Z" fill="white" stroke="#3D0F9A" stroke-linejoin="round"/>
<path d="M169.477 253.329V255.457L175.38 252.044V249.916L169.477 253.329Z" fill="#3D0F9A" stroke="#3D0F9A" stroke-linejoin="round"/>
<path d="M164.739 250.597L169.477 253.328L175.38 249.915L170.642 247.184L164.739 250.597Z" fill="white" stroke="#3D0F9A" stroke-linejoin="round"/>
<path d="M137.597 228.634V229.649C137.516 229.288 137.235 230.359 136.794 230.078C136.151 229.717 135.308 230.46 134.465 230.5L134.465 227.188C135.308 227.148 136.151 227.268 136.794 227.67C137.275 227.951 137.516 228.272 137.597 228.634Z" fill="#3D0F9A"/>
<path d="M29.1885 40.7798L24.997 43.2007C22.7928 44.4654 19.8299 44.3931 16.5056 42.6587L20.6971 40.2378C24.0214 41.9722 26.9843 42.0445 29.1885 40.7798Z" fill="white"/>
<path d="M16.5427 42.6587L20.7342 40.2378C24.0585 41.9722 27.0214 42.0445 29.2256 40.7798L25.0341 43.2007C22.83 44.4654 19.867 44.3931 16.5427 42.6587Z" fill="white" stroke="#3D0F9A" stroke-linejoin="round"/>
<path d="M28.7552 34.9628L32.9467 32.5418C33.6694 32.5418 47.4724 32.2166 61.5645 40.3467L57.373 42.7676C43.2809 34.6376 29.4779 34.9266 28.7552 34.9628Z" fill="white"/>
<path d="M57.373 43.346C57.373 43.346 57.5536 43.346 57.6259 43.2737L61.8174 40.8527C61.8174 40.8527 62.0703 40.5637 62.0703 40.383C62.0703 40.2023 61.9619 40.0217 61.8174 39.9133C48.0144 31.9278 34.4282 32 32.9106 32C32.8022 32 32.7299 32 32.6576 32.0723L28.4661 34.4932C28.2493 34.6016 28.1409 34.8546 28.2132 35.1075C28.2855 35.3604 28.4661 35.4688 28.7552 35.505C30.2367 35.505 43.5338 35.4327 57.0839 43.2376C57.1562 43.2737 57.2646 43.3098 57.3368 43.3098L57.373 43.346ZM60.4804 40.383L57.373 42.1897C46.1716 35.794 35.187 34.6739 30.7064 34.4932L33.0912 33.1202C35.0786 33.1202 47.5446 33.2286 60.4804 40.4191V40.383Z" fill="#3D0F9A"/>
<path d="M77.355 137.365L73.1635 139.786C83.317 133.896 95.0604 120.419 98.0595 89.7413L102.251 87.3203C99.2519 117.998 87.5085 131.475 77.355 137.365Z" fill="white" stroke="#3D0F9A" stroke-linejoin="round"/>
<path d="M85.9186 67.9893L90.1101 65.5684C90.1101 73.4455 95.4579 83.0209 102.251 87.3207L98.0595 89.7417C91.2664 85.4418 85.8825 75.8664 85.9186 67.9893Z" fill="white" stroke="#3D0F9A" stroke-linejoin="round"/>
<path d="M32.9461 32.5418C33.6688 32.5418 47.4718 32.2166 61.5639 40.3467C75.656 48.4767 89.3867 64.7007 90.1094 65.5317L85.9179 67.9527C85.1952 67.0855 71.4283 50.8977 57.3724 42.7676C43.2803 34.6376 29.4773 34.9266 28.7546 34.9628L32.9461 32.5418Z" fill="white" stroke="#3D0F9A" stroke-linejoin="round"/>
<path d="M57.3732 42.8042C71.4653 50.9342 85.196 67.1582 85.9187 67.9893C85.9187 75.8664 91.2665 85.4417 98.0596 89.7416C92.6395 145.026 58.8547 144.412 57.0842 144.412C55.3136 142.388 21.6372 104.051 16.5423 42.6958C23.3354 46.2369 28.7555 42.9126 28.7555 34.9993C29.4781 34.9993 43.2811 34.6741 57.3732 42.8042Z" fill="#3D0F9A" stroke="#3D0F9A" stroke-width="0.896758" stroke-linejoin="round"/>
<path d="M59.2161 139.535C52.3869 131.224 27.8522 98.3786 21.9263 48.8034C26.5876 48.695 31.2488 45.9127 32.8748 39.9146C37.7167 40.3843 46.3165 41.9019 54.9885 46.9245C66.3344 53.5008 77.6442 65.75 81.2576 69.8692C81.8719 77.8909 86.6053 86.7075 93.0732 91.983C91.8086 102.462 89.3876 111.459 85.8104 118.686C82.7752 124.828 78.9089 129.779 74.3199 133.32C68.2495 138.017 62.2152 139.246 59.18 139.571L59.2161 139.535Z" fill="#3D0F9A"/>
<path d="M59.2161 140.076C59.2161 140.076 59.2161 140.076 59.2884 140.076C62.3959 139.751 68.5024 138.522 74.6813 133.717C79.3425 130.103 83.2449 125.117 86.3163 118.902C89.8935 111.603 92.3506 102.57 93.6152 92.0186C93.6152 91.8379 93.5791 91.6573 93.4346 91.5489C87.1112 86.3818 82.45 77.6375 81.8357 69.7965C81.8357 69.6881 81.7634 69.5797 81.6912 69.4713C78.403 65.7495 66.8403 53.1028 55.2776 46.4181C46.3526 41.251 37.4637 39.7695 32.947 39.3359C32.6941 39.3359 32.4412 39.4805 32.3689 39.7334C30.6706 45.8761 25.8649 48.1525 21.9263 48.2248C21.7818 48.2248 21.6373 48.2971 21.5289 48.4055C21.4205 48.5139 21.3843 48.6584 21.3843 48.8391C27.2741 98.2336 51.4835 131.007 58.7825 139.859C58.8909 139.968 59.0355 140.04 59.18 140.04L59.2161 140.076ZM92.4951 92.1631C91.2304 102.461 88.8456 111.314 85.3407 118.396C82.3416 124.467 78.5476 129.345 74.0309 132.849C68.2495 137.33 62.5404 138.595 59.4691 138.956C52.0617 129.887 28.5026 97.6916 22.5767 49.3088C26.696 49.0197 31.4656 46.5626 33.3084 40.4922C37.8612 40.9619 46.3165 42.4796 54.7717 47.3576C66.0454 53.8616 77.3913 66.1831 80.7878 70.0494C81.4744 77.9988 86.1717 86.8515 92.5312 92.1631H92.4951Z" fill="white"/>
<path d="M62.5918 121.599L30.9096 139.895" stroke="#FF5A00" stroke-dasharray="1.66 1.66"/>
<path d="M61.7631 119.613C60.6243 118.899 59.6924 119.484 59.6924 120.91C59.6924 122.336 60.6243 124.088 61.7631 124.802C62.9019 125.516 63.8338 124.931 63.8338 123.505C63.8338 122.079 62.9019 120.327 61.7631 119.613Z" fill="#FF5A00"/>
<path d="M57.5056 89.925C57.5056 89.925 57.441 89.925 57.4195 89.9142C57.3334 89.8927 57.2581 89.8282 57.2151 89.7528L55.3751 86.5464C54.8371 86.5464 54.2668 86.4926 53.6858 86.3742V89.0212C53.675 89.1395 53.5997 89.2579 53.5029 89.3117C53.3953 89.3762 53.2662 89.3762 53.1586 89.3117L47.402 85.9654C47.2944 85.9008 47.2298 85.7932 47.2298 85.6641V82.6083C46.5843 81.9734 45.9494 81.2848 45.3469 80.5424L43.6683 81.4892C43.5069 81.5861 43.2917 81.5215 43.2056 81.3601L39.1599 74.2908C39.1169 74.2155 39.1061 74.1187 39.1276 74.0326C39.1491 73.9465 39.2137 73.8712 39.289 73.8282L41.0859 72.806C40.7954 71.9452 40.5695 71.0844 40.3973 70.2451L37.7073 68.6849C37.5997 68.6311 37.5352 68.5128 37.5352 68.3944L37.589 61.7555C37.589 61.6372 37.6535 61.5188 37.7611 61.465C37.8687 61.4005 37.9978 61.4005 38.1054 61.465L40.7416 63.0037C40.9353 62.5302 41.1612 62.0891 41.4302 61.691L39.4827 58.2801C39.4397 58.2048 39.4289 58.1079 39.4504 58.0218C39.4719 57.9358 39.5365 57.8604 39.6118 57.8174L43.7221 55.4933C43.8835 55.3964 44.0879 55.461 44.1848 55.6224L46.2292 59.2162C46.7026 59.2162 47.1976 59.2807 47.7033 59.3883L47.7356 56.3863C47.7356 56.268 47.8001 56.1496 47.9077 56.0958C48.0153 56.0312 48.1444 56.042 48.252 56.0958L54.0086 59.4744C54.1162 59.539 54.1808 59.6466 54.1808 59.7757L54.1485 63.1328C54.751 63.7031 55.3321 64.3271 55.8808 64.9835L57.7423 63.9506C57.9037 63.8645 58.1081 63.9183 58.205 64.0797L62.2292 71.1597C62.2722 71.235 62.283 71.3319 62.2615 71.4179C62.2399 71.504 62.1754 71.5793 62.1001 71.6224L60.2386 72.6553C60.5183 73.4516 60.7443 74.2478 60.9272 75.0333L63.628 76.5935C63.7356 76.658 63.8001 76.7656 63.8001 76.8947L63.7786 83.5551C63.7786 83.6735 63.714 83.7918 63.6064 83.8456C63.4988 83.9102 63.3697 83.9102 63.2621 83.8456L60.7873 82.4253C60.5937 82.9633 60.3569 83.4583 60.0772 83.8994L61.8849 87.0521C61.9817 87.2135 61.9171 87.4287 61.7557 87.5148L57.667 89.8604C57.667 89.8604 57.5594 89.9035 57.4948 89.9035L57.5056 89.925ZM52.9541 79.7892C52.2009 79.7892 51.3724 79.5417 50.5224 79.0467C47.628 77.3789 45.2823 73.3009 45.2931 69.9546C45.2931 68.2545 45.8956 66.9848 46.9608 66.3715C48.0368 65.7582 49.4249 65.8766 50.8882 66.7266C53.7826 68.3944 56.1283 72.4724 56.1175 75.8187C56.1175 77.5188 55.515 78.7885 54.4498 79.4126C53.9978 79.6708 53.4921 79.7999 52.9541 79.7999V79.7892ZM48.4565 66.6621C48.0261 66.6621 47.6387 66.7589 47.3052 66.9526C46.4551 67.4475 45.9817 68.5128 45.9709 69.9546C45.9709 73.0857 48.1552 76.8947 50.8559 78.4549C52.1041 79.1758 53.2554 79.2942 54.1054 78.81C54.9555 78.315 55.4289 77.2498 55.4397 75.808C55.4397 72.6768 53.2554 68.8678 50.5547 67.3076C49.8122 66.8773 49.0913 66.6621 48.4565 66.6621Z" fill="white"/>
<path d="M59.6791 72.2034C59.5284 72.2895 59.4746 72.4616 59.5284 72.623C59.8512 73.5269 60.1202 74.4415 60.3139 75.3346C60.3354 75.4314 60.3892 75.5175 60.4753 75.5605L63.133 77.0992L63.1115 82.9741L60.7873 81.6291C60.6905 81.5753 60.5829 81.5645 60.4861 81.6076C60.3892 81.6399 60.3139 81.7259 60.2816 81.8228C60.0664 82.5222 59.7759 83.157 59.4101 83.695C59.3348 83.8026 59.3348 83.9425 59.3993 84.0608L61.1424 87.1059L57.6454 89.118L55.8701 86.0299C55.8055 85.9223 55.6871 85.8578 55.5688 85.8578H55.6118C55.6011 85.8578 55.5903 85.8578 55.5903 85.8578C54.9232 85.89 54.2023 85.804 53.4706 85.6103C53.3738 85.578 53.2662 85.5995 53.1801 85.6641C53.094 85.7286 53.0402 85.8255 53.0294 85.9331V88.4186L47.9615 85.4704V82.4684C47.9615 82.3715 47.9185 82.2855 47.8539 82.2209C47.1115 81.5215 46.4013 80.7468 45.7342 79.8968C45.6266 79.7676 45.4437 79.7246 45.2931 79.8107L43.6576 80.736L39.9561 74.2586L41.6992 73.2686C41.8499 73.1826 41.9037 73.0104 41.8499 72.8598C41.5056 71.8806 41.2473 70.9122 41.0644 69.9653C41.0429 69.8685 40.9891 69.7932 40.903 69.7394L38.2561 68.19L38.2991 62.3366L40.7847 63.7892C40.8707 63.8322 40.9783 63.843 41.0752 63.8107C41.172 63.7784 41.2473 63.7031 41.2796 63.6062C41.5056 62.9714 41.7961 62.4011 42.1512 61.9062C42.2265 61.7986 42.2372 61.6587 42.1727 61.5403L40.2897 58.237L43.8082 56.2572L45.788 59.7219C45.8526 59.8295 45.9709 59.8941 46.0893 59.8941C46.7026 59.8833 47.3374 59.9694 48.0046 60.1415C48.1014 60.1738 48.209 60.1523 48.2951 60.0877C48.3812 60.0232 48.435 59.9263 48.435 59.8187L48.4672 56.9781L53.5459 59.9586L53.5136 63.2727C53.5136 63.3588 53.5567 63.4556 53.6212 63.5202C54.3099 64.1658 54.9662 64.8759 55.5795 65.6291C55.6871 65.7582 55.8701 65.7905 56.0099 65.7152L57.8176 64.7037M57.5056 89.925C57.5056 89.925 57.441 89.925 57.4195 89.9142C57.3334 89.8927 57.2581 89.8282 57.2151 89.7528L55.3751 86.5464C54.8371 86.5464 54.2668 86.4926 53.6858 86.3742V89.0212C53.675 89.1395 53.5997 89.2579 53.5029 89.3117C53.3953 89.3762 53.2662 89.3762 53.1586 89.3117L47.402 85.9654C47.2944 85.9008 47.2298 85.7932 47.2298 85.6641V82.6083C46.5843 81.9734 45.9494 81.2848 45.3469 80.5424L43.6683 81.4892C43.5069 81.5861 43.2917 81.5215 43.2056 81.3601L39.1599 74.2908C39.1169 74.2155 39.1061 74.1187 39.1276 74.0326C39.1491 73.9465 39.2137 73.8712 39.289 73.8282L41.0859 72.806C40.7954 71.9452 40.5695 71.0844 40.3973 70.2451L37.7073 68.6849C37.5997 68.6311 37.5352 68.5128 37.5352 68.3944L37.589 61.7555C37.589 61.6372 37.6535 61.5188 37.7611 61.465C37.8687 61.4005 37.9978 61.4005 38.1054 61.465L40.7416 63.0037C40.9353 62.5302 41.1612 62.0891 41.4302 61.691L39.4827 58.2801C39.4397 58.2048 39.4289 58.1079 39.4504 58.0218C39.4719 57.9358 39.5365 57.8604 39.6118 57.8174L43.7221 55.4933C43.8835 55.3964 44.0879 55.461 44.1848 55.6224L46.2292 59.2162C46.7026 59.2162 47.1976 59.2807 47.7033 59.3883L47.7356 56.3863C47.7356 56.268 47.8001 56.1496 47.9077 56.0958C48.0153 56.0312 48.1444 56.042 48.252 56.0958L54.0086 59.4744C54.1162 59.539 54.1808 59.6466 54.1808 59.7757L54.1485 63.1328C54.751 63.7031 55.3321 64.3271 55.8808 64.9835L57.7423 63.9506C57.9037 63.8645 58.1081 63.9183 58.205 64.0797L62.2292 71.1597C62.2722 71.235 62.283 71.3319 62.2615 71.4179C62.2399 71.504 62.1754 71.5793 62.1001 71.6224L60.2386 72.6553C60.5183 73.4516 60.7443 74.2478 60.9272 75.0333L63.628 76.5935C63.7356 76.658 63.8001 76.7656 63.8001 76.8947L63.7786 83.5551C63.7786 83.6735 63.714 83.7918 63.6064 83.8456C63.4988 83.9102 63.3697 83.9102 63.2621 83.8456L60.7873 82.4253C60.5937 82.9633 60.3569 83.4583 60.0772 83.8994L61.8849 87.0521C61.9817 87.2135 61.9171 87.4287 61.7557 87.5148L57.667 89.8604C57.667 89.8604 57.5594 89.9035 57.4948 89.9035L57.5056 89.925ZM52.9541 79.7892C52.2009 79.7892 51.3724 79.5417 50.5224 79.0467C47.628 77.3789 45.2823 73.3009 45.2931 69.9546C45.2931 68.2545 45.8956 66.9848 46.9608 66.3715C48.0368 65.7582 49.4249 65.8766 50.8882 66.7266C53.7826 68.3944 56.1283 72.4724 56.1175 75.8187C56.1175 77.5188 55.515 78.7885 54.4498 79.4126C53.9978 79.6708 53.4921 79.7999 52.9541 79.7999V79.7892ZM48.4565 66.6621C48.0261 66.6621 47.6387 66.7589 47.3052 66.9526C46.4551 67.4475 45.9817 68.5128 45.9709 69.9546C45.9709 73.0857 48.1552 76.8947 50.8559 78.4549C52.1041 79.1758 53.2554 79.2942 54.1054 78.81C54.9555 78.315 55.4289 77.2498 55.4397 75.808C55.4397 72.6768 53.2554 68.8678 50.5547 67.3076C49.8122 66.8773 49.0913 66.6621 48.4565 66.6621Z" stroke="white" stroke-width="0.269027"/>
<path d="M55.7306 109.207C55.6123 109.207 55.4939 109.142 55.4294 109.035L54.504 107.421C54.2888 107.421 54.0844 107.399 53.8584 107.356V108.572C53.8584 108.691 53.7831 108.809 53.6755 108.863C53.5679 108.927 53.4388 108.927 53.3312 108.863L50.2754 107.087C50.1678 107.023 50.1032 106.915 50.1032 106.786V105.237C49.8019 104.935 49.5114 104.623 49.2209 104.279L48.4462 104.72C48.2848 104.817 48.0696 104.752 47.9835 104.591L45.8423 100.836C45.7992 100.76 45.7885 100.664 45.81 100.578C45.8315 100.491 45.8961 100.416 45.9714 100.373L46.8107 99.8997C46.6815 99.5015 46.5739 99.1034 46.4986 98.7161L45.1321 97.9198C45.0245 97.8553 44.96 97.7477 44.96 97.6185L44.9815 94.0893C44.9815 93.9709 45.046 93.8526 45.1536 93.7988C45.2612 93.7342 45.3904 93.7342 45.498 93.7988L46.7461 94.5197C46.8214 94.3583 46.9075 94.1969 47.0043 94.0463L46.0252 92.3139C45.9822 92.2386 45.9714 92.1418 45.9929 92.0557C46.0144 91.9696 46.079 91.8943 46.1543 91.8512L48.3386 90.6246C48.5 90.5278 48.7044 90.5923 48.8013 90.7537L49.845 92.5829C50.0171 92.5829 50.1893 92.6044 50.3722 92.6367V91.2379C50.383 91.1196 50.4475 91.0012 50.5551 90.9474C50.6627 90.8828 50.7918 90.8936 50.8994 90.9474L53.9553 92.7443C54.0629 92.8089 54.1274 92.9165 54.1274 93.0456L54.1059 94.7564C54.3749 95.0146 54.6439 95.3052 54.9021 95.6064L55.7737 95.1222C55.9351 95.0362 56.1395 95.09 56.2364 95.2514L58.3668 99.0066C58.4099 99.0819 58.4206 99.1787 58.3991 99.2648C58.3776 99.3509 58.313 99.4262 58.2377 99.4693L57.3662 99.9535C57.4845 100.319 57.5921 100.674 57.6782 101.04L59.0555 101.836C59.1631 101.901 59.2276 102.009 59.2276 102.138V105.667C59.2276 105.785 59.1523 105.904 59.0447 105.957C58.9371 106.022 58.808 106.022 58.7004 105.957L57.5491 105.301C57.4737 105.495 57.3769 105.678 57.2801 105.85L58.1947 107.442C58.2377 107.518 58.2485 107.615 58.2269 107.701C58.2054 107.787 58.1409 107.862 58.0655 107.905L55.892 109.153C55.892 109.153 55.7844 109.196 55.7199 109.196L55.7306 109.207ZM53.3097 103.827C52.8793 103.827 52.4166 103.687 51.9324 103.407C50.3507 102.493 49.0703 100.265 49.081 98.4471C49.081 97.4894 49.4253 96.7578 50.0494 96.4027C50.6735 96.0476 51.4697 96.1122 52.2982 96.5964C53.9015 97.5217 55.1604 99.706 55.1496 101.567C55.1496 102.525 54.8053 103.246 54.1812 103.612C53.923 103.762 53.6217 103.838 53.3097 103.838V103.827ZM50.921 96.8654C50.7273 96.8654 50.5444 96.9084 50.383 96.9945C49.9848 97.2204 49.7589 97.7369 49.7589 98.4471C49.7589 100.05 50.8779 102.019 52.2767 102.816C52.89 103.171 53.4388 103.235 53.8477 103.009C54.2458 102.783 54.4717 102.267 54.4717 101.557C54.4717 99.9535 53.3527 97.9844 51.9539 97.1882C51.5881 96.973 51.233 96.8654 50.921 96.8654Z" fill="white"/>
<path d="M73.8609 113.306C73.8609 113.306 73.7963 113.306 73.7748 113.295C73.6887 113.274 73.6134 113.209 73.5704 113.134L72.2684 110.864C71.9241 110.864 71.5583 110.831 71.1924 110.756V112.564C71.1924 112.682 71.1171 112.8 71.0095 112.854C70.9019 112.919 70.7728 112.919 70.6652 112.854L66.4903 110.433C66.3827 110.369 66.3182 110.261 66.3182 110.132V107.958C65.877 107.528 65.4359 107.055 65.027 106.538L63.8864 107.184C63.725 107.281 63.5098 107.216 63.4238 107.055L60.4971 101.933C60.454 101.858 60.4433 101.761 60.4648 101.675C60.4863 101.589 60.5509 101.513 60.6262 101.47L61.8636 100.771C61.6699 100.179 61.5085 99.598 61.3901 99.017L59.4856 97.9087C59.378 97.8441 59.3135 97.7365 59.3135 97.6074L59.3458 92.7977C59.3458 92.6794 59.4103 92.561 59.5179 92.5072C59.6255 92.4426 59.7546 92.4426 59.8622 92.5072L61.6807 93.5724C61.8098 93.2819 61.9497 93.0022 62.1111 92.7547L60.7338 90.3337C60.6907 90.2584 60.68 90.1615 60.7015 90.0755C60.723 89.9894 60.7876 89.9141 60.8629 89.871L63.8434 88.1925C64.0048 88.0956 64.2092 88.1602 64.3061 88.3216L65.7587 90.8825C66.0599 90.8825 66.3612 90.9255 66.6733 90.9901L66.6948 88.9241C66.6948 88.8058 66.7593 88.6874 66.8669 88.6336C66.9745 88.5691 67.1037 88.5798 67.2113 88.6336L71.3861 91.0761C71.4937 91.1407 71.5583 91.2483 71.5583 91.3774L71.5367 93.7661C71.9456 94.1535 72.333 94.5731 72.7203 95.025L74.0008 94.3149C74.1622 94.2288 74.3666 94.2826 74.4634 94.444L77.3794 99.5765C77.4224 99.6518 77.4332 99.7486 77.4117 99.8347C77.3901 99.9208 77.3256 99.9961 77.2503 100.039L75.9698 100.749C76.1528 101.287 76.3142 101.836 76.4325 102.363L78.3585 103.472C78.4661 103.536 78.5307 103.644 78.5307 103.773V108.604C78.5199 108.722 78.4554 108.841 78.3478 108.895C78.2402 108.959 78.1111 108.959 78.0035 108.895L76.3142 107.915C76.185 108.249 76.0344 108.561 75.8622 108.852L77.1427 111.09C77.1857 111.165 77.1965 111.262 77.1749 111.348C77.1534 111.434 77.0889 111.509 77.0135 111.552L74.0438 113.252C74.0438 113.252 73.9362 113.295 73.8717 113.295L73.8609 113.306ZM70.5576 105.968C69.9981 105.968 69.374 105.785 68.7499 105.419C66.6302 104.192 64.9086 101.201 64.9194 98.748C64.9194 97.489 65.3713 96.5314 66.1783 96.0687C66.9853 95.6061 68.029 95.6921 69.1158 96.327C71.2355 97.5536 72.9571 100.545 72.9463 102.998C72.9463 104.257 72.4944 105.215 71.6874 105.677C71.3431 105.871 70.9665 105.968 70.5576 105.968ZM69.0835 104.827C69.955 105.333 70.7513 105.419 71.3431 105.086C71.9349 104.752 72.2577 104.01 72.2577 102.998C72.2577 100.76 70.6975 98.0378 68.7607 96.9188C67.8891 96.4131 67.0821 96.327 66.5011 96.6605C65.9093 96.9941 65.5865 97.7365 65.5865 98.748C65.5865 100.986 67.1467 103.708 69.0835 104.827Z" fill="white"/>
<ellipse cx="5.81026" cy="5.81026" rx="5.81026" ry="5.81026" transform="matrix(0.866077 0.499911 -0.000102543 1 45.7822 64.7939)" fill="#3D0F9A"/>
<ellipse cx="4.30986" cy="4.30986" rx="4.30986" ry="4.30986" transform="matrix(0.866077 0.499911 -0.000102543 1 65.1504 94.3555)" fill="#3D0F9A"/>
<ellipse cx="3.42448" cy="3.42448" rx="3.42448" ry="3.42448" transform="matrix(0.866077 0.499911 -0.000102543 1 49.3389 94.9336)" fill="#3D0F9A"/>
<path d="M17.5539 110.216C18.7534 109.518 20.4272 109.602 22.2684 110.634C22.2684 110.634 22.3242 110.662 22.352 110.69L45.3664 123.969C49.1045 126.117 52.1172 131.389 52.1172 135.657L52.0336 162.103C52.0336 164.223 51.2804 165.729 50.0529 166.427L39.9545 172.285C41.182 171.587 41.9351 170.081 41.9351 167.961L42.0188 141.515C42.0188 137.247 38.9782 131.975 35.268 129.827L12.2815 116.52C10.4125 115.432 8.71083 115.349 7.4834 116.046L17.5818 110.188L17.5539 110.216Z" fill="#FF5A00" stroke="#3D0F9A"/>
<path d="M35.2953 129.8C39.0334 131.948 42.0462 137.22 42.0462 141.488L41.9625 167.934C41.9625 172.202 38.8939 173.959 35.1558 171.811L12.1415 158.533C8.40341 156.385 5.39062 151.112 5.39062 146.844L5.47431 120.399C5.47431 116.13 8.54289 114.373 12.281 116.521L35.2953 129.8Z" fill="#FF5A00" stroke="#3D0F9A"/>
<path d="M19.3111 150.247C19.3111 148.461 20.5385 147.764 22.0728 148.629C23.6071 149.521 24.8624 151.669 24.8624 153.427C24.8624 154.598 24.3324 155.296 23.5234 155.407V160.457L20.678 158.811V153.761C19.8411 152.729 19.3111 151.418 19.2832 150.247H19.3111Z" fill="white"/>
<path d="M23.5512 160.875C23.5512 160.875 23.4118 160.875 23.356 160.819L20.4827 159.174C20.4827 159.174 20.2874 158.95 20.2874 158.811V153.901C19.4226 152.785 18.9205 151.418 18.8926 150.247C18.8926 149.243 19.2552 148.461 19.8968 148.071C20.5663 147.68 21.4032 147.764 22.268 148.266C23.9418 149.215 25.2808 151.502 25.2808 153.427C25.2808 154.599 24.7787 155.463 23.9418 155.742V160.457C23.9418 160.596 23.886 160.736 23.7465 160.819C23.6907 160.847 23.607 160.875 23.5512 160.875ZM21.0964 158.588L23.1328 159.759V155.436C23.1328 155.212 23.2723 155.045 23.4954 155.017C24.1092 154.933 24.4718 154.348 24.4718 153.455C24.4718 151.809 23.3002 149.828 21.8775 149.019C21.2638 148.657 20.7058 148.601 20.3153 148.824C19.9247 149.047 19.7016 149.577 19.7016 150.275C19.7016 151.307 20.2037 152.562 20.9848 153.539C21.0406 153.622 21.0685 153.706 21.0685 153.79V158.588H21.0964Z" fill="white"/>
<path d="M14.9034 102.517L14.9592 114.456C14.9592 114.875 15.2382 115.293 15.7682 115.6C16.8562 116.241 18.6136 116.214 19.7016 115.6C20.2316 115.293 20.5106 114.875 20.5106 114.456L20.4548 102.544C20.4548 100.452 21.0406 98.9179 22.0449 98.3321C23.077 97.7463 24.695 97.9973 26.5082 99.0295L29.5768 100.787C34.375 103.549 38.4757 110.551 38.4757 116.074L38.5315 128.014C38.5315 128.432 38.8105 128.85 39.3405 129.157C40.0379 129.548 41.0142 129.715 41.9069 129.576C42.4091 129.52 42.8833 129.353 43.2738 129.129C43.4133 129.046 43.5528 128.962 43.6644 128.85C43.9433 128.572 44.1107 128.265 44.0828 127.986L44.027 116.074C44.027 112.448 42.7996 108.375 40.5958 104.609C38.392 100.843 35.4629 97.7742 32.3106 95.9888L29.2421 94.2314C27.5125 93.2271 25.7829 92.6692 24.1092 92.5297C22.3238 92.3902 20.6501 92.7529 19.2274 93.5619C17.8046 94.3987 16.6609 95.682 15.9077 97.2999C15.2103 98.8342 14.8477 100.62 14.8477 102.6L14.9034 102.517Z" fill="white" stroke="#3D0F9A"/>
<path d="M197.443 174.061C196.543 174.061 195.814 173.65 195.814 173.143C195.814 172.636 196.543 172.225 197.443 172.225C198.344 172.225 199.073 172.636 199.073 173.143C199.073 173.65 198.344 174.061 197.443 174.061Z" fill="#3D0F9A"/>
<path d="M193.726 171.958C192.826 171.958 192.096 171.547 192.096 171.039C192.096 170.532 192.826 170.121 193.726 170.121C194.626 170.121 195.355 170.532 195.355 171.039C195.355 171.547 194.626 171.958 193.726 171.958Z" fill="#3D0F9A"/>
<path d="M190.008 169.837C189.108 169.837 188.378 169.426 188.378 168.918C188.378 168.411 189.108 168 190.008 168C190.908 168 191.638 168.411 191.638 168.918C191.638 169.426 190.908 169.837 190.008 169.837Z" fill="#3D0F9A"/>
<path d="M192.979 176.6C192.079 176.6 191.349 176.189 191.349 175.682C191.349 175.174 192.079 174.763 192.979 174.763C193.879 174.763 194.608 175.174 194.608 175.682C194.608 176.189 193.879 176.6 192.979 176.6Z" fill="#3D0F9A"/>
<path d="M189.261 174.478C188.361 174.478 187.631 174.067 187.631 173.56C187.631 173.053 188.361 172.642 189.261 172.642C190.161 172.642 190.891 173.053 190.891 173.56C190.891 174.067 190.161 174.478 189.261 174.478Z" fill="#3D0F9A"/>
<path d="M185.543 172.375C184.643 172.375 183.913 171.964 183.913 171.456C183.913 170.949 184.643 170.538 185.543 170.538C186.443 170.538 187.173 170.949 187.173 171.456C187.173 171.964 186.443 172.375 185.543 172.375Z" fill="#3D0F9A"/>
<path d="M188.531 179.121C187.631 179.121 186.902 178.71 186.902 178.203C186.902 177.695 187.631 177.284 188.531 177.284C189.431 177.284 190.161 177.695 190.161 178.203C190.161 178.71 189.431 179.121 188.531 179.121Z" fill="#3D0F9A"/>
<path d="M184.813 177.017C183.913 177.017 183.183 176.606 183.183 176.099C183.183 175.591 183.913 175.18 184.813 175.18C185.713 175.18 186.442 175.591 186.442 176.099C186.442 176.606 185.713 177.017 184.813 177.017Z" fill="#3D0F9A"/>
<path d="M181.095 174.896C180.195 174.896 179.465 174.485 179.465 173.978C179.465 173.471 180.195 173.06 181.095 173.06C181.995 173.06 182.725 173.471 182.725 173.978C182.725 174.485 181.995 174.896 181.095 174.896Z" fill="#3D0F9A"/>
<path d="M184.066 181.66C183.165 181.66 182.436 181.248 182.436 180.741C182.436 180.234 183.165 179.823 184.066 179.823C184.966 179.823 185.695 180.234 185.695 180.741C185.695 181.248 184.966 181.66 184.066 181.66Z" fill="#3D0F9A"/>
<path d="M180.348 179.538C179.448 179.538 178.718 179.127 178.718 178.62C178.718 178.113 179.448 177.702 180.348 177.702C181.248 177.702 181.978 178.113 181.978 178.62C181.978 179.127 181.248 179.538 180.348 179.538Z" fill="#3D0F9A"/>
<path d="M176.63 177.434C175.73 177.434 175 177.023 175 176.516C175 176.008 175.73 175.597 176.63 175.597C177.53 175.597 178.26 176.008 178.26 176.516C178.26 177.023 177.53 177.434 176.63 177.434Z" fill="#3D0F9A"/>
<path d="M221.443 160.061C220.543 160.061 219.814 159.65 219.814 159.143C219.814 158.636 220.543 158.225 221.443 158.225C222.344 158.225 223.073 158.636 223.073 159.143C223.073 159.65 222.344 160.061 221.443 160.061Z" fill="#3D0F9A"/>
<path d="M217.726 157.958C216.826 157.958 216.096 157.547 216.096 157.039C216.096 156.532 216.826 156.121 217.726 156.121C218.626 156.121 219.355 156.532 219.355 157.039C219.355 157.547 218.626 157.958 217.726 157.958Z" fill="#3D0F9A"/>
<path d="M214.008 155.837C213.108 155.837 212.378 155.426 212.378 154.918C212.378 154.411 213.108 154 214.008 154C214.908 154 215.638 154.411 215.638 154.918C215.638 155.426 214.908 155.837 214.008 155.837Z" fill="#3D0F9A"/>
<path d="M216.979 162.6C216.079 162.6 215.349 162.189 215.349 161.682C215.349 161.174 216.079 160.763 216.979 160.763C217.879 160.763 218.608 161.174 218.608 161.682C218.608 162.189 217.879 162.6 216.979 162.6Z" fill="#3D0F9A"/>
<path d="M213.261 160.478C212.361 160.478 211.631 160.067 211.631 159.56C211.631 159.053 212.361 158.642 213.261 158.642C214.161 158.642 214.891 159.053 214.891 159.56C214.891 160.067 214.161 160.478 213.261 160.478Z" fill="#3D0F9A"/>
<path d="M209.543 158.375C208.643 158.375 207.913 157.964 207.913 157.456C207.913 156.949 208.643 156.538 209.543 156.538C210.443 156.538 211.173 156.949 211.173 157.456C211.173 157.964 210.443 158.375 209.543 158.375Z" fill="#3D0F9A"/>
<path d="M212.531 165.121C211.631 165.121 210.902 164.71 210.902 164.203C210.902 163.695 211.631 163.284 212.531 163.284C213.431 163.284 214.161 163.695 214.161 164.203C214.161 164.71 213.431 165.121 212.531 165.121Z" fill="#3D0F9A"/>
<path d="M208.813 163.017C207.913 163.017 207.183 162.606 207.183 162.099C207.183 161.591 207.913 161.18 208.813 161.18C209.713 161.18 210.442 161.591 210.442 162.099C210.442 162.606 209.713 163.017 208.813 163.017Z" fill="#3D0F9A"/>
<path d="M205.095 160.896C204.195 160.896 203.465 160.485 203.465 159.978C203.465 159.471 204.195 159.06 205.095 159.06C205.995 159.06 206.725 159.471 206.725 159.978C206.725 160.485 205.995 160.896 205.095 160.896Z" fill="#3D0F9A"/>
<path d="M208.066 167.66C207.165 167.66 206.436 167.248 206.436 166.741C206.436 166.234 207.165 165.823 208.066 165.823C208.966 165.823 209.695 166.234 209.695 166.741C209.695 167.248 208.966 167.66 208.066 167.66Z" fill="#3D0F9A"/>
<path d="M204.348 165.538C203.448 165.538 202.718 165.127 202.718 164.62C202.718 164.113 203.448 163.702 204.348 163.702C205.248 163.702 205.978 164.113 205.978 164.62C205.978 165.127 205.248 165.538 204.348 165.538Z" fill="#3D0F9A"/>
<path d="M200.63 163.434C199.73 163.434 199 163.023 199 162.516C199 162.008 199.73 161.597 200.63 161.597C201.53 161.597 202.26 162.008 202.26 162.516C202.26 163.023 201.53 163.434 200.63 163.434Z" fill="#3D0F9A"/>
</svg>
