<svg width="40" height="40" viewBox="0 0 40 40" fill="none" xmlns="http://www.w3.org/2000/svg">
<path d="M3.33301 12.9801C3.33301 7.71338 5.08301 5.96338 10.3497 5.96338H20.883C26.1497 5.96338 27.8997 7.71338 27.8997 12.9801V27.0133C27.8997 32.28 26.1497 34.03 20.883 34.03H10.3497C5.08301 34.03 3.33301 30.53 3.33301 27.0133V20.1967" stroke="#3D0F9A" stroke-width="2" stroke-linecap="round" stroke-linejoin="round"/>
<path d="M32.5308 28.5002L27.8975 25.2502V14.7336L32.5308 11.4836C34.7975 9.90022 36.6641 10.8669 36.6641 13.6502V26.3502C36.6641 29.1335 34.7975 30.1002 32.5308 28.5002Z" stroke="#3D0F9A" stroke-width="2" stroke-linecap="round" stroke-linejoin="round"/>
<path d="M21.667 15.8335C21.667 14.4502 20.5503 13.3335 19.167 13.3335C17.7837 13.3335 16.667 14.4502 16.667 15.8335C16.667 17.2168 17.7837 18.3335 19.167 18.3335" stroke="#FF5A00" stroke-width="2" stroke-linecap="round" stroke-linejoin="round"/>
</svg>
