<svg width="40" height="40" viewBox="0 0 40 40" fill="none" xmlns="http://www.w3.org/2000/svg">
<path d="M3.33301 17.9833C3.33301 13.1 5.58302 10.45 10.0664 10.0667C10.4664 10.0167 10.883 10 11.3164 10H21.983C27.2997 10 29.9663 12.6667 29.9663 17.9833V24.65C29.9663 25.0833 29.9497 25.5 29.8997 25.9C29.5163 30.4 26.8663 32.6333 21.983 32.6333H21.3163C20.8997 32.6333 20.4997 32.8333 20.2497 33.1667L18.2497 35.8333C17.3663 37.0167 15.933 37.0167 15.0497 35.8333L13.0497 33.1667C12.833 32.8833 12.3497 32.6333 11.983 32.6333H11.3164C5.99969 32.6333 3.33301 31.3167 3.33301 24.65" stroke="#3D0F9A" stroke-width="2" stroke-miterlimit="10" stroke-linecap="round" stroke-linejoin="round"/>
<path d="M36.6322 11.3168C36.6322 6.00018 33.9655 3.3335 28.6488 3.3335H17.9822C13.0988 3.3335 10.4488 5.58351 10.0654 10.0668C10.4654 10.0168 10.8821 10.0002 11.3154 10.0002H21.9822C27.2988 10.0002 29.9655 12.6668 29.9655 17.9835V24.6502C29.9655 25.0835 29.9488 25.5002 29.8988 25.9002C34.3822 25.5168 36.6322 22.8835 36.6322 17.9835" stroke="#3D0F9A" stroke-width="2" stroke-miterlimit="10" stroke-linecap="round" stroke-linejoin="round"/>
<path d="M22.4922 22.0835H22.5072" stroke="#FF5A00" stroke-width="3" stroke-linecap="round" stroke-linejoin="round"/>
<path d="M16.6582 22.0835H16.6732" stroke="#FF5A00" stroke-width="3" stroke-linecap="round" stroke-linejoin="round"/>
<path d="M10.8252 22.0835H10.8402" stroke="#FF5A00" stroke-width="3" stroke-linecap="round" stroke-linejoin="round"/>
</svg>
