<svg width="16" height="16" viewBox="0 1 29.242237 27.5" fill="none" xmlns="http://www.w3.org/2000/svg">
  <style>
    <![CDATA[#ivelum-logo {animation: loadingAnimation 500ms linear infinite normal forwards;}@keyframes loadingAnimation {0% {transform: translate(0px,2px);animation-timing-function: cubic-bezier(0,0,0,0.995);}50% {transform: translate(0px,0px);animation-timing-function: cubic-bezier(1,0,1,1.005);}100% {transform: translate(0px,2px);}}]]>
  </style>
  <path id="ivelum-logo" fill-rule="evenodd" clip-rule="evenodd" d="M14.0553 18.5251L14.0625 18.5041C14.8075 15.8958 15.4703 13.5753 16.0634 11.4981C16.5976 9.6278 17.0822 7.93551 17.5219 6.39511C17.9143 4.98588 16.7466 4.24358 15.0847 4.59527C14.149 4.79373 13.2602 4.98273 12.4156 5.16274C11.102 5.43928 9.65339 6.53056 9.0506 7.68666C7.69804 10.2592 6.12175 13.2572 4.26286 16.7921C4.21056 16.8924 4.16323 16.9912 4.11839 17.0902C3.21895 15.8391 2.96896 14.1995 3.3829 12.3693C4.17546 8.86322 7.47997 5.07521 11.2947 2.88453C11.4382 2.80241 11.5818 2.72275 11.7254 2.64535C11.4552 3.61469 12.2897 4.14728 13.9448 3.74699C15.7744 3.30147 17.7522 1.93905 18.4968 0.655605C20.4637 0.591928 22.3314 1.06354 23.6079 2.27229C25.4466 4.01655 25.6554 6.84085 24.0761 10.0087C22.2942 13.5753 18.6 16.8971 14.0553 18.5251M10.5268 3.0909C8.23724 4.4126 6.19946 6.11793 4.58468 7.95445C2.85237 9.9235 1.38116 12.3032 0.599698 14.823C-0.362921 17.9351 -0.188785 20.9597 1.28266 23.2937C2.18255 24.7189 3.56092 25.8763 5.4189 26.5622C7.533 27.3418 10.193 27.4899 13.246 26.7374C20.182 25.0317 25.8422 19.845 28.1997 14.0018C29.2269 11.4486 29.4826 9.01626 29.0217 6.91581C28.6171 5.0775 27.6767 3.55734 26.2888 2.43005C24.0449 0.613338 20.978 0.127996 18.0242 0.484408C15.5707 0.781419 12.9684 1.68303 10.5268 3.0909" fill="currentColor" />
</svg>
