<svg width="440" height="190" viewBox="0 0 440 190" fill="none" xmlns="http://www.w3.org/2000/svg">
<rect width="75.6205" height="4.62983" rx="2.31491" transform="matrix(-0.866084 0.499899 0.000116937 1 95.9453 34.8154)" fill="#3D0F9A"/>
<rect width="75.6205" height="4.62983" rx="2.31491" transform="matrix(-0.866084 0.499899 0.000116937 1 95.9453 26.9092)" fill="#3D0F9A"/>
<rect width="75.6205" height="4.62983" rx="2.31491" transform="matrix(-0.866084 0.499899 0.000116964 1 95.9463 42.5317)" fill="#3D0F9A"/>
<rect width="75.6205" height="4.62983" rx="2.31491" transform="matrix(-0.866084 0.499899 0.000116964 1 95.9473 50.248)" fill="#3D0F9A"/>
<rect width="46.8127" height="4.62983" rx="2.31491" transform="matrix(-0.866084 0.499899 0.000116964 1 95.9482 57.9648)" fill="#3D0F9A"/>
<rect width="69.0199" height="100.605" rx="3.58545" transform="matrix(-0.000110185 -1 -0.866081 0.499904 106.14 73.02)" stroke="#3D0F9A" stroke-dasharray="1.43 1.43"/>
<path d="M250 107.12V71H251.056V105.287L384.5 26.5L385.5 27L250 107.12Z" fill="#3D0F9A"/>
<path d="M12.5183 142.744L53.5187 118.471C56.8357 116.51 60.9235 116.51 64.2456 118.471L105.292 142.77C108.903 144.908 108.903 150.26 105.292 152.398L64.5397 176.526C61.238 178.482 57.1704 178.492 53.8636 176.552L12.943 151.707C9.30651 149.58 8.89699 144.893 12.5183 142.744Z" fill="#3D0F9A"/>
<path d="M161.72 87.3293L71.5 139.426V56.9628L161.72 4.8661V87.3293Z" fill="white" stroke="#3D0F9A" stroke-linejoin="round"/>
<path d="M102.16 103.762L97.5398 101.049L86.6611 93.0181L91.2812 95.7042L102.16 103.762Z" fill="#3D0F9A"/>
<path d="M91.2812 95.7034L86.6611 93.0173L97.4592 72.4419L102.079 75.128L91.2812 95.7034Z" fill="#3D0F9A" stroke="#3D0F9A" stroke-linejoin="round"/>
<path d="M102.079 75.1279L104.604 77.0888L96.358 92.7755L104.658 98.9535L102.16 103.762L91.2812 95.7034L102.079 75.1279Z" fill="white" stroke="#3D0F9A" stroke-linejoin="round"/>
<path d="M127.166 50.2017L122.52 47.5156L125.797 47.7574L130.417 50.4435L127.166 50.2017Z" fill="#3D0F9A" stroke="#3D0F9A" stroke-linejoin="round"/>
<path d="M111.077 102.634L106.43 99.9481L122.519 47.5156L127.166 50.2017L111.077 102.634Z" fill="#3D0F9A" stroke="#3D0F9A" stroke-linejoin="round"/>
<path d="M127.166 50.2017L130.416 50.4434L114.326 102.903L111.076 102.634L127.166 50.2017Z" fill="white" stroke="#3D0F9A" stroke-linejoin="round"/>
<path d="M139.173 82.3818L134.526 79.6957L132.001 77.8154L136.621 80.5015L139.173 82.3818Z" fill="#3D0F9A"/>
<path d="M136.621 80.5008L132.001 77.8147L140.274 62.0474L144.894 64.7603L136.621 80.5008Z" fill="#3D0F9A" stroke="#3D0F9A"/>
<path d="M144.894 64.7596L140.274 62.0466L131.947 55.9224L136.567 58.6353L144.894 64.7596Z" fill="#3D0F9A"/>
<path d="M136.567 58.6358L131.947 55.9228L134.445 51.0879L139.092 53.774L136.567 58.6358Z" fill="white" stroke="#3D0F9A" stroke-linejoin="round"/>
<path d="M139.092 53.7739L149.971 61.8322L139.173 82.3808L136.621 80.5005L144.894 64.76L136.567 58.6357L139.092 53.7739Z" fill="white" stroke="#3D0F9A" stroke-linejoin="round"/>
<path d="M341.448 153L279.831 117.095L258.93 129.116L237 116.785V71H238.094V116.148L258.924 127.863L279.831 115.837L342 152.063L341.448 153Z" fill="#3D0F9A"/>
<path d="M225.496 122.038L159 83.4164L159.576 82.4262L224.345 120.035V75H225.496V122.038Z" fill="#3D0F9A"/>
<path d="M239.458 176.441L211 160.506L232.422 148.136L211.56 136.09V89H212.659V135.459L234.619 148.136L213.225 160.489L239.997 175.485L239.458 176.441Z" fill="#3D0F9A"/>
<path d="M189.783 148.833L151.515 126.125L112.494 148.374L112 147.506L151.53 124.972L188.785 147.082V107.841H189.783V148.833Z" fill="#3D0F9A"/>
<path d="M239 165.431C239 168.765 241.201 172.083 245.604 174.624C254.409 179.707 268.668 179.707 277.457 174.624C281.859 172.083 284.06 168.749 284.06 165.431V174.851C284.06 178.185 281.859 181.503 277.457 184.044C268.652 189.127 254.392 189.127 245.604 184.044C241.201 181.503 239 178.169 239 174.851V165.431Z" fill="#3D0F9A"/>
<path d="M239 164.476C239 167.81 241.201 171.128 245.604 173.669C254.409 178.752 268.668 178.752 277.457 173.669C281.859 171.128 284.06 167.794 284.06 164.476V173.896C284.06 177.23 281.859 180.548 277.457 183.089C268.652 188.172 254.392 188.172 245.604 183.089C241.201 180.548 239 177.214 239 173.896V164.476Z" fill="#3D0F9A"/>
<path d="M277.285 155.58L277.285 155.58C281.625 158.085 283.717 161.324 283.717 164.477C283.717 167.629 281.625 170.868 277.285 173.373C272.947 175.877 267.244 177.139 261.524 177.139C255.804 177.139 250.105 175.877 245.775 173.373L245.775 173.373C241.435 170.868 239.343 167.629 239.343 164.477C239.343 161.309 241.435 158.086 245.775 155.58C250.113 153.076 255.816 151.814 261.536 151.814C267.256 151.814 272.955 153.076 277.285 155.58Z" fill="white" stroke="#3D0F9A" stroke-width="0.685543"/>
<path d="M244.665 177.328C244.665 177.991 244.211 178.25 243.629 177.926C243.062 177.603 242.593 176.794 242.593 176.146C242.593 175.499 243.046 175.224 243.629 175.547C244.195 175.871 244.665 176.68 244.665 177.328Z" fill="#F6F6F6"/>
<path d="M247.691 179.804C247.691 180.468 247.221 180.727 246.655 180.403C246.089 180.079 245.619 179.27 245.619 178.623C245.619 177.975 246.072 177.7 246.655 178.024C247.238 178.347 247.691 179.157 247.691 179.804Z" fill="#F6F6F6"/>
<path d="M250.718 181.18C250.718 181.843 250.265 182.102 249.682 181.779C249.116 181.455 248.646 180.646 248.646 179.998C248.646 179.351 249.116 179.076 249.682 179.399C250.249 179.723 250.718 180.532 250.718 181.18Z" fill="#FF5A00"/>
<path d="M239 152.191C239 155.526 241.201 158.844 245.604 161.385C254.409 166.467 268.668 166.467 277.457 161.385C281.859 158.844 284.06 155.509 284.06 152.191V161.611C284.06 164.946 281.859 168.264 277.457 170.805C268.652 175.887 254.392 175.887 245.604 170.805C241.201 168.264 239 164.929 239 161.611V152.191Z" fill="#3D0F9A"/>
<path d="M239 151.236C239 154.571 241.201 157.889 245.604 160.43C254.409 165.512 268.668 165.512 277.457 160.43C281.859 157.889 284.06 154.554 284.06 151.236V160.656C284.06 163.99 281.859 167.308 277.457 169.85C268.652 174.932 254.392 174.932 245.604 169.85C241.201 167.308 239 163.974 239 160.656V151.236Z" fill="#3D0F9A"/>
<path d="M239 151.236C239 147.902 241.201 144.584 245.604 142.043C254.409 136.961 268.668 136.961 277.457 142.043C281.859 144.584 284.06 147.918 284.06 151.236C284.06 154.554 281.859 157.889 277.457 160.43C268.652 165.512 254.392 165.512 245.604 160.43C241.201 157.889 239 154.554 239 151.236Z" fill="white" stroke="#3D0F9A"/>
<path d="M244.665 164.088C244.665 164.751 244.211 165.01 243.629 164.687C243.062 164.363 242.593 163.554 242.593 162.906C242.593 162.259 243.046 161.984 243.629 162.307C244.195 162.631 244.665 163.44 244.665 164.088Z" fill="#F6F6F6"/>
<path d="M247.691 166.564C247.691 167.228 247.221 167.487 246.655 167.163C246.089 166.84 245.619 166.03 245.619 165.383C245.619 164.735 246.072 164.46 246.655 164.784C247.238 165.108 247.691 165.917 247.691 166.564Z" fill="#F6F6F6"/>
<path d="M250.718 167.94C250.718 168.604 250.265 168.862 249.682 168.539C249.116 168.215 248.646 167.406 248.646 166.758C248.646 166.111 249.116 165.836 249.682 166.16C250.249 166.483 250.718 167.293 250.718 167.94Z" fill="#FF5A00"/>
<path d="M135.006 131.137L117.369 141.434L99.584 131.137L117.246 120.841L135.006 131.137Z" fill="white" stroke="#3D0F9A" stroke-linejoin="round"/>
<path d="M117.294 161.238L134.956 150.941L135.005 131.137L117.368 141.433L117.294 161.238Z" fill="#3D0F9A" stroke="#3D0F9A" stroke-linejoin="round"/>
<path d="M99.5834 131.137L99.5342 150.941L117.294 161.238L117.368 141.433L99.5834 131.137Z" fill="white" stroke="#3D0F9A" stroke-linejoin="round"/>
<path d="M117.295 150.03C117.122 150.03 116.975 149.883 116.975 149.71V146.385C116.975 146.212 117.122 146.064 117.295 146.064C117.467 146.064 117.615 146.212 117.615 146.385V149.71C117.615 149.883 117.467 150.03 117.295 150.03ZM117.295 145.399C117.122 145.399 116.975 145.252 116.975 145.079V144.414C116.975 144.242 117.122 144.094 117.295 144.094C117.467 144.094 117.615 144.242 117.615 144.414V145.079C117.615 145.252 117.467 145.399 117.295 145.399ZM117.295 143.404C117.122 143.404 116.975 143.256 116.975 143.084V142.641C116.975 142.468 117.122 142.32 117.295 142.32C117.467 142.32 117.615 142.468 117.615 142.641V143.084C117.615 143.256 117.467 143.404 117.295 143.404Z" fill="#3D0F9A"/>
<path d="M117.295 161.559C117.122 161.559 116.975 161.411 116.975 161.238V151.311C116.975 151.139 117.122 150.991 117.295 150.991C117.467 150.991 117.615 151.139 117.615 151.311V161.238C117.615 161.411 117.467 161.559 117.295 161.559Z" fill="#3D0F9A"/>
<path d="M127.295 144.168L127.246 160.45L141.435 168.678L141.459 152.395L127.295 144.168Z" fill="#FF5A00" stroke="#3D0F9A" stroke-linejoin="round"/>
<path d="M137.69 158.972L123.6 167.2L109.437 158.972L123.526 150.745L137.69 158.972Z" fill="white" stroke="#3D0F9A" stroke-linejoin="round"/>
<path d="M123.575 183.482L137.665 175.255L137.69 158.973L123.6 167.2L123.575 183.482Z" fill="#3D0F9A" stroke="#3D0F9A" stroke-linejoin="round"/>
<path d="M109.436 158.973L109.387 175.255L123.575 183.482L123.6 167.2L109.436 158.973Z" fill="white" stroke="#3D0F9A" stroke-linejoin="round"/>
<path d="M278.706 28.7381L270.635 24.0706V24.0933C267.754 22.215 263.542 22.3971 258.841 25.1065L255.903 26.8028C255.903 24.5829 255.346 22.5451 254.389 20.7919H258.01L250.166 16.2724C246.466 13.8931 241.548 13.4263 237.188 15.9081L230.243 19.8584C230.027 16.1586 229.151 13.0393 227.762 10.5689H231.541L222.923 5.594C218.438 3.06671 212.291 3.45377 205.483 7.38132C191.753 15.3047 180.631 34.5668 180.631 50.425V53.2369L172.332 58.0297C163.202 63.3006 157.578 73.0455 157.578 83.5759C148.903 88.5849 141.856 100.277 141.856 109.68C141.856 114.29 143.564 117.489 146.308 118.969L154.846 123.91L155.21 118.787C155.984 118.468 156.77 118.104 157.567 117.637L258.829 59.1681C267.504 54.1591 274.551 42.4675 274.551 33.0641C274.551 31.4476 274.335 30.0131 273.936 28.7495H278.706V28.7381Z" fill="#3D0F9A"/>
<path d="M267.754 30.252L264.817 31.9482C264.817 22.34 254.446 16.3063 246.102 21.0536L239.157 25.0039C238.292 10.5573 227.545 4.9335 214.385 12.5268C200.656 20.4502 189.533 39.7123 189.533 55.5705V58.3824L181.234 63.1751C172.104 68.446 166.48 78.1909 166.48 88.7213C157.806 93.7304 150.759 105.422 150.759 114.825C150.759 124.229 157.794 127.792 166.48 122.772L267.743 64.3022C276.418 59.2931 283.465 47.6015 283.465 38.1982C283.465 28.7948 276.429 25.2316 267.754 30.252Z" fill="white" stroke="#3D0F9A"/>
<path d="M155.549 144.168L141.459 152.395L127.295 144.168L141.385 135.94L155.549 144.168Z" fill="#FF5A00" stroke="#3D0F9A" stroke-linejoin="round"/>
<path d="M141.434 168.678L155.524 160.45L155.548 144.168L141.458 152.395L141.434 168.678Z" fill="#FF5A00" stroke="#3D0F9A" stroke-linejoin="round"/>
<path d="M342.043 146.564C342.043 147.032 342.341 147.5 342.958 147.84L375.809 166.947C376.447 167.309 377.277 167.5 378.107 167.479C378.894 167.479 379.681 167.287 380.277 166.947L435.022 135.245C435.639 134.883 435.958 134.415 435.958 133.947L435.915 149.883C435.915 150.351 435.596 150.819 434.979 151.181L380.234 182.883C379.639 183.223 378.851 183.415 378.064 183.415C377.234 183.415 376.405 183.245 375.766 182.883L342.915 163.777C342.298 163.415 342 162.947 342 162.5L342.043 146.564Z" fill="white" stroke="#3D0F9A"/>
<path d="M342.979 145.266C341.745 145.99 341.745 147.139 342.979 147.862L375.83 166.969C377.064 167.692 379.064 167.692 380.298 166.969L435.043 135.266C436.277 134.543 436.277 133.394 435.043 132.671L380.511 126.181C379.277 125.458 377.277 125.458 376.043 126.181L342.958 145.288L342.979 145.266Z" fill="white" stroke="#3D0F9A"/>
<path d="M358.851 159.819L374.617 168.904V171.33L358.851 162.224V159.819Z" fill="#3D0F9A"/>
<path d="M358.851 163.628L374.617 172.713V175.139L358.851 166.032V163.628Z" fill="#3D0F9A"/>
<path d="M358.851 167.437L374.617 176.522V178.947L358.851 169.841V167.437Z" fill="#3D0F9A"/>
<path d="M355.957 158.182V168.224L344.255 161.458V151.416L355.957 158.182Z" fill="#3D0F9A"/>
<path d="M356.256 168.713V158.032L343.979 150.947V161.628L356.256 168.713ZM355.681 158.352V167.713L344.554 161.288V151.926L355.681 158.352Z" fill="#3D0F9A"/>
<path d="M378.086 183.628C378.235 183.628 378.362 183.5 378.362 183.351V167.543C378.362 167.394 378.235 167.266 378.086 167.266C377.937 167.266 377.809 167.394 377.809 167.543V183.351C377.809 183.5 377.937 183.628 378.086 183.628Z" fill="#3D0F9A"/>
<path d="M346.383 132.266C346.383 132.67 346.66 133.074 347.191 133.394L376.085 150.181C376.638 150.5 377.362 150.649 378.106 150.649C378.809 150.649 379.489 150.479 380.021 150.181L430.787 120.798C431.341 120.479 431.617 120.074 431.617 119.649L431.575 133.67C431.575 134.074 431.298 134.5 430.745 134.819L379.979 164.202C379.447 164.5 378.766 164.67 378.064 164.67C377.34 164.67 376.596 164.521 376.043 164.202L347.149 147.415C346.617 147.096 346.34 146.692 346.34 146.287L346.383 132.266Z" fill="#3D0F9A"/>
<path d="M378.021 164.969C378.021 164.969 378.064 164.969 378.085 164.969C378.851 164.969 379.596 164.777 380.149 164.458L430.915 135.075C431.532 134.713 431.872 134.224 431.872 133.671L431.915 119.671H431.341C431.341 119.99 431.107 120.309 430.66 120.565L379.894 149.948C379.426 150.224 378.787 150.373 378.106 150.373C377.426 150.373 376.723 150.224 376.234 149.948L347.34 133.16C346.915 132.905 346.681 132.607 346.681 132.267H346.106L346.064 146.288C346.064 146.82 346.404 147.309 347.021 147.671L375.915 164.458C376.489 164.777 377.234 164.969 378.021 164.969ZM431.319 120.777L431.277 133.671C431.277 133.99 431.043 134.309 430.596 134.565L379.83 163.948C379.362 164.224 378.723 164.373 378.043 164.373C377.34 164.373 376.66 164.224 376.17 163.948L347.277 147.16C346.851 146.905 346.617 146.607 346.617 146.267L346.66 133.373C346.766 133.479 346.894 133.565 347.043 133.65L375.936 150.437C376.511 150.777 377.277 150.948 378.106 150.948C378.872 150.948 379.617 150.756 380.17 150.437L430.936 121.054C431.085 120.969 431.213 120.884 431.319 120.777Z" fill="#3D0F9A"/>
<path d="M347.213 131.117C346.128 131.755 346.128 132.755 347.213 133.394L376.107 150.181C377.192 150.819 378.958 150.819 380.043 150.181L430.809 120.798C431.894 120.16 431.894 119.16 430.809 118.521L380.235 114.33C379.15 113.691 377.384 113.691 376.298 114.33L347.213 131.117Z" fill="#3D0F9A"/>
<path d="M378.065 150.968C378.831 150.968 379.575 150.798 380.171 150.458L430.937 121.053C431.554 120.692 431.895 120.202 431.895 119.67C431.895 119.139 431.554 118.649 430.937 118.288L430.873 118.245H430.809L380.299 114.053C379.107 113.394 377.299 113.415 376.128 114.096L347.043 130.883C346.426 131.245 346.086 131.734 346.086 132.266C346.086 132.798 346.426 133.288 347.043 133.649L375.937 150.437C376.533 150.777 377.277 150.947 378.043 150.947L378.065 150.968ZM430.724 118.819C431.129 119.053 431.341 119.373 431.341 119.67C431.341 119.99 431.107 120.309 430.66 120.564L379.894 149.947C378.894 150.522 377.256 150.522 376.256 149.947L347.362 133.16C346.937 132.905 346.703 132.585 346.703 132.266C346.703 131.947 346.937 131.628 347.384 131.373L376.469 114.585C377.469 114.011 379.107 114.011 380.107 114.585L380.171 114.628H380.235L430.746 118.819H430.724Z" fill="#3D0F9A"/>
<path d="M377.808 150.713H378.383V164.607H377.808V150.713Z" fill="#3D0F9A"/>
<path d="M342.043 116.054C342.043 116.522 342.341 116.99 342.958 117.33L375.809 136.437C376.447 136.798 377.277 136.99 378.107 136.969C378.894 136.969 379.681 136.777 380.277 136.437L435.022 104.734C435.639 104.373 435.958 103.905 435.958 103.437L435.915 119.373C435.915 119.841 435.596 120.309 434.979 120.671L380.234 152.373C379.639 152.713 378.851 152.905 378.064 152.905C377.234 152.905 376.405 152.735 375.766 152.373L342.915 133.266C342.298 132.905 342 132.437 342 131.99L342.043 116.054Z" fill="white" stroke="#3D0F9A"/>
<path d="M342.979 114.755C341.745 115.479 341.745 116.628 342.979 117.351L375.83 136.458C377.064 137.181 379.064 137.181 380.298 136.458L435.043 104.755C436.277 104.032 436.277 102.883 435.043 102.16L402.192 83.0533C400.958 82.3299 398.958 82.3299 397.724 83.0533L342.979 114.755Z" fill="white" stroke="#3D0F9A"/>
<path d="M358.851 129.309L374.617 138.394V140.819L358.851 131.713V129.309Z" fill="#FF5A00"/>
<path d="M358.851 133.117L374.617 142.202V144.628L358.851 135.521V133.117Z" fill="#FF5A00"/>
<path d="M358.851 136.926L374.617 146.011V148.436L358.851 139.33V136.926Z" fill="#FF5A00"/>
<path d="M355.957 127.67V137.713L344.255 130.947V120.904L355.957 127.67Z" fill="#FF5A00"/>
<path d="M356.256 138.203V127.522L343.979 120.437V131.117L356.256 138.203ZM355.681 127.841V137.203L344.554 130.777V121.415L355.681 127.841Z" fill="#FF5A00"/>
<path d="M378.086 153.117C378.235 153.117 378.362 152.989 378.362 152.841V137.032C378.362 136.883 378.235 136.755 378.086 136.755C377.937 136.755 377.809 136.883 377.809 137.032V152.841C377.809 152.989 377.937 153.117 378.086 153.117Z" fill="#3D0F9A"/>
<path d="M346.383 101.755C346.383 102.159 346.66 102.564 347.191 102.883L376.085 119.67C376.638 119.989 377.362 120.138 378.106 120.138C378.809 120.138 379.489 119.968 380.021 119.67L430.787 90.2871C431.341 89.968 431.617 89.5637 431.617 89.1382L431.575 103.159C431.575 103.564 431.298 103.989 430.745 104.308L379.979 133.691C379.447 133.989 378.766 134.16 378.064 134.16C377.34 134.16 376.596 134.011 376.043 133.691L347.149 116.904C346.617 116.585 346.34 116.181 346.34 115.777L346.383 101.755Z" fill="#3D0F9A"/>
<path d="M378.021 134.458C378.021 134.458 378.064 134.458 378.085 134.458C378.851 134.458 379.596 134.266 380.149 133.947L430.915 104.564C431.532 104.202 431.872 103.713 431.872 103.16L431.915 89.1597H431.341C431.341 89.4788 431.107 89.798 430.66 90.0533L379.894 119.436C379.426 119.713 378.787 119.862 378.106 119.862C377.404 119.862 376.723 119.713 376.234 119.436L347.34 102.649C346.915 102.394 346.681 102.096 346.681 101.755H346.106L346.064 115.777C346.064 116.309 346.404 116.798 347.021 117.16L375.915 133.947C376.489 134.287 377.234 134.458 378.021 134.458ZM431.319 90.2661L431.277 103.16C431.277 103.479 431.043 103.798 430.596 104.053L379.83 133.436C379.362 133.713 378.723 133.862 378.043 133.862C377.362 133.862 376.66 133.713 376.17 133.436L347.277 116.649C346.851 116.394 346.617 116.096 346.617 115.755L346.66 102.862C346.766 102.968 346.894 103.053 347.043 103.138L375.936 119.926C376.511 120.266 377.298 120.436 378.106 120.436C378.872 120.436 379.617 120.245 380.17 119.926L430.936 90.5426C431.085 90.4575 431.213 90.3724 431.319 90.2661Z" fill="#3D0F9A"/>
<path d="M347.213 100.606C346.128 101.245 346.128 102.245 347.213 102.883L376.107 119.67C377.192 120.309 378.958 120.309 380.043 119.67L430.809 90.2872C431.894 89.6489 431.894 88.6489 430.809 88.0106L401.916 71.2234C400.83 70.5851 399.064 70.5851 397.979 71.2234L347.213 100.606Z" fill="#3D0F9A"/>
<path d="M378.065 120.458C378.831 120.458 379.575 120.288 380.171 119.947L430.937 90.5644C431.554 90.2027 431.895 89.7133 431.895 89.1814C431.895 88.6495 431.554 88.1601 430.937 87.7984L402.043 71.0111C400.873 70.3303 399.022 70.3303 397.831 71.0111L347.065 100.394C346.448 100.756 346.107 101.245 346.107 101.777C346.107 102.309 346.448 102.798 347.065 103.16L375.958 119.947C376.554 120.288 377.299 120.458 378.065 120.458ZM399.937 71.0537C400.597 71.0537 401.256 71.2026 401.746 71.4792L430.639 88.2665C431.065 88.5218 431.299 88.841 431.299 89.1601C431.299 89.4793 431.065 89.7984 430.618 90.0537L379.852 119.437C378.852 120.011 377.214 120.011 376.214 119.437L347.32 102.649C346.894 102.394 346.66 102.075 346.66 101.756C346.66 101.437 346.894 101.118 347.341 100.862L398.107 71.4792C398.618 71.1813 399.277 71.0324 399.937 71.0324V71.0537Z" fill="#3D0F9A"/>
<path d="M377.808 120.203H378.383V134.096H377.808V120.203Z" fill="#3D0F9A"/>
<path d="M342.043 85.5423C342.043 86.0104 342.341 86.4785 342.958 86.8189L375.809 105.925C376.447 106.287 377.277 106.479 378.107 106.457C378.894 106.457 379.681 106.266 380.277 105.925L435.022 74.2232C435.639 73.8615 435.958 73.3934 435.958 72.9253L435.915 88.8615C435.915 89.3296 435.596 89.7977 434.979 90.1594L380.234 121.862C379.639 122.202 378.851 122.393 378.064 122.393C377.234 122.393 376.405 122.223 375.766 121.862L342.915 102.755C342.298 102.393 342 101.925 342 101.479L342.043 85.5423Z" fill="white" stroke="#3D0F9A"/>
<path d="M342.979 84.2448C341.745 84.9682 341.745 86.1171 342.979 86.8405L375.83 105.947C377.064 106.67 379.064 106.67 380.298 105.947L435.043 74.2447C436.277 73.5213 436.277 72.3724 435.043 71.649L402.192 52.5426C400.958 51.8191 398.958 51.8191 397.724 52.5426L342.979 84.2448Z" fill="#3D0F9A" stroke="#3D0F9A"/>
<path d="M358.85 98.7979L374.616 107.883V110.309L358.85 101.202V98.7979Z" fill="#3D0F9A"/>
<path d="M358.85 102.606L374.616 111.692V114.117L358.85 105.011V102.606Z" fill="#3D0F9A"/>
<path d="M358.85 106.415L374.616 115.5V117.926L358.85 108.819V106.415Z" fill="#3D0F9A"/>
<path d="M355.957 97.1595V107.202L344.255 100.436V90.3936L355.957 97.1595Z" fill="#3D0F9A"/>
<path d="M356.255 107.691V97.0104L343.978 89.9253V100.606L356.255 107.691ZM355.68 97.3296V106.691L344.553 100.266V90.904L355.68 97.3296Z" fill="#3D0F9A"/>
<path d="M378.085 122.606C378.234 122.606 378.361 122.479 378.361 122.33V106.521C378.361 106.372 378.234 106.245 378.085 106.245C377.936 106.245 377.808 106.372 377.808 106.521V122.33C377.808 122.479 377.936 122.606 378.085 122.606Z" fill="#3D0F9A" stroke="#3D0F9A" stroke-width="0.5"/>
<path d="M233.151 58.3088C233.151 62.0322 235.772 63.5491 238.998 61.6736C242.225 59.7981 244.846 55.2749 244.846 51.5791C244.846 47.8833 242.225 46.3388 238.998 48.2143C235.772 50.0622 233.151 54.5854 233.151 58.3088Z" fill="#FF5A00" stroke="#FF5A00"/>
<path d="M214.781 68.9274C214.781 72.6508 217.401 74.1678 220.628 72.2923C223.855 70.4168 226.475 65.8936 226.475 62.1978C226.475 58.502 223.855 56.9575 220.628 58.8329C217.401 60.6808 214.781 65.2316 214.781 68.9274Z" fill="#3D0F9A"/>
<path d="M218.009 73.5065C217.374 73.5065 216.795 73.3686 216.299 73.0652C215.057 72.3481 214.396 70.8863 214.396 68.9281C214.396 65.0944 217.098 60.3781 220.436 58.475C222.118 57.5097 223.745 57.3443 224.959 58.0613C226.2 58.7784 226.862 60.2402 226.862 62.1984C226.862 66.0321 224.159 70.7484 220.822 72.6515C219.829 73.2307 218.891 73.5065 218.009 73.5065ZM215.195 68.9281C215.195 70.5829 215.719 71.7965 216.712 72.3481C217.678 72.8997 219.001 72.7618 220.436 71.9344C223.552 70.1416 226.062 65.7563 226.062 62.1984C226.062 60.5436 225.538 59.3301 224.545 58.7784C223.58 58.2268 222.256 58.3647 220.822 59.1922C217.705 60.9849 215.195 65.3702 215.195 68.9281Z" fill="#3D0F9A"/>
<path d="M196.413 79.5188C196.413 83.2422 199.033 84.7591 202.26 82.8837C205.487 81.0358 208.107 76.5125 208.107 72.7892C208.107 69.0658 205.487 67.5488 202.26 69.4243C199.033 71.2722 196.413 75.7954 196.413 79.5188Z" fill="#3D0F9A"/>
<path d="M199.641 84.0968C199.006 84.0968 198.427 83.9589 197.903 83.6555C196.662 82.9384 196 81.4767 196 79.5184C196 75.6847 198.703 70.9684 202.04 69.0654C203.723 68.1001 205.35 67.9346 206.563 68.6517C207.804 69.3688 208.466 70.8305 208.466 72.7888C208.466 76.6225 205.764 81.3388 202.426 83.2418C201.433 83.821 200.496 84.0968 199.613 84.0968H199.641ZM204.853 69.0378C204.136 69.0378 203.309 69.286 202.454 69.7825C199.337 71.5752 196.827 75.9605 196.827 79.5184C196.827 81.1733 197.351 82.3868 198.344 82.9384C199.31 83.49 200.634 83.3521 202.068 82.5247C205.184 80.732 207.694 76.3467 207.694 72.7888C207.694 71.1339 207.17 69.9204 206.177 69.3688C205.791 69.1481 205.35 69.0378 204.853 69.0378Z" fill="#3D0F9A"/>
<path d="M390.052 80.0654C389.449 80.0654 388.959 79.7897 388.959 79.4495C388.959 79.1093 389.449 78.8335 390.052 78.8335C390.656 78.8335 391.146 79.1093 391.146 79.4495C391.146 79.7897 390.656 80.0654 390.052 80.0654Z" fill="white"/>
<path d="M387.559 78.6543C386.956 78.6543 386.466 78.3785 386.466 78.0383C386.466 77.6981 386.956 77.4224 387.559 77.4224C388.163 77.4224 388.652 77.6981 388.652 78.0383C388.652 78.3785 388.163 78.6543 387.559 78.6543Z" fill="white"/>
<path d="M385.066 77.232C384.462 77.232 383.973 76.9562 383.973 76.616C383.973 76.2758 384.462 76 385.066 76C385.67 76 386.159 76.2758 386.159 76.616C386.159 76.9562 385.67 77.232 385.066 77.232Z" fill="white"/>
<path d="M387.058 81.7681C386.455 81.7681 385.965 81.4923 385.965 81.1521C385.965 80.8119 386.455 80.5361 387.058 80.5361C387.662 80.5361 388.151 80.8119 388.151 81.1521C388.151 81.4923 387.662 81.7681 387.058 81.7681Z" fill="white"/>
<path d="M384.564 80.3452C383.96 80.3452 383.471 80.0694 383.471 79.7293C383.471 79.3891 383.96 79.1133 384.564 79.1133C385.168 79.1133 385.657 79.3891 385.657 79.7293C385.657 80.0694 385.168 80.3452 384.564 80.3452Z" fill="white"/>
<path d="M382.071 78.9341C381.467 78.9341 380.978 78.6583 380.978 78.3181C380.978 77.9779 381.467 77.7021 382.071 77.7021C382.675 77.7021 383.164 77.9779 383.164 78.3181C383.164 78.6583 382.675 78.9341 382.071 78.9341Z" fill="white"/>
<path d="M384.075 83.459C383.471 83.459 382.982 83.1832 382.982 82.843C382.982 82.5028 383.471 82.2271 384.075 82.2271C384.679 82.2271 385.168 82.5028 385.168 82.843C385.168 83.1832 384.679 83.459 384.075 83.459Z" fill="white"/>
<path d="M381.581 82.0479C380.977 82.0479 380.488 81.7721 380.488 81.4319C380.488 81.0917 380.977 80.8159 381.581 80.8159C382.184 80.8159 382.674 81.0917 382.674 81.4319C382.674 81.7721 382.184 82.0479 381.581 82.0479Z" fill="white"/>
<path d="M379.088 80.6255C378.484 80.6255 377.994 80.3497 377.994 80.0095C377.994 79.6693 378.484 79.3936 379.088 79.3936C379.691 79.3936 380.181 79.6693 380.181 80.0095C380.181 80.3497 379.691 80.6255 379.088 80.6255Z" fill="white"/>
<path d="M381.081 85.1611C380.477 85.1611 379.988 84.8854 379.988 84.5452C379.988 84.205 380.477 83.9292 381.081 83.9292C381.684 83.9292 382.174 84.205 382.174 84.5452C382.174 84.8854 381.684 85.1611 381.081 85.1611Z" fill="white"/>
<path d="M378.587 83.7388C377.983 83.7388 377.494 83.463 377.494 83.1228C377.494 82.7826 377.983 82.5068 378.587 82.5068C379.19 82.5068 379.68 82.7826 379.68 83.1228C379.68 83.463 379.19 83.7388 378.587 83.7388Z" fill="white"/>
<path d="M376.093 82.3277C375.49 82.3277 375 82.0519 375 81.7117C375 81.3715 375.49 81.0957 376.093 81.0957C376.697 81.0957 377.187 81.3715 377.187 81.7117C377.187 82.0519 376.697 82.3277 376.093 82.3277Z" fill="white"/>
<path d="M402.052 73.0654C401.449 73.0654 400.959 72.7897 400.959 72.4495C400.959 72.1093 401.449 71.8335 402.052 71.8335C402.656 71.8335 403.146 72.1093 403.146 72.4495C403.146 72.7897 402.656 73.0654 402.052 73.0654Z" fill="white"/>
<path d="M399.559 71.6543C398.956 71.6543 398.466 71.3785 398.466 71.0383C398.466 70.6981 398.956 70.4224 399.559 70.4224C400.163 70.4224 400.652 70.6981 400.652 71.0383C400.652 71.3785 400.163 71.6543 399.559 71.6543Z" fill="white"/>
<path d="M397.066 70.232C396.462 70.232 395.973 69.9562 395.973 69.616C395.973 69.2758 396.462 69 397.066 69C397.67 69 398.159 69.2758 398.159 69.616C398.159 69.9562 397.67 70.232 397.066 70.232Z" fill="white"/>
<path d="M399.058 74.7681C398.455 74.7681 397.965 74.4923 397.965 74.1521C397.965 73.8119 398.455 73.5361 399.058 73.5361C399.662 73.5361 400.151 73.8119 400.151 74.1521C400.151 74.4923 399.662 74.7681 399.058 74.7681Z" fill="white"/>
<path d="M396.564 73.3452C395.96 73.3452 395.471 73.0694 395.471 72.7293C395.471 72.3891 395.96 72.1133 396.564 72.1133C397.168 72.1133 397.657 72.3891 397.657 72.7293C397.657 73.0694 397.168 73.3452 396.564 73.3452Z" fill="white"/>
<path d="M394.071 71.9341C393.467 71.9341 392.978 71.6583 392.978 71.3181C392.978 70.9779 393.467 70.7021 394.071 70.7021C394.675 70.7021 395.164 70.9779 395.164 71.3181C395.164 71.6583 394.675 71.9341 394.071 71.9341Z" fill="white"/>
<path d="M396.075 76.459C395.471 76.459 394.982 76.1832 394.982 75.843C394.982 75.5028 395.471 75.2271 396.075 75.2271C396.679 75.2271 397.168 75.5028 397.168 75.843C397.168 76.1832 396.679 76.459 396.075 76.459Z" fill="white"/>
<path d="M393.581 75.0479C392.977 75.0479 392.488 74.7721 392.488 74.4319C392.488 74.0917 392.977 73.8159 393.581 73.8159C394.184 73.8159 394.674 74.0917 394.674 74.4319C394.674 74.7721 394.184 75.0479 393.581 75.0479Z" fill="white"/>
<path d="M391.088 73.6255C390.484 73.6255 389.994 73.3497 389.994 73.0095C389.994 72.6693 390.484 72.3936 391.088 72.3936C391.691 72.3936 392.181 72.6693 392.181 73.0095C392.181 73.3497 391.691 73.6255 391.088 73.6255Z" fill="white"/>
<path d="M393.081 78.1611C392.477 78.1611 391.988 77.8854 391.988 77.5452C391.988 77.205 392.477 76.9292 393.081 76.9292C393.684 76.9292 394.174 77.205 394.174 77.5452C394.174 77.8854 393.684 78.1611 393.081 78.1611Z" fill="white"/>
<path d="M390.587 76.7388C389.983 76.7388 389.494 76.463 389.494 76.1228C389.494 75.7826 389.983 75.5068 390.587 75.5068C391.19 75.5068 391.68 75.7826 391.68 76.1228C391.68 76.463 391.19 76.7388 390.587 76.7388Z" fill="white"/>
<path d="M388.093 75.3277C387.49 75.3277 387 75.0519 387 74.7117C387 74.3715 387.49 74.0957 388.093 74.0957C388.697 74.0957 389.187 74.3715 389.187 74.7117C389.187 75.0519 388.697 75.3277 388.093 75.3277Z" fill="white"/>
<path d="M401.753 16.3429C407.415 19.4667 407.417 24.5333 401.753 27.6571C396.091 30.781 386.909 30.781 381.247 27.6571C375.585 24.5333 375.583 19.4667 381.247 16.3429C386.909 13.219 396.091 13.219 401.753 16.3429Z" fill="#3D0F9A"/>
<path d="M293.091 112.696L333.766 89.1625V22L293.091 45.5339V112.696Z" fill="#DFE2E5"/>
<path d="M335.526 90.1775L295.838 113.133V47.1119L335.526 24.1564V90.1775Z" fill="white" stroke="#3D0F9A" stroke-linejoin="round"/>
<path d="M298.75 97.9898V48.804L332.6 29.2051V78.4178L298.75 97.9898Z" fill="#3D0F9A" stroke="#3D0F9A"/>
<path d="M336.026 23.2897L333.766 22L293.091 45.5339L295.337 46.8236L336.026 23.2897Z" fill="#3D0F9A"/>
<path d="M295.337 46.8234V114L293.091 112.696V45.5337L295.337 46.8234Z" fill="#3D0F9A"/>
<path d="M333.1 76.1958L298.208 96.3459V98.856L333.1 78.7059V76.1958Z" fill="#3D0F9A"/>
<path d="M333.1 78.7063V28.3379L331.158 29.4612V77.3195L333.1 78.7063Z" fill="#3D0F9A"/>
<path d="M307.853 54.2018C307.386 53.9364 307.386 53.0747 307.855 52.2771C308.323 51.4795 309.081 51.0481 309.548 51.3135C310.016 51.5788 310.015 52.4405 309.547 53.2381C309.079 54.0357 308.32 54.4671 307.853 54.2018Z" fill="white"/>
<path d="M307.853 68.6461C307.386 68.3808 307.386 67.5191 307.855 66.7215C308.323 65.9239 309.081 65.4924 309.548 65.7578C310.016 66.0232 310.015 66.8849 309.547 67.6824C309.079 68.48 308.32 68.9115 307.853 68.6461Z" fill="white"/>
<path d="M307.846 82.8776C307.379 82.6122 307.38 81.7505 307.848 80.9529C308.316 80.1553 309.074 79.7239 309.542 79.9892C310.009 80.2546 310.008 81.1163 309.54 81.9139C309.072 82.7115 308.314 83.1429 307.846 82.8776Z" fill="white"/>
<path d="M315.424 50.4161C314.957 50.1508 314.958 49.2891 315.426 48.4915C315.894 47.6939 316.652 47.2624 317.12 47.5278C317.587 47.7932 317.586 48.6549 317.118 49.4525C316.65 50.25 315.892 50.6815 315.424 50.4161Z" fill="white"/>
<path d="M315.424 64.8605C314.957 64.5951 314.958 63.7334 315.426 62.9358C315.894 62.1382 316.652 61.7068 317.12 61.9721C317.587 62.2375 317.586 63.0992 317.118 63.8968C316.65 64.6944 315.892 65.1258 315.424 64.8605Z" fill="white"/>
<path d="M315.417 79.0924C314.95 78.827 314.951 77.9653 315.419 77.1678C315.887 76.3702 316.646 75.9387 317.113 76.2041C317.58 76.4694 317.579 77.3311 317.111 78.1287C316.643 78.9263 315.885 79.3578 315.417 79.0924Z" fill="white"/>
<path d="M322.996 45.3688C322.528 45.1034 322.529 44.2417 322.997 43.4441C323.465 42.6465 324.224 42.2151 324.691 42.4805C325.158 42.7458 325.158 43.6075 324.689 44.4051C324.221 45.2027 323.463 45.6341 322.996 45.3688Z" fill="white"/>
<path d="M322.996 59.8131C322.528 59.5477 322.529 58.686 322.997 57.8885C323.465 57.0909 324.224 56.6594 324.691 56.9248C325.158 57.1902 325.158 58.0518 324.689 58.8494C324.221 59.647 323.463 60.0785 322.996 59.8131Z" fill="white"/>
<path d="M322.988 74.045C322.521 73.7797 322.521 72.918 322.989 72.1204C323.458 71.3228 324.216 70.8914 324.683 71.1567C325.15 71.4221 325.15 72.2838 324.682 73.0814C324.213 73.879 323.455 74.3104 322.988 74.045Z" fill="white"/>
<path d="M382 16.5774V21.039V20.6672C382 22.0925 382.93 23.5177 384.82 24.6021C388.6 26.771 394.703 26.771 398.483 24.6021C400.373 23.5177 401.303 22.4643 401.303 21.039V20.6672V16.6084L388.358 13.7251L382 16.5774Z" fill="white" stroke="#3D0F9A" stroke-miterlimit="10"/>
<path d="M391.667 22.1541C397.006 22.1541 401.334 19.6572 401.334 16.5771C401.334 13.4969 397.006 11 391.667 11C386.328 11 382 13.4969 382 16.5771C382 19.6572 386.328 22.1541 391.667 22.1541Z" fill="white" stroke="#3D0F9A" stroke-linecap="round" stroke-linejoin="round"/>
<rect width="10.8467" height="6.82943" rx="1.5589" transform="matrix(-0.865969 -0.500098 0.865969 -0.500098 52.3535 138.26)" fill="white"/>
<rect width="10.8467" height="6.82943" rx="1.5589" transform="matrix(-0.865969 -0.500098 0.865969 -0.500098 49.5176 153.849)" fill="#FF5A00"/>
<rect width="10.8467" height="6.82943" rx="1.5589" transform="matrix(-0.865969 -0.500098 0.865969 -0.500098 44.7002 142.68)" fill="white"/>
<rect width="10.8467" height="6.82943" rx="1.5589" transform="matrix(-0.865969 -0.500098 0.865969 -0.500098 41.8643 158.269)" fill="white"/>
<rect width="10.8467" height="6.82943" rx="1.5589" transform="matrix(-0.865969 -0.500098 0.865969 -0.500098 37.0469 147.1)" fill="white"/>
<rect width="10.8467" height="6.82943" rx="1.5589" transform="matrix(-0.865969 -0.500098 0.865969 -0.500098 29.3926 151.52)" fill="white"/>
</svg>
