<svg width="440" height="190" viewBox="0 0 440 190" fill="none" xmlns="http://www.w3.org/2000/svg">
<path d="M343.955 36.9999L122.5 166" stroke="#3D0F9A" stroke-dasharray="2 2"/>
<rect x="-0.865972" width="69.3562" height="69.3562" rx="4.5" transform="matrix(-0.865972 0.500092 -0.865972 -0.500092 221.238 145.618)" stroke="#3D0F9A"/>
<rect x="-0.865972" width="66.5541" height="66.5541" rx="4.5" transform="matrix(-0.865972 0.500092 -0.865972 -0.500092 382.384 50.2163)" stroke="#3D0F9A"/>
<path d="M253.393 135.284L337.867 184.066C340.258 185.447 344.135 185.447 346.526 184.066L361 175.708" stroke="#3D0F9A"/>
<path d="M232 136.542V159.762L147 111.49V88.2705L232 136.542Z" fill="white" stroke="#3D0F9A" stroke-linecap="round" stroke-linejoin="round"/>
<path d="M232 136.542V159.762L317 111.49V88.2705L232 136.542Z" fill="#3D0F9A" stroke="#3D0F9A" stroke-linecap="round" stroke-linejoin="round"/>
<path d="M317 88.2715L232 136.543L147 88.2715L232 40L317 88.2715Z" fill="white" stroke="#3D0F9A" stroke-linecap="round" stroke-linejoin="round"/>
<path d="M416.69 46.8855L370.112 20L369.837 118.688L433.392 155.376L433.601 82.8435C430.763 76.4282 418.569 67.5075 416.747 66.4541C416.709 66.4351 416.671 66.4161 416.642 66.3972C415.304 59.0993 416.699 46.8855 416.699 46.8855H416.69Z" fill="#3D0F9A" stroke="#3D0F9A" stroke-linejoin="round"/>
<path d="M425.334 70.507C422.819 69.055 419.858 67.5745 416.622 66.4072C416.651 66.4262 416.689 66.4452 416.726 66.4642C418.549 67.5176 430.743 76.4383 433.581 82.8536C433.761 79.2189 433.6 76.2105 433.6 76.2105C433.6 76.2105 430.354 73.4109 425.325 70.507H425.334Z" fill="#3D0F9A" stroke="#3D0F9A"/>
<path d="M416.679 46.8857C416.679 46.8857 415.284 59.09 416.622 66.3974C419.849 67.5647 422.81 69.0451 425.334 70.4971C430.364 73.4011 433.61 76.2007 433.61 76.2007L416.679 46.8857Z" fill="white" stroke="#3D0F9A" stroke-linejoin="round"/>
<path d="M156.611 65.1042C156.623 64.9568 156.619 64.8131 156.611 64.6656V61.7389H155.118C154.694 61.3343 154.184 60.9523 153.579 60.6082L67.3116 10.5927C63.2807 8.27852 56.7088 8.31633 52.7081 10.6759L18.3699 30.9097C17.7914 31.2501 17.2998 31.6206 16.8914 32.0139L15.3789 31.9458V35.2847H15.3827C15.4356 36.7897 16.4415 38.2833 18.4077 39.4177L104.698 89.611C108.721 91.9327 115.281 91.8949 119.278 89.524L153.643 69.1238C155.526 68.0083 156.513 66.5676 156.611 65.1118V65.1005V65.1042Z" fill="#3D0F9A" stroke="#3D0F9A" stroke-linejoin="round"/>
<path d="M111.889 91.7099C109.215 91.7099 106.55 91.1238 104.508 89.944L18.2179 39.7469C16.3424 38.6617 15.2231 37.2135 15.034 35.6404H15.0038L15 35.2888V31.5566L16.747 31.6322C17.1629 31.2541 17.6431 30.9024 18.1763 30.5848L52.5145 10.3509C56.6324 7.92334 63.3555 7.88552 67.4999 10.264L153.771 60.2795C154.334 60.6047 154.837 60.9677 155.268 61.361H156.989V64.6659C156.996 64.8133 156.996 64.9721 156.989 65.131C156.871 66.791 155.752 68.3148 153.835 69.453L119.47 89.8532C117.387 91.0897 114.638 91.7099 111.893 91.7099H111.889ZM15.7563 35.1753V35.2699C15.8092 36.7068 16.8188 38.0643 18.596 39.089L104.886 89.286C108.811 91.5548 115.182 91.517 119.081 89.1991L153.446 68.7988C155.147 67.7892 156.138 66.4695 156.232 65.0856L156.611 65.1007L156.232 65.078C156.24 64.9532 156.24 64.8247 156.232 64.6848V62.1172H154.966L154.856 62.0114C154.444 61.6181 153.952 61.2551 153.389 60.9337L67.1217 10.9219C63.1892 8.66447 56.8063 8.69851 52.9002 11.0051L18.562 31.2352C18.0251 31.549 17.5524 31.9045 17.1516 32.2864L17.0344 32.3998L15.7563 32.3431V35.1791V35.1753Z" fill="#3D0F9A"/>
<path d="M52.7072 7.17051C56.7116 4.81096 63.2836 4.77315 67.3107 7.08732L153.582 57.1029C157.609 59.417 157.639 63.2475 153.642 65.6184L119.277 86.0186C115.281 88.3895 108.72 88.4311 104.697 86.1056L18.4068 35.9123C14.3835 33.5906 14.3684 29.7601 18.369 27.4006L52.7072 7.17051Z" fill="white" stroke="#3D0F9A" stroke-linejoin="round"/>
<path d="M46.8189 15.5883L46.4355 16.2402L137.09 69.5547L137.474 68.9028L46.8189 15.5883Z" fill="#3D0F9A" stroke="#3D0F9A" stroke-width="0.4" stroke-linejoin="round"/>
<path d="M41.1031 18.9751L40.7197 19.627L131.374 72.9414L131.758 72.2896L41.1031 18.9751Z" fill="#3D0F9A" stroke="#3D0F9A" stroke-width="0.4" stroke-linejoin="round"/>
<path d="M35.3892 22.3652L35.0059 23.0171L125.661 76.3316L126.044 75.6797L35.3892 22.3652Z" fill="#3D0F9A" stroke="#3D0F9A" stroke-width="0.4" stroke-linejoin="round"/>
<path d="M29.6763 25.7519L29.293 26.4038L119.948 79.7183L120.331 79.0664L29.6763 25.7519Z" fill="#3D0F9A" stroke="#3D0F9A" stroke-width="0.4" stroke-linejoin="round"/>
<path d="M23.7877 28.8217L23.4043 29.4736L114.059 82.7881L114.442 82.1362L23.7877 28.8217Z" fill="#3D0F9A" stroke="#3D0F9A" stroke-width="0.4" stroke-linejoin="round"/>
<rect width="10.8467" height="6.82943" rx="1.5589" transform="matrix(-0.865969 -0.500098 0.865969 -0.500098 73.8643 24.5889)" fill="#3D0F9A"/>
<rect width="10.8467" height="6.82943" rx="1.5589" transform="matrix(-0.865969 -0.500098 0.865969 -0.500098 86.3926 31.8398)" fill="#FF5A00"/>
<rect width="10.8467" height="6.82943" rx="1.5589" transform="matrix(-0.865969 -0.500098 0.865969 -0.500098 61.3926 17.8398)" fill="#3D0F9A"/>
<rect width="43.5977" height="2.66925" rx="1.33463" transform="matrix(0.866084 0.499899 -0.000116937 1 381.896 57.46)" fill="white"/>
<rect width="43.5977" height="2.66925" rx="1.33463" transform="matrix(0.866084 0.499899 -0.000116937 1 381.896 52.9019)" fill="white"/>
<rect width="43.5977" height="2.66925" rx="1.33463" transform="matrix(0.866084 0.499899 -0.000116964 1 381.896 61.9087)" fill="white"/>
<rect width="43.5977" height="2.66925" rx="1.33463" transform="matrix(0.866084 0.499899 -0.000116964 1 381.896 66.3574)" fill="white"/>
<rect width="26.9891" height="2.66925" rx="1.33463" transform="matrix(0.866084 0.499899 -0.000116964 1 381.895 70.8062)" fill="white"/>
<path d="M180.933 143.188C183.137 144.463 183.147 146.518 180.961 147.783L172.068 152.94L62.9248 90.1077L71.8181 84.951C74.0033 83.6856 77.572 83.6856 79.7667 84.951L180.923 143.188H180.933Z" fill="#3D0F9A"/>
<path d="M62.9249 90.1079L172.059 152.93L113.775 186.706C111.58 187.981 108.021 187.981 105.817 186.706L4.66048 128.479C2.46578 127.213 2.4467 125.149 4.64139 123.883L62.9249 90.1079Z" fill="#3D0F9A"/>
<path d="M103.813 124.579L101.494 126.995C98.4502 126.225 95.139 126.605 91.5893 128.165L86.4747 130.401C83.5167 131.6 80.1674 131.847 76.4364 131.153C76.6749 132.057 76.5032 132.923 75.9116 133.75C75.3104 134.578 74.3276 135.33 72.9249 136.005L67.6958 138.327L66.503 138.926C64.2988 140.096 63.6213 141.324 64.461 142.618L60.1097 143.75C58.7261 142.151 58.3063 140.61 58.8693 139.126C59.4323 137.632 60.959 136.3 63.4304 135.13L68.0011 133.122C68.6214 132.846 69.1366 132.561 69.566 132.266C70.9115 131.334 70.8256 130.354 69.337 129.326L73.7646 127.195C76.3028 128.536 79.1464 128.508 82.343 127.119L87.4671 124.874C92.4863 122.866 97.9444 122.771 103.822 124.588L103.813 124.579Z" fill="#3D0F9A"/>
<path d="M146.539 169.997L146.538 169.998C145.724 170.452 144.629 170.686 143.516 170.684C142.402 170.682 141.305 170.443 140.484 169.988L140.484 169.988C139.655 169.53 139.319 168.976 139.316 168.494C139.313 168.012 139.642 167.46 140.465 167.003L140.465 167.003L140.466 167.002C141.28 166.548 142.374 166.314 143.488 166.316C144.601 166.318 145.699 166.557 146.519 167.012C147.343 167.469 147.68 168.024 147.684 168.507C147.688 168.988 147.361 169.541 146.539 169.997Z" fill="white" stroke="#3D0F9A" stroke-width="0.631924"/>
<rect x="-0.865972" width="71.1732" height="71.1732" rx="4.5" transform="matrix(-0.865972 0.500092 -0.865972 -0.500092 292.384 88.5263)" stroke="#3D0F9A" stroke-dasharray="2 2"/>
<rect width="30.7398" height="45.3412" rx="2.99472" transform="matrix(0.000121053 -1 0.866086 0.499895 381.31 110.042)" fill="#FF5A00"/>
<path d="M333.663 86.5018L340.43 82.5664C333.719 86.4666 329.552 94.752 329.517 106.516C329.447 130.198 346.165 159.151 366.769 171.049L360.002 174.984C339.39 163.087 322.679 134.134 322.742 110.451C322.778 98.6873 326.945 90.402 333.656 86.5018H333.663Z" fill="#3D0F9A"/>
<path d="M367.008 85.1523C387.62 97.0498 404.331 126.003 404.268 149.678C404.232 161.442 399.608 168.928 393.354 173.628C380.432 183.338 365.931 178.07 359.995 174.977C355.09 172.145 350.402 168.343 346.109 163.881C332.384 149.594 322.693 128.491 322.742 110.451C322.777 98.6416 326.978 90.3375 333.737 86.4547C334.732 85.8764 335.881 85.2077 337.032 84.5388L337.032 84.5386L337.04 84.5338L337.049 84.5285C338.23 83.8416 339.411 83.1551 340.423 82.5664C344.81 80.5287 356.269 78.1931 367.008 85.1523Z" fill="white"/>
<path d="M340.43 82.5664H340.423M340.423 82.5664C339.408 83.1566 338.224 83.8452 337.04 84.5338L337.032 84.5386C335.882 85.2076 334.732 85.8763 333.737 86.4547C326.978 90.3375 322.777 98.6416 322.742 110.451C322.693 128.491 332.384 149.594 346.109 163.881C350.402 168.343 355.09 172.145 359.995 174.977C365.931 178.07 380.432 183.338 393.354 173.628C399.608 168.928 404.232 161.442 404.268 149.678C404.331 126.003 387.62 97.0498 367.008 85.1523C356.269 78.1931 344.81 80.5287 340.423 82.5664Z" stroke="#3D0F9A" stroke-miterlimit="10"/>
<path d="M395.441 151.548C395.371 175.237 378.547 184.823 357.943 172.918C353.811 170.536 349.833 167.465 346.123 163.881C332.384 149.594 322.693 128.491 322.742 110.452C322.813 86.7691 339.636 77.1837 360.241 89.0811C364.387 91.4704 368.364 94.5485 372.089 98.1395C385.813 112.426 395.49 133.515 395.441 151.541V151.548Z" fill="white" stroke="#3D0F9A" stroke-miterlimit="10"/>
<path d="M389.679 149.102C389.658 155.539 388.077 160.662 385.329 164.225C380.122 171.035 370.719 172.173 360.031 165.996C343.727 156.586 330.508 133.698 330.565 114.963C330.593 106.516 333.305 100.346 337.782 96.9656C343.228 92.8545 351.274 92.8897 360.22 98.0618C376.517 107.479 389.736 130.367 389.679 149.095V149.102Z" fill="#3D0F9A" stroke="#3D0F9A"/>
<path d="M389.679 149.102C389.658 155.539 388.077 160.662 385.33 164.225C379.883 168.35 371.837 168.308 362.884 163.136C346.587 153.726 333.369 130.838 333.425 112.11C333.446 105.659 335.034 100.536 337.782 96.9729C343.228 92.8618 351.275 92.897 360.221 98.0692C376.517 107.486 389.736 130.374 389.679 149.102Z" fill="white" stroke="#3D0F9A" stroke-miterlimit="10"/>
<path d="M361.486 101.211C361.788 101.386 362.027 101.801 362.027 102.145L362.013 106.847C362.013 107.191 361.767 107.331 361.472 107.156C361.17 106.98 360.931 106.565 360.931 106.221L360.945 101.52C360.945 101.175 361.191 101.035 361.486 101.211Z" fill="#3D0F9A"/>
<path d="M348.815 97.802C349.005 97.9074 349.188 98.1253 349.286 98.3853L351.317 103.635C351.464 104.021 351.373 104.352 351.12 104.373C351.036 104.373 350.944 104.352 350.846 104.302C350.656 104.197 350.474 103.979 350.375 103.719L348.344 98.4696C348.197 98.0901 348.288 97.7599 348.541 97.7388C348.625 97.7388 348.724 97.7599 348.815 97.809V97.802Z" fill="#3D0F9A"/>
<path d="M339.511 103.101C339.603 103.157 339.694 103.235 339.778 103.34L343.313 107.739C343.573 108.063 343.664 108.491 343.51 108.709C343.411 108.85 343.229 108.857 343.039 108.751C342.948 108.695 342.856 108.618 342.765 108.512L339.23 104.113C338.97 103.79 338.886 103.361 339.033 103.15C339.132 103.01 339.314 103.003 339.504 103.108L339.511 103.101Z" fill="#3D0F9A"/>
<path d="M340.171 118.055C340.473 118.231 340.712 118.645 340.712 118.99C340.712 119.334 340.466 119.475 340.171 119.299L336.074 116.938C335.772 116.762 335.533 116.348 335.533 116.003C335.533 115.659 335.779 115.518 336.074 115.694L340.171 118.055Z" fill="#3D0F9A"/>
<path d="M342.983 131.892C343.173 131.997 343.356 132.215 343.454 132.475C343.602 132.855 343.51 133.185 343.25 133.206L339.701 133.515C339.617 133.522 339.526 133.494 339.434 133.445C339.245 133.34 339.069 133.122 338.963 132.862C338.816 132.482 338.907 132.152 339.16 132.131L342.709 131.822C342.793 131.822 342.885 131.843 342.983 131.892Z" fill="#3D0F9A"/>
<path d="M350.727 145.315C350.818 145.371 350.91 145.448 351.001 145.554C351.261 145.877 351.345 146.306 351.198 146.516L349.139 149.405C349.04 149.545 348.858 149.552 348.668 149.447C348.577 149.391 348.485 149.313 348.401 149.208C348.141 148.885 348.057 148.456 348.204 148.245L350.263 145.357C350.362 145.216 350.544 145.209 350.734 145.315H350.727Z" fill="#3D0F9A"/>
<path d="M361.332 154.71C361.634 154.886 361.873 155.3 361.873 155.645L361.859 160.346C361.859 160.69 361.613 160.831 361.317 160.655C361.022 160.48 360.776 160.065 360.776 159.721L360.79 155.019C360.79 154.675 361.036 154.534 361.332 154.71Z" fill="#3D0F9A"/>
<path d="M371.956 157.577C372.146 157.683 372.322 157.901 372.427 158.161L374.465 163.417C374.613 163.804 374.521 164.134 374.261 164.155C374.177 164.162 374.086 164.134 373.994 164.085C373.805 163.979 373.629 163.762 373.524 163.502L371.486 158.245C371.338 157.866 371.429 157.535 371.689 157.514C371.774 157.507 371.865 157.535 371.956 157.585V157.577Z" fill="#3D0F9A"/>
<path d="M379.757 153.129C379.848 153.185 379.94 153.263 380.024 153.368L383.559 157.767C383.819 158.091 383.91 158.519 383.756 158.73C383.657 158.871 383.475 158.878 383.285 158.772C383.193 158.716 383.102 158.639 383.018 158.533L379.483 154.134C379.223 153.811 379.139 153.382 379.286 153.171C379.385 153.031 379.567 153.024 379.757 153.129Z" fill="#3D0F9A"/>
<path d="M386.728 144.935C387.03 145.111 387.269 145.525 387.269 145.87C387.269 146.214 387.023 146.355 386.728 146.179L382.631 143.818C382.329 143.642 382.09 143.227 382.09 142.883C382.09 142.539 382.336 142.398 382.631 142.574L386.728 144.935Z" fill="#3D0F9A"/>
<path d="M383.377 128.428C383.566 128.533 383.749 128.751 383.847 129.011C383.995 129.397 383.904 129.728 383.644 129.749L380.095 130.051C380.011 130.058 379.919 130.03 379.828 129.981C379.638 129.875 379.462 129.657 379.357 129.397C379.209 129.011 379.301 128.681 379.554 128.66L383.103 128.357C383.187 128.357 383.285 128.379 383.377 128.428Z" fill="#3D0F9A"/>
<path d="M374.142 112.426C374.234 112.482 374.325 112.56 374.41 112.665C374.67 112.988 374.761 113.417 374.606 113.628L372.547 116.516C372.449 116.657 372.266 116.664 372.076 116.558C371.985 116.502 371.894 116.425 371.809 116.319C371.549 115.996 371.458 115.568 371.613 115.35L373.672 112.461C373.77 112.321 373.953 112.314 374.142 112.419V112.426Z" fill="#3D0F9A"/>
<path d="M357.241 129.679L359.497 128.365C359.054 128.625 358.78 129.173 358.78 129.953C358.78 131.52 359.877 133.424 361.24 134.219L358.984 135.533C357.621 134.746 356.517 132.841 356.524 131.267C356.524 130.487 356.799 129.939 357.241 129.679Z" fill="#3D0F9A"/>
<path d="M363.003 134.387L360.747 135.701C360.297 135.961 359.679 135.926 358.99 135.526L361.246 134.211C361.935 134.605 362.553 134.647 363.003 134.387Z" fill="#3D0F9A"/>
<path d="M357.69 125.259L355.435 126.573C357.665 126.058 362.503 127.141 364.015 135.589C364.008 137.162 363.459 138.276 362.567 138.799L364.809 137.493C365.709 136.973 366.271 135.863 366.271 134.275C366.278 131.091 364.043 127.212 361.268 125.61L360.675 125.23C359.284 124.422 358.604 124.724 357.69 125.259Z" fill="#3D0F9A" stroke="#3D0F9A"/>
<path d="M359.012 126.924C361.788 128.526 364.023 132.405 364.016 135.589C364.009 138.779 361.76 140.058 358.984 138.456C356.215 136.854 353.973 132.981 353.98 129.791C353.988 126.608 356.243 125.322 359.019 126.924H359.012ZM358.991 135.532C360.354 136.319 361.465 135.687 361.472 134.12C361.472 132.553 360.375 130.641 359.012 129.854C357.649 129.067 356.538 129.7 356.531 131.267C356.531 132.834 357.628 134.745 358.991 135.532Z" fill="white" stroke="#3D0F9A" stroke-miterlimit="10"/>
<path d="M54.0029 93.3452L53.9487 112.23L36.1753 122.558L36.2294 103.672L54.0029 93.3452Z" fill="#FF5A00" stroke="#3D0F9A" stroke-linejoin="round"/>
<path d="M36.2295 103.672L36.1753 122.557L14.9998 110.332L15.054 91.4468L36.2295 103.672Z" fill="white" stroke="#3D0F9A" stroke-linejoin="round"/>
<path d="M54.0029 93.3452L36.2294 103.672L15.054 91.4469L32.8274 81.1196L54.0029 93.3452Z" fill="#3D0F9A"/>
<path d="M54.0029 74.2251L53.9487 93.1102L36.1753 103.44L36.2294 84.5549L54.0029 74.2251Z" fill="#FF5A00" stroke="#3D0F9A" stroke-linejoin="round"/>
<path d="M36.2295 84.5547L36.1753 103.44L14.9998 91.2142L15.054 72.3291L36.2295 84.5547Z" fill="white" stroke="#3D0F9A" stroke-linejoin="round"/>
<path d="M54.0029 74.2256L36.2294 84.5554L15.054 72.3298L32.8274 62L54.0029 74.2256Z" fill="white" stroke="#3D0F9A" stroke-linejoin="round"/>
<path d="M230.84 79.1616C230.84 79.3868 230.809 79.5887 230.755 79.7751C230.7 79.9615 230.63 80.1168 230.537 80.2566C230.522 80.2799 230.506 80.2955 230.491 80.3188C230.397 80.443 230.289 80.5518 230.157 80.6294L233.341 78.7034C233.473 78.6257 233.574 78.517 233.675 78.3927C233.69 78.3694 233.706 78.3539 233.721 78.3306C233.729 78.3151 233.745 78.2995 233.752 78.284C233.783 78.2296 233.815 78.1831 233.838 78.1209C233.861 78.0743 233.877 78.0277 233.892 77.9811C233.908 77.9423 233.923 77.8957 233.931 77.8491C233.939 77.8103 233.954 77.7714 233.962 77.7326C233.97 77.6938 233.978 77.6549 233.985 77.6161C233.985 77.5773 234.001 77.5385 234.001 77.4996C234.001 77.4608 234.009 77.422 234.009 77.3831C234.009 77.3443 234.009 77.3055 234.009 77.2666C234.009 77.2511 234.009 77.2356 234.009 77.2123C234.009 77.2123 234.009 77.2123 234.009 77.2045C234.009 77.189 234.009 77.1657 234.009 77.1502C234.009 77.1113 234.009 77.0725 234.009 77.0337C234.009 76.9948 234.009 76.956 234.009 76.9094C234.009 76.8706 234.009 76.824 234.001 76.7851C234.001 76.7463 233.993 76.6997 233.985 76.6609C233.985 76.6143 233.978 76.5754 233.97 76.5289C233.97 76.5056 233.962 76.4745 233.954 76.4512L233.387 73.135C233.372 73.0263 234.343 72.2264 234.343 72.2264C234.343 72.3739 234.327 72.5137 234.304 72.638C234.304 72.638 234.304 72.6457 234.304 72.6535C234.273 72.8088 234.234 72.9486 234.172 73.0806C234.172 73.0806 234.172 73.0884 234.172 73.0962C234.125 73.2049 234.063 73.2981 233.993 73.3835C233.97 73.4146 233.954 73.4379 233.931 73.469C233.853 73.5544 233.768 73.6398 233.667 73.7019L236.851 71.7759C236.952 71.7138 237.038 71.6361 237.115 71.5507C237.139 71.5274 237.162 71.4963 237.177 71.4653C237.208 71.4264 237.239 71.3954 237.263 71.3565C237.294 71.3022 237.325 71.2478 237.348 71.1935C237.348 71.1935 237.348 71.1857 237.348 71.1779C237.348 71.1779 237.348 71.1702 237.348 71.1624C237.364 71.1236 237.379 71.0925 237.395 71.0537C237.41 71.0071 237.426 70.9682 237.434 70.9216C237.441 70.8828 237.457 70.8362 237.465 70.7974C237.465 70.7818 237.465 70.7585 237.472 70.7352C237.472 70.7352 237.472 70.7275 237.472 70.7197C237.472 70.7042 237.472 70.6886 237.48 70.6731C237.48 70.6343 237.496 70.5955 237.496 70.5489C237.496 70.51 237.504 70.4712 237.511 70.4246C237.511 70.3858 237.511 70.3469 237.511 70.3003C237.511 70.2693 237.511 70.2305 237.511 70.1994L237.752 35.9814V35.9659C237.752 35.9271 237.752 35.8882 237.752 35.8494C237.752 35.8106 237.752 35.7717 237.752 35.7329C237.752 35.6941 237.752 35.6552 237.744 35.6164C237.744 35.5776 237.737 35.5387 237.729 35.4921C237.729 35.4611 237.729 35.4378 237.713 35.4067C237.713 35.4067 237.713 35.4067 237.713 35.3989C237.713 35.3912 237.713 35.3834 237.713 35.3679C237.713 35.329 237.698 35.2825 237.69 35.2436C237.69 35.2048 237.674 35.1582 237.667 35.1194C237.659 35.0728 237.651 35.0339 237.636 34.9873C237.628 34.9407 237.612 34.9019 237.604 34.8553C237.604 34.832 237.597 34.8165 237.589 34.7932C237.589 34.7932 237.589 34.7854 237.589 34.7777C237.589 34.7621 237.581 34.7388 237.573 34.7233C237.558 34.6845 237.55 34.6379 237.535 34.599C237.519 34.5602 237.504 34.5136 237.496 34.4748C237.48 34.4359 237.465 34.3971 237.449 34.3505C237.434 34.3117 237.418 34.2728 237.403 34.234C237.395 34.2107 237.387 34.1952 237.379 34.1719C237.379 34.1719 237.379 34.1719 237.379 34.1641C237.379 34.1486 237.364 34.1331 237.356 34.1175C237.34 34.0787 237.325 34.0399 237.302 34.001C237.286 33.9622 237.263 33.9156 237.239 33.8768C237.216 33.8302 237.193 33.7836 237.17 33.7292C237.139 33.6748 237.115 33.6205 237.084 33.5661C237.076 33.5506 237.069 33.5351 237.061 33.5195C236.999 33.403 236.929 33.2865 236.851 33.1778C236.812 33.1157 236.766 33.0535 236.727 32.9914C236.727 32.9914 236.727 32.9914 236.727 32.9837C236.727 32.9837 236.727 32.9837 236.727 32.9759C236.696 32.9293 236.665 32.8827 236.626 32.8439C236.595 32.805 236.564 32.7662 236.533 32.7274C236.502 32.6885 236.471 32.6497 236.44 32.6186C236.408 32.5798 236.377 32.5487 236.346 32.5099C236.339 32.5021 236.331 32.4944 236.323 32.4866C236.323 32.4866 236.323 32.4866 236.315 32.4788C236.292 32.4555 236.276 32.4323 236.253 32.409C236.222 32.3701 236.183 32.3391 236.152 32.308C236.113 32.2692 236.082 32.2381 236.043 32.207C236.005 32.176 235.974 32.1449 235.935 32.1061C235.919 32.0905 235.896 32.075 235.88 32.0595C235.88 32.0595 235.873 32.0595 235.865 32.0517C235.849 32.0439 235.834 32.0284 235.826 32.0206C235.787 31.9896 235.756 31.9663 235.717 31.9352C235.678 31.9119 235.647 31.8808 235.609 31.8576C235.577 31.8343 235.539 31.811 235.508 31.7877C235.477 31.7644 235.438 31.7411 235.407 31.7255L192.809 5.89508C192.786 5.87954 192.762 5.86401 192.731 5.84848C192.7 5.83294 192.669 5.80965 192.63 5.79411C192.599 5.77858 192.568 5.76305 192.537 5.74751C192.506 5.73198 192.475 5.71645 192.444 5.70868C192.413 5.69315 192.382 5.68539 192.351 5.66985C192.351 5.66985 192.335 5.66985 192.327 5.66985C192.304 5.66209 192.281 5.65432 192.258 5.64656C192.226 5.63879 192.195 5.62326 192.157 5.61549C192.125 5.60772 192.094 5.59996 192.056 5.59219C192.017 5.59219 191.986 5.57666 191.955 5.57666C191.931 5.57666 191.908 5.57666 191.885 5.57666C191.885 5.57666 191.885 5.57666 191.877 5.57666C191.869 5.57666 191.861 5.57666 191.854 5.57666C191.815 5.57666 191.776 5.57666 191.745 5.57666C191.706 5.57666 191.66 5.57666 191.621 5.57666C191.574 5.57666 191.527 5.58443 191.481 5.59996C191.427 5.61549 191.372 5.62326 191.326 5.64656C191.256 5.66985 191.194 5.70092 191.131 5.73975L187.947 7.66577C188.056 7.60364 188.172 7.55705 188.297 7.52598C188.421 7.50268 188.561 7.49492 188.701 7.50268C188.701 7.50268 188.701 7.50268 188.708 7.50268C188.848 7.51821 188.996 7.54928 189.151 7.60364C189.268 7.64248 189.384 7.7046 189.501 7.76673" fill="#3D0F9A"/>
<path d="M230.84 79.1616C230.84 79.3868 230.809 79.5887 230.755 79.7751C230.7 79.9615 230.63 80.1168 230.537 80.2566C230.522 80.2799 230.506 80.2955 230.491 80.3188C230.397 80.443 230.289 80.5518 230.157 80.6294L233.341 78.7034C233.473 78.6257 233.574 78.517 233.675 78.3927C233.69 78.3694 233.706 78.3539 233.721 78.3306C233.729 78.3151 233.745 78.2995 233.752 78.284C233.783 78.2296 233.815 78.1831 233.838 78.1209C233.861 78.0743 233.877 78.0277 233.892 77.9811C233.908 77.9423 233.923 77.8957 233.931 77.8491C233.939 77.8103 233.954 77.7714 233.962 77.7326C233.97 77.6938 233.978 77.6549 233.985 77.6161C233.985 77.5773 234.001 77.5385 234.001 77.4996C234.001 77.4608 234.009 77.422 234.009 77.3831C234.009 77.3443 234.009 77.3055 234.009 77.2666C234.009 77.2511 234.009 77.2356 234.009 77.2123C234.009 77.2123 234.009 77.2123 234.009 77.2045C234.009 77.189 234.009 77.1657 234.009 77.1502C234.009 77.1113 234.009 77.0725 234.009 77.0337C234.009 76.9948 234.009 76.956 234.009 76.9094C234.009 76.8706 234.009 76.824 234.001 76.7851C234.001 76.7463 233.993 76.6997 233.985 76.6609C233.985 76.6143 233.978 76.5754 233.97 76.5289C233.97 76.5056 233.962 76.4745 233.954 76.4512L233.387 73.135C233.372 73.0263 234.343 72.2264 234.343 72.2264C234.343 72.3739 234.327 72.5137 234.304 72.638C234.304 72.638 234.304 72.6457 234.304 72.6535C234.273 72.8088 234.234 72.9486 234.172 73.0806C234.172 73.0806 234.172 73.0884 234.172 73.0962C234.125 73.2049 234.063 73.2981 233.993 73.3835C233.97 73.4146 233.954 73.4379 233.931 73.469C233.853 73.5544 233.768 73.6398 233.667 73.7019L236.851 71.7759C236.952 71.7138 237.038 71.6361 237.115 71.5507C237.139 71.5274 237.162 71.4963 237.177 71.4653C237.208 71.4264 237.239 71.3954 237.263 71.3565C237.294 71.3022 237.325 71.2478 237.348 71.1935C237.348 71.1935 237.348 71.1857 237.348 71.1779C237.348 71.1779 237.348 71.1702 237.348 71.1624C237.364 71.1236 237.379 71.0925 237.395 71.0537C237.41 71.0071 237.426 70.9682 237.434 70.9216C237.441 70.8828 237.457 70.8362 237.465 70.7974C237.465 70.7818 237.465 70.7585 237.472 70.7352C237.472 70.7352 237.472 70.7275 237.472 70.7197C237.472 70.7042 237.472 70.6886 237.48 70.6731C237.48 70.6343 237.496 70.5955 237.496 70.5489C237.496 70.51 237.504 70.4712 237.511 70.4246C237.511 70.3858 237.511 70.3469 237.511 70.3003C237.511 70.2693 237.511 70.2305 237.511 70.1994L237.752 35.9814V35.9659C237.752 35.9271 237.752 35.8882 237.752 35.8494C237.752 35.8106 237.752 35.7717 237.752 35.7329C237.752 35.6941 237.752 35.6552 237.744 35.6164C237.744 35.5776 237.737 35.5387 237.729 35.4921C237.729 35.4611 237.729 35.4378 237.713 35.4067C237.713 35.4067 237.713 35.4067 237.713 35.3989C237.713 35.3912 237.713 35.3834 237.713 35.3679C237.713 35.329 237.698 35.2825 237.69 35.2436C237.69 35.2048 237.674 35.1582 237.667 35.1194C237.659 35.0728 237.651 35.0339 237.636 34.9873C237.628 34.9407 237.612 34.9019 237.604 34.8553C237.604 34.832 237.597 34.8165 237.589 34.7932C237.589 34.7932 237.589 34.7854 237.589 34.7777C237.589 34.7621 237.581 34.7388 237.573 34.7233C237.558 34.6845 237.55 34.6379 237.535 34.599C237.519 34.5602 237.504 34.5136 237.496 34.4748C237.48 34.4359 237.465 34.3971 237.449 34.3505C237.434 34.3117 237.418 34.2728 237.403 34.234C237.395 34.2107 237.387 34.1952 237.379 34.1719C237.379 34.1719 237.379 34.1719 237.379 34.1641C237.379 34.1486 237.364 34.1331 237.356 34.1175C237.34 34.0787 237.325 34.0399 237.302 34.001C237.286 33.9622 237.263 33.9156 237.239 33.8768C237.216 33.8302 237.193 33.7836 237.17 33.7292C237.139 33.6748 237.115 33.6205 237.084 33.5661C237.076 33.5506 237.069 33.5351 237.061 33.5195C236.999 33.403 236.929 33.2865 236.851 33.1778C236.812 33.1157 236.766 33.0535 236.727 32.9914C236.727 32.9914 236.727 32.9914 236.727 32.9837C236.727 32.9837 236.727 32.9837 236.727 32.9759C236.696 32.9293 236.665 32.8827 236.626 32.8439C236.595 32.805 236.564 32.7662 236.533 32.7274C236.502 32.6885 236.471 32.6497 236.44 32.6186C236.408 32.5798 236.377 32.5487 236.346 32.5099C236.339 32.5021 236.331 32.4944 236.323 32.4866C236.323 32.4866 236.323 32.4866 236.315 32.4788C236.292 32.4555 236.276 32.4323 236.253 32.409C236.222 32.3701 236.183 32.3391 236.152 32.308C236.113 32.2692 236.082 32.2381 236.043 32.207C236.005 32.176 235.974 32.1449 235.935 32.1061C235.919 32.0905 235.896 32.075 235.88 32.0595C235.88 32.0595 235.873 32.0595 235.865 32.0517C235.849 32.0439 235.834 32.0284 235.826 32.0206C235.787 31.9896 235.756 31.9663 235.717 31.9352C235.678 31.9119 235.647 31.8808 235.609 31.8576C235.577 31.8343 235.539 31.811 235.508 31.7877C235.477 31.7644 235.438 31.7411 235.407 31.7255L192.809 5.89508C192.786 5.87954 192.762 5.86401 192.731 5.84848C192.7 5.83294 192.669 5.80965 192.63 5.79411C192.599 5.77858 192.568 5.76305 192.537 5.74751C192.506 5.73198 192.475 5.71645 192.444 5.70868C192.413 5.69315 192.382 5.68539 192.351 5.66985C192.351 5.66985 192.335 5.66985 192.327 5.66985C192.304 5.66209 192.281 5.65432 192.258 5.64656C192.226 5.63879 192.195 5.62326 192.157 5.61549C192.125 5.60772 192.094 5.59996 192.056 5.59219C192.017 5.59219 191.986 5.57666 191.955 5.57666C191.931 5.57666 191.908 5.57666 191.885 5.57666C191.885 5.57666 191.885 5.57666 191.877 5.57666C191.869 5.57666 191.861 5.57666 191.854 5.57666C191.815 5.57666 191.776 5.57666 191.745 5.57666C191.706 5.57666 191.66 5.57666 191.621 5.57666C191.574 5.57666 191.527 5.58443 191.481 5.59996C191.427 5.61549 191.372 5.62326 191.326 5.64656C191.256 5.66985 191.194 5.70092 191.131 5.73975L187.947 7.66577C188.056 7.60364 188.172 7.55705 188.297 7.52598C188.421 7.50268 188.561 7.49492 188.701 7.50268C188.701 7.50268 188.701 7.50268 188.708 7.50268C188.848 7.51821 188.996 7.54928 189.151 7.60364C189.268 7.64248 189.384 7.7046 189.501 7.76673" stroke="#3D0F9A"/>
<path d="M233.924 35.4689C233.473 34.6535 232.875 33.9933 232.238 33.6128L189.641 7.78233C188.328 6.99794 187.256 7.61924 187.241 9.18802L187 43.406C186.992 44.1593 187.233 45.0291 187.684 45.8368C188.134 46.6523 188.732 47.3046 189.369 47.6929L215.494 63.536C215.836 63.738 216.162 64.0564 216.45 64.4447L227.144 79.216C227.548 79.7752 227.998 80.2023 228.448 80.4742C228.922 80.7615 229.396 80.8702 229.815 80.7693C230.631 80.5829 231.004 79.6587 230.786 78.3773L230.219 75.0611C230.103 74.3544 230.227 73.7797 230.569 73.4768C230.903 73.1739 231.407 73.1894 231.967 73.5312C232.603 73.9117 233.194 73.9738 233.652 73.7098C234.11 73.4457 234.359 72.8866 234.366 72.1255L234.607 37.9075C234.615 37.1464 234.366 36.2766 233.924 35.4767V35.4689Z" fill="#FF5A00" stroke="#3D0F9A"/>
<path d="M293.51 111.943C294.901 112.743 296.034 114.692 296.034 116.285L296.089 151.163C296.089 152.762 294.97 153.423 293.58 152.63L266.026 136.881C265.668 136.671 265.319 136.593 265.024 136.648L253.701 138.581C253.274 138.651 252.8 138.535 252.326 138.263C251.821 137.976 251.324 137.51 250.882 136.896C250.027 135.716 249.647 134.333 249.88 133.3L250.485 130.629C250.61 130.062 250.485 129.324 250.128 128.602C249.787 127.918 249.266 127.305 248.738 127.002C247.27 126.155 246.144 124.222 246.144 122.622L246.082 87.7359C246.082 86.136 247.208 85.4837 248.598 86.2758L250.097 87.1379L293.51 111.943Z" fill="white"/>
<path d="M296.034 116.285C296.034 114.692 294.901 112.743 293.51 111.943L250.097 87.1379L248.598 86.2758C247.208 85.4837 246.082 86.136 246.082 87.7359L246.144 122.622C246.144 124.222 247.27 126.155 248.738 127.002C249.266 127.305 249.787 127.918 250.128 128.602C250.485 129.324 250.61 130.062 250.485 130.629L249.88 133.3C249.647 134.333 250.027 135.716 250.882 136.896C251.324 137.51 251.821 137.976 252.326 138.263C252.8 138.535 253.274 138.651 253.701 138.581L265.024 136.648C265.319 136.593 265.668 136.671 266.026 136.881L293.58 152.63C294.97 153.423 296.089 152.762 296.089 151.163L296.034 116.277V116.285Z" stroke="#3D0F9A"/>
<path d="M299.397 114.241V114.327L299.42 114.342L299.475 149.228V149.251V149.376V149.492C299.467 149.539 299.459 149.578 299.459 149.616C299.459 149.663 299.444 149.702 299.444 149.741C299.436 149.756 299.436 149.772 299.436 149.787V149.803C299.428 149.826 299.42 149.842 299.42 149.865C299.413 149.912 299.405 149.958 299.389 149.997C299.374 150.044 299.358 150.082 299.343 150.129C299.327 150.176 299.304 150.214 299.288 150.253V150.261V150.277C299.265 150.339 299.226 150.393 299.195 150.447C299.164 150.486 299.133 150.517 299.102 150.556C299.079 150.587 299.055 150.618 299.032 150.642C298.947 150.727 298.853 150.805 298.752 150.867L295.466 152.772C295.442 152.788 295.416 152.803 295.39 152.816L295.466 152.772C295.541 152.722 295.605 152.661 295.669 152.591C295.692 152.568 295.716 152.537 295.739 152.505C295.817 152.42 295.879 152.319 295.933 152.21V152.203C295.995 152.063 296.042 151.915 296.073 151.752V151.737C296.104 151.566 296.12 151.379 296.12 151.185V150.432L295.413 115.919C295.376 113.854 294.543 112.703 294.131 112.385C293.945 112.222 293.759 112.082 293.557 111.966L249.825 86.9741L249.297 86.6712L248.645 86.2985C248.474 86.2053 248.303 86.1276 248.14 86.0732H248.132C247.977 86.0189 247.822 85.9878 247.674 85.9723H247.666C247.519 85.9567 247.379 85.9723 247.247 85.9956H247.239C247.107 86.0266 246.983 86.0732 246.874 86.1354L250.237 84.186C250.299 84.1472 250.369 84.1162 250.439 84.0929C250.493 84.0696 250.547 84.0618 250.602 84.0462H250.61C250.656 84.0307 250.711 84.0229 250.757 84.0229H250.889H251.006H251.029H251.037C251.068 84.0307 251.091 84.0307 251.122 84.0307C251.161 84.0307 251.192 84.0462 251.231 84.0462C251.262 84.054 251.301 84.0618 251.332 84.0696C251.363 84.0773 251.402 84.0928 251.433 84.1006C251.456 84.1084 251.472 84.1239 251.495 84.1239H251.503C251.518 84.1317 251.526 84.1317 251.534 84.1317H251.534C251.565 84.1472 251.604 84.155 251.635 84.1705C251.666 84.1783 251.705 84.1938 251.736 84.2093C251.767 84.2249 251.806 84.2404 251.837 84.2559C251.868 84.2715 251.907 84.2948 251.938 84.3103C251.961 84.3258 252.007 84.3491 252.007 84.3491L296.92 110.016C297.238 110.203 297.541 110.451 297.82 110.731C297.844 110.754 297.867 110.785 297.89 110.809L297.898 110.816L297.921 110.84L297.922 110.84C297.96 110.879 297.991 110.91 298.022 110.948C298.061 110.987 298.092 111.026 298.123 111.065L298.217 111.181C298.255 111.228 298.286 111.275 298.325 111.321C298.38 111.391 298.426 111.469 298.481 111.546C298.55 111.647 298.613 111.748 298.675 111.857C298.682 111.857 298.682 111.873 298.682 111.873C298.69 111.873 298.69 111.888 298.69 111.888C298.721 111.943 298.76 112.005 298.791 112.067C298.815 112.113 298.846 112.168 298.869 112.214C298.884 112.253 298.908 112.3 298.931 112.346C298.947 112.393 298.97 112.432 298.985 112.471C299.001 112.502 299.016 112.54 299.032 112.579L299.032 112.579C299.048 112.618 299.063 112.665 299.079 112.704C299.094 112.742 299.11 112.789 299.125 112.828C299.141 112.874 299.156 112.913 299.172 112.96C299.18 113.006 299.195 113.045 299.211 113.092C299.226 113.139 299.234 113.177 299.249 113.224C299.265 113.271 299.28 113.309 299.288 113.356C299.296 113.403 299.312 113.441 299.319 113.488C299.327 113.535 299.335 113.573 299.343 113.62C299.35 113.651 299.358 113.682 299.358 113.713V113.721V113.744C299.366 113.783 299.374 113.83 299.374 113.869C299.381 113.907 299.389 113.954 299.389 113.993C299.397 114.032 299.397 114.078 299.397 114.117V114.241Z" fill="#3D0F9A"/>
<path d="M299.397 114.327C299.397 114.327 299.397 114.265 299.397 114.241C299.397 114.202 299.397 114.164 299.397 114.117C299.397 114.078 299.397 114.032 299.389 113.993C299.389 113.954 299.381 113.907 299.374 113.869C299.374 113.83 299.366 113.783 299.358 113.744C299.358 113.737 299.358 113.729 299.358 113.721C299.358 113.721 299.358 113.721 299.358 113.713C299.358 113.682 299.35 113.651 299.343 113.62C299.335 113.573 299.327 113.535 299.319 113.488C299.312 113.441 299.296 113.403 299.288 113.356C299.28 113.309 299.265 113.271 299.249 113.224C299.234 113.177 299.226 113.139 299.211 113.092C299.195 113.045 299.18 113.006 299.172 112.96C299.156 112.913 299.141 112.874 299.125 112.828C299.11 112.789 299.094 112.742 299.079 112.704C299.063 112.665 299.047 112.618 299.032 112.579C299.016 112.541 299.001 112.502 298.985 112.471C298.97 112.432 298.947 112.393 298.931 112.346C298.908 112.3 298.884 112.253 298.869 112.214C298.846 112.168 298.815 112.113 298.791 112.067C298.76 112.005 298.721 111.943 298.69 111.888C298.69 111.888 298.69 111.873 298.682 111.873C298.682 111.873 298.682 111.857 298.675 111.857C298.613 111.748 298.55 111.647 298.481 111.546C298.426 111.469 298.38 111.391 298.325 111.321C298.286 111.275 298.255 111.228 298.217 111.181C298.185 111.143 298.154 111.104 298.123 111.065C298.092 111.026 298.061 110.987 298.022 110.948C297.991 110.91 297.96 110.879 297.921 110.84C297.921 110.84 297.906 110.824 297.898 110.816C297.898 110.816 297.898 110.816 297.89 110.809C297.867 110.785 297.844 110.754 297.82 110.731C297.541 110.451 297.238 110.203 296.92 110.016L252.007 84.3491C252.007 84.3491 251.961 84.3258 251.938 84.3103C251.907 84.2948 251.868 84.2715 251.837 84.2559C251.806 84.2404 251.767 84.2249 251.736 84.2093C251.705 84.1938 251.666 84.1783 251.635 84.1705C251.604 84.155 251.565 84.1472 251.534 84.1317C251.526 84.1317 251.518 84.1317 251.503 84.1239C251.503 84.1239 251.503 84.1239 251.495 84.1239C251.472 84.1239 251.456 84.1084 251.433 84.1006C251.402 84.0928 251.363 84.0773 251.332 84.0696C251.301 84.0618 251.262 84.054 251.231 84.0462C251.192 84.0462 251.161 84.0307 251.122 84.0307C251.091 84.0307 251.068 84.0307 251.037 84.0229C251.037 84.0229 251.037 84.0229 251.029 84.0229C251.029 84.0229 251.013 84.0229 251.006 84.0229C250.967 84.0229 250.928 84.0229 250.889 84.0229C250.843 84.0229 250.804 84.0229 250.757 84.0229C250.711 84.0229 250.656 84.0307 250.61 84.0462C250.61 84.0462 250.61 84.0462 250.602 84.0462C250.547 84.0618 250.493 84.0696 250.439 84.0929C250.369 84.1162 250.299 84.1472 250.237 84.186L246.874 86.1354C246.983 86.0732 247.107 86.0266 247.239 85.9956C247.239 85.9956 247.239 85.9956 247.247 85.9956C247.379 85.9723 247.519 85.9567 247.666 85.9723C247.666 85.9723 247.666 85.9723 247.674 85.9723C247.822 85.9878 247.977 86.0189 248.132 86.0732C248.132 86.0732 248.132 86.0732 248.14 86.0732C248.303 86.1276 248.474 86.2053 248.645 86.2985L249.297 86.6712L249.825 86.9741L293.557 111.966C293.759 112.082 293.945 112.222 294.131 112.385C294.543 112.703 295.376 113.854 295.413 115.919L296.12 150.432V151.185C296.12 151.379 296.104 151.566 296.073 151.737C296.073 151.737 296.073 151.744 296.073 151.752C296.042 151.915 295.995 152.063 295.933 152.203C295.933 152.203 295.933 152.203 295.933 152.21C295.879 152.319 295.817 152.42 295.739 152.505C295.716 152.537 295.692 152.568 295.669 152.591C295.584 152.684 295.498 152.762 295.39 152.816L298.752 150.867C298.853 150.805 298.947 150.727 299.032 150.642C299.055 150.618 299.079 150.587 299.102 150.556C299.133 150.517 299.164 150.486 299.195 150.447C299.226 150.393 299.265 150.339 299.288 150.277C299.288 150.277 299.288 150.269 299.288 150.261C299.288 150.261 299.288 150.261 299.288 150.253C299.304 150.214 299.327 150.176 299.343 150.129C299.358 150.082 299.374 150.044 299.389 149.997C299.405 149.958 299.413 149.912 299.42 149.865C299.42 149.842 299.428 149.826 299.436 149.803C299.436 149.803 299.436 149.795 299.436 149.787C299.436 149.772 299.436 149.756 299.444 149.741C299.444 149.702 299.459 149.663 299.459 149.616C299.459 149.578 299.467 149.539 299.475 149.492C299.475 149.453 299.475 149.415 299.475 149.376C299.475 149.337 299.475 149.298 299.475 149.251C299.475 149.251 299.475 149.236 299.475 149.228L299.42 114.342L299.397 114.327Z" stroke="#3D0F9A"/>
<path d="M196.411 28.7633C194.383 27.598 192.724 28.5524 192.724 30.8804C192.724 33.2083 194.383 36.0689 196.411 37.2342C198.439 38.3995 200.099 37.4451 200.099 35.1171C200.099 32.7891 198.439 29.9286 196.411 28.7633Z" fill="white"/>
<path d="M198.049 37.9986C197.498 37.9986 196.896 37.8193 196.278 37.4634C194.171 36.2533 192.458 33.3005 192.458 30.8803C192.458 29.6543 192.89 28.7316 193.675 28.2834C194.46 27.8326 195.478 27.9222 196.546 28.5339C198.654 29.744 200.366 32.6968 200.366 35.117C200.366 36.3429 199.934 37.2657 199.149 37.7139C198.821 37.9037 198.45 37.996 198.052 37.996L198.049 37.9986ZM194.772 28.5286C194.465 28.5286 194.184 28.5998 193.937 28.7395C193.325 29.0928 192.986 29.8521 192.986 30.8803C192.986 33.1318 194.582 35.8789 196.541 37.0047C197.437 37.5188 198.267 37.6084 198.882 37.2552C199.494 36.9019 199.833 36.1426 199.833 35.1144C199.833 32.8629 198.237 30.1157 196.278 28.99C195.743 28.6815 195.228 28.5259 194.772 28.5259V28.5286Z" fill="white"/>
<path d="M210.533 37.8942C208.505 36.7289 206.846 37.6833 206.846 40.0112C206.846 42.3392 208.505 45.1997 210.533 46.365C212.562 47.5303 214.221 46.5759 214.221 44.248C214.221 41.92 212.562 39.0595 210.533 37.8942Z" fill="white"/>
<path d="M212.175 47.1295C211.624 47.1295 211.022 46.9502 210.404 46.5943C208.296 45.3842 206.581 42.4314 206.581 40.0111C206.581 38.7852 207.013 37.8651 207.798 37.4143C208.583 36.9634 209.601 37.0531 210.669 37.6647C212.777 38.8748 214.489 41.8276 214.489 44.2479C214.489 45.4738 214.057 46.3966 213.273 46.8447C212.944 47.0346 212.573 47.1268 212.175 47.1268V47.1295ZM208.898 37.6594C208.591 37.6594 208.31 37.7306 208.063 37.8704C207.451 38.2236 207.111 38.9829 207.111 40.0111C207.111 42.2626 208.707 45.0098 210.669 46.1355C211.565 46.6497 212.395 46.7393 213.01 46.386C213.622 46.0327 213.962 45.2734 213.962 44.2452C213.962 41.9937 212.366 39.2466 210.407 38.1208C209.871 37.8124 209.357 37.6568 208.901 37.6568L208.898 37.6594Z" fill="white"/>
<path d="M224.659 46.0275C222.631 44.8622 220.972 45.8166 220.972 48.1445C220.972 50.4725 222.631 53.333 224.659 54.4983C226.688 55.6636 228.347 54.7092 228.347 52.3813C228.347 50.0533 226.688 47.1928 224.659 46.0275Z" fill="white"/>
<path d="M226.297 55.2603C225.746 55.2603 225.144 55.0811 224.526 54.7251C222.419 53.515 220.706 50.5622 220.706 48.142C220.706 46.9161 221.138 45.9933 221.923 45.5451C222.708 45.0943 223.726 45.1839 224.794 45.7956C226.902 47.0057 228.617 49.9585 228.617 52.3787C228.617 53.6047 228.185 54.5274 227.4 54.9756C227.071 55.1654 226.7 55.2577 226.303 55.2577L226.297 55.2603ZM223.021 45.7903C222.713 45.7903 222.432 45.8615 222.185 46.0012C221.573 46.3545 221.234 47.1138 221.234 48.142C221.234 50.3935 222.83 53.1407 224.789 54.2664C225.685 54.7805 226.515 54.8701 227.13 54.5169C227.742 54.1636 228.082 53.4043 228.082 52.3761C228.082 50.1246 226.486 47.3774 224.524 46.2517C223.988 45.9432 223.474 45.7877 223.018 45.7877L223.021 45.7903Z" fill="white"/>
<path d="M287.793 120.165L283.959 122.379L281.659 118.395" stroke="white" stroke-width="1.73485" stroke-linecap="round" stroke-linejoin="round"/>
<path d="M271.729 129.006L253.187 118.482C252.793 118.25 252.458 118.444 252.458 118.889C252.458 119.335 252.773 119.897 253.187 120.11L271.729 130.634C272.123 130.867 272.458 130.673 272.458 130.227C272.458 129.782 272.143 129.22 271.729 129.006Z" fill="#3D0F9A"/>
<path d="M271.729 123.814L253.187 113.29C252.793 113.058 252.458 113.252 252.458 113.697C252.458 114.143 252.773 114.705 253.187 114.918L271.729 125.442C272.123 125.675 272.458 125.481 272.458 125.035C272.458 124.59 272.143 124.028 271.729 123.814Z" fill="#3D0F9A"/>
<path d="M271.729 118.623L253.187 108.099C252.793 107.866 252.458 108.06 252.458 108.506C252.458 108.952 252.773 109.514 253.187 109.727L271.729 120.251C272.123 120.484 272.458 120.29 272.458 119.844C272.458 119.398 272.143 118.836 271.729 118.623Z" fill="#3D0F9A"/>
<path d="M115.078 123.08C127.13 130.037 129.212 140.163 119.72 145.685C110.216 151.206 92.7322 150.043 80.6799 143.072C77.641 141.314 75.2487 139.374 73.5029 137.344L58.6575 132.844C58.5411 132.805 58.4376 132.766 58.3471 132.714C57.7393 132.365 57.9462 131.719 58.8385 131.55L70.089 129.43C70.0631 126.016 72.0158 122.822 76.0504 120.481C85.5551 114.959 103.026 116.136 115.078 123.093V123.08Z" fill="white"/>
<path d="M345.003 32.3452L344.949 51.2303L327.175 61.5576L327.229 42.6725L345.003 32.3452Z" fill="#3D0F9A" stroke="#3D0F9A" stroke-linejoin="round"/>
<path d="M327.229 42.6723L327.175 61.5575L306 49.3319L306.054 30.4468L327.229 42.6723Z" fill="white" stroke="#3D0F9A" stroke-linejoin="round"/>
<path d="M345.003 32.3452L327.229 42.6724L306.054 30.4469L323.827 20.1196L345.003 32.3452Z" fill="#3D0F9A"/>
<path d="M345.003 13.2251L344.949 32.1102L327.175 42.44L327.229 23.5549L345.003 13.2251Z" fill="#3D0F9A" stroke="#3D0F9A" stroke-linejoin="round"/>
<path d="M327.229 23.5542L327.175 42.4393L306 30.2137L306.054 11.3286L327.229 23.5542Z" fill="white" stroke="#3D0F9A" stroke-linejoin="round"/>
<path d="M345.003 13.2256L327.229 23.5554L306.054 11.3298L323.827 1L345.003 13.2256Z" fill="white" stroke="#3D0F9A" stroke-linejoin="round"/>
<path d="M159.502 35.3718C159.502 33.9195 158.469 32.1488 157.203 31.4188L116.291 8.04248C115.025 7.32022 114 7.91822 114 9.3705L114.054 41.1499C114.054 42.6022 115.08 44.3729 116.415 45.1417C116.897 45.4213 117.371 45.9727 117.681 46.6018C118.007 47.2619 118.124 47.9298 118.007 48.4501L117.456 50.881C117.239 51.8207 117.588 53.0788 118.372 54.1583C118.776 54.7175 119.227 55.1369 119.685 55.4009C120.12 55.6494 120.547 55.7504 120.935 55.6883L131.257 53.9331C131.528 53.8865 131.847 53.9564 132.173 54.1428L157.273 68.487C158.539 69.2092 159.564 68.6113 159.557 67.1512L159.51 35.3796L159.502 35.3718Z" fill="#3D0F9A" stroke="#3D0F9A"/>
<path d="M119.351 6.27958L160.264 29.6559C161.018 29.9941 162.528 31.266 162.531 33.6477L162.578 65.4194V65.4349V65.5436V65.6523C162.578 65.6912 162.57 65.7222 162.57 65.7611C162.57 65.7999 162.555 65.831 162.555 65.8698C162.547 65.8776 162.547 65.8931 162.547 65.9086V65.9242C162.539 65.9397 162.539 65.963 162.539 65.9785C162.531 66.0174 162.516 66.0562 162.508 66.095C162.5 66.1416 162.485 66.1804 162.469 66.2193C162.454 66.2581 162.438 66.2892 162.423 66.328V66.3358V66.3435C162.399 66.3979 162.368 66.4523 162.337 66.4989C162.306 66.5377 162.275 66.5688 162.252 66.5998C162.228 66.6231 162.213 66.6542 162.19 66.6775C162.12 66.7629 162.034 66.8328 161.941 66.8872L158.881 68.6656C158.974 68.6113 159.052 68.5336 159.13 68.456C159.153 68.4327 159.169 68.4016 159.192 68.3783L159.192 68.3782C159.254 68.2928 159.316 68.2074 159.363 68.1065V68.0987C159.425 67.9744 159.464 67.8346 159.495 67.6871V67.6716C159.526 67.524 159.541 67.3532 159.541 67.1745L159.495 35.4029C159.495 35.2243 159.479 35.0379 159.448 34.8515V34.8437C159.417 34.6574 159.37 34.471 159.316 34.2768C159.262 34.0827 159.192 33.8963 159.106 33.7099C159.029 33.5312 158.936 33.3526 158.835 33.174C158.827 33.1662 158.827 33.1585 158.827 33.1585C158.726 32.9799 158.617 32.809 158.493 32.6459C158.369 32.4828 158.237 32.3275 158.105 32.1799L158.097 32.1722C157.965 32.0246 157.825 31.8926 157.677 31.7761L157.67 31.7683C157.522 31.6441 157.367 31.5431 157.211 31.4499L116.299 8.07358C116.144 7.98815 115.988 7.91826 115.841 7.86389H115.833C115.685 7.80953 115.546 7.78623 115.414 7.7707H115.406C115.274 7.76293 115.142 7.7707 115.025 7.794H115.018C114.914 7.81476 114.81 7.84786 114.717 7.8988L114.684 7.91826C114.695 7.9115 114.706 7.90502 114.717 7.8988L117.743 6.13979C117.806 6.10873 117.868 6.07766 117.93 6.05436C117.976 6.03883 118.031 6.0233 118.077 6.01553H118.085C118.132 6.00776 118.171 6 118.217 6H118.334H118.442H118.458H118.466H118.543C118.574 6 118.613 6.01553 118.644 6.01553L118.738 6.03883L118.831 6.06213C118.846 6.06213 118.87 6.07766 118.885 6.07766H118.893C118.901 6.08543 118.908 6.08543 118.916 6.08543C118.947 6.0932 118.978 6.10096 119.009 6.11649C119.04 6.13203 119.072 6.13979 119.103 6.15532L119.196 6.20192L119.289 6.24852C119.312 6.25629 119.351 6.27958 119.351 6.27958Z" fill="white"/>
<path d="M160.264 29.6559L119.351 6.27958C119.351 6.27958 119.312 6.25629 119.289 6.24852C119.258 6.23299 119.227 6.21745 119.196 6.20192C119.165 6.18639 119.134 6.17085 119.103 6.15532C119.072 6.13979 119.04 6.13203 119.009 6.11649C118.978 6.10096 118.947 6.0932 118.916 6.08543C118.908 6.08543 118.901 6.08543 118.893 6.07766C118.893 6.07766 118.893 6.07766 118.885 6.07766C118.87 6.07766 118.846 6.06213 118.831 6.06213C118.8 6.05436 118.769 6.04659 118.738 6.03883C118.706 6.03106 118.675 6.0233 118.644 6.01553C118.613 6.01553 118.574 6 118.543 6C118.52 6 118.497 6 118.466 6H118.458H118.442C118.404 6 118.373 6 118.334 6C118.295 6 118.256 6 118.217 6C118.171 6 118.132 6.00776 118.085 6.01553C118.085 6.01553 118.085 6.01553 118.077 6.01553C118.031 6.0233 117.976 6.03883 117.93 6.05436C117.868 6.07766 117.806 6.10873 117.743 6.13979L114.684 7.91826C114.785 7.85613 114.901 7.81729 115.018 7.794C115.018 7.794 115.018 7.794 115.025 7.794C115.142 7.7707 115.274 7.76293 115.406 7.7707C115.406 7.7707 115.406 7.7707 115.414 7.7707C115.546 7.78623 115.685 7.80953 115.833 7.86389H115.841C115.988 7.91826 116.144 7.98815 116.299 8.07358L157.211 31.4499C157.367 31.5431 157.522 31.6441 157.67 31.7683C157.67 31.7683 157.67 31.7683 157.677 31.7761C157.825 31.8926 157.965 32.0246 158.097 32.1722C158.097 32.1722 158.097 32.1722 158.105 32.1799C158.237 32.3275 158.369 32.4828 158.493 32.6459C158.617 32.809 158.726 32.9799 158.827 33.1585C158.827 33.1585 158.827 33.1662 158.835 33.174C158.936 33.3526 159.029 33.5312 159.106 33.7099C159.192 33.8963 159.262 34.0827 159.316 34.2768C159.37 34.471 159.417 34.6574 159.448 34.8437C159.448 34.8437 159.448 34.8437 159.448 34.8515C159.479 35.0379 159.495 35.2243 159.495 35.4029L159.541 67.1745C159.541 67.3532 159.526 67.524 159.495 67.6716C159.495 67.6716 159.495 67.6793 159.495 67.6871C159.464 67.8346 159.425 67.9744 159.363 68.0987C159.363 68.0987 159.363 68.0987 159.363 68.1065C159.316 68.2074 159.254 68.2929 159.192 68.3783C159.169 68.4016 159.153 68.4327 159.13 68.456C159.052 68.5336 158.974 68.6113 158.881 68.6656L161.941 66.8872C162.034 66.8328 162.12 66.7629 162.19 66.6775C162.213 66.6542 162.228 66.6231 162.252 66.5998C162.275 66.5688 162.306 66.5377 162.337 66.4989C162.368 66.4523 162.399 66.3979 162.423 66.3435C162.423 66.3435 162.423 66.3435 162.423 66.3358C162.423 66.3358 162.423 66.3358 162.423 66.328C162.438 66.2892 162.454 66.2581 162.469 66.2193C162.485 66.1804 162.5 66.1416 162.508 66.095C162.516 66.0562 162.531 66.0174 162.539 65.9785C162.539 65.963 162.539 65.9397 162.547 65.9242C162.547 65.9242 162.547 65.9164 162.547 65.9086C162.547 65.8931 162.547 65.8776 162.555 65.8698C162.555 65.831 162.57 65.7999 162.57 65.7611C162.57 65.7222 162.578 65.6912 162.578 65.6523C162.578 65.6135 162.578 65.5824 162.578 65.5436C162.578 65.5048 162.578 65.4737 162.578 65.4349V65.4194L162.531 33.6477C162.528 31.266 161.018 29.9941 160.264 29.6559Z" stroke="#3D0F9A" stroke-linejoin="round"/>
<path d="M298.539 66.9972L298.538 66.9975C297.724 67.452 296.629 67.6863 295.516 67.684C294.402 67.6818 293.305 67.4431 292.484 66.9879L292.484 66.9875C291.655 66.5301 291.319 65.9757 291.316 65.4936C291.313 65.0125 291.642 64.4596 292.465 64.0028L292.465 64.0028L292.466 64.0025C293.28 63.548 294.374 63.3137 295.488 63.316C296.601 63.3182 297.699 63.5569 298.519 64.0121C299.343 64.4694 299.68 65.0241 299.684 65.507C299.688 65.9882 299.361 66.5407 298.539 66.9972Z" fill="white" stroke="#3D0F9A" stroke-width="0.631924"/>
<path d="M143.014 31.1167C143.384 30.9064 143.384 30.2235 143.013 29.5914C142.642 28.9593 142.041 28.6174 141.671 28.8277C141.3 29.038 141.301 29.7209 141.672 30.353C142.043 30.9851 142.644 31.327 143.014 31.1167Z" fill="white"/>
<path d="M143.02 42.3955C143.39 42.1852 143.39 41.5023 143.019 40.8702C142.648 40.2381 142.047 39.8962 141.676 40.1065C141.306 40.3168 141.307 40.9997 141.678 41.6318C142.049 42.2639 142.65 42.6058 143.02 42.3955Z" fill="white"/>
<path d="M143.02 53.7729C143.39 53.5626 143.39 52.8798 143.019 52.2477C142.648 51.6156 142.047 51.2737 141.676 51.484C141.306 51.6943 141.307 52.3772 141.678 53.0092C142.049 53.6413 142.65 53.9832 143.02 53.7729Z" fill="white"/>
<path d="M137.014 28.1167C137.384 27.9064 137.384 27.2235 137.013 26.5914C136.642 25.9593 136.041 25.6174 135.671 25.8277C135.3 26.038 135.301 26.7209 135.672 27.353C136.043 27.9851 136.644 28.327 137.014 28.1167Z" fill="white"/>
<path d="M137.02 39.3955C137.39 39.1852 137.39 38.5023 137.019 37.8702C136.648 37.2381 136.047 36.8962 135.676 37.1065C135.306 37.3168 135.307 37.9997 135.678 38.6318C136.049 39.2639 136.65 39.6058 137.02 39.3955Z" fill="white"/>
<path d="M137.02 50.7729C137.39 50.5626 137.39 49.8798 137.019 49.2477C136.648 48.6156 136.047 48.2737 135.676 48.484C135.306 48.6943 135.307 49.3772 135.678 50.0092C136.049 50.6413 136.65 50.9832 137.02 50.7729Z" fill="white"/>
<path d="M131.014 24.1167C131.384 23.9064 131.384 23.2235 131.013 22.5914C130.642 21.9593 130.041 21.6174 129.671 21.8277C129.3 22.038 129.301 22.7209 129.672 23.353C130.043 23.9851 130.644 24.327 131.014 24.1167Z" fill="white"/>
<path d="M131.02 35.3955C131.39 35.1852 131.39 34.5023 131.019 33.8702C130.648 33.2381 130.047 32.8962 129.676 33.1065C129.306 33.3168 129.307 33.9997 129.678 34.6318C130.049 35.2639 130.65 35.6058 131.02 35.3955Z" fill="white"/>
<path d="M131.02 46.7729C131.39 46.5626 131.39 45.8798 131.019 45.2477C130.648 44.6156 130.047 44.2737 129.676 44.484C129.306 44.6943 129.307 45.3772 129.678 46.0092C130.049 46.6413 130.65 46.9832 131.02 46.7729Z" fill="white"/>
</svg>
