<svg width="1440" height="225" viewBox="0 0 1440 225" fill="none" xmlns="http://www.w3.org/2000/svg">
<path d="M489 35.0002H397V98.0001H480.94V132H397V225H360V0.000198364H489V35.0002Z" fill="white"/>
<path d="M677 225L657 175H557L537 225H498L589 0H624L717 225H677ZM607 48.0002L570 142H644L607 48.0002Z" fill="white"/>
<path d="M1098 0V35.0002H1032V225H995V35.0002H930V0H1098Z" fill="white"/>
<path d="M821.602 225C804.725 225 789.876 222.087 777.058 216.262C764.453 210.437 754.626 202.115 747.575 191.297C740.525 180.27 737 167.476 737 152.913H774.174C774.174 164.563 778.553 173.821 787.313 180.687C796.286 187.344 807.609 190.673 821.282 190.673C833.673 190.673 844.142 187.76 852.687 181.935C861.233 175.902 865.506 168.1 865.506 158.53C865.506 154.993 864.865 151.768 863.583 148.856C862.515 145.943 860.592 143.447 857.815 141.366C855.251 139.286 852.687 137.517 850.124 136.061C847.773 134.397 844.142 132.836 839.228 131.38C834.528 129.924 830.682 128.884 827.691 128.259C824.7 127.427 820.214 126.283 814.232 124.827C807.609 123.37 802.588 122.226 799.17 121.394C795.752 120.354 790.945 118.897 784.749 117.025C778.767 114.945 774.067 112.968 770.649 111.096C767.444 109.223 763.598 106.727 759.112 103.606C754.625 100.277 751.207 96.8447 748.857 93.3079C746.721 89.5631 744.798 85.0901 743.089 79.889C741.38 74.6879 740.525 68.8627 740.525 62.4133C740.525 42.8572 747.575 27.5659 761.676 16.5395C775.99 5.51319 795.111 0 819.039 0C843.394 0 862.408 6.03331 876.081 18.0999C889.754 29.9584 896.591 46.1859 896.591 66.7823H860.058C860.058 56.3801 856.106 48.2663 848.201 42.4411C840.51 36.4078 830.575 33.3911 818.398 33.3911C806.647 33.3911 796.82 35.8877 788.915 40.8807C781.224 45.6657 777.378 52.4272 777.378 61.1651C777.378 64.9099 778.34 68.3426 780.263 71.4632C782.185 74.5839 784.429 77.1845 786.992 79.2649C789.556 81.1373 793.402 83.0097 798.529 84.8821C803.656 86.7545 807.929 88.2108 811.347 89.251C814.979 90.0832 820.214 91.3315 827.05 92.9958C832.391 94.2441 836.344 95.1803 838.907 95.8044C841.685 96.4286 845.637 97.5728 850.764 99.2372C855.892 100.693 859.844 102.046 862.622 103.294C865.399 104.334 868.924 105.895 873.197 107.975C877.47 110.055 880.781 112.136 883.131 114.216C885.481 116.297 888.045 118.897 890.822 122.018C893.813 125.139 896.057 128.467 897.552 132.004C899.048 135.333 900.329 139.286 901.398 143.863C902.466 148.232 903 152.913 903 157.906C903 179.126 895.309 195.666 879.927 207.524C864.544 219.175 845.103 225 821.602 225Z" fill="white"/>
<path d="M1110 190H1145V225H1110V190Z" fill="white"/>
<rect opacity="0.15" x="100" y="98.0005" width="260" height="35" fill="url(#paint0_linear_86_1198)"/>
<rect opacity="0.15" y="0.000488281" width="360" height="35" fill="url(#paint1_linear_86_1198)"/>
<rect opacity="0.15" x="53" y="190" width="470" height="35" fill="url(#paint2_linear_86_1198)"/>
<rect opacity="0.15" x="608" y="190" width="502" height="35" fill="url(#paint3_linear_86_1198)"/>
<rect opacity="0.15" x="481" y="98.0005" width="840" height="34" fill="url(#paint4_linear_86_1198)"/>
<rect opacity="0.15" x="1098" y="0.000488281" width="310" height="35" fill="url(#paint5_linear_86_1198)"/>
<rect opacity="0.15" x="397" y="0.000488281" width="533" height="35" fill="url(#paint6_linear_86_1198)"/>
<rect opacity="0.15" x="1145" y="190" width="270" height="35" fill="url(#paint7_linear_86_1198)"/>
<defs>
<linearGradient id="paint0_linear_86_1198" x1="360" y1="115" x2="99.989" y2="119.343" gradientUnits="userSpaceOnUse">
<stop stop-color="white"/>
<stop offset="1" stop-color="white" stop-opacity="0"/>
</linearGradient>
<linearGradient id="paint1_linear_86_1198" x1="360" y1="17.0004" x2="0.0768363" y2="25.3233" gradientUnits="userSpaceOnUse">
<stop stop-color="white"/>
<stop offset="1" stop-color="white" stop-opacity="0"/>
</linearGradient>
<linearGradient id="paint2_linear_86_1198" x1="523" y1="207" x2="53.2772" y2="221.181" gradientUnits="userSpaceOnUse">
<stop stop-color="white"/>
<stop offset="1" stop-color="white" stop-opacity="0"/>
</linearGradient>
<linearGradient id="paint3_linear_86_1198" x1="1110" y1="207" x2="608.36" y2="223.176" gradientUnits="userSpaceOnUse">
<stop stop-color="white"/>
<stop offset="1" stop-color="white" stop-opacity="0"/>
</linearGradient>
<linearGradient id="paint4_linear_86_1198" x1="1321" y1="115" x2="483.175" y2="157.686" gradientUnits="userSpaceOnUse">
<stop stop-color="white" stop-opacity="0"/>
<stop offset="0.432292" stop-color="white" stop-opacity="0.635417"/>
<stop offset="1" stop-color="white" stop-opacity="0"/>
</linearGradient>
<linearGradient id="paint5_linear_86_1198" x1="1408" y1="18.0005" x2="1098.01" y2="19.6791" gradientUnits="userSpaceOnUse">
<stop stop-color="white" stop-opacity="0"/>
<stop offset="1" stop-color="white"/>
</linearGradient>
<linearGradient id="paint6_linear_86_1198" x1="930" y1="17.0004" x2="397.453" y2="35.233" gradientUnits="userSpaceOnUse">
<stop stop-color="white"/>
<stop offset="1" stop-color="white" stop-opacity="0"/>
</linearGradient>
<linearGradient id="paint7_linear_86_1198" x1="1415" y1="208.001" x2="1145" y2="208.034" gradientUnits="userSpaceOnUse">
<stop stop-color="white" stop-opacity="0"/>
<stop offset="1" stop-color="white" stop-opacity="0.6"/>
</linearGradient>
</defs>
</svg>
