<svg width="440" height="190" viewBox="0 0 440 190" fill="none" xmlns="http://www.w3.org/2000/svg">
<path d="M390.02 94L366.333 107.61C363.498 109.239 360.002 109.21 357.194 107.531L346.67 101.24C344.173 99.7473 341.062 99.7265 338.546 101.183L305.946 120.061C303.335 121.573 303.356 125.347 305.983 126.83" stroke="#3D0F9A" stroke-miterlimit="10"/>
<path d="M80.5018 32L89.3555 36.9266C91.1035 37.8998 91.1104 40.4102 89.3666 41.3917L80.1341 46.5873C78.6261 47.4356 78.6206 49.6051 80.1258 50.4604L138.939 83.8919C143.163 86.2929 148.35 86.2541 152.539 83.7907L178.764 68.3593" stroke="#3D0F9A" stroke-miterlimit="10"/>
<path d="M302.328 137.754L293.104 144.07C289.949 146.229 285.945 146.282 282.743 144.204L266.395 133.598C264.396 132.301 261.898 132.327 259.921 133.664L252.005 139.02" stroke="#3D0F9A" stroke-miterlimit="10"/>
<path d="M194.853 143.42L171.166 158.204C168.331 159.973 164.835 159.941 162.027 158.118L151.503 151.285C149.006 149.663 145.895 149.641 143.379 151.223L110.779 171.728C108.168 173.371 108.189 177.469 110.816 179.081" stroke="#3D0F9A" stroke-miterlimit="10"/>
<path fill-rule="evenodd" clip-rule="evenodd" d="M286.145 29.6264C286.151 27.6106 286.801 26.1801 287.856 25.4826C288.966 24.7484 290.526 24.8274 292.249 25.8949L326.936 47.2338C330.293 49.3137 333.011 54.3624 333 58.5005L332.856 149.374C332.845 153.512 330.108 155.185 326.751 153.106L292.064 131.767C288.704 129.686 285.989 124.638 286 120.5L286.145 29.6264Z" fill="#3D0F9A"/>
<path d="M314.984 68.0938L319.979 70.9857C320.864 71.5116 321.604 71.0813 321.604 70.0536V64.2936C321.604 63.2659 320.887 61.9992 319.979 61.4973L314.984 58.6054C314.1 58.0796 313.359 58.5098 313.359 59.5375V65.2975C313.359 66.3252 314.076 67.5919 314.984 68.0938Z" fill="white"/>
<path d="M320.696 71.5592C320.911 71.5592 321.102 71.5114 321.293 71.3919C321.723 71.1529 321.938 70.6749 321.938 70.0296V64.2696C321.938 63.0985 321.15 61.7362 320.146 61.1626L315.151 58.2707C314.601 57.9599 314.075 57.9121 313.645 58.1512C313.215 58.3902 313 58.8682 313 59.5135V65.2735C313 66.4446 313.788 67.8069 314.792 68.3805L319.787 71.2724C320.098 71.4636 320.409 71.5353 320.696 71.5353V71.5592ZM314.266 58.7248C314.434 58.7248 314.625 58.7726 314.816 58.8921L319.811 61.784C320.6 62.2381 321.245 63.3853 321.245 64.2935V70.0535C321.245 70.412 321.126 70.6749 320.959 70.7944C320.767 70.9139 320.481 70.8661 320.17 70.6749L315.175 67.783C314.386 67.3289 313.741 66.1817 313.741 65.2735V59.5135C313.741 59.155 313.86 58.8921 314.027 58.7726C314.099 58.7248 314.171 58.7009 314.266 58.7009V58.7248Z" fill="white"/>
<path d="M314.984 81.4537L319.979 84.3456C320.864 84.8714 321.604 84.4412 321.604 83.4135V77.6535C321.604 76.6258 320.887 75.3591 319.979 74.8572L314.984 71.9652C314.1 71.4394 313.359 71.8696 313.359 72.8973V78.6573C313.359 79.685 314.076 80.9518 314.984 81.4537Z" stroke="white"/>
<path d="M320.696 84.9191C320.911 84.9191 321.102 84.8713 321.293 84.7518C321.723 84.5128 321.938 84.0348 321.938 83.3895V77.6295C321.938 76.4584 321.15 75.0961 320.146 74.5225L315.151 71.6305C314.601 71.3198 314.075 71.272 313.645 71.511C313.215 71.75 313 72.228 313 72.8733V78.6333C313 79.8044 313.788 81.1668 314.792 81.7404L319.787 84.6323C320.098 84.8235 320.409 84.8952 320.696 84.8952V84.9191ZM314.266 72.0846C314.434 72.0846 314.625 72.1324 314.816 72.2519L319.811 75.1439C320.6 75.598 321.245 76.7452 321.245 77.6534V83.4134C321.245 83.7719 321.126 84.0348 320.959 84.1543C320.767 84.2738 320.481 84.226 320.17 84.0348L315.175 81.1429C314.386 80.6888 313.741 79.5415 313.741 78.6333V72.8733C313.741 72.5148 313.86 72.2519 314.027 72.1324C314.099 72.0846 314.171 72.0846 314.266 72.0846Z" stroke="white"/>
<path d="M314.984 94.815L319.979 97.7069C320.864 98.2327 321.604 97.8025 321.604 96.7748V91.0148C321.604 89.9871 320.887 88.7204 319.979 88.2185L314.984 85.3266C314.1 84.8008 313.359 85.231 313.359 86.2587V92.0186C313.359 93.0464 314.076 94.3131 314.984 94.815Z" fill="white"/>
<path d="M320.696 98.28C320.911 98.28 321.102 98.2322 321.293 98.1126C321.723 97.8736 321.938 97.3956 321.938 96.7503V90.9903C321.938 89.8192 321.15 88.4569 320.146 87.8833L315.151 84.9914C314.601 84.6807 314.075 84.6329 313.645 84.8719C313.215 85.1109 313 85.5889 313 86.2342V91.9942C313 93.1653 313.788 94.5276 314.792 95.1012L319.787 97.9931C320.098 98.1843 320.409 98.256 320.696 98.256V98.28ZM314.266 85.4455C314.434 85.4455 314.625 85.4933 314.816 85.6128L319.811 88.5047C320.6 88.9588 321.245 90.106 321.245 91.0142V96.7742C321.245 97.1327 321.126 97.3956 320.959 97.5151C320.767 97.6346 320.481 97.5868 320.17 97.3956L315.175 94.5037C314.386 94.0496 313.741 92.9024 313.741 91.9942V86.2342C313.741 85.8757 313.86 85.6128 314.027 85.4933C314.099 85.4455 314.171 85.4455 314.266 85.4455Z" fill="white"/>
<path d="M314.984 108.175L319.979 111.067C320.864 111.593 321.604 111.162 321.604 110.135V104.375C321.604 103.347 320.887 102.08 319.979 101.578L314.984 98.6864C314.1 98.1606 313.359 98.5908 313.359 99.6185V105.379C313.359 106.406 314.076 107.673 314.984 108.175Z" fill="white"/>
<path d="M320.696 111.64C320.911 111.64 321.102 111.593 321.293 111.473C321.723 111.234 321.938 110.756 321.938 110.111V104.351C321.938 103.18 321.15 101.817 320.146 101.244L315.151 98.3517C314.601 98.041 314.075 97.9932 313.645 98.2322C313.215 98.4712 313 98.9492 313 99.5945V105.355C313 106.526 313.788 107.888 314.792 108.462L319.787 111.353C320.098 111.545 320.409 111.616 320.696 111.616V111.64ZM314.266 98.8058C314.434 98.8058 314.625 98.8536 314.816 98.9731L319.811 101.865C320.6 102.319 321.245 103.466 321.245 104.375V110.135C321.245 110.493 321.126 110.756 320.959 110.875C320.767 110.995 320.481 110.947 320.17 110.756L315.175 107.864C314.386 107.41 313.741 106.263 313.741 105.355V99.5945C313.741 99.236 313.86 98.9731 314.027 98.8536C314.099 98.8058 314.171 98.8058 314.266 98.8058Z" fill="white"/>
<path d="M314.984 121.558L319.979 124.45C320.864 124.976 321.604 124.546 321.604 123.518V117.758C321.604 116.73 320.887 115.464 319.979 114.962L314.984 112.07C314.1 111.544 313.359 111.974 313.359 113.002V118.762C313.359 119.79 314.076 121.056 314.984 121.558Z" fill="white"/>
<path d="M320.696 125C320.911 125 321.102 124.952 321.293 124.833C321.723 124.594 321.938 124.116 321.938 123.471V117.711C321.938 116.539 321.15 115.177 320.146 114.604L315.151 111.712C314.601 111.401 314.075 111.353 313.645 111.592C313.215 111.831 313 112.309 313 112.954V118.714C313 119.885 313.788 121.248 314.792 121.821L319.787 124.713C320.098 124.905 320.409 124.976 320.696 124.976V125ZM314.266 112.166C314.434 112.166 314.625 112.213 314.816 112.333L319.811 115.225C320.6 115.679 321.245 116.826 321.245 117.734V123.494C321.245 123.853 321.126 124.116 320.959 124.235C320.767 124.355 320.481 124.307 320.17 124.116L315.175 121.224C314.386 120.77 313.741 119.623 313.741 118.714V112.954C313.741 112.596 313.86 112.333 314.027 112.213C314.099 112.166 314.171 112.142 314.266 112.142V112.166Z" fill="white"/>
<path d="M248.584 45.5815L294.104 74.1004C297.722 76.3961 300.688 74.5419 300.688 69.9948V52.8658C300.688 48.3187 297.762 42.8003 294.104 40.5047L248.584 11.9858C244.967 9.69013 242 11.5443 242 16.0914V33.2204C242 37.7675 244.926 43.2859 248.584 45.5815Z" fill="#FF5A00"/>
<path d="M256.388 43.6153C255.325 42.6564 254.57 41.6689 254.12 40.6505C253.67 39.6386 253.447 38.5908 253.447 37.5153V35.5974C253.447 34.9761 253.327 34.4208 253.091 33.9389C252.852 33.4562 252.49 33.0713 252 32.7875V30.8917C252.49 31.1755 252.852 31.213 253.091 31.0083C253.327 30.8004 253.447 30.3805 253.447 29.7469V27.829C253.447 26.7535 253.67 25.9683 254.12 25.4766C254.57 24.9849 255.324 24.874 256.388 25.1423L256.848 26.8897C256.382 26.8171 256.055 26.9745 255.866 27.3626C255.674 27.754 255.58 28.3216 255.58 29.066V30.9806C255.58 31.6362 255.457 32.1442 255.215 32.5103C254.972 32.8764 254.607 33.0623 254.117 33.0591C254.605 33.6396 254.972 34.2512 255.215 34.8978C255.457 35.5477 255.58 36.191 255.58 36.8344V38.749C255.58 39.4934 255.674 40.1686 255.866 40.7801C256.055 41.3893 256.382 41.9282 256.848 42.3922L256.388 43.6161V43.6153ZM262.368 43.6814L259.983 42.3001V39.884L262.368 41.2653V43.6814ZM268.913 47.4689L266.525 46.0876V43.6716L268.913 45.0529V47.4689ZM275.455 51.2565L273.071 49.8752V47.4591L275.455 48.8404V51.2565ZM282.001 55.044L279.613 53.6627V51.2467L282.001 52.628V55.044ZM285.259 58.8381C285.722 58.9107 286.049 58.7501 286.241 58.3619C286.429 57.9705 286.527 57.4063 286.527 56.6651V54.7472C286.527 54.0941 286.653 53.5869 286.901 53.2273C287.152 52.871 287.533 52.6973 288.046 52.7103C287.533 52.133 287.152 51.515 286.901 50.8626C286.652 50.2128 286.527 49.5572 286.527 48.8975V46.9797C286.527 46.2385 286.429 45.5601 286.241 44.9485C286.049 44.3369 285.722 43.8004 285.259 43.3405L285.719 42.1231C286.773 43.0788 287.527 44.0662 287.98 45.0781C288.433 46.0933 288.659 47.1379 288.659 48.2166V50.1312C288.659 50.7681 288.776 51.3233 289.008 51.8028C289.244 52.279 289.612 52.6671 290.112 52.9574V54.8532C289.612 54.563 289.244 54.5254 289.008 54.7334C288.776 54.9446 288.659 55.3612 288.659 55.9858V57.9037C288.659 58.9792 288.433 59.7644 287.98 60.2569C287.527 60.7486 286.775 60.8628 285.715 60.5978L285.259 58.8414V58.8381Z" fill="white"/>
<path d="M135.751 110.538C137.408 111.497 137.416 113.044 135.773 113.996L129.088 117.876L47.0449 70.5964L53.73 66.7161C55.3726 65.7639 58.0552 65.7639 59.705 66.7161L135.744 110.538H135.751Z" fill="#3D0F9A"/>
<path d="M47.0458 70.5962L129.082 117.869L85.2698 143.284C83.6201 144.243 80.9446 144.243 79.2877 143.284L3.24842 99.4694C1.59866 98.5173 1.58432 96.9637 3.23407 96.0115L47.0458 70.5962ZM68.593 99.2332C71.2613 98.0591 73.7503 97.7655 76.0384 98.3526L77.7814 96.5341C73.3629 95.1667 69.2601 95.2383 65.4871 96.7489L61.6353 98.4385C59.2324 99.4838 57.0949 99.5052 55.1869 98.4958L51.8587 100.099C52.9777 100.873 53.0423 101.61 52.0309 102.312C51.7081 102.534 51.3208 102.748 50.8546 102.956L47.4188 104.467C45.5538 105.347 44.4062 106.342 43.9901 107.473C43.5669 108.59 43.8826 109.757 44.9226 110.953L48.1934 110.101C47.5622 109.127 48.0715 108.211 49.7284 107.323L50.625 106.872L54.5557 105.125C55.6101 104.617 56.3489 104.051 56.8008 103.428C57.2456 102.806 57.3747 102.154 57.1953 101.474C59.9999 101.997 62.5176 101.811 64.7412 100.908L68.5858 99.226M77.6164 114.869L80.9446 113.265C79.8185 112.492 79.7683 111.748 80.794 111.039C81.1096 110.824 81.5113 110.609 81.9775 110.394L85.3989 108.891C87.2137 108.039 88.3613 107.065 88.8204 105.956C89.2723 104.853 88.971 103.693 87.9166 102.469L84.6458 103.278C85.2627 104.245 84.7462 105.161 83.1036 106.042L82.1999 106.5L78.2691 108.247C77.2219 108.755 76.4688 109.321 76.0025 109.958C75.5435 110.588 75.4359 111.246 75.6582 111.934C72.8465 111.375 70.3216 111.547 68.0909 112.456L64.2319 114.146C61.5708 115.32 59.0818 115.606 56.7937 115.026L55.0291 116.852C59.6269 118.27 63.9019 118.119 67.8685 116.408L71.1967 114.933C73.5494 113.902 75.7013 113.881 77.6308 114.883" fill="#3D0F9A"/>
<path d="M87.9165 102.47C88.978 103.694 89.2793 104.861 88.8202 105.956C88.3683 107.066 87.2207 108.039 85.3988 108.891L81.9773 110.395C81.5111 110.61 81.1094 110.824 80.7938 111.046C79.7681 111.755 79.8183 112.5 80.9445 113.273L77.6163 114.877C75.6796 113.874 73.5349 113.896 71.1822 114.927L67.854 116.401C63.8874 118.113 59.6124 118.263 55.0146 116.845L56.7792 115.02C59.0673 115.6 61.5563 115.313 64.2174 114.139L68.0764 112.45C70.3071 111.54 72.832 111.369 75.6437 111.927C75.4214 111.24 75.529 110.574 75.988 109.951C76.4543 109.321 77.2074 108.748 78.2546 108.24L82.1854 106.493L83.0891 106.035C84.7317 105.161 85.2553 104.238 84.6313 103.271L87.9021 102.462L87.9165 102.47Z" fill="white"/>
<path d="M77.7807 96.5343L76.0377 98.3527C73.7495 97.7728 71.2606 98.0592 68.5923 99.2333L64.7476 100.916C62.524 101.818 60.0064 102.004 57.2018 101.481C57.3811 102.161 57.252 102.813 56.8073 103.436C56.3554 104.059 55.6166 104.624 54.5622 105.133L50.6315 106.879L49.7349 107.33C48.078 108.211 47.5687 109.135 48.1999 110.108L44.9291 110.96C43.889 109.757 43.5734 108.598 43.9966 107.481C44.4198 106.357 45.5675 105.354 47.4252 104.474L50.861 102.963C51.3272 102.756 51.7146 102.541 52.0374 102.319C53.0487 101.617 52.9842 100.88 51.8652 100.107L55.1934 98.5031C57.1014 99.5125 59.2389 99.491 61.6418 98.4458L65.4936 96.7562C69.2665 95.2456 73.3694 95.174 77.7879 96.5414L77.7807 96.5343Z" fill="white"/>
<path d="M120.753 165.343C126.415 168.467 126.417 173.533 120.753 176.657C115.091 179.781 105.909 179.781 100.247 176.657C94.5854 173.533 94.5832 168.467 100.247 165.343C105.909 162.219 115.091 162.219 120.753 165.343Z" fill="#3D0F9A"/>
<path fill-rule="evenodd" clip-rule="evenodd" d="M387.394 25.178C387.394 25.3906 387.222 25.5656 387.007 25.5656C386.792 25.5656 386.619 25.3928 386.619 25.178V9.38767C386.619 9.17279 386.792 9 387.007 9C387.222 9 387.394 9.17279 387.394 9.38767V25.178Z" fill="#3D0F9A" stroke="#3D0F9A" stroke-width="0.3"/>
<path fill-rule="evenodd" clip-rule="evenodd" d="M410.867 33.2902C410.717 33.4409 410.471 33.4409 410.32 33.2902C410.169 33.1396 410.169 32.8937 410.32 32.743L421.401 21.6823C421.551 21.5317 421.797 21.5317 421.946 21.6823C422.096 21.833 422.096 22.0788 421.946 22.2295L410.865 33.2902H410.867Z" fill="#3D0F9A" stroke="#3D0F9A" stroke-width="0.3"/>
<path fill-rule="evenodd" clip-rule="evenodd" d="M419.112 56.894C418.9 56.894 418.725 56.7212 418.725 56.5063C418.725 56.2914 418.897 56.1187 419.112 56.1187H434.612C434.825 56.1187 435 56.2914 435 56.5063C435 56.7212 434.827 56.894 434.612 56.894H419.112Z" fill="#3D0F9A" stroke="#3D0F9A" stroke-width="0.3"/>
<path fill-rule="evenodd" clip-rule="evenodd" d="M363.678 32.741C363.829 32.8916 363.831 33.1353 363.678 33.2881C363.528 33.4388 363.284 33.441 363.131 33.2881L352.05 22.2274C351.9 22.0767 351.897 21.8331 352.05 21.6802C352.201 21.5296 352.445 21.5274 352.597 21.6802L363.678 32.741Z" fill="#3D0F9A" stroke="#3D0F9A" stroke-width="0.3"/>
<path fill-rule="evenodd" clip-rule="evenodd" d="M354.888 56.1187C355.103 56.1187 355.275 56.2914 355.275 56.5063C355.275 56.7212 355.103 56.894 354.888 56.894H339.388C339.175 56.894 339 56.7212 339 56.5063C339 56.2914 339.173 56.1187 339.388 56.1187H354.888Z" fill="#3D0F9A" stroke="#3D0F9A" stroke-width="0.3"/>
<path fill-rule="evenodd" clip-rule="evenodd" d="M390.764 60.8615C390.919 61.8074 391.593 62.8663 392.266 63.2207C392.94 63.5752 393.363 63.0945 393.208 62.1486L392.847 59.951C392.691 59.0051 392.018 57.9462 391.345 57.5918C390.671 57.2374 390.248 57.7136 390.403 58.6596L390.764 60.8615Z" fill="white"/>
<path fill-rule="evenodd" clip-rule="evenodd" d="M388.394 60.0218C388.549 60.9677 389.222 62.0266 389.896 62.381C390.569 62.7355 390.992 62.2548 390.837 61.3088L390.257 57.7644C390.102 56.8185 389.428 55.7552 388.755 55.4052C388.081 55.0508 387.658 55.5315 387.813 56.4774L388.394 60.0218Z" fill="white"/>
<path fill-rule="evenodd" clip-rule="evenodd" d="M386.029 59.2244C386.184 60.1703 386.858 61.2292 387.531 61.5837C388.205 61.9381 388.628 61.4574 388.473 60.5115L387.671 55.6224C387.516 54.6765 386.842 53.6176 386.169 53.2632C385.495 52.9088 385.072 53.385 385.227 54.3309L386.029 59.2244Z" fill="white"/>
<path fill-rule="evenodd" clip-rule="evenodd" d="M383.425 56.954C383.58 57.8999 384.253 58.9588 384.924 59.311C385.602 59.6699 386.023 59.187 385.87 58.241L385.29 54.6966C385.135 53.7507 384.461 52.6919 383.788 52.3374C383.115 51.983 382.691 52.4592 382.846 53.4052L383.427 56.954H383.425Z" fill="white"/>
<path fill-rule="evenodd" clip-rule="evenodd" d="M380.873 55C381.028 55.9459 381.697 57.0003 382.375 57.3592C383.048 57.7159 383.467 57.2307 383.316 56.287L382.955 54.0895C382.8 53.1436 382.127 52.0847 381.453 51.7303C380.775 51.3714 380.357 51.8521 380.512 52.8024L380.873 55Z" fill="white"/>
<path fill-rule="evenodd" clip-rule="evenodd" d="M383.239 56.7369C383.146 56.7937 383.043 56.8312 382.93 56.8485C382.707 56.884 382.458 56.8374 382.193 56.7001C381.794 56.4896 381.406 56.0865 381.101 55.608H381.103C380.804 55.1383 380.578 54.5867 380.491 54.0617L380.13 51.862C380.053 51.3857 380.101 50.9892 380.25 50.7123C380.316 50.586 380.405 50.4797 380.509 50.3999C380.62 50.3157 380.748 50.2604 380.89 50.236C381.114 50.2006 381.366 50.2471 381.632 50.3866C381.976 50.569 382.313 50.8943 382.597 51.2906C382.661 51.1762 382.744 51.0821 382.842 51.0068C382.952 50.9226 383.081 50.865 383.225 50.8429C383.449 50.8074 383.701 50.8517 383.967 50.9935C384.364 51.204 384.751 51.6049 385.059 52.0878L385.063 52.0935C385.111 52.0329 385.165 51.98 385.225 51.935C385.336 51.8486 385.464 51.7932 385.608 51.771C385.832 51.7356 386.085 51.7799 386.351 51.9217C386.747 52.1299 387.135 52.5331 387.443 53.0138C387.638 53.32 387.803 53.6611 387.917 54.0069C388.001 53.9601 388.094 53.9287 388.194 53.9133C388.418 53.8779 388.668 53.9222 388.934 54.0617C389.33 54.27 389.72 54.6709 390.026 55.1516C390.228 55.4692 390.398 55.8251 390.513 56.1847C390.595 56.1407 390.685 56.11 390.781 56.0952C391.005 56.0597 391.257 56.104 391.523 56.2458C391.92 56.4541 392.307 56.8572 392.615 57.3402C392.914 57.8098 393.143 58.3614 393.227 58.8864L393.588 61.0839C393.665 61.558 393.617 61.9523 393.47 62.2292C393.404 62.3577 393.315 62.4618 393.209 62.5438C393.098 62.628 392.97 62.6855 392.826 62.7077C392.602 62.7431 392.352 62.6988 392.084 62.5593C391.701 62.3585 391.327 61.9763 391.025 61.5182C390.972 61.5907 390.91 61.6533 390.841 61.7066C390.73 61.7907 390.602 61.8483 390.458 61.8705C390.234 61.9059 389.984 61.8616 389.718 61.7221C389.341 61.5242 388.972 61.1501 388.674 60.7008C388.618 60.7827 388.551 60.8526 388.475 60.9111C388.364 60.9953 388.236 61.0529 388.092 61.0751C387.868 61.1127 387.618 61.0662 387.35 60.9266C386.953 60.7184 386.565 60.3152 386.258 59.8345L386.26 59.8323C386.042 59.4907 385.862 59.1057 385.748 58.7191C385.668 58.7601 385.582 58.7887 385.489 58.8045C385.263 58.8399 385.01 58.7956 384.745 58.6538C384.346 58.4434 383.958 58.0424 383.655 57.5639L383.652 57.5617C383.49 57.306 383.348 57.0252 383.239 56.7369ZM381.754 55.1937C381.508 54.8083 381.322 54.3586 381.253 53.9377L381.258 53.9355L380.897 51.7379C380.848 51.4344 380.866 51.2063 380.937 51.0711C380.95 51.0446 380.965 51.0246 380.981 51.0135C380.99 51.0069 381.003 51.0003 381.016 50.998C381.076 50.9892 381.163 51.0113 381.276 51.0711C381.552 51.2173 381.838 51.5231 382.075 51.8952C382.307 52.2585 382.486 52.679 382.563 53.0785L382.95 55.4452C382.979 55.6986 382.958 55.8908 382.895 56.0111C382.879 56.0399 382.864 56.0599 382.848 56.0732C382.837 56.0798 382.824 56.0865 382.811 56.0887C382.753 56.0975 382.667 56.0754 382.556 56.0178C382.277 55.8694 381.991 55.5659 381.754 55.1937ZM383.718 55.3889L383.801 55.8936L383.805 55.8914C383.874 56.3101 384.06 56.7598 384.306 57.1475C384.543 57.5218 384.829 57.8253 385.101 57.9693C385.214 58.0291 385.301 58.0513 385.363 58.0424C385.376 58.0402 385.389 58.0358 385.4 58.0269C385.416 58.0136 385.431 57.9937 385.447 57.9671C385.518 57.832 385.535 57.606 385.487 57.3047L384.906 53.7603C384.838 53.3395 384.652 52.8898 384.406 52.5043C384.169 52.1321 383.881 51.8264 383.604 51.6802C383.493 51.6204 383.404 51.5983 383.345 51.6093C383.329 51.6116 383.318 51.616 383.307 51.6248C383.291 51.6359 383.276 51.6559 383.26 51.6847C383.189 51.8176 383.172 52.0435 383.22 52.3448L383.305 52.859C383.316 52.9146 383.327 52.9699 383.336 53.025L383.697 55.2247C383.706 55.2806 383.713 55.3354 383.718 55.3889ZM386.251 57.1785C386.257 57.2156 386.262 57.2522 386.267 57.2884L386.41 58.1642V58.162C386.479 58.5829 386.665 59.0326 386.911 59.4181C387.148 59.7902 387.434 60.0959 387.713 60.2421C387.824 60.2997 387.91 60.3219 387.97 60.313C387.983 60.3108 387.996 60.3064 388.008 60.2975C388.023 60.2842 388.039 60.2643 388.054 60.2377C388.125 60.1026 388.143 59.8766 388.094 59.5753L388.027 59.1673C388.022 59.1394 388.017 59.1115 388.012 59.0837L387.432 55.5393C387.426 55.5035 387.421 55.4681 387.416 55.4332L387.294 54.6863C387.226 54.2654 387.039 53.8157 386.794 53.4302C386.557 53.0581 386.271 52.7524 385.992 52.6062C385.881 52.5464 385.792 52.5242 385.733 52.5353C385.717 52.5375 385.706 52.5419 385.695 52.5508C385.679 52.5641 385.664 52.584 385.648 52.6106C385.577 52.7435 385.56 52.9695 385.608 53.2708L385.646 53.4989C385.655 53.5441 385.663 53.5892 385.671 53.6341L386.251 57.1785ZM388.777 58.9597C388.845 59.3806 389.031 59.8303 389.277 60.2157C389.514 60.5879 389.8 60.8936 390.077 61.0398C390.188 61.0974 390.274 61.1195 390.334 61.1107C390.349 61.1085 390.36 61.1018 390.371 61.0952C390.387 61.0819 390.402 61.0619 390.418 61.0353C390.489 60.9002 390.507 60.6743 390.458 60.373L390.408 60.0704C390.398 60.0204 390.388 59.9705 390.38 59.9209L390.019 57.719C390.01 57.6656 390.003 57.6133 389.998 57.562L389.877 56.8286C389.809 56.4055 389.623 55.9558 389.377 55.5703C389.14 55.1982 388.854 54.8947 388.577 54.7507C388.466 54.6931 388.38 54.6709 388.32 54.6798C388.305 54.682 388.294 54.6864 388.283 54.6953C388.267 54.7086 388.251 54.7285 388.236 54.7551C388.165 54.888 388.147 55.1162 388.196 55.4175L388.777 58.9619V58.9597ZM391.645 61.0529C391.42 60.6996 391.244 60.2924 391.164 59.9028L390.761 57.4437C390.74 57.2184 390.763 57.0463 390.821 56.937C390.836 56.9104 390.852 56.8905 390.867 56.8772C390.879 56.8705 390.89 56.8639 390.905 56.8617C390.965 56.8506 391.054 56.8727 391.164 56.9325C391.441 57.0788 391.729 57.3845 391.966 57.7566C392.212 58.1421 392.398 58.5918 392.467 59.0127L392.828 61.2102C392.877 61.5137 392.859 61.7396 392.788 61.8726C392.773 61.8991 392.757 61.9191 392.742 61.9324C392.73 61.9412 392.719 61.9457 392.704 61.9479C392.644 61.9567 392.558 61.9346 392.447 61.877C392.168 61.7308 391.882 61.4251 391.645 61.0529Z" fill="#FF5A00" stroke="#FF5A00" stroke-width="0.3"/>
<path fill-rule="evenodd" clip-rule="evenodd" d="M376.367 100.366C372.259 97.9935 370.975 94.6086 372.514 91.6047L375.449 85.8916H398.922L401.857 91.6047C403.399 94.6086 402.114 97.9935 398.005 100.366C392.031 103.815 382.341 103.815 376.367 100.366Z" fill="#3D0F9A"/>
<path fill-rule="evenodd" clip-rule="evenodd" d="M376.175 100.698C374.081 99.4908 372.69 98.0176 372.003 96.4537C371.277 94.8033 371.334 93.0621 372.172 91.425L375.107 85.7119C375.176 85.579 375.311 85.5015 375.45 85.5015H398.925C399.089 85.5015 399.229 85.6034 399.286 85.7451L402.204 91.425C403.041 93.0599 403.099 94.8011 402.372 96.4537C401.686 98.0154 400.294 99.4885 398.201 100.698L398.177 100.711C395.131 102.464 391.156 103.339 387.187 103.339C383.217 103.339 379.223 102.459 376.175 100.698ZM372.712 96.1435C373.335 97.5591 374.617 98.9081 376.562 100.031C379.489 101.722 383.334 102.566 387.189 102.566C391.043 102.566 394.871 101.724 397.796 100.042L397.813 100.031C399.758 98.9081 401.041 97.5613 401.663 96.1435C402.293 94.7103 402.244 93.1995 401.515 91.7773L398.691 86.2768H375.685L372.861 91.7773C372.132 93.1972 372.083 94.7103 372.712 96.1435Z" fill="#3D0F9A"/>
<path fill-rule="evenodd" clip-rule="evenodd" d="M378.731 79.6909C374.061 82.3869 374.061 86.7598 378.731 89.4557C383.401 92.1517 390.972 92.1517 395.644 89.4557C400.314 86.7598 400.314 82.3891 395.644 79.6909C390.974 76.995 383.403 76.995 378.731 79.6909Z" fill="white"/>
<path d="M375.566 82.3878L375.569 82.3892L375.64 82.267C376.226 81.2513 377.215 80.2938 378.613 79.4864C380.982 78.1202 384.083 77.4308 387.186 77.4308C390.29 77.4308 393.373 78.1136 395.738 79.4732L395.738 79.4732L395.741 79.4748L395.764 79.4873C397.163 80.2945 398.151 81.2516 398.737 82.2669C399.168 83.0146 399.382 83.7931 399.382 84.5734C399.382 85.3514 399.168 86.132 398.735 86.8796L398.735 86.8798C398.151 87.893 397.163 88.8484 395.76 89.6581L375.566 82.3878ZM375.566 82.3878C375.182 83.0977 374.991 83.8336 374.991 84.5711C374.991 85.3512 375.207 86.132 375.638 86.8798C376.222 87.8931 377.21 88.8484 378.611 89.6582C380.98 91.0265 384.085 91.7137 387.186 91.7137C390.288 91.7137 393.391 91.0243 395.76 89.6581L375.566 82.3878ZM376.049 86.6465C376.601 87.603 377.538 88.4973 378.851 89.2534C381.154 90.5834 384.172 91.2428 387.189 91.2428C390.205 91.2428 393.225 90.5834 395.529 89.2534L395.529 89.2534C396.841 88.4951 397.778 87.6031 398.331 86.6465L398.331 86.6465C398.717 85.9766 398.911 85.2776 398.911 84.5756C398.911 83.8755 398.715 83.1743 398.328 82.5047C397.778 81.5508 396.84 80.657 395.527 79.8991L395.511 79.8894L395.511 79.8893L395.506 79.8865C393.205 78.5656 390.196 77.9083 387.186 77.9083C384.178 77.9083 381.152 78.5672 378.851 79.8962L378.851 79.8955C377.536 80.6538 376.599 81.5481 376.049 82.5025C375.663 83.1721 375.466 83.8734 375.466 84.5756C375.466 85.278 375.663 85.9747 376.049 86.6463L376.049 86.6465Z" fill="#3D0F9A" stroke="#3D0F9A" stroke-width="0.3"/>
<path fill-rule="evenodd" clip-rule="evenodd" d="M375.241 84.9036V89.0616C375.29 89.8414 375.655 90.692 376.103 91.3278C377.736 93.6516 381.089 94.8899 383.781 95.3485C387.713 96.0219 392.655 95.5346 396.067 93.3525C397.476 92.4509 398.807 91.1018 399.091 89.3895L399.13 89.0594V84.9014C399.068 85.3954 399 85.7476 398.803 86.215C397.753 88.6983 394.673 90.1781 392.221 90.836C387.904 91.9924 382.126 91.6379 378.305 89.1967C376.896 88.2951 375.565 86.946 375.281 85.2337L375.241 84.9036Z" fill="white"/>
<path fill-rule="evenodd" clip-rule="evenodd" d="M375.629 87.154V89.0635C375.651 89.387 375.737 89.7281 375.864 90.0582C376.008 90.437 376.203 90.7981 376.42 91.1082C377.113 92.0962 378.141 92.8804 379.297 93.4852C380.746 94.2428 382.392 94.7213 383.845 94.9716C385.877 95.3194 388.185 95.3504 390.4 94.9915C392.383 94.6703 394.29 94.0345 395.859 93.0333C396.587 92.568 397.292 91.9766 397.828 91.2766C398.264 90.705 398.585 90.0582 398.707 89.3493L398.745 89.0436V87.1606C398.229 87.9803 397.502 88.6759 396.676 89.2563C395.336 90.1955 393.727 90.8379 392.323 91.2145C390.024 91.8304 387.319 92.0275 384.707 91.7196C382.306 91.4361 379.977 90.7272 378.099 89.5265C377.299 89.0148 376.524 88.3657 375.93 87.5882C375.824 87.4486 375.722 87.3046 375.629 87.1562V87.154ZM374.854 89.0635V84.9055C374.854 84.7128 374.998 84.5444 375.195 84.5201C375.407 84.4935 375.6 84.6463 375.627 84.8568L375.669 85.1868C375.788 85.8957 376.11 86.5426 376.548 87.1141C377.082 87.8141 377.789 88.4056 378.518 88.8708C380.29 90.005 382.505 90.6762 384.798 90.9465C387.314 91.2433 389.917 91.055 392.126 90.4636C393.457 90.1069 394.979 89.5021 396.235 88.6205C397.208 87.9382 398.021 87.0897 398.453 86.0663C398.543 85.8536 398.603 85.6676 398.647 85.4815C398.69 85.302 398.721 85.1049 398.749 84.8678C398.767 84.6707 398.933 84.5156 399.135 84.5156C399.348 84.5156 399.523 84.6884 399.523 84.9033V89.0613C399.523 89.0768 399.523 89.0923 399.52 89.1078L399.48 89.4379V89.4534C399.336 90.3063 398.96 91.0705 398.448 91.7418C397.857 92.5171 397.079 93.1684 396.279 93.6801C394.618 94.7434 392.609 95.4124 390.531 95.7514C388.227 96.1257 385.83 96.0925 383.721 95.7314C382.204 95.4722 380.476 94.9694 378.945 94.1675C377.685 93.5073 376.561 92.6456 375.791 91.5512C375.54 91.1924 375.312 90.7715 375.144 90.3284C374.993 89.9319 374.891 89.5154 374.862 89.1123C374.86 89.0945 374.858 89.0768 374.858 89.0591L374.854 89.0635Z" fill="#3D0F9A"/>
<path fill-rule="evenodd" clip-rule="evenodd" d="M382.962 79.8174V83.4282L382.964 83.457L382.971 83.4836L382.984 83.5102L383 83.5346L383.02 83.5612L383.044 83.5855L383.073 83.6077L383.106 83.6298L389.193 87.1432L389.231 87.1631L389.271 87.1787L389.313 87.1942L389.355 87.2052L389.399 87.2141L389.446 87.2207L389.492 87.2252H389.539H389.588L389.634 87.2207L389.681 87.2141L389.725 87.2052L389.767 87.1942L389.809 87.1787L389.849 87.1631L389.887 87.1432L389.924 87.1211L390.367 86.8663L391.495 86.215L391.528 86.1929L391.557 86.1707L391.581 86.1463L391.601 86.122L391.617 86.0954L391.63 86.0688L391.637 86.0422L391.639 86.0157V82.4026L391.637 82.4292L391.63 82.4557L391.617 82.4823L391.601 82.5089L391.581 82.5333L391.557 82.5576L391.528 82.582L391.495 82.602L390.367 83.2532L389.924 83.508L389.887 83.5301L389.849 83.5501L389.809 83.5678L389.767 83.5811L389.725 83.5922L389.681 83.6032L389.634 83.6077L389.588 83.6121L389.539 83.6143L389.492 83.6121L389.446 83.6077L389.399 83.6032L389.355 83.5922L389.313 83.5811L389.271 83.5678L389.231 83.5501L389.193 83.5301L383.106 80.0168L383.073 79.9946L383.044 79.9725L383.02 79.9481L383 79.9237L382.984 79.8971L382.971 79.8706L382.964 79.844L382.962 79.8174Z" fill="white"/>
<path fill-rule="evenodd" clip-rule="evenodd" d="M383.349 80.6039V83.3243L389.392 86.8133L389.416 86.8221L389.443 86.8288L389.478 86.8354C389.505 86.8376 389.529 86.8399 389.556 86.8399L389.596 86.8354H389.613L389.64 86.8288H389.651C389.691 86.811 389.691 86.8111 389.731 86.7867L390.172 86.5319L390.194 86.5209L391.25 85.9117V83.1891L390.121 83.8404L390.081 83.8648L390.028 83.8936C390.028 83.8936 390.008 83.9046 389.997 83.9091L389.957 83.9268L389.928 83.9379L389.89 83.9512C389.875 83.9556 389.859 83.96 389.844 83.9645C389.815 83.9711 389.786 83.9777 389.755 83.9844L389.733 83.9888L389.686 83.9955L389.616 84.0021C389.598 84.0021 389.582 84.0021 389.567 84.0021C389.531 84.0021 389.498 84.0021 389.461 84.0021L389.414 83.9999C389.398 83.9999 389.383 83.9977 389.37 83.9933H389.345C389.332 83.9888 389.319 83.9844 389.303 83.9822C389.272 83.9755 389.243 83.9689 389.212 83.96L389.186 83.9512L389.144 83.9379L389.119 83.929L389.079 83.9135C389.062 83.9046 389.044 83.8958 389.026 83.8869C387.146 82.8901 385.207 81.6828 383.349 80.6106V80.6039ZM382.573 83.4306V79.8175C382.573 79.6204 382.724 79.452 382.926 79.4321C383.109 79.4166 383.276 79.5317 383.329 79.7001L389.387 83.198L389.414 83.2091L389.43 83.2135L389.458 83.2201H389.478L389.523 83.2268C389.549 83.2268 389.569 83.2268 389.596 83.2223L389.622 83.2179L389.649 83.2113L389.671 83.2046L389.684 83.198L389.726 83.1736C390.234 82.8723 390.754 82.5821 391.266 82.2875C391.315 82.1302 391.461 82.015 391.636 82.015C391.851 82.015 392.024 82.1878 392.024 82.4027V86.0623C392.019 86.0867 392.015 86.1132 392.01 86.1376L392.004 86.1642C391.999 86.1819 391.993 86.1996 391.986 86.2196L391.975 86.2462C391.968 86.2639 391.959 86.2794 391.948 86.2971V86.3015C391.933 86.3237 391.919 86.3458 391.904 86.3658L391.884 86.3902C391.875 86.4012 391.864 86.4123 391.853 86.4234L391.844 86.4322C391.829 86.4478 391.813 86.4633 391.798 86.4765L391.769 86.4987C391.769 86.4987 391.749 86.5142 391.738 86.5209L391.705 86.543L390.581 87.1899L390.561 87.2031L390.081 87.4801L390.043 87.5C390.028 87.5089 390.012 87.5155 389.997 87.5221L389.977 87.5288C389.963 87.5354 389.952 87.5399 389.939 87.5443L389.897 87.5598L389.866 87.5687L389.835 87.5753C389.822 87.5797 389.808 87.582 389.795 87.5842C389.764 87.5908 389.735 87.5953 389.702 87.5997C389.689 87.6019 389.675 87.6041 389.662 87.6041L389.616 87.6085H389.549H389.505C389.489 87.6085 389.474 87.6085 389.458 87.6085L389.412 87.6041L389.39 87.6019L389.323 87.593L389.288 87.5864C389.274 87.5864 389.263 87.582 389.25 87.5797L389.206 87.5687L389.179 87.5598L389.137 87.5443L389.077 87.5199C389.066 87.5155 389.055 87.5089 389.042 87.5022L389.024 87.4933C389.024 87.4933 389.004 87.4823 388.993 87.4778C387.022 86.3392 384.76 85.1585 382.875 83.9423C382.859 83.9334 382.844 83.9224 382.828 83.9113L382.799 83.8891C382.788 83.8803 382.777 83.8692 382.766 83.8581L382.748 83.8426C382.735 83.8293 382.722 83.816 382.711 83.8005L382.691 83.7762C382.68 83.7629 382.671 83.7474 382.66 83.7319L382.655 83.7252C382.64 83.7031 382.629 83.6809 382.618 83.6565L382.611 83.6432C382.602 83.6211 382.593 83.5989 382.587 83.5768L382.58 83.5502C382.576 83.5325 382.573 83.517 382.571 83.4993C382.567 83.4771 382.564 83.4527 382.564 83.4306H382.573Z" fill="#3D0F9A" stroke="#3D0F9A" stroke-width="0.3"/>
<path fill-rule="evenodd" clip-rule="evenodd" d="M384.714 78.6876L383.106 79.6158C382.915 79.7243 382.915 79.906 383.106 80.0145L389.193 83.5301C389.384 83.6386 389.696 83.6409 389.887 83.5301L389.927 83.5079L390.367 83.2532L391.495 82.6019C391.685 82.4911 391.685 82.3117 391.495 82.2032L385.407 78.6876C385.217 78.5768 384.905 78.5768 384.714 78.6876Z" fill="#3D0F9A" stroke="#3D0F9A"/>
<path d="M389.5 83.5V87" stroke="#3D0F9A"/>
<path opacity="0.72" fill-rule="evenodd" clip-rule="evenodd" d="M363.474 46.4579C361.83 51.646 361.901 56.0056 362.849 59.8623C363.8 63.7302 365.636 67.1129 367.506 70.3161C368.361 71.7804 369.119 72.7795 369.803 73.6811C371.05 75.327 372.06 76.6584 372.913 79.6733C373.137 80.4619 373.274 81.1974 373.407 81.8996C373.735 83.6364 374.021 85.1605 375.521 86.7156C375.828 87.0346 376.156 87.3403 376.502 87.6283C379.426 90.0783 383.507 91.3277 387.516 91.3299C391.519 91.3299 395.442 90.0894 398.07 87.5574C398.338 87.2982 398.595 87.0235 398.838 86.7333C400.269 85.0254 400.593 83.5101 400.967 81.7512C401.107 81.0999 401.253 80.4154 401.463 79.6711C402.316 76.6539 403.324 75.3248 404.574 73.6766C405.258 72.775 406.016 71.7759 406.871 70.3117C408.74 67.1084 410.579 63.7257 411.527 59.8579C412.473 56.0034 412.546 51.6438 410.903 46.4535C409.301 41.4005 406.171 37.5482 402.236 34.8965C397.879 31.9591 392.536 30.4904 387.191 30.4904C381.845 30.4904 376.502 31.9591 372.145 34.8965C368.21 37.5482 365.078 41.4005 363.478 46.4535L363.474 46.4579ZM362.098 60.0462C361.119 56.0632 361.044 51.5662 362.736 46.2253C364.393 40.9929 367.637 37.0054 371.708 34.2607C376.196 31.2347 381.692 29.7217 387.186 29.7217C392.68 29.7217 398.176 31.2347 402.664 34.2607C406.738 37.0054 409.979 40.9951 411.636 46.2253C413.328 51.5662 413.251 56.0632 412.274 60.0462C411.299 64.0182 409.434 67.454 407.535 70.706C406.671 72.1858 405.889 73.2159 405.185 74.1463C403.987 75.7257 403.018 77.0017 402.205 79.8838C402.002 80.6015 401.86 81.2749 401.723 81.9151C401.326 83.776 400.983 85.3776 399.43 87.234C399.173 87.5419 398.896 87.8365 398.603 88.1178C395.828 90.7939 391.705 92.1075 387.514 92.1053C383.332 92.1053 379.069 90.7939 376.003 88.2242C375.64 87.9207 375.292 87.5973 374.96 87.2539C373.301 85.5326 372.993 83.9022 372.643 82.0458C372.514 81.3613 372.379 80.6458 372.164 79.886C371.351 77.0062 370.383 75.728 369.185 74.1485C368.481 73.2181 367.699 72.188 366.835 70.7082C364.936 67.4562 363.071 64.0204 362.096 60.0484L362.098 60.0462Z" fill="#3D0F9A"/>
<path fill-rule="evenodd" clip-rule="evenodd" d="M363.474 46.4579C361.83 51.646 361.901 56.0056 362.849 59.8624C363.8 63.7302 365.636 67.1129 367.506 70.3161C368.361 71.7804 369.119 72.7795 369.803 73.6811C371.05 75.327 372.06 76.6584 372.913 79.6733C373.137 80.4619 373.274 81.1974 373.407 81.8996C373.735 83.6364 374.021 85.1605 375.521 86.7156C375.828 87.0346 376.156 87.3403 376.502 87.6283C379.426 90.0783 383.507 91.3277 387.516 91.33C391.519 91.33 395.442 90.0894 398.07 87.5574C398.338 87.2982 398.595 87.0235 398.838 86.7333C400.269 85.0254 400.593 83.5101 400.967 81.7512C401.107 81.0999 401.253 80.4154 401.463 79.6711C402.316 76.6539 403.324 75.3248 404.574 73.6766C405.258 72.775 406.016 71.776 406.871 70.3117C408.74 67.1084 410.579 63.7257 411.527 59.8579C412.473 56.0034 412.546 51.6438 410.903 46.4535C409.301 41.4005 406.171 37.5482 402.236 34.8965C397.879 31.9591 392.536 30.4904 387.191 30.4904C381.845 30.4904 376.502 31.9591 372.145 34.8965C368.21 37.5482 365.078 41.4005 363.478 46.4535L363.474 46.4579ZM362.098 60.0462C361.119 56.0632 361.044 51.5662 362.736 46.2253C364.393 40.9929 367.637 37.0054 371.708 34.2607C376.196 31.2347 381.692 29.7217 387.186 29.7217C392.68 29.7217 398.176 31.2347 402.664 34.2607C406.738 37.0054 409.979 40.9951 411.636 46.2253C413.328 51.5662 413.251 56.0632 412.274 60.0462C411.299 64.0182 409.434 67.454 407.535 70.706C406.671 72.1858 405.889 73.2159 405.185 74.1463C403.987 75.7257 403.018 77.0017 402.205 79.8838C402.002 80.6015 401.86 81.2749 401.723 81.9151C401.326 83.776 400.983 85.3776 399.43 87.234C399.173 87.5419 398.896 87.8365 398.603 88.1178C395.828 90.7939 391.705 92.1075 387.514 92.1053C383.332 92.1053 379.069 90.7939 376.003 88.2242C375.64 87.9207 375.292 87.5973 374.96 87.2539C373.301 85.5326 372.993 83.9022 372.643 82.0458C372.514 81.3613 372.379 80.6458 372.164 79.886C371.351 77.0062 370.383 75.728 369.185 74.1485C368.481 73.2181 367.699 72.188 366.835 70.7082C364.936 67.4562 363.071 64.0204 362.096 60.0484L362.098 60.0462Z" fill="#3D0F9A" stroke="#3D0F9A" stroke-width="0.3"/>
<path fill-rule="evenodd" clip-rule="evenodd" d="M385.941 79.272C385.941 79.482 385.768 79.6527 385.554 79.6527C385.341 79.6527 385.167 79.482 385.167 79.272C385.163 76.2531 384.732 72.5888 384.071 68.7954C383.275 64.2277 382.144 59.4892 381.014 55.4815C380.957 55.2781 381.079 55.068 381.286 55.0133C381.492 54.9587 381.706 55.0768 381.761 55.2802C382.897 59.3164 384.036 64.0833 384.836 68.6686C385.503 72.4925 385.937 76.1984 385.943 79.272H385.941ZM390.07 81.6172C390.07 81.8294 389.896 82 389.681 82C389.465 82 389.291 81.8294 389.291 81.6172C389.291 78.432 389.661 74.9121 390.354 71.4294C391.026 68.056 392.006 64.7133 393.256 61.7381C393.338 61.5434 393.562 61.4494 393.76 61.5303C393.958 61.6113 394.051 61.8344 393.971 62.0269C392.744 64.9496 391.779 68.242 391.117 71.5737C390.432 75.0061 390.07 78.4757 390.07 81.615V81.6172Z" fill="#FF5A00" stroke="#FF5A00" stroke-width="0.221525"/>
<path d="M368.859 152.688L362.501 151.208V144.157L349.717 143.77L349.757 138.812L340.4 141.638L329.029 140.824L325.244 138.585V143.25L319.019 145.037L315.126 144.383L312.447 144.104L312.487 149.462L309.234 150.755L306.075 152.675L306.115 166.191C306.062 166.311 306.062 166.444 306.115 166.578L307.755 170.123C307.955 170.563 308.741 170.817 309.488 170.697L312.58 170.217C312.58 170.217 312.207 174.856 312.594 175.082L317.472 177.895C317.965 178.188 318.792 178.188 319.285 177.895L321.791 176.455C322.897 176.908 324.057 177.295 325.244 177.641L325.257 179.801C325.057 180.241 325.497 180.694 326.257 180.814L332.388 181.76C333.148 181.88 333.921 181.614 334.121 181.187L335.001 179.294C336.667 179.388 338.347 179.388 340.013 179.294L340.893 181.187C341.093 181.627 341.879 181.88 342.626 181.76L348.757 180.814C349.437 180.707 349.864 180.334 349.797 179.934V177.641C350.97 177.295 352.13 176.908 353.223 176.468L355.729 177.908C356.222 178.201 357.049 178.201 357.542 177.908L362.421 175.095C362.767 174.896 362.541 170.257 362.541 170.257L365.526 170.723C366.286 170.843 367.059 170.577 367.259 170.15L368.899 166.604C368.966 166.471 368.859 152.701 368.859 152.701V152.688Z" fill="#3D0F9A" stroke="#3D0F9A"/>
<path d="M321.205 164.938L317.886 167.751L318.246 169.697V178.108C318.606 178.122 318.979 178.068 319.259 177.908L321.765 176.469L321.725 168.084L321.218 164.938H321.205Z" fill="#3D0F9A"/>
<path d="M318.365 178.695C318.365 178.695 318.259 178.695 318.219 178.695L317.672 178.668V169.764L317.259 167.537L321.604 163.858L322.284 168.084L322.324 176.802L319.538 178.415C319.218 178.601 318.805 178.695 318.365 178.695ZM318.498 167.977L318.805 169.71V177.495C318.805 177.495 318.925 177.455 318.965 177.428L321.178 176.149L321.138 168.137L320.791 166.031L318.485 167.977H318.498Z" fill="#3D0F9A"/>
<path d="M309.421 162.366L309.461 170.537C309.461 170.63 309.541 170.71 309.648 170.697L312.42 170.27C312.5 170.27 312.553 170.19 312.553 170.11L312.42 166.565C312.42 166.498 312.473 166.431 312.54 166.418L318.045 164.925C318.139 164.898 318.192 164.792 318.139 164.699L315.033 159.273C315.033 159.273 314.966 159.193 314.913 159.193L310.781 158.887C310.714 158.887 310.647 158.927 310.621 158.993L309.434 162.312C309.434 162.312 309.434 162.352 309.434 162.366H309.421Z" fill="#3D0F9A"/>
<path d="M309.621 171.27C309.448 171.27 309.288 171.203 309.155 171.097C308.995 170.964 308.901 170.764 308.901 170.55L308.861 162.286L308.901 162.126L310.088 158.807C310.194 158.5 310.501 158.314 310.821 158.327L314.953 158.633C315.193 158.647 315.406 158.793 315.526 158.993L318.632 164.419C318.739 164.619 318.765 164.845 318.672 165.058C318.592 165.272 318.406 165.418 318.192 165.485L313.007 166.885L313.127 170.097C313.127 170.47 312.86 170.777 312.514 170.844L309.741 171.27C309.741 171.27 309.661 171.27 309.634 171.27H309.621ZM309.994 162.432L310.034 170.057L311.967 169.751L311.847 166.578C311.847 166.231 312.06 165.938 312.38 165.858L317.379 164.512L314.646 159.74L311.047 159.473L309.994 162.419V162.432Z" fill="#3D0F9A"/>
<path d="M334.108 181.081L334.988 179.188C336.654 179.282 338.334 179.282 340 179.188L340.88 181.081C341.08 181.521 341.866 181.774 342.613 181.654L348.744 180.708C349.424 180.601 349.851 180.228 349.784 179.828V177.535C350.957 177.189 352.117 176.802 353.21 176.362L355.716 177.802C356.209 178.095 357.036 178.095 357.529 177.802L362.407 174.989C362.754 174.789 362.527 170.151 362.527 170.151L365.513 170.617C366.273 170.737 367.046 170.471 367.246 170.044L368.886 166.498C368.952 166.365 368.846 152.595 368.846 152.595L362.487 151.116V144.064L349.704 143.677L349.744 138.719L343.599 140.572L332.309 167.898V173.31L332.349 181.694C333.108 181.814 333.882 181.548 334.081 181.121L334.108 181.081Z" fill="#3D0F9A"/>
<path d="M332.735 182.254C332.588 182.254 332.428 182.254 332.282 182.214L331.802 182.134L331.762 167.738L331.802 167.631L343.185 140.051L349.85 138.039L350.317 138.372V138.665L350.277 143.077L363.06 143.464V144.024V150.622L369.112 152.048L369.432 152.208V152.568C369.539 166.458 369.485 166.565 369.432 166.711L367.792 170.257C367.486 170.923 366.473 171.323 365.446 171.163L363.154 170.803C363.327 175.122 363.007 175.309 362.727 175.469L357.848 178.281C357.168 178.668 356.142 178.668 355.462 178.281L353.196 176.975C352.356 177.308 351.423 177.628 350.384 177.948V179.774C350.41 180.041 350.344 180.308 350.184 180.548C349.917 180.921 349.45 181.174 348.864 181.254L342.719 182.2C341.692 182.36 340.693 181.974 340.373 181.294L339.653 179.748C338.227 179.814 336.774 179.814 335.347 179.748L334.628 181.294C334.361 181.867 333.601 182.227 332.748 182.227L332.735 182.254ZM340.359 178.588L341.399 180.841C341.453 180.961 341.919 181.187 342.532 181.094L348.677 180.148C349.077 180.081 349.224 179.934 349.251 179.894V177.122L349.65 177.002C350.93 176.629 352.036 176.242 353.023 175.842L353.276 175.735L356.022 177.322C356.342 177.508 356.942 177.508 357.262 177.322L361.967 174.602C362.074 174.016 362.047 171.936 361.967 170.19L361.941 169.497L365.62 170.07C366.233 170.164 366.699 169.937 366.753 169.817L368.352 166.365C368.379 165.445 368.352 158.167 368.312 153.048L361.941 151.568V151.115V144.61L349.157 144.224V143.664L349.184 139.465L344.039 141.024L332.895 167.991L332.935 181.121C333.295 181.081 333.548 180.934 333.588 180.854L334.628 178.601H335.014C336.654 178.708 338.333 178.708 339.973 178.615H340.359V178.588Z" fill="#3D0F9A"/>
<path d="M355.582 141.024L353.169 142.411C351.783 141.837 350.33 141.358 348.824 140.958L349.703 139.065C349.903 138.625 349.464 138.185 348.704 138.065L342.559 137.119C341.799 136.999 341.026 137.265 340.826 137.692L339.946 139.585C338.28 139.491 336.6 139.491 334.934 139.585L334.054 137.692C333.854 137.252 333.068 136.999 332.321 137.119L326.176 138.065C325.416 138.185 324.977 138.625 325.177 139.065L326.056 140.958C324.55 141.358 323.097 141.837 321.711 142.411L319.298 141.024C318.738 140.704 317.845 140.704 317.299 141.024L312.806 143.624C312.247 143.944 312.247 144.463 312.806 144.783L315.219 146.17C314.233 146.969 313.393 147.809 312.7 148.676L309.421 148.169C308.661 148.049 307.888 148.316 307.688 148.742L306.048 152.288C305.848 152.728 306.288 153.168 307.048 153.288L310.327 153.794C310.167 154.754 310.167 155.727 310.327 156.687L307.048 157.193C306.288 157.313 305.848 157.753 306.048 158.193L307.688 161.739C307.888 162.179 308.674 162.432 309.421 162.312L312.7 161.806C313.393 162.672 314.233 163.512 315.219 164.312L312.82 165.698C312.26 166.018 312.26 166.538 312.82 166.858L317.312 169.457C317.872 169.777 318.765 169.777 319.311 169.457L321.711 168.071C323.097 168.644 324.55 169.124 326.056 169.524L325.177 171.416C324.977 171.856 325.416 172.296 326.176 172.416L332.308 173.363C333.068 173.483 333.841 173.216 334.041 172.789L334.921 170.897C336.587 170.99 338.266 170.99 339.933 170.897L340.812 172.789C341.012 173.229 341.799 173.483 342.545 173.363L348.677 172.416C349.437 172.296 349.877 171.856 349.677 171.416L348.797 169.524C350.303 169.124 351.756 168.644 353.143 168.071L355.555 169.457C356.115 169.777 357.008 169.777 357.555 169.457L362.047 166.858C362.607 166.538 362.607 166.018 362.047 165.698L359.634 164.312C360.621 163.512 361.46 162.672 362.154 161.806L365.433 162.312C366.193 162.432 366.966 162.165 367.166 161.739L368.805 158.193C369.005 157.753 368.565 157.313 367.805 157.193L364.526 156.687C364.686 155.727 364.686 154.754 364.526 153.794L367.805 153.288C368.565 153.168 369.005 152.728 368.805 152.288L367.166 148.742C366.966 148.302 366.179 148.049 365.433 148.169L362.154 148.676C361.46 147.809 360.621 146.969 359.634 146.17L362.047 144.783C362.607 144.463 362.607 143.944 362.047 143.624L357.555 141.024C356.995 140.704 356.102 140.704 355.555 141.024H355.582Z" fill="white" stroke="#3D0F9A"/>
<path d="M343.532 151.742C346.891 153.675 346.891 156.821 343.532 158.767C340.173 160.713 334.734 160.7 331.375 158.767C328.016 156.834 328.016 153.688 331.375 151.742C334.734 149.809 340.173 149.809 343.532 151.742Z" fill="#3D0F9A"/>
<path d="M337.454 160.779C335.147 160.779 332.841 160.273 331.095 159.26C329.282 158.22 328.296 156.794 328.296 155.261C328.296 153.728 329.296 152.302 331.095 151.262C334.601 149.236 340.319 149.236 343.825 151.262C345.638 152.302 346.624 153.728 346.624 155.261C346.624 156.794 345.625 158.22 343.825 159.26C342.066 160.273 339.773 160.779 337.467 160.779H337.454ZM337.454 150.862C335.361 150.862 333.255 151.328 331.655 152.248C330.215 153.075 329.416 154.154 329.416 155.261C329.416 156.367 330.215 157.447 331.655 158.273C334.854 160.113 340.053 160.113 343.239 158.273C344.678 157.447 345.478 156.367 345.478 155.261C345.478 154.154 344.678 153.075 343.239 152.248C341.639 151.328 339.546 150.862 337.44 150.862H337.454Z" fill="#3D0F9A"/>
<path d="M337.454 150.289C335.255 150.289 333.055 150.768 331.376 151.742C328.017 153.674 328.017 156.82 331.376 158.766C332.922 159.659 334.908 160.139 336.934 160.206H337.454V150.289Z" fill="#3D0F9A"/>
<path d="M338.014 160.779H336.934C334.722 160.699 332.642 160.166 331.082 159.26C329.27 158.22 328.283 156.794 328.283 155.261C328.283 153.728 329.283 152.302 331.082 151.262C332.789 150.276 335.055 149.729 337.441 149.729H338.014V160.779ZM336.868 150.875C334.881 150.955 333.055 151.435 331.642 152.235C330.203 153.061 329.403 154.141 329.403 155.248C329.403 156.354 330.203 157.434 331.642 158.26C333.029 159.06 334.881 159.54 336.868 159.62V150.862V150.875Z" fill="#3D0F9A"/>
<path d="M331.362 158.726C331.362 158.726 331.362 158.74 331.362 158.766C334.748 160.699 340.24 160.686 343.572 158.7C343.572 158.686 343.572 158.686 343.572 158.66C340.187 156.727 334.695 156.74 331.362 158.726Z" fill="#3D0F9A"/>
<path d="M337.414 160.766C335.121 160.766 332.842 160.26 331.082 159.26L330.816 159.1L330.789 158.447L331.082 158.233C334.575 156.154 340.32 156.127 343.866 158.167L344.159 158.327V158.98L343.879 159.18C342.106 160.233 339.76 160.753 337.427 160.753L337.414 160.766ZM332.602 158.74C335.508 159.966 339.48 159.94 342.346 158.687C339.44 157.46 335.468 157.487 332.602 158.74Z" fill="#3D0F9A"/>
<path d="M334.762 151.168H333.615V156.954H334.762V151.168Z" fill="#3D0F9A"/>
<path d="M324.673 171.948L324.649 179.799L325.796 179.803L325.819 171.951L324.673 171.948Z" fill="#3D0F9A"/>
<path d="M342.145 174.189H340.999V181.134H342.145V174.189Z" fill="#3D0F9A"/>
<path d="M356.808 170.577H355.662V177.522H356.808V170.577Z" fill="#3D0F9A"/>
<path d="M366.699 163.192H365.553V170.137H366.699V163.192Z" fill="#3D0F9A"/>
<path d="M383.162 140.344L383.109 133.186C383.109 133.106 383.056 133.039 382.976 133.013L379.536 132.146C379.536 132.146 379.51 132.146 379.496 132.133L368.979 126.214C368.979 126.214 368.886 126.121 368.886 126.068V119.936C368.886 119.816 368.766 119.723 368.646 119.776L365.06 121.216C365.06 121.216 365.02 121.216 365.007 121.216L344.772 122.815L327.417 125.108C327.337 125.108 327.27 125.188 327.27 125.281L327.15 133.946C327.15 134.052 327.057 134.132 326.963 134.119L323.364 133.732C323.258 133.732 323.178 133.799 323.178 133.906V141.704C323.178 141.704 323.191 141.744 323.204 141.77C323.178 141.997 323.204 142.224 323.298 142.45L326.27 148.862C326.763 149.928 328.683 150.568 330.536 150.288L333.922 149.768C334.575 150.262 335.268 150.728 336.054 151.181C336.521 151.448 336.987 151.688 337.481 151.928V155.1C337.654 155.9 338.627 156.593 340.053 156.82L351.157 158.539C353.01 158.833 354.929 158.193 355.423 157.113L356.329 155.154C358.462 154.994 360.555 154.674 362.568 154.194L365.034 155.62C366.393 156.407 368.593 156.407 369.952 155.62L378.07 150.928C378.843 150.488 379.163 149.888 379.057 149.302C379.057 149.275 379.083 149.262 379.083 149.235V142.77L380.643 142.53C382.336 142.264 383.389 141.317 383.175 140.344H383.162Z" fill="#3D0F9A"/>
<path d="M352.023 159.167C351.703 159.167 351.37 159.14 351.037 159.087L339.933 157.367C338.307 157.114 337.12 156.261 336.907 155.208V155.101L336.88 152.275C336.494 152.075 336.107 151.875 335.734 151.662C335.041 151.262 334.374 150.822 333.748 150.355L330.602 150.849C328.469 151.182 326.337 150.409 325.737 149.102L322.764 142.691C322.644 142.424 322.591 142.131 322.604 141.824V141.718L322.591 133.92C322.591 133.706 322.684 133.507 322.844 133.36C323.004 133.213 323.204 133.147 323.417 133.173L326.59 133.507L326.696 125.282C326.696 124.909 326.976 124.602 327.336 124.549L344.772 122.243L364.9 120.657L368.432 119.23C368.659 119.137 368.925 119.164 369.125 119.31C369.325 119.443 369.459 119.683 369.459 119.923V125.828L379.723 131.614L383.108 132.467C383.442 132.547 383.668 132.84 383.668 133.187L383.722 140.291C383.802 140.758 383.695 141.238 383.402 141.664C382.908 142.384 381.922 142.904 380.696 143.104L379.616 143.277V149.382V149.409C379.669 150.196 379.216 150.929 378.336 151.435L370.218 156.127C368.686 157.02 366.259 157.02 364.727 156.127L362.447 154.808C360.594 155.234 358.661 155.541 356.675 155.701L355.916 157.354C355.409 158.46 353.796 159.18 352.037 159.18L352.023 159.167ZM338.04 155.034C338.173 155.487 338.853 156.061 340.106 156.247L351.21 157.967C352.943 158.233 354.529 157.607 354.862 156.874L355.916 154.621L356.249 154.594C358.368 154.434 360.434 154.114 362.394 153.648L362.62 153.595L365.286 155.141C366.459 155.821 368.459 155.821 369.645 155.141L377.763 150.449C378.283 150.156 378.536 149.782 378.47 149.422L378.443 149.249L378.496 149.142V142.304L380.549 141.984C381.442 141.851 382.175 141.491 382.482 141.025C382.615 140.838 382.655 140.651 382.615 140.478V140.358L382.549 133.507L379.216 132.653L368.699 126.735C368.459 126.602 368.326 126.348 368.326 126.082V120.537L365.073 121.816L344.838 123.416L327.843 125.669L327.736 133.986C327.736 134.2 327.643 134.4 327.483 134.533C327.323 134.666 327.123 134.733 326.91 134.72L323.751 134.386L323.777 141.718V141.891C323.751 142.024 323.764 142.144 323.817 142.251L326.79 148.663C327.136 149.396 328.723 150.036 330.442 149.756L334.068 149.196L334.254 149.342C334.908 149.836 335.601 150.302 336.321 150.715C336.774 150.969 337.24 151.222 337.707 151.449L338.027 151.608V155.074L338.04 155.034Z" fill="#3D0F9A"/>
<path d="M327.683 150.009C328.482 150.316 329.509 150.449 330.522 150.289L333.908 149.769C333.908 149.769 333.908 149.769 333.921 149.782V136.279H327.683V150.009Z" fill="#3D0F9A"/>
<path d="M329.629 150.929C328.882 150.929 328.136 150.796 327.469 150.542L327.109 150.396V135.693H334.494V150.876L333.761 150.356L330.602 150.849C330.282 150.902 329.949 150.929 329.629 150.929ZM328.256 149.596C328.936 149.783 329.709 149.836 330.429 149.729L333.348 149.276V136.839H328.242V149.596H328.256Z" fill="#3D0F9A"/>
<path d="M355.382 157.114L356.289 155.155C358.422 154.995 360.514 154.675 362.527 154.195L364.993 155.621C366.353 156.408 368.552 156.408 369.912 155.621L378.03 150.929C378.803 150.489 379.123 149.889 379.016 149.303C379.016 149.276 379.043 149.263 379.043 149.236V142.771L380.602 142.531C382.295 142.265 383.348 141.318 383.135 140.345L383.082 133.187C383.082 133.107 383.029 133.04 382.949 133.014L379.509 132.147C379.509 132.147 379.483 132.147 379.469 132.134L378.59 131.641C375.75 133.014 372.631 134.547 372.565 134.653C372.431 134.84 363.607 142.438 363.607 142.438L351.063 145.65V150.609L351.103 158.514C352.956 158.807 354.876 158.167 355.369 157.087L355.382 157.114Z" fill="#3D0F9A"/>
<path d="M352.024 159.167C351.704 159.167 351.371 159.14 351.037 159.087L350.558 159.007L350.518 145.21L363.368 141.918C366.78 138.985 371.859 134.586 372.165 134.28C372.232 134.16 372.285 134.08 378.377 131.134L378.644 131L379.737 131.614L383.122 132.467C383.456 132.547 383.682 132.84 383.682 133.187L383.736 140.291C383.816 140.758 383.709 141.238 383.416 141.664C382.922 142.384 381.936 142.904 380.71 143.104L379.63 143.277V149.382V149.409C379.683 150.196 379.23 150.929 378.35 151.435L370.232 156.127C368.7 157.02 366.273 157.02 364.741 156.127L362.461 154.808C360.608 155.234 358.675 155.541 356.689 155.701L355.93 157.354C355.423 158.46 353.81 159.18 352.051 159.18L352.024 159.167ZM351.691 158.02C353.224 158.113 354.557 157.54 354.863 156.874L355.916 154.621L356.249 154.594C358.369 154.434 360.435 154.114 362.394 153.648L362.621 153.595L365.287 155.141C366.46 155.821 368.46 155.821 369.646 155.141L377.764 150.449C378.284 150.156 378.537 149.782 378.47 149.422L378.444 149.249L378.497 149.142V142.304L380.55 141.984C381.443 141.851 382.176 141.491 382.483 141.025C382.616 140.838 382.656 140.651 382.616 140.478V140.358L382.549 133.507L379.217 132.653L378.604 132.307C373.938 134.573 373.085 135.026 372.952 135.119C372.592 135.466 371.072 136.826 364.007 142.891L363.901 142.971L351.651 146.117L351.691 158.033V158.02Z" fill="#3D0F9A"/>
<path d="M375.817 124.336L372.431 124.856C371.778 124.362 371.085 123.896 370.298 123.443C369.525 122.989 368.712 122.589 367.859 122.216L368.766 120.257C369.259 119.19 368.166 118.084 366.299 117.791L355.196 116.071C353.343 115.778 351.423 116.418 350.93 117.497L350.024 119.457C347.891 119.617 345.798 119.937 343.785 120.417L341.319 118.99C339.96 118.204 337.76 118.204 336.401 118.99L328.283 123.683C326.923 124.469 326.923 125.735 328.283 126.522L330.749 127.948C329.909 129.108 329.362 130.321 329.082 131.547L325.697 132.067C323.844 132.36 322.737 133.453 323.231 134.533L326.203 140.945C326.696 142.011 328.616 142.651 330.469 142.371L333.855 141.851C334.508 142.344 335.201 142.811 335.987 143.264C336.76 143.717 337.574 144.117 338.427 144.49L337.52 146.45C337.027 147.516 338.12 148.623 339.986 148.916L351.09 150.636C352.943 150.929 354.862 150.289 355.356 149.209L356.262 147.25C358.395 147.09 360.488 146.77 362.5 146.29L364.967 147.716C366.326 148.503 368.526 148.503 369.885 147.716L378.003 143.024C379.363 142.238 379.363 140.971 378.003 140.185L375.537 138.759C376.377 137.599 376.923 136.386 377.203 135.16L380.589 134.64C382.442 134.346 383.548 133.253 383.055 132.174L380.083 125.762C379.589 124.696 377.67 124.056 375.817 124.336Z" fill="white" stroke="#3D0F9A"/>
<path d="M360.341 129.201C364.314 131.494 364.314 135.213 360.341 137.506C356.369 139.799 349.917 139.799 345.945 137.506C341.973 135.213 341.973 131.494 345.945 129.201C349.917 126.909 356.369 126.909 360.341 129.201Z" fill="#3D0F9A"/>
<path d="M353.143 139.798C350.437 139.798 347.731 139.199 345.665 138.012C343.559 136.799 342.399 135.146 342.399 133.36C342.399 131.574 343.559 129.921 345.665 128.708C349.797 126.322 356.502 126.322 360.635 128.708C362.741 129.921 363.9 131.574 363.9 133.36C363.9 135.146 362.741 136.799 360.635 138.012C358.569 139.199 355.863 139.798 353.157 139.798H353.143ZM353.143 128.055C350.637 128.055 348.131 128.601 346.225 129.708C344.492 130.707 343.532 132.014 343.532 133.373C343.532 134.733 344.492 136.026 346.225 137.039C350.037 139.239 356.236 139.239 360.048 137.039C361.781 136.039 362.741 134.733 362.741 133.373C362.741 132.014 361.781 130.721 360.048 129.708C358.142 128.615 355.636 128.055 353.143 128.055Z" fill="#3D0F9A"/>
<path d="M353.143 127.495C350.544 127.495 347.931 128.068 345.945 129.215C341.973 131.507 341.973 135.226 345.945 137.519C347.771 138.572 350.131 139.145 352.53 139.225H353.143V127.495Z" fill="#3D0F9A"/>
<path d="M353.716 139.799H352.53C349.931 139.705 347.491 139.079 345.665 138.012C343.559 136.799 342.399 135.147 342.399 133.36C342.399 131.574 343.559 129.935 345.665 128.708C347.678 127.549 350.331 126.909 353.143 126.909H353.716V139.785V139.799ZM352.57 128.068C350.171 128.148 347.931 128.722 346.225 129.708C344.492 130.708 343.532 132.014 343.532 133.374C343.532 134.733 344.492 136.026 346.225 137.039C347.905 137.999 350.144 138.586 352.543 138.666H352.557V128.082L352.57 128.068Z" fill="#3D0F9A"/>
<path d="M345.932 137.479C345.932 137.479 345.932 137.492 345.932 137.519C349.944 139.812 356.436 139.785 360.395 137.439C360.395 137.412 360.395 137.426 360.395 137.399C356.382 135.106 349.891 135.133 345.932 137.479Z" fill="#3D0F9A"/>
<path d="M353.103 139.785C350.411 139.785 347.731 139.198 345.665 138.012L345.372 137.852V137.199L345.652 136.986C349.758 134.546 356.503 134.506 360.688 136.906L360.968 137.066L360.995 137.719L360.701 137.932C358.622 139.172 355.863 139.785 353.117 139.785H353.103ZM347.145 137.492C350.704 139.078 355.689 139.052 359.195 137.426C355.636 135.839 350.651 135.866 347.145 137.492Z" fill="#3D0F9A"/>
<path d="M338.04 147.356H336.894V155.101H338.04V147.356Z" fill="#3D0F9A"/>
<path d="M349.85 128.521H348.704V135.373H349.85V128.521Z" fill="#3D0F9A"/>
<path d="M357.062 148.063H355.916V154.381H357.062V148.063Z" fill="#3D0F9A"/>
<path d="M368.433 149.129H367.286V155.447H368.433V149.129Z" fill="#3D0F9A"/>
<path d="M379.79 135.373H378.644V140.705H379.79V135.373Z" fill="#3D0F9A"/>
<path d="M119.314 52.2316L119.337 43.8392L107.518 43.7664L90.8149 34.1094C88.6527 32.858 85.9847 32.858 83.8224 34.1094L67.5364 43.5247L55.3301 43.4519V52.2316H55.3532C55.2078 53.5525 55.7929 54.9462 57.1121 55.7011L84.0439 71.0853C86.2029 72.3202 88.8511 72.3102 91.0034 71.0688L117.568 55.711C118.881 54.9529 119.463 53.5558 119.311 52.2349L119.314 52.2316Z" fill="#3D0F9A"/>
<path d="M119.314 47.2755L119.337 38.8832L107.518 38.8104L90.8149 29.1534C88.6527 27.902 85.9847 27.902 83.8224 29.1534L67.5364 38.5687L55.3301 38.4959V47.2755H55.3532C55.2078 48.5964 55.7929 49.9902 57.1121 50.745L84.0439 66.1293C86.2029 67.3608 88.8511 67.3542 91.0034 66.1127L117.568 50.7549C118.881 49.9935 119.463 48.5997 119.311 47.2788L119.314 47.2755Z" fill="#FF5A00"/>
<path d="M119.314 38.0885L119.337 29.6962L107.518 29.6233L90.8149 19.9664C88.6527 18.715 85.9847 18.715 83.8224 19.9664L67.5364 29.3817L55.3301 29.3088V38.0885H55.3532C55.2078 39.4094 55.7929 40.8032 57.1121 41.558L84.0439 56.9423C86.2029 58.1771 88.8511 58.1672 91.0034 56.9257L117.568 41.5679C118.881 40.8098 119.463 39.4127 119.311 38.0918L119.314 38.0885Z" fill="#3D0F9A"/>
<path d="M119.314 33.1329L119.337 24.7406L107.518 24.6678L90.8149 15.0108C88.6527 13.7594 85.9847 13.7594 83.8224 15.0108L67.5364 24.4261L55.3301 24.3533V33.1329H55.3532C55.2078 34.4539 55.7929 35.8476 57.1121 36.6024L84.0439 51.9867C86.2029 53.2182 88.8511 53.2116 91.0034 51.9701L117.568 36.6124C118.881 35.8509 119.463 34.4572 119.311 33.1362L119.314 33.1329Z" fill="#3D0F9A"/>
<path d="M57.096 21.7147L83.8229 6.26419C85.9851 5.0161 88.6498 5.0161 90.8154 6.26419L117.572 21.7312C119.926 23.0919 119.926 26.4985 117.572 27.8591L91.0071 43.2169C88.8548 44.4617 86.2033 44.4683 84.0477 43.2335L57.1125 27.8525C54.742 26.4985 54.7354 23.0819 57.096 21.7147Z" fill="white" stroke="#3D0F9A"/>
<path d="M97.5294 27.143L96.1713 27.04L91.6237 17.8702C91.1764 16.9664 89.8375 16.6576 88.8656 17.2333L77.6721 23.8751L74 23.7786V26.8471C74 27.5257 74.5214 28.1883 75.4547 28.3427L95.2894 31.6169C96.4963 31.8164 97.5358 31.0026 97.5262 30.0699V27.143H97.5294Z" fill="#3D0F9A"/>
<path d="M95.3992 31.6473C95.2614 31.6473 95.1267 31.635 94.9857 31.6134L75.6791 28.4738C74.6892 28.3136 74 27.5988 74 26.7392L75.4706 24.2943L77.803 23.5843L88.6264 17.2651C89.1903 16.9354 89.8826 16.8522 90.5248 17.0402C91.0824 17.2035 91.5178 17.5455 91.7497 18.0045L96.0947 26.6314L96.0588 26.7392V30.1767C95.9554 30.4663 97.1472 30.9048 96.8903 31.1204C96.4831 31.4655 95.9537 31.6473 95.3992 31.6473ZM74.6265 24.1173V26.7392C74.6265 27.2075 74.9805 27.7375 75.7825 27.8669L95.0891 31.0034C95.5997 31.0865 96.1228 30.9541 96.4831 30.649C96.7525 30.4241 96.9029 30.1253 96.9029 29.8295L96.8966 29.2472H96.9029V27.3061L95.6905 27.2168L91.1858 18.2757C91.0323 17.9706 90.7347 17.7426 90.3462 17.6286C89.8763 17.4931 89.3532 17.5547 88.9428 17.7919L77.9691 24.2035L74.6265 24.1173Z" fill="#3D0F9A"/>
<path d="M89.1226 14.721L89.1222 14.7212L75.2951 22.9231V22.926L75.0505 23.0713C74.5602 23.3628 74.4442 23.7743 74.5227 24.1031C74.6038 24.4425 74.9211 24.8064 75.5362 24.9081C75.5362 24.9081 75.5362 24.9081 75.5363 24.9081L95.3708 28.1825L89.1226 14.721ZM89.1226 14.721C89.4868 14.5045 89.9308 14.451 90.3287 14.5431M89.1226 14.721L90.3287 14.5431M90.3287 14.5431C90.7287 14.6357 91.0336 14.8618 91.177 15.1504M90.3287 14.5431L91.177 15.1504M91.177 15.1504C91.177 15.1505 91.177 15.1505 91.177 15.1505M91.177 15.1504L91.177 15.1505M91.177 15.1505L96.94 26.7746C96.94 26.7747 96.9401 26.7748 96.9402 26.7749C97.1108 27.1202 97.0305 27.4852 96.74 27.7793C96.4434 28.0795 95.9421 28.2757 95.3715 28.1826L91.177 15.1505Z" fill="white" stroke="#3D0F9A"/>
<path d="M95.3882 28.7028C95.2535 28.7028 95.1188 28.6905 94.9841 28.6689L75.6785 25.5321C74.817 25.3935 74.1686 24.8265 74.0276 24.0901C73.8961 23.3968 74.2406 22.7189 74.9267 22.3183L88.6251 14.3223C89.1889 13.9926 89.8812 13.9125 90.5234 14.0974C91.081 14.2607 91.5164 14.6027 91.7482 15.0619L97.3585 26.1977C97.6342 26.7462 97.5746 27.3532 97.1925 27.8585C96.7884 28.3947 96.1086 28.7059 95.3882 28.7059V28.7028ZM89.8374 14.6181C89.521 14.6181 89.2077 14.6983 88.9415 14.8523L75.2462 22.8514C74.7826 23.1226 74.557 23.5447 74.6416 23.9792C74.7356 24.4629 75.171 24.8265 75.7787 24.9251L95.0843 28.0619C95.7202 28.1667 96.3498 27.9417 96.6881 27.4888C96.826 27.3039 97.0265 26.9249 96.7946 26.4689L91.1875 15.3361C91.034 15.031 90.7364 14.803 90.348 14.689C90.1819 14.6397 90.0128 14.6181 89.8405 14.6181H89.8374Z" fill="#3D0F9A"/>
<rect x="0.433095" y="-0.250048" width="61.6568" height="90.3302" rx="3.08545" transform="matrix(0.000110185 -1 0.866081 0.499904 175.779 73.8017)" stroke="#3D0F9A" stroke-dasharray="1.43 1.43"/>
<path d="M273.955 79.9928L157.817 12.9423C156.788 12.3514 155.842 12.2839 155.099 12.6468C155.099 12.6468 155.082 12.6468 155.082 12.6553C155.066 12.6553 155.057 12.6637 155.04 12.6722C150.811 14.5631 147.882 16.8845 147.882 16.8845L153.462 22.3208V105.697C153.462 108.905 155.412 112.636 157.817 114.029L270.629 179.163L266.695 181.105L269.54 185.562C269.54 185.562 273.026 184.608 276.977 181.197C277.796 180.615 278.311 179.433 278.311 177.787V88.3245C278.311 85.1168 276.361 81.3856 273.955 79.9928Z" fill="#3D0F9A"/>
<path d="M269.363 186.043L266.097 180.936L269.743 179.138L157.615 114.392C155.1 112.94 153.049 109.04 153.049 105.697V22.4979L147.258 16.8505L147.629 16.5551C147.747 16.4622 150.643 14.183 154.872 12.2837L155.1 12.6382L154.931 12.2584C155.826 11.8279 156.923 11.9376 158.038 12.5707L274.175 79.6212C276.691 81.0731 278.742 84.9731 278.742 88.3075V177.77C278.742 179.492 278.21 180.826 277.231 181.518C273.289 184.928 269.811 185.908 269.659 185.941L269.363 186.026V186.043ZM267.304 181.273L269.726 185.063C270.63 184.76 273.534 183.628 276.708 180.876C277.476 180.328 277.898 179.214 277.898 177.787V88.3244C277.898 85.2517 276.032 81.6809 273.745 80.3556L157.615 13.3051C156.746 12.7986 155.936 12.7058 155.286 13.0266L155.227 13.0519C151.951 14.5207 149.436 16.2596 148.524 16.9349L153.876 22.1602V105.714C153.876 108.786 155.741 112.357 158.029 113.682L271.516 179.205L267.304 181.282V181.273Z" fill="#3D0F9A"/>
<path d="M153.504 30.3993V61.2022L225.079 103.182L269.591 77.4436L170.809 20.4131L153.504 30.3993Z" fill="#3D0F9A"/>
<path d="M225.08 103.662L224.869 103.536L153.091 61.4383V30.1627L170.809 19.9316L171.02 20.0498L270.436 77.4433L225.088 103.662H225.08ZM153.927 60.9571L225.088 102.7L268.764 77.4433L170.809 20.894L153.927 30.6439V60.9656V60.9571Z" fill="#3D0F9A"/>
<path d="M152.011 20.9617L153.412 22.3208V25.022L165.762 17.5598L159.76 14.0903L152.585 18.1591L152.011 20.9617Z" fill="#3D0F9A"/>
<path d="M152.99 25.7644V22.506L151.555 21.1048L152.213 17.897L159.76 13.6172L166.58 17.5509L152.99 25.7644ZM152.458 20.8178L153.817 22.1515V24.2872L164.934 17.5678L159.751 14.5711L152.948 18.4288L152.458 20.8178Z" fill="#3D0F9A"/>
<path d="M245.837 99.9903L244.503 164.356L270.03 179.095L278.311 174.343V88.6028C278.311 86.5515 277.509 84.2808 276.302 82.5503L261.968 90.7892L245.828 99.9903H245.837Z" fill="#3D0F9A"/>
<path d="M270.039 179.576L244.09 164.593V164.348L245.432 99.7455L261.775 90.4262L276.438 81.9932L276.657 82.3055C277.965 84.1795 278.742 86.5262 278.742 88.5944V174.579L270.039 179.568V179.576ZM244.934 164.12L270.039 178.614L277.906 174.106V88.6028C277.906 86.8132 277.265 84.7873 276.184 83.1074L262.188 91.1521L246.259 100.235L244.942 164.112L244.934 164.12Z" fill="#3D0F9A"/>
<path d="M266.915 185.224L150.769 118.173C148.363 116.781 146.413 113.058 146.413 109.842V20.3792C146.413 17.1715 148.363 15.6942 150.769 17.087L266.906 84.1375C269.312 85.5304 271.262 89.2531 271.262 92.4693V181.932C271.262 185.14 269.312 186.617 266.906 185.224H266.915Z" fill="white"/>
<path d="M268.646 186.169C268.03 186.169 267.371 185.975 266.704 185.587L150.567 118.536C148.051 117.084 146 113.184 146 109.85V20.379C146 18.5388 146.625 17.1206 147.714 16.496C148.642 15.9642 149.799 16.0401 150.98 16.7239L267.118 83.7744C269.634 85.2263 271.685 89.1263 271.685 92.4691V181.932C271.685 183.772 271.06 185.19 269.971 185.815C269.566 186.051 269.119 186.161 268.646 186.161V186.169ZM267.118 184.869C268.03 185.393 268.899 185.477 269.558 185.097C270.385 184.624 270.858 183.468 270.858 181.932V92.4691C270.858 89.3964 268.992 85.8257 266.704 84.5004L150.567 17.4499C149.655 16.9265 148.786 16.8421 148.127 17.2219C147.3 17.6947 146.827 18.8511 146.827 20.3875V109.85C146.827 112.923 148.693 116.493 150.98 117.819L267.118 184.869Z" fill="#3D0F9A" stroke="#3D0F9A" stroke-width="0.2"/>
<path d="M266.519 175.727L151.166 109.124C150.483 108.727 149.917 107.664 149.917 106.744V22.2278C149.917 21.3077 150.474 20.8857 151.166 21.2824L266.519 87.8855C267.203 88.2823 267.768 89.3459 267.768 90.266V174.782C267.768 175.702 267.211 176.124 266.519 175.727Z" fill="white"/>
<path d="M267.016 176.293C266.789 176.293 266.552 176.225 266.316 176.09L150.955 109.487C150.136 109.014 149.503 107.816 149.503 106.744V22.2279C149.503 21.5947 149.739 21.0967 150.144 20.8603C150.507 20.6493 150.938 20.6746 151.377 20.9279L266.729 87.531C267.548 88.0037 268.181 89.2024 268.181 90.2745V174.79C268.181 175.423 267.945 175.921 267.54 176.158C267.379 176.251 267.202 176.301 267.008 176.301L267.016 176.293ZM266.729 175.364C266.822 175.415 267 175.499 267.126 175.432C267.236 175.373 267.346 175.17 267.346 174.782V90.266C267.346 89.4978 266.873 88.5693 266.307 88.2485L150.955 21.6454C150.862 21.5863 150.676 21.5103 150.558 21.5779C150.448 21.637 150.339 21.8395 150.339 22.2279V106.744C150.339 107.512 150.811 108.44 151.377 108.761L266.729 175.364Z" fill="#3D0F9A" stroke="#3D0F9A" stroke-width="0.2"/>
<path d="M213.016 150.226L204.668 145.406C204.296 145.195 203.992 144.612 203.992 144.114C203.992 143.616 204.296 143.388 204.668 143.608L213.016 148.428C213.388 148.647 213.691 149.221 213.691 149.719C213.691 150.217 213.388 150.445 213.016 150.226Z" fill="#3D0F9A"/>
<path d="M213.286 150.724C213.126 150.724 212.966 150.681 212.805 150.588L204.457 145.768C203.95 145.481 203.57 144.764 203.57 144.114C203.57 143.7 203.731 143.371 204.009 143.211C204.263 143.067 204.575 143.076 204.87 143.244L213.219 148.064C213.725 148.351 214.105 149.061 214.105 149.711C214.105 150.124 213.945 150.453 213.666 150.614C213.548 150.681 213.421 150.715 213.286 150.715V150.724ZM204.414 143.945C204.414 143.945 204.414 144.021 204.414 144.114C204.414 144.494 204.659 144.916 204.879 145.042L213.227 149.863C213.227 149.863 213.261 149.879 213.27 149.879C213.261 149.863 213.27 149.803 213.27 149.711C213.27 149.331 213.025 148.909 212.805 148.782L204.457 143.962C204.457 143.962 204.423 143.945 204.414 143.945Z" fill="#3D0F9A"/>
<path d="M197.511 67.9189L170.286 50.6948C169.187 49.9914 168.297 48.1283 168.297 46.5314C168.297 44.9344 169.204 44.193 170.304 44.8964L197.546 62.1205C198.645 62.8239 199.535 64.687 199.535 66.284C199.535 67.8809 198.628 68.6224 197.528 67.9189H197.511Z" fill="#3D0F9A"/>
<path d="M198.313 68.8124C197.964 68.8124 197.598 68.6984 197.231 68.4702L169.989 51.2271C168.715 50.4286 167.721 48.3564 167.721 46.5313C167.721 45.4667 168.087 44.6302 168.698 44.231C169.239 43.8888 169.92 43.9268 170.583 44.3451L197.825 61.5692C199.099 62.3866 200.093 64.4399 200.093 66.2649C200.093 67.3296 199.727 68.166 199.116 68.5653C198.872 68.7174 198.61 68.7934 198.313 68.7934V68.8124ZM197.807 67.3866C197.982 67.5007 198.296 67.6527 198.54 67.5007C198.785 67.3486 198.942 66.8733 198.942 66.2839C198.942 64.9151 198.174 63.2422 197.249 62.6718L170.007 45.4287C169.832 45.3146 169.518 45.1625 169.274 45.3146C169.03 45.4667 168.873 45.942 168.873 46.5313C168.873 47.9001 169.64 49.5731 170.565 50.1435L197.807 67.3676V67.3866Z" fill="#3D0F9A"/>
<path d="M212.188 77.1963L203.864 71.9302C202.764 71.2268 201.874 69.3637 201.874 67.7667C201.874 66.1698 202.782 65.4284 203.881 66.1318L212.205 71.3979C213.305 72.1013 214.195 73.9644 214.195 75.5613C214.195 77.1582 213.287 77.8997 212.188 77.1963Z" fill="#FF5A00"/>
<path d="M212.973 78.0898C212.624 78.0898 212.257 77.9757 211.891 77.7476L203.567 72.4815C202.293 71.664 201.298 69.6108 201.298 67.7857C201.298 66.7211 201.664 65.8846 202.275 65.4854C202.816 65.1432 203.497 65.1812 204.16 65.5994L212.484 70.8655C213.758 71.683 214.77 73.7362 214.753 75.5613C214.753 76.6259 214.387 77.4624 213.776 77.8616C213.531 78.0137 213.27 78.0898 212.973 78.0898ZM212.467 76.6639C212.641 76.778 212.956 76.9301 213.2 76.778C213.444 76.6259 213.601 76.1506 213.601 75.5613C213.601 74.1925 212.833 72.5195 211.908 71.9492L203.584 66.6831C203.409 66.569 203.095 66.4169 202.851 66.569C202.607 66.7211 202.45 67.1964 202.45 67.7857C202.45 69.1545 203.218 70.8275 204.142 71.3979L212.467 76.6639Z" fill="#FF5A00"/>
<path d="M211.733 86.7969L210.861 86.2456C209.761 85.5422 208.871 83.6791 208.871 82.0822C208.871 80.4852 209.779 79.7438 210.878 80.4472L211.751 80.9985C212.85 81.7019 213.74 83.565 213.74 85.162C213.74 86.7589 212.833 87.5003 211.733 86.7969Z" fill="#3D0F9A"/>
<path d="M212.537 87.6714C212.188 87.6714 211.821 87.5573 211.455 87.3292L210.582 86.7779C209.308 85.9604 208.313 83.9072 208.313 82.0821C208.313 81.0175 208.68 80.181 209.291 79.7818C209.832 79.4396 210.512 79.4776 211.176 79.8958L212.048 80.4472C213.322 81.2646 214.317 83.3178 214.317 85.1429C214.317 86.2075 213.95 87.044 213.34 87.4433C213.095 87.5954 212.833 87.6714 212.537 87.6714ZM212.031 86.2456C212.205 86.3596 212.519 86.5117 212.764 86.3596C213.008 86.2075 213.165 85.7323 213.165 85.1429C213.165 83.7741 212.397 82.1011 211.472 81.5308L210.6 80.9795C210.425 80.8654 210.111 80.7133 209.867 80.8654C209.622 81.0175 209.465 81.4928 209.465 82.0821C209.465 83.4509 210.233 85.1239 211.158 85.6942L212.031 86.2456Z" fill="#3D0F9A"/>
<path d="M226.411 96.0747L218.086 90.8086C216.987 90.1052 216.097 88.2421 216.097 86.6451C216.097 85.0482 217.004 84.3068 218.104 85.0102L226.428 90.2763C227.527 90.9797 228.417 92.8428 228.417 94.4397C228.417 96.0367 227.51 96.7781 226.411 96.0747Z" fill="#3D0F9A"/>
<path d="M227.213 96.9482C226.864 96.9482 226.498 96.8341 226.131 96.606L217.807 91.3399C216.533 90.5224 215.538 88.4692 215.538 86.6441C215.538 85.5795 215.905 84.743 216.515 84.3438C217.056 84.0016 217.737 84.0396 218.4 84.4578L226.725 89.7239C227.999 90.5414 229.011 92.5946 228.993 94.4197C228.993 95.4843 228.627 96.3208 228.016 96.72C227.772 96.8721 227.51 96.9482 227.213 96.9482ZM226.707 95.5223C226.882 95.6364 227.196 95.7885 227.44 95.6364C227.684 95.4843 227.841 95.009 227.841 94.4197C227.841 93.0509 227.074 91.3779 226.149 90.8076L217.824 85.5415C217.65 85.4274 217.336 85.2753 217.091 85.4274C216.847 85.5795 216.69 86.0548 216.69 86.6441C216.69 88.0129 217.458 89.6859 218.383 90.2563L226.707 95.5223Z" fill="#3D0F9A"/>
<path d="M248.905 110.294L232.954 100.199C231.855 99.4958 230.965 97.6327 230.965 96.0358C230.965 94.4388 231.872 93.6974 232.972 94.4008L248.923 104.496C250.022 105.199 250.912 107.062 250.912 108.659C250.912 110.256 250.005 110.998 248.905 110.294Z" fill="#3D0F9A"/>
<path d="M249.691 111.188C249.342 111.188 248.976 111.074 248.609 110.845L232.658 100.751C231.384 99.9331 230.39 97.8798 230.39 96.0548C230.39 94.9901 230.756 94.1537 231.367 93.7544C231.908 93.4122 232.589 93.4502 233.252 93.8685L249.202 103.963C250.476 104.781 251.489 106.834 251.471 108.659C251.471 109.724 251.105 110.56 250.494 110.96C250.25 111.112 249.988 111.188 249.691 111.188ZM249.185 109.762C249.36 109.876 249.674 110.028 249.918 109.876C250.162 109.724 250.319 109.249 250.319 108.659C250.319 107.29 249.551 105.617 248.627 105.047L232.676 94.9521C232.501 94.8381 232.187 94.686 231.943 94.8381C231.699 94.9901 231.541 95.4654 231.541 96.0548C231.541 97.4236 232.309 99.0966 233.234 99.6669L249.185 109.762Z" fill="#3D0F9A"/>
<path d="M203.654 81.6635L195.329 76.3975C194.23 75.694 193.34 73.8309 193.34 72.234C193.34 70.6371 194.247 69.8956 195.347 70.5991L203.671 75.8651C204.771 76.5686 205.661 78.4317 205.661 80.0286C205.661 81.6255 204.753 82.367 203.654 81.6635Z" fill="#FF5A00"/>
<path d="M204.439 82.5576C204.09 82.5576 203.723 82.4435 203.357 82.2154L195.033 76.9493C193.759 76.1318 192.746 74.0786 192.764 72.2535C192.764 71.1889 193.13 70.3524 193.741 69.9532C194.282 69.611 194.963 69.649 195.626 70.0672L203.95 75.3333C205.224 76.1508 206.219 78.204 206.219 80.0291C206.219 81.0937 205.853 81.9302 205.242 82.3294C204.997 82.4815 204.736 82.5576 204.439 82.5576ZM203.933 81.1317C204.107 81.2458 204.422 81.3979 204.666 81.2458C204.91 81.0937 205.067 80.6184 205.067 80.0291C205.067 78.6603 204.299 76.9873 203.374 76.4169L195.05 71.1509C194.876 71.0368 194.561 70.8847 194.317 71.0368C194.073 71.1889 193.916 71.6642 193.916 72.2535C193.916 73.6223 194.684 75.2953 195.609 75.8656L203.933 81.1317Z" fill="#FF5A00"/>
<path d="M212.031 97.063L207.476 94.1733C206.376 93.4699 205.486 91.6068 205.486 90.0099C205.486 88.413 206.394 87.6715 207.493 88.3749L212.048 91.2646C213.148 91.968 214.038 93.8311 214.038 95.4281C214.038 97.025 213.13 97.7664 212.031 97.063Z" fill="#3D0F9A"/>
<path d="M212.833 97.9561C212.484 97.9561 212.118 97.842 211.751 97.6139L207.196 94.7242C205.922 93.9067 204.928 91.8535 204.928 90.0284C204.928 88.9638 205.294 88.1273 205.905 87.7281C206.446 87.3859 207.127 87.4239 207.79 87.8421L212.345 90.7318C213.619 91.5493 214.613 93.6025 214.613 95.4276C214.613 96.4922 214.247 97.3287 213.636 97.7279C213.392 97.88 213.13 97.9561 212.833 97.9561ZM212.327 96.5302C212.502 96.6443 212.816 96.7964 213.06 96.6443C213.304 96.4922 213.462 96.0169 213.462 95.4276C213.462 94.0588 212.694 92.3858 211.769 91.8155L207.214 88.9258C207.039 88.8117 206.725 88.6596 206.481 88.8117C206.237 88.9638 206.08 89.4391 206.08 90.0284C206.08 91.3972 206.847 93.0702 207.772 93.6405L212.327 96.5302Z" fill="#3D0F9A"/>
<path d="M246.079 118.603L218.837 101.379C217.738 100.675 216.848 98.8124 216.848 97.2155C216.848 95.6185 217.755 94.8771 218.855 95.5805L246.097 112.805C247.196 113.508 248.086 115.371 248.086 116.968C248.086 118.565 247.178 119.306 246.079 118.603Z" fill="#3D0F9A"/>
<path d="M246.864 119.497C246.515 119.497 246.149 119.382 245.782 119.154L218.54 101.93C217.266 101.113 216.271 99.0595 216.271 97.2345C216.271 96.1698 216.638 95.3333 217.249 94.9341C217.79 94.5919 218.47 94.6299 219.134 95.0482L246.375 112.272C247.649 113.09 248.662 115.143 248.644 116.968C248.644 118.033 248.278 118.869 247.667 119.268C247.423 119.42 247.161 119.497 246.864 119.497ZM246.358 118.071C246.533 118.185 246.847 118.337 247.091 118.185C247.335 118.033 247.492 117.557 247.492 116.968C247.492 115.599 246.724 113.926 245.8 113.356L218.558 96.1318C218.383 96.0177 218.069 95.8657 217.825 96.0177C217.58 96.1698 217.423 96.6451 217.423 97.2345C217.423 98.6033 218.191 100.276 219.116 100.847L246.358 118.071Z" fill="#3D0F9A"/>
<path d="M186.569 97.7707L170.618 87.6758C169.519 86.9724 168.629 85.1093 168.629 83.5123C168.629 81.9154 169.536 81.174 170.636 81.8774L186.587 91.9723C187.686 92.6757 188.576 94.5388 188.576 96.1357C188.576 97.7327 187.669 98.4741 186.569 97.7707Z" fill="#3D0F9A"/>
<path d="M187.372 98.6442C187.023 98.6442 186.656 98.5301 186.29 98.302L170.322 88.2071C169.048 87.3896 168.036 85.3364 168.053 83.5113C168.053 82.4467 168.419 81.6102 169.03 81.211C169.589 80.8688 170.252 80.9068 170.915 81.325L186.866 91.42C188.14 92.2374 189.134 94.2906 189.134 96.1157C189.134 97.1803 188.768 98.0168 188.157 98.4161C187.913 98.5682 187.651 98.6442 187.354 98.6442H187.372ZM169.833 82.2376C169.833 82.2376 169.676 82.2376 169.606 82.2946C169.362 82.4467 169.205 82.922 169.205 83.5113C169.205 84.8801 169.973 86.5531 170.898 87.1234L186.848 97.2184C187.023 97.3324 187.337 97.4845 187.581 97.3324C187.826 97.1803 187.983 96.7051 187.983 96.1157C187.983 94.7469 187.215 93.0739 186.29 92.5036L170.339 82.4087C170.217 82.3326 170.025 82.2376 169.833 82.2376Z" fill="#3D0F9A"/>
<path d="M211.856 120.112L210.984 119.561C209.884 118.858 208.994 116.995 208.994 115.398C208.994 113.801 209.902 113.059 211.001 113.763L211.874 114.314C212.973 115.017 213.863 116.88 213.863 118.477C213.863 120.074 212.956 120.816 211.856 120.112Z" fill="#FF5A00"/>
<path d="M212.641 121.005C212.292 121.005 211.926 120.891 211.559 120.663L210.687 120.112C209.413 119.294 208.418 117.241 208.418 115.416C208.418 114.351 208.784 113.515 209.395 113.116C209.936 112.774 210.617 112.812 211.28 113.23L212.153 113.781C213.427 114.599 214.439 116.652 214.421 118.477C214.421 119.542 214.055 120.378 213.444 120.777C213.2 120.929 212.938 121.005 212.641 121.005ZM212.135 119.58C212.31 119.694 212.624 119.846 212.868 119.694C213.112 119.542 213.27 119.066 213.27 118.477C213.27 117.108 212.502 115.435 211.577 114.865L210.704 114.313C210.53 114.199 210.215 114.047 209.971 114.199C209.727 114.351 209.57 114.827 209.57 115.416C209.57 116.785 210.338 118.458 211.263 119.028L212.135 119.58Z" fill="#FF5A00"/>
<path d="M226.515 129.39L218.191 124.124C217.091 123.42 216.201 121.557 216.201 119.96C216.201 118.363 217.109 117.622 218.208 118.325L226.533 123.591C227.632 124.295 228.522 126.158 228.522 127.755C228.522 129.352 227.615 130.093 226.515 129.39Z" fill="#FF5A00"/>
<path d="M227.318 130.283C226.969 130.283 226.602 130.169 226.236 129.941L217.911 124.675C216.637 123.857 215.643 121.804 215.643 119.979C215.643 118.914 216.009 118.078 216.62 117.679C217.161 117.337 217.841 117.375 218.505 117.793L226.829 123.059C228.103 123.876 229.098 125.93 229.098 127.755C229.098 128.819 228.731 129.656 228.12 130.055C227.876 130.207 227.614 130.283 227.318 130.283ZM217.423 118.686C217.423 118.686 217.266 118.686 217.196 118.743C216.951 118.895 216.794 119.371 216.794 119.96C216.794 121.329 217.562 123.002 218.487 123.572L226.812 128.838C226.986 128.952 227.3 129.104 227.545 128.952C227.789 128.8 227.946 128.325 227.946 127.736C227.946 126.367 227.178 124.694 226.253 124.124L217.929 118.857C217.807 118.781 217.615 118.686 217.423 118.686Z" fill="#FF5A00"/>
<path d="M203.758 114.998L195.434 109.732C194.334 109.029 193.444 107.165 193.444 105.568C193.444 103.972 194.352 103.23 195.451 103.934L203.776 109.2C204.875 109.903 205.765 111.766 205.765 113.363C205.765 114.96 204.858 115.701 203.758 114.998Z" fill="#FF5A00"/>
<path d="M204.561 115.892C204.212 115.892 203.845 115.778 203.479 115.55L195.154 110.284C193.88 109.466 192.886 107.413 192.886 105.588C192.886 104.523 193.252 103.687 193.863 103.288C194.404 102.945 195.085 102.983 195.748 103.402L204.072 108.668C205.346 109.485 206.358 111.538 206.341 113.364C206.341 114.428 205.974 115.265 205.364 115.664C205.119 115.816 204.858 115.892 204.561 115.892ZM204.055 114.466C204.229 114.58 204.543 114.732 204.788 114.58C205.032 114.428 205.189 113.953 205.189 113.364C205.189 111.995 204.421 110.322 203.496 109.751L195.172 104.485C194.997 104.371 194.683 104.219 194.439 104.371C194.195 104.523 194.038 104.999 194.038 105.588C194.038 106.957 194.805 108.63 195.73 109.2L204.055 114.466Z" fill="#FF5A00"/>
<rect x="-0.865972" width="49.6259" height="49.6259" rx="4.5" transform="matrix(-0.865972 0.500092 -0.865972 -0.500092 115.066 143.75)" stroke="#3D0F9A" stroke-dasharray="2 2"/>
<path d="M390.841 95.9998L430.352 118.817C432.743 120.198 432.743 122.437 430.352 123.818L412.761 133.976" stroke="#3D0F9A" stroke-dasharray="2 2"/>
<path d="M60.6731 156.456L60.0894 154.061H58.6981C57.1869 153.088 54.9828 152.466 52.5222 152.466C50.0616 152.466 47.8575 153.082 46.3462 154.061H45.0096L44.3712 156.429H44.3821C44.3112 156.678 44.2676 156.927 44.2676 157.186C44.2676 159.793 47.9666 161.901 52.5222 161.901C57.0778 161.901 60.7768 159.793 60.7768 157.186C60.7768 156.938 60.7332 156.7 60.6677 156.462L60.6731 156.456Z" fill="#3D0F9A"/>
<path d="M52.5274 162.166C47.8245 162.166 44 159.928 44 157.181C44 157.024 44.0164 156.867 44.0436 156.694H44.0327L44.1146 156.353L44.8075 153.785H46.2751C47.8845 152.774 50.1596 152.19 52.5329 152.19C54.9061 152.19 57.1757 152.769 58.7907 153.785H60.3183L60.9511 156.391C61.0275 156.683 61.0657 156.932 61.0657 157.181C61.0657 159.928 57.2412 162.166 52.5383 162.166H52.5274ZM44.7311 156.159L44.6438 156.505C44.5729 156.754 44.5401 156.975 44.5401 157.186C44.5401 159.636 48.1191 161.631 52.5219 161.631C56.9248 161.631 60.5038 159.636 60.5038 157.186C60.5038 156.986 60.471 156.781 60.4056 156.532L59.8764 154.337H58.6215L58.5561 154.293C57.0284 153.309 54.8297 152.747 52.5274 152.747C50.2251 152.747 48.0264 153.309 46.4988 154.293L46.4333 154.337H45.2221L44.7311 156.164V156.159Z" fill="#3D0F9A"/>
<path d="M60.1549 154.607C60.1549 157.002 56.7505 158.949 52.555 158.949C48.3595 158.949 44.9551 157.008 44.9551 154.607C44.9551 152.206 48.3595 150.265 52.555 150.265C56.7505 150.265 60.1549 152.206 60.1549 154.607Z" fill="white"/>
<path d="M60.067 155.84C60.067 158.235 56.6626 160.182 52.4671 160.182C48.2716 160.182 44.8672 158.241 44.8672 155.84C44.8672 153.439 48.2716 151.498 52.4671 151.498C56.6626 151.498 60.067 153.439 60.067 155.84Z" fill="white"/>
<path d="M52.5543 150C48.2115 150 44.6816 152.071 44.6816 154.612C44.6816 157.154 48.2115 159.225 52.5543 159.225C56.8972 159.225 60.4271 157.154 60.4271 154.612C60.4271 152.071 56.8972 150 52.5543 150ZM52.5543 158.684C48.5116 158.684 45.2272 156.856 45.2272 154.612C45.2272 152.368 48.5171 150.541 52.5543 150.541C56.5916 150.541 59.8815 152.368 59.8815 154.612C59.8815 156.856 56.5916 158.684 52.5543 158.684Z" fill="#3D0F9A"/>
<path d="M52.5273 152.32C50.3941 152.32 48.6592 153.228 48.6592 154.353C48.6592 155.478 50.3887 156.386 52.5273 156.386C54.666 156.386 56.3955 155.478 56.3955 154.353C56.3955 153.228 54.666 152.32 52.5273 152.32Z" fill="#3D0F9A"/>
<path d="M421.673 134.456L421.089 132.061H419.698C418.187 131.088 415.983 130.466 413.522 130.466C411.062 130.466 408.857 131.082 407.346 132.061H406.01L405.371 134.429H405.382C405.311 134.678 405.268 134.927 405.268 135.186C405.268 137.793 408.967 139.901 413.522 139.901C418.078 139.901 421.777 137.793 421.777 135.186C421.777 134.938 421.733 134.7 421.668 134.462L421.673 134.456Z" fill="#3D0F9A"/>
<path d="M413.527 140.166C408.825 140.166 405 137.928 405 135.181C405 135.024 405.016 134.867 405.044 134.694H405.033L405.115 134.353L405.807 131.785H407.275C408.885 130.774 411.16 130.19 413.533 130.19C415.906 130.19 418.176 130.769 419.791 131.785H421.318L421.951 134.391C422.028 134.683 422.066 134.932 422.066 135.181C422.066 137.928 418.241 140.166 413.538 140.166H413.527ZM405.731 134.159L405.644 134.505C405.573 134.754 405.54 134.975 405.54 135.186C405.54 137.636 409.119 139.631 413.522 139.631C417.925 139.631 421.504 137.636 421.504 135.186C421.504 134.986 421.471 134.781 421.406 134.532L420.876 132.337H419.622L419.556 132.293C418.028 131.309 415.83 130.747 413.527 130.747C411.225 130.747 409.026 131.309 407.499 132.293L407.433 132.337H406.222L405.731 134.164V134.159Z" fill="#3D0F9A"/>
<path d="M421.155 132.607C421.155 135.002 417.751 136.949 413.555 136.949C409.359 136.949 405.955 135.008 405.955 132.607C405.955 130.206 409.359 128.265 413.555 128.265C417.751 128.265 421.155 130.206 421.155 132.607Z" fill="white"/>
<path d="M421.067 133.84C421.067 136.235 417.663 138.182 413.467 138.182C409.272 138.182 405.867 136.241 405.867 133.84C405.867 131.439 409.272 129.498 413.467 129.498C417.663 129.498 421.067 131.439 421.067 133.84Z" fill="white"/>
<path d="M413.554 128C409.212 128 405.682 130.071 405.682 132.612C405.682 135.154 409.212 137.225 413.554 137.225C417.897 137.225 421.427 135.154 421.427 132.612C421.427 130.071 417.897 128 413.554 128ZM413.554 136.684C409.512 136.684 406.227 134.856 406.227 132.612C406.227 130.368 409.517 128.541 413.554 128.541C417.592 128.541 420.881 130.368 420.881 132.612C420.881 134.856 417.592 136.684 413.554 136.684Z" fill="#3D0F9A"/>
<path d="M413.527 130.32C411.394 130.32 409.659 131.228 409.659 132.353C409.659 133.478 411.389 134.386 413.527 134.386C415.666 134.386 417.395 133.478 417.395 132.353C417.395 131.228 415.666 130.32 413.527 130.32Z" fill="#3D0F9A"/>
<path d="M45 69L133.5 121" stroke="white"/>
<rect x="0.433095" y="-0.250048" width="76.5612" height="112.055" rx="4.08205" transform="matrix(0.000110185 -1 0.866081 0.499904 124.06 128.468)" stroke="#FF5A00"/>
</svg>
