<svg width="52" height="52" viewBox="0 0 52 52" fill="none" xmlns="http://www.w3.org/2000/svg">
<g clip-path="url(#clip0_1462_507)">
<path d="M48.1947 36.3842C48.0081 36.3893 47.8214 36.3975 47.6348 36.3975C35.1124 36.3975 22.5899 36.4362 10.0685 36.375C6.30609 36.3567 3.45749 34.5025 1.44623 31.3459C1.42073 31.3051 1.41971 31.249 1.40747 31.2C14.3909 31.2 27.3743 31.2 40.3577 31.2C40.4812 31.3826 40.6056 31.5641 40.728 31.7467C41.908 33.5101 43.4705 34.8044 45.4328 35.6234C46.3242 35.9956 47.2605 36.1792 48.1947 36.3832V36.3842Z" fill="#A8CB54"/>
<path d="M0.00402592 25.9975C-0.0490093 24.1239 0.422188 22.3911 1.40334 20.7949C1.64098 20.7969 1.87862 20.8 2.11626 20.8C14.6091 20.8 27.102 20.8 39.5958 20.8051C39.8212 20.8051 40.0742 20.7092 40.272 20.9142C39.4724 22.5135 38.9604 24.1841 39.0033 25.9934C26.0035 25.9944 13.0048 25.9964 0.00504583 25.9975H0.00402592Z" fill="#A8CB54"/>
<path d="M0.00397107 25.9975C13.0037 25.9965 26.0024 25.9944 39.0022 25.9934C38.9696 27.8547 39.4683 29.5784 40.3566 31.2011C27.3732 31.2011 14.3898 31.2011 1.40634 31.2011C0.432332 29.6029 -0.0184669 27.8639 0.00397107 25.9975Z" fill="#B5DD64"/>
<path d="M40.271 20.9152C40.0742 20.7102 39.8202 20.8061 39.5948 20.8061C27.102 20.801 14.6091 20.802 2.11526 20.801C1.87762 20.801 1.63998 20.798 1.40234 20.7959C2.96382 18.0983 5.30145 16.4746 8.32344 15.8055C9.05471 15.6444 9.79721 15.5974 10.5468 15.5985C22.8418 15.6036 35.1378 15.6015 47.4328 15.6025C47.6531 15.6025 47.8744 15.6107 48.0947 15.6158C48.0529 15.6423 48.0142 15.6892 47.9693 15.6943C46.3905 15.8718 44.9687 16.4623 43.649 17.3231C42.2323 18.2472 41.1624 19.4976 40.271 20.9152Z" fill="#B5DD64"/>
<path d="M40.271 20.9153C41.1624 19.4976 42.2323 18.2472 43.649 17.3232C44.9687 16.4624 46.3905 15.8708 47.9693 15.6944C48.0131 15.6893 48.0529 15.6434 48.0947 15.6158C48.7699 15.6301 49.4522 15.5026 50.1162 15.7086C51.3646 16.0972 52.1448 17.2977 51.9775 18.5634C51.8103 19.8291 50.6833 20.7908 49.3553 20.801C46.4741 20.8245 44.2242 23.2447 44.1987 25.9506C44.1722 28.7431 46.4884 31.201 49.4084 31.2021C50.8271 31.2021 51.9836 32.379 51.9836 33.7957C51.9836 35.2164 50.8281 36.3893 49.4145 36.3975C49.0075 36.3995 48.6006 36.3893 48.1937 36.3842C47.2594 36.1802 46.3232 35.9956 45.4318 35.6244C43.4694 34.8054 41.9069 33.5111 40.7269 31.7477C40.6045 31.5651 40.4801 31.3836 40.3567 31.201C39.4683 29.5784 38.9696 27.8557 39.0023 25.9934C38.9594 24.1841 39.4714 22.5135 40.271 20.9143V20.9153Z" fill="#DCF3A3"/>
</g>
<defs>
<clipPath id="clip0_1462_507">
<rect width="52" height="52" fill="white"/>
</clipPath>
</defs>
</svg>
