<svg width="52" height="52" viewBox="0 0 52 52" fill="none" xmlns="http://www.w3.org/2000/svg">
<path d="M47.2849 1.59082H4.53491C2.87806 1.59082 1.53491 2.93397 1.53491 4.59082V47.3408C1.53491 48.9977 2.87806 50.3408 4.53491 50.3408H47.2849C48.9418 50.3408 50.2849 48.9977 50.2849 47.3408V4.59082C50.2849 2.93397 48.9418 1.59082 47.2849 1.59082Z" fill="url(#paint0_linear_1472_629)"/>
<path fill-rule="evenodd" clip-rule="evenodd" d="M33.9311 30.6057C33.9311 28.4642 32.1536 26.7222 29.9684 26.7222C27.7832 26.7222 26.0056 28.4642 26.0056 30.6057C26.0056 32.7472 27.7832 34.4892 29.9684 34.4892C32.1536 34.4892 33.9311 32.7472 33.9311 30.6057ZM35.0634 30.6057C35.0634 33.3586 32.7774 35.5988 29.9684 35.5988C27.1593 35.5988 24.8734 33.3586 24.8734 30.6057C24.8734 27.8528 27.1593 25.6126 29.9684 25.6126C32.7774 25.6126 35.0634 27.8528 35.0634 30.6057ZM39.8731 38.0066L36.0631 34.6435C35.7382 35.1128 35.3543 35.5356 34.9286 35.9173L38.7171 39.266C39.0726 39.5778 39.6194 39.5489 39.9376 39.2027C40.2546 38.8577 40.2263 38.3195 39.8731 38.0066ZM29.9684 36.7084C33.4013 36.7084 36.1956 33.9711 36.1956 30.6057C36.1956 27.2403 33.4013 24.503 29.9684 24.503C26.5355 24.503 23.7411 27.2403 23.7411 30.6057C23.7411 33.9711 26.5355 36.7084 29.9684 36.7084ZM40.6316 37.1833C41.4468 37.9056 41.5125 39.1439 40.7788 39.945C40.3837 40.3733 39.8402 40.5908 39.2933 40.5908C38.8167 40.5908 38.34 40.4255 37.9596 40.0904L34.0285 36.6152C32.8635 37.3741 31.4686 37.818 29.9684 37.818C25.9105 37.818 22.6089 34.5824 22.6089 30.6057C22.6089 26.629 25.9105 23.3934 29.9684 23.3934C34.0263 23.3934 37.3278 26.629 37.3278 30.6057C37.3278 31.6942 37.0731 32.7239 36.6304 33.6504L40.6316 37.1833ZM14.7637 31.1605H20.3445V32.2701H14.757C14.1297 32.2634 13.456 32.0382 12.7473 31.5999C11.5731 30.8864 9.59741 29.2065 9.59741 26.0054C9.59741 22.1329 12.3091 20.7105 13.8863 20.2112C13.8738 20.0281 13.8682 19.8428 13.8682 19.6575C13.8682 16.5029 16.0522 13.2297 18.9473 12.0469C22.3372 10.6554 25.9252 11.3467 28.5452 13.8899C29.3649 14.6854 30.0386 15.6519 30.5537 16.7737C31.2444 16.2033 32.1003 15.8882 33.0027 15.8882C34.7588 15.8882 36.7368 17.1986 37.0821 20.0647C38.7204 20.432 42.2224 21.7246 42.2224 26.0509C42.2224 27.9094 41.585 29.414 40.3248 30.5192L39.5685 29.6936C40.5784 28.8071 41.0902 27.581 41.0902 26.0509C41.0902 22.2461 37.8418 21.3008 36.4447 21.0711C36.293 21.0467 36.1594 20.9623 36.0722 20.8381C35.9839 20.7138 35.9533 20.5607 35.9827 20.4131C35.8174 18.0797 34.3659 16.9978 33.0027 16.9978C32.1513 16.9978 31.3531 17.4039 30.8119 18.1118C30.6885 18.276 30.4801 18.3559 30.2752 18.3293C30.0703 18.2993 29.897 18.1606 29.8268 17.9687C29.34 16.6505 28.6414 15.5443 27.7492 14.6788C25.4633 12.4596 22.3361 11.8571 19.3832 13.071C16.9252 14.0752 15.0004 16.9679 15.0004 19.6575C15.0004 19.9593 15.0185 20.2611 15.0547 20.5507C15.0751 20.7082 15.0253 20.8669 14.9177 20.9868C14.8317 21.0822 14.7162 21.1443 14.5905 21.1665C13.1322 21.5349 10.7296 22.6511 10.7296 26.0054C10.7296 28.5363 12.154 29.9333 13.3473 30.6601C13.8795 30.9885 14.355 31.1561 14.7637 31.1605Z" fill="white"/>
<defs>
<linearGradient id="paint0_linear_1472_629" x1="1.53491" y1="4876.59" x2="4876.54" y2="1.59082" gradientUnits="userSpaceOnUse">
<stop stop-color="#B0084D"/>
<stop offset="1" stop-color="#FF4F8B"/>
</linearGradient>
</defs>
</svg>
