<svg width="48" height="48" viewBox="0 0 48 48" fill="none" xmlns="http://www.w3.org/2000/svg">
<path d="M43.417 1.46826H4.41699C2.76014 1.46826 1.41699 2.81141 1.41699 4.46826V43.4683C1.41699 45.1251 2.76014 46.4683 4.41699 46.4683H43.417C45.0738 46.4683 46.417 45.1251 46.417 43.4683V4.46826C46.417 2.81141 45.0738 1.46826 43.417 1.46826Z" fill="url(#paint0_linear_1462_456)"/>
<path fill-rule="evenodd" clip-rule="evenodd" d="M31.5777 23.9466H34.5241V22.7662H31.5777V23.9466ZM16.8456 31.0289H19.792V29.8485H16.8456V31.0289ZM10.9527 31.0289H15.0777V29.8485H10.9527V31.0289ZM10.9527 27.4877H18.0241V26.3074H10.9527V27.4877ZM10.9527 20.4055H16.2563V19.2251H10.9527V20.4055ZM10.9527 23.9466H30.3991V22.7662H10.9527V23.9466ZM22.1491 36.9308H8.59556V16.8643H22.1491V21.5859H23.3277V16.2742C23.3277 15.9484 23.0637 15.684 22.7384 15.684H8.00628C7.6804 15.684 7.41699 15.9484 7.41699 16.2742V37.521C7.41699 37.8467 7.6804 38.1112 8.00628 38.1112H22.7384C23.0637 38.1112 23.3277 37.8467 23.3277 37.521V25.7172H22.1491V36.9308ZM40.417 22.176C40.417 25.9898 36.9832 27.3166 35.1676 27.4854L25.6848 27.4877V26.3074H35.1134C35.2283 26.2938 39.2384 25.8612 39.2384 22.176C39.2384 18.8202 36.2113 18.1392 35.6049 18.0365C35.3026 17.9851 35.0899 17.7113 35.1158 17.4055C35.1164 17.3943 35.1175 17.3837 35.1187 17.3731C35.0863 15.4768 33.9237 14.8843 33.4198 14.7166C32.4793 14.4038 31.431 14.7031 30.8765 15.4467C30.7474 15.6214 30.5341 15.7105 30.3172 15.6775C30.1027 15.645 29.923 15.4975 29.8499 15.2921C29.484 14.2663 28.953 13.6018 28.2147 12.8623C26.3678 11.0268 23.861 10.5198 21.5157 11.5066C20.2852 12.0254 19.2098 13.201 18.5675 14.7326L17.4808 14.2746C18.2422 12.4621 19.5469 11.0563 21.059 10.4189C23.861 9.2391 26.8463 9.8405 29.0461 12.026C29.6767 12.6581 30.1988 13.2736 30.6054 14.0704C31.4852 13.4188 32.672 13.2241 33.7917 13.5965C35.2248 14.0733 36.1311 15.318 36.2773 16.9729C38.2844 17.4793 40.417 19.084 40.417 22.176Z" fill="white"/>
<defs>
<linearGradient id="paint0_linear_1462_456" x1="1.41699" y1="4501.47" x2="4501.42" y2="1.46826" gradientUnits="userSpaceOnUse">
<stop stop-color="#B0084D"/>
<stop offset="1" stop-color="#FF4F8B"/>
</linearGradient>
</defs>
</svg>
