<svg width="33" height="30" viewBox="0 0 33 30" fill="none" xmlns="http://www.w3.org/2000/svg">
<g clip-path="url(#clip0_4756_9)">
<path d="M25.0797 21.0445L22.7492 19.5084L20.8056 22.7547L18.5457 22.0944L16.5551 25.1321L16.6573 26.088L27.4778 24.0947L26.8492 17.3341L25.0797 21.0445ZM14.9886 18.1312L16.725 17.8922C17.0054 18.0179 17.2016 18.0662 17.5386 18.1519C18.0635 18.2887 18.67 18.4199 19.5693 17.9668C19.7779 17.8632 20.2144 17.464 20.3898 17.2374L27.5026 15.9472L28.2278 24.7287L16.0426 26.9251L14.9886 18.1312ZM28.2002 14.9664L27.4985 15.1004L26.1502 1.16489L3.16797 3.8296L5.99983 26.8063L8.6894 26.4154C8.47529 26.1087 8.13961 25.7371 7.56909 25.2619C6.77617 24.6044 7.05659 23.4855 7.52489 22.7796C8.14237 21.5874 11.3292 20.0707 11.1483 18.1643C11.0834 17.4709 10.9728 16.5688 10.3291 15.95C10.3056 16.2069 10.3485 16.4542 10.3485 16.4542C10.3485 16.4542 10.0846 16.1171 9.952 15.6571C9.82077 15.4803 9.71854 15.425 9.57902 15.1888C9.47956 15.4609 9.49338 15.7773 9.49338 15.7773C9.49338 15.7773 9.27788 15.2662 9.24196 14.8352C9.11349 15.0286 9.08172 15.3946 9.08172 15.3946C9.08172 15.3946 8.8013 14.5893 8.86484 14.1555C8.73637 13.7784 8.35649 13.0297 8.46424 11.3278C9.16598 11.8196 10.7104 11.7022 11.3113 10.8153C11.5116 10.5211 11.6483 9.71986 11.2118 8.14093C10.9314 7.12837 10.2379 5.61988 9.96719 5.04661L9.93542 5.07009C10.0777 5.53147 10.3719 6.49707 10.4852 6.96674C10.8264 8.3882 10.9176 8.88274 10.7574 9.53752C10.6206 10.1067 10.2946 10.4796 9.46575 10.8968C8.63691 11.3154 7.53732 10.2973 7.46687 10.242C6.66152 9.60106 6.03851 8.55397 5.96944 8.04561C5.8976 7.48891 6.28992 7.15461 6.48884 6.70013C6.20566 6.78164 5.88932 6.9253 5.88932 6.9253C5.88932 6.9253 6.26644 6.53437 6.73197 6.19731C6.92536 6.07022 7.03726 5.98872 7.24032 5.82019C6.94608 5.81604 6.7071 5.82295 6.7071 5.82295C6.7071 5.82295 7.1975 5.55772 7.70585 5.36571C7.33425 5.34913 6.97785 5.36294 6.97785 5.36294C6.97785 5.36294 8.07192 4.87393 8.93529 4.51477C9.52929 4.27164 10.1095 4.34348 10.4355 4.81453C10.8637 5.43201 11.3127 5.76769 12.2658 5.97628C12.8515 5.71658 13.0284 5.58397 13.7633 5.38367C14.4098 4.67225 14.9181 4.57969 14.9181 4.57969C14.9181 4.57969 14.6667 4.81039 14.599 5.17369C14.9665 4.88498 15.3684 4.64324 15.3684 4.64324C15.3684 4.64324 15.2123 4.83525 15.0673 5.14054L15.1005 5.19027C15.5287 4.93333 16.0315 4.73165 16.0315 4.73165C16.0315 4.73165 15.8879 4.91399 15.7193 5.14883C16.0426 5.14607 16.6973 5.16264 16.9501 5.19165C18.4503 5.2248 18.7612 3.58923 19.3372 3.38479C20.0583 3.12785 20.3801 2.97175 21.6082 4.17771C22.6622 5.21375 23.4855 7.0662 23.0766 7.482C22.734 7.82597 22.0572 7.34801 21.3084 6.4128C20.912 5.91827 20.6136 5.33393 20.4727 4.59074C20.3539 3.96359 19.8939 3.60028 19.8939 3.60028C19.8939 3.60028 20.1605 4.19567 20.1605 4.7206C20.1605 5.00793 20.1964 6.07989 20.6564 6.68079C20.6108 6.7692 20.5901 7.11593 20.539 7.18224C20.0044 6.53575 18.8551 6.07298 18.6686 5.93622C19.3027 6.45563 20.76 7.64915 21.3195 8.79295C21.8486 9.87458 21.5364 10.8664 21.8044 11.1234C21.8803 11.1966 22.9426 12.5199 23.1471 13.1858C23.5035 14.3448 23.1678 15.5632 22.7023 16.3188L21.3996 16.5218C21.209 16.4694 21.0805 16.4417 20.9092 16.3436C21.0032 16.1765 21.191 15.7607 21.1924 15.6751L21.1192 15.5466C20.7131 16.1212 20.0348 16.6793 19.4698 16.9998C18.7308 17.4184 17.8798 17.3534 17.3259 17.1822C15.7525 16.6973 14.2647 15.6336 13.9069 15.3546C13.9069 15.3546 13.8959 15.577 13.9636 15.6281C14.36 16.0757 15.269 16.8852 16.1476 17.4488L14.2758 17.6546L15.1612 24.5464C14.7689 24.603 14.7081 24.6306 14.2785 24.6914C13.9 23.3542 13.1762 22.4798 12.3846 21.9714C11.687 21.5225 10.7242 21.4217 9.80143 21.604L9.74203 21.6731C10.383 21.6068 11.14 21.6993 11.9163 22.1911C12.6789 22.6732 13.2936 23.9192 13.5201 24.6693C13.8102 25.628 14.0105 26.653 13.23 27.7402C12.6747 28.5124 11.0557 28.9392 9.74617 28.0164C10.0957 28.5787 10.5681 29.0387 11.2035 29.1243C12.1484 29.2528 13.0449 29.0884 13.661 28.4557C14.1874 27.9142 14.4678 26.7815 14.3932 25.5893L15.2262 25.4691L15.5273 27.6089L29.3247 25.9471L28.2002 14.9664ZM19.8055 9.15349C19.7668 9.2419 19.706 9.29854 19.7972 9.58449L19.8027 9.60106L19.8165 9.63836L19.8538 9.72401C20.0182 10.0583 20.1978 10.3746 20.4976 10.5363C20.5749 10.5238 20.6564 10.5142 20.7393 10.51C21.0211 10.4976 21.1993 10.5418 21.3126 10.604C21.3223 10.5473 21.325 10.4658 21.3181 10.3443C21.296 9.92017 21.4024 9.19908 20.5874 8.81919C20.2793 8.67691 19.8483 8.71973 19.7046 8.89931C19.7309 8.90208 19.7544 8.9076 19.7723 8.91451C19.992 8.9891 19.8455 9.0637 19.8055 9.15349ZM22.0903 13.1112C21.9839 13.0518 21.4839 13.0753 21.133 13.1167C20.4644 13.1955 19.7419 13.4275 19.5831 13.5505C19.2958 13.7729 19.4256 14.161 19.6383 14.3199C20.2351 14.7647 20.7573 15.0645 21.3084 14.9913C21.6469 14.9471 21.9453 14.4111 22.1566 13.9234C22.303 13.5891 22.303 13.2286 22.0903 13.1112ZM16.1683 9.67842C16.3575 9.49884 15.2289 9.264 14.3531 9.86077C13.708 10.3014 13.6873 11.2463 14.3048 11.7809C14.3669 11.8334 14.418 11.8721 14.465 11.9025C14.646 11.8168 14.8518 11.7312 15.088 11.6552C15.4886 11.5253 15.8202 11.4577 16.0937 11.4231C16.2249 11.2767 16.3769 11.0198 16.3382 10.5542C16.2871 9.92017 15.8077 10.021 16.1683 9.67842Z" fill="#632CA6"/>
</g>
<defs>
<clipPath id="clip0_4756_9">
<rect width="32" height="28.7488" fill="white" transform="translate(0.246094 0.790497)"/>
</clipPath>
</defs>
</svg>
