<svg width="33" height="33" viewBox="0 0 33 33" fill="none" xmlns="http://www.w3.org/2000/svg">
<g clip-path="url(#clip0_4754_159)">
<path d="M18.8113 14.2899H22.126H18.8113ZM14.8653 14.2899H18.18H14.8653ZM10.9982 14.2899H14.3129H10.9982ZM7.13108 14.2899H10.3668H7.13108ZM3.18506 14.2899H6.49972H3.18506ZM7.13108 10.6595H10.3668H7.13108ZM10.9982 10.6595H14.3129H10.9982ZM14.8653 10.6595H18.18H14.8653ZM14.8653 7.02921H18.18H14.8653Z" fill="black"/>
<path d="M18.8113 14.2899H22.126M14.8653 14.2899H18.18M10.9982 14.2899H14.3129M7.13108 14.2899H10.3668M3.18506 14.2899H6.49972M7.13108 10.6595H10.3668M10.9982 10.6595H14.3129M14.8653 10.6595H18.18M14.8653 7.02921H18.18" stroke="#066DA5" stroke-width="2.81154"/>
<path d="M32.7012 14.4477C32.7012 14.4477 31.2806 13.1061 28.3605 13.5796C28.0449 11.2909 25.5983 9.94928 25.5983 9.94928C25.5983 9.94928 23.3096 12.7115 24.967 15.7894C24.4934 16.0262 23.7042 16.3418 22.5204 16.3418H0.817282C0.42268 17.8413 0.42268 27.7853 11.3137 27.7853C19.1268 27.7853 24.967 24.155 27.7292 17.5256C31.833 17.8413 32.7012 14.4477 32.7012 14.4477Z" fill="#066DA5"/>
</g>
<defs>
<clipPath id="clip0_4754_159">
<rect width="32" height="32" fill="white" transform="translate(0.701172 0.164886)"/>
</clipPath>
</defs>
</svg>
