<svg width="32" height="33" viewBox="0 0 32 33" fill="none" xmlns="http://www.w3.org/2000/svg">
<g clip-path="url(#clip0_4756_28)">
<path d="M16 0.614258C7.16406 0.614258 0 7.77832 0 16.6143C0 23.6846 4.584 29.6807 10.9424 31.7959C11.7422 31.9424 12.0342 31.4482 12.0342 31.0264C12.0342 30.6455 12.0195 29.3838 12.0117 28.0479C7.5625 29.0146 6.62206 26.1611 6.62206 26.1611C5.89356 24.3135 4.84569 23.8213 4.84569 23.8213C3.39159 22.8291 4.956 22.8486 4.956 22.8486C6.56244 22.9599 7.40819 24.4971 7.40819 24.4971C8.83594 26.9424 11.1543 26.2354 12.0644 25.8252C12.2099 24.7939 12.6239 24.0869 13.0801 23.6885C9.52831 23.2842 5.792 21.9111 5.792 15.7803C5.792 14.0322 6.41603 12.6064 7.4375 11.4863C7.27441 11.0801 6.72362 9.45213 7.59569 7.25001C7.59569 7.25001 8.9375 6.82032 11.9961 8.89063C13.2714 8.53419 14.6396 8.35841 16 8.35254C17.3593 8.35841 18.7285 8.53613 20.0058 8.89257C23.0586 6.82032 24.4023 7.25195 24.4023 7.25195C25.2773 9.45604 24.7266 11.082 24.5625 11.4863C25.5879 12.6064 26.207 14.0322 26.207 15.7803C26.207 21.9268 22.4648 23.2803 18.9004 23.6768C19.4766 24.1729 19.9863 25.1455 19.9863 26.6377C19.9863 28.7764 19.9648 30.501 19.9648 31.0283C19.9648 31.4541 20.2558 31.9521 21.0664 31.7959C27.4199 29.6768 32 23.6807 32 16.6143C32 7.77832 24.8359 0.614258 16 0.614258Z" fill="black"/>
</g>
<defs>
<clipPath id="clip0_4756_28">
<rect width="32" height="32" fill="white" transform="translate(0 0.219757)"/>
</clipPath>
</defs>
</svg>
