<svg width="52" height="52" viewBox="0 0 52 52" fill="none" xmlns="http://www.w3.org/2000/svg">
<g clip-path="url(#clip0_1462_415)">
<path d="M5.16433 38.5299L7.07324 39.6321L28.3393 2.79922L26.4304 1.69707L5.16433 38.5299Z" fill="#E535AB"/>
<path d="M47.2597 35.5874H4.72754V37.7917H47.2597V35.5874Z" fill="#E535AB"/>
<path d="M5.56921 36.8257L26.8433 49.1086L27.9454 47.1997L6.67135 34.9168L5.56921 36.8257Z" fill="#E535AB"/>
<path d="M24.0497 4.81325L45.3237 17.0962L46.4259 15.1873L25.1518 2.90434L24.0497 4.81325Z" fill="#E535AB"/>
<path d="M5.5751 15.1787L6.67725 17.0876L27.9513 4.8047L26.8492 2.89579L5.5751 15.1787Z" fill="#E535AB"/>
<path d="M23.6656 2.7997L44.9316 39.6326L46.8406 38.5304L25.5745 1.69756L23.6656 2.7997Z" fill="#E535AB"/>
<path d="M8.61811 13.717H6.41382V38.2829H8.61811V13.717Z" fill="#E535AB"/>
<path d="M45.5866 13.717H43.3823V38.2829H45.5866V13.717Z" fill="#E535AB"/>
<path d="M25.5051 46.5081L26.4678 48.1755L44.9705 37.4927L44.0077 35.8253L25.5051 46.5081Z" fill="#E535AB"/>
<path d="M48.5077 38.9999C47.233 41.2175 44.3913 41.9744 42.1737 40.6996C39.9562 39.4249 39.1993 36.5832 40.474 34.3656C41.7488 32.148 44.5905 31.3912 46.808 32.6659C49.0389 33.954 49.7958 36.7824 48.5077 38.9999Z" fill="#E535AB"/>
<path d="M11.5129 17.6342C10.2381 19.8518 7.39642 20.6087 5.17885 19.3339C2.96128 18.0591 2.20438 15.2175 3.47916 12.9999C4.75393 10.7823 7.5956 10.0254 9.81317 11.3002C12.0307 12.5882 12.7876 15.4166 11.5129 17.6342Z" fill="#E535AB"/>
<path d="M3.49258 38.9999C2.21781 36.7824 2.97471 33.954 5.19228 32.6659C7.40985 31.3912 10.2382 32.148 11.5263 34.3656C12.8011 36.5832 12.0442 39.4116 9.8266 40.6996C7.59575 41.9744 4.76735 41.2175 3.49258 38.9999Z" fill="#E535AB"/>
<path d="M40.4875 17.6342C39.2127 15.4166 39.9696 12.5882 42.1871 11.3002C44.4047 10.0254 47.2331 10.7823 48.5212 12.9999C49.7959 15.2175 49.039 18.0459 46.8215 19.3339C44.6039 20.6087 41.7622 19.8518 40.4875 17.6342Z" fill="#E535AB"/>
<path d="M25.9998 52.0001C23.437 52.0001 21.3655 49.9286 21.3655 47.3658C21.3655 44.8029 23.437 42.7314 25.9998 42.7314C28.5626 42.7314 30.6341 44.8029 30.6341 47.3658C30.6341 49.9153 28.5626 52.0001 25.9998 52.0001Z" fill="#E535AB"/>
<path d="M25.9998 9.26864C23.437 9.26864 21.3655 7.19714 21.3655 4.63432C21.3655 2.0715 23.437 0 25.9998 0C28.5626 0 30.6341 2.0715 30.6341 4.63432C30.6341 7.19714 28.5626 9.26864 25.9998 9.26864Z" fill="#E535AB"/>
</g>
<defs>
<clipPath id="clip0_1462_415">
<rect width="52" height="52" fill="white"/>
</clipPath>
</defs>
</svg>
