<svg width="33" height="32" viewBox="0 0 33 32" fill="none" xmlns="http://www.w3.org/2000/svg">
<g clip-path="url(#clip0_4764_348)">
<path d="M26.5803 15.7021C25.5701 15.5264 20.9684 15.1601 19.3292 15.3902C18.2856 15.4609 16.9144 14.9361 16.7507 15.5591C15.6877 19.5126 12.629 22.7938 8.86839 24.1597C3.65993 21.1837 9.6552 16.8625 6.93224 15.7348C5.94816 15.4638 5.40849 16.4055 5.03034 17.4134C3.21181 21.072 0.315407 27.1886 4.69611 30.3493C9.72517 33.8345 15.1845 28.1884 20.9401 26.7688C23.0258 26.2544 25.3163 26.3371 27.1542 25.2726C30.9409 23.1519 30.4555 17.5608 26.581 15.7021H26.5803Z" fill="#C21325"/>
<path d="M29.7005 21.6609C30.1159 19.2685 28.872 16.8916 26.5793 15.7021C26.5391 15.7267 25.2141 15.5041 23.5527 15.3917C22.1964 15.2994 20.6161 15.3031 19.329 15.3902C18.2854 15.4609 16.9143 14.9361 16.7505 15.5599C16.1371 17.8936 14.8181 19.9265 13.1395 21.5098C11.877 22.7008 10.4314 23.6045 8.86821 24.1613M13.1387 21.5098C11.8763 22.7008 10.4307 23.6045 8.86821 24.1613M8.86821 24.1613C7.00724 23.2055 6.12813 21.0796 6.92164 19.2149M8.86821 24.1613C7.00724 23.2055 6.12887 21.0796 6.92164 19.2149M6.92164 19.2149C7.55065 17.7365 8.28237 16.1078 6.93132 15.7356C5.94799 15.4647 5.40756 16.4063 5.02941 17.4135C4.30513 19.3429 2.92876 21.3401 2.53647 23.705M6.93132 15.7349C5.94799 15.4639 5.40756 16.4056 5.02941 17.4127C4.30513 19.3422 2.92876 21.3393 2.53647 23.7043C2.12259 26.2009 2.53498 28.8517 4.69444 30.3479C9.7235 33.8338 15.1828 28.1869 20.9384 26.7674C23.0242 26.253 25.3146 26.3357 27.1525 25.2712C28.5326 24.4717 29.4422 23.1467 29.7005 21.6594" stroke="#D8DAE5" stroke-width="1.64982"/>
<path d="M20.5841 6.99835L24.6277 15.247L29.4731 0.956177H11.6831L16.5174 15.2216L20.5841 6.99835Z" fill="#C21325"/>
<path fill-rule="evenodd" clip-rule="evenodd" d="M10.6445 0.211792H30.5111L24.753 17.1946L20.5808 8.6835L16.3883 17.1611L10.6445 0.211792ZM28.4343 1.70056H12.721L16.6457 13.2821L20.5867 5.31319L24.5016 13.2995L28.4343 1.70056ZM28.4343 1.70056L24.5016 13.2995L28.4343 1.70056ZM23.9236 15.0044L23.9223 15.008L24.6273 15.247" fill="#D8DAE5"/>
<path d="M15.6779 19.3818C17.3612 19.3818 18.7258 18.0172 18.7258 16.3339C18.7258 14.6506 17.3612 13.286 15.6779 13.286C13.9946 13.286 12.6301 14.6506 12.6301 16.3339C12.6301 18.0172 13.9946 19.3818 15.6779 19.3818Z" fill="#C21325"/>
<path d="M25.6068 19.3818C27.2901 19.3818 28.6547 18.0172 28.6547 16.3339C28.6547 14.6506 27.2901 13.286 25.6068 13.286C23.9235 13.286 22.559 14.6506 22.559 16.3339C22.559 18.0172 23.9235 19.3818 25.6068 19.3818Z" fill="#C21325"/>
<path d="M5.71146 19.4037C7.39475 19.4037 8.75934 18.0391 8.75934 16.3558C8.75934 14.6725 7.39475 13.3079 5.71146 13.3079C4.02816 13.3079 2.66357 14.6725 2.66357 16.3558C2.66357 18.0391 4.02816 19.4037 5.71146 19.4037Z" fill="#C21325"/>
<path fill-rule="evenodd" clip-rule="evenodd" d="M15.6782 14.0304C14.406 14.0304 13.3747 15.0617 13.3747 16.3339C13.3747 17.6061 14.406 18.6374 15.6782 18.6374C16.9504 18.6374 17.9817 17.6061 17.9817 16.3339C17.9817 15.0617 16.9504 14.0304 15.6782 14.0304ZM11.8859 16.3339C11.8859 14.2395 13.5838 12.5416 15.6782 12.5416C17.7726 12.5416 19.4705 14.2395 19.4705 16.3339C19.4705 18.4283 17.7726 20.1262 15.6782 20.1262C13.5838 20.1262 11.8859 18.4283 11.8859 16.3339ZM25.6071 14.0304C24.3349 14.0304 23.3036 15.0617 23.3036 16.3339C23.3036 17.6061 24.3349 18.6374 25.6071 18.6374C26.8793 18.6374 27.9106 17.6061 27.9106 16.3339C27.9106 15.0617 26.8793 14.0304 25.6071 14.0304ZM21.8148 16.3339C21.8148 14.2395 23.5127 12.5416 25.6071 12.5416C27.7015 12.5416 29.3994 14.2395 29.3994 16.3339C29.3994 18.4283 27.7015 20.1262 25.6071 20.1262C23.5127 20.1262 21.8148 18.4283 21.8148 16.3339ZM5.7117 14.0523C4.43951 14.0523 3.4082 15.0836 3.4082 16.3558C3.4082 17.628 4.43951 18.6593 5.7117 18.6593C6.98389 18.6593 8.0152 17.628 8.0152 16.3558C8.0152 15.0836 6.98389 14.0523 5.7117 14.0523ZM1.91943 16.3558C1.91943 14.2614 3.61729 12.5635 5.7117 12.5635C7.80611 12.5635 9.50397 14.2614 9.50397 16.3558C9.50397 18.4502 7.80611 20.148 5.7117 20.148C3.61729 20.148 1.91943 18.4502 1.91943 16.3558Z" fill="#D8DAE5"/>
</g>
<defs>
<clipPath id="clip0_4764_348">
<rect width="32" height="32" fill="white" transform="translate(0.0874023)"/>
</clipPath>
</defs>
</svg>
