<svg width="49" height="48" viewBox="0 0 49 48" fill="none" xmlns="http://www.w3.org/2000/svg">
<g clip-path="url(#clip0_1462_577)">
<path d="M40.2395 23.5529C38.7244 23.2894 31.8217 22.7401 29.363 23.0851C27.7975 23.1912 25.7408 22.404 25.4951 23.3385C23.9007 29.2687 19.3127 34.1906 13.6717 36.2395C5.85903 31.7754 14.8519 25.2937 10.7675 23.6021C9.29139 23.1956 8.48187 24.6081 7.91465 26.1199C5.18685 31.6079 0.842251 40.7828 7.41331 45.5238C14.9569 50.7516 23.1459 42.2824 31.7792 40.1531C34.9079 39.3815 38.3436 39.5055 41.1004 37.9088C46.7805 34.7276 46.0524 26.341 40.2407 23.5529H40.2395Z" fill="#C21325"/>
<path d="M44.9197 32.4913C45.5428 28.9027 43.677 25.3374 40.2379 23.5532C40.1776 23.59 38.1901 23.2561 35.6979 23.0875C33.6635 22.9491 31.293 22.9547 29.3625 23.0853C27.797 23.1914 25.7403 22.4042 25.4946 23.3399C24.5746 26.8404 22.596 29.8897 20.0781 32.2647C18.1844 34.0512 16.016 35.4067 13.6712 36.2419M20.077 32.2647C18.1833 34.0512 16.0149 35.4067 13.6712 36.2419M13.6712 36.2419C10.8798 34.8082 9.56109 31.6193 10.7514 28.8223M13.6712 36.2419C10.8798 34.8082 9.5622 31.6193 10.7514 28.8223M10.7514 28.8223C11.6949 26.6048 12.7925 24.1617 10.7659 23.6034C9.29087 23.197 8.48024 24.6094 7.91302 26.1202C6.82659 29.0143 4.76204 32.0101 4.1736 35.5575M10.7659 23.6023C9.29087 23.1958 8.48024 24.6083 7.91302 26.119C6.82659 29.0132 4.76204 32.009 4.1736 35.5564C3.55279 39.3013 4.17137 43.2775 7.41056 45.5218C14.9542 50.7507 23.1431 42.2804 31.7765 40.1511C34.9051 39.3795 38.3409 39.5034 41.0977 37.9067C43.1678 36.7075 44.5323 34.72 44.9197 32.4891" stroke="#D8DAE5" stroke-width="1.64982"/>
<path fill-rule="evenodd" clip-rule="evenodd" d="M16.3357 0.317627H46.1356L37.4984 25.7918L31.2401 13.0252L24.9513 25.7416L16.3357 0.317627ZM43.0203 2.55078H19.4504L25.3375 19.9232L31.2489 7.96972L37.1213 19.9492L43.0203 2.55078ZM43.0203 2.55078L37.1213 19.9492ZM36.2542 22.5065L36.2524 22.5119L37.3098 22.8705" fill="#D8DAE5"/>
<path fill-rule="evenodd" clip-rule="evenodd" d="M23.8862 21.0457C21.9779 21.0457 20.4309 22.5926 20.4309 24.5009C20.4309 26.4092 21.9779 27.9561 23.8862 27.9561C25.7945 27.9561 27.3414 26.4092 27.3414 24.5009C27.3414 22.5926 25.7945 21.0457 23.8862 21.0457ZM18.1978 24.5009C18.1978 21.3593 20.7446 18.8125 23.8862 18.8125C27.0278 18.8125 29.5746 21.3593 29.5746 24.5009C29.5746 27.6425 27.0278 30.1893 23.8862 30.1893C20.7446 30.1893 18.1978 27.6425 18.1978 24.5009ZM38.7795 21.0457C36.8712 21.0457 35.3243 22.5926 35.3243 24.5009C35.3243 26.4092 36.8712 27.9561 38.7795 27.9561C40.6878 27.9561 42.2348 26.4092 42.2348 24.5009C42.2348 22.5926 40.6878 21.0457 38.7795 21.0457ZM33.0911 24.5009C33.0911 21.3593 35.6379 18.8125 38.7795 18.8125C41.9211 18.8125 44.4679 21.3593 44.4679 24.5009C44.4679 27.6425 41.9211 30.1893 38.7795 30.1893C35.6379 30.1893 33.0911 27.6425 33.0911 24.5009ZM8.93645 21.0785C7.02817 21.0785 5.4812 22.6254 5.4812 24.5337C5.4812 26.442 7.02817 27.989 8.93645 27.989C10.8447 27.989 12.3917 26.442 12.3917 24.5337C12.3917 22.6254 10.8447 21.0785 8.93645 21.0785ZM3.24805 24.5337C3.24805 21.3921 5.79483 18.8453 8.93645 18.8453C12.0781 18.8453 14.6248 21.3921 14.6248 24.5337C14.6248 27.6753 12.0781 30.2221 8.93645 30.2221C5.79483 30.2221 3.24805 27.6753 3.24805 24.5337Z" fill="#D8DAE5"/>
</g>
<defs>
<clipPath id="clip0_1462_577">
<rect width="48" height="48" fill="white" transform="translate(0.5)"/>
</clipPath>
</defs>
</svg>
