<svg width="33" height="33" viewBox="0 0 33 33" fill="none" xmlns="http://www.w3.org/2000/svg">
<path d="M4.18799 1.03714H29.5005C30.7949 1.03714 31.8442 2.08647 31.8442 3.38089V28.6934C31.8442 29.9878 30.7949 31.0371 29.5005 31.0371H4.18799C2.89357 31.0371 1.84424 29.9878 1.84424 28.6934V3.38089C1.84424 2.08647 2.89357 1.03714 4.18799 1.03714Z" fill="#F7DF1E"/>
<path fill-rule="evenodd" clip-rule="evenodd" d="M8.73247 24.8781L11.0283 23.4887C11.4712 24.274 11.8741 24.9385 12.8405 24.9385C13.7669 24.9385 14.3509 24.5761 14.3509 23.1666V13.5808H17.1702V23.2064C17.1702 26.1264 15.4586 27.4555 12.9614 27.4555C10.7061 27.4555 9.39695 26.2875 8.73242 24.8779" fill="black"/>
<path fill-rule="evenodd" clip-rule="evenodd" d="M18.7012 24.576L20.9967 23.2469C21.601 24.2338 22.3864 24.9587 23.7758 24.9587C24.9439 24.9587 25.6888 24.3746 25.6888 23.5691C25.6888 22.6025 24.9236 22.2601 23.6348 21.6965L22.9302 21.3942C20.8961 20.5284 19.5468 19.441 19.5468 17.1452C19.5468 15.0307 21.1578 13.4196 23.6752 13.4196C25.4675 13.4196 26.7563 14.044 27.6825 15.6752L25.4875 17.0847C25.0041 16.2189 24.4807 15.8766 23.6752 15.8766C22.8496 15.8766 22.3259 16.4002 22.3259 17.0847C22.3259 17.9306 22.8496 18.273 24.0577 18.7966L24.7625 19.0986C27.1589 20.1257 28.5082 21.1728 28.5082 23.5288C28.5082 26.0664 26.5146 27.4557 23.8363 27.4557C21.2184 27.4557 19.5267 26.2073 18.7012 24.576" fill="black"/>
</svg>
