<svg width="32" height="32" viewBox="0 0 32 32" fill="none" xmlns="http://www.w3.org/2000/svg">
<g clip-path="url(#clip0_4756_31)">
<path d="M29.7072 13.3094C30.443 11.1007 30.1893 8.68151 29.0133 6.67339C27.2435 3.59214 23.6862 2.00703 20.2125 2.75344C18.6672 1.01227 16.4466 0.0221498 14.1184 0.0360951C10.567 0.0281263 7.41599 2.31449 6.32361 5.69324C4.04256 6.16074 2.07295 7.58847 0.920808 9.61253C-0.862198 12.6851 -0.455792 16.5586 1.9262 19.1936C1.19042 21.4023 1.44409 23.8215 2.62014 25.8296C4.38987 28.9108 7.94724 30.4959 11.4209 29.7495C12.9656 31.4907 15.1868 32.4808 17.515 32.4655C21.0684 32.4748 24.2201 30.1865 25.3125 26.8044C27.5935 26.3369 29.5631 24.9092 30.7153 22.8851C32.4956 19.8125 32.0885 15.9417 29.7079 13.3067L29.7072 13.3094ZM17.517 30.3465C16.0953 30.3485 14.718 29.8511 13.6263 28.94C13.6761 28.9135 13.7624 28.8663 13.8175 28.8318L20.2755 25.1024C20.6062 24.9152 20.8088 24.5632 20.8068 24.1834V15.0791L23.5361 16.6549C23.5653 16.6688 23.5846 16.6974 23.5885 16.7299V24.269C23.5846 27.6219 20.8692 30.3399 17.517 30.3465ZM4.45959 24.7697C3.74705 23.5392 3.49073 22.0969 3.7351 20.6977C3.78291 20.7263 3.86658 20.7781 3.92635 20.8119L10.3843 24.5413C10.7117 24.7325 11.1168 24.7325 11.4455 24.5413L19.3293 19.9885V23.1401C19.3313 23.1727 19.316 23.2039 19.2907 23.2245L12.763 26.9937C9.85509 28.6678 6.14166 27.673 4.46092 24.7691L4.45959 24.7697ZM2.75959 10.673C3.46881 9.44054 4.58908 8.49823 5.92252 8.00882C5.92252 8.0646 5.9192 8.16288 5.9192 8.23194V15.692C5.91721 16.0712 6.11975 16.4225 6.44912 16.6104L14.3329 21.1619L11.6036 22.7377C11.5763 22.7556 11.5418 22.759 11.5113 22.7457L4.98221 18.9738C2.08092 17.2937 1.08549 13.581 2.7576 10.6744L2.75959 10.673ZM25.1836 15.8919L17.2999 11.3391L20.0292 9.76393C20.0564 9.74601 20.0909 9.74269 20.1215 9.75597L26.6505 13.5252C29.5571 15.2046 30.5532 18.9227 28.8738 21.8293C28.1633 23.0598 27.0443 24.0021 25.7116 24.4928V16.8096C25.7149 16.4305 25.513 16.0798 25.1843 15.8912H25.1836V15.8919ZM27.9003 11.8033C27.8525 11.774 27.7688 11.7229 27.7091 11.689L21.2511 7.95968C20.9237 7.76843 20.5186 7.76843 20.1899 7.95968L12.3055 12.5118V9.36018C12.3035 9.32765 12.3188 9.29643 12.344 9.27585L18.8717 5.50996C21.7796 3.83254 25.4971 4.83062 27.1732 7.73987C27.8817 8.96839 28.138 10.4061 27.8976 11.8039L27.9003 11.8033ZM10.822 17.4212L8.09134 15.8454C8.06213 15.8315 8.04287 15.8029 8.03888 15.7704V8.23062C8.04088 4.87378 10.7642 2.15379 14.121 2.15578C15.5408 2.15578 16.9154 2.65449 18.0064 3.56226C17.9566 3.58883 17.8716 3.63597 17.8152 3.6705L11.3572 7.39987C11.0265 7.58714 10.824 7.93776 10.8259 8.31827L10.822 17.4192V17.4212ZM12.3048 14.2244L15.8164 12.1964L19.3279 14.2231V18.2779L15.8164 20.3046L12.3048 18.2779V14.2244Z" fill="#2E7230"/>
</g>
<defs>
<clipPath id="clip0_4756_31">
<rect width="32" height="32" fill="white"/>
</clipPath>
</defs>
</svg>
