<svg width="33" height="33" viewBox="0 0 33 33" fill="none" xmlns="http://www.w3.org/2000/svg">
<g clip-path="url(#clip0_4726_69)">
<path d="M16.5181 32.5947C25.3546 32.5947 32.5181 25.4313 32.5181 16.5947C32.5181 7.75814 25.3546 0.594696 16.5181 0.594696C7.68151 0.594696 0.518066 7.75814 0.518066 16.5947C0.518066 25.4313 7.68151 32.5947 16.5181 32.5947Z" fill="#8892BF"/>
<path d="M14.734 9.73758H16.654L16.1114 12.6224H17.8366C18.7828 12.6426 19.4876 12.854 19.9515 13.2568C20.4245 13.6594 20.5637 14.4249 20.369 15.5526L19.4368 20.582H17.4889L18.3793 15.7791C18.472 15.2755 18.4442 14.9181 18.2958 14.7067C18.1475 14.4953 17.8275 14.3896 17.3358 14.3896L15.7914 14.3745L14.6505 20.582H12.7305L14.734 9.73758Z" fill="white"/>
<path fill-rule="evenodd" clip-rule="evenodd" d="M5.9364 12.6225H9.66518C10.7596 12.6324 11.5527 12.9749 12.0444 13.6494C12.536 14.3241 12.6983 15.2453 12.5313 16.4134C12.4665 16.9473 12.3227 17.4707 12.1 17.9843C11.8867 18.4978 11.59 18.9609 11.2096 19.3738C10.7457 19.8973 10.2495 20.2296 9.72083 20.3707C9.19214 20.5117 8.64479 20.5821 8.07906 20.5821H6.40945L5.88074 23.4518H3.94678L5.9364 12.6225ZM6.72946 18.8754L7.56149 14.3594H7.84254C7.94466 14.3594 8.05123 14.3542 8.16255 14.3443C8.90469 14.3342 9.52134 14.4098 10.0131 14.5708C10.5139 14.7318 10.6808 15.3411 10.5139 16.3984C10.31 17.6571 9.91089 18.3921 9.31736 18.6035C8.72381 18.805 7.98167 18.9005 7.09121 18.8905H6.89642C6.84077 18.8905 6.78512 18.8853 6.72946 18.8754Z" fill="white"/>
<path fill-rule="evenodd" clip-rule="evenodd" d="M26.1598 12.6225H22.431L20.4414 23.4518H22.3753L22.9041 20.5821H24.5737C25.1395 20.5821 25.6868 20.5117 26.2155 20.3707C26.7443 20.2296 27.2404 19.8973 27.7043 19.3738C28.0846 18.9609 28.3813 18.4978 28.5947 17.9843C28.8173 17.4707 28.9612 16.9473 29.026 16.4134C29.1929 15.2453 29.0308 14.3241 28.539 13.6494C28.0473 12.9749 27.2543 12.6324 26.1598 12.6225ZM24.0561 14.3594L23.2241 18.8754C23.2798 18.8853 23.3355 18.8905 23.3911 18.8905H23.5859C24.4764 18.9005 25.2184 18.805 25.812 18.6035C26.4055 18.3921 26.8046 17.6571 27.0086 16.3984C27.1756 15.3411 27.0086 14.7318 26.5077 14.5708C26.016 14.4098 25.3993 14.3342 24.6572 14.3443C24.5459 14.3542 24.4393 14.3594 24.3372 14.3594H24.0561Z" fill="white"/>
</g>
<defs>
<clipPath id="clip0_4726_69">
<rect width="32" height="32" fill="white" transform="translate(0.518066 0.594696)"/>
</clipPath>
</defs>
</svg>
