<svg width="49" height="48" viewBox="0 0 49 48" fill="none" xmlns="http://www.w3.org/2000/svg">
<g clip-path="url(#clip0_1472_1017)">
<path d="M23.3472 22.8017C23.4876 22.764 23.6239 22.7265 23.764 22.6861C26.8409 21.8185 29.834 20.6169 32.8081 19.3721C35.7199 18.1537 38.5994 16.6906 41.1296 14.6314C43.7261 12.5193 45.8143 9.78311 46.9672 6.38971C47.1296 5.91747 47.4614 5.23632 47.4934 4.71826C43.4504 10.2467 27.4122 10.8173 27.4122 10.8173L31.197 7.34503C15.982 7.3741 5.36457 13.8323 0.5 17.286C6.72537 17.9539 12.3608 20.5905 16.7728 24.5611C18.9436 23.8888 21.1594 23.4033 23.3472 22.8017Z" fill="#FF6200"/>
<path d="M48.4999 22.2586C48.4999 22.2586 33.7013 21.1269 18.3291 26.0767C20.3686 28.2074 22.0876 30.6445 23.405 33.3168C31.4874 28.8178 42.6948 23.0699 48.4999 22.2586Z" fill="#FF6200"/>
<path d="M24.418 35.6266C25.3565 38.04 25.986 40.6074 26.2471 43.2817L40.3345 28.793L24.418 35.6266Z" fill="#FF6200"/>
<path d="M24.418 35.6266C25.3565 38.04 25.986 40.6074 26.2471 43.2817L40.3345 28.793L24.418 35.6266Z" fill="#FF6200"/>
</g>
<defs>
<clipPath id="clip0_1472_1017">
<rect width="48" height="48" fill="white" transform="translate(0.5)"/>
</clipPath>
</defs>
</svg>
