<svg width="52" height="52" viewBox="0 0 52 52" fill="none" xmlns="http://www.w3.org/2000/svg">
<g clip-path="url(#clip0_1462_592)">
<mask id="mask0_1462_592" style="mask-type:luminance" maskUnits="userSpaceOnUse" x="0" y="6" width="53" height="40">
<path d="M52.2437 6.5H0.243652V45.5H52.2437V6.5Z" fill="white"/>
</mask>
<g mask="url(#mask0_1462_592)">
<path d="M17.3833 28.5091C15.4423 29.06 14.1687 30.0258 13.3298 30.9909C14.1333 30.2879 15.2097 29.6423 16.6614 29.2308C18.1465 28.8099 19.4134 28.813 20.4603 29.0151V28.1965C19.5671 28.1148 18.5434 28.1798 17.3833 28.5091ZM13.241 21.6278L6.03211 23.5271C6.03211 23.5271 6.16332 23.7127 6.40667 23.9603L12.5191 22.3495C12.5191 22.3495 12.4324 23.4657 11.6802 24.4641C13.1031 23.3877 13.241 21.6278 13.241 21.6278ZM19.2757 38.5705C9.13037 41.3029 3.763 29.5456 2.13799 23.4434C1.38724 20.6264 1.0594 18.4932 0.972057 17.1164C0.963747 16.9919 0.965445 16.8669 0.977135 16.7427C0.451041 16.7742 0.198962 17.0478 0.25015 17.8385C0.337494 19.2143 0.665338 21.3475 1.41609 24.1653C3.04048 30.2667 8.40846 42.024 18.5537 39.2916C20.7619 38.6966 22.4208 37.6132 23.6664 36.2299C22.5183 37.2666 21.0818 38.083 19.2757 38.5705ZM21.1818 14.4321V15.1542H25.161C25.0795 14.8985 24.9973 14.6682 24.9156 14.4321H21.1818Z" fill="#2D4552"/>
<path d="M26.0507 20.3785C27.8403 20.887 28.7868 22.1417 29.2871 23.2519L31.2826 23.8187C31.2826 23.8187 31.0104 19.9325 27.4954 18.9341C24.207 17.9997 22.1834 20.7612 21.9373 21.1185C22.894 20.437 24.2907 19.879 26.0507 20.3785ZM41.9345 23.2698C38.6431 22.3314 36.6204 25.0985 36.3778 25.4508C37.3351 24.7701 38.7312 24.2119 40.4905 24.7136C42.2774 25.2227 43.2229 26.4759 43.7248 27.587L45.723 28.1558C45.723 28.1558 45.4465 24.269 41.9345 23.2698ZM39.952 33.516L23.353 28.8757C23.353 28.8757 23.5328 29.7867 24.2222 30.9664L38.1978 34.8733C39.3483 34.2077 39.952 33.516 39.952 33.516ZM28.444 43.5045C15.3008 39.9807 16.8896 23.2347 19.0163 15.2994C19.892 12.0291 20.7922 9.59849 21.5389 7.96902C21.0935 7.87741 20.7244 8.11202 20.36 8.85342C19.567 10.461 18.5534 13.0786 17.5727 16.743C15.4466 24.6783 13.8576 41.4239 27.0001 44.9477C33.1948 46.6073 38.0209 44.085 41.6182 40.1237C38.2037 43.2165 33.8438 44.9506 28.444 43.5045Z" fill="#2D4552"/>
<path d="M21.1819 34.6459V31.2666L11.7928 33.9291C11.7928 33.9291 12.4865 29.8979 17.3832 28.5089C18.8683 28.0881 20.1354 28.0909 21.1819 28.293V14.432H25.8832C25.3713 12.8502 24.8761 11.6325 24.4601 10.7863C23.7721 9.38572 23.0669 10.3142 21.4658 11.6534C20.3381 12.5955 17.488 14.6054 13.1991 15.761C8.91028 16.9176 5.44273 16.6109 3.99607 16.3602C1.94512 16.0064 0.872418 15.5558 0.972762 17.1161C1.06011 18.492 1.38775 20.6254 2.1387 23.443C3.76289 29.5447 9.13107 41.3017 19.2764 38.5693C21.9263 37.8553 23.7967 36.4438 25.0932 34.6449H21.1819V34.6457V34.6459ZM6.03118 23.5269L13.2409 21.6277C13.2409 21.6277 13.0309 24.4011 10.3281 25.1137C7.6245 25.8254 6.03118 23.5269 6.03118 23.5269Z" fill="#E2574C"/>
<path d="M48.3159 14.5925C46.4419 14.9209 41.9457 15.3302 36.3892 13.8409C30.8311 12.3524 27.1436 9.74917 25.6825 8.52555C23.6113 6.79086 22.7002 5.58511 21.8036 7.40877C21.0111 9.01711 19.9973 11.6348 19.0162 15.2994C16.8903 23.2346 15.3012 39.9801 28.4438 43.5039C41.5834 47.0246 48.5788 31.7271 50.7049 23.7912C51.686 20.1274 52.1162 17.3532 52.2344 15.5642C52.3695 13.5379 50.9775 14.1261 48.3159 14.5925ZM21.9105 21.1577C21.9105 21.1577 23.9816 17.9363 27.4944 18.9349C31.0095 19.9333 31.2817 23.8192 31.2817 23.8192L21.9105 21.1577ZM30.4854 35.6127C24.3066 33.8028 23.3537 28.8756 23.3537 28.8756L39.9519 33.5162C39.9519 33.5154 36.6015 37.4 30.4854 35.6125V35.6127ZM36.3537 25.4869C36.3537 25.4869 38.4221 22.268 41.9344 23.2692C45.4464 24.2692 45.7228 28.1551 45.7228 28.1551L36.3539 25.4869H36.3537Z" fill="#2EAD33"/>
<path d="M17.9009 32.1973L11.7929 33.9283C11.7929 33.9283 12.4563 30.1483 16.956 28.6505L13.4976 15.6704L13.1988 15.7612C8.90978 16.9178 5.44244 16.6111 3.99578 16.3604C1.94483 16.0068 0.871928 15.5561 0.972272 17.1165C1.05962 18.4924 1.38746 20.6256 2.13821 23.4432C3.76259 29.5449 9.13078 41.3019 19.2759 38.5695L19.5747 38.4757L17.9011 32.1971L17.9009 32.1973ZM6.0313 23.5269L13.241 21.6275C13.241 21.6275 13.031 24.4009 10.3282 25.1135C7.62461 25.8252 6.0313 23.5269 6.0313 23.5269Z" fill="#D65348"/>
<path d="M30.7641 35.6806L30.4846 35.6125C24.3057 33.8027 23.3529 28.8757 23.3529 28.8757L31.912 31.2681L36.4433 13.8554L36.3884 13.8412C30.8305 12.3525 27.143 9.74924 25.6817 8.52541C23.6107 6.79072 22.6994 5.58517 21.8028 7.40883C21.0111 9.01717 19.9973 11.6348 19.0162 15.2994C16.8903 23.2347 15.3012 39.9801 28.4438 43.5037L28.7132 43.5647L30.7641 35.6806ZM21.9105 21.1576C21.9105 21.1576 23.9816 17.9362 27.4944 18.9348C31.0095 19.9331 31.2817 23.8191 31.2817 23.8191L21.9105 21.1576Z" fill="#1D8D22"/>
<path d="M18.2121 32.1085L16.5741 32.5734C16.9613 34.755 17.6434 36.8486 18.7139 38.6981C18.9003 38.657 19.0852 38.6217 19.2749 38.5697C19.7723 38.4356 20.2336 38.2693 20.6777 38.0881C19.4813 36.3128 18.6899 34.2685 18.2121 32.1085ZM17.5727 16.7433C16.731 19.885 15.9778 24.4072 16.1852 28.943C16.5561 28.7819 16.9481 28.6318 17.3836 28.5083L17.6867 28.4405C17.317 23.5955 18.1161 18.6586 19.0163 15.2995C19.2297 14.5028 19.4582 13.7102 19.7015 12.9221C19.305 13.1756 18.9003 13.4159 18.488 13.6426C18.1561 14.6681 17.8509 15.702 17.5727 16.7433Z" fill="#C04B41"/>
</g>
</g>
<defs>
<clipPath id="clip0_1462_592">
<rect width="52" height="52" fill="white"/>
</clipPath>
</defs>
</svg>
