<svg width="48" height="48" viewBox="0 0 48 48" fill="none" xmlns="http://www.w3.org/2000/svg">
<path d="M12.9268 28.7819C12.9268 35.0191 12.9224 41.2563 12.9366 47.4936C12.9374 47.8998 12.833 48.0034 12.4294 47.9998C10.1884 47.9795 7.94642 47.9821 5.70537 47.9981C5.33717 48.0007 5.23892 47.8981 5.23892 47.5299C5.24866 35.0111 5.24866 22.4924 5.23804 9.97367C5.23804 9.59131 5.35664 9.52139 5.71068 9.52316C7.96677 9.53909 10.2229 9.54086 12.479 9.52227C12.8489 9.51962 12.9366 9.61344 12.9357 9.98075C12.9233 16.2472 12.9268 22.5145 12.9268 28.781V28.7819Z" fill="#029FE2"/>
<path d="M15.2954 25.2815C15.2954 20.1948 15.3007 15.1082 15.2856 10.0216C15.2848 9.60649 15.4051 9.51976 15.7981 9.5233C18.0392 9.54188 20.2802 9.541 22.5213 9.5233C22.8771 9.52064 22.9541 9.62597 22.9541 9.96496C22.9452 20.1824 22.9452 30.3999 22.955 40.6174C22.955 40.9874 22.8558 41.0839 22.4894 41.0812C20.2484 41.0644 18.0073 41.0609 15.7663 41.0839C15.3565 41.0883 15.2874 40.9582 15.2883 40.5856C15.2998 35.4839 15.2963 30.3831 15.2963 25.2815H15.2954Z" fill="#C6D202"/>
<path d="M32.8581 20.109C32.8581 23.4422 32.8493 26.7746 32.8688 30.1078C32.8714 30.5282 32.7404 30.6061 32.3536 30.6035C30.0975 30.5858 27.8406 30.5893 25.5845 30.6008C25.2871 30.6026 25.1817 30.5371 25.1826 30.2158C25.1915 23.4466 25.1915 16.6775 25.1826 9.90916C25.1826 9.58521 25.2915 9.52503 25.5871 9.5268C27.8733 9.53831 30.1586 9.54273 32.4448 9.52326C32.8227 9.51972 32.8652 9.66045 32.8643 9.9782C32.8555 13.3557 32.859 16.7323 32.859 20.1098L32.8581 20.109Z" fill="#EF7E16"/>
<path d="M24.0356 3.85321C30.318 3.85321 36.5995 3.85321 42.8819 3.85409C43.9732 3.85409 44.6892 4.38957 44.8919 5.33928C45.1274 6.44033 44.3299 7.4989 43.2032 7.58033C43.0855 7.58918 42.9677 7.58564 42.8491 7.58564C30.2853 7.58564 17.7205 7.58564 5.15664 7.58741C4.87518 7.58741 4.59726 7.57944 4.32731 7.48828C3.46789 7.19708 2.95631 6.35271 3.08553 5.43575C3.21033 4.54978 3.93079 3.87622 4.83447 3.86294C6.26478 3.8417 7.69508 3.85321 9.12539 3.85321C14.0952 3.85321 19.065 3.85321 24.0348 3.85321H24.0356Z" fill="#6A6A6A"/>
<path d="M42.7137 15.988C42.7137 18.022 42.7057 20.055 42.7216 22.0881C42.7243 22.4209 42.6314 22.5094 42.3012 22.5076C40.0168 22.4934 37.7333 22.4926 35.4488 22.5076C35.1143 22.5103 35.0355 22.4182 35.0364 22.089C35.0479 18.037 35.0488 13.9842 35.0364 9.93223C35.0355 9.59855 35.1214 9.52067 35.4488 9.52332C37.7324 9.53837 40.0168 9.54191 42.3012 9.52155C42.68 9.51801 42.7225 9.65608 42.7208 9.9756C42.7084 11.9794 42.7146 13.9833 42.7146 15.988H42.7137Z" fill="#DE2916"/>
<path d="M9.12016 1.83359C7.95627 1.83359 6.79149 1.82209 5.62759 1.84068C5.30896 1.84599 5.21956 1.74509 5.24169 1.4415C5.27355 1.00338 5.10539 0.43161 5.324 0.159002C5.55501 -0.129538 6.15068 0.0696079 6.58526 0.0669526C8.5599 0.0563315 10.5345 0.0687228 12.5092 0.0554464C12.8181 0.0536762 12.9747 0.0979308 12.9314 0.454623C12.8774 0.901594 13.1208 1.50611 12.8313 1.76102C12.58 1.98317 11.9905 1.82917 11.5515 1.83094C10.7408 1.83536 9.93002 1.83182 9.12016 1.83182V1.83359Z" fill="#029FE2"/>
<path d="M38.9015 0.0634038C40.0504 0.0634038 41.2001 0.0731398 42.349 0.0563231C42.6402 0.0518976 42.7375 0.132441 42.7189 0.423636C42.6959 0.790064 42.703 1.16003 42.7172 1.52823C42.7251 1.74685 42.6711 1.8389 42.4269 1.8389C40.0548 1.83093 37.6837 1.83182 35.3116 1.8389C35.0974 1.8389 35.0319 1.77251 35.0399 1.56275C35.054 1.16534 35.0602 0.766166 35.0381 0.369645C35.024 0.105888 35.1302 0.0572081 35.3674 0.0598634C36.5454 0.0704845 37.7244 0.0642889 38.9024 0.0642889L38.9015 0.0634038Z" fill="#DE2916"/>
<path d="M19.1119 1.83355C17.9639 1.83355 16.8151 1.82647 15.6671 1.83886C15.3928 1.84152 15.2671 1.78576 15.2892 1.47951C15.322 1.02723 15.1458 0.431566 15.3724 0.156302C15.6114 -0.134008 16.2283 0.0695635 16.6788 0.0669082C18.6366 0.0571722 20.5944 0.0686784 22.5523 0.0562871C22.8488 0.0545169 22.9789 0.112933 22.9523 0.438646C22.9231 0.789143 22.9275 1.14583 22.9514 1.49722C22.97 1.77779 22.8647 1.84152 22.6001 1.83798C21.437 1.8247 20.274 1.83178 19.111 1.83178L19.1119 1.83355Z" fill="#C6D202"/>
<path d="M28.9876 0.063463C30.1515 0.063463 31.3154 0.0714289 32.4784 0.0572674C32.7572 0.053727 32.8741 0.116568 32.8528 0.418385C32.8263 0.784812 32.8307 1.15567 32.8519 1.52209C32.867 1.7832 32.7652 1.83807 32.5236 1.83807C30.1967 1.83011 27.8689 1.83011 25.542 1.83807C25.2835 1.83896 25.1667 1.78585 25.1844 1.49997C25.2074 1.13354 25.2074 0.762685 25.1844 0.396257C25.1667 0.111258 25.2817 0.0554972 25.5411 0.0581525C26.6899 0.0705438 27.8388 0.063463 28.9876 0.063463Z" fill="#EF7E16"/>
</svg>
