<svg width="52" height="52" viewBox="0 0 52 52" fill="none" xmlns="http://www.w3.org/2000/svg">
<path fill-rule="evenodd" clip-rule="evenodd" d="M43.5001 7.77979L44.5961 9.22282C44.8839 9.60368 44.812 10.1496 44.4311 10.4373L43.2674 11.3218C43.479 11.8846 43.6144 12.4855 43.6694 13.0991L44.9939 13.2811C45.4679 13.3446 45.798 13.7847 45.7345 14.2586L45.4891 16.0571C45.4256 16.5311 44.9855 16.8654 44.5115 16.7977L43.0642 16.5988C42.8061 17.1616 42.476 17.6779 42.0867 18.1392L42.8992 19.2056C43.187 19.5864 43.1108 20.1323 42.7299 20.4201L41.2869 21.5161C40.906 21.8039 40.3601 21.7277 40.0724 21.3511L39.1879 20.1873C38.6209 20.3989 38.0242 20.5343 37.4064 20.5894L37.2244 21.9139C37.1609 22.3879 36.7208 22.7179 36.2469 22.6545L34.4484 22.409C33.9744 22.3455 33.6443 21.9054 33.7078 21.4315L33.9067 19.9842C33.3481 19.7261 32.8276 19.396 32.3663 19.0109L31.2999 19.8192C30.9191 20.1069 30.3732 20.035 30.0854 19.6541L28.9894 18.2111C28.7016 17.8302 28.7736 17.2843 29.1544 16.9966L30.3182 16.1121C30.1066 15.5451 29.9711 14.9484 29.9161 14.3348L28.5916 14.1528C28.1176 14.0894 27.7833 13.6493 27.851 13.1753L28.0965 11.3768C28.1642 10.9028 28.6001 10.5728 29.074 10.6362L30.5213 10.8351C30.7794 10.2765 31.1095 9.75602 31.4946 9.29476L30.6863 8.22836C30.3986 7.85173 30.4705 7.30583 30.8514 7.01807L32.2944 5.92204C32.6752 5.63428 33.2211 5.70622 33.5089 6.08708L34.3933 7.25082C34.9562 7.03923 35.5571 6.90381 36.1707 6.8488L36.3527 5.52425C36.4161 5.0503 36.8562 4.71599 37.3302 4.77946L39.1287 5.0249C39.6027 5.08838 39.937 5.52849 39.8693 6.00244L39.6704 7.44971C40.2332 7.70785 40.7495 8.03793 41.215 8.42725L42.2814 7.61898C42.6622 7.32699 43.2081 7.39893 43.5001 7.77979ZM12.5574 33.1746V26.1922H16.1544C16.823 26.1922 17.3308 26.2472 17.6821 26.3657C18.0333 26.48 18.3211 26.6916 18.5327 27.0005C18.7485 27.3136 18.8585 27.6903 18.8585 28.1346C18.8585 28.5197 18.7739 28.8582 18.6088 29.1375C18.4438 29.4211 18.2153 29.6496 17.9275 29.8231C17.7456 29.9331 17.4917 30.0262 17.17 30.0981C17.4282 30.187 17.6144 30.2674 17.7286 30.3563C17.809 30.4155 17.9233 30.5383 18.0714 30.7244C18.2195 30.9106 18.3211 31.0588 18.3719 31.1603L19.4213 33.1789H16.9838L15.8328 31.0503C15.6847 30.7752 15.5577 30.5933 15.4435 30.5129C15.2869 30.4071 15.1092 30.3521 14.9145 30.3521H14.7241V33.1789H12.5574V33.1746ZM20.1661 45.3325H16.1375L15.5577 47.2284H11.9269L16.256 35.7222H20.1492L24.4614 47.2284H20.7374L20.1661 45.3325ZM19.4129 42.84L18.156 38.7013L16.895 42.84H19.4129ZM25.2993 35.7222H31.2153C32.506 35.7222 33.4708 36.0269 34.1098 36.6405C34.7488 37.2541 35.0704 38.13 35.0704 39.2599C35.0704 40.4237 34.7192 41.3335 34.021 41.9894C33.3227 42.6453 32.2521 42.9712 30.8175 42.9712H28.8667V47.2284H25.2993V35.7222ZM28.8667 40.6395H29.7426C30.4324 40.6395 30.9191 40.521 31.1984 40.2798C31.4777 40.0428 31.6173 39.7339 31.6173 39.3657C31.6173 39.006 31.4946 38.6971 31.2534 38.4474C31.0122 38.1978 30.5551 38.0708 29.8865 38.0708H28.8667V40.6395ZM36.5092 35.7222H40.0766V47.2284H36.5092V35.7222ZM14.7241 29.0275H15.6339C15.7312 29.0275 15.9217 28.9937 16.2052 28.9302C16.3491 28.9006 16.4676 28.8286 16.5564 28.7101C16.6495 28.5916 16.6919 28.4562 16.6919 28.3039C16.6919 28.0796 16.6199 27.9019 16.476 27.7834C16.3322 27.6606 16.0655 27.6014 15.672 27.6014H14.7241V29.0275ZM19.8361 26.1922H25.6124V27.6818H22.0027V28.7948H25.3501V30.2166H22.0027V31.592H25.7182V33.1704H19.8361V26.1922ZM26.2303 30.8641L28.2784 30.7371C28.3208 31.0715 28.4139 31.3211 28.5493 31.4946C28.7736 31.7739 29.0909 31.9178 29.5014 31.9178C29.8061 31.9178 30.0473 31.8459 30.2124 31.702C30.3774 31.5581 30.462 31.3888 30.462 31.1984C30.462 31.0164 30.3816 30.8556 30.2251 30.7118C30.0685 30.5679 29.7003 30.4367 29.1206 30.3055C28.1769 30.0939 27.504 29.8104 27.0978 29.4591C26.6915 29.1079 26.4884 28.6593 26.4884 28.1134C26.4884 27.7537 26.5942 27.4152 26.8016 27.0978C27.0089 26.7804 27.3221 26.5265 27.741 26.3446C28.16 26.1626 28.7312 26.0737 29.4591 26.0737C30.352 26.0737 31.0291 26.2388 31.4988 26.5731C31.9643 26.9074 32.2436 27.4321 32.3325 28.16L30.3055 28.2827C30.2504 27.9653 30.1362 27.7326 29.9669 27.5929C29.7934 27.4491 29.5522 27.3771 29.2517 27.3771C29.0021 27.3771 28.8116 27.4321 28.6847 27.5379C28.5577 27.6437 28.4943 27.7749 28.4943 27.9272C28.4943 28.0373 28.5493 28.1346 28.6508 28.2277C28.7524 28.3166 28.9894 28.4054 29.3702 28.4858C30.3139 28.689 30.991 28.8963 31.3973 29.1037C31.8035 29.311 32.104 29.5692 32.2859 29.8781C32.4721 30.1828 32.5652 30.5298 32.5652 30.9106C32.5652 31.3592 32.4425 31.7697 32.1928 32.1463C31.9474 32.523 31.6004 32.8107 31.156 33.0054C30.7117 33.2 30.1531 33.2974 29.476 33.2974C28.2911 33.2974 27.4659 33.0688 27.0089 32.6118C26.5519 32.1463 26.2937 31.5666 26.2303 30.8641ZM32.8784 26.1922H39.4418V27.9188H37.2413V33.1746H35.0831V27.9188H32.8784V26.1922ZM25.6167 9.62061C24.8422 9.56136 24.0594 9.56983 23.285 9.646C20.9025 9.87451 18.5877 10.742 16.6749 12.2274C14.4617 13.9412 12.7817 16.5057 12.1342 19.9038L11.9311 20.966L10.8732 21.1522C9.83638 21.3341 8.90962 21.5838 8.09712 21.9012C7.31001 22.2059 6.60754 22.5825 5.99393 23.0269C5.50305 23.3823 5.07987 23.7801 4.72017 24.2118C3.60722 25.5448 3.09094 27.2163 3.10363 28.909C3.11633 30.6271 3.67492 32.3621 4.70748 33.7882C5.09257 34.3172 5.5369 34.8039 6.04472 35.2271C6.56099 35.6545 7.14074 36.0099 7.79244 36.2765C8.1606 36.4289 8.55416 36.5558 8.96464 36.6574V39.827C8.11828 39.6746 7.33964 39.4461 6.61177 39.1457C5.65116 38.7479 4.80058 38.2358 4.05155 37.6095C3.34061 37.0171 2.71854 36.3442 2.18957 35.6121C0.780393 33.6655 0.0186739 31.2873 0.00174682 28.9175C-0.0151803 26.5223 0.729611 24.1398 2.33768 22.2101C2.85819 21.5838 3.4718 21.0083 4.17427 20.5005C4.991 19.908 5.92623 19.4087 6.98417 18.9982C7.71203 18.7147 8.49068 18.4777 9.31164 18.2873C10.2426 14.5887 12.2273 11.7407 14.7791 9.76449C17.1658 7.9152 20.0392 6.8361 22.9972 6.55257C24.5503 6.40446 26.1245 6.47217 27.6648 6.75993C27.631 6.89958 27.6014 7.03923 27.5844 7.18311L27.5802 7.2085C27.5506 7.44971 27.5379 7.69092 27.5506 7.93636C27.2247 8.06332 26.92 8.23682 26.645 8.44841L26.6323 8.45687C26.2218 8.76579 25.8748 9.16358 25.6167 9.62061ZM48.007 17.7456C48.2439 17.9614 48.4724 18.1857 48.6967 18.4269C49.1495 18.9136 49.5769 19.4637 49.979 20.0773C51.3331 22.1593 52.0271 24.9396 51.9975 27.6606C51.9679 30.3309 51.2485 32.9884 49.7758 34.9435C48.8152 36.2173 47.5838 37.2583 46.1069 38.0835C45.0955 38.6506 43.9572 39.1203 42.7172 39.5011V36.2215C43.3859 35.9718 44.0079 35.6925 44.5792 35.3752C45.6922 34.7531 46.602 33.9956 47.2833 33.0858C48.3413 31.6766 48.8618 29.6834 48.8829 27.6395C48.9083 25.494 48.3836 23.34 47.3637 21.7743C47.0717 21.3215 46.7501 20.9152 46.4116 20.5513C46.2804 20.4116 46.1492 20.2804 46.0138 20.1535C46.035 19.9419 46.0434 19.7261 46.0307 19.5103C46.3566 19.3833 46.6613 19.2098 46.9363 18.9982L46.949 18.9897C47.3849 18.6554 47.7488 18.2323 48.007 17.7456ZM37.2752 10.1877C39.226 10.4543 40.5887 12.2528 40.3221 14.2036C40.0555 16.1545 38.257 17.5213 36.3061 17.2547C34.3553 16.9881 32.9884 15.1896 33.2592 13.2388C33.5301 11.2879 35.3243 9.92106 37.2752 10.1877Z" fill="black"/>
</svg>
