<svg width="33" height="30" viewBox="0 0 33 30" fill="none" xmlns="http://www.w3.org/2000/svg">
<g clip-path="url(#clip0_4755_8)">
<path d="M31.9192 24.2715C32.6423 25.5271 32.7123 26.8474 32.1115 27.8911C31.5115 28.9357 30.3376 29.5339 28.8906 29.5339H26.1637C26.1961 29.0254 26.2176 28.5127 26.2176 27.9962C26.2176 27.4178 26.1907 26.8465 26.1512 26.2771L27.9449 26.2753C28.3859 26.2753 28.7424 25.9169 28.7424 25.475C28.7423 25.3418 28.7094 25.2107 28.6464 25.0934L17.2144 5.22294C17.1453 5.1 17.0448 4.99769 16.9231 4.92651C16.8014 4.85533 16.6629 4.81786 16.5219 4.81795C16.3845 4.81799 16.2494 4.85358 16.1298 4.92126C16.0102 4.98894 15.9101 5.0864 15.8393 5.20419L14.0241 8.35943C19.5406 12.518 23.2492 18.9606 23.7567 26.2753C23.7962 26.8438 23.8231 27.4151 23.8231 27.9944C23.8231 28.5108 23.8016 29.0228 23.7701 29.532H14.8647C14.9132 29.0254 14.9411 28.5136 14.9411 27.9944C14.9411 27.4133 14.907 26.8403 14.8441 26.2753C14.4041 22.2497 12.4334 18.6821 9.53143 16.1645L8.28111 18.3364C10.4735 20.3769 11.97 23.1559 12.3768 26.2753C12.4506 26.8384 12.4918 27.4115 12.4918 27.9944C12.4918 28.5136 12.4577 29.0273 12.3993 29.532H4.14416C2.69722 29.532 1.52327 28.9329 0.923292 27.8884C0.322442 26.8447 0.392439 25.5253 1.11553 24.2688L2.81046 21.3641C3.7787 21.8849 4.6537 22.563 5.39973 23.3706L4.3894 25.0915C4.32662 25.209 4.29357 25.34 4.29315 25.4732C4.29295 25.5781 4.31344 25.682 4.35344 25.779C4.39344 25.8759 4.45217 25.9641 4.52626 26.0383C4.60035 26.1125 4.68836 26.1714 4.78524 26.2116C4.88212 26.2518 4.98598 26.2725 5.09087 26.2726L9.09483 26.2744C8.75896 24.355 7.87338 22.6233 6.60518 21.2518C5.85784 20.4462 4.98487 19.7643 4.01304 19.2426L8.4841 11.4742C9.43341 12.0049 10.3352 12.6165 11.1795 13.3021C15.0327 16.4286 17.6347 21.0462 18.1062 26.2736H20.5026C20.0139 20.1623 16.9431 14.7733 12.3858 11.2057C11.5301 10.5354 10.6245 9.93131 9.67693 9.39864L13.4933 2.76829C14.2154 1.51172 15.3199 0.790497 16.5219 0.790497C17.7227 0.790497 18.8265 1.51172 19.5496 2.76829L31.9192 24.2715Z" fill="#FB2D26"/>
</g>
<defs>
<clipPath id="clip0_4755_8">
<rect width="32" height="28.7488" fill="white" transform="translate(0.518066 0.790497)"/>
</clipPath>
</defs>
</svg>
