<svg width="32" height="33" viewBox="0 0 32 33" fill="none" xmlns="http://www.w3.org/2000/svg">
<path d="M6.72313 20.6428C6.72313 22.4929 5.21173 24.0043 3.36156 24.0043C1.5114 24.0043 0 22.4929 0 20.6428C0 18.7926 1.5114 17.2812 3.36156 17.2812H6.72313V20.6428Z" fill="#E01E5A"/>
<path d="M8.41699 20.6428C8.41699 18.7926 9.92839 17.2812 11.7786 17.2812C13.6287 17.2812 15.1401 18.7926 15.1401 20.6428V29.0597C15.1401 30.9099 13.6287 32.4213 11.7786 32.4213C9.92839 32.4213 8.41699 30.9099 8.41699 29.0597V20.6428Z" fill="#E01E5A"/>
<path d="M11.7786 7.14439C9.92839 7.14439 8.41699 5.63299 8.41699 3.78283C8.41699 1.93267 9.92839 0.421265 11.7786 0.421265C13.6287 0.421265 15.1401 1.93267 15.1401 3.78283V7.14439H11.7786Z" fill="#36C5F0"/>
<path d="M11.7785 8.8382C13.6287 8.8382 15.1401 10.3496 15.1401 12.1998C15.1401 14.0499 13.6287 15.5613 11.7785 15.5613H3.36156C1.5114 15.5613 0 14.0499 0 12.1998C0 10.3496 1.5114 8.8382 3.36156 8.8382H11.7785Z" fill="#36C5F0"/>
<path d="M25.2769 12.1998C25.2769 10.3496 26.7883 8.8382 28.6384 8.8382C30.4886 8.8382 32 10.3496 32 12.1998C32 14.0499 30.4886 15.5613 28.6384 15.5613H25.2769V12.1998Z" fill="#2EB67D"/>
<path d="M23.583 12.1998C23.583 14.0499 22.0716 15.5613 20.2214 15.5613C18.3713 15.5613 16.8599 14.0499 16.8599 12.1998V3.78283C16.8599 1.93267 18.3713 0.421265 20.2214 0.421265C22.0716 0.421265 23.583 1.93267 23.583 3.78283V12.1998Z" fill="#2EB67D"/>
<path d="M20.2214 25.6982C22.0716 25.6982 23.583 27.2096 23.583 29.0597C23.583 30.9099 22.0716 32.4213 20.2214 32.4213C18.3713 32.4213 16.8599 30.9099 16.8599 29.0597V25.6982H20.2214Z" fill="#ECB22E"/>
<path d="M20.2214 24.0043C18.3713 24.0043 16.8599 22.4929 16.8599 20.6428C16.8599 18.7926 18.3713 17.2812 20.2214 17.2812H28.6384C30.4885 17.2812 31.9999 18.7926 31.9999 20.6428C31.9999 22.4929 30.4885 24.0043 28.6384 24.0043H20.2214Z" fill="#ECB22E"/>
</svg>
