<svg width="33" height="33" viewBox="0 0 33 33" fill="none" xmlns="http://www.w3.org/2000/svg">
<path d="M3.72656 1.04221H29.0391C30.3335 1.04221 31.3828 2.09154 31.3828 3.38596V28.6985C31.3828 29.9929 30.3335 31.0422 29.0391 31.0422H3.72656C2.43215 31.0422 1.38281 29.9929 1.38281 28.6985V3.38596C1.38281 2.09154 2.43215 1.04221 3.72656 1.04221Z" fill="#635BFF"/>
<path fill-rule="evenodd" clip-rule="evenodd" d="M15.1069 12.4026C15.1069 11.6312 15.7399 11.3345 16.7883 11.3345C18.2915 11.3345 20.1904 11.7895 21.6937 12.6004V7.9521C20.052 7.29935 18.43 7.04221 16.7883 7.04221C12.7729 7.04221 10.1025 9.13891 10.1025 12.64C10.1025 18.0993 17.619 17.229 17.619 19.5829C17.619 20.4928 16.8278 20.7895 15.7201 20.7895C14.0784 20.7895 11.9817 20.1169 10.3201 19.207V23.9147C12.1597 24.7059 14.019 25.0422 15.7201 25.0422C19.8344 25.0422 22.663 23.0048 22.663 19.4642C22.6432 13.5697 15.1069 14.618 15.1069 12.4026Z" fill="white"/>
</svg>
