<svg width="33" height="33" viewBox="0 0 33 33" fill="none" xmlns="http://www.w3.org/2000/svg">
<path d="M3.86182 1.5947H29.1743C30.4687 1.5947 31.5181 2.64403 31.5181 3.93845V29.2509C31.5181 30.5454 30.4687 31.5947 29.1743 31.5947H3.86182C2.5674 31.5947 1.51807 30.5454 1.51807 29.2509V3.93845C1.51807 2.64403 2.5674 1.5947 3.86182 1.5947Z" fill="#3178C6"/>
<path d="M19.0205 24.7666V27.7023C19.4979 27.947 20.0626 28.1305 20.7145 28.2528C21.3664 28.3751 22.0534 28.4363 22.7758 28.4363C23.4796 28.4363 24.1484 28.369 24.7819 28.2344C25.4154 28.0999 25.9709 27.8781 26.4483 27.5694C26.9257 27.2605 27.3037 26.8568 27.5823 26.3583C27.8608 25.8599 28 25.2438 28 24.5098C28 23.9777 27.9204 23.5114 27.7613 23.1107C27.6022 22.7101 27.3726 22.3539 27.0726 22.042C26.7728 21.73 26.4131 21.4503 25.9939 21.2025C25.5746 20.9549 25.1017 20.7209 24.5753 20.5008C24.1896 20.3417 23.8439 20.1874 23.5378 20.0375C23.2318 19.8876 22.9716 19.7348 22.7574 19.5788C22.5431 19.4228 22.3778 19.2577 22.2615 19.0833C22.1453 18.909 22.0871 18.7119 22.0871 18.4916C22.0871 18.2898 22.1391 18.1079 22.2432 17.9458C22.3472 17.7837 22.4942 17.6446 22.6839 17.5284C22.8737 17.4122 23.1062 17.322 23.3817 17.2577C23.6571 17.1935 23.9632 17.1614 24.2999 17.1614C24.5448 17.1614 24.8034 17.1798 25.0757 17.2165C25.3481 17.2531 25.622 17.3097 25.8975 17.3862C26.1729 17.4626 26.4406 17.5589 26.7008 17.6752C26.9609 17.7914 27.2012 17.926 27.4216 18.0788V15.3358C26.9747 15.1646 26.4865 15.0377 25.9571 14.9551C25.4277 14.8725 24.8201 14.8312 24.1346 14.8312C23.4368 14.8312 22.7758 14.9062 22.1514 15.056C21.5271 15.2058 20.9777 15.4397 20.5033 15.7578C20.0289 16.0759 19.6541 16.4811 19.3786 16.9734C19.1032 17.4657 18.9654 18.0544 18.9654 18.7394C18.9654 19.6139 19.2178 20.3601 19.7229 20.9778C20.2279 21.5955 20.9945 22.1184 22.0228 22.5466C22.4268 22.7117 22.8033 22.8737 23.1521 23.0328C23.5011 23.1918 23.8025 23.3569 24.0566 23.5281C24.3106 23.6994 24.5111 23.8859 24.6579 24.0878C24.8048 24.2896 24.8783 24.519 24.8783 24.7759C24.8783 24.9654 24.8324 25.1413 24.7405 25.3034C24.6488 25.4654 24.5095 25.6061 24.3228 25.7254C24.1362 25.8446 23.9035 25.9378 23.625 26.0051C23.3466 26.0724 23.0206 26.1061 22.6472 26.1061C22.0106 26.1061 21.3802 25.9945 20.7559 25.7712C20.1314 25.548 19.553 25.2131 19.0205 24.7666ZM14.1273 17.461H17.9025V15.0438H7.37988V17.461H11.1366V28.2237H14.1273V17.461Z" fill="white"/>
</svg>
