<svg width="48" height="48" viewBox="0 0 48 48" fill="none" xmlns="http://www.w3.org/2000/svg">
<path d="M4.93799 39.8203L15.927 37.0093L20.2442 39.5433L23.1537 35.0383L34.4394 32.3201L41.8303 38.1354L30.9823 41.9312L28.7849 46.3008L23.8106 42.922L13.1113 46.0194L4.93799 39.8203Z" fill="#00AA66"/>
<path d="M35.7957 2.97949L43.5491 6.75952V37.4214L35.7957 31.4291" fill="#00AA66"/>
<path d="M43.7187 39.6449C43.4676 39.6449 43.218 39.5646 43.0098 39.4087L34.3687 32.9222C33.8475 32.5303 33.742 31.7909 34.1335 31.2694C34.5249 30.7472 35.2647 30.6436 35.7862 31.0337L42.5379 36.1024V8.25663L34.3687 2.12444C33.8475 1.7328 33.742 0.993286 34.1335 0.471882C34.5249 -0.0505015 35.2647 -0.154125 35.7862 0.236155L44.427 6.72262C44.7239 6.94594 44.8988 7.29535 44.8988 7.66685V38.4644C44.8988 38.9116 44.646 39.3205 44.2459 39.5206C44.0791 39.6041 43.8985 39.6449 43.7187 39.6449Z" fill="#18252D"/>
<path d="M28.8786 47.9999C28.6252 47.9999 28.3762 47.918 28.1699 47.7637L19.5286 41.2772C19.0074 40.8853 18.9019 40.1459 19.2935 39.6244C19.6848 39.1022 20.4246 38.998 20.946 39.3887L28.4879 45.0503L30.2395 41.7839L22.4091 35.9057C21.8878 35.514 21.7823 34.7744 22.1738 34.2527C22.5649 33.7314 23.3054 33.6273 23.8265 34.0175L32.4675 40.5044C32.9339 40.8548 33.0746 41.4927 32.7993 42.0068L29.9189 47.377C29.7562 47.6807 29.4691 47.8978 29.1331 47.9718C29.0486 47.9906 28.9633 47.9999 28.8786 47.9999Z" fill="#18252D"/>
<path d="M12.922 47.5452C12.669 47.5452 12.4198 47.4639 12.2133 47.309L3.57243 40.8225C3.05102 40.4307 2.94565 39.6911 3.3371 39.1698C3.72893 38.6475 4.46844 38.5433 4.98965 38.9341L13.1788 45.0817L23.488 42.459C24.1216 42.2979 24.762 42.6802 24.9228 43.3114C25.0835 43.9436 24.7018 44.5857 24.0698 44.7465L13.2129 47.5084C13.1168 47.5332 13.0192 47.5452 12.922 47.5452Z" fill="#18252D"/>
<path d="M31.7536 42.629C31.2243 42.629 30.7428 42.2709 30.6091 41.7339C30.4512 41.1013 30.8363 40.4607 31.4689 40.3032L43.4335 37.3197C44.067 37.1607 44.7068 37.5467 44.8642 38.1795C45.0221 38.8123 44.6371 39.4529 44.0044 39.6103L32.0399 42.5936C31.944 42.6177 31.848 42.629 31.7536 42.629Z" fill="#18252D"/>
<path d="M4.10059 8.99998L34.6005 2L35.1005 31.4999L23.1005 34.4998L19.6005 39.4999L15.6005 36.4998L5.10058 38.4997L4.10059 8.99998Z" fill="white"/>
<path d="M19.7908 41.1676C19.5238 41.1676 19.2626 41.077 19.0517 40.9075L15.5201 38.0713L4.56662 40.8029C4.21468 40.8914 3.84106 40.8117 3.55421 40.5877C3.26793 40.3638 3.10059 40.0208 3.10059 39.6576V8.8597C3.10059 8.31756 3.46976 7.84554 3.99543 7.71442L34.7934 0.0358022C35.1455 -0.0532939 35.5192 0.0274737 35.8056 0.250797C36.092 0.474705 36.2594 0.81773 36.2594 1.18109V31.9787C36.2594 32.5208 35.8902 32.9928 35.3644 33.124L23.8455 35.996L20.7753 40.6381C20.5921 40.9152 20.301 41.1024 19.9729 41.1531C19.9122 41.163 19.8514 41.1676 19.7908 41.1676ZM15.8025 35.6041C16.0683 35.6041 16.3297 35.6942 16.5415 35.8642L19.5202 38.2563L22.1298 34.3106C22.2927 34.0639 22.5422 33.8878 22.8288 33.8162L33.8983 31.0563V2.69166L5.46146 9.7819V38.1465L15.5171 35.6393C15.6113 35.6155 15.7072 35.6041 15.8025 35.6041Z" fill="#18252D"/>
<path d="M22.7687 26.6082C21.4396 28.2306 20.0799 29.1139 18.7282 29.2335C17.2237 29.3623 16.2011 28.5157 16.1415 28.4651C15.623 28.0104 14.8317 28.0581 14.3709 28.5745C13.908 29.0942 13.9536 29.8902 14.4732 30.3532C14.542 30.4145 16.0882 31.7676 18.4165 31.7676C18.5704 31.7676 18.7276 31.7615 18.8877 31.7488C20.9627 31.5867 22.9243 30.3941 24.7176 28.2052C25.1588 27.6673 25.0799 26.8734 24.5418 26.432C24.0038 25.9912 23.2095 26.0699 22.7687 26.6082Z" fill="#18252D"/>
<path d="M13.6195 19.4869C13.705 19.4018 13.8135 19.3433 13.9315 19.3181L15.1879 19.0516L18.4311 16.0922V15.0895L20.2467 14.6124V18.3512C20.2467 18.4419 20.2533 18.8093 20.338 19.2854L22.6754 16.964C22.761 16.879 22.8694 16.8205 22.9874 16.7953L24.2437 16.5289L27.6367 13.4329V11.865C27.6367 11.8523 27.635 11.84 27.6343 11.8276C27.634 11.8146 27.6332 11.802 27.6322 11.789C27.6277 11.7277 27.6187 11.6674 27.6038 11.6085C27.603 11.6054 27.603 11.6025 27.6022 11.5995C27.6009 11.5938 27.598 11.589 27.5964 11.5834C27.5789 11.5215 27.5575 11.4611 27.5294 11.4038C27.5274 11.3999 27.5249 11.3964 27.523 11.3925C27.497 11.3414 27.4661 11.293 27.4319 11.2467C27.4248 11.2371 27.4184 11.2269 27.411 11.2176C27.376 11.1733 27.3368 11.1322 27.2946 11.0937C27.2846 11.0846 27.2745 11.0759 27.2642 11.0671C27.2526 11.0574 27.2419 11.0469 27.2299 11.0376C27.1956 11.0111 27.16 10.9875 27.1232 10.9659C27.1174 10.9623 27.1112 10.9596 27.1054 10.9564C27.057 10.9291 27.0068 10.9062 26.9551 10.887C26.9458 10.8835 26.9369 10.8795 26.9274 10.8762C26.8732 10.8577 26.8172 10.8446 26.7606 10.8353C26.7472 10.8332 26.7341 10.8313 26.7207 10.8295C26.6632 10.8223 26.6053 10.8194 26.547 10.822C26.5364 10.8223 26.5259 10.8237 26.5155 10.8245C26.4521 10.8291 26.3887 10.838 26.3262 10.8543L11.8202 14.666C11.3612 14.7865 11.041 15.2016 11.041 15.6763V17.2803V20.77C11.041 20.8737 11.049 21.3389 11.1735 21.9159L13.6195 19.4869Z" fill="#18252D"/>
<path d="M27.6359 15.1326L24.9631 17.5715C24.8807 17.6466 24.7795 17.6987 24.6703 17.7217L23.4282 17.9854L20.7673 20.6277C20.9703 21.0353 21.2498 21.4259 21.6418 21.7282C22.1351 22.1087 22.9924 22.491 24.2762 22.1539C25.7548 21.7654 26.8067 20.6899 27.3184 19.0433C27.6489 17.9806 27.6413 17.0313 27.6359 16.8424V15.1326Z" fill="#18252D"/>
<path d="M18.4329 17.7925L15.9099 20.0947C15.8275 20.17 15.7265 20.222 15.6173 20.2452L14.375 20.5086L11.6501 23.2146C11.8444 23.5608 12.1007 23.8867 12.4389 24.1476C12.7985 24.4248 13.3513 24.7033 14.1219 24.7033C14.4085 24.7033 14.7251 24.6648 15.0732 24.5734C16.5519 24.1848 17.6037 23.1092 18.1155 21.4629C18.4459 20.3999 18.4384 19.4507 18.4329 19.262V17.7925Z" fill="#18252D"/>
<path d="M19.7908 42.2125C19.5238 42.2125 19.2626 42.1219 19.0517 41.9524L15.5201 39.1162L4.56662 41.8478C4.21468 41.9363 3.84106 41.8566 3.55421 41.6327C3.26793 41.4087 3.10059 41.0658 3.10059 40.7025V9.90462C3.10059 9.36248 3.46976 8.89047 3.99543 8.75934L34.7934 1.08072C35.1455 0.991628 35.5192 1.0724 35.8056 1.29572C36.092 1.51963 36.2594 1.86265 36.2594 2.22601V33.0236C36.2594 33.5657 35.8902 34.0377 35.3644 34.1689L23.8455 37.0409L20.7753 41.683C20.5921 41.9602 20.301 42.1473 19.9729 42.198C19.9122 42.2079 19.8514 42.2125 19.7908 42.2125ZM15.8025 36.649C16.0683 36.649 16.3297 36.7391 16.5415 36.9091L19.5202 39.3012L22.1298 35.3556C22.2927 35.1088 22.5422 34.9328 22.8288 34.8611L33.8983 32.1012V3.73659L5.46146 10.8268V39.1914L15.5171 36.6843C15.6113 36.6604 15.7072 36.649 15.8025 36.649Z" fill="#18252D"/>
</svg>
