<svg width="484" height="132" viewBox="0 0 484 132" fill="none" xmlns="http://www.w3.org/2000/svg">
<rect width="484" height="132" fill="#F6F7FC"/>
<rect x="38.5" y="22" width="62" height="62" rx="31" fill="#E5FAEF"/>
<rect x="38.5" y="22" width="62" height="62" rx="31" stroke="#00CC66" stroke-width="4"/>
<path d="M54.4062 62V47.375L54.957 47.9258L50.8906 49.7539V46.9766L56.3047 44.7266H57.1719V62H54.4062ZM50.6211 62V59.5039H60.2656V62H50.6211ZM68.7617 62.1875C67.5664 62.1875 66.5469 61.8984 65.7031 61.3203C64.8594 60.7344 64.2148 59.8633 63.7695 58.707C63.3242 57.5508 63.1016 56.1172 63.1016 54.4062V52.4023C63.1016 50.6758 63.3242 49.2305 63.7695 48.0664C64.2148 46.9023 64.8594 46.0234 65.7031 45.4297C66.5469 44.8359 67.5664 44.5391 68.7617 44.5391C69.957 44.5391 70.9727 44.8359 71.8086 45.4297C72.6523 46.0234 73.293 46.9023 73.7305 48.0664C74.1758 49.2305 74.3984 50.6758 74.3984 52.4023V54.4062C74.3984 56.1172 74.1758 57.5508 73.7305 58.707C73.293 59.8633 72.6523 60.7344 71.8086 61.3203C70.9727 61.8984 69.957 62.1875 68.7617 62.1875ZM68.7617 59.6445C69.3711 59.6445 69.8867 59.4648 70.3086 59.1055C70.7383 58.7383 71.0625 58.1992 71.2812 57.4883C71.5078 56.7695 71.6211 55.8789 71.6211 54.8164V51.9453C71.6211 50.875 71.5078 49.9805 71.2812 49.2617C71.0625 48.543 70.7383 48 70.3086 47.6328C69.8867 47.2656 69.3711 47.082 68.7617 47.082C68.1523 47.082 67.6328 47.2656 67.2031 47.6328C66.7812 47.9922 66.4531 48.5312 66.2188 49.25C65.9922 49.9688 65.8789 50.8672 65.8789 51.9453V54.8164C65.8789 55.8711 65.9922 56.7578 66.2188 57.4766C66.4453 58.1953 66.7734 58.7383 67.2031 59.1055C67.6328 59.4648 68.1523 59.6445 68.7617 59.6445ZM65.3398 57.7578L64.2031 55.8359L72.207 48.9922L73.2734 50.8672L65.3398 57.7578ZM82.2617 62.1875C81.0664 62.1875 80.0469 61.8984 79.2031 61.3203C78.3594 60.7344 77.7148 59.8633 77.2695 58.707C76.8242 57.5508 76.6016 56.1172 76.6016 54.4062V52.4023C76.6016 50.6758 76.8242 49.2305 77.2695 48.0664C77.7148 46.9023 78.3594 46.0234 79.2031 45.4297C80.0469 44.8359 81.0664 44.5391 82.2617 44.5391C83.457 44.5391 84.4727 44.8359 85.3086 45.4297C86.1523 46.0234 86.793 46.9023 87.2305 48.0664C87.6758 49.2305 87.8984 50.6758 87.8984 52.4023V54.4062C87.8984 56.1172 87.6758 57.5508 87.2305 58.707C86.793 59.8633 86.1523 60.7344 85.3086 61.3203C84.4727 61.8984 83.457 62.1875 82.2617 62.1875ZM82.2617 59.6445C82.8711 59.6445 83.3867 59.4648 83.8086 59.1055C84.2383 58.7383 84.5625 58.1992 84.7812 57.4883C85.0078 56.7695 85.1211 55.8789 85.1211 54.8164V51.9453C85.1211 50.875 85.0078 49.9805 84.7812 49.2617C84.5625 48.543 84.2383 48 83.8086 47.6328C83.3867 47.2656 82.8711 47.082 82.2617 47.082C81.6523 47.082 81.1328 47.2656 80.7031 47.6328C80.2812 47.9922 79.9531 48.5312 79.7188 49.25C79.4922 49.9688 79.3789 50.8672 79.3789 51.9453V54.8164C79.3789 55.8711 79.4922 56.7578 79.7188 57.4766C79.9453 58.1953 80.2734 58.7383 80.7031 59.1055C81.1328 59.4648 81.6523 59.6445 82.2617 59.6445ZM78.8398 57.7578L77.7031 55.8359L85.707 48.9922L86.7734 50.8672L78.8398 57.7578Z" fill="#008800"/>
<path d="M33.8301 106.097H31.1709V105.023H33.8301C34.3451 105.023 34.762 104.941 35.0811 104.777C35.4001 104.613 35.6325 104.385 35.7783 104.094C35.9287 103.802 36.0039 103.469 36.0039 103.096C36.0039 102.754 35.9287 102.433 35.7783 102.132C35.6325 101.831 35.4001 101.59 35.0811 101.407C34.762 101.22 34.3451 101.127 33.8301 101.127H31.4785V110H30.1592V100.047H33.8301C34.582 100.047 35.2178 100.177 35.7373 100.437C36.2568 100.696 36.651 101.056 36.9199 101.517C37.1888 101.972 37.3232 102.494 37.3232 103.082C37.3232 103.72 37.1888 104.265 36.9199 104.716C36.651 105.167 36.2568 105.511 35.7373 105.748C35.2178 105.98 34.582 106.097 33.8301 106.097ZM41.7734 110.137C41.2585 110.137 40.7913 110.05 40.3721 109.877C39.9574 109.699 39.5996 109.451 39.2988 109.132C39.0026 108.813 38.7747 108.435 38.6152 107.997C38.4557 107.56 38.376 107.081 38.376 106.562V106.274C38.376 105.673 38.4648 105.137 38.6426 104.668C38.8203 104.194 39.0618 103.793 39.3672 103.465C39.6725 103.137 40.0189 102.888 40.4062 102.72C40.7936 102.551 41.1947 102.467 41.6094 102.467C42.138 102.467 42.5938 102.558 42.9766 102.74C43.3639 102.923 43.6807 103.178 43.9268 103.506C44.1729 103.829 44.3551 104.212 44.4736 104.654C44.5921 105.092 44.6514 105.57 44.6514 106.09V106.657H39.1279V105.625H43.3867V105.529C43.3685 105.201 43.3001 104.882 43.1816 104.572C43.0677 104.262 42.8854 104.007 42.6348 103.807C42.3841 103.606 42.0423 103.506 41.6094 103.506C41.3223 103.506 41.0579 103.567 40.8164 103.69C40.5749 103.809 40.3675 103.987 40.1943 104.224C40.0212 104.461 39.8867 104.75 39.791 105.092C39.6953 105.434 39.6475 105.828 39.6475 106.274V106.562C39.6475 106.912 39.6953 107.243 39.791 107.553C39.8913 107.858 40.0348 108.127 40.2217 108.359C40.4131 108.592 40.6432 108.774 40.9121 108.906C41.1855 109.038 41.4954 109.104 41.8418 109.104C42.2884 109.104 42.6667 109.013 42.9766 108.831C43.2865 108.649 43.5576 108.405 43.79 108.1L44.5557 108.708C44.3962 108.95 44.1934 109.18 43.9473 109.398C43.7012 109.617 43.3981 109.795 43.0381 109.932C42.6826 110.068 42.2611 110.137 41.7734 110.137ZM47.3926 103.766V110H46.1279V102.604H47.3584L47.3926 103.766ZM49.7031 102.562L49.6963 103.738C49.5915 103.715 49.4912 103.702 49.3955 103.697C49.3044 103.688 49.1995 103.684 49.0811 103.684C48.7894 103.684 48.5319 103.729 48.3086 103.82C48.0853 103.911 47.8962 104.039 47.7412 104.203C47.5863 104.367 47.4632 104.563 47.3721 104.791C47.2855 105.014 47.2285 105.26 47.2012 105.529L46.8457 105.734C46.8457 105.288 46.889 104.868 46.9756 104.477C47.0667 104.085 47.2057 103.738 47.3926 103.438C47.5794 103.132 47.8164 102.895 48.1035 102.727C48.3952 102.553 48.7415 102.467 49.1426 102.467C49.2337 102.467 49.3385 102.478 49.457 102.501C49.5755 102.519 49.6576 102.54 49.7031 102.562ZM52.8682 110H51.6035V101.824C51.6035 101.291 51.6992 100.842 51.8906 100.478C52.0866 100.108 52.3669 99.8304 52.7314 99.6436C53.096 99.4521 53.529 99.3564 54.0303 99.3564C54.1761 99.3564 54.3219 99.3656 54.4678 99.3838C54.6182 99.402 54.764 99.4294 54.9053 99.4658L54.8369 100.498C54.7412 100.475 54.6318 100.459 54.5088 100.45C54.3903 100.441 54.2718 100.437 54.1533 100.437C53.8844 100.437 53.652 100.491 53.4561 100.601C53.2646 100.705 53.1188 100.86 53.0186 101.065C52.9183 101.271 52.8682 101.523 52.8682 101.824V110ZM54.4404 102.604V103.574H50.4346V102.604H54.4404ZM55.5137 106.384V106.227C55.5137 105.693 55.5911 105.199 55.7461 104.743C55.901 104.283 56.1243 103.884 56.416 103.547C56.7077 103.205 57.0609 102.941 57.4756 102.754C57.8903 102.562 58.3551 102.467 58.8701 102.467C59.3896 102.467 59.8568 102.562 60.2715 102.754C60.6908 102.941 61.0462 103.205 61.3379 103.547C61.6341 103.884 61.8597 104.283 62.0146 104.743C62.1696 105.199 62.2471 105.693 62.2471 106.227V106.384C62.2471 106.917 62.1696 107.411 62.0146 107.867C61.8597 108.323 61.6341 108.722 61.3379 109.063C61.0462 109.401 60.693 109.665 60.2783 109.856C59.8682 110.043 59.4033 110.137 58.8838 110.137C58.3643 110.137 57.8971 110.043 57.4824 109.856C57.0677 109.665 56.7122 109.401 56.416 109.063C56.1243 108.722 55.901 108.323 55.7461 107.867C55.5911 107.411 55.5137 106.917 55.5137 106.384ZM56.7783 106.227V106.384C56.7783 106.753 56.8216 107.102 56.9082 107.43C56.9948 107.753 57.1247 108.04 57.2979 108.291C57.4756 108.542 57.6966 108.74 57.9609 108.886C58.2253 109.027 58.5329 109.098 58.8838 109.098C59.2301 109.098 59.5332 109.027 59.793 108.886C60.0573 108.74 60.276 108.542 60.4492 108.291C60.6224 108.04 60.7523 107.753 60.8389 107.43C60.93 107.102 60.9756 106.753 60.9756 106.384V106.227C60.9756 105.862 60.93 105.518 60.8389 105.194C60.7523 104.866 60.6201 104.577 60.4424 104.326C60.2692 104.071 60.0505 103.87 59.7861 103.725C59.5264 103.579 59.221 103.506 58.8701 103.506C58.5238 103.506 58.2184 103.579 57.9541 103.725C57.6943 103.87 57.4756 104.071 57.2979 104.326C57.1247 104.577 56.9948 104.866 56.9082 105.194C56.8216 105.518 56.7783 105.862 56.7783 106.227ZM65.0977 103.766V110H63.833V102.604H65.0635L65.0977 103.766ZM67.4082 102.562L67.4014 103.738C67.2965 103.715 67.1963 103.702 67.1006 103.697C67.0094 103.688 66.9046 103.684 66.7861 103.684C66.4945 103.684 66.237 103.729 66.0137 103.82C65.7904 103.911 65.6012 104.039 65.4463 104.203C65.2913 104.367 65.1683 104.563 65.0771 104.791C64.9906 105.014 64.9336 105.26 64.9062 105.529L64.5508 105.734C64.5508 105.288 64.5941 104.868 64.6807 104.477C64.7718 104.085 64.9108 103.738 65.0977 103.438C65.2845 103.132 65.5215 102.895 65.8086 102.727C66.1003 102.553 66.4466 102.467 66.8477 102.467C66.9388 102.467 67.0436 102.478 67.1621 102.501C67.2806 102.519 67.3626 102.54 67.4082 102.562ZM69.835 104.073V110H68.5635V102.604H69.7666L69.835 104.073ZM69.5752 106.021L68.9873 106.001C68.9919 105.495 69.0579 105.028 69.1855 104.6C69.3132 104.167 69.5023 103.791 69.7529 103.472C70.0036 103.153 70.3158 102.907 70.6895 102.733C71.0632 102.556 71.4961 102.467 71.9883 102.467C72.3346 102.467 72.6536 102.517 72.9453 102.617C73.237 102.713 73.4899 102.866 73.7041 103.075C73.9183 103.285 74.0846 103.554 74.2031 103.882C74.3216 104.21 74.3809 104.606 74.3809 105.071V110H73.1162V105.133C73.1162 104.745 73.0501 104.436 72.918 104.203C72.7904 103.971 72.6081 103.802 72.3711 103.697C72.1341 103.588 71.8561 103.533 71.5371 103.533C71.1634 103.533 70.8512 103.599 70.6006 103.731C70.3499 103.864 70.1494 104.046 69.999 104.278C69.8486 104.511 69.7393 104.777 69.6709 105.078C69.6071 105.374 69.5752 105.689 69.5752 106.021ZM74.3672 105.324L73.5195 105.584C73.5241 105.178 73.5902 104.789 73.7178 104.415C73.8499 104.041 74.0391 103.709 74.2852 103.417C74.5358 103.125 74.8434 102.895 75.208 102.727C75.5726 102.553 75.9896 102.467 76.459 102.467C76.8555 102.467 77.2064 102.519 77.5117 102.624C77.8216 102.729 78.0814 102.891 78.291 103.109C78.5052 103.324 78.667 103.599 78.7764 103.937C78.8857 104.274 78.9404 104.675 78.9404 105.14V110H77.6689V105.126C77.6689 104.711 77.6029 104.39 77.4707 104.162C77.3431 103.93 77.1608 103.768 76.9238 103.677C76.6914 103.581 76.4134 103.533 76.0898 103.533C75.8118 103.533 75.5658 103.581 75.3516 103.677C75.1374 103.772 74.9574 103.905 74.8115 104.073C74.6657 104.237 74.554 104.426 74.4766 104.641C74.4036 104.855 74.3672 105.083 74.3672 105.324ZM85.2158 108.735V104.928C85.2158 104.636 85.1566 104.383 85.0381 104.169C84.9242 103.95 84.751 103.782 84.5186 103.663C84.2861 103.545 83.999 103.485 83.6572 103.485C83.3382 103.485 83.0579 103.54 82.8164 103.649C82.5794 103.759 82.3926 103.902 82.2559 104.08C82.1237 104.258 82.0576 104.449 82.0576 104.654H80.793C80.793 104.39 80.8613 104.128 80.998 103.868C81.1348 103.608 81.3307 103.374 81.5859 103.164C81.8457 102.95 82.1556 102.781 82.5156 102.658C82.8802 102.531 83.2858 102.467 83.7324 102.467C84.2702 102.467 84.7441 102.558 85.1543 102.74C85.569 102.923 85.8926 103.198 86.125 103.567C86.362 103.932 86.4805 104.39 86.4805 104.941V108.387C86.4805 108.633 86.501 108.895 86.542 109.173C86.5876 109.451 86.6536 109.69 86.7402 109.891V110H85.4209C85.3571 109.854 85.307 109.66 85.2705 109.419C85.234 109.173 85.2158 108.945 85.2158 108.735ZM85.4346 105.516L85.4482 106.404H84.1699C83.8099 106.404 83.4886 106.434 83.2061 106.493C82.9235 106.548 82.6865 106.632 82.4951 106.746C82.3037 106.86 82.1579 107.004 82.0576 107.177C81.9574 107.345 81.9072 107.544 81.9072 107.771C81.9072 108.004 81.9596 108.216 82.0645 108.407C82.1693 108.599 82.3265 108.751 82.5361 108.865C82.7503 108.975 83.0124 109.029 83.3223 109.029C83.7096 109.029 84.0514 108.947 84.3477 108.783C84.6439 108.619 84.8786 108.419 85.0518 108.182C85.2295 107.945 85.3252 107.715 85.3389 107.491L85.8789 108.1C85.847 108.291 85.7604 108.503 85.6191 108.735C85.4779 108.968 85.2887 109.191 85.0518 109.405C84.8193 109.615 84.5413 109.79 84.2178 109.932C83.8988 110.068 83.5387 110.137 83.1377 110.137C82.6364 110.137 82.1966 110.039 81.8184 109.843C81.4447 109.647 81.153 109.385 80.9434 109.057C80.7383 108.724 80.6357 108.353 80.6357 107.942C80.6357 107.546 80.7132 107.197 80.8682 106.896C81.0231 106.591 81.2464 106.338 81.5381 106.138C81.8298 105.933 82.1807 105.778 82.5908 105.673C83.001 105.568 83.459 105.516 83.9648 105.516H85.4346ZM89.7344 104.183V110H88.4697V102.604H89.666L89.7344 104.183ZM89.4336 106.021L88.9072 106.001C88.9118 105.495 88.987 105.028 89.1328 104.6C89.2786 104.167 89.4837 103.791 89.748 103.472C90.0124 103.153 90.3268 102.907 90.6914 102.733C91.0605 102.556 91.4684 102.467 91.915 102.467C92.2796 102.467 92.6077 102.517 92.8994 102.617C93.1911 102.713 93.4395 102.868 93.6445 103.082C93.8542 103.296 94.0137 103.574 94.123 103.916C94.2324 104.253 94.2871 104.666 94.2871 105.153V110H93.0156V105.14C93.0156 104.752 92.9587 104.442 92.8447 104.21C92.7308 103.973 92.5645 103.802 92.3457 103.697C92.127 103.588 91.8581 103.533 91.5391 103.533C91.2246 103.533 90.9375 103.599 90.6777 103.731C90.4225 103.864 90.2015 104.046 90.0146 104.278C89.8324 104.511 89.6888 104.777 89.584 105.078C89.4837 105.374 89.4336 105.689 89.4336 106.021ZM99.168 109.098C99.4688 109.098 99.7467 109.036 100.002 108.913C100.257 108.79 100.467 108.621 100.631 108.407C100.795 108.188 100.888 107.94 100.911 107.662H102.114C102.091 108.1 101.943 108.507 101.67 108.886C101.401 109.259 101.048 109.562 100.61 109.795C100.173 110.023 99.6921 110.137 99.168 110.137C98.612 110.137 98.1266 110.039 97.7119 109.843C97.3018 109.647 96.96 109.378 96.6865 109.036C96.4176 108.694 96.2148 108.302 96.0781 107.86C95.946 107.414 95.8799 106.942 95.8799 106.445V106.158C95.8799 105.661 95.946 105.192 96.0781 104.75C96.2148 104.303 96.4176 103.909 96.6865 103.567C96.96 103.226 97.3018 102.957 97.7119 102.761C98.1266 102.565 98.612 102.467 99.168 102.467C99.7467 102.467 100.253 102.585 100.686 102.822C101.118 103.055 101.458 103.374 101.704 103.779C101.955 104.18 102.091 104.636 102.114 105.146H100.911C100.888 104.841 100.802 104.565 100.651 104.319C100.506 104.073 100.305 103.877 100.05 103.731C99.7992 103.581 99.5052 103.506 99.168 103.506C98.7806 103.506 98.4548 103.583 98.1904 103.738C97.9307 103.889 97.7233 104.094 97.5684 104.354C97.418 104.609 97.3086 104.894 97.2402 105.208C97.1764 105.518 97.1445 105.835 97.1445 106.158V106.445C97.1445 106.769 97.1764 107.088 97.2402 107.402C97.304 107.717 97.4111 108.002 97.5615 108.257C97.7165 108.512 97.9238 108.717 98.1836 108.872C98.4479 109.022 98.776 109.098 99.168 109.098ZM106.605 110.137C106.09 110.137 105.623 110.05 105.204 109.877C104.789 109.699 104.432 109.451 104.131 109.132C103.835 108.813 103.607 108.435 103.447 107.997C103.288 107.56 103.208 107.081 103.208 106.562V106.274C103.208 105.673 103.297 105.137 103.475 104.668C103.652 104.194 103.894 103.793 104.199 103.465C104.505 103.137 104.851 102.888 105.238 102.72C105.626 102.551 106.027 102.467 106.441 102.467C106.97 102.467 107.426 102.558 107.809 102.74C108.196 102.923 108.513 103.178 108.759 103.506C109.005 103.829 109.187 104.212 109.306 104.654C109.424 105.092 109.483 105.57 109.483 106.09V106.657H103.96V105.625H108.219V105.529C108.201 105.201 108.132 104.882 108.014 104.572C107.9 104.262 107.717 104.007 107.467 103.807C107.216 103.606 106.874 103.506 106.441 103.506C106.154 103.506 105.89 103.567 105.648 103.69C105.407 103.809 105.2 103.987 105.026 104.224C104.853 104.461 104.719 104.75 104.623 105.092C104.527 105.434 104.479 105.828 104.479 106.274V106.562C104.479 106.912 104.527 107.243 104.623 107.553C104.723 107.858 104.867 108.127 105.054 108.359C105.245 108.592 105.475 108.774 105.744 108.906C106.018 109.038 106.327 109.104 106.674 109.104C107.12 109.104 107.499 109.013 107.809 108.831C108.118 108.649 108.39 108.405 108.622 108.1L109.388 108.708C109.228 108.95 109.025 109.18 108.779 109.398C108.533 109.617 108.23 109.795 107.87 109.932C107.515 110.068 107.093 110.137 106.605 110.137Z" fill="#46444B"/>
<rect x="153.5" y="22" width="62" height="62" rx="31" fill="#E5FAEF"/>
<rect x="153.5" y="22" width="62" height="62" rx="31" stroke="#00CC66" stroke-width="4"/>
<path d="M169.406 62V47.375L169.957 47.9258L165.891 49.7539V46.9766L171.305 44.7266H172.172V62H169.406ZM165.621 62V59.5039H175.266V62H165.621ZM183.762 62.1875C182.566 62.1875 181.547 61.8984 180.703 61.3203C179.859 60.7344 179.215 59.8633 178.77 58.707C178.324 57.5508 178.102 56.1172 178.102 54.4062V52.4023C178.102 50.6758 178.324 49.2305 178.77 48.0664C179.215 46.9023 179.859 46.0234 180.703 45.4297C181.547 44.8359 182.566 44.5391 183.762 44.5391C184.957 44.5391 185.973 44.8359 186.809 45.4297C187.652 46.0234 188.293 46.9023 188.73 48.0664C189.176 49.2305 189.398 50.6758 189.398 52.4023V54.4062C189.398 56.1172 189.176 57.5508 188.73 58.707C188.293 59.8633 187.652 60.7344 186.809 61.3203C185.973 61.8984 184.957 62.1875 183.762 62.1875ZM183.762 59.6445C184.371 59.6445 184.887 59.4648 185.309 59.1055C185.738 58.7383 186.062 58.1992 186.281 57.4883C186.508 56.7695 186.621 55.8789 186.621 54.8164V51.9453C186.621 50.875 186.508 49.9805 186.281 49.2617C186.062 48.543 185.738 48 185.309 47.6328C184.887 47.2656 184.371 47.082 183.762 47.082C183.152 47.082 182.633 47.2656 182.203 47.6328C181.781 47.9922 181.453 48.5312 181.219 49.25C180.992 49.9688 180.879 50.8672 180.879 51.9453V54.8164C180.879 55.8711 180.992 56.7578 181.219 57.4766C181.445 58.1953 181.773 58.7383 182.203 59.1055C182.633 59.4648 183.152 59.6445 183.762 59.6445ZM180.34 57.7578L179.203 55.8359L187.207 48.9922L188.273 50.8672L180.34 57.7578ZM197.262 62.1875C196.066 62.1875 195.047 61.8984 194.203 61.3203C193.359 60.7344 192.715 59.8633 192.27 58.707C191.824 57.5508 191.602 56.1172 191.602 54.4062V52.4023C191.602 50.6758 191.824 49.2305 192.27 48.0664C192.715 46.9023 193.359 46.0234 194.203 45.4297C195.047 44.8359 196.066 44.5391 197.262 44.5391C198.457 44.5391 199.473 44.8359 200.309 45.4297C201.152 46.0234 201.793 46.9023 202.23 48.0664C202.676 49.2305 202.898 50.6758 202.898 52.4023V54.4062C202.898 56.1172 202.676 57.5508 202.23 58.707C201.793 59.8633 201.152 60.7344 200.309 61.3203C199.473 61.8984 198.457 62.1875 197.262 62.1875ZM197.262 59.6445C197.871 59.6445 198.387 59.4648 198.809 59.1055C199.238 58.7383 199.562 58.1992 199.781 57.4883C200.008 56.7695 200.121 55.8789 200.121 54.8164V51.9453C200.121 50.875 200.008 49.9805 199.781 49.2617C199.562 48.543 199.238 48 198.809 47.6328C198.387 47.2656 197.871 47.082 197.262 47.082C196.652 47.082 196.133 47.2656 195.703 47.6328C195.281 47.9922 194.953 48.5312 194.719 49.25C194.492 49.9688 194.379 50.8672 194.379 51.9453V54.8164C194.379 55.8711 194.492 56.7578 194.719 57.4766C194.945 58.1953 195.273 58.7383 195.703 59.1055C196.133 59.4648 196.652 59.6445 197.262 59.6445ZM193.84 57.7578L192.703 55.8359L200.707 48.9922L201.773 50.8672L193.84 57.7578Z" fill="#008800"/>
<path d="M150.156 100.929L146.861 110H145.515L149.309 100.047H150.177L150.156 100.929ZM152.918 110L149.616 100.929L149.596 100.047H150.464L154.271 110H152.918ZM152.747 106.315V107.396H147.155V106.315H152.747ZM158.373 109.098C158.674 109.098 158.952 109.036 159.207 108.913C159.462 108.79 159.672 108.621 159.836 108.407C160 108.188 160.093 107.94 160.116 107.662H161.319C161.297 108.1 161.148 108.507 160.875 108.886C160.606 109.259 160.253 109.562 159.815 109.795C159.378 110.023 158.897 110.137 158.373 110.137C157.817 110.137 157.332 110.039 156.917 109.843C156.507 109.647 156.165 109.378 155.892 109.036C155.623 108.694 155.42 108.302 155.283 107.86C155.151 107.414 155.085 106.942 155.085 106.445V106.158C155.085 105.661 155.151 105.192 155.283 104.75C155.42 104.303 155.623 103.909 155.892 103.567C156.165 103.226 156.507 102.957 156.917 102.761C157.332 102.565 157.817 102.467 158.373 102.467C158.952 102.467 159.458 102.585 159.891 102.822C160.324 103.055 160.663 103.374 160.909 103.779C161.16 104.18 161.297 104.636 161.319 105.146H160.116C160.093 104.841 160.007 104.565 159.856 104.319C159.711 104.073 159.51 103.877 159.255 103.731C159.004 103.581 158.71 103.506 158.373 103.506C157.986 103.506 157.66 103.583 157.396 103.738C157.136 103.889 156.928 104.094 156.773 104.354C156.623 104.609 156.514 104.894 156.445 105.208C156.382 105.518 156.35 105.835 156.35 106.158V106.445C156.35 106.769 156.382 107.088 156.445 107.402C156.509 107.717 156.616 108.002 156.767 108.257C156.922 108.512 157.129 108.717 157.389 108.872C157.653 109.022 157.981 109.098 158.373 109.098ZM165.701 109.098C166.002 109.098 166.28 109.036 166.535 108.913C166.79 108.79 167 108.621 167.164 108.407C167.328 108.188 167.422 107.94 167.444 107.662H168.647C168.625 108.1 168.477 108.507 168.203 108.886C167.934 109.259 167.581 109.562 167.144 109.795C166.706 110.023 166.225 110.137 165.701 110.137C165.145 110.137 164.66 110.039 164.245 109.843C163.835 109.647 163.493 109.378 163.22 109.036C162.951 108.694 162.748 108.302 162.611 107.86C162.479 107.414 162.413 106.942 162.413 106.445V106.158C162.413 105.661 162.479 105.192 162.611 104.75C162.748 104.303 162.951 103.909 163.22 103.567C163.493 103.226 163.835 102.957 164.245 102.761C164.66 102.565 165.145 102.467 165.701 102.467C166.28 102.467 166.786 102.585 167.219 102.822C167.652 103.055 167.991 103.374 168.237 103.779C168.488 104.18 168.625 104.636 168.647 105.146H167.444C167.422 104.841 167.335 104.565 167.185 104.319C167.039 104.073 166.838 103.877 166.583 103.731C166.332 103.581 166.038 103.506 165.701 103.506C165.314 103.506 164.988 103.583 164.724 103.738C164.464 103.889 164.257 104.094 164.102 104.354C163.951 104.609 163.842 104.894 163.773 105.208C163.71 105.518 163.678 105.835 163.678 106.158V106.445C163.678 106.769 163.71 107.088 163.773 107.402C163.837 107.717 163.944 108.002 164.095 108.257C164.25 108.512 164.457 108.717 164.717 108.872C164.981 109.022 165.309 109.098 165.701 109.098ZM173.139 110.137C172.624 110.137 172.157 110.05 171.737 109.877C171.323 109.699 170.965 109.451 170.664 109.132C170.368 108.813 170.14 108.435 169.98 107.997C169.821 107.56 169.741 107.081 169.741 106.562V106.274C169.741 105.673 169.83 105.137 170.008 104.668C170.186 104.194 170.427 103.793 170.732 103.465C171.038 103.137 171.384 102.888 171.771 102.72C172.159 102.551 172.56 102.467 172.975 102.467C173.503 102.467 173.959 102.558 174.342 102.74C174.729 102.923 175.046 103.178 175.292 103.506C175.538 103.829 175.72 104.212 175.839 104.654C175.957 105.092 176.017 105.57 176.017 106.09V106.657H170.493V105.625H174.752V105.529C174.734 105.201 174.665 104.882 174.547 104.572C174.433 104.262 174.251 104.007 174 103.807C173.749 103.606 173.408 103.506 172.975 103.506C172.688 103.506 172.423 103.567 172.182 103.69C171.94 103.809 171.733 103.987 171.56 104.224C171.386 104.461 171.252 104.75 171.156 105.092C171.061 105.434 171.013 105.828 171.013 106.274V106.562C171.013 106.912 171.061 107.243 171.156 107.553C171.257 107.858 171.4 108.127 171.587 108.359C171.778 108.592 172.008 108.774 172.277 108.906C172.551 109.038 172.861 109.104 173.207 109.104C173.654 109.104 174.032 109.013 174.342 108.831C174.652 108.649 174.923 108.405 175.155 108.1L175.921 108.708C175.761 108.95 175.559 109.18 175.312 109.398C175.066 109.617 174.763 109.795 174.403 109.932C174.048 110.068 173.626 110.137 173.139 110.137ZM181.8 108.038C181.8 107.856 181.759 107.687 181.677 107.532C181.599 107.373 181.438 107.229 181.191 107.102C180.95 106.969 180.585 106.855 180.098 106.76C179.688 106.673 179.316 106.571 178.983 106.452C178.655 106.334 178.375 106.19 178.143 106.021C177.915 105.853 177.739 105.655 177.616 105.427C177.493 105.199 177.432 104.932 177.432 104.627C177.432 104.335 177.495 104.06 177.623 103.8C177.755 103.54 177.94 103.31 178.177 103.109C178.418 102.909 178.708 102.752 179.045 102.638C179.382 102.524 179.758 102.467 180.173 102.467C180.765 102.467 181.271 102.572 181.69 102.781C182.11 102.991 182.431 103.271 182.654 103.622C182.878 103.968 182.989 104.354 182.989 104.777H181.725C181.725 104.572 181.663 104.374 181.54 104.183C181.422 103.987 181.246 103.825 181.014 103.697C180.786 103.57 180.506 103.506 180.173 103.506C179.822 103.506 179.537 103.561 179.318 103.67C179.104 103.775 178.947 103.909 178.847 104.073C178.751 104.237 178.703 104.41 178.703 104.593C178.703 104.729 178.726 104.853 178.771 104.962C178.822 105.067 178.908 105.165 179.031 105.256C179.154 105.342 179.327 105.424 179.551 105.502C179.774 105.579 180.059 105.657 180.405 105.734C181.011 105.871 181.51 106.035 181.902 106.227C182.294 106.418 182.586 106.653 182.777 106.931C182.969 107.209 183.064 107.546 183.064 107.942C183.064 108.266 182.996 108.562 182.859 108.831C182.727 109.1 182.534 109.332 182.278 109.528C182.028 109.72 181.727 109.87 181.376 109.979C181.03 110.084 180.64 110.137 180.207 110.137C179.555 110.137 179.004 110.021 178.553 109.788C178.102 109.556 177.76 109.255 177.527 108.886C177.295 108.517 177.179 108.127 177.179 107.717H178.45C178.468 108.063 178.569 108.339 178.751 108.544C178.933 108.744 179.157 108.888 179.421 108.975C179.685 109.057 179.947 109.098 180.207 109.098C180.553 109.098 180.843 109.052 181.075 108.961C181.312 108.87 181.492 108.744 181.615 108.585C181.738 108.425 181.8 108.243 181.8 108.038ZM189.032 108.038C189.032 107.856 188.991 107.687 188.909 107.532C188.832 107.373 188.67 107.229 188.424 107.102C188.182 106.969 187.818 106.855 187.33 106.76C186.92 106.673 186.549 106.571 186.216 106.452C185.888 106.334 185.607 106.19 185.375 106.021C185.147 105.853 184.972 105.655 184.849 105.427C184.726 105.199 184.664 104.932 184.664 104.627C184.664 104.335 184.728 104.06 184.855 103.8C184.988 103.54 185.172 103.31 185.409 103.109C185.651 102.909 185.94 102.752 186.277 102.638C186.615 102.524 186.991 102.467 187.405 102.467C187.998 102.467 188.504 102.572 188.923 102.781C189.342 102.991 189.663 103.271 189.887 103.622C190.11 103.968 190.222 104.354 190.222 104.777H188.957C188.957 104.572 188.896 104.374 188.772 104.183C188.654 103.987 188.479 103.825 188.246 103.697C188.018 103.57 187.738 103.506 187.405 103.506C187.054 103.506 186.77 103.561 186.551 103.67C186.337 103.775 186.179 103.909 186.079 104.073C185.983 104.237 185.936 104.41 185.936 104.593C185.936 104.729 185.958 104.853 186.004 104.962C186.054 105.067 186.141 105.165 186.264 105.256C186.387 105.342 186.56 105.424 186.783 105.502C187.007 105.579 187.291 105.657 187.638 105.734C188.244 105.871 188.743 106.035 189.135 106.227C189.527 106.418 189.818 106.653 190.01 106.931C190.201 107.209 190.297 107.546 190.297 107.942C190.297 108.266 190.229 108.562 190.092 108.831C189.96 109.1 189.766 109.332 189.511 109.528C189.26 109.72 188.959 109.87 188.608 109.979C188.262 110.084 187.872 110.137 187.439 110.137C186.788 110.137 186.236 110.021 185.785 109.788C185.334 109.556 184.992 109.255 184.76 108.886C184.527 108.517 184.411 108.127 184.411 107.717H185.683C185.701 108.063 185.801 108.339 185.983 108.544C186.166 108.744 186.389 108.888 186.653 108.975C186.918 109.057 187.18 109.098 187.439 109.098C187.786 109.098 188.075 109.052 188.308 108.961C188.545 108.87 188.725 108.744 188.848 108.585C188.971 108.425 189.032 108.243 189.032 108.038ZM193.332 102.604V110H192.061V102.604H193.332ZM191.965 100.642C191.965 100.437 192.026 100.263 192.149 100.122C192.277 99.9808 192.464 99.9102 192.71 99.9102C192.951 99.9102 193.136 99.9808 193.264 100.122C193.396 100.263 193.462 100.437 193.462 100.642C193.462 100.838 193.396 101.006 193.264 101.147C193.136 101.284 192.951 101.353 192.71 101.353C192.464 101.353 192.277 101.284 192.149 101.147C192.026 101.006 191.965 100.838 191.965 100.642ZM195.355 99.5H196.627V108.564L196.518 110H195.355V99.5ZM201.624 106.24V106.384C201.624 106.922 201.56 107.421 201.433 107.881C201.305 108.337 201.118 108.733 200.872 109.07C200.626 109.408 200.325 109.67 199.97 109.856C199.614 110.043 199.206 110.137 198.746 110.137C198.277 110.137 197.864 110.057 197.509 109.897C197.158 109.733 196.862 109.499 196.62 109.193C196.379 108.888 196.185 108.519 196.039 108.086C195.898 107.653 195.8 107.165 195.745 106.623V105.994C195.8 105.447 195.898 104.957 196.039 104.524C196.185 104.091 196.379 103.722 196.62 103.417C196.862 103.107 197.158 102.872 197.509 102.713C197.86 102.549 198.268 102.467 198.732 102.467C199.197 102.467 199.61 102.558 199.97 102.74C200.33 102.918 200.631 103.173 200.872 103.506C201.118 103.839 201.305 104.237 201.433 104.702C201.56 105.162 201.624 105.675 201.624 106.24ZM200.353 106.384V106.24C200.353 105.871 200.318 105.525 200.25 105.201C200.182 104.873 200.072 104.586 199.922 104.34C199.771 104.089 199.573 103.893 199.327 103.752C199.081 103.606 198.778 103.533 198.418 103.533C198.099 103.533 197.821 103.588 197.584 103.697C197.352 103.807 197.153 103.955 196.989 104.142C196.825 104.324 196.691 104.534 196.586 104.771C196.486 105.003 196.41 105.244 196.36 105.495V107.143C196.433 107.462 196.552 107.769 196.716 108.065C196.884 108.357 197.108 108.596 197.386 108.783C197.668 108.97 198.017 109.063 198.432 109.063C198.773 109.063 199.065 108.995 199.307 108.858C199.553 108.717 199.751 108.523 199.901 108.277C200.056 108.031 200.17 107.746 200.243 107.423C200.316 107.099 200.353 106.753 200.353 106.384ZM204.598 102.604V110H203.326V102.604H204.598ZM203.23 100.642C203.23 100.437 203.292 100.263 203.415 100.122C203.543 99.9808 203.729 99.9102 203.976 99.9102C204.217 99.9102 204.402 99.9808 204.529 100.122C204.661 100.263 204.728 100.437 204.728 100.642C204.728 100.838 204.661 101.006 204.529 101.147C204.402 101.284 204.217 101.353 203.976 101.353C203.729 101.353 203.543 101.284 203.415 101.147C203.292 101.006 203.23 100.838 203.23 100.642ZM208.002 99.5V110H206.73V99.5H208.002ZM211.406 102.604V110H210.135V102.604H211.406ZM210.039 100.642C210.039 100.437 210.101 100.263 210.224 100.122C210.351 99.9808 210.538 99.9102 210.784 99.9102C211.026 99.9102 211.21 99.9808 211.338 100.122C211.47 100.263 211.536 100.437 211.536 100.642C211.536 100.838 211.47 101.006 211.338 101.147C211.21 101.284 211.026 101.353 210.784 101.353C210.538 101.353 210.351 101.284 210.224 101.147C210.101 101.006 210.039 100.838 210.039 100.642ZM216.533 102.604V103.574H212.534V102.604H216.533ZM213.888 100.806H215.152V108.168C215.152 108.419 215.191 108.608 215.269 108.735C215.346 108.863 215.446 108.947 215.569 108.988C215.692 109.029 215.825 109.05 215.966 109.05C216.071 109.05 216.18 109.041 216.294 109.022C216.412 109 216.501 108.981 216.561 108.968L216.567 110C216.467 110.032 216.335 110.062 216.171 110.089C216.011 110.121 215.818 110.137 215.59 110.137C215.28 110.137 214.995 110.075 214.735 109.952C214.476 109.829 214.268 109.624 214.113 109.337C213.963 109.045 213.888 108.653 213.888 108.161V100.806ZM220.095 109.234L222.152 102.604H223.506L220.539 111.142C220.471 111.324 220.38 111.52 220.266 111.729C220.156 111.944 220.015 112.146 219.842 112.338C219.669 112.529 219.459 112.684 219.213 112.803C218.971 112.926 218.682 112.987 218.345 112.987C218.244 112.987 218.117 112.974 217.962 112.946C217.807 112.919 217.698 112.896 217.634 112.878L217.627 111.853C217.663 111.857 217.72 111.862 217.798 111.866C217.88 111.875 217.937 111.88 217.969 111.88C218.256 111.88 218.5 111.841 218.7 111.764C218.901 111.691 219.069 111.565 219.206 111.388C219.347 111.215 219.468 110.975 219.568 110.67L220.095 109.234ZM218.584 102.604L220.505 108.346L220.833 109.679L219.924 110.144L217.203 102.604H218.584Z" fill="#46444B"/>
<rect x="268.5" y="22" width="62" height="62" rx="31" fill="#E5FAEF"/>
<rect x="268.5" y="22" width="62" height="62" rx="31" stroke="#00CC66" stroke-width="4"/>
<path d="M284.406 62V47.375L284.957 47.9258L280.891 49.7539V46.9766L286.305 44.7266H287.172V62H284.406ZM280.621 62V59.5039H290.266V62H280.621ZM298.762 62.1875C297.566 62.1875 296.547 61.8984 295.703 61.3203C294.859 60.7344 294.215 59.8633 293.77 58.707C293.324 57.5508 293.102 56.1172 293.102 54.4062V52.4023C293.102 50.6758 293.324 49.2305 293.77 48.0664C294.215 46.9023 294.859 46.0234 295.703 45.4297C296.547 44.8359 297.566 44.5391 298.762 44.5391C299.957 44.5391 300.973 44.8359 301.809 45.4297C302.652 46.0234 303.293 46.9023 303.73 48.0664C304.176 49.2305 304.398 50.6758 304.398 52.4023V54.4062C304.398 56.1172 304.176 57.5508 303.73 58.707C303.293 59.8633 302.652 60.7344 301.809 61.3203C300.973 61.8984 299.957 62.1875 298.762 62.1875ZM298.762 59.6445C299.371 59.6445 299.887 59.4648 300.309 59.1055C300.738 58.7383 301.062 58.1992 301.281 57.4883C301.508 56.7695 301.621 55.8789 301.621 54.8164V51.9453C301.621 50.875 301.508 49.9805 301.281 49.2617C301.062 48.543 300.738 48 300.309 47.6328C299.887 47.2656 299.371 47.082 298.762 47.082C298.152 47.082 297.633 47.2656 297.203 47.6328C296.781 47.9922 296.453 48.5312 296.219 49.25C295.992 49.9688 295.879 50.8672 295.879 51.9453V54.8164C295.879 55.8711 295.992 56.7578 296.219 57.4766C296.445 58.1953 296.773 58.7383 297.203 59.1055C297.633 59.4648 298.152 59.6445 298.762 59.6445ZM295.34 57.7578L294.203 55.8359L302.207 48.9922L303.273 50.8672L295.34 57.7578ZM312.262 62.1875C311.066 62.1875 310.047 61.8984 309.203 61.3203C308.359 60.7344 307.715 59.8633 307.27 58.707C306.824 57.5508 306.602 56.1172 306.602 54.4062V52.4023C306.602 50.6758 306.824 49.2305 307.27 48.0664C307.715 46.9023 308.359 46.0234 309.203 45.4297C310.047 44.8359 311.066 44.5391 312.262 44.5391C313.457 44.5391 314.473 44.8359 315.309 45.4297C316.152 46.0234 316.793 46.9023 317.23 48.0664C317.676 49.2305 317.898 50.6758 317.898 52.4023V54.4062C317.898 56.1172 317.676 57.5508 317.23 58.707C316.793 59.8633 316.152 60.7344 315.309 61.3203C314.473 61.8984 313.457 62.1875 312.262 62.1875ZM312.262 59.6445C312.871 59.6445 313.387 59.4648 313.809 59.1055C314.238 58.7383 314.562 58.1992 314.781 57.4883C315.008 56.7695 315.121 55.8789 315.121 54.8164V51.9453C315.121 50.875 315.008 49.9805 314.781 49.2617C314.562 48.543 314.238 48 313.809 47.6328C313.387 47.2656 312.871 47.082 312.262 47.082C311.652 47.082 311.133 47.2656 310.703 47.6328C310.281 47.9922 309.953 48.5312 309.719 49.25C309.492 49.9688 309.379 50.8672 309.379 51.9453V54.8164C309.379 55.8711 309.492 56.7578 309.719 57.4766C309.945 58.1953 310.273 58.7383 310.703 59.1055C311.133 59.4648 311.652 59.6445 312.262 59.6445ZM308.84 57.7578L307.703 55.8359L315.707 48.9922L316.773 50.8672L308.84 57.7578Z" fill="#008800"/>
<path d="M259.38 105.345H256.857L256.844 104.285H259.134C259.512 104.285 259.842 104.221 260.125 104.094C260.408 103.966 260.626 103.784 260.781 103.547C260.941 103.305 261.021 103.018 261.021 102.686C261.021 102.321 260.95 102.025 260.809 101.797C260.672 101.564 260.46 101.396 260.173 101.291C259.89 101.182 259.53 101.127 259.093 101.127H257.151V110H255.832V100.047H259.093C259.603 100.047 260.059 100.099 260.46 100.204C260.861 100.304 261.201 100.464 261.479 100.683C261.761 100.897 261.975 101.17 262.121 101.503C262.267 101.836 262.34 102.234 262.34 102.699C262.34 103.109 262.235 103.481 262.025 103.813C261.816 104.142 261.524 104.41 261.15 104.62C260.781 104.83 260.348 104.964 259.852 105.023L259.38 105.345ZM259.318 110H256.338L257.083 108.927H259.318C259.738 108.927 260.093 108.854 260.385 108.708C260.681 108.562 260.907 108.357 261.062 108.093C261.216 107.824 261.294 107.507 261.294 107.143C261.294 106.773 261.228 106.454 261.096 106.186C260.964 105.917 260.756 105.709 260.474 105.563C260.191 105.418 259.826 105.345 259.38 105.345H257.5L257.514 104.285H260.084L260.364 104.668C260.843 104.709 261.248 104.846 261.581 105.078C261.914 105.306 262.167 105.598 262.34 105.953C262.518 106.309 262.606 106.701 262.606 107.129C262.606 107.749 262.47 108.273 262.196 108.701C261.927 109.125 261.547 109.449 261.055 109.672C260.562 109.891 259.984 110 259.318 110ZM267.433 110.137C266.918 110.137 266.451 110.05 266.031 109.877C265.617 109.699 265.259 109.451 264.958 109.132C264.662 108.813 264.434 108.435 264.274 107.997C264.115 107.56 264.035 107.081 264.035 106.562V106.274C264.035 105.673 264.124 105.137 264.302 104.668C264.479 104.194 264.721 103.793 265.026 103.465C265.332 103.137 265.678 102.888 266.065 102.72C266.453 102.551 266.854 102.467 267.269 102.467C267.797 102.467 268.253 102.558 268.636 102.74C269.023 102.923 269.34 103.178 269.586 103.506C269.832 103.829 270.014 104.212 270.133 104.654C270.251 105.092 270.311 105.57 270.311 106.09V106.657H264.787V105.625H269.046V105.529C269.028 105.201 268.959 104.882 268.841 104.572C268.727 104.262 268.545 104.007 268.294 103.807C268.043 103.606 267.701 103.506 267.269 103.506C266.981 103.506 266.717 103.567 266.476 103.69C266.234 103.809 266.027 103.987 265.854 104.224C265.68 104.461 265.546 104.75 265.45 105.092C265.354 105.434 265.307 105.828 265.307 106.274V106.562C265.307 106.912 265.354 107.243 265.45 107.553C265.55 107.858 265.694 108.127 265.881 108.359C266.072 108.592 266.302 108.774 266.571 108.906C266.845 109.038 267.155 109.104 267.501 109.104C267.948 109.104 268.326 109.013 268.636 108.831C268.946 108.649 269.217 108.405 269.449 108.1L270.215 108.708C270.055 108.95 269.853 109.18 269.606 109.398C269.36 109.617 269.057 109.795 268.697 109.932C268.342 110.068 267.92 110.137 267.433 110.137ZM276.094 108.038C276.094 107.856 276.053 107.687 275.971 107.532C275.893 107.373 275.731 107.229 275.485 107.102C275.244 106.969 274.879 106.855 274.392 106.76C273.981 106.673 273.61 106.571 273.277 106.452C272.949 106.334 272.669 106.19 272.437 106.021C272.209 105.853 272.033 105.655 271.91 105.427C271.787 105.199 271.726 104.932 271.726 104.627C271.726 104.335 271.789 104.06 271.917 103.8C272.049 103.54 272.234 103.31 272.471 103.109C272.712 102.909 273.002 102.752 273.339 102.638C273.676 102.524 274.052 102.467 274.467 102.467C275.059 102.467 275.565 102.572 275.984 102.781C276.404 102.991 276.725 103.271 276.948 103.622C277.172 103.968 277.283 104.354 277.283 104.777H276.019C276.019 104.572 275.957 104.374 275.834 104.183C275.715 103.987 275.54 103.825 275.308 103.697C275.08 103.57 274.799 103.506 274.467 103.506C274.116 103.506 273.831 103.561 273.612 103.67C273.398 103.775 273.241 103.909 273.141 104.073C273.045 104.237 272.997 104.41 272.997 104.593C272.997 104.729 273.02 104.853 273.065 104.962C273.116 105.067 273.202 105.165 273.325 105.256C273.448 105.342 273.621 105.424 273.845 105.502C274.068 105.579 274.353 105.657 274.699 105.734C275.305 105.871 275.804 106.035 276.196 106.227C276.588 106.418 276.88 106.653 277.071 106.931C277.263 107.209 277.358 107.546 277.358 107.942C277.358 108.266 277.29 108.562 277.153 108.831C277.021 109.1 276.827 109.332 276.572 109.528C276.322 109.72 276.021 109.87 275.67 109.979C275.324 110.084 274.934 110.137 274.501 110.137C273.849 110.137 273.298 110.021 272.847 109.788C272.396 109.556 272.054 109.255 271.821 108.886C271.589 108.517 271.473 108.127 271.473 107.717H272.744C272.762 108.063 272.863 108.339 273.045 108.544C273.227 108.744 273.451 108.888 273.715 108.975C273.979 109.057 274.241 109.098 274.501 109.098C274.847 109.098 275.137 109.052 275.369 108.961C275.606 108.87 275.786 108.744 275.909 108.585C276.032 108.425 276.094 108.243 276.094 108.038ZM282.116 102.604V103.574H278.117V102.604H282.116ZM279.471 100.806H280.735V108.168C280.735 108.419 280.774 108.608 280.852 108.735C280.929 108.863 281.029 108.947 281.152 108.988C281.275 109.029 281.408 109.05 281.549 109.05C281.654 109.05 281.763 109.041 281.877 109.022C281.995 109 282.084 108.981 282.144 108.968L282.15 110C282.05 110.032 281.918 110.062 281.754 110.089C281.594 110.121 281.401 110.137 281.173 110.137C280.863 110.137 280.578 110.075 280.318 109.952C280.059 109.829 279.851 109.624 279.696 109.337C279.546 109.045 279.471 108.653 279.471 108.161V100.806ZM290.935 106.097H288.275V105.023H290.935C291.45 105.023 291.867 104.941 292.186 104.777C292.505 104.613 292.737 104.385 292.883 104.094C293.033 103.802 293.108 103.469 293.108 103.096C293.108 102.754 293.033 102.433 292.883 102.132C292.737 101.831 292.505 101.59 292.186 101.407C291.867 101.22 291.45 101.127 290.935 101.127H288.583V110H287.264V100.047H290.935C291.687 100.047 292.322 100.177 292.842 100.437C293.361 100.696 293.756 101.056 294.024 101.517C294.293 101.972 294.428 102.494 294.428 103.082C294.428 103.72 294.293 104.265 294.024 104.716C293.756 105.167 293.361 105.511 292.842 105.748C292.322 105.98 291.687 106.097 290.935 106.097ZM297.169 103.766V110H295.904V102.604H297.135L297.169 103.766ZM299.479 102.562L299.473 103.738C299.368 103.715 299.268 103.702 299.172 103.697C299.081 103.688 298.976 103.684 298.857 103.684C298.566 103.684 298.308 103.729 298.085 103.82C297.862 103.911 297.673 104.039 297.518 104.203C297.363 104.367 297.24 104.563 297.148 104.791C297.062 105.014 297.005 105.26 296.978 105.529L296.622 105.734C296.622 105.288 296.665 104.868 296.752 104.477C296.843 104.085 296.982 103.738 297.169 103.438C297.356 103.132 297.593 102.895 297.88 102.727C298.172 102.553 298.518 102.467 298.919 102.467C299.01 102.467 299.115 102.478 299.233 102.501C299.352 102.519 299.434 102.54 299.479 102.562ZM304.736 108.735V104.928C304.736 104.636 304.677 104.383 304.559 104.169C304.445 103.95 304.271 103.782 304.039 103.663C303.807 103.545 303.52 103.485 303.178 103.485C302.859 103.485 302.578 103.54 302.337 103.649C302.1 103.759 301.913 103.902 301.776 104.08C301.644 104.258 301.578 104.449 301.578 104.654H300.313C300.313 104.39 300.382 104.128 300.519 103.868C300.655 103.608 300.851 103.374 301.106 103.164C301.366 102.95 301.676 102.781 302.036 102.658C302.401 102.531 302.806 102.467 303.253 102.467C303.791 102.467 304.265 102.558 304.675 102.74C305.09 102.923 305.413 103.198 305.646 103.567C305.882 103.932 306.001 104.39 306.001 104.941V108.387C306.001 108.633 306.021 108.895 306.062 109.173C306.108 109.451 306.174 109.69 306.261 109.891V110H304.941C304.878 109.854 304.827 109.66 304.791 109.419C304.755 109.173 304.736 108.945 304.736 108.735ZM304.955 105.516L304.969 106.404H303.69C303.33 106.404 303.009 106.434 302.727 106.493C302.444 106.548 302.207 106.632 302.016 106.746C301.824 106.86 301.678 107.004 301.578 107.177C301.478 107.345 301.428 107.544 301.428 107.771C301.428 108.004 301.48 108.216 301.585 108.407C301.69 108.599 301.847 108.751 302.057 108.865C302.271 108.975 302.533 109.029 302.843 109.029C303.23 109.029 303.572 108.947 303.868 108.783C304.164 108.619 304.399 108.419 304.572 108.182C304.75 107.945 304.846 107.715 304.859 107.491L305.399 108.1C305.368 108.291 305.281 108.503 305.14 108.735C304.998 108.968 304.809 109.191 304.572 109.405C304.34 109.615 304.062 109.79 303.738 109.932C303.419 110.068 303.059 110.137 302.658 110.137C302.157 110.137 301.717 110.039 301.339 109.843C300.965 109.647 300.674 109.385 300.464 109.057C300.259 108.724 300.156 108.353 300.156 107.942C300.156 107.546 300.234 107.197 300.389 106.896C300.544 106.591 300.767 106.338 301.059 106.138C301.35 105.933 301.701 105.778 302.111 105.673C302.521 105.568 302.979 105.516 303.485 105.516H304.955ZM310.95 109.098C311.251 109.098 311.529 109.036 311.784 108.913C312.039 108.79 312.249 108.621 312.413 108.407C312.577 108.188 312.671 107.94 312.693 107.662H313.896C313.874 108.1 313.726 108.507 313.452 108.886C313.183 109.259 312.83 109.562 312.393 109.795C311.955 110.023 311.474 110.137 310.95 110.137C310.394 110.137 309.909 110.039 309.494 109.843C309.084 109.647 308.742 109.378 308.469 109.036C308.2 108.694 307.997 108.302 307.86 107.86C307.728 107.414 307.662 106.942 307.662 106.445V106.158C307.662 105.661 307.728 105.192 307.86 104.75C307.997 104.303 308.2 103.909 308.469 103.567C308.742 103.226 309.084 102.957 309.494 102.761C309.909 102.565 310.394 102.467 310.95 102.467C311.529 102.467 312.035 102.585 312.468 102.822C312.901 103.055 313.24 103.374 313.486 103.779C313.737 104.18 313.874 104.636 313.896 105.146H312.693C312.671 104.841 312.584 104.565 312.434 104.319C312.288 104.073 312.087 103.877 311.832 103.731C311.581 103.581 311.287 103.506 310.95 103.506C310.563 103.506 310.237 103.583 309.973 103.738C309.713 103.889 309.506 104.094 309.351 104.354C309.2 104.609 309.091 104.894 309.022 105.208C308.959 105.518 308.927 105.835 308.927 106.158V106.445C308.927 106.769 308.959 107.088 309.022 107.402C309.086 107.717 309.193 108.002 309.344 108.257C309.499 108.512 309.706 108.717 309.966 108.872C310.23 109.022 310.558 109.098 310.95 109.098ZM318.415 102.604V103.574H314.416V102.604H318.415ZM315.77 100.806H317.034V108.168C317.034 108.419 317.073 108.608 317.15 108.735C317.228 108.863 317.328 108.947 317.451 108.988C317.574 109.029 317.706 109.05 317.848 109.05C317.952 109.05 318.062 109.041 318.176 109.022C318.294 109 318.383 108.981 318.442 108.968L318.449 110C318.349 110.032 318.217 110.062 318.053 110.089C317.893 110.121 317.7 110.137 317.472 110.137C317.162 110.137 316.877 110.075 316.617 109.952C316.357 109.829 316.15 109.624 315.995 109.337C315.845 109.045 315.77 108.653 315.77 108.161V100.806ZM321.272 102.604V110H320.001V102.604H321.272ZM319.905 100.642C319.905 100.437 319.967 100.263 320.09 100.122C320.217 99.9808 320.404 99.9102 320.65 99.9102C320.892 99.9102 321.076 99.9808 321.204 100.122C321.336 100.263 321.402 100.437 321.402 100.642C321.402 100.838 321.336 101.006 321.204 101.147C321.076 101.284 320.892 101.353 320.65 101.353C320.404 101.353 320.217 101.284 320.09 101.147C319.967 101.006 319.905 100.838 319.905 100.642ZM326.263 109.098C326.563 109.098 326.841 109.036 327.097 108.913C327.352 108.79 327.562 108.621 327.726 108.407C327.89 108.188 327.983 107.94 328.006 107.662H329.209C329.186 108.1 329.038 108.507 328.765 108.886C328.496 109.259 328.143 109.562 327.705 109.795C327.268 110.023 326.787 110.137 326.263 110.137C325.707 110.137 325.221 110.039 324.807 109.843C324.396 109.647 324.055 109.378 323.781 109.036C323.512 108.694 323.31 108.302 323.173 107.86C323.041 107.414 322.975 106.942 322.975 106.445V106.158C322.975 105.661 323.041 105.192 323.173 104.75C323.31 104.303 323.512 103.909 323.781 103.567C324.055 103.226 324.396 102.957 324.807 102.761C325.221 102.565 325.707 102.467 326.263 102.467C326.841 102.467 327.347 102.585 327.78 102.822C328.213 103.055 328.553 103.374 328.799 103.779C329.049 104.18 329.186 104.636 329.209 105.146H328.006C327.983 104.841 327.896 104.565 327.746 104.319C327.6 104.073 327.4 103.877 327.145 103.731C326.894 103.581 326.6 103.506 326.263 103.506C325.875 103.506 325.549 103.583 325.285 103.738C325.025 103.889 324.818 104.094 324.663 104.354C324.513 104.609 324.403 104.894 324.335 105.208C324.271 105.518 324.239 105.835 324.239 106.158V106.445C324.239 106.769 324.271 107.088 324.335 107.402C324.399 107.717 324.506 108.002 324.656 108.257C324.811 108.512 325.019 108.717 325.278 108.872C325.543 109.022 325.871 109.098 326.263 109.098ZM333.7 110.137C333.185 110.137 332.718 110.05 332.299 109.877C331.884 109.699 331.526 109.451 331.226 109.132C330.929 108.813 330.701 108.435 330.542 107.997C330.382 107.56 330.303 107.081 330.303 106.562V106.274C330.303 105.673 330.392 105.137 330.569 104.668C330.747 104.194 330.989 103.793 331.294 103.465C331.599 103.137 331.946 102.888 332.333 102.72C332.72 102.551 333.121 102.467 333.536 102.467C334.065 102.467 334.521 102.558 334.903 102.74C335.291 102.923 335.607 103.178 335.854 103.506C336.1 103.829 336.282 104.212 336.4 104.654C336.519 105.092 336.578 105.57 336.578 106.09V106.657H331.055V105.625H335.313V105.529C335.295 105.201 335.227 104.882 335.108 104.572C334.994 104.262 334.812 104.007 334.562 103.807C334.311 103.606 333.969 103.506 333.536 103.506C333.249 103.506 332.985 103.567 332.743 103.69C332.502 103.809 332.294 103.987 332.121 104.224C331.948 104.461 331.813 104.75 331.718 105.092C331.622 105.434 331.574 105.828 331.574 106.274V106.562C331.574 106.912 331.622 107.243 331.718 107.553C331.818 107.858 331.962 108.127 332.148 108.359C332.34 108.592 332.57 108.774 332.839 108.906C333.112 109.038 333.422 109.104 333.769 109.104C334.215 109.104 334.593 109.013 334.903 108.831C335.213 108.649 335.484 108.405 335.717 108.1L336.482 108.708C336.323 108.95 336.12 109.18 335.874 109.398C335.628 109.617 335.325 109.795 334.965 109.932C334.609 110.068 334.188 110.137 333.7 110.137ZM342.361 108.038C342.361 107.856 342.32 107.687 342.238 107.532C342.161 107.373 341.999 107.229 341.753 107.102C341.511 106.969 341.147 106.855 340.659 106.76C340.249 106.673 339.878 106.571 339.545 106.452C339.217 106.334 338.937 106.19 338.704 106.021C338.476 105.853 338.301 105.655 338.178 105.427C338.055 105.199 337.993 104.932 337.993 104.627C337.993 104.335 338.057 104.06 338.185 103.8C338.317 103.54 338.501 103.31 338.738 103.109C338.98 102.909 339.269 102.752 339.606 102.638C339.944 102.524 340.32 102.467 340.734 102.467C341.327 102.467 341.833 102.572 342.252 102.781C342.671 102.991 342.993 103.271 343.216 103.622C343.439 103.968 343.551 104.354 343.551 104.777H342.286C342.286 104.572 342.225 104.374 342.102 104.183C341.983 103.987 341.808 103.825 341.575 103.697C341.347 103.57 341.067 103.506 340.734 103.506C340.383 103.506 340.099 103.561 339.88 103.67C339.666 103.775 339.508 103.909 339.408 104.073C339.312 104.237 339.265 104.41 339.265 104.593C339.265 104.729 339.287 104.853 339.333 104.962C339.383 105.067 339.47 105.165 339.593 105.256C339.716 105.342 339.889 105.424 340.112 105.502C340.336 105.579 340.62 105.657 340.967 105.734C341.573 105.871 342.072 106.035 342.464 106.227C342.856 106.418 343.147 106.653 343.339 106.931C343.53 107.209 343.626 107.546 343.626 107.942C343.626 108.266 343.558 108.562 343.421 108.831C343.289 109.1 343.095 109.332 342.84 109.528C342.589 109.72 342.288 109.87 341.938 109.979C341.591 110.084 341.201 110.137 340.769 110.137C340.117 110.137 339.565 110.021 339.114 109.788C338.663 109.556 338.321 109.255 338.089 108.886C337.856 108.517 337.74 108.127 337.74 107.717H339.012C339.03 108.063 339.13 108.339 339.312 108.544C339.495 108.744 339.718 108.888 339.982 108.975C340.247 109.057 340.509 109.098 340.769 109.098C341.115 109.098 341.404 109.052 341.637 108.961C341.874 108.87 342.054 108.744 342.177 108.585C342.3 108.425 342.361 108.243 342.361 108.038Z" fill="#46444B"/>
<rect x="383.5" y="22" width="62" height="62" rx="31" fill="#E5FAEF"/>
<rect x="383.5" y="22" width="62" height="62" rx="31" stroke="#00CC66" stroke-width="4"/>
<path d="M399.406 62V47.375L399.957 47.9258L395.891 49.7539V46.9766L401.305 44.7266H402.172V62H399.406ZM395.621 62V59.5039H405.266V62H395.621ZM413.762 62.1875C412.566 62.1875 411.547 61.8984 410.703 61.3203C409.859 60.7344 409.215 59.8633 408.77 58.707C408.324 57.5508 408.102 56.1172 408.102 54.4062V52.4023C408.102 50.6758 408.324 49.2305 408.77 48.0664C409.215 46.9023 409.859 46.0234 410.703 45.4297C411.547 44.8359 412.566 44.5391 413.762 44.5391C414.957 44.5391 415.973 44.8359 416.809 45.4297C417.652 46.0234 418.293 46.9023 418.73 48.0664C419.176 49.2305 419.398 50.6758 419.398 52.4023V54.4062C419.398 56.1172 419.176 57.5508 418.73 58.707C418.293 59.8633 417.652 60.7344 416.809 61.3203C415.973 61.8984 414.957 62.1875 413.762 62.1875ZM413.762 59.6445C414.371 59.6445 414.887 59.4648 415.309 59.1055C415.738 58.7383 416.062 58.1992 416.281 57.4883C416.508 56.7695 416.621 55.8789 416.621 54.8164V51.9453C416.621 50.875 416.508 49.9805 416.281 49.2617C416.062 48.543 415.738 48 415.309 47.6328C414.887 47.2656 414.371 47.082 413.762 47.082C413.152 47.082 412.633 47.2656 412.203 47.6328C411.781 47.9922 411.453 48.5312 411.219 49.25C410.992 49.9688 410.879 50.8672 410.879 51.9453V54.8164C410.879 55.8711 410.992 56.7578 411.219 57.4766C411.445 58.1953 411.773 58.7383 412.203 59.1055C412.633 59.4648 413.152 59.6445 413.762 59.6445ZM410.34 57.7578L409.203 55.8359L417.207 48.9922L418.273 50.8672L410.34 57.7578ZM427.262 62.1875C426.066 62.1875 425.047 61.8984 424.203 61.3203C423.359 60.7344 422.715 59.8633 422.27 58.707C421.824 57.5508 421.602 56.1172 421.602 54.4062V52.4023C421.602 50.6758 421.824 49.2305 422.27 48.0664C422.715 46.9023 423.359 46.0234 424.203 45.4297C425.047 44.8359 426.066 44.5391 427.262 44.5391C428.457 44.5391 429.473 44.8359 430.309 45.4297C431.152 46.0234 431.793 46.9023 432.23 48.0664C432.676 49.2305 432.898 50.6758 432.898 52.4023V54.4062C432.898 56.1172 432.676 57.5508 432.23 58.707C431.793 59.8633 431.152 60.7344 430.309 61.3203C429.473 61.8984 428.457 62.1875 427.262 62.1875ZM427.262 59.6445C427.871 59.6445 428.387 59.4648 428.809 59.1055C429.238 58.7383 429.562 58.1992 429.781 57.4883C430.008 56.7695 430.121 55.8789 430.121 54.8164V51.9453C430.121 50.875 430.008 49.9805 429.781 49.2617C429.562 48.543 429.238 48 428.809 47.6328C428.387 47.2656 427.871 47.082 427.262 47.082C426.652 47.082 426.133 47.2656 425.703 47.6328C425.281 47.9922 424.953 48.5312 424.719 49.25C424.492 49.9688 424.379 50.8672 424.379 51.9453V54.8164C424.379 55.8711 424.492 56.7578 424.719 57.4766C424.945 58.1953 425.273 58.7383 425.703 59.1055C426.133 59.4648 426.652 59.6445 427.262 59.6445ZM423.84 57.7578L422.703 55.8359L430.707 48.9922L431.773 50.8672L423.84 57.7578Z" fill="#008800"/>
<path d="M408.006 107.484C408.006 107.252 407.969 107.047 407.896 106.869C407.828 106.687 407.705 106.523 407.527 106.377C407.354 106.231 407.113 106.092 406.803 105.96C406.497 105.828 406.11 105.693 405.641 105.557C405.148 105.411 404.704 105.249 404.308 105.071C403.911 104.889 403.572 104.682 403.289 104.449C403.007 104.217 402.79 103.95 402.64 103.649C402.489 103.349 402.414 103.005 402.414 102.617C402.414 102.23 402.494 101.872 402.653 101.544C402.813 101.216 403.041 100.931 403.337 100.689C403.638 100.443 403.995 100.252 404.41 100.115C404.825 99.9785 405.287 99.9102 405.798 99.9102C406.545 99.9102 407.179 100.054 407.698 100.341C408.222 100.623 408.621 100.995 408.895 101.455C409.168 101.911 409.305 102.398 409.305 102.918H407.992C407.992 102.544 407.912 102.214 407.753 101.927C407.593 101.635 407.352 101.407 407.028 101.243C406.705 101.075 406.295 100.99 405.798 100.99C405.328 100.99 404.941 101.061 404.636 101.202C404.33 101.343 404.103 101.535 403.952 101.776C403.806 102.018 403.733 102.294 403.733 102.604C403.733 102.813 403.777 103.005 403.863 103.178C403.954 103.346 404.093 103.504 404.28 103.649C404.472 103.795 404.713 103.93 405.005 104.053C405.301 104.176 405.654 104.294 406.064 104.408C406.63 104.568 407.117 104.745 407.527 104.941C407.938 105.137 408.275 105.358 408.539 105.604C408.808 105.846 409.006 106.122 409.134 106.432C409.266 106.737 409.332 107.083 409.332 107.471C409.332 107.876 409.25 108.243 409.086 108.571C408.922 108.899 408.687 109.18 408.382 109.412C408.076 109.645 407.71 109.825 407.281 109.952C406.857 110.075 406.383 110.137 405.859 110.137C405.399 110.137 404.946 110.073 404.499 109.945C404.057 109.818 403.654 109.626 403.289 109.371C402.929 109.116 402.64 108.801 402.421 108.428C402.207 108.049 402.1 107.612 402.1 107.115H403.412C403.412 107.457 403.478 107.751 403.61 107.997C403.743 108.239 403.923 108.439 404.15 108.599C404.383 108.758 404.645 108.877 404.937 108.954C405.233 109.027 405.54 109.063 405.859 109.063C406.32 109.063 406.709 109 407.028 108.872C407.347 108.744 407.589 108.562 407.753 108.325C407.922 108.088 408.006 107.808 408.006 107.484ZM417.337 108.927V110H412.066V108.927H417.337ZM412.333 100.047V110H411.014V100.047H412.333ZM416.64 104.326V105.399H412.066V104.326H416.64ZM417.269 100.047V101.127H412.066V100.047H417.269ZM426.634 104.709V105.338C426.634 106.085 426.54 106.755 426.354 107.348C426.167 107.94 425.898 108.444 425.547 108.858C425.196 109.273 424.774 109.59 424.282 109.809C423.795 110.027 423.248 110.137 422.642 110.137C422.054 110.137 421.514 110.027 421.021 109.809C420.534 109.59 420.11 109.273 419.75 108.858C419.395 108.444 419.119 107.94 418.923 107.348C418.727 106.755 418.629 106.085 418.629 105.338V104.709C418.629 103.962 418.725 103.294 418.916 102.706C419.112 102.114 419.388 101.61 419.743 101.195C420.099 100.776 420.52 100.457 421.008 100.238C421.5 100.02 422.04 99.9102 422.628 99.9102C423.234 99.9102 423.781 100.02 424.269 100.238C424.761 100.457 425.182 100.776 425.533 101.195C425.889 101.61 426.16 102.114 426.347 102.706C426.538 103.294 426.634 103.962 426.634 104.709ZM425.328 105.338V104.695C425.328 104.103 425.267 103.579 425.144 103.123C425.025 102.667 424.85 102.285 424.617 101.975C424.385 101.665 424.1 101.43 423.763 101.271C423.43 101.111 423.052 101.031 422.628 101.031C422.218 101.031 421.846 101.111 421.514 101.271C421.186 101.43 420.903 101.665 420.666 101.975C420.434 102.285 420.254 102.667 420.126 103.123C419.998 103.579 419.935 104.103 419.935 104.695V105.338C419.935 105.935 419.998 106.464 420.126 106.924C420.254 107.38 420.436 107.765 420.673 108.079C420.914 108.389 421.199 108.624 421.527 108.783C421.86 108.943 422.231 109.022 422.642 109.022C423.07 109.022 423.451 108.943 423.783 108.783C424.116 108.624 424.396 108.389 424.624 108.079C424.856 107.765 425.032 107.38 425.15 106.924C425.269 106.464 425.328 105.935 425.328 105.338Z" fill="#46444B"/>
</svg>
