<svg width="260" height="261" viewBox="0 0 260 261" fill="none" xmlns="http://www.w3.org/2000/svg">
<rect x="-0.865972" width="71.1732" height="71.1732" rx="4.5" transform="matrix(-0.865972 0.500092 -0.865972 -0.500092 164.384 220.527)" stroke="#3D0F9A" stroke-dasharray="2 2"/>
<path d="M112.093 24.056L95.2355 14.4551C95.2355 14.4551 95.2355 14.4551 95.2254 14.4551L73.79 35.4155C65.0885 43.9249 58.2466 55.7594 55.1945 67.5534C52.9913 76.0527 47.0792 84.2994 40.4495 88.1297L33.4357 92.1823C25.2699 96.9019 17.9832 107.049 15.2546 117.509L12.4248 128.353C12.4248 128.353 12.4248 128.353 12.4248 128.363L29.282 137.964C29.282 137.964 29.282 137.964 29.2922 137.964L66.938 99.6812L73.3049 93.2031L95.2153 80.55V70.9289L104.796 61.1864L112.073 24.0863C112.073 24.0863 112.073 24.0863 112.073 24.0762L112.093 24.056Z" fill="white"/>
<path d="M33.6175 92.2021C25.4516 96.9217 18.165 107.068 15.4363 117.528L14.9209 119.499L36.0329 131.313L50.9396 116.154L57.0135 104.795L34.6988 91.5654L33.6175 92.192V92.2021Z" fill="white"/>
<path d="M35.5677 98.4482C27.4018 103.168 20.1152 113.315 17.3865 123.775L16.8711 125.745L32.5762 134.538L52.8999 122.4L58.9738 111.041L36.6592 97.8115L35.5778 98.4381L35.5677 98.4482Z" fill="white"/>
<path d="M111.981 24.0564C111.981 24.0564 111.981 24.0564 111.981 24.0463L95.1239 14.4453C95.1239 14.4453 95.1239 14.4453 95.1138 14.4453L73.6784 35.4057C64.977 43.9152 58.135 55.7496 55.0829 67.5436C55.0021 67.8569 54.901 68.1702 54.8101 68.4835L71.546 78.0238C71.546 78.0238 71.546 78.0238 71.5561 78.0238L108.828 40.1253L111.981 24.0564Z" fill="white"/>
<path d="M110.425 30.6251L95.9327 22.7422L74.4974 43.7127C65.7959 52.2222 59.5603 62.3183 56.5082 74.1123C56.5082 74.1123 56.3263 74.7389 56.2354 75.0522L72.9814 84.5925L72.3852 86.3207L109.657 48.4222L110.435 30.6251H110.425Z" fill="white"/>
<path d="M29.3322 138.469L29.0594 138.277L12 128.544L12.0606 128.261L14.8904 117.417C17.6393 106.887 25.0169 96.6086 33.2535 91.8586L40.2672 87.8161C46.806 84.0364 52.6676 75.8604 54.8404 67.4722C57.9228 55.5468 64.7446 43.773 73.537 35.1625L95.1543 14L95.407 14.1213L112.527 23.8637L112.456 24.1669L105.16 61.3579L105.079 61.4388L95.599 71.0801V80.7822L95.3868 80.8933L73.6785 93.4251V93.5868H73.4562L29.3221 138.469H29.3322ZM12.8691 128.181L29.2312 137.509L72.9408 93.0613V93.0006L73.2136 92.8389L94.8612 80.3476L94.9118 70.7365L94.9825 70.6658L104.482 61.0042L111.688 24.2781L95.2958 14.9197L74.0625 35.688C65.3611 44.1975 58.6202 55.85 55.5681 67.644C53.3447 76.2141 47.3517 84.5821 40.6512 88.4528L33.6375 92.4953C25.5626 97.1543 18.3265 107.24 15.6281 117.599L12.8691 128.17V128.181Z" fill="#3D0F9A" stroke="#3D0F9A" stroke-width="0.2"/>
<path d="M29.3118 137.964C29.3118 137.964 29.2916 137.964 29.3017 137.954L32.1213 127.12C34.85 116.65 42.1366 106.503 50.3025 101.793L57.3162 97.7407C63.9459 93.9104 69.8581 85.6637 72.0612 77.1644C75.1133 65.3703 81.9654 53.5359 90.6568 45.0264L112.072 24.0762H112.092V90.1509L29.3118 137.964Z" fill="#3D0F9A"/>
<path d="M29.3019 138.408L28.8774 138.104L28.9381 137.852L31.7678 127.018C34.5167 116.487 41.8943 106.209 50.1309 101.459L57.1446 97.4066C63.6834 93.6268 69.545 85.4509 71.7179 77.0627C74.8104 65.1373 81.622 53.3635 90.4145 44.7529L112.012 23.6309L112.487 23.8229V24.0856V90.3928L112.274 90.504L29.3019 138.408ZM111.729 24.9548L90.9299 45.2987C82.2284 53.8081 75.4875 65.4607 72.4354 77.2547C70.212 85.8248 64.219 94.1928 57.5186 98.0635L50.5048 102.116C42.4299 106.775 35.1939 116.861 32.4955 127.22L29.8881 137.205L111.729 89.9582V24.9548Z" fill="#3D0F9A"/>
<path d="M123 116L117 113" stroke="#3D0F9A" stroke-linejoin="round"/>
<path d="M112.204 82.1971L122.866 88.388L133.595 82.1971L122.933 76L112.204 82.1971Z" fill="white" stroke="#3D0F9A"/>
<path d="M97.126 118.247L107.17 124.089L107.014 81.9893L96.9697 76.1533L97.126 118.247Z" fill="white" stroke="#3D0F9A" stroke-width="0.609947"/>
<path d="M107.477 124.809C107.507 124.809 107.544 124.803 107.574 124.785C107.635 124.748 107.672 124.687 107.672 124.614L107.513 81.8138C107.513 81.7467 107.477 81.6796 107.416 81.6491L96.7599 75.4581C96.6989 75.4215 96.6257 75.4215 96.5647 75.4581C96.5037 75.4947 96.4671 75.5557 96.4671 75.6289L96.6257 118.429C96.6257 118.496 96.6623 118.563 96.7233 118.594L107.379 124.785C107.379 124.785 107.44 124.809 107.477 124.809ZM107.129 81.9236L107.282 124.278L97.01 118.313L96.8575 75.9583L107.129 81.9297V81.9236Z" fill="white" stroke="#3D0F9A" stroke-width="0.8"/>
<path d="M107.318 81.8136L107.5 125L118.206 118.423V75.5156L107.318 81.8136Z" fill="#3D0F9A" stroke="#3D0F9A" stroke-width="0.4" stroke-linejoin="round"/>
<path d="M96.6624 75.6226L107.318 81.8136L118 75.5L107.391 69.4316L96.6624 75.6226Z" fill="white" stroke="#3D0F9A" stroke-linejoin="round"/>
<path d="M107.318 82.0092C107.349 82.0092 107.385 82.0031 107.416 81.9848L118.145 75.7939C118.206 75.7573 118.242 75.6963 118.242 75.6292C118.242 75.5621 118.206 75.495 118.145 75.4645L107.489 69.2735C107.428 69.2369 107.355 69.2369 107.294 69.2735L96.5647 75.4645C96.5037 75.5011 96.4671 75.5621 96.4671 75.6292C96.4671 75.6963 96.5037 75.7634 96.5647 75.7939L107.22 81.9848C107.22 81.9848 107.281 82.0092 107.318 82.0092ZM117.663 75.6231L107.324 81.5945L97.0526 75.6231L107.397 69.6517L117.669 75.6231H117.663Z" fill="#3D0F9A"/>
<path d="M80.5294 72.7744L80.6819 127.859L91.3438 134.05L91.1852 78.9654L80.5294 72.7744Z" fill="white" stroke="#3D0F9A" stroke-linejoin="round"/>
<path d="M91.3439 134.245C91.3744 134.245 91.411 134.239 91.4415 134.22C91.5025 134.184 91.5391 134.123 91.5391 134.05L91.3805 78.9654C91.3805 78.8983 91.3439 78.8312 91.2829 78.8007L80.6271 72.6036C80.5661 72.567 80.4929 72.567 80.4319 72.6036C80.3709 72.6402 80.3343 72.7012 80.3343 72.7744L80.4929 127.859C80.4929 127.926 80.5295 127.993 80.5905 128.023L91.2463 134.214C91.2463 134.214 91.3073 134.239 91.3439 134.239V134.245ZM90.9962 79.0813L91.1487 133.714L80.8772 127.743L80.7247 73.1099L90.9962 79.0813Z" fill="#3D0F9A"/>
<path d="M91 79.1632L91.5 134L102 127.837L101.84 73L91 79.1632Z" fill="#FF5A00" stroke="#3D0F9A" stroke-width="0.9" stroke-linejoin="round"/>
<path d="M91.3439 134.245C91.3744 134.245 91.411 134.239 91.4415 134.22L102.17 128.029C102.231 127.993 102.268 127.932 102.268 127.858L102.109 72.7742C102.109 72.7071 102.073 72.64 102.012 72.6095C101.951 72.5729 101.878 72.5729 101.817 72.6095L91.0877 78.8004C91.0267 78.837 90.9901 78.898 90.9901 78.9712L91.1487 134.056C91.1487 134.123 91.1853 134.19 91.2463 134.22C91.2768 134.239 91.3073 134.245 91.3439 134.245ZM101.878 127.749L91.5391 133.72L91.3866 79.081L101.725 73.1096L101.878 127.749Z" fill="#3D0F9A"/>
<path d="M80 73.003L90.9624 79L102 73.003L91.0376 67L80 73.003Z" fill="white" stroke="#3D0F9A" stroke-linejoin="round"/>
<path d="M91.1852 79.1606C91.2157 79.1606 91.2523 79.1545 91.2828 79.1362L102.012 72.9452C102.073 72.9086 102.109 72.8477 102.109 72.7806C102.109 72.7135 102.073 72.6464 102.012 72.6159L91.356 66.4249C91.295 66.3883 91.2218 66.3883 91.1608 66.4249L80.4319 72.6159C80.3709 72.6525 80.3343 72.7135 80.3343 72.7806C80.3343 72.8477 80.3709 72.9147 80.4319 72.9452L91.0876 79.1423C91.0876 79.1423 91.1486 79.1667 91.1852 79.1667V79.1606ZM101.524 72.7745L91.1852 78.7458L80.9137 72.7745L91.2523 66.8031L101.524 72.7745Z" fill="#3D0F9A"/>
<path d="M123 88.5V116L130 112.5" stroke="#3D0F9A" stroke-linejoin="round"/>
<path d="M214.091 182.24C214.091 182.477 214.091 182.714 214.032 182.98C213.972 183.454 213.765 183.898 213.469 184.312C213.321 184.52 213.143 184.668 212.936 184.786C211.634 185.526 210.331 186.296 209.058 187.036C209.443 186.77 209.769 186.385 209.946 185.941C210.124 185.497 210.183 184.993 210.183 184.52V53.4894C210.183 52.8085 210.065 52.1572 209.857 51.5059C209.443 50.1737 208.762 49.0191 207.844 47.9829C207.371 47.45 206.867 47.0356 206.275 46.7099L210.183 44.46C210.775 44.7856 211.278 45.2297 211.752 45.733C212.67 46.7691 213.351 47.9237 213.765 49.2559C213.972 49.9072 214.091 50.5881 214.091 51.2394V182.27V182.24Z" fill="white"/>
<path d="M207.844 47.9828C208.762 49.019 209.443 50.1735 209.857 51.5058C210.064 52.1571 210.183 52.8084 210.183 53.4893V184.549C210.183 185.023 210.123 185.526 209.946 185.97C209.768 186.414 209.443 186.799 209.058 187.065C208.91 187.125 208.791 187.213 208.643 187.243C207.903 187.45 206.956 187.154 206.275 186.769L131.967 143.843C131.375 143.517 130.872 143.103 130.398 142.57C129.48 141.534 128.799 140.379 128.385 139.047C128.178 138.395 128.059 137.744 128.059 137.063V6.03301C128.059 5.55934 128.119 5.05606 128.296 4.61199C128.474 4.16792 128.77 3.75345 129.184 3.48701L129.362 3.3982C129.421 3.36859 129.48 3.30938 129.569 3.30938C130.309 3.10215 131.257 3.3982 131.938 3.78306L206.275 46.7098C206.867 47.0355 207.37 47.4499 207.844 47.9828Z" fill="#3D0F9A"/>
<path d="M200.12 57.9574C200.858 58.7902 201.405 59.7181 201.738 60.7887C201.905 61.3122 202 61.8356 202 62.3828V167.712C202 168.092 201.952 168.497 201.81 168.854C201.667 169.21 201.405 169.52 201.096 169.734C200.977 169.781 200.882 169.853 200.763 169.877C200.168 170.043 199.407 169.805 198.859 169.496L139.141 134.997C138.665 134.735 138.26 134.402 137.88 133.974C137.142 133.141 136.595 132.213 136.262 131.143C136.095 130.619 136 130.096 136 129.549V24.2437C136 23.863 136.048 23.4585 136.19 23.1017C136.333 22.7448 136.571 22.4117 136.904 22.1975L137.047 22.1262C137.094 22.1024 137.142 22.0548 137.213 22.0548C137.808 21.8882 138.57 22.1262 139.117 22.4355L198.859 56.9344C199.335 57.1961 199.74 57.5292 200.12 57.9574Z" fill="white"/>
<path d="M210.183 44.4594L206.275 46.7093L131.938 3.78258C131.257 3.39772 130.309 3.10167 129.569 3.30891C129.48 3.30891 129.421 3.36811 129.362 3.39772C130.605 2.68721 131.849 1.94709 133.092 1.23658C133.299 1.11816 133.536 1.02935 133.773 0.999743C134.276 0.940533 134.75 0.999743 135.224 1.17737C135.431 1.26618 135.668 1.3846 135.875 1.50302L210.183 44.4594Z" fill="white"/>
<path d="M196.15 143.428V139.905L196.92 139.461V142.984L196.15 143.428Z" fill="#3D0F9A"/>
<path d="M196.15 139.905L175.427 127.945L176.197 127.501L196.92 139.461L196.15 139.905Z" fill="white"/>
<path d="M196.15 139.905V143.428L175.427 131.467V127.944L196.15 139.905Z" fill="white"/>
<path d="M194.048 75.6631V114.534L191.887 115.777V76.9361L194.048 75.6631Z" fill="#3D0F9A" stroke="#3D0F9A" stroke-linejoin="round"/>
<path d="M194.048 75.663L191.887 76.936L141.796 48.0123L143.986 46.7393L194.048 75.663Z" fill="#3D0F9A" stroke="#3D0F9A" stroke-linejoin="round"/>
<path d="M141.796 48.0117V86.853L191.887 115.777V76.9355L141.796 48.0117ZM166.072 99.0797V91.5898L164.503 90.672V98.162L143.365 85.9353V65.3304L145.556 66.6034L151.506 69.9412V68.2317L143.365 63.5246V50.7057L145.556 51.9787L164.533 62.9325V75.7513L156.5 70.9998V72.9998L164.533 77.5572V85.0471L166.102 85.9353V63.8206L168.292 65.0936L190.348 77.8236V113.053L166.102 99.0501L166.072 99.0797Z" fill="white" stroke="#3D0F9A" stroke-width="0.5" stroke-linejoin="round"/>
<path d="M190.318 110.537V113.083L166 99.0001L168.262 97.8369L190.318 110.537Z" fill="#3D0F9A"/>
<path d="M166.071 63.8506L168.262 65.094V84.6923L166.071 85.9653V63.8506Z" fill="#3D0F9A" stroke="#3D0F9A" stroke-width="0.5" stroke-linejoin="round"/>
<path d="M168.262 90.3467V97.8367L166.071 99.0801V91.5901L168.262 90.3467Z" fill="#3D0F9A" stroke="#3D0F9A" stroke-width="0.2" stroke-linejoin="round"/>
<path d="M168.262 90.3465L166.5 91.4999L164.5 90.4999L166.693 89.4287L168.262 90.3465Z" fill="#3D0F9A" stroke="#3D0F9A" stroke-width="0.2" stroke-linejoin="round"/>
<path d="M164.503 95.6458V98.1918L143.365 85.9651L145.556 84.7217L164.503 95.6458Z" fill="#3D0F9A"/>
<path d="M164.503 73.2357V75.752L156.5 71L158.5 70L164.503 73.2357Z" fill="#3D0F9A" stroke="#3D0F9A" stroke-width="0.5" stroke-linejoin="round"/>
<path d="M153.667 67.1406V68.9531L151.5 70L151.477 68.2324L153.667 67.1406Z" fill="#3D0F9A" stroke="#3D0F9A" stroke-width="0.3" stroke-linejoin="round"/>
<path d="M153.667 66.9884L151.477 68.2318L143.365 63.5542L145.556 62.2812L153.667 66.9884Z" fill="#3D0F9A"/>
<path d="M143.365 50.7363L145.556 51.9797V62.2821L143.365 63.5551V50.7363Z" fill="#3D0F9A"/>
<path d="M145.556 66.6037V84.7218L143.365 85.9652V65.3604L145.556 66.6037Z" fill="#3D0F9A"/>
<rect width="75.6205" height="4.62983" rx="2.31491" transform="matrix(0.866084 0.499899 -0.000116937 1 141.455 102.815)" fill="#3D0F9A"/>
<rect width="75.6205" height="4.62983" rx="2.31491" transform="matrix(0.866084 0.499899 -0.000116937 1 141.455 94.9092)" fill="#3D0F9A"/>
<rect width="75.6205" height="4.62983" rx="2.31491" transform="matrix(0.866084 0.499899 -0.000116964 1 141.454 110.532)" fill="#3D0F9A"/>
<rect width="75.6205" height="4.62983" rx="2.31491" transform="matrix(0.866084 0.499899 -0.000116964 1 141.453 118.248)" fill="#3D0F9A"/>
<rect width="46.8127" height="4.62983" rx="2.31491" transform="matrix(0.866084 0.499899 -0.000116964 1 141.452 125.965)" fill="#3D0F9A"/>
<path fill-rule="evenodd" clip-rule="evenodd" d="M2.63477 171.318V177.78C2.74967 179.159 3.4905 179.824 4.60628 180.538L88.6134 229.04C90.2493 229.892 91.5586 230.128 93.391 230.18C95.2204 230.128 96.5328 229.892 98.1687 229.04L108.404 223.128L114.497 219.611L145.059 201.965L150.378 198.892L161.387 192.536C162.503 191.823 163.25 191.158 163.362 189.779V183.317C163.25 184.696 162.503 185.364 161.387 186.074L150.378 192.431L145.059 195.5L114.497 213.147L108.404 216.663L98.1687 222.572C96.5328 223.424 95.2204 223.66 93.391 223.712C91.5586 223.66 90.2493 223.427 88.6134 222.572L4.60628 174.076C3.4905 173.362 2.74665 172.697 2.63477 171.318Z" fill="#3D0F9A"/>
<path fill-rule="evenodd" clip-rule="evenodd" d="M3.27009 173.883V177.756C3.31847 178.294 3.48478 178.69 3.7418 179.014C4.02604 179.371 4.43123 179.673 4.92411 179.991L88.9071 228.477C89.6782 228.879 90.3676 229.133 91.0691 229.294C91.7827 229.454 92.5236 229.524 93.3944 229.548C94.2592 229.524 95.0031 229.457 95.7167 229.294C96.4182 229.136 97.0986 228.886 97.8545 228.492L108.09 222.581L108.126 222.563L114.186 219.064L144.748 201.417L144.784 201.399L150.069 198.348L161.088 191.986C161.578 191.672 161.98 191.372 162.264 191.015C162.521 190.689 162.688 190.296 162.736 189.758V185.881C162.443 186.138 162.107 186.374 161.735 186.61L161.711 186.625L150.701 192.984L150.665 193.002L145.38 196.053L114.818 213.7L114.782 213.718L108.722 217.217L98.4865 223.128C98.4653 223.14 98.4472 223.149 98.426 223.158C97.5703 223.603 96.7932 223.887 95.9919 224.069C95.1875 224.25 94.362 224.326 93.4065 224.353H93.3732C92.4177 224.326 91.5953 224.25 90.7909 224.069C89.9715 223.884 89.1853 223.594 88.3205 223.143C88.2993 223.134 88.2812 223.122 88.263 223.11L4.28911 174.623C4.26794 174.611 4.2498 174.599 4.23166 174.587C3.87485 174.357 3.5513 174.131 3.26707 173.883H3.27009ZM2.00009 177.78V171.321C2.00009 170.995 2.25107 170.717 2.58369 170.689C2.93142 170.662 3.23985 170.919 3.26707 171.27C3.31242 171.823 3.47873 172.226 3.7418 172.558C4.02302 172.915 4.4282 173.214 4.91806 173.529C31.9659 188.808 61.699 208.414 88.9101 222.021C89.6812 222.424 90.3706 222.678 91.0721 222.838C91.7858 222.998 92.5266 223.068 93.3974 223.092C94.2622 223.068 95.0061 223.001 95.7197 222.838C96.4182 222.681 97.0986 222.43 97.8485 222.04L108.09 216.125L114.15 212.627L114.183 212.605L144.745 194.958L150.03 191.907L150.063 191.886L161.073 185.53C161.566 185.216 161.974 184.913 162.258 184.554C162.518 184.227 162.685 183.831 162.73 183.29C162.745 182.951 163.023 182.682 163.365 182.682C163.707 182.682 164 182.966 164 183.317V189.827C163.931 190.656 163.668 191.275 163.25 191.802C162.866 192.285 162.364 192.663 161.766 193.047C161.747 193.06 161.729 193.072 161.711 193.084L150.701 199.44L145.416 202.491L145.383 202.512L114.821 220.159L108.761 223.657L108.728 223.679L98.4925 229.587L98.4683 229.599C97.5975 230.053 96.8113 230.343 95.9979 230.527C95.1966 230.709 94.3741 230.784 93.4216 230.812H93.3793C92.4238 230.784 91.6013 230.712 90.797 230.527C89.9775 230.343 89.1913 230.053 88.3265 229.602L88.3023 229.587L4.28911 181.085L4.26492 181.07C3.65109 180.677 3.13704 180.296 2.74697 179.803C2.33574 179.283 2.07267 178.672 2.00312 177.859C2.00009 177.835 1.99707 177.808 1.99707 177.78H2.00009Z" fill="#3D0F9A"/>
<path fill-rule="evenodd" clip-rule="evenodd" d="M98.1718 222.578L161.393 186.078C164.024 184.56 164.024 182.08 161.393 180.562L77.3832 132.057C74.7525 130.539 70.4587 130.539 67.828 132.057L57.5924 137.966L51.4995 141.483L20.9379 159.129L15.6191 162.199L4.60942 168.555C1.97569 170.076 1.97871 172.552 4.60942 174.073L88.6166 222.575C91.2473 224.093 95.538 224.096 98.1718 222.575V222.578Z" fill="white"/>
<path fill-rule="evenodd" clip-rule="evenodd" d="M97.8544 222.03L161.076 185.53L161.109 185.512C161.753 185.134 162.207 184.698 162.47 184.245C162.645 183.942 162.73 183.628 162.73 183.317C162.73 183.005 162.642 182.694 162.47 182.391L162.452 182.358C162.183 181.907 161.726 181.478 161.076 181.103L77.0658 132.607C75.8502 131.906 74.2325 131.555 72.6057 131.555C70.9789 131.555 69.3612 131.906 68.1456 132.607L51.8171 142.036L51.7808 142.054L15.9337 162.749L4.92401 169.108C4.25878 169.492 3.79614 169.933 3.53004 170.396C3.35466 170.701 3.26697 171.013 3.26697 171.321C3.26697 171.63 3.35466 171.941 3.53004 172.246C3.79614 172.709 4.2618 173.151 4.92401 173.532L88.9312 222.033L88.9614 222.051C90.177 222.741 91.7796 223.089 93.3913 223.089C95.0181 223.089 96.6358 222.735 97.8514 222.033L97.8544 222.03ZM161.711 186.625L98.4894 223.125C97.0712 223.941 95.2298 224.349 93.3973 224.349C91.577 224.349 89.7476 223.947 88.3415 223.143L88.3022 223.122L4.28902 174.623C3.42421 174.124 2.80735 173.522 2.4324 172.875C2.14514 172.376 2 171.85 2 171.318C2 170.786 2.14514 170.26 2.4324 169.758C2.80735 169.111 3.42723 168.509 4.28902 168.01L15.2987 161.654C27.2306 154.727 39.1988 147.856 51.1458 140.959L51.1791 140.938L67.5076 131.51C68.9227 130.693 70.7672 130.285 72.6027 130.285C74.4381 130.285 76.2826 130.693 77.6978 131.51L161.705 180.012C162.549 180.501 163.159 181.088 163.537 181.72L163.562 181.756C163.852 182.258 163.997 182.787 163.997 183.317C163.997 183.846 163.852 184.372 163.562 184.874C163.193 185.515 162.585 186.107 161.741 186.6L161.708 186.622L161.711 186.625Z" fill="#3D0F9A"/>
<path fill-rule="evenodd" clip-rule="evenodd" d="M73.1167 138.144L153.102 184.323L95.5715 217.54L15.5859 171.357C34.7629 160.284 53.9398 149.214 73.1167 138.141V138.144Z" fill="white"/>
<path fill-rule="evenodd" clip-rule="evenodd" d="M73.4405 137.6L153.417 183.774C153.719 183.946 153.822 184.333 153.65 184.635C153.592 184.738 153.508 184.817 153.411 184.871L95.8862 218.082C95.6806 218.199 95.4387 218.19 95.2482 218.075L15.2717 171.908C14.9694 171.736 14.8635 171.349 15.0389 171.046C15.0994 170.944 15.181 170.865 15.2778 170.81L72.8025 137.597C73.0081 137.479 73.25 137.488 73.4405 137.603V137.6ZM151.839 184.321L73.117 138.873L16.8502 171.358L95.5717 216.809L151.839 184.324V184.321Z" fill="#3D0F9A"/>
<path fill-rule="evenodd" clip-rule="evenodd" d="M36.317 159.389L22.7886 151.579L50.1691 135.771L63.7006 143.581L36.3201 159.389H36.317ZM57.91 143.844C54.9557 142.139 52.6667 140.817 49.7125 139.112C42.667 143.179 35.6216 147.249 28.5761 151.316C31.5304 153.021 33.8194 154.343 36.7736 156.048C43.8191 151.981 50.8645 147.911 57.91 143.844Z" fill="white"/>
<path fill-rule="evenodd" clip-rule="evenodd" d="M35.9636 159.915L22.4714 152.126C22.1691 151.953 22.0632 151.566 22.2386 151.264C22.2991 151.161 22.3807 151.083 22.4775 151.028L49.8519 135.223C50.0545 135.105 50.2934 135.114 50.4839 135.223L64.0154 143.033C64.3178 143.209 64.4206 143.596 64.2452 143.898C64.1847 144.001 64.1031 144.079 64.0063 144.134L36.6319 159.939C36.4172 160.063 36.1572 160.048 35.9636 159.918V159.915ZM24.0499 151.579L36.3144 158.66L62.4309 143.581L50.1664 136.499L24.0499 151.579ZM56.6464 143.844L53.4926 142.023L49.7098 139.84L29.8374 151.312L32.9882 153.133L36.771 155.316C58.6603 142.676 36.1451 155.679 52.1168 146.456L56.6434 143.844H56.6464ZM54.1276 140.929L50.0273 138.561C49.8217 138.443 49.5768 138.452 49.3863 138.564L28.256 150.765C27.9536 150.94 27.8508 151.328 28.0262 151.63C28.0927 151.742 28.1864 151.826 28.2923 151.881L32.3562 154.227L36.4535 156.595C36.6591 156.713 36.904 156.704 37.0945 156.592C56.9972 145.099 56.4771 145.401 54.2153 146.704L58.2218 144.391C58.5242 144.219 58.627 143.832 58.4546 143.529C58.3972 143.426 58.3125 143.348 58.2158 143.293L54.1246 140.932L54.1276 140.929Z" fill="#3D0F9A"/>
<path fill-rule="evenodd" clip-rule="evenodd" d="M63.6979 148.093L36.3174 163.901V161.981V159.389L63.6979 143.581V148.093Z" fill="#3D0F9A"/>
<path fill-rule="evenodd" clip-rule="evenodd" d="M63.9935 148.649L36.6281 164.448C36.3257 164.621 35.9387 164.518 35.7663 164.215C35.7089 164.116 35.6816 164.007 35.6816 163.901V161.981V159.389C35.6816 159.132 35.8328 158.912 36.0536 158.812L63.3827 143.034C63.685 142.861 64.0721 142.964 64.2444 143.266C64.3019 143.366 64.3291 143.475 64.3291 143.581V148.092C64.3291 148.334 64.193 148.543 63.9965 148.649H63.9935ZM36.9456 162.806L63.0621 147.727V144.676L36.9486 159.752V161.981V162.806H36.9456Z" fill="#3D0F9A"/>
<path fill-rule="evenodd" clip-rule="evenodd" d="M2.63477 171.318V177.78C2.68012 178.343 2.83131 178.787 3.07019 179.162C3.68402 180.133 5.09009 180.816 6.06375 181.379L21.2281 190.135L45.0133 203.87L69.6179 218.075L86.3758 227.752C87.9361 228.653 89.2031 229.505 90.9932 229.926C91.7884 230.11 92.6079 230.201 93.4243 230.183V223.721C92.3932 223.745 91.353 223.594 90.3642 223.294C89.061 222.898 88.0964 222.281 86.9322 221.61L71.9311 212.947L47.9131 199.08L23.9314 185.234L6.23006 175.013C5.38642 174.527 4.34624 174.007 3.6296 173.353C3.07019 172.842 2.71641 172.241 2.64081 171.321L2.63477 171.318Z" fill="#3D0F9A"/>
<path fill-rule="evenodd" clip-rule="evenodd" d="M3.26692 173.879V177.725C3.28506 177.961 3.3274 178.167 3.38183 178.345C3.43928 178.521 3.51185 178.678 3.60256 178.823C4.04101 179.519 5.07515 180.096 5.93391 180.577C6.02463 180.628 6.10929 180.677 6.37539 180.828C33.1451 196.283 59.9601 211.677 86.6905 227.198C86.8266 227.276 87.0896 227.431 87.3527 227.585C88.5834 228.311 89.6931 228.964 91.1355 229.302C91.5135 229.39 91.8945 229.457 92.2724 229.496C92.4448 229.514 92.6171 229.526 92.7895 229.535V224.34C92.4599 224.325 92.1273 224.298 91.8007 224.253C91.2474 224.174 90.7061 224.056 90.1769 223.896C90.1588 223.89 90.1437 223.884 90.1286 223.878C88.9342 223.509 88.0391 222.986 87.0443 222.402L86.6119 222.148L71.6108 213.488L71.5776 213.467L47.5928 199.618L23.6141 185.775L23.5808 185.754L5.91577 175.554C5.79179 175.482 5.59827 175.376 5.40475 175.264C4.67601 174.856 3.8868 174.417 3.27297 173.873L3.26692 173.879ZM1.99995 177.777V171.366C1.96971 171.019 2.22976 170.71 2.58052 170.683C2.92826 170.653 3.23668 170.913 3.2639 171.264C3.29414 171.62 3.36973 171.911 3.48766 172.156L3.50883 172.195C3.63885 172.452 3.8233 172.673 4.04706 172.875C4.5732 173.353 5.32008 173.773 6.00951 174.157C6.16977 174.248 6.32701 174.336 6.53867 174.457L24.2067 184.656L24.243 184.674L48.2217 198.52L72.2065 212.369L72.2428 212.387L87.6823 221.301C88.6197 221.849 89.4633 222.342 90.5005 222.665L90.5398 222.674C91.0115 222.816 91.4923 222.922 91.9731 222.989C92.4539 223.055 92.9316 223.085 93.4064 223.073H93.4184C93.7662 223.073 94.0504 223.358 94.0504 223.705V230.155C94.0565 230.503 93.7783 230.793 93.4305 230.799C92.9951 230.808 92.5658 230.79 92.1394 230.745C91.6979 230.699 91.2655 230.624 90.8452 230.527C89.2245 230.146 88.0331 229.445 86.7117 228.667C86.5454 228.568 86.37 228.465 86.0555 228.283L5.74946 181.926L5.31706 181.684C4.33432 181.133 3.14899 180.471 2.53516 179.497C2.39002 179.268 2.26907 179.014 2.17835 178.732C2.08764 178.454 2.03019 178.155 2.00297 177.831C2.00297 177.813 2.00297 177.798 2.00297 177.78L1.99995 177.777Z" fill="#3D0F9A"/>
<path fill-rule="evenodd" clip-rule="evenodd" d="M32.991 161.98V161.309L25.0777 156.74L22.7856 158.064V151.578L36.3171 159.389V163.9L32.991 161.98Z" fill="white"/>
<path fill-rule="evenodd" clip-rule="evenodd" d="M32.359 161.98V161.675L25.0777 157.472L23.1031 158.612C22.8007 158.787 22.4137 158.684 22.2383 158.382C22.1748 158.27 22.1476 158.149 22.1537 158.028V151.578C22.1537 151.231 22.4379 150.946 22.7856 150.946C22.9066 150.946 23.0215 150.98 23.1182 151.04L36.6286 158.841C36.8312 158.956 36.9461 159.171 36.9461 159.389V163.9C36.9461 164.248 36.6618 164.532 36.3141 164.532C36.1932 164.532 36.0782 164.499 35.9815 164.438L32.6734 162.527C32.4709 162.41 32.3559 162.198 32.3559 161.98H32.359ZM33.6229 161.309V161.614L35.6852 162.806V159.752L23.4206 152.67V156.967L24.7541 156.196C24.9446 156.081 25.1895 156.072 25.3952 156.19L33.3084 160.759C33.4959 160.867 33.6229 161.073 33.6229 161.306V161.309Z" fill="#3D0F9A"/>
<path fill-rule="evenodd" clip-rule="evenodd" d="M54.5837 145.764L49.9936 143.115L49.7124 139.111L57.9099 143.844L54.5837 145.764Z" fill="white"/>
<path fill-rule="evenodd" clip-rule="evenodd" d="M54.2603 146.305L49.6823 143.663C49.4918 143.554 49.3829 143.363 49.3678 143.161L49.0836 139.157C49.0594 138.809 49.3225 138.507 49.6702 138.48C49.8184 138.471 49.9574 138.51 50.0724 138.589L58.2275 143.297C58.5299 143.469 58.6358 143.856 58.4604 144.158C58.4029 144.261 58.3183 144.34 58.2215 144.394L54.9014 146.311C54.6957 146.429 54.4538 146.42 54.2633 146.305H54.2603ZM50.6045 142.737L54.5839 145.035L56.6461 143.844L50.4292 140.255L50.6045 142.737Z" fill="#3D0F9A"/>
<path fill-rule="evenodd" clip-rule="evenodd" d="M32.1837 153.399L49.9938 143.115L49.7126 139.111L28.5732 151.312L32.1837 153.399Z" fill="#3D0F9A"/>
<path fill-rule="evenodd" clip-rule="evenodd" d="M32.1836 152.668L49.3345 142.765L49.1501 140.164L29.8371 151.313L32.1836 152.668ZM50.3112 143.663L32.5071 153.941C32.3166 154.053 32.0717 154.065 31.8661 153.944L28.2556 151.86C28.1619 151.806 28.0833 151.727 28.0258 151.628C27.8535 151.325 27.9563 150.938 28.2587 150.766L49.3527 138.589C49.4434 138.528 49.5492 138.489 49.6672 138.48C50.0179 138.456 50.3203 138.719 50.3445 139.067L50.6287 143.07C50.6439 143.303 50.5289 143.536 50.3143 143.663H50.3112Z" fill="#3D0F9A"/>
<path fill-rule="evenodd" clip-rule="evenodd" d="M39.4286 168.379C42.0412 166.87 46.2745 166.87 48.887 168.379C51.4996 169.888 51.4996 172.334 48.887 173.84C46.2745 175.349 42.0381 175.349 39.4256 173.84C36.813 172.331 36.816 169.885 39.4256 168.379H39.4286Z" fill="white"/>
<path fill-rule="evenodd" clip-rule="evenodd" d="M39.1499 167.811C40.5529 167.012 42.3611 166.613 44.1573 166.613C45.9534 166.613 47.7979 167.018 49.204 167.832C50.0597 168.328 50.6766 168.923 51.0485 169.571C51.3328 170.063 51.4749 170.587 51.4749 171.113C51.4749 171.636 51.3327 172.159 51.0455 172.655C50.6736 173.296 50.0597 173.895 49.201 174.39C47.7949 175.204 45.9685 175.609 44.1512 175.609C42.3339 175.609 40.5076 175.201 39.1015 174.39C38.2427 173.895 37.6259 173.299 37.257 172.655C36.9727 172.162 36.8276 171.639 36.8306 171.113C36.8306 170.587 36.9727 170.063 37.257 169.571C37.6289 168.926 38.2457 168.328 39.1045 167.832L39.1438 167.811H39.1499ZM44.1573 167.883C42.5607 167.883 40.9762 168.225 39.7758 168.908L39.7456 168.926C39.0864 169.307 38.6237 169.746 38.3607 170.203C38.1883 170.502 38.1006 170.807 38.1006 171.11C38.1006 171.412 38.1883 171.717 38.3607 172.017C38.6237 172.473 39.0864 172.912 39.7456 173.293C40.9551 173.991 42.5516 174.339 44.1603 174.339C45.769 174.339 47.3686 173.988 48.575 173.293C49.2312 172.912 49.6908 172.476 49.9569 172.017C50.1263 171.72 50.2139 171.412 50.2139 171.11C50.2139 170.807 50.1263 170.502 49.9539 170.203C49.6908 169.749 49.2312 169.311 48.569 168.93C47.3625 168.231 45.7659 167.883 44.1573 167.883Z" fill="#3D0F9A"/>
<path fill-rule="evenodd" clip-rule="evenodd" d="M122.121 181.493C124.733 179.984 128.967 179.984 131.579 181.493C134.192 183.002 134.192 185.448 131.579 186.954C128.967 188.463 124.73 188.463 122.118 186.954C119.502 185.445 119.508 182.999 122.118 181.493H122.121Z" fill="white"/>
<path fill-rule="evenodd" clip-rule="evenodd" d="M121.839 180.925C123.239 180.127 125.05 179.728 126.846 179.728C128.643 179.728 130.487 180.133 131.893 180.946C132.749 181.442 133.366 182.038 133.738 182.685C134.022 183.178 134.167 183.701 134.167 184.227C134.167 184.75 134.025 185.273 133.738 185.769L133.714 185.805C133.339 186.434 132.731 187.018 131.89 187.505C130.484 188.318 128.658 188.723 126.843 188.723C125.029 188.723 123.203 188.318 121.797 187.505C120.938 187.009 120.324 186.413 119.952 185.769C119.668 185.276 119.526 184.753 119.526 184.227C119.526 183.701 119.668 183.181 119.952 182.685L119.976 182.649C120.351 182.017 120.962 181.433 121.8 180.946L121.839 180.925ZM126.846 180.998C125.25 180.998 123.665 181.339 122.465 182.023L122.435 182.041C121.788 182.416 121.331 182.842 121.065 183.287L121.047 183.317C120.874 183.616 120.787 183.922 120.787 184.224C120.787 184.526 120.874 184.832 121.047 185.131C121.31 185.588 121.773 186.026 122.432 186.407C123.638 187.106 125.235 187.45 126.846 187.45C128.458 187.45 130.055 187.103 131.261 186.407C131.905 186.035 132.359 185.609 132.625 185.164L132.643 185.134C132.815 184.838 132.9 184.532 132.9 184.227C132.9 183.925 132.812 183.619 132.64 183.32C132.377 182.866 131.917 182.428 131.255 182.047C130.049 181.351 128.452 181.004 126.843 181.004L126.846 180.998Z" fill="#3D0F9A"/>
<path fill-rule="evenodd" clip-rule="evenodd" d="M118.876 180.142C119.179 180.317 119.278 180.704 119.103 181.006C118.928 181.309 118.541 181.409 118.238 181.23C104.453 173.123 93.5246 175.672 82.8748 178.152C73.5252 180.329 64.3873 182.458 53.6921 177.559L56.0416 181.403C56.2231 181.702 56.1293 182.092 55.83 182.273C55.5306 182.455 55.1436 182.361 54.9591 182.062L51.4908 176.386C51.3578 176.199 51.3336 175.942 51.4485 175.724C51.6118 175.415 51.9958 175.298 52.3072 175.461C63.4469 181.375 72.9023 179.174 82.5876 176.918C93.4763 174.381 104.652 171.778 118.876 180.139V180.142Z" fill="#3D0F9A"/>
<path fill-rule="evenodd" clip-rule="evenodd" d="M52.0319 176.655C51.6842 176.667 51.3909 176.395 51.3788 176.047C51.3667 175.696 51.6389 175.406 51.9896 175.391L59.9573 175.085C60.3051 175.073 60.5984 175.345 60.6105 175.696C60.6226 176.047 60.3504 176.337 59.9997 176.349L52.0319 176.655Z" fill="#3D0F9A"/>
<path fill-rule="evenodd" clip-rule="evenodd" d="M65.1155 159.29C64.7647 159.29 64.4805 159.005 64.4805 158.655C64.4805 158.304 64.7647 158.02 65.1155 158.02H81.1174C81.4682 158.02 81.7524 158.304 81.7524 158.655C81.7524 159.005 81.4682 159.29 81.1174 159.29H65.1155Z" fill="#3D0F9A"/>
<path fill-rule="evenodd" clip-rule="evenodd" d="M73.7488 163.468C73.7488 163.816 73.4676 164.1 73.1168 164.1C72.7661 164.1 72.4849 163.816 72.4849 163.468V154.228C72.4849 153.88 72.7691 153.596 73.1168 153.596C73.4646 153.596 73.7488 153.88 73.7488 154.228V163.468Z" fill="#3D0F9A"/>
<path fill-rule="evenodd" clip-rule="evenodd" d="M96.8541 193.625C96.5064 193.625 96.2222 193.341 96.2222 192.993C96.2222 192.646 96.5064 192.361 96.8541 192.361H112.614C112.962 192.361 113.246 192.646 113.246 192.993C113.246 193.341 112.965 193.625 112.614 193.625H96.8541Z" fill="#3D0F9A"/>
<path fill-rule="evenodd" clip-rule="evenodd" d="M105.366 197.731C105.366 198.078 105.081 198.363 104.734 198.363C104.386 198.363 104.102 198.078 104.102 197.731V188.629C104.102 188.278 104.386 187.997 104.734 187.997C105.081 187.997 105.366 188.278 105.366 188.629V197.731Z" fill="#3D0F9A"/>
<path fill-rule="evenodd" clip-rule="evenodd" d="M69.4001 193.643C69.0494 193.643 68.7651 193.359 68.7651 193.008C68.7651 192.657 69.0494 192.373 69.4001 192.373H80.18C80.5307 192.373 80.815 192.657 80.815 193.008C80.815 193.359 80.5307 193.643 80.18 193.643H69.4001Z" fill="#3D0F9A"/>
<path fill-rule="evenodd" clip-rule="evenodd" d="M75.4212 196.249C75.4212 196.597 75.14 196.881 74.7892 196.881C74.4384 196.881 74.1572 196.597 74.1572 196.249V190.027C74.1572 189.679 74.4415 189.395 74.7892 189.395C75.1369 189.395 75.4212 189.679 75.4212 190.027V196.249Z" fill="#3D0F9A"/>
<path fill-rule="evenodd" clip-rule="evenodd" d="M91.7038 166.647C91.3531 166.647 91.0688 166.363 91.0688 166.012C91.0688 165.661 91.3531 165.377 91.7038 165.377H102.484C102.834 165.377 103.119 165.661 103.119 166.012C103.119 166.363 102.834 166.647 102.484 166.647H91.7038Z" fill="#3D0F9A"/>
<path fill-rule="evenodd" clip-rule="evenodd" d="M97.7244 169.252C97.7244 169.6 97.4432 169.884 97.0924 169.884C96.7417 169.884 96.4604 169.6 96.4604 169.252V163.029C96.4604 162.679 96.7447 162.397 97.0924 162.397C97.4402 162.397 97.7244 162.679 97.7244 163.029V169.252Z" fill="#3D0F9A"/>
<path d="M242.007 199.923C261.907 211.412 262.031 230.049 242.244 241.55C222.468 253.039 190.301 253.039 170.39 241.55C150.467 230.049 150.366 211.423 170.142 199.923C189.929 188.423 222.085 188.423 242.007 199.923Z" fill="white"/>
<path d="M206.185 251H206.174C192.588 251 179.789 247.901 170.137 242.27C165.226 239.397 161.416 236.06 158.809 232.325C156.281 228.692 155 224.854 155 220.915C154.989 212.9 160.281 205.373 169.889 199.73C179.486 194.099 192.251 191 205.837 191C219.423 191 232.222 194.099 241.875 199.73C246.785 202.591 250.595 205.94 253.191 209.675C255.719 213.297 257 217.134 257 221.074C257.011 229.1 251.718 236.627 242.099 242.27C232.514 247.901 219.76 250.989 206.174 250.989L206.185 251ZM205.837 191.738C192.937 191.738 180.048 194.61 170.249 200.366C160.866 205.872 155.708 213.184 155.719 220.926C155.719 228.737 160.978 236.094 170.496 241.645C190.206 253.146 222.176 253.146 241.751 241.645C251.145 236.128 256.303 228.828 256.292 221.074C256.292 213.263 251.033 205.906 241.515 200.355C231.66 194.61 218.737 191.727 205.826 191.727L205.837 191.738Z" fill="#3D0F9A" stroke="#3D0F9A" stroke-width="0.300064"/>
<path d="M256.64 220.883L256.618 227.918C256.595 235.405 251.697 242.869 241.902 248.585C222.198 260.074 190.149 260.074 170.311 248.585C160.324 242.801 155.336 235.202 155.359 227.625L155.381 220.59C155.359 228.167 160.347 235.766 170.333 241.55C190.16 253.039 222.221 253.05 241.924 241.55C251.72 235.833 256.618 228.369 256.64 220.883Z" fill="#3D0F9A"/>
<path d="M206.168 257.56H206.157C192.576 257.56 179.781 254.482 170.131 248.89C165.2 246.037 161.392 242.7 158.786 238.979C156.258 235.36 155 231.538 155 227.614L155.022 220.579C155.022 220.387 155.18 220.218 155.382 220.218C155.584 220.218 155.741 220.376 155.741 220.579C155.719 228.358 160.965 235.698 170.513 241.234C190.217 252.655 222.176 252.655 241.745 241.234C251.102 235.777 256.259 228.55 256.281 220.872C256.281 220.68 256.438 220.511 256.641 220.511C256.843 220.511 257 220.669 257 220.872L256.978 227.907C256.955 235.845 251.664 243.297 242.082 248.878C232.5 254.471 219.75 257.537 206.168 257.537V257.56ZM155.719 225.585V227.614C155.696 235.394 160.943 242.734 170.491 248.27C190.194 259.691 222.154 259.691 241.722 248.27C251.08 242.812 256.236 235.585 256.259 227.907V225.889C254.506 231.921 249.631 237.457 242.093 241.854C232.511 247.446 219.761 250.513 206.18 250.513H206.168C192.587 250.513 179.792 247.435 170.143 241.843C165.211 238.99 161.392 235.653 158.797 231.932C157.359 229.869 156.326 227.749 155.708 225.573L155.719 225.585Z" fill="#3D0F9A"/>
<path d="M243.597 218.651L241.636 217.512L236.81 207.726L238.772 208.876L243.597 218.651Z" fill="#3D0F9A"/>
<path d="M243.597 219.011C243.541 219.011 243.473 219 243.417 218.966L241.455 217.828C241.399 217.794 241.342 217.737 241.309 217.681L236.483 207.906C236.415 207.759 236.449 207.59 236.562 207.489C236.675 207.376 236.844 207.365 236.99 207.443L238.952 208.582C239.009 208.616 239.065 208.672 239.099 208.729L243.924 218.504C243.992 218.651 243.958 218.82 243.845 218.921C243.778 218.989 243.688 219.023 243.597 219.023V219.011ZM241.906 217.253L242.752 217.749L238.501 209.135L237.656 208.639L241.906 217.253Z" fill="#3D0F9A"/>
<path d="M231.849 186.822L229.887 185.684L244.883 193.835L246.845 194.974L231.849 186.822Z" fill="#3D0F9A"/>
<path d="M246.844 195.334C246.788 195.334 246.732 195.323 246.675 195.289L231.68 187.138L229.718 185.999C229.549 185.897 229.493 185.683 229.583 185.514C229.673 185.345 229.898 185.277 230.068 185.379L245.063 193.53L247.036 194.68C247.205 194.782 247.262 194.996 247.171 195.165C247.104 195.278 246.98 195.346 246.856 195.346L246.844 195.334Z" fill="#3D0F9A"/>
<path d="M229.368 207.692L227.406 206.553L229.887 185.684L231.849 186.822L229.368 207.692Z" fill="#3D0F9A"/>
<path d="M229.369 208.052C229.301 208.052 229.245 208.041 229.188 208.007L227.227 206.868C227.103 206.801 227.035 206.654 227.046 206.519L229.527 185.649C229.538 185.525 229.617 185.424 229.718 185.367C229.831 185.311 229.955 185.322 230.057 185.367L232.018 186.506C232.142 186.574 232.21 186.72 232.199 186.856L229.718 207.725C229.707 207.849 229.628 207.951 229.527 208.007C229.481 208.03 229.425 208.041 229.369 208.041V208.052ZM227.79 206.361L229.076 207.105L231.466 187.013L230.181 186.269L227.79 206.361Z" fill="#3D0F9A"/>
<path d="M231.849 186.822L246.845 194.974L246.912 216.734L243.597 218.651L238.772 208.876L229.369 207.692L231.849 186.822Z" fill="#3D0F9A"/>
<path d="M243.597 219.011C243.597 219.011 243.53 219.011 243.496 219C243.406 218.966 243.327 218.91 243.282 218.82L238.546 209.214L229.335 208.063C229.143 208.041 228.996 207.861 229.019 207.669L231.499 186.799C231.511 186.686 231.59 186.574 231.691 186.529C231.792 186.472 231.917 186.472 232.029 186.529L247.025 194.68C247.138 194.748 247.216 194.861 247.216 194.996L247.273 216.768C247.273 216.892 247.205 217.016 247.092 217.083L243.789 218.989C243.789 218.989 243.676 219.034 243.608 219.034L243.597 219.011ZM229.763 207.387L238.817 208.514C238.941 208.526 239.042 208.605 239.099 208.706L243.755 218.143L246.551 216.531L246.495 195.188L232.153 187.397L229.774 207.387H229.763Z" fill="#3D0F9A"/>
<path d="M168.766 218.651L170.728 217.512L175.554 207.726L173.592 208.876L168.766 218.651Z" fill="#3D0F9A"/>
<path d="M168.766 219.011C168.676 219.011 168.586 218.978 168.518 218.91C168.406 218.797 168.372 218.628 168.439 218.493L173.265 208.718C173.299 208.65 173.344 208.605 173.412 208.571L175.374 207.432C175.509 207.353 175.678 207.376 175.802 207.477C175.915 207.59 175.949 207.759 175.881 207.894L171.055 217.67C171.021 217.737 170.976 217.782 170.909 217.816L168.947 218.955C168.947 218.955 168.834 219 168.766 219V219.011ZM173.863 209.135L169.612 217.749L170.458 217.253L174.708 208.639L173.863 209.135Z" fill="#3D0F9A"/>
<path d="M180.515 186.821L182.477 185.683L167.481 193.834L165.52 194.973L180.515 186.821Z" fill="#3D0F9A"/>
<path d="M165.519 195.334C165.395 195.334 165.271 195.267 165.204 195.154C165.114 194.985 165.17 194.771 165.339 194.669L167.301 193.53L182.296 185.379C182.466 185.288 182.68 185.345 182.781 185.514C182.871 185.683 182.815 185.897 182.646 185.999L180.684 187.137L165.689 195.289C165.689 195.289 165.576 195.334 165.519 195.334Z" fill="#3D0F9A"/>
<path d="M182.995 207.692L184.957 206.553L182.476 185.684L180.515 186.822L182.995 207.692Z" fill="#3D0F9A"/>
<path d="M182.995 208.052C182.995 208.052 182.883 208.041 182.837 208.018C182.725 207.962 182.657 207.861 182.646 207.737L180.165 186.867C180.154 186.72 180.222 186.585 180.346 186.517L182.307 185.379C182.409 185.322 182.544 185.311 182.646 185.379C182.758 185.435 182.826 185.536 182.837 185.661L185.318 206.53C185.329 206.677 185.261 206.812 185.137 206.88L183.176 208.018C183.176 208.018 183.063 208.064 182.995 208.064V208.052ZM180.898 187.013L183.288 207.105L184.574 206.361L182.183 186.269L180.898 187.013Z" fill="#3D0F9A"/>
<path d="M180.515 186.822L165.519 194.974L165.463 216.734L168.766 218.651L173.592 208.876L182.995 207.692L180.515 186.822Z" fill="#3D0F9A"/>
<path d="M168.766 219.011C168.699 219.011 168.642 219 168.586 218.966L165.282 217.061C165.17 216.993 165.102 216.88 165.102 216.745L165.158 194.974C165.158 194.838 165.226 194.725 165.35 194.658L180.346 186.506C180.447 186.45 180.571 186.45 180.684 186.506C180.785 186.563 180.864 186.664 180.876 186.777L183.356 207.646C183.379 207.838 183.243 208.018 183.04 208.041L173.829 209.191L169.093 218.797C169.048 218.887 168.969 218.955 168.879 218.978C168.845 218.978 168.811 218.989 168.778 218.989L168.766 219.011ZM165.812 216.542L168.609 218.155L173.265 208.718C173.321 208.605 173.423 208.537 173.547 208.526L182.601 207.398L180.222 187.408L165.88 195.199L165.824 216.542H165.812Z" fill="#3D0F9A"/>
<path d="M222.085 206.812L225.231 218.842C225.231 221.65 223.381 224.457 219.695 226.599C212.276 230.906 200.2 230.906 192.737 226.599C188.982 224.434 187.099 221.582 187.11 218.741L190.324 206.722C190.324 209.089 191.88 211.468 195.014 213.272C201.238 216.869 211.295 216.869 217.485 213.272C220.563 211.491 222.096 209.146 222.107 206.812H222.085Z" fill="#3D0F9A"/>
<path d="M217.394 200.261C223.618 203.858 223.652 209.675 217.462 213.272C211.283 216.869 201.226 216.869 194.991 213.272C188.768 209.675 188.734 203.858 194.924 200.261C201.113 196.664 211.171 196.664 217.394 200.261Z" fill="#3D0F9A"/>
<path d="M206.187 81.3912C189.67 91.11 169.77 126.276 170.931 153.11C171.72 171.218 177.628 192.38 186.761 208.345C187.697 210.161 189.41 211.874 191.902 213.318C199.851 217.907 212.693 217.907 220.585 213.318C223.212 211.796 224.948 209.958 225.817 208.007C234.938 192.053 240.654 171.218 241.444 153.11C242.605 126.265 222.705 91.11 206.187 81.3799V81.3912Z" fill="white"/>
<path d="M206.255 217.106C200.989 217.106 195.724 215.945 191.71 213.622C189.252 212.201 187.437 210.443 186.434 208.515C177.448 192.786 171.359 171.567 170.559 153.133C170.277 146.672 171.19 139.513 173.265 131.857C175.159 124.889 178.034 117.561 181.597 110.672C188.666 96.9841 197.787 85.9235 205.984 81.0866C206.041 81.0528 206.108 81.0303 206.176 81.0303C206.255 81.0303 206.322 81.0528 206.379 81.0866C214.587 85.9235 223.697 96.9841 230.755 110.66C234.318 117.561 237.193 124.889 239.087 131.846C241.162 139.501 242.075 146.65 241.793 153.121C241.398 162.141 239.775 171.939 237.091 181.455C234.352 191.163 230.563 200.408 226.121 208.176C226.121 208.176 226.121 208.188 226.11 208.199C225.174 210.251 223.325 212.122 220.754 213.611C216.763 215.933 211.52 217.083 206.255 217.083V217.106ZM206.187 81.8082C198.137 86.6339 189.207 97.5253 182.251 110.999C174.753 125.521 170.762 140.866 171.292 153.099C172.081 171.432 178.135 192.527 187.076 208.165C187.076 208.165 187.076 208.165 187.076 208.176C188.012 209.98 189.737 211.649 192.071 213.002C199.907 217.523 212.614 217.523 220.393 213.002C222.851 211.57 224.61 209.789 225.478 207.861C225.49 207.827 225.512 207.804 225.523 207.782C234.453 192.132 240.271 171.702 241.071 153.099C241.601 140.866 237.61 125.521 230.112 110.999C223.167 97.514 214.237 86.6226 206.187 81.8082Z" fill="#3D0F9A" stroke="#3D0F9A" stroke-width="0.3"/>
<path d="M181.823 147.495L178.666 149.333C177.211 150.179 176.309 151.971 176.298 154.531C176.287 159.672 179.895 165.929 184.371 168.511L187.528 166.674C183.051 164.092 179.444 157.834 179.455 152.693C179.455 150.133 180.368 148.341 181.823 147.495Z" fill="#3D0F9A"/>
<path d="M190.132 169.075L193.289 167.238C191.812 168.094 189.771 167.97 187.528 166.674L184.371 168.512C186.626 169.808 188.666 169.932 190.132 169.075Z" fill="#3D0F9A"/>
<path d="M179.748 143.921L176.591 145.759C178.598 144.598 181.372 144.755 184.439 146.526L187.596 144.688C184.529 142.918 181.755 142.748 179.748 143.921Z" fill="#3D0F9A"/>
<path d="M179.748 143.921L176.591 145.759C178.598 144.598 181.372 144.755 184.439 146.526L187.596 144.688C184.529 142.918 181.755 142.748 179.748 143.921Z" fill="black"/>
<path d="M184.439 146.526L187.596 144.688C184.529 142.918 181.755 142.748 179.748 143.921L176.591 145.759C178.598 144.598 181.372 144.755 184.439 146.526Z" fill="#3D0F9A"/>
<path d="M192.207 172.649L195.364 170.812C197.348 169.662 198.577 167.215 198.577 163.742C198.6 156.741 193.673 148.217 187.584 144.699L184.427 146.537C190.516 150.055 195.443 158.579 195.42 165.58C195.42 169.053 194.18 171.499 192.207 172.661V172.649Z" fill="#3D0F9A"/>
<path d="M192.207 172.649L195.364 170.812C197.348 169.662 198.577 167.215 198.577 163.742C198.6 156.741 193.673 148.217 187.584 144.699L184.427 146.537C190.516 150.055 195.443 158.579 195.42 165.58C195.42 169.053 194.18 171.499 192.207 172.661V172.649Z" fill="black"/>
<path d="M192.207 172.649L195.363 170.812C196.344 170.248 197.134 169.357 197.697 168.185L194.54 170.022C193.988 171.195 193.187 172.074 192.207 172.649Z" fill="#3D0F9A"/>
<path d="M194.541 170.023L197.698 168.185C198.261 166.99 198.577 165.49 198.588 163.731C198.6 158.917 196.277 153.381 192.838 149.243L189.681 151.081C193.12 155.219 195.443 160.755 195.431 165.569C195.431 167.328 195.116 168.828 194.541 170.023Z" fill="#3D0F9A"/>
<path d="M189.681 151.092L192.838 149.254C191.282 147.383 189.49 145.793 187.595 144.699L184.438 146.537C186.344 147.631 188.125 149.22 189.693 151.092H189.681Z" fill="#3D0F9A"/>
<path d="M185.96 167.632C181.484 165.05 177.876 158.793 177.888 153.651C177.899 148.51 181.541 146.436 186.017 149.017C190.493 151.599 194.101 157.857 194.09 162.998C194.078 168.14 190.437 170.214 185.96 167.632Z" fill="white"/>
<path d="M189.602 169.098C188.43 169.098 187.122 168.703 185.791 167.936C181.225 165.298 177.527 158.883 177.538 153.64C177.538 151.035 178.451 149.073 180.097 148.126C181.744 147.179 183.92 147.382 186.208 148.701C190.775 151.34 194.473 157.755 194.462 162.998C194.462 165.614 193.548 167.564 191.902 168.511C191.214 168.906 190.448 169.098 189.613 169.098H189.602ZM182.386 148.25C181.676 148.25 181.022 148.42 180.447 148.747C179.038 149.558 178.26 151.295 178.248 153.64C178.237 158.657 181.777 164.791 186.141 167.316C188.193 168.5 190.11 168.703 191.53 167.891C192.939 167.079 193.717 165.343 193.729 162.998C193.74 157.981 190.2 151.847 185.836 149.322C184.607 148.611 183.435 148.25 182.386 148.25Z" fill="#3D0F9A"/>
<path d="M195.432 165.569C195.409 172.571 190.459 175.39 184.371 171.872C178.283 168.354 173.355 159.83 173.378 152.829C173.401 145.827 178.35 143.008 184.45 146.526C190.538 150.044 195.465 158.568 195.443 165.569H195.432ZM184.371 168.512C188.847 171.094 192.478 169.019 192.5 163.878C192.511 158.737 188.903 152.479 184.427 149.897C179.951 147.315 176.309 149.39 176.298 154.531C176.287 159.672 179.895 165.93 184.371 168.512Z" fill="white"/>
<path d="M189.309 173.754C187.73 173.754 185.983 173.224 184.179 172.187C178 168.613 172.983 159.931 173.005 152.828C173.005 149.321 174.223 146.694 176.422 145.432C178.632 144.158 181.54 144.439 184.607 146.21C190.786 149.772 195.803 158.465 195.781 165.568C195.781 169.075 194.563 171.702 192.364 172.965C191.451 173.495 190.425 173.754 189.309 173.754ZM179.488 145.364C178.496 145.364 177.583 145.59 176.783 146.052C174.821 147.179 173.738 149.592 173.727 152.828C173.704 159.706 178.564 168.105 184.54 171.555C187.381 173.19 190.03 173.472 192.015 172.333C193.977 171.206 195.059 168.793 195.07 165.557C195.093 158.68 190.233 150.28 184.258 146.83C182.566 145.849 180.943 145.364 179.488 145.364ZM188.012 169.977C186.84 169.977 185.532 169.582 184.201 168.816C179.635 166.177 175.937 159.762 175.948 154.519C175.948 151.915 176.861 149.953 178.508 149.006C180.154 148.059 182.33 148.262 184.618 149.581C189.185 152.219 192.883 158.623 192.872 163.877C192.872 166.493 191.958 168.444 190.312 169.391C189.625 169.785 188.858 169.977 188.023 169.977H188.012ZM184.562 168.196C186.614 169.379 188.531 169.582 189.951 168.771C191.361 167.959 192.139 166.222 192.15 163.877C192.161 158.86 188.621 152.726 184.258 150.201C182.206 149.017 180.289 148.814 178.868 149.626C177.459 150.438 176.681 152.174 176.67 154.519C176.658 159.536 180.199 165.67 184.562 168.196Z" fill="#3D0F9A"/>
<path d="M195.781 165.568C195.803 158.465 190.786 149.772 184.607 146.21C181.54 144.439 178.632 144.158 176.422 145.432C174.223 146.694 173.005 149.321 173.005 152.828C172.983 159.931 178 168.613 184.179 172.187C185.983 173.224 187.73 173.754 189.309 173.754C190.425 173.754 191.451 173.495 192.364 172.965C194.563 171.702 195.781 169.075 195.781 165.568ZM195.781 165.568H195.42M179.488 145.364C178.496 145.364 177.583 145.59 176.783 146.052C174.821 147.179 173.738 149.592 173.727 152.828C173.704 159.706 178.564 168.105 184.54 171.555C187.381 173.19 190.03 173.472 192.015 172.333C193.977 171.206 195.059 168.793 195.07 165.557C195.093 158.68 190.233 150.28 184.258 146.83C182.566 145.849 180.943 145.364 179.488 145.364ZM188.012 169.977C186.84 169.977 185.532 169.582 184.201 168.816C179.635 166.177 175.937 159.762 175.948 154.519C175.948 151.915 176.861 149.953 178.508 149.006C180.154 148.059 182.33 148.262 184.618 149.581C189.185 152.219 192.883 158.623 192.872 163.877C192.872 166.493 191.958 168.444 190.312 169.391C189.625 169.785 188.858 169.977 188.023 169.977H188.012ZM184.562 168.196C186.614 169.379 188.531 169.582 189.951 168.771C191.361 167.959 192.139 166.222 192.15 163.877C192.161 158.86 188.621 152.726 184.258 150.201C182.206 149.017 180.289 148.814 178.868 149.626C177.459 150.438 176.681 152.174 176.67 154.519C176.658 159.536 180.199 165.67 184.562 168.196Z" stroke="#3D0F9A" stroke-width="0.3"/>
<path d="M172.363 237.739L170.402 236.6L170.334 214.828L172.307 215.967L172.363 237.739Z" fill="white"/>
<path d="M172.363 238.099C172.307 238.099 172.239 238.088 172.183 238.054L170.221 236.915C170.108 236.848 170.041 236.735 170.041 236.611L169.984 214.839C169.984 214.715 170.052 214.591 170.165 214.523C170.278 214.456 170.413 214.456 170.526 214.523L172.487 215.662C172.6 215.73 172.668 215.843 172.668 215.967L172.724 237.738C172.724 237.862 172.657 237.986 172.544 238.054C172.487 238.088 172.431 238.099 172.363 238.099ZM170.762 236.397L172.014 237.118L171.957 216.181L170.706 215.459L170.762 236.397Z" fill="#3D0F9A"/>
<path d="M172.307 215.967L170.334 214.828L185.239 189.426L187.201 190.565L172.307 215.967Z" fill="white"/>
<path d="M172.307 216.328C172.25 216.328 172.183 216.317 172.126 216.283L170.165 215.145C170.086 215.099 170.018 215.021 169.995 214.93C169.973 214.84 169.995 214.739 170.029 214.66L184.923 189.258C185.025 189.088 185.239 189.032 185.408 189.134L187.37 190.272C187.449 190.317 187.516 190.396 187.539 190.487C187.562 190.577 187.539 190.678 187.505 190.757L172.611 216.159C172.544 216.272 172.419 216.34 172.307 216.34V216.328ZM170.83 214.705L172.171 215.483L186.705 190.701L185.363 189.923L170.83 214.705Z" fill="#3D0F9A"/>
<path d="M187.201 190.564L189.794 208.514L180.425 220.522L175.678 235.833L172.363 237.738L172.307 215.967L187.201 190.564Z" fill="#3D0F9A"/>
<path d="M172.363 238.099C172.307 238.099 172.239 238.088 172.183 238.054C172.07 237.986 172.002 237.874 172.002 237.75L171.946 215.978C171.946 215.91 171.957 215.854 171.991 215.798L186.885 190.396C186.964 190.26 187.11 190.193 187.257 190.226C187.404 190.26 187.516 190.373 187.539 190.531L190.132 208.469C190.143 208.571 190.121 208.661 190.064 208.74L180.74 220.702L176.005 235.946C175.982 236.036 175.915 236.104 175.847 236.149L172.532 238.054C172.532 238.054 172.419 238.099 172.352 238.099H172.363ZM172.656 216.068L172.712 237.118L175.362 235.585L180.075 220.409C180.075 220.409 180.109 220.33 180.131 220.296L189.399 208.401L186.975 191.624L172.645 216.068H172.656Z" fill="#3D0F9A"/>
<path d="M240.001 237.739L241.974 236.6L242.03 214.828L240.069 215.967L240.001 237.739Z" fill="white"/>
<path d="M240.001 238.099C239.945 238.099 239.877 238.088 239.821 238.054C239.708 237.986 239.64 237.874 239.64 237.738L239.697 215.967C239.697 215.843 239.764 215.719 239.877 215.662L241.839 214.523C241.951 214.456 242.087 214.456 242.2 214.523C242.312 214.591 242.38 214.704 242.38 214.839L242.324 236.611C242.324 236.735 242.256 236.859 242.143 236.915L240.181 238.054C240.181 238.054 240.069 238.099 240.001 238.099ZM240.418 216.181L240.362 237.118L241.613 236.397L241.67 215.459L240.418 216.181Z" fill="#3D0F9A"/>
<path d="M240.068 215.967L242.03 214.828L227.136 189.426L225.174 190.565L240.068 215.967Z" fill="white"/>
<path d="M240.068 216.328C239.944 216.328 239.831 216.26 239.764 216.148L224.87 190.745C224.825 190.666 224.813 190.565 224.836 190.475C224.859 190.385 224.915 190.306 225.005 190.261L226.967 189.122C227.136 189.02 227.35 189.077 227.452 189.246L242.346 214.648C242.391 214.727 242.402 214.828 242.38 214.919C242.357 215.009 242.301 215.088 242.21 215.133L240.249 216.272C240.192 216.305 240.136 216.317 240.068 216.317V216.328ZM225.659 190.7L240.192 215.482L241.534 214.704L227.001 189.922L225.659 190.7Z" fill="#3D0F9A"/>
<path d="M225.174 190.564L222.581 208.514L231.939 220.522L236.697 235.833L240.001 237.738L240.068 215.967L225.174 190.564Z" fill="#3D0F9A"/>
<path d="M240.001 238.099C239.944 238.099 239.877 238.088 239.82 238.054L236.506 236.149C236.427 236.104 236.37 236.036 236.348 235.946L231.612 220.702L222.288 208.74C222.232 208.661 222.198 208.571 222.22 208.469L224.814 190.531C224.836 190.384 224.949 190.26 225.096 190.226C225.242 190.193 225.4 190.26 225.468 190.396L240.362 215.798C240.362 215.798 240.407 215.91 240.407 215.978L240.35 237.75C240.35 237.874 240.283 237.998 240.17 238.054C240.114 238.088 240.057 238.099 239.99 238.099H240.001ZM236.99 235.596L239.64 237.13L239.696 216.08L225.366 191.636L222.942 208.413L232.21 220.308C232.21 220.308 232.255 220.375 232.266 220.42L236.979 235.596H236.99Z" fill="#3D0F9A"/>
<path d="M216.853 217.219C216.853 217.219 216.797 217.219 216.775 217.219C216.583 217.173 216.459 216.982 216.504 216.79C216.56 216.542 216.628 216.249 216.696 215.911C222.378 190.486 230.361 144.113 219.931 119.297C219.853 119.116 219.931 118.902 220.123 118.823C220.304 118.744 220.518 118.823 220.597 119.015C225.693 131.147 226.989 149.739 224.441 174.262C222.434 193.553 218.646 210.499 217.406 216.069C217.327 216.407 217.259 216.7 217.214 216.948C217.18 217.117 217.034 217.23 216.865 217.23L216.853 217.219Z" fill="#3D0F9A" stroke="#3D0F9A" stroke-width="0.5"/>
<path d="M231.95 113.862C231.522 114.133 231.082 114.403 230.631 114.674C217.226 122.465 195.409 122.465 181.913 114.674C181.417 114.381 180.932 114.088 180.47 113.783C187.494 99.1372 197.326 86.6109 206.188 81.3906C215.061 86.6221 224.915 99.1823 231.95 113.862Z" fill="#FF5A00"/>
<path d="M206.312 120.853C197.427 120.853 188.52 118.891 181.732 114.967C181.214 114.663 180.718 114.37 180.267 114.065C180.12 113.964 180.064 113.772 180.143 113.614C187.291 98.7315 197.201 86.2616 206.007 81.0752C206.12 81.0075 206.255 81.0075 206.368 81.0752C215.196 86.2728 225.118 98.7766 232.277 113.704C232.356 113.862 232.3 114.065 232.153 114.155C231.736 114.426 231.285 114.708 230.823 114.978C224.081 118.891 215.207 120.853 206.323 120.853H206.312ZM180.921 113.648C181.293 113.885 181.676 114.122 182.082 114.358C195.465 122.082 217.158 122.082 230.451 114.358C230.812 114.155 231.161 113.941 231.488 113.727C224.453 99.1487 214.79 86.9606 206.187 81.7967C197.607 86.938 187.956 99.1036 180.921 113.637V113.648Z" fill="#3D0F9A" stroke="#3D0F9A" stroke-width="0.3"/>
<path d="M94.6763 50.6699C94.306 50.4596 94.3065 49.7767 94.6776 49.1446C95.0486 48.5126 95.6496 48.1706 96.0199 48.3809C96.3902 48.5912 96.3897 49.2741 96.0186 49.9062C95.6476 50.5383 95.0466 50.8802 94.6763 50.6699Z" fill="white"/>
<path d="M94.6705 61.9482C94.3001 61.7379 94.3007 61.055 94.6717 60.423C95.0427 59.7909 95.6437 59.449 96.014 59.6593C96.3844 59.8696 96.3838 60.5524 96.0128 61.1845C95.6418 61.8166 95.0408 62.1585 94.6705 61.9482Z" fill="white"/>
<path d="M94.6705 73.3262C94.3001 73.1159 94.3007 72.433 94.6717 71.8009C95.0427 71.1688 95.6437 70.8269 96.014 71.0372C96.3844 71.2475 96.3838 71.9304 96.0128 72.5625C95.6418 73.1945 95.0408 73.5365 94.6705 73.3262Z" fill="white"/>
<path d="M100.676 47.6699C100.306 47.4596 100.307 46.7767 100.678 46.1446C101.049 45.5126 101.65 45.1706 102.02 45.3809C102.39 45.5912 102.39 46.2741 102.019 46.9062C101.648 47.5383 101.047 47.8802 100.676 47.6699Z" fill="white"/>
<path d="M100.67 58.9482C100.3 58.7379 100.301 58.055 100.672 57.423C101.043 56.7909 101.644 56.449 102.014 56.6593C102.384 56.8696 102.384 57.5524 102.013 58.1845C101.642 58.8166 101.041 59.1585 100.67 58.9482Z" fill="white"/>
<path d="M100.67 70.3262C100.3 70.1159 100.301 69.433 100.672 68.8009C101.043 68.1688 101.644 67.8269 102.014 68.0372C102.384 68.2475 102.384 68.9304 102.013 69.5625C101.642 70.1945 101.041 70.5365 100.67 70.3262Z" fill="white"/>
<path d="M106.676 43.6699C106.306 43.4596 106.307 42.7767 106.678 42.1446C107.049 41.5126 107.65 41.1706 108.02 41.3809C108.39 41.5912 108.39 42.2741 108.019 42.9062C107.648 43.5383 107.047 43.8802 106.676 43.6699Z" fill="white"/>
<path d="M106.67 54.9482C106.3 54.7379 106.301 54.055 106.672 53.423C107.043 52.7909 107.644 52.449 108.014 52.6593C108.384 52.8696 108.384 53.5524 108.013 54.1845C107.642 54.8166 107.041 55.1585 106.67 54.9482Z" fill="white"/>
<path d="M106.67 66.3262C106.3 66.1159 106.301 65.433 106.672 64.8009C107.043 64.1688 107.644 63.8269 108.014 64.0372C108.384 64.2475 108.384 64.9304 108.013 65.5625C107.642 66.1945 107.041 66.5365 106.67 66.3262Z" fill="white"/>
<path d="M47.6763 110.67C47.306 110.46 47.3065 109.777 47.6776 109.145C48.0486 108.513 48.6496 108.171 49.0199 108.381C49.3902 108.591 49.3897 109.274 49.0186 109.906C48.6476 110.538 48.0466 110.88 47.6763 110.67Z" fill="white"/>
<path d="M47.6705 121.948C47.3001 121.738 47.3007 121.055 47.6717 120.423C48.0427 119.791 48.6437 119.449 49.014 119.659C49.3844 119.87 49.3838 120.552 49.0128 121.185C48.6418 121.817 48.0408 122.159 47.6705 121.948Z" fill="white"/>
<path d="M53.6763 107.67C53.306 107.46 53.3065 106.777 53.6776 106.145C54.0486 105.513 54.6496 105.171 55.0199 105.381C55.3902 105.591 55.3897 106.274 55.0186 106.906C54.6476 107.538 54.0466 107.88 53.6763 107.67Z" fill="white"/>
<path d="M53.6705 118.948C53.3001 118.738 53.3007 118.055 53.6717 117.423C54.0427 116.791 54.6437 116.449 55.014 116.659C55.3844 116.87 55.3838 117.552 55.0128 118.185C54.6418 118.817 54.0408 119.159 53.6705 118.948Z" fill="white"/>
<path d="M59.6763 103.67C59.306 103.46 59.3065 102.777 59.6776 102.145C60.0486 101.513 60.6496 101.171 61.0199 101.381C61.3902 101.591 61.3897 102.274 61.0186 102.906C60.6476 103.538 60.0466 103.88 59.6763 103.67Z" fill="white"/>
<path d="M59.6705 114.948C59.3001 114.738 59.3007 114.055 59.6717 113.423C60.0427 112.791 60.6437 112.449 61.014 112.659C61.3844 112.87 61.3838 113.552 61.0128 114.185C60.6418 114.817 60.0408 115.159 59.6705 114.948Z" fill="white"/>
<path d="M19.2967 221.239L38.922 209.699C40.5097 208.767 42.4664 208.767 44.0565 209.699L63.7036 221.252C65.4321 222.268 65.4321 224.812 63.7036 225.828L44.1973 237.299C42.6169 238.229 40.6699 238.234 39.0871 237.312L19.5 225.5C17.7594 224.489 17.5633 222.26 19.2967 221.239Z" fill="#3D0F9A"/>
<path d="M247.087 84L248 83.5248C241.087 70.5439 230.304 60.2844 223.217 56.267C215.522 51.9041 209.435 52.984 203.543 54.0424C199.152 54.8199 194.609 55.6407 189.326 54.2151C173.522 49.9818 170.239 35.7265 168.043 26.2878C167.435 23.6959 166.913 21.4496 166.239 19.8945C161.13 8.33913 155.457 7.0432 155.217 7L155 7.99355C155 7.99355 160.435 9.28948 165.304 20.3049C165.935 21.752 166.457 23.9551 167.043 26.5038C169.283 36.1801 172.674 50.8025 189.065 55.1871C194.565 56.6558 199.217 55.8351 203.717 55.0359C209.696 53.9776 215.348 52.9624 222.696 57.1526C229.652 61.1052 240.261 71.1919 247.065 84H247.087Z" fill="#FF5A00"/>
<path d="M246.5 79.3677C245.125 78.5059 244 79.2117 244 80.9334C244 82.655 245.125 84.7705 246.5 85.6323C247.875 86.4941 249 85.7883 249 84.0666C249 82.345 247.875 80.2295 246.5 79.3677Z" fill="#FF5A00"/>
<path d="M156.5 5.36771C155.125 4.50592 154 5.21173 154 6.93337C154 8.65501 155.125 10.7705 156.5 11.6323C157.875 12.4941 159 11.7883 159 10.0666C159 8.34499 157.875 6.22951 156.5 5.36771Z" fill="#FF5A00"/>
<path d="M177.5 45.3677C176.125 44.5059 175 45.2117 175 46.9334C175 48.655 176.125 50.7705 177.5 51.6323C178.875 52.4941 180 51.7883 180 50.0666C180 48.345 178.875 46.2295 177.5 45.3677Z" fill="#FF5A00"/>
<path d="M49 218L46.0038 224.908L44.287 223.865L35.89 229L31 226.028L39.397 220.892L37.6802 219.852L49 218Z" fill="#FF5A00"/>
</svg>
