<svg width="238" height="70" viewBox="0 0 238 70" fill="none" xmlns="http://www.w3.org/2000/svg">
<path d="M48.4412 29.7162L47.8754 30.3829V26.9162H42.1508V53.6495H47.9087V39.8162C47.9087 34.5495 50.9041 31.6162 56.3624 31.4829V26.5495C52.8012 26.6162 50.2052 27.6495 48.4412 29.7162Z" fill="#333333"/>
<path d="M144.028 18.3162H149.786V53.6829H144.028V18.3162Z" fill="#333333"/>
<path d="M24.0785 31.2829C28.8711 31.2829 32.4989 35.1495 32.4989 40.2829C32.4989 45.4162 28.8711 49.2829 24.0785 49.2829C19.3524 49.2829 15.7911 45.4162 15.7911 40.2829C15.7579 35.1495 19.3524 31.2829 24.0785 31.2829ZM10 40.2829C10 48.3162 16.0574 54.3495 24.0452 54.3495C29.3038 54.3495 32.4657 50.6495 32.4657 50.6495V53.6162H38.2235V40.2495C38.2235 32.2162 32.1328 26.1829 24.0452 26.1829C16.0574 26.2162 10 32.2829 10 40.2829Z" fill="#333333"/>
<path d="M75.9325 26.9162H81.6904V53.6495H75.9325V26.9162Z" fill="#333333"/>
<path d="M82.822 19.5162C82.822 17.3829 81.0913 15.6162 78.9279 15.6162C76.7979 15.6162 75.1005 17.3495 75.1005 19.5162C75.1005 21.6495 76.8311 23.3495 78.9279 23.3495C81.0913 23.3495 82.822 21.6495 82.822 19.5162Z" fill="#333333"/>
<path d="M98.7976 49.3162C94.0714 49.3162 90.5102 45.4495 90.5102 40.3162C90.5102 35.1829 94.0714 31.3162 98.7976 31.3162C102.192 31.3162 105.021 33.1829 106.386 36.3162H112.41C110.713 30.1829 105.421 26.2495 98.7976 26.2495C90.7765 26.2495 84.7524 32.3162 84.7524 40.3162C84.7524 48.3495 90.7765 54.3829 98.7976 54.3829C105.188 54.3829 110.446 50.6495 112.277 44.8162H106.153C104.722 47.6162 101.993 49.3162 98.7976 49.3162Z" fill="#333333"/>
<path d="M205.168 37.6829L205.301 37.2829C206.433 33.5829 209.462 31.3162 213.156 31.3162C216.917 31.3162 219.979 33.6162 221.111 37.2829L221.244 37.6829H205.168ZM213.156 26.2162C205.135 26.2162 199.111 32.2829 199.111 40.2829C199.111 48.2829 205.135 54.3495 213.156 54.3495C219.047 54.3495 223.973 51.1829 226.169 46.0495H219.746C218.182 48.1495 215.852 49.2829 213.189 49.2829C209.162 49.2829 205.9 46.4495 205.068 42.2495L205.002 41.8829H227.268C227.334 41.2829 227.368 40.7829 227.368 40.2829C227.334 32.2829 221.244 26.2162 213.156 26.2162Z" fill="#333333"/>
<path d="M153.614 18.3162H180.739V22.9162H153.614V18.3162Z" fill="#333333"/>
<path d="M65.5817 18.3162H59.8238V45.0495C59.8238 50.5829 62.8858 54.0495 67.8116 54.0495C69.5756 54.0495 71.7056 53.8162 72.4711 53.7162V48.7162C71.7389 48.8162 70.0082 49.0495 68.7768 49.0495C66.9795 49.0495 65.5817 47.5162 65.5817 45.5495V31.6495H72.4711V26.9162H65.5817V18.3162Z" fill="#333333"/>
<path d="M190.391 45.5162V31.6162H197.28V26.9162H190.391V18.3162H184.633V45.0495C184.633 50.5829 187.695 54.0495 192.621 54.0495C194.385 54.0495 196.515 53.7829 197.28 53.7162V48.7162C196.548 48.8162 194.817 49.0495 193.586 49.0495C191.822 49.0495 190.391 47.5162 190.391 45.5162Z" fill="#333333"/>
<path d="M167.126 31.2829C171.919 31.2829 175.547 35.1495 175.547 40.2829C175.547 45.4162 171.919 49.2829 167.126 49.2829C162.4 49.2829 158.839 45.4162 158.839 40.2829C158.839 35.1495 162.4 31.2829 167.126 31.2829ZM153.081 40.2829C153.081 48.3162 159.139 54.3495 167.126 54.3495C172.385 54.3495 175.547 50.6495 175.547 50.6495V53.6162H181.305V40.2495C181.305 32.2162 175.214 26.1829 167.126 26.1829C159.105 26.2162 153.081 32.2829 153.081 40.2829Z" fill="#333333"/>
<path d="M127.287 49.2495C121.995 49.2495 121.23 44.8829 121.23 40.2495V26.9162H115.505V41.6829C115.505 48.2162 118.9 54.3162 126.688 54.3162C131.78 54.3162 134.376 50.6495 134.376 50.6495V53.6162H140.134V26.9162H134.376V40.1162C134.376 46.3162 130.782 49.2495 127.287 49.2495Z" fill="#333333"/>
</svg>
