<svg width="285" height="70" viewBox="0 0 285 70" fill="none" xmlns="http://www.w3.org/2000/svg">
<path d="M29.8347 26.6537C29.1441 23.5337 25.7844 22.1981 22.7719 22.2356C20.4462 22.2842 17.8779 23.0773 16.493 24.8543C15.8179 25.782 15.5179 26.9313 15.6531 28.0716C15.9032 31.6368 19.8042 32.082 23.511 32.4299C28.2556 33.0247 34.1351 34.263 35.4565 39.8072C35.6107 40.5572 35.6944 41.3199 35.7066 42.0855C35.7066 48.7707 29.0843 52.6352 22.8577 52.6352C17.5196 52.6352 11.0466 49.4666 10.4045 43.2826L10.3672 42.3511L15.4067 42.2538L15.4552 43.0021V42.8113C15.8024 46.0323 19.7071 47.7158 22.9212 47.7158C26.628 47.7158 30.6783 45.6357 30.6783 42.0705C30.6707 41.6646 30.6194 41.2608 30.5253 40.8659C29.9317 38.2472 26.3742 37.7983 22.9137 37.4504C17.5308 36.9042 11.2071 35.7033 10.6621 28.4868V28.5355C10.4317 26.1832 11.0986 23.8308 12.5286 21.9512C14.8654 18.9285 19.0128 17.346 23.0183 17.346C28.3527 17.346 33.885 20.1181 34.7771 26.4554L29.8347 26.6537ZM85.7174 16.9981C89.2711 16.9892 92.7475 18.0369 95.707 20.0086C98.6664 21.9802 100.976 24.7873 102.343 28.0746C103.71 31.3619 104.073 34.9818 103.387 38.4761C102.701 41.9705 100.996 45.1823 98.4877 47.7053C95.9796 50.2283 92.781 51.9491 89.2968 52.6498C85.8126 53.3506 82.1992 53 78.9139 51.6422C75.6286 50.2845 72.8189 47.9807 70.8404 45.0223C68.8619 42.0639 67.8035 38.5838 67.7991 35.0224C67.7902 32.6586 68.2472 30.3163 69.1437 28.1299C70.0402 25.9435 71.3586 23.956 73.0234 22.2814C74.6881 20.6068 76.6664 19.278 78.8448 18.3714C81.0231 17.4648 83.3586 16.9981 85.7174 16.9981ZM85.7174 47.8504C88.2555 47.8556 90.7381 47.1058 92.8508 45.6959C94.9634 44.2861 96.6109 42.2796 97.5848 39.9306C98.5587 37.5816 98.815 34.9959 98.3214 32.5008C97.8278 30.0057 96.6064 27.7136 94.8119 25.9147C93.0174 24.1158 90.7305 22.8911 88.241 22.3956C85.7514 21.9002 83.1711 22.1564 80.8269 23.1317C78.4828 24.1069 76.4801 25.7575 75.0727 27.8743C73.6652 29.991 72.9163 32.4788 72.9207 35.0224C72.9183 36.7074 73.2475 38.3763 73.8897 39.9335C74.5319 41.4908 75.4743 42.9057 76.6631 44.0974C77.8518 45.289 79.2634 46.2339 80.8171 46.8779C82.3708 47.5219 84.036 47.8524 85.7174 47.8504ZM113.83 34.7755H119.661C123.865 34.7755 125.94 31.7565 125.94 28.7337C125.94 25.711 123.85 22.2954 119.661 22.2954H112.005V52.3547H107.051V17.245H119.65C127.165 17.245 130.916 23.2307 130.916 28.7337C130.916 33.6382 127.904 38.2921 121.976 39.3321L132.895 52.3547H126.433L113.83 37.1548V34.7755ZM140.514 52.3547H135.523V17.6902H139.573L150.988 34.5249L162.404 17.6902H166.357V52.3547H161.415V27.9406L152.373 41.4084H149.555L140.514 27.9406V52.3547ZM63.4053 43.8588C62.282 45.0194 60.9334 45.9371 59.4427 46.5554C57.9519 47.1737 56.3506 47.4795 54.7374 47.4539C53.1026 47.4541 51.4839 47.1303 49.9745 46.5011C48.4651 45.8719 47.0948 44.9497 45.9425 43.7877C43.684 41.3953 42.4395 38.2183 42.4708 34.9252C42.436 31.6087 43.6951 28.4098 45.9798 26.0103C47.1128 24.8221 48.4685 23.8695 49.9693 23.207C51.4702 22.5445 53.0866 22.1852 54.7262 22.1495C58.1381 22.1495 61.1693 23.399 63.3494 25.7895L66.7538 22.374C65.227 20.7125 63.3675 19.3925 61.2968 18.5003C59.2262 17.6081 56.991 17.1638 54.7374 17.1964C50.045 17.1964 45.5468 19.3737 42.5343 22.4937C39.3815 25.8609 37.631 30.3077 37.6403 34.9252C37.7061 39.5389 39.5057 43.958 42.6799 47.3005C44.2426 48.9217 46.1163 50.2095 48.1884 51.0864C50.2605 51.9633 52.4881 52.4113 54.7374 52.4033C56.9938 52.4291 59.2309 51.9837 61.3062 51.0955C63.3814 50.2073 65.2494 48.8958 66.7912 47.2444L63.4053 43.8588ZM175.152 49.6312C175.126 50.4414 174.787 51.2097 174.206 51.7737C173.625 52.3377 172.848 52.6534 172.039 52.6539C170.407 52.6539 169.071 51.1164 169.071 49.6312C169.054 49.2317 169.119 48.8331 169.261 48.4595C169.403 48.0859 169.619 47.7452 169.897 47.4582C170.175 47.1711 170.508 46.9438 170.876 46.79C171.244 46.6362 171.64 46.5591 172.039 46.5635C173.872 46.5523 175.152 47.8018 175.152 49.6312ZM215.521 52.9981C208.353 52.9981 201.19 48.3443 201.19 39.1338C201.19 29.9234 208.405 25.2695 215.681 25.2695C222.957 25.2695 230.008 29.9234 230.008 39.1338C230.008 48.3443 222.774 52.9981 215.521 52.9981ZM215.521 48.6435C220.373 48.6922 225.204 45.4711 225.204 39.1338C225.204 32.7965 220.411 29.5755 215.681 29.5755C210.828 29.5755 206.042 32.7441 206.042 39.1338C206.031 45.43 210.776 48.5912 215.521 48.6435ZM238.643 25.2695V29.033C240.472 26.3582 243.04 25.2695 246.153 25.2695C249.909 25.2695 253.268 26.1599 255.247 29.9234C256.874 26.953 259.891 25.3182 263.795 25.2695C271.157 25.2695 274.367 30.4658 274.367 37.2409V52.5043H269.514V37.3007C269.514 33.5372 268.577 29.7737 263.915 29.7737C259.174 29.7737 256.8 33.0434 256.8 37.4017V52.5043H251.947V37.4504C251.947 33.6869 250.513 29.7737 246.067 29.7737C241.816 29.7737 238.602 32.6955 238.602 37.9442V52.5043H233.749V25.2695H238.643ZM196.43 45.935C195.606 46.8208 194.606 47.5237 193.494 47.9986C192.383 48.4735 191.184 48.7097 189.976 48.6922C185.38 48.6922 180.834 45.5721 180.834 39.1338C180.834 32.6955 185.444 29.6241 189.923 29.6241C191.142 29.6075 192.35 29.8459 193.471 30.3238C194.592 30.8018 195.601 31.5089 196.434 32.4L199.73 29.0966C197.117 26.5752 193.496 25.3182 189.875 25.3182C182.909 25.3182 175.988 29.871 175.988 39.1338C175.988 48.3966 183.006 53.0467 189.976 52.9495C193.544 52.9195 197.106 51.6813 199.7 49.2084L196.43 45.935Z" fill="#3473B9"/>
</svg>
