<svg xmlns="http://www.w3.org/2000/svg" xmlns:xlink="http://www.w3.org/1999/xlink" viewBox="0 0 760 390" height="390" width="760" style="white-space: pre;"><style>
@keyframes pzwkfluro5owghd3c13j2j9j_do { 0% { stroke-dashoffset: 0px; } 9.091% { stroke-dashoffset: -5px; } 100% { stroke-dashoffset: -1.1px; } }
@keyframes eprobg8v2r62xoa94gecj8ki_do { 0% { stroke-dashoffset: 0px; } 9.091% { stroke-dashoffset: -5px; } 100% { stroke-dashoffset: -1.1px; } }
@keyframes ex76hz98fsl47fmz4c580sgz_do { 0% { stroke-dashoffset: 0px; } 9.091% { stroke-dashoffset: -10px; } 9.1% { stroke-dashoffset: 0px; } 18.182% { stroke-dashoffset: -10px; } 18.191% { stroke-dashoffset: 0px; } 27.273% { stroke-dashoffset: -10px; } 27.282% { stroke-dashoffset: 0px; } 36.364% { stroke-dashoffset: -10px; } 36.373% { stroke-dashoffset: 0px; } 45.455% { stroke-dashoffset: -10px; } 45.464% { stroke-dashoffset: 0px; } 54.545% { stroke-dashoffset: -10px; } 54.555% { stroke-dashoffset: 0px; } 63.636% { stroke-dashoffset: -10px; } 63.645% { stroke-dashoffset: 0px; } 72.727% { stroke-dashoffset: -10px; } 72.736% { stroke-dashoffset: 0px; } 81.818% { stroke-dashoffset: -10px; } 81.827% { stroke-dashoffset: 0px; } 90.909% { stroke-dashoffset: -10px; } 90.918% { stroke-dashoffset: 0px; } 100% { stroke-dashoffset: -10px; } }
@keyframes d2vi888jj7xaotpgaqbsxnib_f { 0% { fill: #d6f2d1; } 18.182% { fill: #d6f2d1; } 31.818% { fill: #f7fcf6; } 100% { fill: #f7fcf6; } }
@keyframes d2vi888jj7xaotpgaqbsxnib_w { 0% { width: 0px; } 18.182% { width: 0px; } 27.273% { width: 126px; } 100% { width: 126px; } }
@keyframes qx5r1lkdzr8qgi8ykc20vphr_f { 0% { fill: #8f95b2; } 18.182% { fill: #8f95b2; } 27.273% { fill: #3ab222; } 100% { fill: #3ab222; } }
@keyframes rrw705f42h9eswz70m18wurk_f { 0% { fill: #696f8c; } 18.182% { fill: #696f8c; } 27.273% { fill: #35aa00; } 100% { fill: #35aa00; } }
@keyframes gdutr5hil443p9gssc0y6h2m_o { 0% { opacity: 1; } 18.182% { opacity: 1; } 27.273% { opacity: 0; } 100% { opacity: 0; } }
@keyframes nuabwa7uuy8n4p07usnuiiha_o { 0% { opacity: 0; } 18.182% { opacity: 0; } 27.273% { opacity: 1; } 100% { opacity: 1; } }
@keyframes nuabwa7uuy8n4p07usnuiiha_f { 0% { fill: #35aa00; } 18.182% { fill: #35aa00; } 100% { fill: #35aa00; } }
@keyframes u417ob8rweannf4zxnq3a65i_f { 0% { fill: #d6f2d1; } 36.364% { fill: #d6f2d1; } 50% { fill: #f7fcf6; } 100% { fill: #f7fcf6; } }
@keyframes u417ob8rweannf4zxnq3a65i_w { 0% { width: 0px; } 36.364% { width: 0px; } 45.455% { width: 126px; } 100% { width: 126px; } }
@keyframes ue6n5sbzj610yh1exll42yw6_f { 0% { fill: #8f95b2; } 36.364% { fill: #8f95b2; } 45.455% { fill: #3ab222; } 100% { fill: #3ab222; } }
@keyframes ioer6dgzq3bodhtbxwcgmbpm_f { 0% { fill: #696f8c; } 36.364% { fill: #696f8c; } 45.455% { fill: #35aa00; } 100% { fill: #35aa00; } }
@keyframes s5ebksb464l1p5zxn58mtyen_o { 0% { opacity: 1; } 36.364% { opacity: 1; } 45.455% { opacity: 0; } 100% { opacity: 0; } }
@keyframes pkztk89d68u7qdwow3wnkpqt_o { 0% { opacity: 0; } 36.364% { opacity: 0; } 45.455% { opacity: 1; } 100% { opacity: 1; } }
@keyframes pkztk89d68u7qdwow3wnkpqt_f { 0% { fill: #35aa00; } 36.364% { fill: #35aa00; } 100% { fill: #35aa00; } }
@keyframes hfpp5vc1o3jswqvo7dphr3xh_f { 0% { fill: #d6f2d1; } 54.545% { fill: #d6f2d1; } 68.182% { fill: #f7fcf6; } 100% { fill: #f7fcf6; } }
@keyframes hfpp5vc1o3jswqvo7dphr3xh_w { 0% { width: 0px; } 54.545% { width: 0px; } 63.636% { width: 126px; } 100% { width: 126px; } }
@keyframes t3pyirwux3x0uzoe5dyzr1hq_f { 0% { fill: #8f95b2; } 54.545% { fill: #8f95b2; } 63.636% { fill: #3ab222; } 100% { fill: #3ab222; } }
@keyframes pk3qy1bgjzx24oe89h34b8lv_f { 0% { fill: #696f8c; } 54.545% { fill: #696f8c; } 63.636% { fill: #35aa00; } 100% { fill: #35aa00; } }
@keyframes wp6v69b73c037affhxqcnr10_o { 0% { opacity: 1; } 54.545% { opacity: 1; } 63.636% { opacity: 0; } 100% { opacity: 0; } }
@keyframes l4wn2cz7e4dzz3ynmlex7d8y_o { 0% { opacity: 0; } 54.545% { opacity: 0; } 63.636% { opacity: 1; } 100% { opacity: 1; } }
@keyframes l4wn2cz7e4dzz3ynmlex7d8y_f { 0% { fill: #35aa00; } 54.545% { fill: #35aa00; } 100% { fill: #35aa00; } }
@keyframes updcpy3w8k3cduja3ctr6hu9_do { 0% { stroke-dashoffset: 0px; } 50.909% { stroke-dashoffset: 0px; } 53.636% { stroke-dashoffset: 74px; } 64.545% { stroke-dashoffset: 74px; } 67.273% { stroke-dashoffset: 0px; } 100% { stroke-dashoffset: 0px; } }
@keyframes ibm37a1x2bmw5d9drsdcf7lx_o { 0% { opacity: 1; } 50% { opacity: 1; } 50.909% { opacity: 0; } 67.273% { opacity: 0; } 68.182% { opacity: 1; } 100% { opacity: 1; } }
@keyframes q53trf1aa56dqh5shyhmqtdx_o { 0% { opacity: 1; } 50% { opacity: 1; } 53.636% { opacity: 1; } 54.545% { opacity: 0; } 63.636% { opacity: 0; } 64.545% { opacity: 1; } 100% { opacity: 1; } }
@keyframes ici846pgul163pxkp2xn2i72_do { 0% { stroke-dashoffset: 0px; } 32.727% { stroke-dashoffset: 0px; } 35.455% { stroke-dashoffset: 67px; } 46.364% { stroke-dashoffset: 67px; } 49.091% { stroke-dashoffset: 0px; } 100% { stroke-dashoffset: 0px; } }
@keyframes yob6tngi7bp9i5qdons20no2_o { 0% { opacity: 1; } 31.818% { opacity: 1; } 32.727% { opacity: 0; } 49.091% { opacity: 0; } 50% { opacity: 1; } 100% { opacity: 1; } }
@keyframes j6mn8267x5dwv4ephsx4owjm_o { 0% { opacity: 1; } 31.818% { opacity: 1; } 35.455% { opacity: 1; } 36.364% { opacity: 0; } 45.455% { opacity: 0; } 46.364% { opacity: 1; } 100% { opacity: 1; } }
@keyframes v4gufq66eo93q3sw7wh2wo6t_do { 0% { stroke-dashoffset: 0px; } 14.545% { stroke-dashoffset: 0px; } 17.273% { stroke-dashoffset: 74px; } 28.182% { stroke-dashoffset: 74px; } 30.909% { stroke-dashoffset: 0px; } 100% { stroke-dashoffset: 0px; } }
@keyframes l1ij9sfnbze00ty39ahyr3qo_o { 0% { opacity: 1; } 13.636% { opacity: 1; } 14.545% { opacity: 0; } 30.909% { opacity: 0; } 31.818% { opacity: 1; } 100% { opacity: 1; } }
@keyframes zyjklrlfllmbq5qu2j5lgelj_o { 0% { opacity: 1; } 13.636% { opacity: 1; } 17.273% { opacity: 1; } 18.182% { opacity: 0; } 27.273% { opacity: 0; } 28.182% { opacity: 1; } 100% { opacity: 1; } }
@keyframes sh7vo7y0uc3nqiwqegts8700_f { 0% { fill: #8f95b2; } 9.091% { fill: #3ab222; } 77.273% { fill: #3ab222; } 86.364% { fill: #8f95b2; } 100% { fill: #8f95b2; } }
@keyframes tfdk33g2wrazuaa77ge0wpxb_f { 0% { fill: #696f8c; } 9.091% { fill: #35aa00; } 77.273% { fill: #35aa00; } 86.364% { fill: #696f8c; } 100% { fill: #696f8c; } }
@keyframes ivptwsoc2ffa68pm4mdm7rjj_o { 0% { opacity: 0; } 4.545% { opacity: 0; } 13.636% { opacity: 1; } 72.727% { opacity: 1; } 81.818% { opacity: 0; } 100% { opacity: 0; } }
@keyframes crh2tq1z4046k62s3gr8itc8_w { 0% { width: 0px; } 31.818% { width: 50px; } 100% { width: 50px; } }
@keyframes vm1srdkm897tklzzyxbs7mb7_w { 0% { width: 0px; } 31.818% { width: 0px; } 50% { width: 50px; } 100% { width: 50px; } }
@keyframes wixhnvt02iopbat6nxk4ngrs_w { 0% { width: 0px; } 50% { width: 0px; } 68.182% { width: 50px; } 100% { width: 50px; } }
</style><defs><symbol id="f0lap6htyk8og16k8nr53qoj" preserveAspectRatio="none" width="72.2" height="28.2" viewBox="0 0 72.2 28.2" overflow="visible"><path d="M2 24c20 0 24 0 34-10c10-10 14-10 34-10" stroke="#8f95b2" stroke-width="2" stroke-linecap="round" stroke-linejoin="round" fill="none" transform="translate(36,14) scale(1,-1) translate(-36,-14)"/><path d="M.3 4.6c-0.4-0.3-0.4-0.9 0-1.2l3.1-3.1c.4-0.4 1-0.4 1.3 0c.4 .3 .4 .9 0 1.3l-1.5 1.5v1.8l1.5 1.5c.4 .4 .4 1 0 1.3c-0.3 .4-0.9 .4-1.3 0Zm71.4 20c.4-0.3 .4-0.9 0-1.2l-3.1-3.1c-0.4-0.4-1-0.4-1.3 0c-0.4 .3-0.4 .9 0 1.3l1.5 1.5v1.8l-1.5 1.5c-0.4 .4-0.4 1 0 1.3c.3 .4 .9 .4 1.3 0Z" fill="#8f95b2" fill-rule="evenodd"/></symbol><symbol id="lpqwss6hlmz1rw6j53lvfe99" preserveAspectRatio="none" width="72.2" height="8.2" viewBox="0 0 72.2 8.2" overflow="visible"><path d="M0 0h67" stroke="#8f95b2" fill="none" stroke-linecap="round" stroke-width="2" transform="translate(2.5,4)" style="animation: 11s linear infinite both pzwkfluro5owghd3c13j2j9j_do;"/><path d="M3.4 3.1l1.4-1.4c.4-0.4 .4-1 0-1.3c-0.3-0.4-0.9-0.4-1.3 0l-3.1 3.1c-0.4 .3-0.4 .9 0 1.2l3.1 3.1c.4 .4 1 .4 1.3 0c.4-0.3 .4-0.9 0-1.3l-1.4-1.4Zm65.4 2l-1.4 1.4c-0.4 .4-0.4 1 0 1.3c.3 .4 .9 .4 1.3 0l3.1-3.1c.4-0.3 .4-0.9 0-1.2l-3.1-3.1c-0.4-0.4-1-0.4-1.3 0c-0.4 .3-0.4 .9 0 1.3l1.4 1.4Z" fill="#8f95b2" fill-rule="evenodd"/></symbol><symbol id="t3ww0jguhzwqy1tftc8cgp9x" preserveAspectRatio="none" width="71.1" height="8.2" viewBox="0 0 71.1 8.2" overflow="visible"><path d="M1 4h68.5" stroke="#8f95b2" fill="none" stroke-linecap="round" stroke-width="2"/><path d="M67.6 7.8l3.1-3.1c.4-0.3 .4-0.9 0-1.2l-3.1-3.1c-0.4-0.4-1-0.4-1.3 0c-0.4 .3-0.4 .9 0 1.3l1.4 1.4v2l-1.4 1.4c-0.4 .4-0.4 1 0 1.3c.3 .4 .9 .4 1.3 0Z" fill="#8f95b2" fill-rule="evenodd"/></symbol><symbol id="f3pyk8ugr3wm3c26ulzitbsi" preserveAspectRatio="none" width="72.2" height="28.2" viewBox="0 0 72.2 28.2" overflow="visible"><path d="M2 4c20 0 24 0 34 10c10 10 14 10 34 10" stroke="#8f95b2" stroke-width="2" stroke-linecap="round" stroke-linejoin="round" fill="none" transform="translate(36.1,14.1) scale(1,-1) translate(-36,-14)" style="animation: 11s linear infinite both eprobg8v2r62xoa94gecj8ki_do;"/><path d="M.4 24.7c-0.4-0.3-0.4-0.9 0-1.3l3.1-3c.4-0.4 1-0.4 1.3 0c.4 .3 .4 .9 0 1.3l-1.5 1.5v1.8l1.5 1.5c.4 .4 .4 1 0 1.3c-0.3 .4-0.9 .4-1.3 0Zm71.4-20c.4-0.3 .4-0.9 0-1.3l-3.1-3c-0.4-0.4-1-0.4-1.3 0c-0.4 .3-0.4 .9 0 1.3l1.5 1.5v1.8l-1.5 1.5c-0.4 .4-0.4 1 0 1.3c.3 .4 .9 .4 1.3 0Z" fill="#8f95b2" fill-rule="evenodd"/></symbol><symbol id="twpnb954bwnqlt8ixd7h1fz4" preserveAspectRatio="none" width="8.2" height="41.1" viewBox="0 0 8.2 41.1" overflow="visible"><g transform="translate(.1,.1)"><path d="M4 40v-37" stroke="#3ab222" stroke-width="2" stroke-linecap="round" stroke-linejoin="round" stroke-dasharray="2 3" fill="none" style="animation: 11s linear infinite both ex76hz98fsl47fmz4c580sgz_do;"/><path d="M4.6 .3c-0.3-0.4-0.9-0.4-1.2 0l-3.1 3.1c-0.4 .4-0.4 1 0 1.3c.3 .4 .9 .4 1.3 0l1.5-1.5h1.8l1.5 1.5c.4 .4 1 .4 1.3 0c.4-0.3 .4-0.9 0-1.3l-3.1-3.1Z" fill="#3ab222"/></g></symbol></defs><path d="M372.3 31.4c17.5-13.4 39.4-21.4 63.1-21.4c26.8 0 51.3 10.2 69.7 27c6.6 6 16.8 6.7 24.8 2.8c7.5-3.7 16-5.8 25-5.8c17.7 0 33.5 8.1 43.9 20.7c5.1 6.1 13.1 9.5 20.9 7.8c7.5-1.6 15.2-2.5 23.2-2.5c59.6 0 108 48.4 108 108c0 23.7-7.6 45.5-20.5 63.3c-3.7 5.1-4.7 12-3.7 18.6c.9 6.7 3.8 13.2 8 17.8c8.2 9.1 13.2 21.1 13.2 34.3c0 28.2-22.8 51-51 51c-8.5 0-16.6-2.1-23.6-5.8c-9.5-4.9-22.8-4.1-31.1 2.5c-10.4 8.3-23.5 13.3-37.8 13.3c-12.3 0-23.7-3.7-33.3-10c-8.9-5.9-22.1-5.6-30.1 1.8c-16.1 15-37.8 24.2-61.6 24.2c-24 0-45.9-9.4-62.1-24.6c-7.5-7.1-19.9-7.7-28.4-2c-11 7.3-24.3 11.6-38.5 11.6c-38.4 0-69.5-31.1-69.5-69.5c0-7.2 1.1-14.2 3.2-20.8c.9-2.9 0-6-2.1-8.2c-2.5-2.6-6.5-3.7-9.8-2c-14.5 7.4-30.9 11.5-48.3 11.5c-59.1 0-107-47.9-107-107c0-59.1 47.9-107 107-107c8.5 0 16.7 1 24.6 2.8c8.1 1.9 16.6-1.7 21.5-8.3c12.3-16.7 32.1-27.5 54.4-27.5c9.6 0 18.8 2 27.1 5.7c6.8 2.9 14.9 2.3 20.8-2.3Z" fill="#fafbff" stroke="#e5f0ff" stroke-width="2"/><rect x="337.9" y="88" width="190" height="164" rx="8" fill="#e5f0ff"/><path fill="#fff" d="M495.9 120h-126v24h126Zm-220 13h-106.5v73h106.5Zm420.1 0h-106v73h106Zm-200.1 25h-126v24h126Zm-126 38h126v24h-126Zm-30 88h356v24.5h-356Z" fill-rule="evenodd"/><g transform="translate(9.1,94.8)"><path d="M54.8 25.2h5c2.8 0 5 2.2 5 5v37.9c0 1.4 .5 2.6 1.5 3.6l2.1 2.1c.8 .8 .8 2 0 2.8l-2.1 2.1c-1 1-1.5 2.2-1.5 3.6v37.9c0 2.8-2.2 5-5 5h-5" stroke="#8f95b2" stroke-width="2" stroke-linecap="round" fill="none"/><path fill-rule="evenodd" clip-rule="evenodd" d="M18.3 35c.5-0.3 .6-0.9 .3-1.3c-0.3-0.5-0.9-0.6-1.3-0.3l-7 4.5c-0.5 .3-0.6 .9-0.3 1.3c.3 .5 .9 .6 1.3 .3l7-4.5Zm7 0c.5-0.3 .6-0.9 .3-1.3c-0.3-0.5-0.9-0.6-1.3-0.3l-7 4.5c-0.5 .3-0.6 .9-0.3 1.3c.3 .5 .9 .6 1.3 .3l7-4.5Zm-8.5 13.2h2c.6 0 1 .4 1 1c0 .6-0.4 1-1 1h-2c-0.6 0-1-0.4-1-1c0-0.6 .4-1 1-1Zm-15-18c0-2.8 2.2-5 5-5h22c2.8 0 5 2.2 5 5v15.3c.6 .3 1 1 1 1.7v2.4c0 .4-0.1 .8-0.3 1.1l-1.1 1.6c-0.4 .6-1 .9-1.7 .9h-27.8c-0.7 0-1.3-0.3-1.7-0.9l-1.1-1.6c-0.2-0.3-0.3-0.7-0.3-1.1v-2.4c0-0.7 .4-1.4 1-1.7v-15.3Zm27-3h-22c-1.7 0-3 1.3-3 3v15h28v-15c0-1.7-1.3-3-3-3Zm-26 20h30v2.4l-1.1 1.6h-27.8l-1.1-1.6v-2.4Z" fill="#8f95b2"/><path fill-rule="evenodd" clip-rule="evenodd" d="M18.3 107c.5-0.3 .6-0.9 .3-1.3c-0.3-0.5-0.9-0.6-1.3-0.3l-7 4.5c-0.5 .3-0.6 .9-0.3 1.3c.3 .5 .9 .6 1.3 .3l7-4.5Zm7 0c.5-0.3 .6-0.9 .3-1.3c-0.3-0.5-0.9-0.6-1.3-0.3l-7 4.5c-0.5 .3-0.6 .9-0.3 1.3c.3 .5 .9 .6 1.3 .3l7-4.5Zm-8.5 13.2h2c.6 0 1 .4 1 1c0 .6-0.4 1-1 1h-2c-0.6 0-1-0.4-1-1c0-0.6 .4-1 1-1Zm-15-18c0-2.8 2.2-5 5-5h22c2.8 0 5 2.2 5 5v15.3c.6 .3 1 1 1 1.7v2.4c0 .4-0.1 .8-0.3 1.1l-1.1 1.6c-0.4 .6-1 .9-1.7 .9h-27.8c-0.7 0-1.3-0.3-1.7-0.9l-1.1-1.6c-0.2-0.3-0.3-0.7-0.3-1.1v-2.4c0-0.7 .4-1.4 1-1.7v-15.3Zm27-3h-22c-1.7 0-3 1.3-3 3v15h28v-15c0-1.7-1.3-3-3-3Zm-26 20h30v2.4l-1.1 1.6h-27.8l-1.1-1.6v-2.4Z" fill="#8f95b2"/><path d="M10.8 75.2c0 1.1-0.9 2-2 2c-1.1 0-2-0.9-2-2c0-1.1 .9-2 2-2c1.1 0 2 .9 2 2Zm9 0c0 1.1-0.9 2-2 2c-1.1 0-2-0.9-2-2c0-1.1 .9-2 2-2c1.1 0 2 .9 2 2Zm7 2c1.1 0 2-0.9 2-2c0-1.1-0.9-2-2-2c-1.1 0-2 .9-2 2c0 1.1 .9 2 2 2Z" fill="#8f95b2" fill-rule="evenodd"/><path d="M6.5 0h1.5v6.7c0 .7-0.1 1.4-0.5 1.9c-0.3 .6-0.8 1-1.4 1.3c-0.6 .3-1.3 .5-2.1 .5c-0.8 0-1.5-0.2-2.1-0.5c-0.6-0.3-1.1-0.7-1.4-1.3c-0.4-0.5-0.5-1.2-0.5-1.9v-6.7h1.5v6.6c0 .5 .1 .9 .3 1.2c.2 .4 .5 .7 .9 .9c.3 .2 .8 .3 1.3 .3c.5 0 1-0.1 1.3-0.3c.4-0.2 .7-0.5 .9-0.9c.2-0.3 .3-0.7 .3-1.2v-6.6Zm9.4 4.4l-1.4 .3c0-0.2-0.1-0.4-0.2-0.5c-0.2-0.2-0.3-0.3-0.5-0.4c-0.2-0.1-0.5-0.2-0.8-0.2c-0.4 0-0.8 .1-1 .3c-0.3 .2-0.5 .5-0.5 .7c0 .3 .1 .5 .3 .7c.2 .1 .5 .2 .9 .3l1.2 .3c.7 .2 1.3 .4 1.6 .8c.4 .3 .5 .8 .5 1.3c0 .5-0.1 .9-0.4 1.2c-0.2 .4-0.6 .6-1.1 .9c-0.4 .2-1 .3-1.6 .3c-0.8 0-1.5-0.2-2.1-0.6c-0.5-0.4-0.9-0.9-1-1.6l1.5-0.2c0 .4 .2 .7 .5 .9c.3 .2 .7 .3 1.1 .3c.5 0 .9-0.1 1.2-0.3c.3-0.3 .4-0.5 .4-0.8c0-0.2-0.1-0.4-0.3-0.6c-0.1-0.2-0.4-0.3-0.8-0.4l-1.3-0.3c-0.7-0.1-1.2-0.4-1.5-0.7c-0.4-0.4-0.6-0.8-0.6-1.4c0-0.4 .2-0.8 .4-1.2c.3-0.3 .6-0.6 1.1-0.7c.4-0.2 .9-0.3 1.5-0.3c.8 0 1.5 .1 1.9 .5c.5 .4 .8 .8 1 1.4Zm5.1 6c-0.8 0-1.4-0.2-2-0.5c-0.5-0.4-0.9-0.8-1.2-1.4c-0.3-0.6-0.5-1.3-0.5-2.1c0-0.8 .2-1.4 .5-2c.3-0.6 .7-1.1 1.2-1.4c.5-0.4 1.1-0.5 1.9-0.5c.4 0 .8 0 1.2 .2c.4 .1 .8 .3 1.1 .6c.3 .4 .6 .8 .8 1.2c.1 .5 .2 1.1 .2 1.8v.5h-6v-1.1h4.6c0-0.4-0.1-0.7-0.3-1c-0.1-0.3-0.3-0.6-0.6-0.7c-0.3-0.2-0.7-0.3-1-0.3c-0.5 0-0.8 .1-1.1 .3c-0.3 .2-0.6 .5-0.7 .8c-0.2 .3-0.3 .7-0.3 1.1v.8c0 .5 .1 1 .3 1.3c.2 .4 .4 .7 .7 .8c.4 .2 .7 .3 1.2 .3c.3 0 .5 0 .7-0.1c.3-0.1 .5-0.2 .6-0.4c.2-0.1 .3-0.3 .4-0.6l1.4 .3c-0.1 .4-0.3 .8-0.6 1.1c-0.3 .3-0.6 .5-1.1 .7c-0.4 .2-0.9 .3-1.4 .3Zm4.9-0.2v-7.6h1.4v1.2h.1c.1-0.4 .4-0.8 .7-1c.4-0.2 .8-0.4 1.2-0.4c.1 0 .2 .1 .4 .1c.1 0 .2 0 .3 0v1.4c-0.1 0-0.2 0-0.3 0c-0.2-0.1-0.4-0.1-0.5-0.1c-0.4 0-0.7 .1-0.9 .2c-0.3 .2-0.5 .4-0.7 .7c-0.2 .2-0.2 .5-0.2 .8v4.7h-1.5Zm11.1-5.8l-1.4 .3c0-0.2-0.1-0.4-0.2-0.5c-0.2-0.2-0.3-0.3-0.5-0.4c-0.2-0.1-0.5-0.2-0.8-0.2c-0.4 0-0.8 .1-1 .3c-0.3 .2-0.5 .5-0.5 .7c0 .3 .1 .5 .3 .7c.2 .1 .5 .2 .9 .3l1.2 .3c.7 .2 1.3 .4 1.6 .8c.4 .3 .5 .8 .5 1.3c0 .5-0.1 .9-0.4 1.2c-0.2 .4-0.6 .6-1.1 .9c-0.4 .2-1 .3-1.6 .3c-0.9 0-1.5-0.2-2.1-0.6c-0.5-0.4-0.9-0.9-1-1.6l1.5-0.2c0 .4 .2 .7 .5 .9c.3 .2 .6 .3 1.1 .3c.5 0 .9-0.1 1.2-0.3c.3-0.3 .4-0.5 .4-0.8c0-0.2-0.1-0.4-0.3-0.6c-0.1-0.2-0.4-0.3-0.8-0.4l-1.3-0.3c-0.7-0.1-1.2-0.4-1.6-0.7c-0.3-0.4-0.5-0.8-0.5-1.4c0-0.4 .2-0.8 .4-1.2c.3-0.3 .6-0.6 1.1-0.7c.4-0.2 .9-0.3 1.5-0.3c.8 0 1.5 .1 1.9 .5c.5 .4 .8 .8 1 1.4Z" fill="#696f8c"/></g><g transform="translate(167.9,105.8)"><path d="M5 25.2h100c1.4 0 2.6 .5 3.5 1.5c1 .9 1.5 2.1 1.5 3.5v67c0 1.4-0.5 2.6-1.5 3.5c-0.9 1-2.1 1.5-3.5 1.5h-100c-1.4 0-2.6-0.5-3.5-1.5c-1-0.9-1.5-2.1-1.5-3.5v-67c0-1.4 .5-2.6 1.5-3.5c.9-1 2.1-1.5 3.5-1.5Zm0 2c-0.8 0-1.5 .3-2.1 .9c-0.6 .6-0.9 1.3-0.9 2.1v67c0 .8 .3 1.5 .9 2.1c.6 .6 1.3 .9 2.1 .9h100c.8 0 1.5-0.3 2.1-0.9c.6-0.6 .9-1.3 .9-2.1v-67c0-0.8-0.3-1.5-0.9-2.1c-0.6-0.6-1.3-0.9-2.1-0.9Zm5 46h90c.6 0 1 .4 1 1c0 .6-0.4 1-1 1h-90c-0.6 0-1-0.4-1-1c0-0.6 .4-1 1-1Zm28 11h-26c-0.6 0-1 .2-1.4 .6c-0.4 .4-0.6 .8-0.6 1.4v4c0 .6 .2 1 .6 1.4c.4 .4 .8 .6 1.4 .6h26c.6 0 1-0.2 1.4-0.6c.4-0.4 .6-0.8 .6-1.4v-4c0-0.6-0.2-1-0.6-1.4c-0.4-0.4-0.8-0.6-1.4-0.6Zm15 0h-6c-0.6 0-1 .2-1.4 .6c-0.4 .4-0.6 .8-0.6 1.4v4c0 .6 .2 1 .6 1.4c.4 .4 .8 .6 1.4 .6h6c.6 0 1-0.2 1.4-0.6c.4-0.4 .6-0.8 .6-1.4v-4c0-0.6-0.2-1-0.6-1.4c-0.4-0.4-0.8-0.6-1.4-0.6Zm43 0c1.1 0 2 .4 2.8 1.2c.8 .8 1.2 1.7 1.2 2.8c0 1.1-0.4 2-1.2 2.8c-0.8 .8-1.7 1.2-2.8 1.2c-1.1 0-2-0.4-2.8-1.2c-0.8-0.8-1.2-1.7-1.2-2.8c0-1.1 .4-2 1.2-2.8c.8-0.8 1.7-1.2 2.8-1.2Zm-84 6v-4h26v4Zm35 0v-4h6v4Zm49-4c-0.6 0-1 .2-1.4 .6c-0.4 .4-0.6 .8-0.6 1.4c0 .6 .2 1 .6 1.4c.4 .4 .8 .6 1.4 .6c.6 0 1-0.2 1.4-0.6c.4-0.4 .6-0.8 .6-1.4c0-0.6-0.2-1-0.6-1.4c-0.4-0.4-0.8-0.6-1.4-0.6Zm-39-28h-4v4h4v-4Zm-4-2c-1.1 0-2 .9-2 2v4c0 1.1 .9 2 2 2h4c1.1 0 2-0.9 2-2v-4c0-1.1-0.9-2-2-2h-2h-2Zm15 2h-4v4h4v-4Zm-4-2c-1.1 0-2 .9-2 2v4c0 1.1 .9 2 2 2h4c1.1 0 2-0.9 2-2v-4c0-1.1-0.9-2-2-2h-2h-2Zm-18 2h-4v4h4v-4Zm-4-2c-1.1 0-2 .9-2 2v4c0 1.1 .9 2 2 2h4c1.1 0 2-0.9 2-2v-4c0-1.1-0.9-2-2-2h-2h-2Zm15-21h-4c-1.1 0-2 .9-2 2v4c0 1.1 .9 2 2 2h1v4h-9c-1.1 0-2 .9-2 2v3.6l-0.7-0.7c-0.3-0.4-1-0.4-1.4 0c-0.4 .4-0.4 1.1 0 1.4l2.4 2.4c.2 .2 .4 .3 .7 .3c.3 0 .5-0.1 .7-0.3l2.4-2.4c.4-0.3 .4-1 0-1.4c-0.4-0.4-1.1-0.4-1.4 0l-0.7 .7v-3.6h9v3.6l-0.7-0.7c-0.3-0.4-1-0.4-1.4 0c-0.4 .4-0.4 1.1 0 1.4l2.4 2.4c.2 .2 .4 .3 .7 .3c.3 0 .5-0.1 .7-0.3l2.4-2.4c.4-0.3 .4-1 0-1.4c-0.4-0.4-1.1-0.4-1.4 0l-0.7 .7v-3.6h9v3.6l-0.7-0.7c-0.3-0.4-1-0.4-1.4 0c-0.4 .4-0.4 1.1 0 1.4l2.4 2.4c.2 .2 .4 .3 .7 .3c.3 0 .5-0.1 .7-0.3l2.4-2.4c.4-0.3 .4-1 0-1.4c-0.4-0.4-1.1-0.4-1.4 0l-0.7 .7v-3.6c0-1.1-0.9-2-2-2h-9v-4h1c1.1 0 2-0.9 2-2v-4c0-1.1-0.9-2-2-2Zm0 2h-4v4h4v-4Z" fill="#8f95b2" fill-rule="evenodd"/><path d="M8.5 10.2v-10.2h1.5v8.9h4.6v1.3h-6.1Zm11 .2c-0.7 0-1.4-0.2-1.9-0.5c-0.5-0.4-0.9-0.8-1.2-1.4c-0.3-0.6-0.5-1.3-0.5-2.1c0-0.8 .2-1.5 .5-2.1c.3-0.6 .7-1 1.2-1.3c.5-0.4 1.2-0.5 1.9-0.5c.7 0 1.3 .1 1.9 .5c.5 .3 .9 .7 1.2 1.3c.3 .6 .4 1.3 .4 2.1c0 .8-0.1 1.5-0.4 2.1c-0.3 .6-0.7 1-1.2 1.4c-0.6 .3-1.2 .5-1.9 .5Zm0-1.3c.5 0 .8-0.1 1.1-0.4c.3-0.2 .6-0.5 .7-0.9c.2-0.4 .2-0.9 .2-1.4c0-0.5 0-0.9-0.2-1.3c-0.1-0.4-0.4-0.8-0.7-1c-0.3-0.3-0.6-0.4-1.1-0.4c-0.5 0-0.9 .1-1.2 .4c-0.3 .2-0.5 .6-0.7 1c-0.1 .4-0.2 .8-0.2 1.3c0 .5 .1 1 .2 1.4c.2 .4 .4 .7 .7 .9c.3 .3 .7 .4 1.2 .4Zm7.4 1.3c-0.5 0-0.9-0.1-1.3-0.3c-0.4-0.2-0.7-0.4-0.9-0.8c-0.2-0.3-0.4-0.8-0.4-1.3c0-0.4 .1-0.7 .3-1c.2-0.3 .4-0.5 .7-0.7c.2-0.1 .6-0.3 .9-0.4c.4 0 .7-0.1 1.1-0.1c.4-0.1 .8-0.1 1.1-0.2c.3 0 .5-0.1 .6-0.1c.1-0.1 .2-0.3 .2-0.4v-0.1c0-0.4-0.1-0.7-0.4-1c-0.2-0.2-0.6-0.3-1-0.3c-0.5 0-0.9 .1-1.2 .3c-0.3 .2-0.5 .5-0.6 .7l-1.4-0.3c.1-0.5 .4-0.8 .7-1.1c.3-0.3 .7-0.5 1.1-0.6c.4-0.2 .9-0.2 1.3-0.2c.3 0 .7 0 1 .1c.3 0 .7 .2 1 .4c.3 .2 .5 .4 .7 .8c.2 .3 .3 .8 .3 1.3v5.1h-1.5v-1c-0.1 .1-0.3 .3-0.4 .5c-0.2 .2-0.5 .4-0.8 .5c-0.3 .1-0.7 .2-1.1 .2Zm.4-1.2c.4 0 .7-0.1 1-0.3c.3-0.1 .5-0.3 .7-0.6c.1-0.3 .2-0.6 .2-0.9v-0.9c0 0-0.1 .1-0.3 .1c-0.1 .1-0.3 .1-0.5 .1c-0.2 .1-0.4 .1-0.6 .1c-0.2 0-0.3 .1-0.4 .1c-0.3 0-0.6 .1-0.8 .2c-0.3 0-0.4 .2-0.6 .3c-0.1 .2-0.2 .4-0.2 .7c0 .3 .1 .6 .4 .8c.3 .2 .6 .3 1.1 .3Zm8.2 1.1c-0.6 0-1.1-0.1-1.6-0.4c-0.5-0.3-0.9-0.8-1.1-1.4c-0.3-0.6-0.5-1.3-0.5-2.1c0-0.8 .2-1.5 .5-2.1c.2-0.6 .6-1.1 1.1-1.4c.5-0.3 1-0.4 1.6-0.4c.5 0 .9 0 1.2 .2c.3 .2 .5 .3 .7 .6c.1 .2 .3 .3 .3 .5h.1v-3.8h1.5v10.2h-1.4v-1.2h-0.2c0 .2-0.2 .4-0.3 .6c-0.2 .2-0.4 .4-0.7 .5c-0.3 .2-0.7 .2-1.2 .2Zm.4-1.2c.4 0 .8-0.1 1-0.4c.3-0.2 .6-0.5 .7-0.9c.2-0.4 .3-0.9 .3-1.4c0-0.5-0.1-1-0.3-1.4c-0.1-0.4-0.3-0.7-0.6-0.9c-0.3-0.3-0.7-0.4-1.1-0.4c-0.5 0-0.9 .1-1.2 .4c-0.3 .2-0.5 .5-0.6 .9c-0.2 .4-0.3 .9-0.3 1.4c0 .5 .1 1 .3 1.4c.1 .4 .4 .7 .6 .9c.4 .3 .7 .4 1.2 .4Zm9.4 1.1v-10.2h3.7c.7 0 1.3 .1 1.8 .4c.5 .2 .8 .5 1 .9c.3 .4 .4 .9 .4 1.4c0 .4-0.1 .8-0.2 1.1c-0.2 .3-0.4 .5-0.7 .7c-0.2 .1-0.5 .3-0.8 .3v.1c.3 .1 .7 .2 1 .4c.3 .2 .6 .5 .8 .8c.2 .4 .3 .8 .3 1.4c0 .5-0.1 .9-0.4 1.4c-0.2 .4-0.6 .7-1.1 .9c-0.5 .3-1.1 .4-1.9 .4h-3.9Zm1.5-1.3h2.2c.8 0 1.3-0.2 1.6-0.4c.3-0.3 .5-0.7 .5-1.1c0-0.3-0.1-0.6-0.3-0.9c-0.1-0.3-0.4-0.5-0.7-0.6c-0.3-0.2-0.6-0.3-1-0.3h-2.3v3.3Zm0-4.5h2.1c.3 0 .6 0 .9-0.2c.3-0.1 .5-0.3 .6-0.5c.2-0.3 .3-0.6 .3-0.9c0-0.4-0.1-0.8-0.4-1c-0.3-0.3-0.8-0.5-1.4-0.5h-2.1v3.1Zm9.7 6c-0.5 0-0.9-0.1-1.3-0.3c-0.4-0.2-0.7-0.4-0.9-0.8c-0.2-0.3-0.4-0.8-0.4-1.3c0-0.4 .1-0.7 .3-1c.2-0.3 .4-0.5 .7-0.7c.2-0.1 .6-0.3 .9-0.4c.4 0 .7-0.1 1.1-0.1c.4-0.1 .8-0.1 1.1-0.2c.3 0 .5-0.1 .6-0.1c.1-0.1 .2-0.3 .2-0.4v-0.1c0-0.4-0.1-0.7-0.4-1c-0.2-0.2-0.6-0.3-1-0.3c-0.5 0-0.9 .1-1.2 .3c-0.3 .2-0.5 .5-0.6 .7l-1.4-0.3c.1-0.5 .4-0.8 .7-1.1c.3-0.3 .7-0.5 1.1-0.6c.4-0.2 .9-0.2 1.3-0.2c.3 0 .7 0 1 .1c.3 0 .7 .2 1 .4c.3 .2 .5 .4 .7 .8c.2 .3 .3 .8 .3 1.3v5.1h-1.5v-1c-0.1 .1-0.3 .3-0.4 .5c-0.2 .2-0.5 .4-0.8 .5c-0.3 .1-0.7 .2-1.1 .2Zm.3-1.2c.5 0 .8-0.1 1.1-0.3c.3-0.1 .5-0.3 .7-0.6c.1-0.3 .2-0.6 .2-0.9v-0.9c0 0-0.1 .1-0.3 .1c-0.1 .1-0.3 .1-0.5 .1c-0.2 .1-0.4 .1-0.6 .1c-0.2 0-0.3 .1-0.4 .1c-0.3 0-0.6 .1-0.8 .2c-0.3 0-0.4 .2-0.6 .3c-0.1 .2-0.2 .4-0.2 .7c0 .3 .1 .6 .4 .8c.3 .2 .6 .3 1 .3Zm7-9.2v10.2h-1.5v-10.2h1.5Zm4.2 10.4c-0.5 0-0.9-0.1-1.3-0.3c-0.4-0.2-0.7-0.4-1-0.8c-0.2-0.3-0.3-0.8-0.3-1.3c0-0.4 .1-0.7 .3-1c.1-0.3 .3-0.5 .6-0.7c.3-0.1 .6-0.3 1-0.4c.3 0 .7-0.1 1-0.1c.5-0.1 .9-0.1 1.1-0.2c.3 0 .5-0.1 .7-0.1c.1-0.1 .2-0.3 .2-0.4v-0.1c0-0.4-0.2-0.7-0.4-1c-0.2-0.2-0.6-0.3-1.1-0.3c-0.5 0-0.9 .1-1.2 .3c-0.3 .2-0.5 .5-0.6 .7l-1.4-0.3c.2-0.5 .4-0.8 .8-1.1c.3-0.3 .7-0.5 1.1-0.6c.4-0.2 .8-0.2 1.3-0.2c.3 0 .6 0 1 .1c.3 0 .6 .2 .9 .4c.3 .2 .6 .4 .8 .8c.2 .3 .3 .8 .3 1.3v5.1h-1.5v-1h-0.1c-0.1 .1-0.2 .3-0.4 .5c-0.2 .2-0.4 .4-0.7 .5c-0.3 .1-0.7 .2-1.1 .2Zm.3-1.2c.4 0 .8-0.1 1.1-0.3c.3-0.1 .5-0.3 .6-0.6c.2-0.3 .3-0.6 .3-0.9v-0.9c-0.1 0-0.2 .1-0.3 .1c-0.2 .1-0.4 .1-0.6 .1c-0.1 .1-0.3 .1-0.5 .1c-0.2 0-0.4 .1-0.5 .1c-0.3 0-0.5 .1-0.8 .2c-0.2 0-0.4 .2-0.5 .3c-0.2 .2-0.2 .4-0.2 .7c0 .3 .1 .6 .4 .8c.2 .2 .6 .3 1 .3Zm6.9-3.5v4.5h-1.5v-7.6h1.5v1.2h.1c.1-0.4 .4-0.7 .8-1c.4-0.2 .8-0.3 1.4-0.3c.5 0 1 .1 1.4 .3c.4 .2 .7 .5 .9 1c.2 .4 .3 .9 .3 1.5v4.9h-1.5v-4.7c0-0.5-0.1-1-0.4-1.3c-0.3-0.3-0.7-0.4-1.2-0.4c-0.3 0-0.7 0-0.9 .2c-0.3 .1-0.5 .3-0.7 .6c-0.1 .3-0.2 .7-0.2 1.1Zm10.1 4.7c-0.7 0-1.4-0.2-1.9-0.5c-0.5-0.4-0.9-0.9-1.2-1.4c-0.3-0.6-0.4-1.3-0.4-2.1c0-0.8 .1-1.4 .4-2c.3-0.6 .7-1.1 1.2-1.4c.6-0.4 1.2-0.5 1.9-0.5c.6 0 1.1 .1 1.6 .3c.4 .2 .8 .5 1.1 .9c.2 .4 .4 .8 .5 1.3h-1.5c-0.1-0.3-0.3-0.6-0.5-0.9c-0.3-0.3-0.7-0.4-1.2-0.4c-0.4 0-0.8 .1-1.1 .3c-0.3 .3-0.5 .6-0.7 1c-0.2 .4-0.2 .8-0.2 1.4c0 .5 0 1 .2 1.4c.2 .4 .4 .7 .7 1c.3 .2 .7 .3 1.1 .3c.3 0 .6-0.1 .8-0.2c.2-0.1 .4-0.2 .6-0.4c.1-0.2 .2-0.4 .3-0.7h1.5c-0.1 .5-0.3 .9-0.5 1.3c-0.3 .4-0.7 .7-1.1 .9c-0.5 .2-1 .4-1.6 .4Zm8 0c-0.7 0-1.4-0.2-1.9-0.5c-0.6-0.4-1-0.8-1.3-1.4c-0.3-0.6-0.4-1.3-0.4-2.1c0-0.8 .1-1.4 .4-2c.3-0.6 .7-1.1 1.3-1.4c.5-0.4 1.1-0.5 1.8-0.5c.5 0 .9 0 1.3 .2c.4 .1 .7 .3 1.1 .6c.3 .4 .5 .7 .7 1.2c.2 .5 .3 1.1 .3 1.8v.5h-6.1v-1.1h4.7c0-0.4-0.1-0.7-0.3-1c-0.1-0.3-0.4-0.6-0.7-0.7c-0.2-0.2-0.6-0.3-1-0.3c-0.4 0-0.7 .1-1.1 .3c-0.3 .2-0.5 .5-0.7 .8c-0.1 .3-0.2 .7-0.2 1.1v.8c0 .5 .1 1 .2 1.3c.2 .4 .5 .7 .8 .8c.3 .2 .7 .3 1.1 .3c.3 0 .6 0 .8-0.1c.3-0.1 .5-0.2 .6-0.4c.2-0.1 .3-0.3 .4-0.6l1.4 .3c-0.1 .4-0.3 .8-0.6 1.1c-0.3 .3-0.6 .5-1.1 .7c-0.4 .2-0.9 .3-1.5 .3Zm5-0.2v-7.6h1.4v1.2h.1c.1-0.4 .4-0.8 .7-1c.4-0.2 .8-0.4 1.2-0.4c.1 0 .2 .1 .3 .1c.2 0 .3 0 .3 0v1.4c0 0-0.1 0-0.3 0c-0.1-0.1-0.3-0.1-0.4-0.1c-0.4 0-0.7 .1-1 .2c-0.2 .2-0.5 .4-0.6 .7c-0.2 .2-0.3 .5-0.3 .8v4.7h-1.4Z" fill="#696f8c"/></g><use x="87.9" y="165.9" width="71.1" height="8.2" xlink:href="#t3ww0jguhzwqy1tftc8cgp9x"/><g transform="translate(337.9,62.7)"><path d="M80.9 3.4h-1.5c-0.1-0.3-0.2-0.6-0.4-0.8c-0.1-0.3-0.3-0.5-0.6-0.7c-0.2-0.2-0.5-0.3-0.8-0.4c-0.2-0.1-0.6-0.1-0.9-0.1c-0.6 0-1.1 .1-1.6 .4c-0.4 .3-0.8 .8-1.1 1.3c-0.2 .6-0.3 1.3-0.3 2.1c0 .8 .1 1.5 .3 2.1c.3 .6 .7 1 1.1 1.3c.5 .3 1 .4 1.6 .4c.3 0 .6 0 .9-0.1c.3-0.1 .6-0.2 .8-0.4c.3-0.2 .5-0.4 .6-0.6c.2-0.3 .3-0.6 .4-0.9h1.5c-0.1 .5-0.2 1-0.5 1.4c-0.2 .4-0.5 .8-0.9 1.1c-0.4 .3-0.8 .5-1.2 .7c-0.5 .2-1 .2-1.6 .2c-0.9 0-1.7-0.2-2.4-0.6c-0.6-0.4-1.2-1-1.6-1.8c-0.4-0.8-0.6-1.7-0.6-2.8c0-1.1 .2-2 .6-2.8c.4-0.8 1-1.4 1.7-1.8c.6-0.4 1.4-0.6 2.3-0.6c.5 0 1 .1 1.5 .2c.5 .2 .9 .4 1.3 .7c.4 .3 .7 .6 .9 1.1c.3 .4 .4 .9 .5 1.4Zm3.2-3.3v10.2h-1.5v-10.2h1.5Zm6.9 7v-4.4h1.4v7.6h-1.4v-1.3h-0.1c-0.2 .4-0.5 .7-0.8 1c-0.4 .3-0.9 .4-1.5 .4c-0.5 0-0.9-0.1-1.3-0.3c-0.4-0.2-0.7-0.6-0.9-1c-0.2-0.4-0.3-0.9-0.3-1.6v-4.8h1.5v4.6c0 .6 .1 1 .4 1.3c.3 .3 .7 .4 1.2 .4c.2 0 .5 0 .8-0.2c.3-0.1 .5-0.3 .7-0.6c.2-0.3 .3-0.6 .3-1.1Zm9.2-2.6l-1.4 .3c0-0.2-0.1-0.4-0.3-0.5c-0.1-0.2-0.2-0.3-0.4-0.4c-0.2-0.1-0.5-0.2-0.8-0.2c-0.4 0-0.8 .1-1.1 .3c-0.2 .2-0.4 .5-0.4 .7c0 .3 .1 .5 .3 .7c.2 .1 .5 .2 .9 .3l1.2 .3c.7 .2 1.3 .4 1.6 .8c.3 .3 .5 .8 .5 1.3c0 .5-0.1 .9-0.4 1.2c-0.2 .4-0.6 .6-1.1 .9c-0.5 .2-1 .3-1.6 .3c-0.9 0-1.6-0.2-2.1-0.6c-0.5-0.4-0.9-0.9-1-1.6l1.4-0.2c.1 .4 .3 .7 .6 .9c.3 .2 .6 .3 1.1 .3c.5 0 .9-0.1 1.1-0.3c.3-0.3 .5-0.5 .5-0.8c0-0.2-0.1-0.4-0.3-0.6c-0.2-0.2-0.4-0.3-0.8-0.4l-1.3-0.3c-0.7-0.1-1.2-0.4-1.6-0.7c-0.3-0.4-0.5-0.8-0.5-1.4c0-0.4 .2-0.8 .4-1.2c.3-0.3 .6-0.6 1-0.7c.5-0.2 1-0.3 1.6-0.3c.8 0 1.4 .1 1.9 .5c.5 .4 .8 .8 1 1.4Zm5.3-1.8v1.2h-4.2v-1.2h4.2Zm-3-1.9h1.4v7.3c0 .2 .1 .5 .2 .6c.1 .2 .2 .2 .3 .3c.1 .1 .3 .1 .5 .1c.1 0 .2 0 .3 0c.1-0.1 .1-0.1 .2-0.1l.3 1.2c-0.1 .1-0.3 .1-0.4 .1c-0.2 .1-0.4 .1-0.6 .1c-0.4 0-0.8-0.1-1.1-0.2c-0.3-0.2-0.6-0.4-0.8-0.7c-0.2-0.3-0.3-0.7-0.3-1.1v-7.6Zm7.9 9.7c-0.8 0-1.4-0.2-2-0.5c-0.5-0.4-0.9-0.8-1.2-1.4c-0.3-0.6-0.5-1.3-0.5-2.1c0-0.8 .2-1.4 .5-2c.3-0.6 .7-1.1 1.2-1.4c.5-0.4 1.2-0.5 1.9-0.5c.4 0 .8 0 1.2 .2c.4 .1 .8 .3 1.1 .6c.3 .4 .6 .8 .8 1.2c.1 .5 .2 1.1 .2 1.8v.5h-6v-1.1h4.6c0-0.4-0.1-0.7-0.3-1c-0.1-0.3-0.3-0.6-0.6-0.7c-0.3-0.2-0.6-0.3-1-0.3c-0.4 0-0.8 .1-1.1 .3c-0.3 .2-0.6 .5-0.7 .8c-0.2 .3-0.3 .7-0.3 1.1v.8c0 .5 .1 1 .3 1.3c.2 .4 .4 .7 .7 .8c.4 .2 .7 .3 1.2 .3c.3 0 .5 0 .8-0.1c.2-0.1 .4-0.2 .6-0.4c.1-0.1 .3-0.3 .3-0.6l1.4 .3c-0.1 .4-0.3 .8-0.6 1.1c-0.2 .3-0.6 .5-1 .7c-0.5 .2-1 .3-1.5 .3Zm4.9-0.2v-7.6h1.4v1.2h.1c.1-0.4 .4-0.8 .7-1c.4-0.2 .8-0.4 1.2-0.4c.1 0 .2 .1 .4 .1c.1 0 .2 0 .3 0v1.4c-0.1 0-0.2 0-0.3 0c-0.2-0.1-0.3-0.1-0.5-0.1c-0.3 0-0.7 .1-0.9 .2c-0.3 .2-0.5 .4-0.7 .7c-0.1 .2-0.2 .5-0.2 .8v4.7h-1.5Z" fill="#696f8c"/><g transform="translate(30,55.3)"><rect width="0" height="24" fill="#d6f2d1" transform="translate(2,78)" style="animation: 11s linear infinite both d2vi888jj7xaotpgaqbsxnib_f, 11s linear infinite both d2vi888jj7xaotpgaqbsxnib_w;"/><path d="M364 185h120c1.4 0 2.6 .5 3.5 1.5c1 .9 1.5 2.1 1.5 3.5v18c0 1.4-0.5 2.6-1.5 3.5c-0.9 1-2.1 1.5-3.5 1.5h-120c-1.4 0-2.6-0.5-3.5-1.5c-1-0.9-1.5-2.1-1.5-3.5v-18c0-1.4 .5-2.6 1.5-3.5c.9-1 2.1-1.5 3.5-1.5Zm0 2c-0.8 0-1.5 .3-2.1 .9c-0.6 .6-0.9 1.3-0.9 2.1v18c0 .8 .3 1.5 .9 2.1c.6 .6 1.3 .9 2.1 .9h120c.8 0 1.5-0.3 2.1-0.9c.6-0.6 .9-1.3 .9-2.1v-18c0-0.8-0.3-1.5-0.9-2.1c-0.6-0.6-1.3-0.9-2.1-0.9Zm111 8c1.1 0 2 .4 2.8 1.2c.8 .8 1.2 1.7 1.2 2.8c0 1.1-0.4 2-1.2 2.8c-0.8 .8-1.7 1.2-2.8 1.2c-1.1 0-2-0.4-2.8-1.2c-0.8-0.8-1.2-1.7-1.2-2.8c0-1.1 .4-2 1.2-2.8c.8-0.8 1.7-1.2 2.8-1.2Zm0 2c-0.6 0-1 .2-1.4 .6c-0.4 .4-0.6 .8-0.6 1.4c0 .6 .2 1 .6 1.4c.4 .4 .8 .6 1.4 .6c.6 0 1-0.2 1.4-0.6c.4-0.4 .6-0.8 .6-1.4c0-0.6-0.2-1-0.6-1.4c-0.4-0.4-0.8-0.6-1.4-0.6Z" fill="#8f95b2" fill-rule="evenodd" transform="translate(-359,-109)" style="animation: 11s linear infinite both qx5r1lkdzr8qgi8ykc20vphr_f;"/><path d="M12 95h-1.7l3.7-10.2h1.8l3.7 10.2h-1.7l-2.9-8.3l-2.9 8.3Zm.3-4h5.2v1.3h-5.2v-1.3Zm8.5 6.9v-10.5h1.5v1.2h.1c.1-0.2 .2-0.3 .4-0.6c.1-0.2 .3-0.3 .6-0.5c.3-0.2 .7-0.2 1.2-0.2c.6 0 1.1 .1 1.6 .4c.5 .3 .9 .8 1.2 1.4c.2 .6 .4 1.3 .4 2.1c0 .8-0.2 1.5-0.4 2.1c-0.3 .6-0.7 1.1-1.2 1.4c-0.4 .3-1 .4-1.6 .4c-0.5 0-0.9 0-1.2-0.2c-0.2-0.1-0.5-0.3-0.6-0.5c-0.2-0.2-0.3-0.4-0.4-0.6h-0.1v4.1h-1.5Zm1.5-6.7c0 .5 0 1 .2 1.4c.1 .4 .4 .7 .7 .9c.3 .3 .6 .4 1.1 .4c.4 0 .8-0.1 1.1-0.4c.3-0.2 .5-0.5 .6-0.9c.2-0.4 .3-0.9 .3-1.4c0-0.5-0.1-1-0.3-1.4c-0.1-0.4-0.3-0.7-0.6-0.9c-0.3-0.3-0.7-0.4-1.1-0.4c-0.5 0-0.8 .1-1.1 .4c-0.3 .2-0.6 .5-0.7 .9c-0.2 .4-0.2 .9-0.2 1.4Zm7.1 6.7v-10.5h1.5v1.2h.1c.1-0.2 .2-0.3 .4-0.6c.2-0.2 .4-0.3 .7-0.5c.3-0.2 .6-0.2 1.1-0.2c.6 0 1.2 .1 1.7 .4c.4 .3 .8 .8 1.1 1.4c.3 .6 .4 1.3 .4 2.1c0 .8-0.1 1.5-0.4 2.1c-0.3 .6-0.6 1.1-1.1 1.4c-0.5 .3-1.1 .4-1.7 .4c-0.4 0-0.8 0-1.1-0.2c-0.3-0.1-0.5-0.3-0.7-0.5c-0.2-0.2-0.3-0.4-0.4-0.6h-0.1v4.1h-1.5Zm1.5-6.7c0 .5 .1 1 .2 1.4c.2 .4 .4 .7 .7 .9c.3 .3 .7 .4 1.1 .4c.4 0 .8-0.1 1.1-0.4c.3-0.2 .5-0.5 .7-0.9c.1-0.4 .2-0.9 .2-1.4c0-0.5-0.1-1-0.2-1.4c-0.2-0.4-0.4-0.7-0.7-0.9c-0.3-0.3-0.7-0.4-1.1-0.4c-0.4 0-0.8 .1-1.1 .4c-0.3 .2-0.5 .5-0.7 .9c-0.1 .4-0.2 .9-0.2 1.4Z" fill="#696f8c" transform="translate(.1,0)" style="animation: 11s linear infinite both rrw705f42h9eswz70m18wurk_f;"/><g transform="translate(53.8,89.9) scale(1,1) translate(-10.8,-8.5)"><text fill="#696f8c" font-size="14" font-family="Inter" letter-spacing="0" word-spacing="0" font-weight="500" transform="translate(0,13.6)" style="line-height: 16px; animation: 11s linear infinite both gdutr5hil443p9gssc0y6h2m_o;">v. 1</text><text fill="#35aa00" font-size="14" font-family="Inter" letter-spacing="0" word-spacing="0" font-weight="500" opacity="0" transform="translate(0,13.6)" style="line-height: 16px; animation: 11s linear infinite both nuabwa7uuy8n4p07usnuiiha_o, 11s linear infinite both nuabwa7uuy8n4p07usnuiiha_f;">v. 2</text></g><rect width="0" height="24" fill="#d6f2d1" transform="translate(2,40)" style="animation: 11s linear infinite both u417ob8rweannf4zxnq3a65i_f, 11s linear infinite both u417ob8rweannf4zxnq3a65i_w;"/><path d="M364 147h120c1.4 0 2.6 .5 3.5 1.5c1 .9 1.5 2.1 1.5 3.5v18c0 1.4-0.5 2.6-1.5 3.5c-0.9 1-2.1 1.5-3.5 1.5h-120c-1.4 0-2.6-0.5-3.5-1.5c-1-0.9-1.5-2.1-1.5-3.5v-18c0-1.4 .5-2.6 1.5-3.5c.9-1 2.1-1.5 3.5-1.5Zm0 2c-0.8 0-1.5 .3-2.1 .9c-0.6 .6-0.9 1.3-0.9 2.1v18c0 .8 .3 1.5 .9 2.1c.6 .6 1.3 .9 2.1 .9h120c.8 0 1.5-0.3 2.1-0.9c.6-0.6 .9-1.3 .9-2.1v-18c0-0.8-0.3-1.5-0.9-2.1c-0.6-0.6-1.3-0.9-2.1-0.9Zm111 8c1.1 0 2 .4 2.8 1.2c.8 .8 1.2 1.7 1.2 2.8c0 1.1-0.4 2-1.2 2.8c-0.8 .8-1.7 1.2-2.8 1.2c-1.1 0-2-0.4-2.8-1.2c-0.8-0.8-1.2-1.7-1.2-2.8c0-1.1 .4-2 1.2-2.8c.8-0.8 1.7-1.2 2.8-1.2Zm0 2c-0.6 0-1 .2-1.4 .6c-0.4 .4-0.6 .8-0.6 1.4c0 .6 .2 1 .6 1.4c.4 .4 .8 .6 1.4 .6c.6 0 1-0.2 1.4-0.6c.4-0.4 .6-0.8 .6-1.4c0-0.6-0.2-1-0.6-1.4c-0.4-0.4-0.8-0.6-1.4-0.6Z" fill="#8f95b2" fill-rule="evenodd" transform="translate(-359,-109)" style="animation: 11s linear infinite both ue6n5sbzj610yh1exll42yw6_f;"/><path d="M12 57h-1.7l3.7-10.2h1.8l3.7 10.2h-1.7l-2.9-8.3l-2.9 8.3Zm.3-4h5.2v1.3h-5.2v-1.3Zm8.5 6.9v-10.5h1.5v1.2h.1c.1-0.2 .2-0.3 .4-0.6c.1-0.2 .3-0.3 .6-0.5c.3-0.2 .7-0.2 1.2-0.2c.6 0 1.1 .1 1.6 .4c.5 .3 .9 .8 1.2 1.4c.2 .6 .4 1.3 .4 2.1c0 .8-0.2 1.5-0.4 2.1c-0.3 .6-0.7 1.1-1.2 1.4c-0.4 .3-1 .4-1.6 .4c-0.5 0-0.9 0-1.2-0.2c-0.2-0.1-0.5-0.3-0.6-0.5c-0.2-0.2-0.3-0.4-0.4-0.6h-0.1v4.1h-1.5Zm1.5-6.7c0 .5 0 1 .2 1.4c.1 .4 .4 .7 .7 .9c.3 .3 .6 .4 1.1 .4c.4 0 .8-0.1 1.1-0.4c.3-0.2 .5-0.5 .6-0.9c.2-0.4 .3-0.9 .3-1.4c0-0.5-0.1-1-0.3-1.4c-0.1-0.4-0.3-0.7-0.6-0.9c-0.3-0.3-0.7-0.4-1.1-0.4c-0.5 0-0.8 .1-1.1 .4c-0.3 .2-0.6 .5-0.7 .9c-0.2 .4-0.2 .9-0.2 1.4Zm7.1 6.7v-10.5h1.5v1.2h.1c.1-0.2 .2-0.3 .4-0.6c.2-0.2 .4-0.3 .7-0.5c.3-0.2 .6-0.2 1.1-0.2c.6 0 1.2 .1 1.7 .4c.4 .3 .8 .8 1.1 1.4c.3 .6 .4 1.3 .4 2.1c0 .8-0.1 1.5-0.4 2.1c-0.3 .6-0.6 1.1-1.1 1.4c-0.5 .3-1.1 .4-1.7 .4c-0.4 0-0.8 0-1.1-0.2c-0.3-0.1-0.5-0.3-0.7-0.5c-0.2-0.2-0.3-0.4-0.4-0.6h-0.1v4.1h-1.5Zm1.5-6.7c0 .5 .1 1 .2 1.4c.2 .4 .4 .7 .7 .9c.3 .3 .7 .4 1.1 .4c.4 0 .8-0.1 1.1-0.4c.3-0.2 .5-0.5 .7-0.9c.1-0.4 .2-0.9 .2-1.4c0-0.5-0.1-1-0.2-1.4c-0.2-0.4-0.4-0.7-0.7-0.9c-0.3-0.3-0.7-0.4-1.1-0.4c-0.4 0-0.8 .1-1.1 .4c-0.3 .2-0.5 .5-0.7 .9c-0.1 .4-0.2 .9-0.2 1.4Z" fill="#696f8c" transform="translate(.1,0)" style="animation: 11s linear infinite both ioer6dgzq3bodhtbxwcgmbpm_f;"/><g transform="translate(53.8,51.9) scale(1,1) translate(-10.8,-8.5)"><text fill="#696f8c" font-size="14" font-family="Inter" letter-spacing="0" word-spacing="0" font-weight="500" transform="translate(0,13.6)" style="line-height: 16px; animation: 11s linear infinite both s5ebksb464l1p5zxn58mtyen_o;">v. 1</text><text fill="#35aa00" font-size="14" font-family="Inter" letter-spacing="0" word-spacing="0" font-weight="500" opacity="0" transform="translate(0,13.6)" style="line-height: 16px; animation: 11s linear infinite both pkztk89d68u7qdwow3wnkpqt_o, 11s linear infinite both pkztk89d68u7qdwow3wnkpqt_f;">v. 2</text></g><rect width="0" height="24" fill="#d6f2d1" transform="translate(2,2)" style="animation: 11s linear infinite both hfpp5vc1o3jswqvo7dphr3xh_f, 11s linear infinite both hfpp5vc1o3jswqvo7dphr3xh_w;"/><path d="M364 109h120c1.4 0 2.6 .5 3.5 1.5c1 .9 1.5 2.1 1.5 3.5v18c0 1.4-0.5 2.6-1.5 3.5c-0.9 1-2.1 1.5-3.5 1.5h-120c-1.4 0-2.6-0.5-3.5-1.5c-1-0.9-1.5-2.1-1.5-3.5v-18c0-1.4 .5-2.6 1.5-3.5c.9-1 2.1-1.5 3.5-1.5Zm0 2c-0.8 0-1.5 .3-2.1 .9c-0.6 .6-0.9 1.3-0.9 2.1v18c0 .8 .3 1.5 .9 2.1c.6 .6 1.3 .9 2.1 .9h120c.8 0 1.5-0.3 2.1-0.9c.6-0.6 .9-1.3 .9-2.1v-18c0-0.8-0.3-1.5-0.9-2.1c-0.6-0.6-1.3-0.9-2.1-0.9Zm111 8c1.1 0 2 .4 2.8 1.2c.8 .8 1.2 1.7 1.2 2.8c0 1.1-0.4 2-1.2 2.8c-0.8 .8-1.7 1.2-2.8 1.2c-1.1 0-2-0.4-2.8-1.2c-0.8-0.8-1.2-1.7-1.2-2.8c0-1.1 .4-2 1.2-2.8c.8-0.8 1.7-1.2 2.8-1.2Zm0 2c-0.6 0-1 .2-1.4 .6c-0.4 .4-0.6 .8-0.6 1.4c0 .6 .2 1 .6 1.4c.4 .4 .8 .6 1.4 .6c.6 0 1-0.2 1.4-0.6c.4-0.4 .6-0.8 .6-1.4c0-0.6-0.2-1-0.6-1.4c-0.4-0.4-0.8-0.6-1.4-0.6Z" fill="#8f95b2" fill-rule="evenodd" transform="translate(-359,-109)" style="animation: 11s linear infinite both t3pyirwux3x0uzoe5dyzr1hq_f;"/><path d="M12 19h-1.7l3.7-10.2h1.8l3.7 10.2h-1.7l-2.9-8.3l-2.9 8.3Zm.3-4h5.2v1.3h-5.2v-1.3Zm8.5 6.9v-10.5h1.5v1.2h.1c.1-0.2 .2-0.3 .4-0.6c.1-0.2 .3-0.3 .6-0.5c.3-0.2 .7-0.2 1.2-0.2c.6 0 1.1 .1 1.6 .4c.5 .3 .9 .8 1.2 1.4c.2 .6 .4 1.3 .4 2.1c0 .8-0.2 1.5-0.4 2.1c-0.3 .6-0.7 1.1-1.2 1.4c-0.4 .3-1 .4-1.6 .4c-0.5 0-0.9 0-1.2-0.2c-0.2-0.1-0.5-0.3-0.6-0.5c-0.2-0.2-0.3-0.4-0.4-0.6h-0.1v4.1h-1.5Zm1.5-6.7c0 .5 0 1 .2 1.4c.1 .4 .4 .7 .7 .9c.3 .3 .6 .4 1.1 .4c.4 0 .8-0.1 1.1-0.4c.3-0.2 .5-0.5 .6-0.9c.2-0.4 .3-0.9 .3-1.4c0-0.5-0.1-1-0.3-1.4c-0.1-0.4-0.3-0.7-0.6-0.9c-0.3-0.3-0.7-0.4-1.1-0.4c-0.5 0-0.8 .1-1.1 .4c-0.3 .2-0.6 .5-0.7 .9c-0.2 .4-0.2 .9-0.2 1.4Zm7.1 6.7v-10.5h1.5v1.2h.1c.1-0.2 .2-0.3 .4-0.6c.2-0.2 .4-0.3 .7-0.5c.3-0.2 .6-0.2 1.1-0.2c.6 0 1.2 .1 1.7 .4c.4 .3 .8 .8 1.1 1.4c.3 .6 .4 1.3 .4 2.1c0 .8-0.1 1.5-0.4 2.1c-0.3 .6-0.6 1.1-1.1 1.4c-0.5 .3-1.1 .4-1.7 .4c-0.4 0-0.8 0-1.1-0.2c-0.3-0.1-0.5-0.3-0.7-0.5c-0.2-0.2-0.3-0.4-0.4-0.6h-0.1v4.1h-1.5Zm1.5-6.7c0 .5 .1 1 .2 1.4c.2 .4 .4 .7 .7 .9c.3 .3 .7 .4 1.1 .4c.4 0 .8-0.1 1.1-0.4c.3-0.2 .5-0.5 .7-0.9c.1-0.4 .2-0.9 .2-1.4c0-0.5-0.1-1-0.2-1.4c-0.2-0.4-0.4-0.7-0.7-0.9c-0.3-0.3-0.7-0.4-1.1-0.4c-0.4 0-0.8 .1-1.1 .4c-0.3 .2-0.5 .5-0.7 .9c-0.1 .4-0.2 .9-0.2 1.4Z" fill="#696f8c" transform="translate(.1,0)" style="animation: 11s linear infinite both pk3qy1bgjzx24oe89h34b8lv_f;"/><g transform="translate(53.8,13.9) scale(1,1) translate(-10.8,-8.5)"><text fill="#696f8c" font-size="14" font-family="Inter" letter-spacing="0" word-spacing="0" font-weight="500" transform="translate(0,13.6)" style="line-height: 16px; animation: 11s linear infinite both wp6v69b73c037affhxqcnr10_o;">v. 1</text><text fill="#35aa00" font-size="14" font-family="Inter" letter-spacing="0" word-spacing="0" font-weight="500" opacity="0" transform="translate(0,13.6)" style="line-height: 16px; animation: 11s linear infinite both l4wn2cz7e4dzz3ynmlex7d8y_o, 11s linear infinite both l4wn2cz7e4dzz3ynmlex7d8y_f;">v. 2</text></g></g></g><g transform="translate(322.9,142) scale(1,.999965) translate(-36.1,-14.1)"><path d="M2 24c20 0 24 0 34-10c10-10 14-10 34-10" stroke="#8f95b2" stroke-width="2" stroke-linecap="round" stroke-linejoin="round" fill="none" stroke-dasharray="74" style="animation: 11s linear infinite both updcpy3w8k3cduja3ctr6hu9_do;"/><path d="M0 0l3 3l-3 3" fill="none" stroke-linecap="round" stroke="#8f95b2" stroke-width="2" stroke-linejoin="round" transform="translate(68,1)" style="animation: 11s linear infinite both ibm37a1x2bmw5d9drsdcf7lx_o;"/><path d="M0 0l3 3l-3 3" fill="none" stroke-linecap="round" stroke="#8f95b2" stroke-width="2" stroke-linejoin="round" transform="translate(4,21) scale(-1,1)" style="animation: 11s linear infinite both q53trf1aa56dqh5shyhmqtdx_o;"/></g><g transform="translate(286.8,165.9)"><path d="M0 0h67" stroke="#8f95b2" fill="none" stroke-linecap="round" stroke-width="2" stroke-dasharray="67" transform="translate(2.5,4)" style="animation: 11s linear infinite both ici846pgul163pxkp2xn2i72_do;"/><path d="M0 0l3 3l-3 3" fill="none" stroke-linecap="round" stroke="#8f95b2" stroke-width="2" stroke-linejoin="round" transform="translate(68,1)" style="animation: 11s linear infinite both yob6tngi7bp9i5qdons20no2_o;"/><path d="M0 0l3 3l-3 3" fill="none" stroke-linecap="round" stroke="#8f95b2" stroke-width="2" stroke-linejoin="round" transform="translate(4,1) scale(-1,1)" style="animation: 11s linear infinite both j6mn8267x5dwv4ephsx4owjm_o;"/></g><g transform="translate(323,198.1) scale(1,1.00004) translate(-36.1,-14.1)"><path d="M2 24c20 0 24 0 34-10c10-10 14-10 34-10" stroke="#8f95b2" stroke-width="2" stroke-linecap="round" stroke-linejoin="round" fill="none" stroke-dasharray="74" transform="translate(36,14) scale(1,-1) translate(-36,-14)" style="animation: 11s linear infinite both v4gufq66eo93q3sw7wh2wo6t_do;"/><path d="M0 0l3 3l-3 3" fill="none" stroke-linecap="round" stroke="#8f95b2" stroke-width="2" stroke-linejoin="round" transform="translate(68,21)" style="animation: 11s linear infinite both l1ij9sfnbze00ty39ahyr3qo_o;"/><path d="M0 0l3 3l-3 3" fill="none" stroke-linecap="round" stroke="#8f95b2" stroke-width="2" stroke-linejoin="round" transform="translate(4,1) scale(-1,1)" style="animation: 11s linear infinite both zyjklrlfllmbq5qu2j5lgelj_o;"/></g><use x="506.8" y="127.9" width="72.2" height="28.2" xlink:href="#f0lap6htyk8og16k8nr53qoj"/><use x="506.8" y="165.9" width="72.2" height="8.2" xlink:href="#lpqwss6hlmz1rw6j53lvfe99"/><use x="506.9" y="184" width="72.2" height="28.2" xlink:href="#f3pyk8ugr3wm3c26ulzitbsi"/><g transform="translate(588,105.8)"><path d="M27.5 10.2h-3.3v-10.2h3.4c1 0 1.8 .2 2.5 .6c.8 .4 1.3 1 1.7 1.8c.4 .7 .6 1.6 .6 2.7c0 1.1-0.2 2-0.6 2.7c-0.4 .8-1 1.4-1.7 1.8c-0.7 .4-1.6 .6-2.6 .6Zm-1.8-1.3h1.7c.8 0 1.4-0.2 1.9-0.5c.5-0.3 .9-0.7 1.2-1.3c.2-0.5 .3-1.2 .3-2c0-0.8-0.1-1.5-0.3-2c-0.3-0.6-0.7-1-1.2-1.3c-0.5-0.3-1.1-0.4-1.8-0.4h-1.8v7.5Zm10.7 1.5c-0.5 0-1-0.1-1.3-0.3c-0.4-0.2-0.7-0.4-1-0.8c-0.2-0.3-0.3-0.8-0.3-1.3c0-0.4 .1-0.7 .2-1c.2-0.3 .4-0.5 .7-0.7c.3-0.1 .6-0.3 1-0.4c.3 0 .7-0.1 1-0.1c.5-0.1 .8-0.1 1.1-0.2c.3 0 .5-0.1 .7-0.1c.1-0.1 .1-0.3 .1-0.4v-0.1c0-0.4-0.1-0.7-0.3-1c-0.3-0.2-0.6-0.3-1.1-0.3c-0.5 0-0.9 .1-1.2 .3c-0.3 .2-0.5 .5-0.6 .7l-1.4-0.3c.2-0.5 .4-0.8 .7-1.1c.4-0.3 .7-0.5 1.2-0.6c.4-0.2 .8-0.2 1.3-0.2c.3 0 .6 0 .9 .1c.4 0 .7 .2 1 .4c.3 .2 .6 .4 .7 .8c.2 .3 .3 .8 .3 1.3v5.1h-1.4v-1h-0.1c-0.1 .1-0.2 .3-0.4 .5c-0.2 .2-0.4 .4-0.7 .5c-0.3 .1-0.7 .2-1.1 .2Zm.3-1.2c.4 0 .8-0.1 1-0.3c.3-0.1 .6-0.3 .7-0.6c.2-0.3 .3-0.6 .3-0.9v-0.9c-0.1 0-0.2 .1-0.4 .1c-0.1 .1-0.3 .1-0.5 .1c-0.2 .1-0.3 .1-0.5 .1c-0.2 0-0.4 .1-0.5 .1c-0.3 0-0.5 .1-0.8 .2c-0.2 0-0.4 .2-0.5 .3c-0.2 .2-0.3 .4-0.3 .7c0 .3 .2 .6 .5 .8c.2 .2 .6 .3 1 .3Zm9-6.6v1.2h-4.2v-1.2h4.2Zm-3.1-1.9h1.5v7.3c0 .2 .1 .5 .1 .6c.1 .2 .2 .2 .4 .3c.1 .1 .3 .1 .4 .1c.2 0 .3 0 .3 0c.1-0.1 .2-0.1 .3-0.1l.2 1.2c-0.1 .1-0.2 .1-0.3 .1c-0.2 .1-0.4 .1-0.6 .1c-0.4 0-0.8-0.1-1.1-0.2c-0.4-0.2-0.6-0.4-0.9-0.7c-0.2-0.3-0.3-0.7-0.3-1.1v-7.6Zm6.9 9.7c-0.4 0-0.9-0.1-1.3-0.3c-0.4-0.2-0.7-0.4-0.9-0.8c-0.2-0.3-0.3-0.8-0.3-1.3c0-0.4 .1-0.7 .2-1c.2-0.3 .4-0.5 .7-0.7c.3-0.1 .6-0.3 .9-0.4c.4 0 .7-0.1 1.1-0.1c.5-0.1 .8-0.1 1.1-0.2c.3 0 .5-0.1 .6-0.1c.2-0.1 .2-0.3 .2-0.4v-0.1c0-0.4-0.1-0.7-0.3-1c-0.3-0.2-0.6-0.3-1.1-0.3c-0.5 0-0.9 .1-1.2 .3c-0.3 .2-0.5 .5-0.6 .7l-1.4-0.3c.2-0.5 .4-0.8 .7-1.1c.3-0.3 .7-0.5 1.1-0.6c.5-0.2 .9-0.2 1.4-0.2c.3 0 .6 0 .9 .1c.4 0 .7 .2 1 .4c.3 .2 .5 .4 .7 .8c.2 .3 .3 .8 .3 1.3v5.1h-1.4v-1h-0.1c-0.1 .1-0.2 .3-0.4 .5c-0.2 .2-0.5 .4-0.8 .5c-0.3 .1-0.6 .2-1.1 .2Zm.4-1.2c.4 0 .7-0.1 1-0.3c.3-0.1 .5-0.3 .7-0.6c.2-0.3 .2-0.6 .2-0.9v-0.9c0 0-0.1 .1-0.3 .1c-0.1 .1-0.3 .1-0.5 .1c-0.2 .1-0.4 .1-0.6 .1c-0.1 0-0.3 .1-0.4 .1c-0.3 0-0.6 .1-0.8 .2c-0.2 0-0.4 .2-0.6 .3c-0.1 .2-0.2 .4-0.2 .7c0 .3 .2 .6 .4 .8c.3 .2 .7 .3 1.1 .3Zm5.5 1v-10.2h1.5v3.8h.1c.1-0.2 .2-0.3 .4-0.5c.1-0.3 .4-0.4 .6-0.6c.3-0.2 .7-0.2 1.2-0.2c.6 0 1.2 .1 1.6 .4c.5 .3 .9 .8 1.2 1.4c.3 .6 .4 1.3 .4 2.1c0 .8-0.1 1.5-0.4 2.1c-0.3 .6-0.7 1.1-1.2 1.4c-0.4 .3-1 .4-1.6 .4c-0.5 0-0.8 0-1.1-0.2c-0.3-0.1-0.6-0.3-0.7-0.5c-0.2-0.2-0.3-0.4-0.4-0.6h-0.1v1.2h-1.5Zm1.5-3.8c0 .5 .1 1 .2 1.4c.2 .4 .4 .7 .7 .9c.3 .3 .6 .4 1.1 .4c.4 0 .8-0.1 1.1-0.4c.3-0.2 .5-0.5 .7-0.9c.1-0.4 .2-0.9 .2-1.4c0-0.5-0.1-1-0.2-1.4c-0.2-0.4-0.4-0.7-0.7-0.9c-0.3-0.3-0.7-0.4-1.1-0.4c-0.5 0-0.8 .1-1.1 .4c-0.3 .2-0.5 .5-0.7 .9c-0.1 .4-0.2 .9-0.2 1.4Zm9.4 4c-0.5 0-0.9-0.1-1.3-0.3c-0.4-0.2-0.7-0.4-1-0.8c-0.2-0.3-0.3-0.8-0.3-1.3c0-0.4 .1-0.7 .3-1c.1-0.3 .3-0.5 .6-0.7c.3-0.1 .6-0.3 1-0.4c.3 0 .7-0.1 1-0.1c.5-0.1 .9-0.1 1.1-0.2c.3 0 .5-0.1 .7-0.1c.1-0.1 .2-0.3 .2-0.4v-0.1c0-0.4-0.2-0.7-0.4-1c-0.2-0.2-0.6-0.3-1.1-0.3c-0.5 0-0.9 .1-1.2 .3c-0.3 .2-0.5 .5-0.6 .7l-1.4-0.3c.2-0.5 .4-0.8 .8-1.1c.3-0.3 .7-0.5 1.1-0.6c.4-0.2 .8-0.2 1.3-0.2c.3 0 .6 0 1 .1c.3 0 .6 .2 .9 .4c.3 .2 .6 .4 .8 .8c.2 .3 .3 .8 .3 1.3v5.1h-1.5v-1h-0.1c-0.1 .1-0.2 .3-0.4 .5c-0.2 .2-0.4 .4-0.7 .5c-0.3 .1-0.7 .2-1.1 .2Zm.3-1.2c.4 0 .8-0.1 1.1-0.3c.3-0.1 .5-0.3 .6-0.6c.2-0.3 .3-0.6 .3-0.9v-0.9c-0.1 0-0.2 .1-0.3 .1c-0.2 .1-0.4 .1-0.6 .1c-0.1 .1-0.3 .1-0.5 .1c-0.2 0-0.4 .1-0.5 .1c-0.3 0-0.5 .1-0.8 .2c-0.2 0-0.4 .2-0.5 .3c-0.2 .2-0.2 .4-0.2 .7c0 .3 .1 .6 .4 .8c.2 .2 .6 .3 1 .3Zm11.2-4.8l-1.4 .3c0-0.2-0.1-0.4-0.3-0.5c-0.1-0.2-0.2-0.3-0.4-0.4c-0.3-0.1-0.5-0.2-0.8-0.2c-0.4 0-0.8 .1-1.1 .3c-0.3 .2-0.4 .5-0.4 .7c0 .3 .1 .5 .3 .7c.2 .1 .5 .2 .9 .3l1.2 .3c.7 .2 1.2 .4 1.6 .8c.3 .3 .5 .8 .5 1.3c0 .5-0.1 .9-0.4 1.2c-0.3 .4-0.6 .6-1.1 .9c-0.5 .2-1 .3-1.6 .3c-0.9 0-1.6-0.2-2.1-0.6c-0.6-0.4-0.9-0.9-1-1.6l1.4-0.2c.1 .4 .3 .7 .6 .9c.3 .2 .6 .3 1.1 .3c.5 0 .8-0.1 1.1-0.3c.3-0.3 .5-0.5 .5-0.8c0-0.2-0.1-0.4-0.3-0.6c-0.2-0.2-0.4-0.3-0.8-0.4l-1.3-0.3c-0.7-0.1-1.2-0.4-1.6-0.7c-0.3-0.4-0.5-0.8-0.5-1.4c0-0.4 .1-0.8 .4-1.2c.2-0.3 .6-0.6 1-0.7c.5-0.2 1-0.3 1.6-0.3c.8 0 1.4 .1 1.9 .5c.5 .4 .8 .8 1 1.4Zm5 6c-0.7 0-1.4-0.2-1.9-0.5c-0.6-0.4-1-0.8-1.3-1.4c-0.3-0.6-0.4-1.3-0.4-2.1c0-0.8 .1-1.4 .4-2c.3-0.6 .7-1.1 1.3-1.4c.5-0.4 1.1-0.5 1.8-0.5c.5 0 .9 0 1.3 .2c.4 .1 .7 .3 1.1 .6c.3 .4 .5 .8 .7 1.2c.2 .5 .3 1.1 .3 1.8v.5h-6.1v-1.1h4.6c0-0.4 0-0.7-0.2-1c-0.1-0.3-0.4-0.6-0.7-0.7c-0.2-0.2-0.6-0.3-1-0.3c-0.4 0-0.7 .1-1.1 .3c-0.3 .2-0.5 .5-0.7 .8c-0.1 .3-0.2 .7-0.2 1.1v.8c0 .5 .1 1 .2 1.3c.2 .4 .5 .7 .8 .8c.3 .2 .7 .3 1.1 .3c.3 0 .6 0 .8-0.1c.2-0.1 .4-0.2 .6-0.4c.2-0.1 .3-0.3 .4-0.6l1.4 .3c-0.1 .4-0.3 .8-0.6 1.1c-0.3 .3-0.6 .5-1.1 .7c-0.4 .2-0.9 .3-1.5 .3Z" fill="#696f8c"/><path d="M105 25.2h-100c-1.4 0-2.6 .5-3.5 1.5c-1 .9-1.5 2.1-1.5 3.5v67c0 1.4 .5 2.6 1.5 3.5c.9 1 2.1 1.5 3.5 1.5h100c1.4 0 2.6-0.5 3.5-1.5c1-0.9 1.5-2.1 1.5-3.5v-67c0-1.4-0.5-2.6-1.5-3.5c-0.9-1-2.1-1.5-3.5-1.5Zm-102.1 2.9c.6-0.6 1.3-0.9 2.1-0.9h100c.8 0 1.5 .3 2.1 .9c.6 .6 .9 1.3 .9 2.1v67c0 .8-0.3 1.5-0.9 2.1c-0.6 .6-1.3 .9-2.1 .9h-100c-0.8 0-1.5-0.3-2.1-0.9c-0.6-0.6-0.9-1.3-0.9-2.1v-67c0-0.8 .3-1.5 .9-2.1Zm6.1 46.1c0-0.6 .4-1 1-1h90c.6 0 1 .4 1 1c0 .6-0.4 1-1 1h-90c-0.6 0-1-0.4-1-1Zm3 10h26c.6 0 1 .2 1.4 .6c.4 .4 .6 .8 .6 1.4v4c0 .6-0.2 1-0.6 1.4c-0.4 .4-0.8 .6-1.4 .6h-26c-0.6 0-1-0.2-1.4-0.6c-0.4-0.4-0.6-0.8-0.6-1.4v-4c0-0.6 .2-1 .6-1.4c.4-0.4 .8-0.6 1.4-0.6Zm41 0h-6c-0.6 0-1 .2-1.4 .6c-0.4 .4-0.6 .8-0.6 1.4v4c0 .6 .2 1 .6 1.4c.4 .4 .8 .6 1.4 .6h6c.6 0 1-0.2 1.4-0.6c.4-0.4 .6-0.8 .6-1.4v-4c0-0.6-0.2-1-0.6-1.4c-0.4-0.4-0.8-0.6-1.4-0.6Zm-41 2v4h26v-4Zm35 4v-4h6v4Zm-7-32.2c0 .8 .1 1.6 .6 2.2c1.2 1.5 4.6 4 13.9 4c9.3 0 12.7-2.5 13.9-4c.5-0.6 .6-1.4 .6-2.2v-16.6c0-0.8-0.1-1.6-0.6-2.2c-1.2-1.5-4.6-4-13.9-4c-9.3 0-12.7 2.5-13.9 4c-0.5 .6-0.6 1.4-0.6 2.2Zm26.9-17.3c0 0 .1 .1 .1 .1c0 0-0.1 .1-0.1 .1c0 .1 0 .2-0.1 .2c-0.6 .8-3.4 3.3-12.3 3.3c-8.9 0-11.7-2.5-12.3-3.3c-0.1 0-0.1-0.1-0.1-0.2c0 0-0.1-0.1-0.1-0.1c0 0 .1-0.1 .1-0.1c0-0.2 0-0.2 .1-0.2c.6-0.9 3.4-3.3 12.3-3.3c8.9 0 11.7 2.4 12.3 3.3c.1 0 .1 0 .1 .2Zm-24.8 9.2c0 .1 0 .2 .1 .2c.6 .8 3.4 3.3 12.3 3.3c8.9 0 11.7-2.5 12.3-3.3c.1 0 .1-0.1 .1-0.2c.1-0.2 .1-0.4 .1-0.7v-5.6c-1.9 1.4-5.6 2.8-12.5 2.8c-6.9 0-10.6-1.4-12.5-2.8v5.6c0 .3 0 .5 .1 .7Zm-0.1 8.1v-5.4c1.9 1.4 5.6 2.8 12.5 2.8c6.9 0 10.6-1.4 12.5-2.8v5.4c0 .3 0 .5-0.1 .7c0 .2 0 .2-0.1 .2c-0.6 .9-3.4 3.3-12.3 3.3c-8.9 0-11.7-2.4-12.3-3.3c-0.1 0-0.1 0-0.1-0.2c-0.1-0.2-0.1-0.4-0.1-0.7Z" fill="#8f95b2" fill-rule="evenodd"/></g><g transform="translate(337.9,282)"><path d="M334 273h350c1.4 0 2.6 .5 3.5 1.5c1 .9 1.5 2.1 1.5 3.5v18c0 1.4-0.5 2.6-1.5 3.5c-0.9 1-2.1 1.5-3.5 1.5h-350c-1.4 0-2.6-0.5-3.5-1.5c-1-0.9-1.5-2.1-1.5-3.5v-18c0-1.4 .5-2.6 1.5-3.5c.9-1 2.1-1.5 3.5-1.5Zm0 2c-0.8 0-1.5 .3-2.1 .9c-0.6 .6-0.9 1.3-0.9 2.1v18c0 .8 .3 1.5 .9 2.1c.6 .6 1.3 .9 2.1 .9h350c.8 0 1.5-0.3 2.1-0.9c.6-0.6 .9-1.3 .9-2.1v-18c0-0.8-0.3-1.5-0.9-2.1c-0.6-0.6-1.3-0.9-2.1-0.9Zm339 8c1.1 0 2 .4 2.8 1.2c.8 .8 1.2 1.7 1.2 2.8c0 1.1-0.4 2-1.2 2.8c-0.8 .8-1.7 1.2-2.8 1.2c-1.1 0-2-0.4-2.8-1.2c-0.8-0.8-1.2-1.7-1.2-2.8c0-1.1 .4-2 1.2-2.8c.8-0.8 1.7-1.2 2.8-1.2Zm0 2c-0.6 0-1 .2-1.4 .6c-0.4 .4-0.6 .8-0.6 1.4c0 .6 .2 1 .6 1.4c.4 .4 .8 .6 1.4 .6c.6 0 1-0.2 1.4-0.6c.4-0.4 .6-0.8 .6-1.4c0-0.6-0.2-1-0.6-1.4c-0.4-0.4-0.8-0.6-1.4-0.6Z" fill="#8f95b2" fill-rule="evenodd" transform="translate(-329,-273)" style="animation: 11s linear infinite both sh7vo7y0uc3nqiwqegts8700_f;"/><path d="M348.6 285.1h-1.6c0-0.3-0.1-0.6-0.3-0.8c-0.2-0.3-0.4-0.5-0.6-0.7c-0.2-0.2-0.5-0.3-0.8-0.4c-0.3-0.1-0.6-0.1-0.9-0.1c-0.6 0-1.1 .1-1.6 .4c-0.5 .3-0.8 .8-1.1 1.3c-0.3 .6-0.4 1.3-0.4 2.1c0 .8 .1 1.5 .4 2.1c.3 .6 .6 1 1.1 1.3c.5 .3 1 .4 1.6 .4c.3 0 .6 0 .9-0.1c.3-0.1 .5-0.2 .8-0.4c.2-0.2 .4-0.4 .6-0.6c.1-0.3 .3-0.6 .3-0.9h1.6c-0.1 .5-0.3 1-0.5 1.4c-0.2 .4-0.5 .8-0.9 1.1c-0.4 .3-0.8 .5-1.3 .7c-0.5 .2-1 .2-1.5 .2c-0.9 0-1.7-0.2-2.4-0.6c-0.7-0.4-1.2-1-1.6-1.8c-0.4-0.8-0.6-1.7-0.6-2.8c0-1.1 .2-2 .6-2.8c.4-0.8 .9-1.4 1.6-1.8c.7-0.4 1.5-0.6 2.4-0.6c.5 0 1 .1 1.5 .2c.5 .2 .9 .4 1.2 .7c.4 .3 .7 .6 1 1.1c.2 .4 .4 .9 .5 1.4Zm3.3-3.3v10.2h-1.5v-10.2h1.5Zm9.8-0.5l-3.3 12.2h-1.4l3.3-12.2h1.4Zm13.5 3.8h-1.6c0-0.3-0.1-0.6-0.3-0.8c-0.2-0.3-0.4-0.5-0.6-0.7c-0.2-0.2-0.5-0.3-0.8-0.4c-0.3-0.1-0.6-0.1-0.9-0.1c-0.6 0-1.1 .1-1.6 .4c-0.4 .3-0.8 .8-1.1 1.3c-0.2 .6-0.4 1.3-0.4 2.1c0 .8 .2 1.5 .4 2.1c.3 .6 .7 1 1.1 1.3c.5 .3 1 .4 1.6 .4c.3 0 .6 0 .9-0.1c.3-0.1 .6-0.2 .8-0.4c.2-0.2 .4-0.4 .6-0.6c.2-0.3 .3-0.6 .3-0.9h1.6c-0.1 .5-0.2 1-0.5 1.4c-0.2 .4-0.5 .8-0.9 1.1c-0.4 .3-0.8 .5-1.3 .7c-0.4 .2-1 .2-1.5 .2c-0.9 0-1.7-0.2-2.4-0.6c-0.7-0.4-1.2-1-1.6-1.8c-0.4-0.8-0.6-1.7-0.6-2.8c0-1.1 .2-2 .6-2.8c.4-0.8 .9-1.4 1.6-1.8c.7-0.4 1.5-0.6 2.4-0.6c.5 0 1 .1 1.5 .2c.5 .2 .9 .4 1.3 .7c.3 .3 .7 .6 .9 1.1c.2 .4 .4 .9 .5 1.4Zm5.1 6.9h-3.3v-10.2h3.4c1 0 1.9 .2 2.6 .6c.7 .4 1.3 1 1.6 1.8c.4 .7 .6 1.6 .6 2.7c0 1.1-0.2 2-0.6 2.7c-0.3 .8-0.9 1.4-1.6 1.8c-0.8 .4-1.6 .6-2.7 .6Zm-1.7-1.3h1.6c.8 0 1.5-0.2 2-0.5c.5-0.3 .9-0.7 1.1-1.3c.3-0.5 .4-1.2 .4-2c0-0.8-0.1-1.5-0.4-2c-0.2-0.6-0.6-1-1.1-1.3c-0.5-0.3-1.1-0.4-1.9-0.4h-1.7v7.5Z" fill="#696f8c" transform="translate(-329,-273)" style="animation: 11s linear infinite both tfdk33g2wrazuaa77ge0wpxb_f;"/></g><use width="8.2" height="41.1" xlink:href="#twpnb954bwnqlt8ixd7h1fz4" opacity="0" transform="translate(428.8,231.9)" style="animation: 11s linear infinite both ivptwsoc2ffa68pm4mdm7rjj_o;"/><path fill="#e5f0ff" d="M57 369h-48c-0.6 0-1 .4-1 1v1c0 .6 .4 1 1 1h48c.6 0 1-0.4 1-1v-1c0-0.6-0.4-1-1-1Zm53 0h-48c-0.6 0-1 .4-1 1v1c0 .6 .4 1 1 1h48c.6 0 1-0.4 1-1v-1c0-0.6-0.4-1-1-1Zm53 0h-48c-0.6 0-1 .4-1 1v1c0 .6 .4 1 1 1h48c.6 0 1-0.4 1-1v-1c0-0.6-0.4-1-1-1Z" fill-rule="evenodd"/><rect width="0" height="3" fill="#5dcc47" rx="1" transform="translate(8,369)" style="animation: 11s linear infinite both crh2tq1z4046k62s3gr8itc8_w;"/><rect width="0" height="3" fill="#5dcc47" rx="1" transform="translate(61,369)" style="animation: 11s linear infinite both vm1srdkm897tklzzyxbs7mb7_w;"/><rect width="0" height="3" fill="#5dcc47" rx="1" transform="translate(114,369)" style="animation: 11s linear infinite both wixhnvt02iopbat6nxk4ngrs_w;"/></svg>