<svg width="450" height="276" viewBox="0 0 450 276" fill="none" xmlns="http://www.w3.org/2000/svg">
<g clip-path="url(#clip0_742_98)">
<rect width="450" height="276" fill="#E5F0FF"/>
<path d="M153.982 39.1293C159.308 40.5984 165.146 39.2932 169.185 35.4778C184.005 21.4772 203.995 12.8946 225.991 12.8946C246.367 12.8946 265.02 20.2588 279.438 32.4718C284.163 36.4741 290.886 37.179 296.596 35.0172C301.609 33.1193 307.045 32.0801 312.726 32.0801C327.361 32.0801 340.384 38.9787 348.722 49.7045C353.062 55.2883 360.584 58.3834 367.476 56.3576C375.209 54.0844 383.394 52.8644 391.866 52.8644C439.547 52.8644 478.201 91.5179 478.201 139.199C478.201 186.881 439.547 225.534 391.866 225.534C389.975 225.534 388.099 225.473 386.238 225.354C380.663 224.995 375.402 227.832 371.931 232.076C364.82 240.771 354.01 246.318 341.904 246.318C334.844 246.318 328.227 244.432 322.527 241.137C318.399 238.75 313.116 237.571 308.017 237.796C302.923 238.021 297.917 239.656 294.416 243.009C281.421 255.458 263.793 263.106 244.377 263.106C225.3 263.106 207.949 255.723 195.022 243.656C191.458 240.329 186.415 238.749 181.34 238.668C176.264 238.587 171.06 240.004 167.122 242.787C159.699 248.033 150.638 251.115 140.855 251.115C124.616 251.115 110.36 242.62 102.29 229.828C98.0039 223.035 89.2661 218.831 81.4395 221.168C73.6729 223.488 65.4421 224.735 56.9188 224.735C9.6789 224.735 -28.6166 186.439 -28.6166 139.199C-28.6166 91.9594 9.6789 53.6638 56.9188 53.6638C64.9644 53.6638 72.7492 54.7744 80.129 56.8502C85.3738 58.3254 91.033 56.8466 95.0409 53.2002C106.188 43.058 121 36.8765 137.258 36.8765C143.051 36.8765 148.658 37.6611 153.982 39.1293Z" fill="#FAFBFF" stroke="#E5F0FF" stroke-width="1.59879"/>
<rect x="148.047" y="76.0469" width="151.885" height="131.101" rx="6.39517" fill="#E5F0FF"/>
<path d="M172.827 164.78C172.827 163.014 174.258 161.583 176.024 161.583H271.952C273.718 161.583 275.15 163.014 275.15 164.78V179.169C275.15 180.935 273.718 182.367 271.952 182.367H176.024C174.258 182.367 172.827 180.935 172.827 179.169V164.78Z" fill="white" stroke="#8F95B2" stroke-width="1.59879"/>
<path d="M172.827 134.403C172.827 132.637 174.258 131.206 176.024 131.206H271.952C273.718 131.206 275.15 132.637 275.15 134.403V148.792C275.15 150.558 273.718 151.99 271.952 151.99H176.024C174.258 151.99 172.827 150.558 172.827 148.792V134.403Z" fill="white" stroke="#8F95B2" stroke-width="1.59879"/>
<path d="M172.827 104.026C172.827 102.26 174.258 100.828 176.024 100.828H271.952C273.718 100.828 275.15 102.26 275.15 104.026V118.415C275.15 120.181 273.718 121.613 271.952 121.613H176.024C174.258 121.613 172.827 120.181 172.827 118.415V104.026Z" fill="white" stroke="#8F95B2" stroke-width="1.59879"/>
<rect x="262.36" y="108.822" width="4.79638" height="4.79638" rx="2.39819" stroke="#8F95B2" stroke-width="1.59879"/>
<rect x="262.36" y="139.199" width="4.79638" height="4.79638" rx="2.39819" stroke="#8F95B2" stroke-width="1.59879"/>
<rect x="262.36" y="169.576" width="4.79638" height="4.79638" rx="2.39819" stroke="#8F95B2" stroke-width="1.59879"/>
<path d="M181.605 115.226H180.302L183.231 107.087H184.649L187.579 115.226H186.275L183.974 108.565H183.91L181.605 115.226ZM181.824 112.039H186.052V113.072H181.824V112.039ZM188.659 117.515V109.122H189.819V110.111H189.918C189.987 109.984 190.087 109.837 190.216 109.67C190.346 109.503 190.526 109.357 190.757 109.233C190.987 109.106 191.292 109.042 191.671 109.042C192.164 109.042 192.604 109.167 192.99 109.416C193.377 109.665 193.681 110.024 193.901 110.493C194.123 110.962 194.234 111.526 194.234 112.186C194.234 112.845 194.124 113.411 193.905 113.883C193.685 114.352 193.383 114.713 192.998 114.968C192.614 115.219 192.176 115.345 191.683 115.345C191.312 115.345 191.009 115.283 190.773 115.159C190.54 115.034 190.357 114.888 190.224 114.721C190.092 114.554 189.99 114.406 189.918 114.276H189.847V117.515H188.659ZM189.823 112.174C189.823 112.603 189.885 112.979 190.01 113.303C190.134 113.626 190.314 113.879 190.55 114.062C190.786 114.242 191.075 114.332 191.417 114.332C191.772 114.332 192.068 114.238 192.307 114.05C192.545 113.859 192.726 113.601 192.847 113.275C192.972 112.949 193.034 112.582 193.034 112.174C193.034 111.771 192.973 111.409 192.851 111.089C192.732 110.768 192.552 110.515 192.311 110.33C192.072 110.144 191.774 110.052 191.417 110.052C191.072 110.052 190.781 110.14 190.542 110.318C190.307 110.495 190.128 110.743 190.006 111.061C189.884 111.379 189.823 111.75 189.823 112.174ZM195.566 117.515V109.122H196.726V110.111H196.826C196.895 109.984 196.994 109.837 197.124 109.67C197.254 109.503 197.434 109.357 197.664 109.233C197.895 109.106 198.199 109.042 198.578 109.042C199.071 109.042 199.511 109.167 199.898 109.416C200.285 109.665 200.588 110.024 200.808 110.493C201.03 110.962 201.142 111.526 201.142 112.186C201.142 112.845 201.032 113.411 200.812 113.883C200.592 114.352 200.29 114.713 199.906 114.968C199.522 115.219 199.083 115.345 198.59 115.345C198.219 115.345 197.916 115.283 197.68 115.159C197.447 115.034 197.264 114.888 197.132 114.721C196.999 114.554 196.897 114.406 196.826 114.276H196.754V117.515H195.566ZM196.73 112.174C196.73 112.603 196.793 112.979 196.917 113.303C197.042 113.626 197.222 113.879 197.458 114.062C197.693 114.242 197.982 114.332 198.324 114.332C198.679 114.332 198.976 114.238 199.214 114.05C199.453 113.859 199.633 113.601 199.755 113.275C199.879 112.949 199.942 112.582 199.942 112.174C199.942 111.771 199.881 111.409 199.759 111.089C199.639 110.768 199.459 110.515 199.218 110.33C198.98 110.144 198.682 110.052 198.324 110.052C197.98 110.052 197.688 110.14 197.45 110.318C197.214 110.495 197.035 110.743 196.913 111.061C196.791 111.379 196.73 111.75 196.73 112.174Z" fill="#696F8C"/>
<path d="M181.605 145.604H180.302L183.231 137.464H184.649L187.579 145.604H186.275L183.974 138.943H183.91L181.605 145.604ZM181.824 142.416H186.052V143.449H181.824V142.416ZM188.659 147.893V139.499H189.819V140.489H189.918C189.987 140.361 190.087 140.214 190.216 140.047C190.346 139.881 190.526 139.735 190.757 139.61C190.987 139.483 191.292 139.42 191.671 139.42C192.164 139.42 192.604 139.544 192.99 139.793C193.377 140.042 193.681 140.401 193.901 140.87C194.123 141.339 194.234 141.903 194.234 142.563C194.234 143.223 194.124 143.789 193.905 144.26C193.685 144.729 193.383 145.091 192.998 145.345C192.614 145.597 192.176 145.723 191.683 145.723C191.312 145.723 191.009 145.66 190.773 145.536C190.54 145.411 190.357 145.266 190.224 145.099C190.092 144.932 189.99 144.783 189.918 144.654H189.847V147.893H188.659ZM189.823 142.551C189.823 142.98 189.885 143.357 190.01 143.68C190.134 144.003 190.314 144.256 190.55 144.439C190.786 144.619 191.075 144.709 191.417 144.709C191.772 144.709 192.068 144.615 192.307 144.427C192.545 144.236 192.726 143.978 192.847 143.652C192.972 143.326 193.034 142.959 193.034 142.551C193.034 142.149 192.973 141.787 192.851 141.466C192.732 141.146 192.552 140.893 192.311 140.707C192.072 140.522 191.774 140.429 191.417 140.429C191.072 140.429 190.781 140.518 190.542 140.695C190.307 140.873 190.128 141.121 190.006 141.438C189.884 141.756 189.823 142.127 189.823 142.551ZM195.566 147.893V139.499H196.726V140.489H196.826C196.895 140.361 196.994 140.214 197.124 140.047C197.254 139.881 197.434 139.735 197.664 139.61C197.895 139.483 198.199 139.42 198.578 139.42C199.071 139.42 199.511 139.544 199.898 139.793C200.285 140.042 200.588 140.401 200.808 140.87C201.03 141.339 201.142 141.903 201.142 142.563C201.142 143.223 201.032 143.789 200.812 144.26C200.592 144.729 200.29 145.091 199.906 145.345C199.522 145.597 199.083 145.723 198.59 145.723C198.219 145.723 197.916 145.66 197.68 145.536C197.447 145.411 197.264 145.266 197.132 145.099C196.999 144.932 196.897 144.783 196.826 144.654H196.754V147.893H195.566ZM196.73 142.551C196.73 142.98 196.793 143.357 196.917 143.68C197.042 144.003 197.222 144.256 197.458 144.439C197.693 144.619 197.982 144.709 198.324 144.709C198.679 144.709 198.976 144.615 199.214 144.427C199.453 144.236 199.633 143.978 199.755 143.652C199.879 143.326 199.942 142.959 199.942 142.551C199.942 142.149 199.881 141.787 199.759 141.466C199.639 141.146 199.459 140.893 199.218 140.707C198.98 140.522 198.682 140.429 198.324 140.429C197.98 140.429 197.688 140.518 197.45 140.695C197.214 140.873 197.035 141.121 196.913 141.438C196.791 141.756 196.73 142.127 196.73 142.551Z" fill="#696F8C"/>
<path d="M181.605 175.98H180.302L183.231 167.841H184.649L187.579 175.98H186.275L183.974 169.32H183.91L181.605 175.98ZM181.824 172.793H186.052V173.826H181.824V172.793ZM188.659 178.27V169.876H189.819V170.866H189.918C189.987 170.738 190.087 170.591 190.216 170.424C190.346 170.258 190.526 170.112 190.757 169.987C190.987 169.86 191.292 169.796 191.671 169.796C192.164 169.796 192.604 169.921 192.99 170.17C193.377 170.419 193.681 170.778 193.901 171.247C194.123 171.716 194.234 172.28 194.234 172.94C194.234 173.6 194.124 174.166 193.905 174.637C193.685 175.106 193.383 175.468 192.998 175.722C192.614 175.974 192.176 176.1 191.683 176.1C191.312 176.1 191.009 176.037 190.773 175.913C190.54 175.788 190.357 175.643 190.224 175.476C190.092 175.309 189.99 175.16 189.918 175.031H189.847V178.27H188.659ZM189.823 172.928C189.823 173.357 189.885 173.734 190.01 174.057C190.134 174.38 190.314 174.633 190.55 174.816C190.786 174.996 191.075 175.086 191.417 175.086C191.772 175.086 192.068 174.992 192.307 174.804C192.545 174.613 192.726 174.355 192.847 174.029C192.972 173.703 193.034 173.336 193.034 172.928C193.034 172.526 192.973 172.164 192.851 171.843C192.732 171.523 192.552 171.27 192.311 171.084C192.072 170.899 191.774 170.806 191.417 170.806C191.072 170.806 190.781 170.895 190.542 171.072C190.307 171.25 190.128 171.497 190.006 171.815C189.884 172.133 189.823 172.504 189.823 172.928ZM195.566 178.27V169.876H196.726V170.866H196.826C196.895 170.738 196.994 170.591 197.124 170.424C197.254 170.258 197.434 170.112 197.664 169.987C197.895 169.86 198.199 169.796 198.578 169.796C199.071 169.796 199.511 169.921 199.898 170.17C200.285 170.419 200.588 170.778 200.808 171.247C201.03 171.716 201.142 172.28 201.142 172.94C201.142 173.6 201.032 174.166 200.812 174.637C200.592 175.106 200.29 175.468 199.906 175.722C199.522 175.974 199.083 176.1 198.59 176.1C198.219 176.1 197.916 176.037 197.68 175.913C197.447 175.788 197.264 175.643 197.132 175.476C196.999 175.309 196.897 175.16 196.826 175.031H196.754V178.27H195.566ZM196.73 172.928C196.73 173.357 196.793 173.734 196.917 174.057C197.042 174.38 197.222 174.633 197.458 174.816C197.693 174.996 197.982 175.086 198.324 175.086C198.679 175.086 198.976 174.992 199.214 174.804C199.453 174.613 199.633 174.355 199.755 174.029C199.879 173.703 199.942 173.336 199.942 172.928C199.942 172.526 199.881 172.164 199.759 171.843C199.639 171.523 199.459 171.27 199.218 171.084C198.98 170.899 198.682 170.806 198.324 170.806C197.98 170.806 197.688 170.895 197.45 171.072C197.214 171.25 197.035 171.497 196.913 171.815C196.791 172.133 196.73 172.504 196.73 172.928Z" fill="#696F8C"/>
<path d="M212.642 58.5725H211.402C211.354 58.3075 211.265 58.0744 211.135 57.873C211.006 57.6717 210.847 57.5008 210.659 57.3603C210.47 57.2199 210.26 57.1139 210.027 57.0424C209.796 56.9709 209.551 56.9351 209.291 56.9351C208.822 56.9351 208.402 57.053 208.032 57.2888C207.663 57.5246 207.372 57.8704 207.157 58.3261C206.945 58.7818 206.839 59.3382 206.839 59.9953C206.839 60.6577 206.945 61.2167 207.157 61.6724C207.372 62.1281 207.665 62.4726 208.036 62.7057C208.406 62.9389 208.824 63.0555 209.287 63.0555C209.544 63.0555 209.788 63.021 210.019 62.9521C210.252 62.8806 210.462 62.776 210.651 62.6382C210.839 62.5004 210.998 62.3322 211.127 62.1334C211.26 61.9321 211.351 61.7016 211.402 61.4419L212.642 61.4459C212.575 61.846 212.447 62.2143 212.256 62.5507C212.068 62.8846 211.826 63.1734 211.529 63.4171C211.235 63.6582 210.898 63.845 210.519 63.9775C210.141 64.11 209.727 64.1762 209.279 64.1762C208.575 64.1762 207.947 64.0093 207.396 63.6755C206.845 63.339 206.41 62.8581 206.092 62.2328C205.777 61.6075 205.619 60.8617 205.619 59.9953C205.619 59.1262 205.778 58.3804 206.096 57.7578C206.414 57.1325 206.849 56.6529 207.4 56.3191C207.951 55.9826 208.577 55.8144 209.279 55.8144C209.711 55.8144 210.114 55.8766 210.488 56.0011C210.864 56.123 211.202 56.3032 211.501 56.5416C211.8 56.7774 212.048 57.0662 212.244 57.408C212.44 57.7472 212.573 58.1353 212.642 58.5725ZM215.204 55.9256V64.0649H214.016V55.9256H215.204ZM220.67 61.5333V57.9605H221.862V64.0649H220.694V63.0078H220.63C220.49 63.3337 220.264 63.6053 219.954 63.8225C219.647 64.0371 219.264 64.1444 218.806 64.1444C218.414 64.1444 218.067 64.0583 217.765 63.8861C217.465 63.7112 217.229 63.4529 217.057 63.1111C216.888 62.7693 216.803 62.3467 216.803 61.8433V57.9605H217.991V61.7002C217.991 62.1162 218.106 62.4474 218.337 62.6938C218.567 62.9402 218.867 63.0634 219.235 63.0634C219.458 63.0634 219.679 63.0078 219.899 62.8965C220.121 62.7852 220.305 62.617 220.451 62.3918C220.6 62.1666 220.672 61.8804 220.67 61.5333ZM228.033 59.4508L226.956 59.6416C226.911 59.5038 226.839 59.3726 226.741 59.2481C226.646 59.1236 226.516 59.0216 226.352 58.9421C226.188 58.8626 225.982 58.8229 225.736 58.8229C225.399 58.8229 225.119 58.8984 224.893 59.0494C224.668 59.1978 224.556 59.3899 224.556 59.6257C224.556 59.8297 224.631 59.994 224.782 60.1185C224.933 60.243 225.177 60.345 225.513 60.4245L226.483 60.6471C227.045 60.7769 227.463 60.9769 227.739 61.2472C228.015 61.5174 228.152 61.8685 228.152 62.3004C228.152 62.666 228.046 62.9919 227.834 63.278C227.625 63.5615 227.332 63.7841 226.956 63.9457C226.582 64.1073 226.149 64.1881 225.656 64.1881C224.973 64.1881 224.415 64.0424 223.983 63.751C223.551 63.4569 223.286 63.0396 223.188 62.4991L224.337 62.3242C224.409 62.6236 224.556 62.8501 224.778 63.0038C225.001 63.1548 225.291 63.2303 225.648 63.2303C226.038 63.2303 226.349 63.1495 226.582 62.9879C226.816 62.8236 226.932 62.6236 226.932 62.3878C226.932 62.197 226.861 62.0367 226.718 61.9069C226.577 61.7771 226.361 61.6791 226.07 61.6128L225.036 61.3863C224.467 61.2565 224.046 61.0498 223.773 60.7663C223.502 60.4828 223.367 60.1238 223.367 59.6893C223.367 59.3289 223.468 59.0136 223.669 58.7434C223.871 58.4731 224.149 58.2625 224.504 58.1115C224.859 57.9578 225.266 57.881 225.724 57.881C226.384 57.881 226.903 58.024 227.282 58.3102C227.661 58.5937 227.911 58.9739 228.033 59.4508ZM232.308 57.9605V58.9143H228.974V57.9605H232.308ZM229.868 56.4979H231.056V62.2725C231.056 62.5031 231.091 62.6766 231.16 62.7932C231.229 62.9071 231.317 62.9853 231.426 63.0277C231.537 63.0674 231.658 63.0873 231.788 63.0873C231.883 63.0873 231.967 63.0806 232.038 63.0674C232.11 63.0542 232.165 63.0436 232.205 63.0356L232.42 64.0173C232.351 64.0437 232.253 64.0702 232.126 64.0967C231.998 64.1259 231.839 64.1418 231.649 64.1444C231.336 64.1497 231.045 64.0941 230.774 63.9775C230.504 63.8609 230.285 63.6808 230.119 63.437C229.952 63.1933 229.868 62.8872 229.868 62.5189V56.4979ZM236.188 64.1881C235.587 64.1881 235.069 64.0596 234.634 63.8026C234.202 63.543 233.869 63.1787 233.633 62.7097C233.4 62.2381 233.283 61.6857 233.283 61.0524C233.283 60.4272 233.4 59.8761 233.633 59.3991C233.869 58.9222 234.197 58.55 234.618 58.2824C235.042 58.0148 235.538 57.881 236.105 57.881C236.449 57.881 236.783 57.9379 237.106 58.0519C237.43 58.1658 237.72 58.3446 237.977 58.5884C238.234 58.8321 238.436 59.1488 238.585 59.5382C238.733 59.9251 238.807 60.3954 238.807 60.9491V61.3704H233.955V60.4801H237.643C237.643 60.1675 237.579 59.8906 237.452 59.6495C237.325 59.4058 237.146 59.2137 236.916 59.0733C236.688 58.9328 236.42 58.8626 236.113 58.8626C235.779 58.8626 235.487 58.9448 235.238 59.109C234.992 59.2706 234.801 59.4826 234.666 59.7449C234.534 60.0046 234.467 60.2867 234.467 60.5914V61.2869C234.467 61.6949 234.539 62.042 234.682 62.3282C234.828 62.6143 235.03 62.8329 235.29 62.9839C235.55 63.1323 235.853 63.2065 236.2 63.2065C236.425 63.2065 236.631 63.1747 236.816 63.1111C237.002 63.0449 237.162 62.9468 237.297 62.817C237.432 62.6872 237.536 62.5269 237.607 62.3361L238.732 62.5388C238.642 62.87 238.48 63.1601 238.247 63.4092C238.016 63.6556 237.726 63.8477 237.377 63.9855C237.029 64.1206 236.633 64.1881 236.188 64.1881ZM240.126 64.0649V57.9605H241.274V58.9302H241.338C241.449 58.6016 241.645 58.3433 241.926 58.1552C242.21 57.9644 242.53 57.869 242.888 57.869C242.962 57.869 243.05 57.8717 243.15 57.877C243.254 57.8823 243.334 57.8889 243.393 57.8969V59.0335C243.345 59.0203 243.26 59.0057 243.138 58.9898C243.016 58.9712 242.895 58.962 242.773 58.962C242.492 58.962 242.241 59.0216 242.021 59.1408C241.804 59.2574 241.632 59.4203 241.505 59.6297C241.378 59.8363 241.314 60.0721 241.314 60.3371V64.0649H240.126Z" fill="#696F8C"/>
<path d="M12.9498 114.418C12.9498 112.652 14.3814 111.22 16.1474 111.22H96.087C97.853 111.22 99.2846 112.652 99.2846 114.418V167.977C99.2846 169.743 97.853 171.175 96.087 171.175H16.1474C14.3814 171.175 12.9498 169.743 12.9498 167.977V114.418Z" fill="white" stroke="#8F95B2" stroke-width="1.59879"/>
<rect x="20.9439" y="158.385" width="22.3831" height="4.79638" rx="0.799397" fill="white" stroke="#8F95B2" stroke-width="1.59879"/>
<rect x="48.9224" y="158.385" width="6.39517" height="4.79638" rx="0.799397" stroke="#8F95B2" stroke-width="1.59879"/>
<rect x="86.4947" y="158.385" width="4.79638" height="4.79638" rx="2.39819" stroke="#8F95B2" stroke-width="1.59879"/>
<g clip-path="url(#clip1_742_98)">
<path d="M52.9203 136.801C52.9203 135.918 53.6361 135.202 54.5191 135.202H56.1163H56.1194H57.7167C58.5997 135.202 59.3155 135.918 59.3155 136.801V139.999C59.3155 140.882 58.5997 141.598 57.7167 141.598H54.5191C53.6361 141.598 52.9203 140.882 52.9203 139.999V136.801Z" fill="white"/>
<path fill-rule="evenodd" clip-rule="evenodd" d="M57.7167 136.801H54.5191V139.999H57.7167V136.801ZM54.5191 135.202C53.6361 135.202 52.9203 135.918 52.9203 136.801V139.999C52.9203 140.882 53.6361 141.598 54.5191 141.598H57.7167C58.5997 141.598 59.3155 140.882 59.3155 139.999V136.801C59.3155 135.918 58.5997 135.202 57.7167 135.202H56.1194H56.1163H54.5191Z" fill="#8F95B2"/>
<path d="M61.7137 136.801C61.7137 135.918 62.4295 135.202 63.3125 135.202H64.9097H64.9128H66.5101C67.393 135.202 68.1089 135.918 68.1089 136.801V139.999C68.1089 140.882 67.393 141.598 66.5101 141.598H63.3125C62.4295 141.598 61.7137 140.882 61.7137 139.999V136.801Z" fill="white"/>
<path fill-rule="evenodd" clip-rule="evenodd" d="M66.5101 136.801H63.3125V139.999H66.5101V136.801ZM63.3125 135.202C62.4295 135.202 61.7137 135.918 61.7137 136.801V139.999C61.7137 140.882 62.4295 141.598 63.3125 141.598H66.5101C67.393 141.598 68.1089 140.882 68.1089 139.999V136.801C68.1089 135.918 67.393 135.202 66.5101 135.202H64.9128H64.9097H63.3125Z" fill="#8F95B2"/>
<path d="M44.127 136.801C44.127 135.918 44.8428 135.202 45.7257 135.202H47.3229H47.3261H48.9233C49.8063 135.202 50.5221 135.918 50.5221 136.801V139.999C50.5221 140.882 49.8063 141.598 48.9233 141.598H45.7257C44.8428 141.598 44.127 140.882 44.127 139.999V136.801Z" fill="white"/>
<path fill-rule="evenodd" clip-rule="evenodd" d="M48.9233 136.801H45.7257V139.999H48.9233V136.801ZM45.7257 135.202C44.8428 135.202 44.127 135.918 44.127 136.801V139.999C44.127 140.882 44.8428 141.598 45.7257 141.598H48.9233C49.8063 141.598 50.5221 140.882 50.5221 139.999V136.801C50.5221 135.918 49.8063 135.202 48.9233 135.202H47.3261H47.3229H45.7257Z" fill="#8F95B2"/>
<path fill-rule="evenodd" clip-rule="evenodd" d="M57.7167 118.415H54.5191C53.6361 118.415 52.9203 119.131 52.9203 120.014V123.211C52.9203 124.094 53.6361 124.81 54.5191 124.81H55.3185V128.008H48.1239C47.2409 128.008 46.5251 128.724 46.5251 129.607V132.473L46 131.948C45.6878 131.636 45.1817 131.636 44.8695 131.948C44.5573 132.26 44.5573 132.766 44.8695 133.078L46.7592 134.968C46.9149 135.124 47.1189 135.202 47.3229 135.202H47.3261C47.5301 135.202 47.7341 135.124 47.8898 134.968L49.7795 133.078C50.0917 132.766 50.0917 132.26 49.7795 131.948C49.4673 131.636 48.9612 131.636 48.649 131.948L48.1239 132.473V129.607H55.3185V132.473L54.7934 131.948C54.4812 131.636 53.975 131.636 53.6629 131.948C53.3507 132.26 53.3507 132.766 53.6629 133.078L55.5526 134.968C55.7083 135.124 55.9122 135.202 56.1163 135.202H56.1194C56.3235 135.202 56.5274 135.124 56.6831 134.968L58.5729 133.078C58.885 132.766 58.885 132.26 58.5729 131.948C58.2607 131.636 57.7545 131.636 57.4423 131.948L56.9173 132.473V129.607H64.1119V132.473L63.5868 131.948C63.2746 131.636 62.7684 131.636 62.4563 131.948C62.1441 132.26 62.1441 132.766 62.4563 133.078L64.346 134.968C64.5017 135.124 64.7056 135.202 64.9097 135.202H64.9128C65.1169 135.202 65.3208 135.124 65.4765 134.968L67.3663 133.078C67.6785 132.766 67.6785 132.26 67.3663 131.948C67.0541 131.636 66.5479 131.636 66.2358 131.948L65.7107 132.473V129.607C65.7107 128.724 64.9949 128.008 64.1119 128.008H56.9173V124.81H57.7167C58.5997 124.81 59.3155 124.094 59.3155 123.211V120.014C59.3155 119.131 58.5997 118.415 57.7167 118.415ZM57.7167 120.014H54.5191V123.211H57.7167V120.014Z" fill="#8F95B2"/>
</g>
<path d="M20.1445 149.591H92.0902" stroke="#8F95B2" stroke-width="1.59879" stroke-linecap="round" stroke-linejoin="round"/>
<path d="M19.0647 98.439V90.2997H20.2928V97.3818H23.9809V98.439H19.0647ZM27.8578 98.5622C27.2855 98.5622 26.7861 98.431 26.3595 98.1687C25.933 97.9064 25.6018 97.5395 25.366 97.0678C25.1302 96.5962 25.0122 96.0451 25.0122 95.4145C25.0122 94.7813 25.1302 94.2276 25.366 93.7533C25.6018 93.279 25.933 92.9108 26.3595 92.6484C26.7861 92.3861 27.2855 92.255 27.8578 92.255C28.4301 92.255 28.9296 92.3861 29.3561 92.6484C29.7827 92.9108 30.1139 93.279 30.3497 93.7533C30.5855 94.2276 30.7034 94.7813 30.7034 95.4145C30.7034 96.0451 30.5855 96.5962 30.3497 97.0678C30.1139 97.5395 29.7827 97.9064 29.3561 98.1687C28.9296 98.431 28.4301 98.5622 27.8578 98.5622ZM27.8618 97.5646C28.2327 97.5646 28.5401 97.4666 28.7838 97.2705C29.0276 97.0745 29.2078 96.8135 29.3243 96.4876C29.4436 96.1617 29.5032 95.8027 29.5032 95.4106C29.5032 95.0211 29.4436 94.6634 29.3243 94.3375C29.2078 94.009 29.0276 93.7453 28.7838 93.5466C28.5401 93.3479 28.2327 93.2486 27.8618 93.2486C27.4882 93.2486 27.1782 93.3479 26.9318 93.5466C26.6881 93.7453 26.5066 94.009 26.3873 94.3375C26.2708 94.6634 26.2125 95.0211 26.2125 95.4106C26.2125 95.8027 26.2708 96.1617 26.3873 96.4876C26.5066 96.8135 26.6881 97.0745 26.9318 97.2705C27.1782 97.4666 27.4882 97.5646 27.8618 97.5646ZM33.8063 98.5741C33.4195 98.5741 33.0698 98.5026 32.7571 98.3595C32.4445 98.2138 32.1967 98.0031 32.0139 97.7276C31.8338 97.452 31.7437 97.1142 31.7437 96.7141C31.7437 96.3697 31.8099 96.0862 31.9424 95.8636C32.0749 95.6411 32.2537 95.4649 32.4789 95.3351C32.7041 95.2052 32.9558 95.1072 33.234 95.041C33.5122 94.9747 33.7957 94.9244 34.0845 94.8899C34.4502 94.8475 34.7469 94.8131 34.9748 94.7866C35.2026 94.7575 35.3682 94.7111 35.4715 94.6475C35.5749 94.5839 35.6265 94.4806 35.6265 94.3375V94.3097C35.6265 93.9626 35.5285 93.6937 35.3324 93.5029C35.139 93.3122 34.8502 93.2168 34.466 93.2168C34.066 93.2168 33.7507 93.3055 33.5202 93.483C33.2923 93.6579 33.1347 93.8527 33.0472 94.0673L31.9305 93.8129C32.0629 93.442 32.2564 93.1426 32.5107 92.9147C32.7677 92.6842 33.0631 92.5173 33.397 92.414C33.7308 92.308 34.0819 92.255 34.4502 92.255C34.6939 92.255 34.9522 92.2841 35.2251 92.3424C35.5007 92.3981 35.7577 92.5014 35.9961 92.6524C36.2373 92.8034 36.4346 93.0194 36.5883 93.3002C36.742 93.5784 36.8188 93.9401 36.8188 94.3852V98.439H35.6583V97.6044H35.6106C35.5338 97.758 35.4186 97.9091 35.2649 98.0574C35.1112 98.2058 34.9138 98.329 34.6727 98.427C34.4316 98.5251 34.1428 98.5741 33.8063 98.5741ZM34.0646 97.6203C34.3932 97.6203 34.674 97.5554 34.9072 97.4255C35.143 97.2957 35.3218 97.1261 35.4437 96.9168C35.5682 96.7049 35.6305 96.4783 35.6305 96.2372V95.4503C35.5881 95.4927 35.506 95.5324 35.3841 95.5695C35.2649 95.604 35.1284 95.6345 34.9748 95.6609C34.8211 95.6848 34.6714 95.7073 34.5257 95.7285C34.3799 95.7471 34.2581 95.763 34.16 95.7762C33.9295 95.8053 33.7189 95.8544 33.5281 95.9232C33.34 95.9921 33.189 96.0915 33.0751 96.2213C32.9638 96.3485 32.9081 96.5181 32.9081 96.73C32.9081 97.0241 33.0168 97.2467 33.234 97.3977C33.4513 97.5461 33.7282 97.6203 34.0646 97.6203ZM40.6868 98.5582C40.194 98.5582 39.7542 98.4323 39.3673 98.1806C38.9831 97.9263 38.6811 97.5646 38.4612 97.0957C38.2439 96.624 38.1353 96.0584 38.1353 95.3986C38.1353 94.7389 38.2453 94.1746 38.4652 93.7056C38.6877 93.2366 38.9924 92.8776 39.3792 92.6286C39.7661 92.3795 40.2046 92.255 40.6947 92.255C41.0736 92.255 41.3783 92.3186 41.6088 92.4458C41.842 92.5703 42.0221 92.716 42.1493 92.8829C42.2791 93.0499 42.3798 93.1969 42.4514 93.3241H42.5229V90.2997H43.7112V98.439H42.5507V97.4891H42.4514C42.3798 97.6189 42.2765 97.7673 42.1414 97.9342C42.0089 98.1012 41.8261 98.2469 41.5929 98.3714C41.3598 98.4959 41.0577 98.5582 40.6868 98.5582ZM40.9491 97.5448C41.2909 97.5448 41.5797 97.4547 41.8155 97.2745C42.0539 97.0917 42.2341 96.8387 42.356 96.5154C42.4805 96.1922 42.5428 95.8159 42.5428 95.3867C42.5428 94.9628 42.4818 94.5919 42.36 94.2739C42.2381 93.956 42.0592 93.7083 41.8234 93.5307C41.5876 93.3532 41.2962 93.2645 40.9491 93.2645C40.5914 93.2645 40.2933 93.3572 40.0549 93.5427C39.8164 93.7281 39.6362 93.9812 39.5144 94.3017C39.3951 94.6223 39.3355 94.984 39.3355 95.3867C39.3355 95.7947 39.3965 96.1617 39.5183 96.4876C39.6402 96.8135 39.8204 97.0718 40.0588 97.2626C40.3 97.4507 40.5967 97.5448 40.9491 97.5448ZM48.4644 98.439V90.2997H51.4451C52.0227 90.2997 52.501 90.395 52.8799 90.5858C53.2587 90.7739 53.5422 91.0296 53.7303 91.3528C53.9185 91.6734 54.0125 92.0351 54.0125 92.4378C54.0125 92.777 53.9503 93.0631 53.8257 93.2963C53.7012 93.5268 53.5343 93.7122 53.325 93.8527C53.1183 93.9904 52.8904 94.0911 52.6414 94.1547V94.2342C52.9116 94.2474 53.1753 94.3349 53.4323 94.4965C53.6919 94.6555 53.9065 94.882 54.0761 95.1761C54.2457 95.4702 54.3305 95.8279 54.3305 96.2491C54.3305 96.6651 54.2324 97.0387 54.0364 97.3699C53.8429 97.6984 53.5436 97.9594 53.1382 98.1528C52.7328 98.3436 52.2148 98.439 51.5842 98.439H48.4644ZM49.6925 97.3858H51.465C52.0532 97.3858 52.4745 97.2719 52.7288 97.044C52.9832 96.8161 53.1104 96.5313 53.1104 96.1895C53.1104 95.9325 53.0454 95.6967 52.9156 95.4821C52.7858 95.2675 52.6003 95.0966 52.3592 94.9694C52.1208 94.8422 51.8373 94.7787 51.5087 94.7787H49.6925V97.3858ZM49.6925 93.8209H51.3378C51.6134 93.8209 51.8611 93.7679 52.081 93.6619C52.3036 93.5559 52.4798 93.4075 52.6096 93.2168C52.7421 93.0234 52.8083 92.7955 52.8083 92.5332C52.8083 92.1967 52.6904 91.9145 52.4546 91.6867C52.2188 91.4588 51.8571 91.3449 51.3696 91.3449H49.6925V93.8209ZM57.4681 98.5741C57.0813 98.5741 56.7316 98.5026 56.4189 98.3595C56.1063 98.2138 55.8586 98.0031 55.6758 97.7276C55.4956 97.452 55.4055 97.1142 55.4055 96.7141C55.4055 96.3697 55.4717 96.0862 55.6042 95.8636C55.7367 95.6411 55.9155 95.4649 56.1407 95.3351C56.3659 95.2052 56.6177 95.1072 56.8959 95.041C57.1741 94.9747 57.4575 94.9244 57.7463 94.8899C58.112 94.8475 58.4087 94.8131 58.6366 94.7866C58.8644 94.7575 59.03 94.7111 59.1334 94.6475C59.2367 94.5839 59.2884 94.4806 59.2884 94.3375V94.3097C59.2884 93.9626 59.1903 93.6937 58.9943 93.5029C58.8009 93.3122 58.5121 93.2168 58.1279 93.2168C57.7278 93.2168 57.4125 93.3055 57.182 93.483C56.9541 93.6579 56.7965 93.8527 56.7091 94.0673L55.5923 93.8129C55.7248 93.442 55.9182 93.1426 56.1725 92.9147C56.4295 92.6842 56.725 92.5173 57.0588 92.414C57.3926 92.308 57.7437 92.255 58.112 92.255C58.3557 92.255 58.6141 92.2841 58.887 92.3424C59.1625 92.3981 59.4195 92.5014 59.658 92.6524C59.8991 92.8034 60.0965 93.0194 60.2501 93.3002C60.4038 93.5784 60.4806 93.9401 60.4806 94.3852V98.439H59.3202V97.6044H59.2725C59.1956 97.758 59.0804 97.9091 58.9267 98.0574C58.773 98.2058 58.5756 98.329 58.3345 98.427C58.0934 98.5251 57.8046 98.5741 57.4681 98.5741ZM57.7265 97.6203C58.055 97.6203 58.3359 97.5554 58.569 97.4255C58.8048 97.2957 58.9837 97.1261 59.1055 96.9168C59.2301 96.7049 59.2923 96.4783 59.2923 96.2372V95.4503C59.2499 95.4927 59.1678 95.5324 59.0459 95.5695C58.9267 95.604 58.7903 95.6345 58.6366 95.6609C58.4829 95.6848 58.3332 95.7073 58.1875 95.7285C58.0418 95.7471 57.9199 95.763 57.8219 95.7762C57.5913 95.8053 57.3807 95.8544 57.1899 95.9232C57.0018 95.9921 56.8508 96.0915 56.7369 96.2213C56.6256 96.3485 56.57 96.5181 56.57 96.73C56.57 97.0241 56.6786 97.2467 56.8959 97.3977C57.1131 97.5461 57.39 97.6203 57.7265 97.6203ZM63.2517 90.2997V98.439H62.0634V90.2997H63.2517ZM66.6269 98.5741C66.24 98.5741 65.8903 98.5026 65.5777 98.3595C65.265 98.2138 65.0173 98.0031 64.8345 97.7276C64.6543 97.452 64.5642 97.1142 64.5642 96.7141C64.5642 96.3697 64.6305 96.0862 64.7629 95.8636C64.8954 95.6411 65.0742 95.4649 65.2995 95.3351C65.5247 95.2052 65.7764 95.1072 66.0546 95.041C66.3328 94.9747 66.6163 94.9244 66.9051 94.8899C67.2707 94.8475 67.5674 94.8131 67.7953 94.7866C68.0232 94.7575 68.1888 94.7111 68.2921 94.6475C68.3954 94.5839 68.4471 94.4806 68.4471 94.3375V94.3097C68.4471 93.9626 68.349 93.6937 68.153 93.5029C67.9596 93.3122 67.6708 93.2168 67.2866 93.2168C66.8865 93.2168 66.5712 93.3055 66.3407 93.483C66.1129 93.6579 65.9552 93.8527 65.8678 94.0673L64.751 93.8129C64.8835 93.442 65.0769 93.1426 65.3312 92.9147C65.5883 92.6842 65.8837 92.5173 66.2175 92.414C66.5514 92.308 66.9024 92.255 67.2707 92.255C67.5144 92.255 67.7728 92.2841 68.0457 92.3424C68.3212 92.3981 68.5782 92.5014 68.8167 92.6524C69.0578 92.8034 69.2552 93.0194 69.4089 93.3002C69.5625 93.5784 69.6394 93.9401 69.6394 94.3852V98.439H68.4789V97.6044H68.4312C68.3543 97.758 68.2391 97.9091 68.0854 98.0574C67.9317 98.2058 67.7344 98.329 67.4933 98.427C67.2521 98.5251 66.9634 98.5741 66.6269 98.5741ZM66.8852 97.6203C67.2137 97.6203 67.4946 97.5554 67.7277 97.4255C67.9635 97.2957 68.1424 97.1261 68.2643 96.9168C68.3888 96.7049 68.4511 96.4783 68.4511 96.2372V95.4503C68.4087 95.4927 68.3265 95.5324 68.2046 95.5695C68.0854 95.604 67.949 95.6345 67.7953 95.6609C67.6416 95.6848 67.4919 95.7073 67.3462 95.7285C67.2005 95.7471 67.0786 95.763 66.9806 95.7762C66.7501 95.8053 66.5394 95.8544 66.3487 95.9232C66.1605 95.9921 66.0095 96.0915 65.8956 96.2213C65.7843 96.3485 65.7287 96.5181 65.7287 96.73C65.7287 97.0241 65.8373 97.2467 66.0546 97.3977C66.2718 97.5461 66.5487 97.6203 66.8852 97.6203ZM72.4104 94.8144V98.439H71.2221V92.3345H72.3627V93.328H72.4382C72.5787 93.0048 72.7986 92.7452 73.098 92.5491C73.4 92.353 73.7802 92.255 74.2386 92.255C74.6546 92.255 75.0189 92.3424 75.3315 92.5173C75.6442 92.6895 75.8866 92.9465 76.0588 93.2883C76.231 93.6301 76.3171 94.0527 76.3171 94.5561V98.439H75.1288V94.6992C75.1288 94.2567 75.0136 93.9109 74.7831 93.6619C74.5526 93.4102 74.2359 93.2843 73.8332 93.2843C73.5577 93.2843 73.3126 93.3439 73.098 93.4632C72.886 93.5824 72.7178 93.7573 72.5932 93.9878C72.4714 94.2156 72.4104 94.4912 72.4104 94.8144ZM80.4822 98.5622C79.8913 98.5622 79.3826 98.4284 78.9561 98.1608C78.5321 97.8905 78.2062 97.5183 77.9784 97.044C77.7505 96.5697 77.6366 96.0266 77.6366 95.4145C77.6366 94.7946 77.7532 94.2474 77.9863 93.7732C78.2195 93.2963 78.548 92.924 78.9719 92.6564C79.3959 92.3888 79.8953 92.255 80.4702 92.255C80.9339 92.255 81.3472 92.3411 81.7102 92.5133C82.0732 92.6829 82.366 92.9213 82.5885 93.2287C82.8137 93.536 82.9475 93.895 82.9899 94.3057H81.8334C81.7698 94.0196 81.6241 93.7732 81.3963 93.5665C81.171 93.3598 80.869 93.2565 80.4901 93.2565C80.1589 93.2565 79.8688 93.3439 79.6198 93.5188C79.3733 93.691 79.1813 93.9374 79.0435 94.258C78.9057 94.576 78.8368 94.9522 78.8368 95.3867C78.8368 95.8318 78.9044 96.216 79.0395 96.5393C79.1746 96.8625 79.3654 97.1129 79.6118 97.2904C79.8609 97.4679 80.1536 97.5567 80.4901 97.5567C80.7153 97.5567 80.9193 97.5156 81.1022 97.4335C81.2876 97.3487 81.4426 97.2281 81.5671 97.0718C81.6943 96.9155 81.7831 96.7274 81.8334 96.5075H82.9899C82.9475 96.9022 82.819 97.2546 82.6044 97.5646C82.3898 97.8746 82.1024 98.1184 81.742 98.2959C81.3843 98.4734 80.9644 98.5622 80.4822 98.5622ZM86.8917 98.5622C86.2902 98.5622 85.7723 98.4337 85.3377 98.1767C84.9059 97.917 84.572 97.5527 84.3362 97.0837C84.1031 96.6121 83.9865 96.0597 83.9865 95.4265C83.9865 94.8012 84.1031 94.2501 84.3362 93.7732C84.572 93.2963 84.9006 92.924 85.3218 92.6564C85.7458 92.3888 86.2412 92.255 86.8082 92.255C87.1527 92.255 87.4865 92.312 87.8097 92.4259C88.133 92.5398 88.4231 92.7187 88.6801 92.9624C88.9371 93.2062 89.1398 93.5228 89.2882 93.9123C89.4365 94.2991 89.5107 94.7694 89.5107 95.3231V95.7444H84.6581V94.8542H88.3463C88.3463 94.5415 88.2827 94.2647 88.1555 94.0235C88.0283 93.7798 87.8495 93.5877 87.619 93.4473C87.3911 93.3069 87.1235 93.2366 86.8162 93.2366C86.4823 93.2366 86.1909 93.3188 85.9418 93.483C85.6954 93.6447 85.5047 93.8566 85.3695 94.1189C85.2371 94.3786 85.1708 94.6608 85.1708 94.9655V95.6609C85.1708 96.069 85.2424 96.4161 85.3854 96.7022C85.5312 96.9884 85.7338 97.2069 85.9935 97.358C86.2531 97.5063 86.5565 97.5805 86.9036 97.5805C87.1288 97.5805 87.3342 97.5487 87.5196 97.4851C87.7051 97.4189 87.8654 97.3209 88.0005 97.191C88.1356 97.0612 88.239 96.9009 88.3105 96.7102L89.4352 96.9128C89.3451 97.244 89.1835 97.5342 88.9504 97.7832C88.7198 98.0296 88.4297 98.2217 88.08 98.3595C87.7329 98.4946 87.3368 98.5622 86.8917 98.5622ZM90.8292 98.439V92.3345H91.9778V93.3042H92.0413C92.1526 92.9757 92.3487 92.7173 92.6295 92.5292C92.913 92.3385 93.2336 92.2431 93.5913 92.2431C93.6655 92.2431 93.7529 92.2457 93.8536 92.251C93.9569 92.2563 94.0378 92.2629 94.096 92.2709V93.4075C94.0484 93.3943 93.9636 93.3797 93.8417 93.3638C93.7198 93.3453 93.5979 93.336 93.4761 93.336C93.1952 93.336 92.9448 93.3956 92.7249 93.5148C92.5077 93.6314 92.3354 93.7944 92.2083 94.0037C92.0811 94.2103 92.0175 94.4461 92.0175 94.7111V98.439H90.8292Z" fill="#696F8C"/>
<path d="M348.698 114.418C348.698 112.652 350.129 111.22 351.895 111.22H431.835C433.601 111.22 435.033 112.652 435.033 114.418V167.977C435.033 169.743 433.601 171.175 431.835 171.175H351.895C350.129 171.175 348.698 169.743 348.698 167.977V114.418Z" fill="white" stroke="#8F95B2" stroke-width="1.59879"/>
<rect x="422.243" y="158.385" width="4.79638" height="4.79638" rx="2.39819" stroke="#8F95B2" stroke-width="1.59879"/>
<rect x="356.692" y="158.385" width="22.3831" height="4.79638" rx="0.799397" stroke="#8F95B2" stroke-width="1.59879"/>
<rect x="384.67" y="158.385" width="6.39517" height="4.79638" rx="0.799397" stroke="#8F95B2" stroke-width="1.59879"/>
<path d="M355.893 149.591H427.838" stroke="#8F95B2" stroke-width="1.59879" stroke-linecap="round" stroke-linejoin="round"/>
<path fill-rule="evenodd" clip-rule="evenodd" d="M379.875 136.662V123.351C379.875 122.728 379.964 122.095 380.359 121.615C381.318 120.449 384.054 118.415 391.466 118.415C398.879 118.415 401.614 120.449 402.573 121.615C402.969 122.095 403.058 122.728 403.058 123.351V136.662C403.058 137.284 402.969 137.917 402.573 138.398C401.614 139.564 398.879 141.598 391.466 141.598C384.054 141.598 381.318 139.564 380.359 138.398C379.964 137.917 379.875 137.284 379.875 136.662ZM401.41 122.805C401.381 122.687 401.35 122.644 401.339 122.63C400.792 121.966 398.605 120.014 391.466 120.014C384.328 120.014 382.14 121.966 381.594 122.63C381.583 122.644 381.551 122.687 381.523 122.805C381.517 122.829 381.512 122.854 381.507 122.881C381.512 122.908 381.517 122.934 381.523 122.957C381.551 123.075 381.583 123.119 381.594 123.132C382.14 123.796 384.328 125.749 391.466 125.749C398.605 125.749 400.792 123.796 401.339 123.132C401.35 123.119 401.381 123.075 401.41 122.957C401.415 122.934 401.421 122.908 401.426 122.881C401.421 122.854 401.415 122.829 401.41 122.805ZM381.523 130.152C381.492 130.026 381.474 129.85 381.474 129.607V125.152C383 126.212 385.927 127.348 391.466 127.348C397.005 127.348 399.933 126.212 401.459 125.152V129.607C401.459 129.85 401.44 130.026 401.41 130.152C401.381 130.27 401.35 130.313 401.339 130.327C400.792 130.991 398.605 132.943 391.466 132.943C384.328 132.943 382.14 130.991 381.594 130.327C381.583 130.313 381.551 130.27 381.523 130.152ZM381.474 136.662C381.474 136.906 381.492 137.081 381.523 137.207C381.551 137.325 381.583 137.369 381.594 137.382C382.14 138.046 384.328 139.999 391.466 139.999C398.605 139.999 400.792 138.046 401.339 137.382C401.35 137.369 401.381 137.325 401.41 137.207C401.44 137.081 401.459 136.906 401.459 136.662V132.346C399.933 133.407 397.005 134.542 391.466 134.542C385.927 134.542 383 133.407 381.474 132.346V136.662Z" fill="#8F95B2"/>
<path d="M369.847 98.439H367.212V90.2997H369.931C370.728 90.2997 371.413 90.4626 371.985 90.7885C372.558 91.1117 372.996 91.5767 373.301 92.1835C373.608 92.7875 373.762 93.5122 373.762 94.3574C373.762 95.2052 373.607 95.9338 373.297 96.5432C372.99 97.1526 372.544 97.6216 371.962 97.9501C371.379 98.276 370.674 98.439 369.847 98.439ZM368.44 97.3659H369.78C370.4 97.3659 370.915 97.2493 371.326 97.0162C371.736 96.7804 372.044 96.4399 372.248 95.9948C372.452 95.547 372.554 95.0012 372.554 94.3574C372.554 93.7189 372.452 93.177 372.248 92.7319C372.046 92.2868 371.746 91.949 371.346 91.7185C370.945 91.488 370.449 91.3727 369.855 91.3727H368.44V97.3659ZM376.97 98.5741C376.583 98.5741 376.234 98.5026 375.921 98.3595C375.608 98.2138 375.361 98.0031 375.178 97.7276C374.998 97.452 374.907 97.1142 374.907 96.7141C374.907 96.3697 374.974 96.0862 375.106 95.8636C375.239 95.6411 375.417 95.4649 375.643 95.3351C375.868 95.2052 376.12 95.1072 376.398 95.041C376.676 94.9747 376.959 94.9244 377.248 94.8899C377.614 94.8475 377.911 94.8131 378.139 94.7866C378.366 94.7575 378.532 94.7111 378.635 94.6475C378.739 94.5839 378.79 94.4806 378.79 94.3375V94.3097C378.79 93.9626 378.692 93.6937 378.496 93.5029C378.303 93.3122 378.014 93.2168 377.63 93.2168C377.23 93.2168 376.914 93.3055 376.684 93.483C376.456 93.6579 376.298 93.8527 376.211 94.0673L375.094 93.8129C375.227 93.442 375.42 93.1426 375.674 92.9147C375.931 92.6842 376.227 92.5173 376.561 92.414C376.895 92.308 377.246 92.255 377.614 92.255C377.858 92.255 378.116 92.2841 378.389 92.3424C378.664 92.3981 378.921 92.5014 379.16 92.6524C379.401 92.8034 379.598 93.0194 379.752 93.3002C379.906 93.5784 379.983 93.9401 379.983 94.3852V98.439H378.822V97.6044H378.774C378.698 97.758 378.582 97.9091 378.429 98.0574C378.275 98.2058 378.078 98.329 377.836 98.427C377.595 98.5251 377.307 98.5741 376.97 98.5741ZM377.228 97.6203C377.557 97.6203 377.838 97.5554 378.071 97.4255C378.307 97.2957 378.486 97.1261 378.607 96.9168C378.732 96.7049 378.794 96.4783 378.794 96.2372V95.4503C378.752 95.4927 378.67 95.5324 378.548 95.5695C378.429 95.604 378.292 95.6345 378.139 95.6609C377.985 95.6848 377.835 95.7073 377.689 95.7285C377.544 95.7471 377.422 95.763 377.324 95.7762C377.093 95.8053 376.883 95.8544 376.692 95.9232C376.504 95.9921 376.353 96.0915 376.239 96.2213C376.128 96.3485 376.072 96.5181 376.072 96.73C376.072 97.0241 376.181 97.2467 376.398 97.3977C376.615 97.5461 376.892 97.6203 377.228 97.6203ZM384.415 92.3345V93.2883H381.08V92.3345H384.415ZM381.975 90.8719H383.163V96.6466C383.163 96.8771 383.197 97.0506 383.266 97.1672C383.335 97.2811 383.424 97.3593 383.533 97.4017C383.644 97.4414 383.764 97.4613 383.894 97.4613C383.99 97.4613 384.073 97.4547 384.145 97.4414C384.216 97.4282 384.272 97.4176 384.312 97.4096L384.526 98.3913C384.457 98.4178 384.359 98.4443 384.232 98.4708C384.105 98.4999 383.946 98.5158 383.755 98.5185C383.443 98.5237 383.151 98.4681 382.881 98.3515C382.611 98.235 382.392 98.0548 382.225 97.811C382.058 97.5673 381.975 97.2613 381.975 96.893V90.8719ZM387.506 98.5741C387.119 98.5741 386.769 98.5026 386.457 98.3595C386.144 98.2138 385.896 98.0031 385.713 97.7276C385.533 97.452 385.443 97.1142 385.443 96.7141C385.443 96.3697 385.509 96.0862 385.642 95.8636C385.774 95.6411 385.953 95.4649 386.178 95.3351C386.404 95.2052 386.655 95.1072 386.934 95.041C387.212 94.9747 387.495 94.9244 387.784 94.8899C388.15 94.8475 388.446 94.8131 388.674 94.7866C388.902 94.7575 389.068 94.7111 389.171 94.6475C389.274 94.5839 389.326 94.4806 389.326 94.3375V94.3097C389.326 93.9626 389.228 93.6937 389.032 93.5029C388.839 93.3122 388.55 93.2168 388.166 93.2168C387.766 93.2168 387.45 93.3055 387.22 93.483C386.992 93.6579 386.834 93.8527 386.747 94.0673L385.63 93.8129C385.763 93.442 385.956 93.1426 386.21 92.9147C386.467 92.6842 386.763 92.5173 387.097 92.414C387.43 92.308 387.781 92.255 388.15 92.255C388.393 92.255 388.652 92.2841 388.925 92.3424C389.2 92.3981 389.457 92.5014 389.696 92.6524C389.937 92.8034 390.134 93.0194 390.288 93.3002C390.442 93.5784 390.518 93.9401 390.518 94.3852V98.439H389.358V97.6044H389.31C389.233 97.758 389.118 97.9091 388.964 98.0574C388.811 98.2058 388.613 98.329 388.372 98.427C388.131 98.5251 387.842 98.5741 387.506 98.5741ZM387.764 97.6203C388.093 97.6203 388.374 97.5554 388.607 97.4255C388.843 97.2957 389.021 97.1261 389.143 96.9168C389.268 96.7049 389.33 96.4783 389.33 96.2372V95.4503C389.288 95.4927 389.206 95.5324 389.084 95.5695C388.964 95.604 388.828 95.6345 388.674 95.6609C388.521 95.6848 388.371 95.7073 388.225 95.7285C388.08 95.7471 387.958 95.763 387.86 95.7762C387.629 95.8053 387.418 95.8544 387.228 95.9232C387.04 95.9921 386.889 96.0915 386.775 96.2213C386.663 96.3485 386.608 96.5181 386.608 96.73C386.608 97.0241 386.716 97.2467 386.934 97.3977C387.151 97.5461 387.428 97.6203 387.764 97.6203ZM392.197 98.439V90.2997H393.385V93.3241H393.456C393.525 93.1969 393.625 93.0499 393.754 92.8829C393.884 92.716 394.064 92.5703 394.295 92.4458C394.525 92.3186 394.83 92.255 395.209 92.255C395.702 92.255 396.142 92.3795 396.528 92.6286C396.915 92.8776 397.219 93.2366 397.439 93.7056C397.661 94.1746 397.772 94.7389 397.772 95.3986C397.772 96.0584 397.662 96.624 397.443 97.0957C397.223 97.5646 396.921 97.9263 396.536 98.1806C396.152 98.4323 395.714 98.5582 395.221 98.5582C394.85 98.5582 394.547 98.4959 394.311 98.3714C394.078 98.2469 393.895 98.1012 393.762 97.9342C393.63 97.7673 393.528 97.6189 393.456 97.4891H393.357V98.439H392.197ZM393.361 95.3867C393.361 95.8159 393.423 96.1922 393.548 96.5154C393.672 96.8387 393.852 97.0917 394.088 97.2745C394.324 97.4547 394.613 97.5448 394.955 97.5448C395.31 97.5448 395.606 97.4507 395.845 97.2626C396.083 97.0718 396.264 96.8135 396.385 96.4876C396.51 96.1617 396.572 95.7947 396.572 95.3867C396.572 94.984 396.511 94.6223 396.389 94.3017C396.27 93.9812 396.09 93.7281 395.849 93.5427C395.61 93.3572 395.312 93.2645 394.955 93.2645C394.61 93.2645 394.319 93.3532 394.08 93.5307C393.845 93.7083 393.666 93.956 393.544 94.2739C393.422 94.5919 393.361 94.9628 393.361 95.3867ZM400.883 98.5741C400.496 98.5741 400.147 98.5026 399.834 98.3595C399.521 98.2138 399.274 98.0031 399.091 97.7276C398.911 97.452 398.821 97.1142 398.821 96.7141C398.821 96.3697 398.887 96.0862 399.019 95.8636C399.152 95.6411 399.331 95.4649 399.556 95.3351C399.781 95.2052 400.033 95.1072 400.311 95.041C400.589 94.9747 400.873 94.9244 401.161 94.8899C401.527 94.8475 401.824 94.8131 402.052 94.7866C402.28 94.7575 402.445 94.7111 402.549 94.6475C402.652 94.5839 402.704 94.4806 402.704 94.3375V94.3097C402.704 93.9626 402.605 93.6937 402.409 93.5029C402.216 93.3122 401.927 93.2168 401.543 93.2168C401.143 93.2168 400.828 93.3055 400.597 93.483C400.369 93.6579 400.212 93.8527 400.124 94.0673L399.007 93.8129C399.14 93.442 399.333 93.1426 399.588 92.9147C399.845 92.6842 400.14 92.5173 400.474 92.414C400.808 92.308 401.159 92.255 401.527 92.255C401.771 92.255 402.029 92.2841 402.302 92.3424C402.578 92.3981 402.835 92.5014 403.073 92.6524C403.314 92.8034 403.512 93.0194 403.665 93.3002C403.819 93.5784 403.896 93.9401 403.896 94.3852V98.439H402.735V97.6044H402.688C402.611 97.758 402.496 97.9091 402.342 98.0574C402.188 98.2058 401.991 98.329 401.75 98.427C401.509 98.5251 401.22 98.5741 400.883 98.5741ZM401.142 97.6203C401.47 97.6203 401.751 97.5554 401.984 97.4255C402.22 97.2957 402.399 97.1261 402.521 96.9168C402.645 96.7049 402.707 96.4783 402.707 96.2372V95.4503C402.665 95.4927 402.583 95.5324 402.461 95.5695C402.342 95.604 402.205 95.6345 402.052 95.6609C401.898 95.6848 401.748 95.7073 401.603 95.7285C401.457 95.7471 401.335 95.763 401.237 95.7762C401.006 95.8053 400.796 95.8544 400.605 95.9232C400.417 95.9921 400.266 96.0915 400.152 96.2213C400.041 96.3485 399.985 96.5181 399.985 96.73C399.985 97.0241 400.094 97.2467 400.311 97.3977C400.528 97.5461 400.805 97.6203 401.142 97.6203ZM410.053 93.8248L408.976 94.0156C408.931 93.8778 408.859 93.7467 408.761 93.6221C408.666 93.4976 408.536 93.3956 408.372 93.3161C408.208 93.2366 408.002 93.1969 407.756 93.1969C407.419 93.1969 407.138 93.2724 406.913 93.4234C406.688 93.5718 406.575 93.7639 406.575 93.9997C406.575 94.2037 406.651 94.368 406.802 94.4925C406.953 94.617 407.197 94.719 407.533 94.7985L408.503 95.0211C409.065 95.1509 409.483 95.351 409.759 95.6212C410.034 95.8915 410.172 96.2425 410.172 96.6744C410.172 97.04 410.066 97.3659 409.854 97.6521C409.645 97.9356 409.352 98.1581 408.976 98.3197C408.602 98.4814 408.169 98.5622 407.676 98.5622C406.993 98.5622 406.435 98.4164 406.003 98.125C405.571 97.8309 405.306 97.4136 405.208 96.8731L406.357 96.6982C406.428 96.9976 406.575 97.2242 406.798 97.3778C407.021 97.5289 407.311 97.6044 407.668 97.6044C408.058 97.6044 408.369 97.5236 408.602 97.3619C408.835 97.1977 408.952 96.9976 408.952 96.7618C408.952 96.5711 408.881 96.4108 408.737 96.2809C408.597 96.1511 408.381 96.0531 408.09 95.9868L407.056 95.7603C406.487 95.6305 406.065 95.4238 405.793 95.1403C405.522 94.8568 405.387 94.4978 405.387 94.0633C405.387 93.703 405.488 93.3877 405.689 93.1174C405.891 92.8472 406.169 92.6365 406.524 92.4855C406.879 92.3318 407.286 92.255 407.744 92.255C408.404 92.255 408.923 92.3981 409.302 92.6842C409.681 92.9677 409.931 93.3479 410.053 93.8248ZM414.11 98.5622C413.508 98.5622 412.99 98.4337 412.556 98.1767C412.124 97.917 411.79 97.5527 411.554 97.0837C411.321 96.6121 411.204 96.0597 411.204 95.4265C411.204 94.8012 411.321 94.2501 411.554 93.7732C411.79 93.2963 412.119 92.924 412.54 92.6564C412.964 92.3888 413.459 92.255 414.026 92.255C414.371 92.255 414.704 92.312 415.028 92.4259C415.351 92.5398 415.641 92.7187 415.898 92.9624C416.155 93.2062 416.358 93.5228 416.506 93.9123C416.655 94.2991 416.729 94.7694 416.729 95.3231V95.7444H411.876V94.8542H415.564C415.564 94.5415 415.501 94.2647 415.373 94.0235C415.246 93.7798 415.067 93.5877 414.837 93.4473C414.609 93.3069 414.342 93.2366 414.034 93.2366C413.7 93.2366 413.409 93.3188 413.16 93.483C412.913 93.6447 412.723 93.8566 412.588 94.1189C412.455 94.3786 412.389 94.6608 412.389 94.9655V95.6609C412.389 96.069 412.46 96.4161 412.603 96.7022C412.749 96.9884 412.952 97.2069 413.211 97.358C413.471 97.5063 413.775 97.5805 414.122 97.5805C414.347 97.5805 414.552 97.5487 414.738 97.4851C414.923 97.4189 415.083 97.3209 415.218 97.191C415.354 97.0612 415.457 96.9009 415.528 96.7102L416.653 96.9128C416.563 97.244 416.402 97.5342 416.168 97.7832C415.938 98.0296 415.648 98.2217 415.298 98.3595C414.951 98.4946 414.555 98.5622 414.11 98.5622Z" fill="#696F8C"/>
<path d="M108.879 127.208C124.867 127.208 128.064 127.208 136.058 119.214C144.052 111.22 147.25 111.22 163.238 111.22" stroke="#8F95B2" stroke-width="1.59879" stroke-linecap="round" stroke-linejoin="round"/>
<path d="M107.498 126.69C107.207 126.976 107.207 127.44 107.498 127.726L110.004 130.191C110.295 130.477 110.767 130.477 111.058 130.191C111.349 129.905 111.349 129.441 111.058 129.154L109.823 127.94V126.475L111.058 125.261C111.349 124.975 111.349 124.511 111.058 124.225C110.767 123.939 110.295 123.939 110.004 124.225L107.498 126.69Z" fill="#8F95B2"/>
<path d="M164.618 110.702C164.909 110.988 164.909 111.452 164.618 111.738L162.111 114.203C161.82 114.489 161.348 114.489 161.057 114.203C160.766 113.917 160.766 113.453 161.057 113.167L162.292 111.953V110.487L161.057 109.273C160.766 108.987 160.766 108.523 161.057 108.237C161.348 107.951 161.82 107.951 162.111 108.237L164.618 110.702Z" fill="#8F95B2"/>
<path d="M108.879 141.597H163.238" stroke="#8F95B2" stroke-width="1.59879" stroke-linecap="round" stroke-linejoin="round"/>
<path d="M107.498 141.079C107.207 141.365 107.207 141.829 107.498 142.115L110.004 144.58C110.295 144.866 110.767 144.866 111.058 144.58C111.349 144.294 111.349 143.83 111.058 143.544L109.823 142.33V140.864L111.058 139.65C111.349 139.364 111.349 138.9 111.058 138.614C110.767 138.328 110.295 138.328 110.004 138.614L107.498 141.079Z" fill="#8F95B2"/>
<path d="M164.618 141.079C164.909 141.365 164.909 141.829 164.618 142.115L162.111 144.58C161.82 144.866 161.348 144.866 161.057 144.58C160.766 144.294 160.766 143.83 161.057 143.544L162.292 142.33V140.864L161.057 139.65C160.766 139.364 160.766 138.9 161.057 138.614C161.348 138.328 161.82 138.328 162.111 138.614L164.618 141.079Z" fill="#8F95B2"/>
<path d="M108.879 155.986C124.867 155.986 128.064 155.986 136.058 163.98C144.052 171.974 147.25 171.974 163.238 171.974" stroke="#8F95B2" stroke-width="1.59879" stroke-linecap="round" stroke-linejoin="round"/>
<path d="M107.498 156.505C107.207 156.219 107.207 155.755 107.498 155.469L110.004 153.004C110.295 152.718 110.767 152.718 111.058 153.004C111.349 153.29 111.349 153.754 111.058 154.04L109.823 155.254V156.719L111.058 157.933C111.349 158.22 111.349 158.683 111.058 158.97C110.767 159.256 110.295 159.256 110.004 158.97L107.498 156.505Z" fill="#8F95B2"/>
<path d="M164.618 172.493C164.909 172.206 164.909 171.742 164.618 171.456L162.111 168.991C161.82 168.705 161.348 168.705 161.057 168.991C160.766 169.278 160.766 169.742 161.057 170.028L162.292 171.242V172.707L161.057 173.921C160.766 174.207 160.766 174.671 161.057 174.957C161.348 175.244 161.82 175.244 162.111 174.957L164.618 172.493Z" fill="#8F95B2"/>
<path d="M339.104 127.208C323.116 127.208 319.918 127.208 311.924 119.214C303.93 111.22 300.732 111.22 284.745 111.22" stroke="#8F95B2" stroke-width="1.59879" stroke-linecap="round" stroke-linejoin="round"/>
<path d="M340.485 126.69C340.776 126.976 340.776 127.44 340.485 127.726L337.978 130.191C337.687 130.477 337.215 130.477 336.924 130.191C336.633 129.905 336.633 129.441 336.924 129.155L338.159 127.941V126.475L336.924 125.261C336.633 124.975 336.633 124.511 336.924 124.225C337.215 123.939 337.687 123.939 337.978 124.225L340.485 126.69Z" fill="#8F95B2"/>
<path d="M283.365 110.702C283.074 110.988 283.074 111.452 283.365 111.738L285.871 114.203C286.162 114.49 286.634 114.49 286.925 114.203C287.216 113.917 287.216 113.453 286.925 113.167L285.691 111.953V110.488L286.925 109.274C287.216 108.987 287.216 108.524 286.925 108.237C286.634 107.951 286.162 107.951 285.871 108.237L283.365 110.702Z" fill="#8F95B2"/>
<path d="M339.104 141.597H284.745" stroke="#8F95B2" stroke-width="1.59879" stroke-linecap="round" stroke-linejoin="round"/>
<path d="M340.485 141.079C340.776 141.365 340.776 141.829 340.485 142.115L337.978 144.58C337.687 144.866 337.215 144.866 336.924 144.58C336.633 144.294 336.633 143.83 336.924 143.544L338.159 142.33V140.864L336.924 139.65C336.633 139.364 336.633 138.9 336.924 138.614C337.215 138.328 337.687 138.328 337.978 138.614L340.485 141.079Z" fill="#8F95B2"/>
<path d="M283.365 141.079C283.074 141.365 283.074 141.829 283.365 142.115L285.871 144.58C286.162 144.866 286.634 144.866 286.925 144.58C287.216 144.294 287.216 143.83 286.925 143.544L285.691 142.33V140.864L286.925 139.65C287.216 139.364 287.216 138.9 286.925 138.614C286.634 138.328 286.162 138.328 285.871 138.614L283.365 141.079Z" fill="#8F95B2"/>
<path d="M339.104 155.987C323.116 155.987 319.918 155.987 311.924 163.981C303.93 171.975 300.732 171.975 284.745 171.975" stroke="#8F95B2" stroke-width="1.59879" stroke-linecap="round" stroke-linejoin="round"/>
<path d="M340.485 156.505C340.776 156.219 340.776 155.755 340.485 155.469L337.978 153.004C337.687 152.718 337.215 152.718 336.924 153.004C336.633 153.29 336.633 153.754 336.924 154.04L338.159 155.254V156.719L336.924 157.933C336.633 158.22 336.633 158.683 336.924 158.97C337.215 159.256 337.687 159.256 337.978 158.97L340.485 156.505Z" fill="#8F95B2"/>
<path d="M283.365 172.493C283.074 172.206 283.074 171.742 283.365 171.456L285.871 168.991C286.162 168.705 286.634 168.705 286.925 168.991C287.216 169.278 287.216 169.742 286.925 170.028L285.691 171.242V172.707L286.925 173.921C287.216 174.207 287.216 174.671 286.925 174.957C286.634 175.244 286.162 175.244 285.871 174.957L283.365 172.493Z" fill="#8F95B2"/>
</g>
<defs>
<clipPath id="clip0_742_98">
<rect width="450" height="276" fill="white"/>
</clipPath>
<clipPath id="clip1_742_98">
<rect width="23.9819" height="23.1825" fill="white" transform="translate(44.127 118.415)"/>
</clipPath>
</defs>
</svg>
