<svg width="88" height="16" viewBox="0 0 88 16" fill="none" xmlns="http://www.w3.org/2000/svg">
<path fill-rule="evenodd" clip-rule="evenodd" d="M7.99895 0.25C8.13896 0.24991 8.2762 0.289014 8.39514 0.362887C8.51408 0.43676 8.60997 0.542452 8.67195 0.668L10.5539 4.483L14.7639 5.095C14.9024 5.11511 15.0324 5.17355 15.1394 5.26372C15.2464 5.35388 15.326 5.47218 15.3693 5.60523C15.4126 5.73829 15.4178 5.8808 15.3843 6.01665C15.3508 6.1525 15.28 6.27628 15.1799 6.374L12.1339 9.344L12.8529 13.536C12.8766 13.6739 12.8613 13.8157 12.8086 13.9454C12.7559 14.0751 12.668 14.1874 12.5548 14.2697C12.4416 14.352 12.3076 14.401 12.168 14.4111C12.0284 14.4212 11.8888 14.3921 11.7649 14.327L7.99895 12.347L4.23295 14.327C4.10913 14.392 3.96961 14.4211 3.83014 14.411C3.69066 14.4009 3.55679 14.352 3.44363 14.2699C3.33047 14.1877 3.24254 14.0755 3.18976 13.946C3.13698 13.8165 3.12146 13.6749 3.14495 13.537L3.86495 9.343L0.816944 6.374C0.71651 6.27632 0.645443 6.15247 0.611795 6.01647C0.578148 5.88047 0.583265 5.73777 0.626568 5.60453C0.669871 5.47129 0.749627 5.35284 0.856799 5.26261C0.963972 5.17238 1.09428 5.11397 1.23295 5.094L5.44295 4.483L7.32595 0.668C7.38793 0.542452 7.48381 0.43676 7.60275 0.362887C7.72169 0.289014 7.85893 0.24991 7.99895 0.25Z" fill="#E62415"/>
<path fill-rule="evenodd" clip-rule="evenodd" d="M25.9989 0.25C26.139 0.24991 26.2762 0.289014 26.3951 0.362887C26.5141 0.43676 26.61 0.542452 26.6719 0.668L28.5539 4.483L32.7639 5.095C32.9024 5.11511 33.0324 5.17355 33.1394 5.26372C33.2464 5.35388 33.326 5.47218 33.3693 5.60523C33.4126 5.73829 33.4178 5.8808 33.3843 6.01665C33.3508 6.1525 33.28 6.27628 33.1799 6.374L30.1339 9.344L30.8529 13.536C30.8766 13.6739 30.8613 13.8157 30.8086 13.9454C30.7559 14.0751 30.668 14.1874 30.5548 14.2697C30.4416 14.352 30.3076 14.401 30.168 14.4111C30.0284 14.4212 29.8888 14.3921 29.7649 14.327L25.9989 12.347L22.2329 14.327C22.1091 14.392 21.9696 14.4211 21.8301 14.411C21.6907 14.4009 21.5568 14.352 21.4436 14.2699C21.3305 14.1877 21.2425 14.0755 21.1898 13.946C21.137 13.8165 21.1215 13.6749 21.1449 13.537L21.8649 9.343L18.8169 6.374C18.7165 6.27632 18.6454 6.15247 18.6118 6.01647C18.5781 5.88047 18.5833 5.73777 18.6266 5.60453C18.6699 5.47129 18.7496 5.35284 18.8568 5.26261C18.964 5.17238 19.0943 5.11397 19.2329 5.094L23.4429 4.483L25.3259 0.668C25.3879 0.542452 25.4838 0.43676 25.6027 0.362887C25.7217 0.289014 25.8589 0.24991 25.9989 0.25Z" fill="#E62415"/>
<path fill-rule="evenodd" clip-rule="evenodd" d="M43.9989 0.25C44.139 0.24991 44.2762 0.289014 44.3951 0.362887C44.5141 0.43676 44.61 0.542452 44.6719 0.668L46.5539 4.483L50.7639 5.095C50.9024 5.11511 51.0324 5.17355 51.1394 5.26372C51.2464 5.35388 51.326 5.47218 51.3693 5.60523C51.4126 5.73829 51.4178 5.8808 51.3843 6.01665C51.3508 6.1525 51.28 6.27628 51.1799 6.374L48.1339 9.344L48.8529 13.536C48.8766 13.6739 48.8613 13.8157 48.8086 13.9454C48.7559 14.0751 48.668 14.1874 48.5548 14.2697C48.4416 14.352 48.3076 14.401 48.168 14.4111C48.0284 14.4212 47.8888 14.3921 47.7649 14.327L43.9989 12.347L40.2329 14.327C40.1091 14.392 39.9696 14.4211 39.8301 14.411C39.6907 14.4009 39.5568 14.352 39.4436 14.2699C39.3305 14.1877 39.2425 14.0755 39.1898 13.946C39.137 13.8165 39.1215 13.6749 39.1449 13.537L39.8649 9.343L36.8169 6.374C36.7165 6.27632 36.6454 6.15247 36.6118 6.01647C36.5781 5.88047 36.5833 5.73777 36.6266 5.60453C36.6699 5.47129 36.7496 5.35284 36.8568 5.26261C36.964 5.17238 37.0943 5.11397 37.2329 5.094L41.4429 4.483L43.3259 0.668C43.3879 0.542452 43.4838 0.43676 43.6027 0.362887C43.7217 0.289014 43.8589 0.24991 43.9989 0.25Z" fill="#E62415"/>
<path fill-rule="evenodd" clip-rule="evenodd" d="M61.9989 0.25C62.139 0.24991 62.2762 0.289014 62.3951 0.362887C62.5141 0.43676 62.61 0.542452 62.6719 0.668L64.5539 4.483L68.7639 5.095C68.9024 5.11511 69.0324 5.17355 69.1394 5.26372C69.2464 5.35388 69.326 5.47218 69.3693 5.60523C69.4126 5.73829 69.4178 5.8808 69.3843 6.01665C69.3508 6.1525 69.28 6.27628 69.1799 6.374L66.1339 9.344L66.8529 13.536C66.8766 13.6739 66.8613 13.8157 66.8086 13.9454C66.7559 14.0751 66.668 14.1874 66.5548 14.2697C66.4416 14.352 66.3076 14.401 66.168 14.4111C66.0284 14.4212 65.8888 14.3921 65.7649 14.327L61.9989 12.347L58.2329 14.327C58.1091 14.392 57.9696 14.4211 57.8301 14.411C57.6907 14.4009 57.5568 14.352 57.4436 14.2699C57.3305 14.1877 57.2425 14.0755 57.1898 13.946C57.137 13.8165 57.1215 13.6749 57.1449 13.537L57.8649 9.343L54.8169 6.374C54.7165 6.27632 54.6454 6.15247 54.6118 6.01647C54.5781 5.88047 54.5833 5.73777 54.6266 5.60453C54.6699 5.47129 54.7496 5.35284 54.8568 5.26261C54.964 5.17238 55.0943 5.11397 55.2329 5.094L59.4429 4.483L61.3259 0.668C61.3879 0.542452 61.4838 0.43676 61.6027 0.362887C61.7217 0.289014 61.8589 0.24991 61.9989 0.25Z" fill="#E62415"/>
<path fill-rule="evenodd" clip-rule="evenodd" d="M79.9989 0.25C80.139 0.24991 80.2762 0.289014 80.3951 0.362887C80.5141 0.43676 80.61 0.542452 80.6719 0.668L82.5539 4.483L86.7639 5.095C86.9024 5.11511 87.0324 5.17355 87.1394 5.26372C87.2464 5.35388 87.326 5.47218 87.3693 5.60523C87.4126 5.73829 87.4178 5.8808 87.3843 6.01665C87.3508 6.1525 87.28 6.27628 87.1799 6.374L84.1339 9.344L84.8529 13.536C84.8766 13.6739 84.8613 13.8157 84.8086 13.9454C84.7559 14.0751 84.668 14.1874 84.5548 14.2697C84.4416 14.352 84.3076 14.401 84.168 14.4111C84.0284 14.4212 83.8888 14.3921 83.7649 14.327L79.9989 12.347L76.2329 14.327C76.1091 14.392 75.9696 14.4211 75.8301 14.411C75.6907 14.4009 75.5568 14.352 75.4436 14.2699C75.3305 14.1877 75.2425 14.0755 75.1898 13.946C75.137 13.8165 75.1215 13.6749 75.1449 13.537L75.8649 9.343L72.8169 6.374C72.7165 6.27632 72.6454 6.15247 72.6118 6.01647C72.5781 5.88047 72.5833 5.73777 72.6266 5.60453C72.6699 5.47129 72.7496 5.35284 72.8568 5.26261C72.964 5.17238 73.0943 5.11397 73.2329 5.094L77.4429 4.483L79.3259 0.668C79.3879 0.542452 79.4838 0.43676 79.6027 0.362887C79.7217 0.289014 79.8589 0.24991 79.9989 0.25Z" fill="#E62415"/>
</svg>
