<svg width="260" height="45" viewBox="0 0 260 45" fill="none" xmlns="http://www.w3.org/2000/svg">
<path fill-rule="evenodd" clip-rule="evenodd" d="M26.8695 0C22.1051 0 18.4784 3.06847 17.1707 8.20827C16.0693 12.5295 14.9558 15.1279 14.7572 15.5743C12.3984 19.6583 5.00031 25.0371 2.33192 26.7758C2.32604 26.7794 2.32026 26.7832 2.31457 26.7872C1.11696 27.5812 0.00260162 28.904 0 30.4571V30.4702C0 30.7898 0.0485635 31.1198 0.152628 31.456C0.628724 32.9977 2.16108 33.9703 4.06459 33.9361L18.403 33.9344L19.1522 35.554C19.6726 36.9258 20.8528 37.8529 22.2612 37.9842C22.3756 37.9947 22.491 38 22.6046 38C24.0467 38 25.4325 37.1613 26.2052 35.7939C26.2347 35.7413 26.2616 35.6897 26.2859 35.6363L27.2415 33.5684C31.0026 32.384 33.5556 29.9703 34.8382 26.381C35.9812 23.1855 35.9769 19.471 35.9725 16.1942V14.9965L37.576 14.241C38.9358 13.7158 39.8542 12.5243 39.9842 11.1025C40.1282 9.52495 39.2766 7.96226 37.8136 7.12095C37.7627 7.09169 37.7106 7.06453 37.6575 7.03953L35.5415 6.04239C34.3778 2.43114 30.9679 0 26.8695 0ZM18.5504 17.6492C18.5764 17.6001 18.6024 17.5502 18.6258 17.5003C18.6831 17.3795 20.0264 14.4765 21.3463 9.29208C22.1571 6.10717 24.1187 4.35364 26.8704 4.35364C29.2664 4.35364 31.2047 5.83841 31.5845 7.96489C31.6455 8.3079 31.7873 8.6311 31.9978 8.9073C32.2083 9.18351 32.4815 9.40464 32.7942 9.55209L35.062 10.6201L32.9035 11.6374C32.5317 11.8125 32.217 12.0912 31.9966 12.4406C31.7761 12.7899 31.6591 13.1956 31.6591 13.6098V16.2012C31.6686 23.576 31.2385 28.1599 25.1958 29.6245C24.4769 29.7987 23.9158 30.3249 23.673 30.9946L22.7381 33.0169L21.7304 30.837C21.5568 30.4618 21.2808 30.1444 20.9347 29.922C20.5886 29.6996 20.1869 29.5815 19.7766 29.5816L5.92648 29.5834C8.82989 27.5663 15.8967 22.3547 18.5504 17.6492Z" fill="#3D0F9A"/>
<path fill-rule="evenodd" clip-rule="evenodd" d="M24.6158 9.8797C24.6158 10.4844 24.8589 11.0643 25.2917 11.4919C25.7244 11.9195 26.3114 12.1597 26.9234 12.1597C27.5355 12.1597 28.1225 11.9195 28.5552 11.4919C28.988 11.0643 29.2311 10.4844 29.2311 9.8797C29.2311 9.27501 28.988 8.69508 28.5552 8.2675C28.1225 7.83992 27.5355 7.5997 26.9234 7.5997C26.3114 7.5997 25.7244 7.83992 25.2917 8.2675C24.8589 8.69508 24.6158 9.27501 24.6158 9.8797Z" fill="#3D0F9A"/>
<path fill-rule="evenodd" clip-rule="evenodd" d="M163.2 15.7198C162.699 14.1341 161.953 12.9188 160.918 12.0028C159.66 10.8892 158.042 10.2959 155.97 10.1859C154.693 10.1182 153.412 10.2431 152.173 10.5562C150.433 10.9964 148.967 11.9403 147.817 13.3637C147.69 13.5213 147.566 13.6808 147.434 13.8515C147.421 13.8326 147.409 13.814 147.396 13.7955C147.285 13.6463 147.18 13.4933 147.075 13.3404C146.826 12.9785 146.569 12.6045 146.252 12.2836C145.284 11.3042 144.026 10.6793 142.403 10.3696C140.587 10.0235 138.714 10.1115 136.94 10.6261C135.407 11.0636 134.084 11.9413 133.007 13.2359L132.95 12.9915C132.756 12.1521 132.471 11.5598 132.028 11.0729C131.598 10.5991 130.791 10.3827 130.066 10.5459C129.413 10.6933 128.94 11.1186 128.768 11.7128C128.671 12.0448 128.671 12.4067 128.671 12.6977C128.666 19.0552 128.667 25.4136 128.668 31.7711V31.8905C128.667 32.0957 128.665 32.3093 128.691 32.5229C128.834 33.7448 129.455 34.4947 130.486 34.6896C131.064 34.7997 131.58 34.8239 132.02 34.7614C132.771 34.6551 133.353 34.2111 133.661 33.5116C133.909 32.9435 133.944 32.3531 133.944 31.7991C133.942 27.2959 133.942 22.7927 133.944 18.2894V18.2027C133.942 18.1197 133.939 18.0068 133.963 17.9648L134.115 17.6925C134.322 17.3241 134.533 16.9426 134.801 16.6301C136.076 15.1405 137.72 14.385 139.826 14.3216C141.219 14.2824 142.19 14.8495 142.797 16.0639C143.334 17.1366 143.578 18.3585 143.589 20.0243C143.606 22.7283 143.605 25.478 143.604 28.1372V31.7636C143.604 31.9987 143.604 32.2431 143.633 32.4865C143.757 33.5871 144.231 34.2801 145.082 34.6057C145.467 34.754 145.867 34.8277 146.276 34.8277C146.599 34.8277 146.929 34.781 147.264 34.6896C148.022 34.4807 148.521 33.9462 148.705 33.1432C148.799 32.7327 148.848 32.2794 148.848 31.7954C148.854 28.7808 148.855 25.7671 148.855 22.7525L148.856 18.2092C148.854 18.1066 148.852 17.9816 148.884 17.9257L149.012 17.6925C149.211 17.3306 149.418 16.9547 149.681 16.6506C151.081 15.0314 152.957 14.2535 155.253 14.3337C156.122 14.3654 156.835 14.7413 157.371 15.4521C157.914 16.1703 158.236 17.0331 158.358 18.0908C158.473 19.1114 158.534 20.1373 158.539 21.1641C158.551 23.2842 158.55 25.4397 158.548 27.5253C158.548 28.9403 158.547 30.3552 158.55 31.7711C158.552 32.4567 158.59 33.1814 159.027 33.8231C159.601 34.6672 160.705 34.9983 162.056 34.7325C162.881 34.5702 163.462 34.0199 163.696 33.1814C163.801 32.8083 163.85 32.3876 163.851 31.8569C163.861 28.6577 163.863 25.2429 163.856 21.11C163.853 19.3807 163.771 17.5311 163.2 15.7198ZM189.018 22.6173V22.6201C189 24.8754 188.424 26.711 187.256 28.2351C186.173 29.6435 184.743 30.5017 183.002 30.7843C181.156 31.0828 179.578 30.8104 178.174 29.9514C177.003 29.2341 176.137 28.1848 175.527 26.7418C174.907 25.2802 174.66 23.6797 174.767 21.8487C174.868 20.1558 175.287 18.7222 176.049 17.4668C177.033 15.8466 178.414 14.8523 180.153 14.5128C180.699 14.4045 181.255 14.3492 181.812 14.3477C184.587 14.3477 186.887 15.8046 188.14 18.4368C188.753 19.7268 189.05 21.1333 189.018 22.6173ZM191.452 14.274C189.435 11.917 186.894 10.5655 183.902 10.2558C181.72 10.0292 179.603 10.281 177.61 11.002C176.257 11.4917 175.198 12.1922 174.376 13.1436C174.248 13.2932 174.127 13.4475 174.012 13.6062C173.983 13.4588 173.957 13.3115 173.93 13.1641C173.899 12.9839 173.866 12.8042 173.83 12.625C173.561 11.3247 172.899 10.67 171.68 10.5021C170.865 10.3883 170.104 10.8043 169.831 11.5113C169.694 11.8685 169.623 12.292 169.623 12.7705C169.614 21.4514 169.615 30.2759 169.616 38.8104V41.9351C169.616 42.0927 169.618 42.2988 169.632 42.504C169.747 44.1596 170.62 44.9991 172.226 44.9991H172.24C173.449 44.9953 174.243 44.5607 174.6 43.7035C174.796 43.2343 174.903 42.6467 174.907 42.0041C174.923 39.6418 174.928 37.2795 174.923 34.9172C174.923 34.0311 174.921 33.145 174.922 32.2589V32.2104C176.228 33.6002 177.911 34.4798 180.06 34.8976C181.501 35.1774 182.976 35.2035 184.443 34.9722C186.114 34.7101 187.63 34.1328 188.949 33.2597C192.06 31.1965 193.841 28.1213 194.24 24.1199C194.418 22.3291 194.288 20.597 193.852 18.9722C193.355 17.1161 192.57 15.5799 191.452 14.274ZM91.7632 19.9198H78.5135C79.0615 16.8997 81.7139 14.0782 85.8801 14.3748C87.6835 14.5026 89.1896 15.3234 90.3577 16.8139C91.075 17.7224 91.5572 18.7882 91.7632 19.9198ZM94.2418 13.7256C92.2333 11.7417 89.7537 10.5786 86.8706 10.2689C83.6465 9.92286 80.7452 10.5879 78.2476 12.2481C75.1118 14.3337 73.3322 17.422 72.9589 21.4281C72.8003 23.1077 72.9345 24.8016 73.3559 26.4368C73.8412 28.3163 74.6921 29.929 75.8849 31.2301C78.0007 33.5377 80.8136 34.8323 84.2476 35.0804C84.6417 35.1084 85.0339 35.1233 85.4233 35.1233C87.0367 35.1233 88.6008 34.879 90.0871 34.3949C91.9522 33.7867 93.4109 32.9398 94.5476 31.8065C95.182 31.1732 96.0168 30.1668 95.9465 28.7379C95.9161 28.126 95.5419 27.544 94.9683 27.2175C94.4365 26.9144 93.8458 26.8845 93.3444 27.1354C92.7955 27.4097 92.2485 27.8154 91.6236 28.4114C89.8648 30.0866 87.8535 30.9018 85.4736 30.9037H85.4689C83.8601 30.9037 82.5363 30.5138 81.4223 29.7126C79.7054 28.4786 78.7319 26.6784 78.3597 24.049C78.3521 23.9985 78.3458 23.9478 78.3407 23.897C78.3977 23.8933 78.4727 23.8933 78.5287 23.8933H86.5486L86.7841 23.8821C87.4821 23.8821 88.1801 23.8839 88.8781 23.8858C90.7433 23.8914 92.673 23.8951 94.5714 23.8718C96.0035 23.8532 97.0547 22.9764 97.2485 21.6379C97.4204 20.4496 97.1915 19.3061 96.9455 18.3445C96.5039 16.6161 95.5942 15.0613 94.2418 13.7256ZM117.663 24.937C117.665 25.2103 117.665 25.4836 117.663 25.7569C117.66 25.9873 117.658 26.2046 117.673 26.5404C117.63 27.8508 117.264 28.3806 116.665 29.096C115.809 30.1211 114.64 30.7218 113.189 30.8822C112.121 31.0007 111.314 31.0342 110.571 30.9941C109.447 30.9326 108.541 30.608 107.802 29.9998C107.091 29.415 106.74 28.6138 106.76 27.6186C106.789 26.1719 107.395 25.0275 108.562 24.2179C109.202 23.773 109.98 23.4437 111.01 23.1835C111.841 22.9784 112.696 22.8781 113.553 22.885C113.943 22.885 114.347 22.9036 114.768 22.9391C115.404 22.9932 116.053 23.1172 116.679 23.2376C116.967 23.2935 117.254 23.3486 117.542 23.398C117.637 23.4138 117.677 23.4204 117.671 23.5995C117.659 24.0462 117.661 24.4986 117.663 24.937ZM123.015 19.6279C123.015 18.1887 122.829 16.9538 122.447 15.8513C121.843 14.1089 120.781 12.7397 119.289 11.7818C117.785 10.8155 115.973 10.2941 113.75 10.1878C111.906 10.0962 110.06 10.3122 108.289 10.8267C106.609 11.3173 105.358 11.9861 104.35 12.9318C103.507 13.7228 103.054 14.594 102.966 15.5939C102.904 16.3121 103.249 17.0312 103.869 17.4686C104.528 17.935 105.353 18.0115 106.133 17.6794C106.782 17.4024 107.191 16.8997 107.622 16.3195C108.593 15.0072 109.929 14.3039 111.589 14.2283C112.569 14.185 113.55 14.2278 114.522 14.3561C115.682 14.5072 116.566 15.1443 117.076 16.1983C117.695 17.4752 117.789 18.8341 117.783 20.0141C116.621 19.5477 115.425 19.4059 114.298 19.3266C112.425 19.1942 110.476 19.3555 108.507 19.8079C106.586 20.2482 105.131 20.93 103.926 21.9513C102.832 22.8706 102.063 24.1074 101.73 25.4836C101.437 26.6334 101.383 27.8292 101.57 29C101.807 30.4513 102.362 31.6163 103.269 32.5621C104.703 34.0572 106.627 34.8715 109.151 35.0524C109.492 35.0758 109.834 35.086 110.17 35.086C111.105 35.086 112 35.0067 112.728 34.9303C114.399 34.753 115.931 34.1188 117.282 33.0424C117.443 32.9137 117.604 32.7813 117.759 32.6525C117.811 33.0275 117.925 33.4407 118.186 33.824C118.759 34.6672 119.864 34.9993 121.215 34.7325C122.038 34.5702 122.621 34.0199 122.855 33.1814C122.96 32.8083 123.008 32.3876 123.01 31.8569C123.019 28.4829 123.02 25.1089 123.016 21.7349L123.015 19.6279ZM258.578 10.7297C257.575 10.4135 256.508 10.7931 256.042 11.6325C255.808 12.0532 255.631 12.5046 255.461 12.9421L255.445 12.9803C254.624 15.0836 253.808 17.1897 252.992 19.2949L249.838 27.446C249.646 26.9405 249.456 26.435 249.266 25.9294C249.019 25.2746 248.774 24.6208 248.525 23.967C248.171 23.0342 247.815 22.1034 247.459 21.1716L246.374 18.3295C246.108 17.63 245.845 16.9295 245.582 16.229C245.091 14.916 244.593 13.6058 244.086 12.2985C243.958 11.967 243.761 11.6649 243.509 11.4111C243.256 11.1573 242.954 10.9571 242.619 10.8229C242.274 10.683 241.905 10.6131 241.532 10.6174C241.159 10.6217 240.79 10.7002 240.449 10.8481C239.119 11.4283 238.547 12.8843 239.089 14.3123C239.332 14.9503 239.597 15.5901 239.853 16.2085C239.989 16.5368 240.124 16.8652 240.257 17.1944L241.569 20.444C242.375 22.4401 243.18 24.438 243.99 26.4322C244.349 27.3145 244.709 28.195 245.07 29.0755C245.612 30.3944 246.171 31.758 246.709 33.104C246.737 33.1721 246.768 33.2392 246.8 33.3064C246.927 33.5797 247 33.7597 246.901 34.0041C246.334 35.3914 245.802 36.7918 245.303 38.2041C244.826 39.5631 243.894 40.4455 242.452 40.9007C241.94 41.0594 241.456 41.2941 241.016 41.5965C240.397 42.0311 240.236 43.073 240.478 43.7362C240.766 44.5252 241.47 44.9981 242.361 45H242.389C243.885 45 245.15 44.6502 246.255 43.9302C247.355 43.2138 248.211 42.1487 248.87 40.6749C249.386 39.5221 249.86 38.3301 250.321 37.1781L250.749 36.1074C251.41 34.4695 252.067 32.8307 252.725 31.1919L254.131 27.6913C254.575 26.587 255.022 25.4826 255.467 24.3792L256.621 21.5204L257.056 20.4394C257.835 18.5077 258.64 16.5098 259.423 14.5408L259.504 14.3375C259.694 13.8655 259.891 13.3777 259.979 12.8684C260.127 12.0112 259.473 11.0114 258.578 10.7297ZM237.824 4.5522C238.254 3.48143 237.805 1.94616 236.843 1.19997C236.003 0.547063 234.971 0.186097 233.593 0.0620436C232.033 -0.0778658 230.684 0.0182054 229.466 0.356786C228.102 0.736407 227.092 1.41077 226.38 2.41905C225.581 3.55325 225.182 4.90011 225.125 6.65737C225.087 7.84007 225.096 9.04236 225.105 10.2045L225.11 10.9498C225.11 11.0524 225.093 11.0776 225.093 11.0776C225.093 11.0776 225.069 11.1 224.938 11.1167C224.462 11.1751 223.992 11.2721 223.532 11.4068C222.757 11.6391 222.288 12.126 222.174 12.8171C222.028 13.7097 222.336 14.4307 223.067 14.8999C223.569 15.2226 224.1 15.2226 224.614 15.2236C224.696 15.2236 224.778 15.2236 224.861 15.2254H224.88C224.962 15.2264 225.047 15.2282 225.1 15.2329C225.105 15.2898 225.105 15.3849 225.105 15.4717V31.5361C225.105 31.6135 225.103 31.6918 225.101 31.7692C225.094 31.9996 225.088 32.2384 225.134 32.4762C225.21 32.8624 225.314 33.3101 225.508 33.7084C225.781 34.2652 226.368 34.6448 227.16 34.7782C227.355 34.8109 227.558 34.8277 227.758 34.8277C228.24 34.8277 228.715 34.7344 229.084 34.5618C229.921 34.1682 230.352 33.4304 230.361 32.369C230.376 30.3369 230.38 28.3048 230.372 26.2727L230.371 24.1694H230.381V15.5416L230.382 15.4502C230.383 15.3859 230.384 15.3215 230.382 15.2571V15.2403H230.389C230.71 15.2721 231.862 15.2581 232.746 15.2273C233.626 15.1965 234.804 14.9624 234.852 13.2919C234.883 12.222 234.409 11.4936 233.478 11.1867C233.107 11.0645 231.913 11.0197 231.235 11.0048L230.98 10.9983C230.916 10.985 230.85 10.985 230.786 10.9983L230.533 11.002H230.515C230.474 11.0046 230.432 11.0015 230.391 10.9927C230.376 10.9442 230.37 10.8931 230.375 10.8425C230.384 10.0227 230.383 9.18973 230.383 8.38385C230.383 7.82142 230.383 7.25805 230.385 6.69561C230.386 6.47829 230.409 6.24977 230.451 6.01472C230.633 5.03069 231.285 4.46359 232.338 4.37312C233.176 4.30223 233.941 4.52702 234.748 5.07826C235.318 5.47001 235.95 5.60805 236.623 5.48959C237.204 5.38699 237.62 5.06334 237.824 4.5522ZM68.4226 11.0048C67.4714 10.9919 66.5201 10.9888 65.5688 10.9955L64.6419 10.9974C64.4947 10.9974 64.3437 10.9983 64.2754 10.988C64.2649 10.9255 64.2649 10.7894 64.2649 10.6569V9.80067C64.2668 9.17574 64.2678 8.55081 64.263 7.92588C64.2613 7.67312 64.261 7.42034 64.2621 7.16757C64.263 6.45963 64.2649 5.72837 64.207 5.00831C64.151 4.30316 63.8651 3.75285 63.3798 3.418C62.8319 3.04025 62.0598 2.95817 61.2051 3.18855C60.5204 3.3723 60.056 3.85732 59.8946 4.55407C59.8148 4.90664 59.7901 5.2676 59.7654 5.61738L59.7531 5.78154C59.7246 6.18634 59.6999 6.59115 59.6771 6.99595C59.6384 7.7935 59.576 8.58976 59.49 9.38374C59.4235 9.93965 59.1719 10.683 58.3476 11.0627C58.1444 11.1559 57.9297 11.2287 57.7028 11.3052C57.5264 11.362 57.3519 11.4242 57.1795 11.4917C56.4217 11.7995 56.0029 12.4207 56 13.2424C55.9972 14.1033 56.4369 14.7525 57.2042 15.024C57.6078 15.1657 58.0446 15.1881 58.4663 15.2096L58.68 15.2208L58.7417 15.2245C58.8186 15.2292 58.9031 15.2338 58.9535 15.2413C58.9601 15.2982 58.9601 15.4017 58.9601 15.495L58.9573 18.7129C58.9535 21.5204 58.9506 24.424 58.9725 27.28C58.9791 28.2006 59.0741 29.1921 59.2536 30.2274C59.4435 31.3187 59.9639 32.3028 60.8015 33.1534C61.887 34.254 63.4197 34.8277 64.9496 34.8277C66.0598 34.8277 67.168 34.5254 68.1025 33.9043C69.0113 33.2998 69.5052 32.5649 69.6106 31.6564C69.7112 30.7992 69.1557 29.9467 68.3988 29.7937C67.7758 29.6678 67.2431 29.7461 66.7692 30.0316C66.4938 30.1976 66.245 30.3412 65.9867 30.4056C65.528 30.5212 65.1263 30.4923 64.8566 30.3254C64.6457 30.1948 64.508 29.9747 64.4482 29.6715C64.3684 29.2761 64.2868 28.8097 64.283 28.3499C64.2722 26.8619 64.269 25.3738 64.2735 23.8858L64.2754 22.2713L64.2649 22.039V15.4288C64.2649 15.3849 64.2649 15.2833 64.2716 15.2236C64.3124 15.2226 64.3798 15.2236 64.471 15.231C65.2687 15.287 66.8262 15.3803 67.5574 15.4036C68.0778 15.4204 68.7274 15.4418 69.3209 15.3103C70.0626 15.1461 70.5906 14.6602 70.8081 13.9439C71.0484 13.151 70.8584 12.2052 70.3561 11.6969C69.7739 11.1084 69.017 11.0179 68.4226 11.0048ZM204.767 2.78002C204.722 2.48061 204.668 2.16255 204.549 1.86128C204.09 0.704694 203.012 0.244859 201.43 0.531206C200.583 0.685107 199.983 1.18412 199.738 1.9359C199.598 2.37055 199.524 2.88355 199.523 3.46277C199.512 7.13959 199.513 10.878 199.513 14.4923L199.515 31.8168C199.513 32.0444 199.512 32.2794 199.539 32.5145C199.676 33.7382 200.296 34.49 201.327 34.6877C201.697 34.7586 202.044 34.795 202.362 34.795C202.537 34.795 202.704 34.7838 202.861 34.7624C203.609 34.6598 204.193 34.2177 204.504 33.5181C204.769 32.9258 204.791 32.3056 204.791 31.7702L204.789 3.50475C204.789 3.45158 204.789 3.39935 204.791 3.34618C204.799 3.15714 204.791 2.96779 204.767 2.78002ZM217.224 12.7621C217.173 12.1511 217.003 11.6857 216.687 11.2977C216.248 10.7567 215.62 10.4834 214.767 10.4601C213.322 10.4228 212.442 10.9507 212.077 12.0775C211.941 12.4972 211.922 12.9505 211.921 13.3404C211.913 19.2483 211.912 25.4733 211.921 31.8439C211.921 32.3382 211.964 32.7253 212.054 33.0657C212.401 34.3706 213.493 34.8183 214.566 34.8183C214.862 34.8183 215.158 34.7838 215.437 34.7241C216.213 34.5562 216.759 34.0666 216.974 33.3446C217.145 32.7663 217.23 32.2627 217.233 31.8028C217.249 29.5214 217.248 27.2017 217.246 24.9584L217.244 14.1267L217.246 13.7927C217.249 13.4551 217.252 13.1072 217.224 12.7621ZM214.551 2.49274C214.161 2.49292 213.775 2.56858 213.415 2.71539C213.054 2.86221 212.727 3.07731 212.451 3.3484C212.175 3.6195 211.957 3.94128 211.807 4.29538C211.658 4.64949 211.582 5.02898 211.582 5.41218C211.582 5.79538 211.659 6.1748 211.809 6.52876C211.958 6.88272 212.177 7.2043 212.453 7.47514C212.729 7.74597 213.057 7.96076 213.417 8.10723C213.778 8.25371 214.164 8.329 214.554 8.32882C215.342 8.32845 216.098 8.02066 216.655 7.47316C217.212 6.92566 217.524 6.18329 217.524 5.40938C217.524 4.63547 217.21 3.8934 216.653 3.34642C216.095 2.79944 215.339 2.49236 214.551 2.49274Z" fill="#3D0F9A"/>
</svg>
