<svg width="260" height="260" viewBox="0 0 260 260" fill="none" xmlns="http://www.w3.org/2000/svg">
<path d="M152.681 39.3174L113.17 16.5002C110.779 15.1193 106.902 15.1193 104.511 16.5002L64.9999 39.3174" stroke="#3D0F9A" stroke-dasharray="2 2"/>
<path d="M109.043 96.5633C109.043 97.0314 109.341 97.4995 109.958 97.8399L142.809 116.946C143.447 117.308 144.277 117.5 145.107 117.478C145.894 117.478 146.681 117.287 147.277 116.946L202.022 85.2442C202.639 84.8825 202.958 84.4144 202.958 83.9463L202.915 99.8825C202.915 100.351 202.596 100.819 201.979 101.18L147.234 132.883C146.639 133.223 145.851 133.414 145.064 133.414C144.234 133.414 143.405 133.244 142.766 132.883L109.915 113.776C109.298 113.414 109 112.946 109 112.5L109.043 96.5633Z" fill="white" stroke="#3D0F9A"/>
<path d="M109.98 95.2664C108.746 95.9898 108.746 97.1387 109.98 97.8621L142.831 116.969C144.065 117.692 146.065 117.692 147.299 116.969L202.044 85.2664C203.278 84.5429 203.278 83.394 202.044 82.6706L147.512 76.1812C146.278 75.4578 144.278 75.4578 143.044 76.1812L109.958 95.2877L109.98 95.2664Z" fill="white" stroke="#3D0F9A"/>
<path d="M125.851 109.819L141.617 118.904V121.33L125.851 112.224V109.819Z" fill="#3D0F9A"/>
<path d="M125.851 113.628L141.617 122.713V125.139L125.851 116.032V113.628Z" fill="#3D0F9A"/>
<path d="M125.851 117.437L141.617 126.522V128.947L125.851 119.841V117.437Z" fill="#3D0F9A"/>
<path d="M122.957 108.181V118.224L111.255 111.458V101.415L122.957 108.181Z" fill="#3D0F9A"/>
<path d="M123.255 118.713V108.032L110.979 100.947V111.628L123.255 118.713ZM122.681 108.352V117.713L111.553 111.288V101.926L122.681 108.352Z" fill="#3D0F9A"/>
<path d="M145.086 133.628C145.235 133.628 145.362 133.501 145.362 133.352V117.543C145.362 117.394 145.235 117.267 145.086 117.267C144.937 117.267 144.809 117.394 144.809 117.543V133.352C144.809 133.501 144.937 133.628 145.086 133.628Z" fill="#3D0F9A"/>
<path d="M113.382 82.2665C113.382 82.6707 113.659 83.075 114.191 83.3941L143.085 100.181C143.638 100.501 144.361 100.649 145.106 100.649C145.808 100.649 146.489 100.479 147.021 100.181L197.787 70.7984C198.34 70.4792 198.617 70.0749 198.617 69.6494L198.574 83.6707C198.574 84.075 198.298 84.5005 197.744 84.8197L146.978 114.203C146.446 114.501 145.766 114.671 145.063 114.671C144.34 114.671 143.595 114.522 143.042 114.203L114.148 97.4154C113.617 97.0963 113.34 96.692 113.34 96.2878L113.382 82.2665Z" fill="#3D0F9A"/>
<path d="M145.021 114.969C145.021 114.969 145.064 114.969 145.085 114.969C145.851 114.969 146.596 114.777 147.149 114.458L197.915 85.0752C198.532 84.7135 198.872 84.2241 198.872 83.6709L198.915 69.6709H198.341C198.341 69.99 198.107 70.3092 197.66 70.5645L146.894 99.9476C146.426 100.224 145.787 100.373 145.106 100.373C144.426 100.373 143.723 100.224 143.234 99.9476L114.34 83.1603C113.915 82.905 113.681 82.6071 113.681 82.2667H113.106L113.064 96.288C113.064 96.8199 113.404 97.3093 114.021 97.671L142.915 114.458C143.489 114.777 144.234 114.969 145.021 114.969ZM198.319 70.7773L198.277 83.6709C198.277 83.9901 198.043 84.3092 197.596 84.5646L146.83 113.948C146.362 114.224 145.723 114.373 145.043 114.373C144.34 114.373 143.66 114.224 143.17 113.948L114.277 97.1603C113.851 96.905 113.617 96.6071 113.617 96.2667L113.66 83.3731C113.766 83.4794 113.894 83.5646 114.043 83.6497L142.936 100.437C143.511 100.777 144.277 100.948 145.106 100.948C145.872 100.948 146.617 100.756 147.17 100.437L197.936 71.0539C198.085 70.9688 198.213 70.8837 198.319 70.7773Z" fill="#3D0F9A"/>
<path d="M114.213 81.1166C113.128 81.7549 113.128 82.7549 114.213 83.3932L143.107 100.18C144.192 100.819 145.958 100.819 147.043 100.18L197.809 70.7974C198.894 70.1591 198.894 69.1591 197.809 68.5208L147.235 64.3293C146.15 63.691 144.384 63.691 143.298 64.3293L114.213 81.1166Z" fill="#3D0F9A"/>
<path d="M145.064 100.968C145.83 100.968 146.575 100.798 147.171 100.457L197.937 71.053C198.554 70.6913 198.894 70.2019 198.894 69.67C198.894 69.1381 198.554 68.6487 197.937 68.287L197.873 68.2445H197.809L147.298 64.053C146.107 63.3934 144.298 63.4147 143.128 64.0955L114.043 80.8828C113.426 81.2445 113.085 81.7339 113.085 82.2658C113.085 82.7977 113.426 83.2871 114.043 83.6488L142.936 100.436C143.532 100.776 144.277 100.947 145.043 100.947L145.064 100.968ZM197.724 68.8189C198.128 69.053 198.341 69.3721 198.341 69.67C198.341 69.9891 198.107 70.3083 197.66 70.5636L146.894 99.9467C145.894 100.521 144.256 100.521 143.256 99.9467L114.362 83.1594C113.936 82.9041 113.702 82.5849 113.702 82.2658C113.702 81.9466 113.936 81.6275 114.383 81.3721L143.468 64.5849C144.468 64.0104 146.107 64.0104 147.107 64.5849L147.171 64.6274H147.234L197.745 68.8189H197.724Z" fill="#3D0F9A"/>
<path d="M144.808 100.713H145.383V114.607H144.808V100.713Z" fill="#3D0F9A"/>
<path d="M109.043 66.0536C109.043 66.5217 109.341 66.9897 109.958 67.3302L142.809 86.4366C143.447 86.7983 144.277 86.9898 145.107 86.9685C145.894 86.9685 146.681 86.777 147.277 86.4366L202.022 54.7344C202.639 54.3727 202.958 53.9046 202.958 53.4365L202.915 69.3727C202.915 69.8408 202.596 70.3089 201.979 70.6706L147.234 102.373C146.639 102.713 145.851 102.905 145.064 102.905C144.234 102.905 143.405 102.735 142.766 102.373L109.915 83.2664C109.298 82.9047 109 82.4366 109 81.9898L109.043 66.0536Z" fill="white" stroke="#3D0F9A"/>
<path d="M109.98 64.7555C108.746 65.4789 108.746 66.6278 109.98 67.3512L142.831 86.4577C144.065 87.1811 146.065 87.1811 147.299 86.4577L202.044 54.7555C203.278 54.0321 203.278 52.8831 202.044 52.1597L169.193 33.0533C167.959 32.3299 165.959 32.3299 164.724 33.0533L109.98 64.7555Z" fill="white" stroke="#3D0F9A"/>
<path d="M125.851 79.3086L141.617 88.3937V90.8193L125.851 81.7128V79.3086Z" fill="#3D0F9A"/>
<path d="M125.851 83.1172L141.617 92.2023V94.6279L125.851 85.5214V83.1172Z" fill="#3D0F9A"/>
<path d="M125.851 86.9258L141.617 96.0109V98.4364L125.851 89.33V86.9258Z" fill="#3D0F9A"/>
<path d="M122.957 77.6703V87.7128L111.255 80.9469V70.9043L122.957 77.6703Z" fill="#3D0F9A"/>
<path d="M123.255 88.2025V77.5217L110.979 70.4365V81.1174L123.255 88.2025ZM122.681 77.8408V87.2025L111.553 80.777V71.4153L122.681 77.8408Z" fill="#3D0F9A"/>
<path d="M145.086 103.117C145.235 103.117 145.362 102.989 145.362 102.84V87.0315C145.362 86.8825 145.235 86.7549 145.086 86.7549C144.937 86.7549 144.809 86.8825 144.809 87.0315V102.84C144.809 102.989 144.937 103.117 145.086 103.117Z" fill="#3D0F9A"/>
<path d="M113.382 51.7557C113.382 52.16 113.659 52.5642 114.191 52.8834L143.085 69.6707C143.638 69.9898 144.361 70.1387 145.106 70.1387C145.808 70.1387 146.489 69.9685 147.021 69.6707L197.787 40.2876C198.34 39.9685 198.617 39.5642 198.617 39.1387L198.574 53.16C198.574 53.5642 198.298 53.9898 197.744 54.3089L146.978 83.692C146.446 83.9898 145.766 84.16 145.063 84.16C144.34 84.16 143.595 84.0111 143.042 83.692L114.148 66.9047C113.617 66.5855 113.34 66.1813 113.34 65.777L113.382 51.7557Z" fill="#3D0F9A"/>
<path d="M145.021 84.4581C145.021 84.4581 145.064 84.4581 145.085 84.4581C145.851 84.4581 146.596 84.2666 147.149 83.9475L197.915 54.5644C198.532 54.2027 198.872 53.7134 198.872 53.1602L198.915 39.1602H198.341C198.341 39.4793 198.107 39.7985 197.66 40.0538L146.894 69.4368C146.426 69.7134 145.787 69.8623 145.106 69.8623C144.404 69.8623 143.723 69.7134 143.234 69.4368L114.34 52.6495C113.915 52.3942 113.681 52.0964 113.681 51.7559H113.106L113.064 65.7772C113.064 66.3092 113.404 66.7985 114.021 67.1602L142.915 83.9475C143.489 84.2879 144.234 84.4581 145.021 84.4581ZM198.319 40.2665L198.277 53.1602C198.277 53.4793 198.043 53.7985 197.596 54.0538L146.83 83.4369C146.362 83.7134 145.723 83.8624 145.043 83.8624C144.362 83.8624 143.66 83.7134 143.17 83.4369L114.277 66.6496C113.851 66.3943 113.617 66.0964 113.617 65.756L113.66 52.8623C113.766 52.9687 113.894 53.0538 114.043 53.1389L142.936 69.9262C143.511 70.2666 144.298 70.4368 145.106 70.4368C145.872 70.4368 146.617 70.2453 147.17 69.9262L197.936 40.5431C198.085 40.458 198.213 40.3729 198.319 40.2665Z" fill="#3D0F9A"/>
<path d="M114.213 50.6069C113.128 51.2452 113.128 52.2452 114.213 52.8835L143.107 69.6708C144.192 70.3091 145.958 70.3091 147.043 69.6708L197.809 40.2877C198.894 39.6494 198.894 38.6494 197.809 38.0111L168.916 21.2238C167.83 20.5855 166.064 20.5855 164.979 21.2238L114.213 50.6069Z" fill="#3D0F9A"/>
<path d="M145.064 70.4576C145.83 70.4576 146.575 70.2873 147.171 69.9469L197.937 40.5639C198.554 40.2022 198.894 39.7128 198.894 39.1809C198.894 38.649 198.554 38.1596 197.937 37.7979L169.043 21.0106C167.873 20.3298 166.022 20.3298 164.83 21.0106L114.064 50.3937C113.447 50.7554 113.107 51.2447 113.107 51.7767C113.107 52.3086 113.447 52.7979 114.064 53.1596L142.958 69.9469C143.553 70.2873 144.298 70.4576 145.064 70.4576ZM166.937 21.0532C167.596 21.0532 168.256 21.2021 168.745 21.4787L197.639 38.266C198.064 38.5213 198.298 38.8405 198.298 39.1596C198.298 39.4788 198.064 39.7979 197.617 40.0532L146.851 69.4363C145.851 70.0108 144.213 70.0108 143.213 69.4363L114.319 52.649C113.894 52.3937 113.66 52.0745 113.66 51.7554C113.66 51.4362 113.894 51.1171 114.341 50.8618L165.107 21.4787C165.617 21.1809 166.277 21.0319 166.937 21.0319V21.0532Z" fill="#3D0F9A"/>
<path d="M144.808 70.2021H145.383V84.0958H144.808V70.2021Z" fill="#3D0F9A"/>
<path d="M109.042 35.5428C109.042 36.0109 109.34 36.479 109.957 36.8194L142.808 55.9259C143.447 56.2876 144.277 56.479 145.106 56.4578C145.894 56.4578 146.681 56.2663 147.277 55.9259L202.021 24.2237C202.638 23.862 202.958 23.3939 202.958 22.9258L202.915 38.862C202.915 39.3301 202.596 39.7982 201.979 40.1599L147.234 71.8621C146.638 72.2025 145.851 72.394 145.064 72.394C144.234 72.394 143.404 72.2238 142.766 71.8621L109.915 52.7556C109.298 52.3939 109 51.9258 109 51.479L109.042 35.5428Z" fill="white" stroke="#3D0F9A"/>
<path d="M109.98 34.2448C108.746 34.9682 108.746 36.1171 109.98 36.8405L142.831 55.9469C144.065 56.6703 146.065 56.6703 147.299 55.9469L202.044 24.2447C203.278 23.5213 203.278 22.3724 202.044 21.649L169.193 2.54255C167.959 1.81915 165.959 1.81915 164.724 2.54255L109.98 34.2448Z" fill="white" stroke="#3D0F9A"/>
<path d="M125.851 48.7979L141.617 57.883V60.3085L125.851 51.2021V48.7979Z" fill="#3D0F9A"/>
<path d="M125.851 52.6064L141.617 61.6916V64.1171L125.851 55.0107V52.6064Z" fill="#3D0F9A"/>
<path d="M125.851 56.415L141.617 65.5002V67.9257L125.851 58.8193V56.415Z" fill="#3D0F9A"/>
<path d="M122.957 47.1595V57.2021L111.255 50.4361V40.3936L122.957 47.1595Z" fill="#3D0F9A"/>
<path d="M123.255 57.6918V47.0109L110.979 39.9258V50.6067L123.255 57.6918ZM122.681 47.33V56.6918L111.553 50.2662V40.9045L122.681 47.33Z" fill="#3D0F9A"/>
<path d="M145.085 72.6059C145.234 72.6059 145.362 72.4782 145.362 72.3293V56.5207C145.362 56.3718 145.234 56.2441 145.085 56.2441C144.936 56.2441 144.809 56.3718 144.809 56.5207V72.3293C144.809 72.4782 144.936 72.6059 145.085 72.6059Z" fill="#3D0F9A" stroke="#3D0F9A" stroke-width="0.5"/>
<path d="M159.268 133.006C159.268 133.474 159.566 133.942 160.183 134.282L193.035 153.389C193.673 153.75 194.503 153.942 195.332 153.921C196.12 153.921 196.907 153.729 197.503 153.389L252.247 121.687C252.864 121.325 253.184 120.857 253.184 120.389L253.141 136.325C253.141 136.793 252.822 137.261 252.205 137.623L197.46 169.325C196.864 169.665 196.077 169.857 195.29 169.857C194.46 169.857 193.63 169.687 192.992 169.325L160.141 150.219C159.524 149.857 159.226 149.389 159.226 148.942L159.268 133.006Z" fill="white" stroke="#3D0F9A"/>
<path d="M160.206 131.709C158.972 132.432 158.972 133.581 160.206 134.305L193.057 153.411C194.291 154.134 196.291 154.134 197.525 153.411L252.27 121.709C253.504 120.985 253.504 119.836 252.27 119.113L197.738 112.624C196.504 111.9 194.504 111.9 193.27 112.624L160.184 131.73L160.206 131.709Z" fill="white" stroke="#3D0F9A"/>
<path d="M176.077 146.262L191.843 155.347V157.772L176.077 148.666V146.262Z" fill="#3D0F9A"/>
<path d="M176.077 150.07L191.843 159.155V161.581L176.077 152.475V150.07Z" fill="#3D0F9A"/>
<path d="M176.077 153.879L191.843 162.964V165.39L176.077 156.283V153.879Z" fill="#3D0F9A"/>
<path d="M173.183 144.623V154.666L161.481 147.9V137.857L173.183 144.623Z" fill="#3D0F9A"/>
<path d="M173.481 155.156V144.475L161.205 137.39V148.071L173.481 155.156ZM172.907 144.794V154.156L161.779 147.73V138.368L172.907 144.794Z" fill="#3D0F9A"/>
<path d="M195.311 170.07C195.46 170.07 195.588 169.942 195.588 169.793V153.985C195.588 153.836 195.46 153.708 195.311 153.708C195.162 153.708 195.035 153.836 195.035 153.985V169.793C195.035 169.942 195.162 170.07 195.311 170.07Z" fill="#3D0F9A"/>
<path d="M163.609 118.708C163.609 119.112 163.885 119.516 164.417 119.836L193.311 136.623C193.864 136.942 194.587 137.091 195.332 137.091C196.034 137.091 196.715 136.921 197.247 136.623L248.013 107.24C248.566 106.921 248.843 106.516 248.843 106.091L248.8 120.112C248.8 120.516 248.524 120.942 247.97 121.261L197.204 150.644C196.672 150.942 195.992 151.112 195.289 151.112C194.566 151.112 193.821 150.963 193.268 150.644L164.374 133.857C163.843 133.538 163.566 133.133 163.566 132.729L163.609 118.708Z" fill="#3D0F9A"/>
<path d="M195.247 151.411C195.247 151.411 195.289 151.411 195.311 151.411C196.077 151.411 196.821 151.22 197.375 150.901L248.141 121.518C248.758 121.156 249.098 120.667 249.098 120.113L249.141 106.113H248.566C248.566 106.432 248.332 106.752 247.885 107.007L197.119 136.39C196.651 136.667 196.013 136.815 195.332 136.815C194.651 136.815 193.949 136.667 193.46 136.39L164.566 119.603C164.14 119.347 163.906 119.049 163.906 118.709H163.332L163.289 132.73C163.289 133.262 163.63 133.752 164.247 134.113L193.14 150.901C193.715 151.22 194.46 151.411 195.247 151.411ZM248.545 107.22L248.502 120.113C248.502 120.432 248.268 120.752 247.821 121.007L197.055 150.39C196.587 150.667 195.949 150.816 195.268 150.816C194.566 150.816 193.885 150.667 193.396 150.39L164.502 133.603C164.077 133.347 163.843 133.05 163.843 132.709L163.885 119.815C163.991 119.922 164.119 120.007 164.268 120.092L193.162 136.879C193.736 137.22 194.502 137.39 195.332 137.39C196.098 137.39 196.843 137.198 197.396 136.879L248.162 107.496C248.311 107.411 248.438 107.326 248.545 107.22Z" fill="#3D0F9A"/>
<path d="M164.439 117.559C163.354 118.197 163.354 119.197 164.439 119.836L193.333 136.623C194.418 137.261 196.184 137.261 197.269 136.623L248.035 107.24C249.12 106.601 249.12 105.601 248.035 104.963L197.461 100.772C196.376 100.133 194.61 100.133 193.525 100.772L164.439 117.559Z" fill="#3D0F9A"/>
<path d="M195.29 137.41C196.056 137.41 196.801 137.24 197.397 136.9L248.163 107.495C248.78 107.134 249.12 106.644 249.12 106.112C249.12 105.58 248.78 105.091 248.163 104.729L248.099 104.687H248.035L197.524 100.495C196.333 99.8358 194.524 99.857 193.354 100.538L164.269 117.325C163.652 117.687 163.311 118.176 163.311 118.708C163.311 119.24 163.652 119.729 164.269 120.091L193.163 136.878C193.758 137.219 194.503 137.389 195.269 137.389L195.29 137.41ZM247.95 105.261C248.354 105.495 248.567 105.815 248.567 106.112C248.567 106.432 248.333 106.751 247.886 107.006L197.12 136.389C196.12 136.964 194.482 136.964 193.482 136.389L164.588 119.602C164.162 119.346 163.928 119.027 163.928 118.708C163.928 118.389 164.162 118.07 164.609 117.815L193.694 101.027C194.694 100.453 196.333 100.453 197.333 101.027L197.397 101.07H197.46L247.971 105.261H247.95Z" fill="#3D0F9A"/>
<path d="M195.034 137.155H195.609V151.049H195.034V137.155Z" fill="#3D0F9A"/>
<path d="M159.268 102.496C159.268 102.964 159.566 103.432 160.183 103.773L193.035 122.879C193.673 123.241 194.503 123.432 195.332 123.411C196.12 123.411 196.907 123.219 197.503 122.879L252.247 91.1768C252.864 90.8151 253.184 90.347 253.184 89.8789L253.141 105.815C253.141 106.283 252.822 106.751 252.205 107.113L197.46 138.815C196.864 139.156 196.077 139.347 195.29 139.347C194.46 139.347 193.63 139.177 192.992 138.815L160.141 119.709C159.524 119.347 159.226 118.879 159.226 118.432L159.268 102.496Z" fill="white" stroke="#3D0F9A"/>
<path d="M160.206 101.198C158.972 101.921 158.972 103.07 160.206 103.794L193.057 122.9C194.291 123.623 196.291 123.623 197.525 122.9L252.27 91.1979C253.504 90.4745 253.504 89.3255 252.27 88.6021L219.419 69.4957C218.185 68.7723 216.185 68.7723 214.951 69.4957L160.206 101.198Z" fill="white" stroke="#3D0F9A"/>
<path d="M176.077 115.751L191.843 124.836V127.262L176.077 118.155V115.751Z" fill="#FF5A00"/>
<path d="M176.077 119.56L191.843 128.645V131.07L176.077 121.964V119.56Z" fill="#FF5A00"/>
<path d="M176.077 123.368L191.843 132.453V134.879L176.077 125.772V123.368Z" fill="#FF5A00"/>
<path d="M173.183 114.113V124.155L161.481 117.389V107.347L173.183 114.113Z" fill="#FF5A00"/>
<path d="M173.481 124.645V113.964L161.205 106.879V117.56L173.481 124.645ZM172.907 114.283V123.645L161.779 117.219V107.858L172.907 114.283Z" fill="#FF5A00"/>
<path d="M195.311 139.559C195.46 139.559 195.588 139.431 195.588 139.282V123.474C195.588 123.325 195.46 123.197 195.311 123.197C195.162 123.197 195.035 123.325 195.035 123.474V139.282C195.035 139.431 195.162 139.559 195.311 139.559Z" fill="#3D0F9A"/>
<path d="M163.609 88.1971C163.609 88.6014 163.885 89.0056 164.417 89.3248L193.311 106.112C193.864 106.431 194.587 106.58 195.332 106.58C196.034 106.58 196.715 106.41 197.247 106.112L248.013 76.729C248.566 76.4099 248.843 76.0056 248.843 75.5801L248.8 89.6014C248.8 90.0056 248.524 90.4312 247.97 90.7503L197.204 120.133C196.672 120.431 195.992 120.601 195.289 120.601C194.566 120.601 193.821 120.453 193.268 120.133L164.374 103.346C163.843 103.027 163.566 102.623 163.566 102.218L163.609 88.1971Z" fill="#3D0F9A"/>
<path d="M195.247 120.9C195.247 120.9 195.289 120.9 195.311 120.9C196.077 120.9 196.821 120.708 197.375 120.389L248.141 91.0059C248.758 90.6441 249.098 90.1548 249.098 89.6016L249.141 75.6016H248.566C248.566 75.9207 248.332 76.2399 247.885 76.4952L197.119 105.878C196.651 106.155 196.013 106.304 195.332 106.304C194.63 106.304 193.949 106.155 193.46 105.878L164.566 89.091C164.14 88.8356 163.906 88.5378 163.906 88.1973H163.332L163.289 102.219C163.289 102.751 163.63 103.24 164.247 103.602L193.14 120.389C193.715 120.729 194.46 120.9 195.247 120.9ZM248.545 76.7079L248.502 89.6016C248.502 89.9207 248.268 90.2399 247.821 90.4952L197.055 119.878C196.587 120.155 195.949 120.304 195.268 120.304C194.587 120.304 193.885 120.155 193.396 119.878L164.502 103.091C164.077 102.836 163.843 102.538 163.843 102.197L163.885 89.3037C163.991 89.4101 164.119 89.4952 164.268 89.5803L193.162 106.368C193.736 106.708 194.523 106.878 195.332 106.878C196.098 106.878 196.843 106.687 197.396 106.368L248.162 76.9845C248.311 76.8994 248.438 76.8143 248.545 76.7079Z" fill="#3D0F9A"/>
<path d="M164.439 87.0483C163.354 87.6866 163.354 88.6866 164.439 89.3249L193.333 106.112C194.418 106.75 196.184 106.75 197.269 106.112L248.035 76.7291C249.12 76.0908 249.12 75.0908 248.035 74.4525L219.142 57.6652C218.057 57.0269 216.291 57.0269 215.205 57.6652L164.439 87.0483Z" fill="#3D0F9A"/>
<path d="M195.29 106.9C196.056 106.9 196.801 106.73 197.397 106.389L248.163 77.0063C248.78 76.6446 249.12 76.1552 249.12 75.6233C249.12 75.0914 248.78 74.602 248.163 74.2403L219.269 57.453C218.099 56.7722 216.248 56.7722 215.056 57.453L164.29 86.8361C163.673 87.1978 163.333 87.6871 163.333 88.219C163.333 88.751 163.673 89.2403 164.29 89.602L193.184 106.389C193.78 106.73 194.524 106.9 195.29 106.9ZM217.163 57.4956C217.822 57.4956 218.482 57.6445 218.971 57.9211L247.865 74.7084C248.29 74.9637 248.524 75.2829 248.524 75.602C248.524 75.9212 248.29 76.2403 247.844 76.4956L197.077 105.879C196.077 106.453 194.439 106.453 193.439 105.879L164.545 89.0914C164.12 88.8361 163.886 88.5169 163.886 88.1978C163.886 87.8786 164.12 87.5595 164.567 87.3041L215.333 57.9211C215.843 57.6232 216.503 57.4743 217.163 57.4743V57.4956Z" fill="#3D0F9A"/>
<path d="M195.034 106.645H195.609V120.538H195.034V106.645Z" fill="#3D0F9A"/>
<path d="M159.268 71.9842C159.268 72.4523 159.566 72.9204 160.183 73.2608L193.035 92.3673C193.673 92.729 194.503 92.9205 195.332 92.8992C196.12 92.8992 196.907 92.7077 197.503 92.3673L252.247 60.6651C252.864 60.3034 253.184 59.8353 253.184 59.3672L253.141 75.3034C253.141 75.7715 252.822 76.2396 252.205 76.6013L197.46 108.303C196.864 108.644 196.077 108.835 195.29 108.835C194.46 108.835 193.63 108.665 192.992 108.303L160.141 89.197C159.524 88.8353 159.226 88.3673 159.226 87.9204L159.268 71.9842Z" fill="white" stroke="#3D0F9A"/>
<path d="M160.205 70.6871C158.971 71.4105 158.971 72.5595 160.205 73.2829L193.056 92.3893C194.29 93.1127 196.29 93.1127 197.524 92.3893L252.269 60.6871C253.503 59.9637 253.503 58.8148 252.269 58.0914L219.418 38.9849C218.184 38.2615 216.184 38.2615 214.95 38.9849L160.205 70.6871Z" fill="white" stroke="#3D0F9A"/>
<path d="M176.076 85.2402L191.842 94.3254V96.7509L176.076 87.6445V85.2402Z" fill="#FF5A00"/>
<path d="M176.076 89.0488L191.842 98.1339V100.559L176.076 91.4531V89.0488Z" fill="#FF5A00"/>
<path d="M176.076 92.8574L191.842 101.943V104.368L176.076 95.2617V92.8574Z" fill="#FF5A00"/>
<path d="M173.183 83.6019V93.6445L161.48 86.8785V76.8359L173.183 83.6019Z" fill="#FF5A00"/>
<path d="M173.481 94.1332V83.4523L161.204 76.3672V87.0481L173.481 94.1332ZM172.906 83.7715V93.1332L161.779 86.7076V77.3459L172.906 83.7715Z" fill="#FF5A00"/>
<path d="M195.311 109.048C195.46 109.048 195.587 108.921 195.587 108.772V92.9631C195.587 92.8142 195.46 92.6865 195.311 92.6865C195.162 92.6865 195.034 92.8142 195.034 92.9631V108.772C195.034 108.921 195.162 109.048 195.311 109.048Z" fill="#3D0F9A" stroke="#3D0F9A" stroke-width="0.5"/>
<path d="M87.729 243L17.7886 198.762C14.3172 196.566 14.3807 193.193 17.934 191.041L127 125" stroke="#3D0F9A" stroke-width="0.5" stroke-dasharray="2 2"/>
<path d="M127.928 155.414V158.077L141.635 150.166L141.608 147.503L127.928 155.414Z" fill="#3D0F9A"/>
<path d="M127.928 158.443C127.928 158.443 127.797 158.443 127.745 158.39C127.615 158.312 127.562 158.181 127.562 158.051V155.414C127.562 155.283 127.641 155.153 127.745 155.075L141.426 147.164C141.426 147.164 141.687 147.085 141.818 147.164C141.948 147.242 142 147.373 142 147.503V150.14C142 150.271 141.922 150.401 141.818 150.479L128.137 158.39C128.137 158.39 128.006 158.443 127.954 158.443H127.928ZM128.32 155.623V157.372L141.243 149.905V148.156L128.32 155.623Z" fill="#3D0F9A"/>
<path d="M111.192 161.967V164.63L133.28 161.157L133.254 158.521L111.192 161.967Z" fill="#3D0F9A" stroke="#3D0F9A" stroke-linejoin="round"/>
<path d="M117.223 149.2L111.192 161.967L133.254 158.521L127.928 155.414L141.609 147.503L136.256 144.396L122.549 152.307L117.223 149.2Z" fill="white" stroke="#3D0F9A" stroke-linejoin="round"/>
<path d="M95.1284 174.214V176.877L108.835 168.966L108.809 166.303L95.1284 174.214Z" fill="#3D0F9A"/>
<path d="M95.1282 177.242C95.1282 177.242 94.9977 177.242 94.9455 177.19C94.8149 177.112 94.7627 176.981 94.7627 176.851V174.214C94.7627 174.083 94.841 173.953 94.9455 173.874L108.626 165.964C108.626 165.964 108.887 165.885 109.018 165.964C109.148 166.042 109.201 166.172 109.201 166.303V168.94C109.201 169.07 109.122 169.201 109.018 169.279L95.3371 177.19C95.3371 177.19 95.2065 177.242 95.1543 177.242H95.1282ZM95.5198 174.423V176.172L108.443 168.705V166.956L95.5198 174.423Z" fill="#3D0F9A"/>
<path d="M78.3926 180.767V183.43L100.48 179.957L100.454 177.32L78.3926 180.767Z" fill="#3D0F9A" stroke="#3D0F9A" stroke-linejoin="round"/>
<path d="M84.4236 168L78.3926 180.767L100.454 177.321L95.128 174.214L108.809 166.303L103.457 163.196L89.7497 171.107L84.4236 168Z" fill="white" stroke="#3D0F9A" stroke-linejoin="round"/>
<path d="M73.5668 210.964C73.5668 210.964 73.7406 210.964 73.8102 210.894L156.82 162.973C157.064 162.834 157.133 162.521 156.994 162.243C156.855 161.999 156.542 161.93 156.299 162.069L73.3233 209.99C73.0799 210.129 72.9756 210.442 73.1495 210.686C73.2538 210.859 73.4277 210.929 73.6015 210.929L73.5668 210.964Z" fill="#3D0F9A"/>
<path d="M107.334 209.99L82.6081 224.352C80.6259 225.5 77.3917 225.5 75.4095 224.352L39.5208 203.661C38.5123 203.07 38.0255 202.305 38.0255 201.574L37.9559 228.734C37.9559 229.499 38.4428 230.264 39.4513 230.821L75.34 251.512C77.357 252.66 80.5563 252.66 82.5386 251.512L107.264 237.15C108.238 236.594 108.76 235.828 108.76 235.063L108.829 207.903C108.829 208.668 108.342 209.399 107.334 209.99Z" fill="#3D0F9A"/>
<path d="M78.956 252.905C80.347 252.905 81.7381 252.592 82.8161 251.966L107.542 237.603C108.655 236.942 109.281 236.073 109.281 235.099L109.35 207.939C109.35 207.661 109.107 207.418 108.828 207.418C108.55 207.418 108.307 207.661 108.307 207.939C108.307 208.531 107.855 209.122 107.09 209.574L82.364 223.936C80.5209 225.014 77.5302 225.014 75.6871 223.936L39.7984 203.245C38.9985 202.793 38.5464 202.201 38.5464 201.575C38.5464 201.297 38.303 201.054 38.0248 201.054C37.7466 201.054 37.5032 201.297 37.5032 201.575L37.4336 228.735C37.4336 229.709 38.0596 230.613 39.2072 231.274L75.0959 251.966C76.1739 252.592 77.565 252.905 78.956 252.905ZM108.307 209.956V235.065C108.237 235.656 107.82 236.247 107.02 236.699L82.2945 251.061C80.4514 252.139 77.4606 252.139 75.6175 251.061L39.7288 230.37C38.929 229.918 38.4769 229.326 38.4769 228.701V203.592C38.7551 203.766 38.9985 203.94 39.2767 204.114L75.1654 224.806C77.3215 226.058 80.7296 226.058 82.8857 224.806L107.611 210.443C107.855 210.304 108.098 210.13 108.307 209.956Z" fill="#3D0F9A"/>
<path d="M107.299 205.818C109.316 206.966 109.316 208.843 107.299 209.991L82.5731 224.353C80.5909 225.501 77.3568 225.501 75.3745 224.353L39.4858 203.662C37.4688 202.514 37.4688 200.636 39.4858 199.489L64.2115 185.126C66.1937 183.979 69.4279 183.979 71.4101 185.126L107.299 205.818Z" fill="white" stroke="#3D0F9A"/>
<path d="M79.2689 252.87C79.5471 252.87 79.7905 252.626 79.7905 252.348V225.223C79.7905 224.945 79.5471 224.701 79.2689 224.701C78.9907 224.701 78.7472 224.945 78.7472 225.223V252.348C78.7472 252.626 78.9907 252.87 79.2689 252.87Z" fill="#3D0F9A"/>
<path d="M50.6826 220.249C50.6826 222.335 49.222 223.17 47.4137 222.127C45.6053 221.083 44.1448 218.58 44.1448 216.493C44.1448 214.407 45.6053 213.572 47.4137 214.615C49.222 215.658 50.6826 218.162 50.6826 220.249Z" fill="white"/>
<path d="M60.9082 226.126C60.9082 228.212 59.4476 229.047 57.6393 228.004C55.8309 226.96 54.3703 224.457 54.3703 222.37C54.3703 220.283 55.8309 219.449 57.6393 220.492C59.4476 221.535 60.9082 224.039 60.9082 226.126Z" fill="white"/>
<path d="M71.1323 232.038C71.1323 234.124 69.6717 234.959 67.8634 233.916C66.055 232.873 64.5945 230.369 64.5945 228.282C64.5945 226.196 66.055 225.361 67.8634 226.404C69.6717 227.447 71.1323 229.951 71.1323 232.038Z" fill="#FF5A00"/>
<path d="M139.093 190.845C139.093 191.52 139.555 192.195 140.444 192.728L200.755 227.771C201.679 228.304 202.888 228.553 204.096 228.553C205.233 228.553 206.406 228.269 207.295 227.771L255.63 199.872C256.554 199.339 256.98 198.664 256.98 197.953L256.909 213.768C256.909 214.443 256.447 215.154 255.558 215.687L207.224 243.586C206.335 244.084 205.198 244.368 204.025 244.368C202.817 244.368 201.608 244.12 200.684 243.586L140.373 208.544C139.484 208.011 139.022 207.335 139.022 206.66L139.093 190.845Z" fill="white" stroke="#3D0F9A"/>
<path d="M140.443 188.926C138.631 189.957 138.631 191.663 140.443 192.693L200.755 227.736C202.568 228.767 205.482 228.767 207.295 227.736L255.629 199.837C257.442 198.806 257.442 197.1 255.629 196.07L195.318 161.027C193.505 159.996 190.591 159.996 188.778 161.027L140.443 188.926Z" fill="white" stroke="#3D0F9A"/>
<path d="M166.069 215.759C166.069 217.394 164.896 218.069 163.475 217.252C162.053 216.434 160.88 214.409 160.88 212.774C160.88 211.139 162.053 210.464 163.475 211.281C164.896 212.099 166.069 214.124 166.069 215.759Z" fill="#3D0F9A"/>
<path d="M174.206 220.451C174.206 222.085 173.033 222.761 171.612 221.943C170.19 221.126 169.017 219.1 169.017 217.465C169.017 215.83 170.19 215.155 171.612 215.973C173.033 216.79 174.206 218.816 174.206 220.451Z" fill="#3D0F9A"/>
<path d="M182.31 225.105C182.31 226.74 181.138 227.415 179.716 226.598C178.294 225.78 177.122 223.754 177.122 222.12C177.122 220.485 178.294 219.809 179.716 220.627C181.138 221.444 182.31 223.47 182.31 225.105Z" fill="#FF5A00"/>
<path d="M144.673 168.525C144.673 169.13 145.064 169.769 145.881 170.231L200.471 201.969C201.288 202.466 202.39 202.68 203.492 202.68C204.523 202.68 205.589 202.431 206.371 201.969L250.121 176.7C250.938 176.238 251.365 175.598 251.365 174.958L251.293 196.034C251.293 196.673 250.867 197.277 250.05 197.775L206.3 223.044C205.518 223.506 204.451 223.755 203.421 223.755C202.319 223.755 201.217 223.542 200.4 223.044L145.846 191.307C145.028 190.845 144.637 190.205 144.637 189.601L144.708 168.525H144.673Z" fill="#3D0F9A"/>
<path d="M203.385 224.288C202.176 224.288 201.039 224.004 200.15 223.506L145.561 191.769C144.601 191.2 144.068 190.454 144.068 189.601L144.139 168.525C144.139 168.241 144.388 167.992 144.672 167.992C144.956 167.992 145.205 168.241 145.205 168.525C145.205 168.987 145.561 169.414 146.165 169.769L200.755 201.507C201.465 201.933 202.46 202.146 203.527 202.146C204.522 202.146 205.446 201.898 206.157 201.507L249.907 176.238C250.511 175.882 250.866 175.42 250.866 174.994C250.866 174.674 251.115 174.461 251.399 174.461C251.684 174.461 251.933 174.709 251.933 174.994L251.861 196.069C251.861 196.922 251.328 197.704 250.369 198.237L206.619 223.506C205.766 224.004 204.664 224.288 203.491 224.288H203.42H203.385ZM145.205 170.409L145.134 189.601C145.134 190.027 145.489 190.489 146.094 190.845L200.683 222.582C201.394 223.008 202.425 223.257 203.456 223.222C204.451 223.222 205.375 222.973 206.086 222.582L249.836 197.313C250.44 196.957 250.795 196.495 250.795 196.033L250.866 176.842C250.866 176.842 250.582 177.055 250.44 177.126L206.69 202.395C205.837 202.893 204.735 203.177 203.562 203.177C202.318 203.177 201.146 202.928 200.257 202.395L145.632 170.693C145.632 170.693 145.347 170.516 145.205 170.409Z" fill="#3D0F9A"/>
<path d="M139.093 164.402C139.093 165.078 139.555 165.753 140.443 166.286L200.755 201.329C201.679 201.862 202.887 202.111 204.096 202.111C205.233 202.111 206.406 201.826 207.294 201.329L255.629 173.43C256.553 172.896 256.98 172.221 256.98 171.51L256.908 187.326C256.908 188.001 256.446 188.712 255.558 189.245L207.223 217.144C206.335 217.642 205.197 217.926 204.025 217.926C202.816 217.926 201.608 217.677 200.684 217.144L140.372 182.101C139.484 181.568 139.021 180.893 139.021 180.218L139.093 164.402Z" fill="white" stroke="#3D0F9A"/>
<path d="M140.443 162.519C138.631 163.55 138.631 165.256 140.443 166.286L200.755 201.329C202.568 202.36 205.482 202.36 207.295 201.329L255.629 173.43C257.442 172.399 257.442 170.693 255.629 169.663L195.353 134.585C193.541 133.554 190.626 133.554 188.814 134.585L140.443 162.519Z" fill="white" stroke="#3D0F9A"/>
<path d="M203.128 222.466C202.886 222.466 202.673 222.247 202.673 221.996V201.992C202.673 201.741 202.886 202.447 203.128 202.447C203.371 202.447 203.583 201.969 203.583 202.22V221.996C203.583 222.247 203.371 222.466 203.128 222.466Z" fill="#3D0F9A" stroke="#3D0F9A" stroke-width="0.18199"/>
<path d="M203.128 244.305C202.886 244.305 202.673 244.135 202.673 243.941V228.289C202.673 228.095 202.886 228.835 203.128 228.835C203.371 228.835 203.583 228.095 203.583 228.289V243.941C203.583 244.135 203.371 244.305 203.128 244.305Z" fill="#3D0F9A" stroke="#3D0F9A" stroke-width="0.18199"/>
<path d="M166.069 189.317C166.069 190.952 164.896 191.627 163.474 190.81C162.053 189.992 160.88 187.966 160.88 186.331C160.88 184.697 162.053 184.021 163.474 184.839C164.896 185.656 166.069 187.682 166.069 189.317Z" fill="#3D0F9A"/>
<path d="M174.206 194.008C174.206 195.643 173.033 196.318 171.612 195.501C170.19 194.684 169.017 192.658 169.017 191.023C169.017 189.388 170.19 188.713 171.612 189.53C173.033 190.348 174.206 192.373 174.206 194.008Z" fill="#3D0F9A"/>
<path d="M182.31 198.7C182.31 200.335 181.138 201.01 179.716 200.192C178.294 199.375 177.122 197.349 177.122 195.714C177.122 194.079 178.294 193.404 179.716 194.222C181.138 195.039 182.31 197.065 182.31 198.7Z" fill="#FF5A00"/>
<path d="M137.637 228.874V232.889C137.637 232.488 137.356 232.046 136.793 231.725C135.709 231.082 133.902 231.082 132.818 231.725C132.256 232.046 132.015 232.448 132.015 232.849V228.834C132.015 228.432 132.296 227.99 132.858 227.709C133.942 227.067 135.749 227.067 136.834 227.709C137.396 228.031 137.677 228.432 137.677 228.874H137.637Z" fill="white"/>
<path d="M137.596 233.452C137.917 233.452 138.198 233.171 138.198 232.849V228.834C138.198 228.192 137.797 227.589 137.074 227.148C135.789 226.425 133.781 226.425 132.496 227.148C131.774 227.549 131.372 228.151 131.372 228.794V232.809C131.372 233.131 131.653 233.412 131.974 233.412C132.296 233.412 132.577 233.131 132.577 232.809C132.577 232.609 132.777 232.368 133.099 232.167C134.022 231.645 135.548 231.645 136.472 232.167C136.793 232.368 136.994 232.609 136.994 232.809C136.994 233.131 137.275 233.412 137.596 233.412V233.452ZM134.785 227.79C135.387 227.79 136.03 227.91 136.472 228.192C136.793 228.392 136.994 228.633 136.994 228.834V231.123C135.749 230.44 133.821 230.44 132.577 231.123V228.834C132.577 228.633 132.777 228.392 133.099 228.192C133.54 227.91 134.183 227.79 134.785 227.79Z" fill="#3D0F9A"/>
<path d="M137.637 228.874V232.889C137.637 232.488 137.356 232.046 136.793 231.725C135.709 231.082 133.902 231.082 132.818 231.725C132.256 232.046 132.015 232.448 132.015 232.849V228.834C132.015 228.432 132.296 227.99 132.858 227.709C133.942 227.067 135.749 227.067 136.834 227.709C137.396 228.031 137.677 228.432 137.677 228.874H137.637Z" fill="black"/>
<path d="M137.596 233.452C137.918 233.452 138.199 233.171 138.199 232.849V228.834C138.199 228.192 137.797 227.589 137.074 227.148C135.789 226.425 133.782 226.425 132.497 227.148C131.774 227.549 131.372 228.151 131.372 228.794V232.809C131.372 233.131 131.654 233.412 131.975 233.412C132.296 233.412 132.577 233.131 132.577 232.809C132.577 232.609 132.778 232.368 133.099 232.167C134.023 231.645 135.549 231.645 136.472 232.167C136.793 232.368 136.994 232.609 136.994 232.809C136.994 233.131 137.275 233.412 137.596 233.412V233.452ZM134.786 227.79C135.388 227.79 136.03 227.91 136.472 228.192C136.793 228.392 136.994 228.633 136.994 228.834V231.123C135.749 230.44 133.822 230.44 132.577 231.123V228.834C132.577 228.633 132.778 228.392 133.099 228.192C133.541 227.91 134.183 227.79 134.786 227.79Z" fill="black"/>
<path d="M137.596 233.452C137.918 233.452 138.199 233.171 138.199 232.85V228.834C138.199 228.834 138.199 228.593 138.199 228.513C138.118 228.232 137.837 228.031 137.556 228.031C137.235 228.031 137.034 228.312 137.034 228.634V232.649C137.034 232.649 137.034 232.729 137.034 232.769V232.85C137.034 233.171 137.315 233.452 137.637 233.452H137.596Z" fill="#3D0F9A"/>
<path d="M134.465 227.228V231.243C133.862 231.283 133.26 231.444 132.818 231.725C132.256 232.046 132.015 232.448 132.015 232.849V228.834C132.015 228.432 132.296 227.99 132.859 227.709C133.3 227.428 133.903 227.268 134.505 227.228H134.465Z" fill="#3D0F9A"/>
<path d="M153.456 228.03V232.046L141.49 238.992L141.53 234.977L153.456 228.03Z" fill="#3D0F9A" stroke="#3D0F9A" stroke-linejoin="round"/>
<path d="M136.873 234.977V238.993L128.641 234.215V230.239L136.873 234.977Z" fill="#3D0F9A" stroke="#3D0F9A" stroke-linejoin="round"/>
<path d="M141.529 234.977L141.489 238.992H136.871V234.977H141.529Z" fill="#3D0F9A" stroke="#3D0F9A" stroke-linejoin="round"/>
<path d="M145.184 220.602H140.567L128.601 227.548V230.239L136.872 235.017H141.49L153.456 228.07C153.456 227.026 153.456 226.424 153.456 225.38L145.184 220.602ZM132.817 229.998C131.733 229.355 131.692 228.351 132.817 227.709C133.901 227.066 135.708 227.066 136.792 227.709C137.876 228.351 137.916 229.355 136.792 229.998C135.708 230.64 133.901 230.64 132.817 229.998Z" fill="white" stroke="#3D0F9A" stroke-linejoin="round"/>
<path d="M146.31 234.776C146.31 234.776 146.229 234.455 146.229 234.254C146.229 233.291 146.912 232.166 147.715 231.684C148.116 231.444 148.518 231.444 148.759 231.604L181.886 250.838C181.605 250.677 181.244 250.718 180.842 250.918C179.999 251.4 179.357 252.565 179.357 253.488C179.357 253.689 179.357 253.89 179.477 254.05C179.477 254.131 179.517 254.171 179.557 254.211C179.557 254.211 179.557 254.251 179.597 254.291C179.638 254.372 179.718 254.412 179.798 254.452L146.631 235.218C146.631 235.218 146.51 235.098 146.43 235.057C146.43 235.057 146.43 235.017 146.39 234.977C146.39 234.937 146.31 234.857 146.31 234.816V234.776Z" fill="white"/>
<path d="M179.798 255.095C179.999 255.095 180.2 254.974 180.32 254.814C180.481 254.533 180.4 254.171 180.119 254.011L179.959 253.93H180.039C180.039 253.93 179.999 253.689 179.999 253.569C179.999 252.846 180.561 251.882 181.204 251.521C181.444 251.401 181.605 251.36 181.685 251.401C181.966 251.561 182.328 251.481 182.488 251.2C182.649 250.919 182.569 250.557 182.288 250.397L149.04 231.082C148.558 230.801 147.956 230.842 147.394 231.163C146.39 231.725 145.587 233.09 145.587 234.255C145.587 234.455 145.587 234.656 145.667 234.857C145.667 234.897 145.667 234.937 145.667 234.977C145.667 234.977 145.667 235.018 145.667 235.058C145.667 235.138 145.747 235.218 145.787 235.299C145.787 235.299 145.828 235.379 145.868 235.419C145.988 235.54 146.109 235.66 146.229 235.74L179.477 255.014C179.477 255.014 179.678 255.095 179.758 255.095H179.798ZM180.28 250.597C179.477 251.2 178.875 252.244 178.754 253.208L146.912 234.696H146.872C146.872 234.696 146.872 234.616 146.872 234.576C146.872 234.496 146.831 234.375 146.831 234.255C146.831 233.532 147.394 232.568 148.036 232.207C148.036 232.207 148.036 232.207 148.076 232.207C148.277 232.086 148.438 232.086 148.478 232.127L180.28 250.597Z" fill="#3D0F9A"/>
<path d="M180.843 250.958C181.646 250.476 182.329 250.878 182.329 251.801C182.329 252.765 181.646 253.889 180.843 254.371C180 254.853 179.357 254.452 179.357 253.528C179.357 252.564 180.04 251.44 180.843 250.958Z" fill="white"/>
<path d="M180.161 255.174C180.482 255.174 180.803 255.094 181.124 254.893C182.168 254.331 182.931 252.966 182.931 251.801C182.931 251.118 182.65 250.596 182.208 250.315C181.727 250.034 181.124 250.074 180.562 250.436C179.558 250.998 178.755 252.363 178.755 253.528C178.755 254.21 179.036 254.732 179.478 255.013C179.679 255.134 179.92 255.174 180.161 255.174ZM181.486 251.319H181.566C181.646 251.319 181.686 251.52 181.686 251.761C181.686 252.484 181.124 253.447 180.482 253.809C180.241 253.929 180.08 253.969 180 253.929C179.92 253.929 179.879 253.728 179.879 253.488C179.879 252.765 180.442 251.801 181.084 251.44H181.124C181.124 251.44 181.405 251.319 181.486 251.319Z" fill="#3D0F9A"/>
<path d="M164.738 250.598V252.726L169.477 255.456V253.328L164.738 250.598Z" fill="white" stroke="#3D0F9A" stroke-linejoin="round"/>
<path d="M169.477 253.328V255.456L175.38 252.043V249.915L169.477 253.328Z" fill="#3D0F9A" stroke="#3D0F9A" stroke-linejoin="round"/>
<path d="M164.739 250.598L169.478 253.328L175.38 249.915L170.642 247.185L164.739 250.598Z" fill="white" stroke="#3D0F9A" stroke-linejoin="round"/>
<path d="M137.597 228.634V229.649C137.516 229.288 137.235 230.359 136.794 230.078C136.151 229.717 135.308 230.46 134.465 230.5L134.465 227.188C135.308 227.148 136.151 227.268 136.794 227.67C137.275 227.951 137.516 228.272 137.597 228.634Z" fill="#3D0F9A"/>
<path d="M29.189 40.7803L24.9975 43.2012C22.7933 44.4659 19.8304 44.3936 16.5061 42.6592L20.6976 40.2383C24.0219 41.9727 26.9848 42.045 29.189 40.7803Z" fill="white"/>
<path d="M16.5422 42.6592L20.7337 40.2383C24.058 41.9727 27.021 42.045 29.2251 40.7803L25.0336 43.2012C22.8295 44.4659 19.8665 44.3936 16.5422 42.6592Z" fill="white" stroke="#3D0F9A" stroke-linejoin="round"/>
<path d="M28.7557 34.9628L32.9472 32.5418C33.6699 32.5418 47.4729 32.2166 61.5649 40.3467L57.3735 42.7676C43.2814 34.6376 29.4784 34.9266 28.7557 34.9628Z" fill="white"/>
<path d="M57.3725 43.346C57.3725 43.346 57.5531 43.346 57.6254 43.2737L61.8169 40.8527C61.8169 40.8527 62.0698 40.5637 62.0698 40.383C62.0698 40.2023 61.9614 40.0217 61.8169 39.9133C48.0139 31.9278 34.4277 32 32.9101 32C32.8017 32 32.7294 32 32.6571 32.0723L28.4656 34.4932C28.2488 34.6016 28.1404 34.8546 28.2127 35.1075C28.285 35.3604 28.4656 35.4688 28.7547 35.505C30.2362 35.505 43.5333 35.4327 57.0834 43.2376C57.1557 43.2737 57.2641 43.3098 57.3363 43.3098L57.3725 43.346ZM60.48 40.383L57.3725 42.1897C46.1711 35.794 35.1865 34.6739 30.7059 34.4932L33.0907 33.1202C35.0781 33.1202 47.5441 33.2286 60.48 40.4191V40.383Z" fill="#3D0F9A"/>
<path d="M77.355 137.365L73.1635 139.786C83.317 133.896 95.0604 120.419 98.0595 89.7413L102.251 87.3203C99.2519 117.998 87.5085 131.475 77.355 137.365Z" fill="white" stroke="#3D0F9A" stroke-linejoin="round"/>
<path d="M85.9186 67.9893L90.1101 65.5684C90.1101 73.4455 95.4579 83.0209 102.251 87.3207L98.0595 89.7417C91.2664 85.4418 85.8825 75.8664 85.9186 67.9893Z" fill="white" stroke="#3D0F9A" stroke-linejoin="round"/>
<path d="M32.9466 32.5418C33.6693 32.5418 47.4723 32.2166 61.5644 40.3467C75.6565 48.4767 89.3872 64.7007 90.1099 65.5317L85.9184 67.9527C85.1957 67.0855 71.4288 50.8977 57.3729 42.7676C43.2808 34.6376 29.4778 34.9266 28.7551 34.9628L32.9466 32.5418Z" fill="white" stroke="#3D0F9A" stroke-linejoin="round"/>
<path d="M57.3732 42.8047C71.4653 50.9347 85.196 67.1587 85.9187 67.9897C85.9187 75.8669 91.2665 85.4422 98.0596 89.7421C92.6395 145.026 58.8547 144.412 57.0842 144.412C55.3136 142.389 21.6372 104.051 16.5423 42.6963C23.3354 46.2374 28.7555 42.9131 28.7555 34.9998C29.4781 34.9998 43.2812 34.6746 57.3732 42.8047Z" fill="#3D0F9A" stroke="#3D0F9A" stroke-width="0.896758" stroke-linejoin="round"/>
<path d="M59.2166 139.534C52.3874 131.223 27.8527 98.3781 21.9268 48.8029C26.5881 48.6945 31.2493 45.9122 32.8753 39.9141C37.7172 40.3838 46.317 41.9014 54.989 46.924C66.3349 53.5003 77.6447 65.7495 81.2581 69.8687C81.8723 77.8904 86.6058 86.707 93.0737 91.9825C91.8091 102.461 89.3881 111.458 85.8109 118.685C82.7757 124.828 78.9094 129.778 74.3204 133.319C68.25 138.017 62.2157 139.245 59.1805 139.57L59.2166 139.534Z" fill="#3D0F9A"/>
<path d="M59.2161 140.076C59.2161 140.076 59.2161 140.076 59.2884 140.076C62.3959 139.751 68.5024 138.522 74.6813 133.717C79.3425 130.103 83.2449 125.117 86.3163 118.902C89.8935 111.603 92.3506 102.57 93.6152 92.0186C93.6152 91.8379 93.5791 91.6573 93.4346 91.5489C87.1112 86.3818 82.45 77.6375 81.8357 69.7965C81.8357 69.6881 81.7634 69.5797 81.6912 69.4713C78.403 65.7495 66.8403 53.1028 55.2776 46.4181C46.3526 41.251 37.4637 39.7695 32.947 39.3359C32.6941 39.3359 32.4412 39.4805 32.3689 39.7334C30.6706 45.8761 25.8649 48.1525 21.9263 48.2248C21.7818 48.2248 21.6373 48.2971 21.5289 48.4055C21.4205 48.5139 21.3843 48.6584 21.3843 48.8391C27.2741 98.2336 51.4835 131.007 58.7825 139.859C58.8909 139.968 59.0355 140.04 59.18 140.04L59.2161 140.076ZM92.4951 92.1631C91.2304 102.461 88.8456 111.314 85.3407 118.396C82.3416 124.467 78.5476 129.345 74.0309 132.849C68.2495 137.33 62.5404 138.595 59.4691 138.956C52.0617 129.887 28.5026 97.6916 22.5767 49.3088C26.696 49.0197 31.4656 46.5626 33.3084 40.4922C37.8612 40.9619 46.3165 42.4796 54.7717 47.3576C66.0454 53.8616 77.3913 66.1831 80.7878 70.0494C81.4744 77.9988 86.1717 86.8515 92.5312 92.1631H92.4951Z" fill="white"/>
<path d="M62.5913 121.6L30.9091 139.895" stroke="#FF5A00" stroke-dasharray="1.66 1.66"/>
<path d="M61.7631 119.613C60.6243 118.899 59.6924 119.484 59.6924 120.91C59.6924 122.336 60.6243 124.088 61.7631 124.802C62.9019 125.516 63.8338 124.931 63.8338 123.505C63.8338 122.079 62.9019 120.327 61.7631 119.613Z" fill="#FF5A00"/>
<path d="M57.5061 89.9255C57.5061 89.9255 57.4415 89.9255 57.42 89.9147C57.3339 89.8932 57.2586 89.8287 57.2155 89.7533L55.3756 86.5469C54.8376 86.5469 54.2673 86.4931 53.6863 86.3747V89.0217C53.6755 89.14 53.6002 89.2584 53.5034 89.3122C53.3958 89.3767 53.2667 89.3767 53.1591 89.3122L47.4025 85.9658C47.2949 85.9013 47.2303 85.7937 47.2303 85.6646V82.6087C46.5847 81.9739 45.9499 81.2853 45.3473 80.5428L43.6688 81.4897C43.5074 81.5866 43.2922 81.522 43.2061 81.3606L39.1604 74.2913C39.1174 74.216 39.1066 74.1192 39.1281 74.0331C39.1496 73.947 39.2142 73.8717 39.2895 73.8286L41.0864 72.8065C40.7959 71.9457 40.5699 71.0849 40.3978 70.2456L37.7078 68.6854C37.6002 68.6316 37.5356 68.5132 37.5356 68.3949L37.5894 61.756C37.5894 61.6377 37.654 61.5193 37.7616 61.4655C37.8692 61.4009 37.9983 61.4009 38.1059 61.4655L40.7421 63.0042C40.9358 62.5307 41.1617 62.0896 41.4307 61.6915L39.4832 58.2806C39.4402 58.2052 39.4294 58.1084 39.4509 58.0223C39.4724 57.9362 39.537 57.8609 39.6123 57.8179L43.7226 55.4937C43.884 55.3969 44.0884 55.4615 44.1853 55.6229L46.2297 59.2167C46.7031 59.2167 47.1981 59.2812 47.7038 59.3888L47.736 56.3868C47.736 56.2685 47.8006 56.1501 47.9082 56.0963C48.0158 56.0317 48.1449 56.0425 48.2525 56.0963L54.0091 59.4749C54.1167 59.5395 54.1812 59.6471 54.1812 59.7762L54.149 63.1333C54.7515 63.7036 55.3326 64.3276 55.8813 64.984L57.7428 63.951C57.9042 63.865 58.1086 63.9188 58.2055 64.0802L62.2297 71.1602C62.2727 71.2355 62.2835 71.3323 62.2619 71.4184C62.2404 71.5045 62.1759 71.5798 62.1005 71.6229L60.2391 72.6558C60.5188 73.4521 60.7448 74.2483 60.9277 75.0338L63.6285 76.5939C63.7361 76.6585 63.8006 76.7661 63.8006 76.8952L63.7791 83.5556C63.7791 83.674 63.7145 83.7923 63.6069 83.8461C63.4993 83.9107 63.3702 83.9107 63.2626 83.8461L60.7878 82.4258C60.5942 82.9638 60.3574 83.4588 60.0777 83.8999L61.8853 87.0526C61.9822 87.214 61.9176 87.4292 61.7562 87.5153L57.6675 89.8609C57.6675 89.8609 57.5599 89.904 57.4953 89.904L57.5061 89.9255ZM52.9546 79.7896C52.2014 79.7896 51.3729 79.5422 50.5229 79.0472C47.6285 77.3794 45.2828 73.3014 45.2935 69.9551C45.2935 68.255 45.8961 66.9853 46.9613 66.372C48.0373 65.7587 49.4254 65.8771 50.8887 66.7271C53.7831 68.3949 56.1288 72.4729 56.118 75.8192C56.118 77.5193 55.5155 78.789 54.4502 79.413C53.9983 79.6713 53.4926 79.8004 52.9546 79.8004V79.7896ZM48.457 66.6625C48.0266 66.6625 47.6392 66.7594 47.3057 66.9531C46.4556 67.448 45.9822 68.5132 45.9714 69.9551C45.9714 73.0862 48.1557 76.8952 50.8564 78.4554C52.1046 79.1763 53.2559 79.2947 54.1059 78.8105C54.956 78.3155 55.4294 77.2503 55.4402 75.8085C55.4402 72.6773 53.2559 68.8683 50.5551 67.3081C49.8127 66.8777 49.0918 66.6625 48.457 66.6625Z" fill="white"/>
<path d="M59.6796 72.2039C59.5289 72.29 59.4751 72.4621 59.5289 72.6235C59.8517 73.5274 60.1207 74.442 60.3144 75.335C60.3359 75.4319 60.3897 75.518 60.4758 75.561L63.1335 77.0997L63.112 82.9746L60.7878 81.6296C60.691 81.5758 60.5834 81.565 60.4866 81.6081C60.3897 81.6404 60.3144 81.7264 60.2821 81.8233C60.0669 82.5227 59.7764 83.1575 59.4106 83.6955C59.3352 83.8031 59.3352 83.943 59.3998 84.0613L61.1429 87.1064L57.6459 89.1185L55.8706 86.0304C55.806 85.9228 55.6876 85.8582 55.5693 85.8582H55.6123C55.6016 85.8582 55.5908 85.8582 55.5908 85.8582C54.9237 85.8905 54.2028 85.8044 53.4711 85.6108C53.3742 85.5785 53.2666 85.6 53.1806 85.6646C53.0945 85.7291 53.0407 85.826 53.0299 85.9336V88.4191L47.962 85.4709V82.4689C47.962 82.372 47.919 82.2859 47.8544 82.2214C47.112 81.522 46.4018 80.7473 45.7347 79.8972C45.6271 79.7681 45.4442 79.7251 45.2935 79.8112L43.658 80.7365L39.9566 74.259L41.6997 73.2691C41.8504 73.1831 41.9042 73.0109 41.8504 72.8603C41.5061 71.8811 41.2478 70.9127 41.0649 69.9658C41.0434 69.869 40.9896 69.7937 40.9035 69.7399L38.2566 68.1904L38.2996 62.3371L40.7851 63.7896C40.8712 63.8327 40.9788 63.8434 41.0757 63.8112C41.1725 63.7789 41.2478 63.7036 41.2801 63.6067C41.5061 62.9719 41.7966 62.4016 42.1517 61.9067C42.227 61.7991 42.2377 61.6592 42.1732 61.5408L40.2902 58.2375L43.8087 56.2577L45.7885 59.7224C45.8531 59.83 45.9714 59.8946 46.0898 59.8946C46.7031 59.8838 47.3379 59.9699 48.005 60.142C48.1019 60.1743 48.2095 60.1528 48.2956 60.0882C48.3816 60.0237 48.4354 59.9268 48.4354 59.8192L48.4677 56.9786L53.5464 59.9591L53.5141 63.2732C53.5141 63.3592 53.5572 63.4561 53.6217 63.5206C54.3104 64.1662 54.9667 64.8764 55.58 65.6296C55.6876 65.7587 55.8706 65.791 56.0104 65.7157L57.8181 64.7042M57.5061 89.9255C57.5061 89.9255 57.4415 89.9255 57.42 89.9147C57.3339 89.8932 57.2586 89.8287 57.2155 89.7533L55.3756 86.5469C54.8376 86.5469 54.2673 86.4931 53.6863 86.3747V89.0217C53.6755 89.14 53.6002 89.2584 53.5034 89.3122C53.3958 89.3767 53.2666 89.3767 53.1591 89.3122L47.4025 85.9658C47.2949 85.9013 47.2303 85.7937 47.2303 85.6646V82.6087C46.5847 81.9739 45.9499 81.2853 45.3473 80.5428L43.6688 81.4897C43.5074 81.5866 43.2922 81.522 43.2061 81.3606L39.1604 74.2913C39.1174 74.216 39.1066 74.1192 39.1281 74.0331C39.1496 73.947 39.2142 73.8717 39.2895 73.8286L41.0864 72.8065C40.7959 71.9457 40.5699 71.0849 40.3978 70.2456L37.7078 68.6854C37.6002 68.6316 37.5356 68.5132 37.5356 68.3949L37.5894 61.756C37.5894 61.6377 37.654 61.5193 37.7616 61.4655C37.8692 61.4009 37.9983 61.4009 38.1059 61.4655L40.7421 63.0042C40.9358 62.5307 41.1617 62.0896 41.4307 61.6915L39.4832 58.2806C39.4402 58.2052 39.4294 58.1084 39.4509 58.0223C39.4724 57.9362 39.537 57.8609 39.6123 57.8179L43.7226 55.4937C43.884 55.3969 44.0884 55.4615 44.1853 55.6229L46.2297 59.2167C46.7031 59.2167 47.1981 59.2812 47.7038 59.3888L47.736 56.3868C47.736 56.2685 47.8006 56.1501 47.9082 56.0963C48.0158 56.0317 48.1449 56.0425 48.2525 56.0963L54.0091 59.4749C54.1167 59.5395 54.1812 59.6471 54.1812 59.7762L54.149 63.1333C54.7515 63.7036 55.3326 64.3276 55.8813 64.984L57.7428 63.951C57.9042 63.865 58.1086 63.9188 58.2055 64.0802L62.2297 71.1602C62.2727 71.2355 62.2835 71.3323 62.2619 71.4184C62.2404 71.5045 62.1759 71.5798 62.1005 71.6229L60.2391 72.6558C60.5188 73.4521 60.7448 74.2483 60.9277 75.0338L63.6285 76.5939C63.7361 76.6585 63.8006 76.7661 63.8006 76.8952L63.7791 83.5556C63.7791 83.674 63.7145 83.7923 63.6069 83.8461C63.4993 83.9107 63.3702 83.9107 63.2626 83.8461L60.7878 82.4258C60.5942 82.9638 60.3574 83.4588 60.0777 83.8999L61.8853 87.0526C61.9822 87.214 61.9176 87.4292 61.7562 87.5153L57.6675 89.8609C57.6675 89.8609 57.5599 89.904 57.4953 89.904L57.5061 89.9255ZM52.9546 79.7896C52.2014 79.7896 51.3729 79.5422 50.5229 79.0472C47.6285 77.3794 45.2828 73.3014 45.2935 69.9551C45.2935 68.255 45.8961 66.9853 46.9613 66.372C48.0373 65.7587 49.4254 65.8771 50.8887 66.7271C53.7831 68.3949 56.1288 72.4729 56.118 75.8192C56.118 77.5193 55.5155 78.789 54.4502 79.413C53.9983 79.6713 53.4926 79.8004 52.9546 79.8004V79.7896ZM48.457 66.6625C48.0266 66.6625 47.6392 66.7594 47.3057 66.9531C46.4556 67.448 45.9822 68.5132 45.9714 69.9551C45.9714 73.0862 48.1557 76.8952 50.8564 78.4554C52.1046 79.1763 53.2559 79.2947 54.1059 78.8105C54.956 78.3155 55.4294 77.2503 55.4402 75.8085C55.4402 72.6773 53.2559 68.8683 50.5551 67.3081C49.8127 66.8777 49.0918 66.6625 48.457 66.6625Z" stroke="white" stroke-width="0.269027"/>
<path d="M55.7306 109.207C55.6123 109.207 55.4939 109.142 55.4294 109.035L54.504 107.421C54.2888 107.421 54.0844 107.399 53.8584 107.356V108.572C53.8584 108.691 53.7831 108.809 53.6755 108.863C53.5679 108.927 53.4388 108.927 53.3312 108.863L50.2754 107.087C50.1678 107.023 50.1032 106.915 50.1032 106.786V105.237C49.8019 104.935 49.5114 104.623 49.2209 104.279L48.4462 104.72C48.2848 104.817 48.0696 104.752 47.9835 104.591L45.8423 100.836C45.7992 100.76 45.7885 100.664 45.81 100.578C45.8315 100.491 45.8961 100.416 45.9714 100.373L46.8107 99.8997C46.6815 99.5015 46.5739 99.1034 46.4986 98.7161L45.1321 97.9198C45.0245 97.8553 44.96 97.7477 44.96 97.6185L44.9815 94.0893C44.9815 93.9709 45.046 93.8526 45.1536 93.7988C45.2612 93.7342 45.3904 93.7342 45.498 93.7988L46.7461 94.5197C46.8214 94.3583 46.9075 94.1969 47.0043 94.0463L46.0252 92.3139C45.9822 92.2386 45.9714 92.1418 45.9929 92.0557C46.0144 91.9696 46.079 91.8943 46.1543 91.8512L48.3386 90.6246C48.5 90.5278 48.7044 90.5923 48.8013 90.7537L49.845 92.5829C50.0171 92.5829 50.1893 92.6044 50.3722 92.6367V91.2379C50.383 91.1196 50.4475 91.0012 50.5551 90.9474C50.6627 90.8828 50.7918 90.8936 50.8994 90.9474L53.9553 92.7443C54.0629 92.8089 54.1274 92.9165 54.1274 93.0456L54.1059 94.7564C54.3749 95.0146 54.6439 95.3052 54.9021 95.6064L55.7737 95.1222C55.9351 95.0362 56.1395 95.09 56.2364 95.2514L58.3668 99.0066C58.4099 99.0819 58.4206 99.1787 58.3991 99.2648C58.3776 99.3509 58.313 99.4262 58.2377 99.4693L57.3662 99.9535C57.4845 100.319 57.5921 100.674 57.6782 101.04L59.0555 101.836C59.1631 101.901 59.2276 102.009 59.2276 102.138V105.667C59.2276 105.785 59.1523 105.904 59.0447 105.957C58.9371 106.022 58.808 106.022 58.7004 105.957L57.5491 105.301C57.4737 105.495 57.3769 105.678 57.2801 105.85L58.1947 107.442C58.2377 107.518 58.2485 107.615 58.2269 107.701C58.2054 107.787 58.1409 107.862 58.0655 107.905L55.892 109.153C55.892 109.153 55.7844 109.196 55.7199 109.196L55.7306 109.207ZM53.3097 103.827C52.8793 103.827 52.4166 103.687 51.9324 103.407C50.3507 102.493 49.0703 100.265 49.081 98.4471C49.081 97.4894 49.4253 96.7578 50.0494 96.4027C50.6735 96.0476 51.4697 96.1122 52.2982 96.5964C53.9015 97.5217 55.1604 99.706 55.1496 101.567C55.1496 102.525 54.8053 103.246 54.1812 103.612C53.923 103.762 53.6217 103.838 53.3097 103.838V103.827ZM50.921 96.8654C50.7273 96.8654 50.5444 96.9084 50.383 96.9945C49.9848 97.2204 49.7589 97.7369 49.7589 98.4471C49.7589 100.05 50.8779 102.019 52.2767 102.816C52.89 103.171 53.4388 103.235 53.8477 103.009C54.2458 102.783 54.4717 102.267 54.4717 101.557C54.4717 99.9535 53.3527 97.9844 51.9539 97.1882C51.5881 96.973 51.233 96.8654 50.921 96.8654Z" fill="white"/>
<path d="M73.8609 113.307C73.8609 113.307 73.7963 113.307 73.7748 113.296C73.6887 113.274 73.6134 113.21 73.5704 113.134L72.2684 110.864C71.9241 110.864 71.5583 110.832 71.1924 110.757V112.564C71.1924 112.683 71.1171 112.801 71.0095 112.855C70.9019 112.919 70.7728 112.919 70.6652 112.855L66.4903 110.434C66.3827 110.369 66.3182 110.262 66.3182 110.132V107.959C65.877 107.529 65.4359 107.055 65.027 106.539L63.8864 107.184C63.725 107.281 63.5098 107.217 63.4238 107.055L60.4971 101.933C60.454 101.858 60.4433 101.761 60.4648 101.675C60.4863 101.589 60.5509 101.514 60.6262 101.471L61.8636 100.771C61.6699 100.18 61.5085 99.5985 61.3901 99.0174L59.4856 97.9092C59.378 97.8446 59.3135 97.737 59.3135 97.6079L59.3458 92.7982C59.3458 92.6798 59.4103 92.5615 59.5179 92.5077C59.6255 92.4431 59.7546 92.4431 59.8622 92.5077L61.6807 93.5729C61.8098 93.2824 61.9497 93.0026 62.1111 92.7552L60.7338 90.3342C60.6907 90.2589 60.68 90.162 60.7015 90.0759C60.723 89.9899 60.7876 89.9145 60.8629 89.8715L63.8434 88.193C64.0048 88.0961 64.2092 88.1607 64.3061 88.3221L65.7587 90.8829C66.0599 90.8829 66.3612 90.926 66.6733 90.9905L66.6948 88.9246C66.6948 88.8063 66.7593 88.6879 66.8669 88.6341C66.9745 88.5696 67.1037 88.5803 67.2113 88.6341L71.3861 91.0766C71.4937 91.1412 71.5583 91.2488 71.5583 91.3779L71.5367 93.7666C71.9456 94.154 72.333 94.5736 72.7203 95.0255L74.0008 94.3154C74.1622 94.2293 74.3666 94.2831 74.4634 94.4445L77.3794 99.577C77.4224 99.6523 77.4332 99.7491 77.4117 99.8352C77.3901 99.9213 77.3256 99.9966 77.2503 100.04L75.9698 100.75C76.1528 101.288 76.3142 101.837 76.4325 102.364L78.3585 103.472C78.4661 103.537 78.5307 103.644 78.5307 103.773V108.605C78.5199 108.723 78.4554 108.841 78.3478 108.895C78.2402 108.96 78.1111 108.96 78.0035 108.895L76.3142 107.916C76.185 108.249 76.0344 108.561 75.8622 108.852L77.1427 111.09C77.1857 111.165 77.1965 111.262 77.1749 111.348C77.1534 111.434 77.0889 111.51 77.0135 111.553L74.0438 113.253C74.0438 113.253 73.9362 113.296 73.8717 113.296L73.8609 113.307ZM70.5576 105.968C69.9981 105.968 69.374 105.785 68.7499 105.42C66.6302 104.193 64.9086 101.202 64.9194 98.7484C64.9194 97.4895 65.3713 96.5319 66.1783 96.0692C66.9853 95.6065 68.029 95.6926 69.1158 96.3275C71.2355 97.5541 72.9571 100.545 72.9463 102.999C72.9463 104.258 72.4944 105.215 71.6874 105.678C71.3431 105.872 70.9665 105.968 70.5576 105.968ZM69.0835 104.828C69.955 105.334 70.7513 105.42 71.3431 105.086C71.9349 104.752 72.2577 104.01 72.2577 102.999C72.2577 100.761 70.6975 98.0383 68.7607 96.9193C67.8891 96.4135 67.0821 96.3275 66.5011 96.661C65.9093 96.9946 65.5865 97.737 65.5865 98.7484C65.5865 100.987 67.1467 103.709 69.0835 104.828Z" fill="white"/>
<ellipse cx="5.81026" cy="5.81026" rx="5.81026" ry="5.81026" transform="matrix(0.866077 0.499911 -0.000102543 1 45.7822 64.7939)" fill="#3D0F9A"/>
<ellipse cx="4.30986" cy="4.30986" rx="4.30986" ry="4.30986" transform="matrix(0.866077 0.499911 -0.000102543 1 65.1499 94.3555)" fill="#3D0F9A"/>
<ellipse cx="3.42448" cy="3.42448" rx="3.42448" ry="3.42448" transform="matrix(0.866077 0.499911 -0.000102543 1 49.3394 94.9336)" fill="#3D0F9A"/>
<path d="M17.5534 110.216C18.753 109.518 20.4267 109.602 22.2679 110.634C22.2679 110.634 22.3237 110.662 22.3516 110.69L45.3659 123.969C49.104 126.117 52.1168 131.389 52.1168 135.657L52.0331 162.103C52.0331 164.223 51.2799 165.729 50.0524 166.427L39.954 172.285C41.1815 171.587 41.9347 170.081 41.9347 167.961L42.0184 141.515C42.0184 137.247 38.9777 131.975 35.2675 129.827L12.281 116.52C10.412 115.432 8.71034 115.349 7.48291 116.046L17.5813 110.188L17.5534 110.216Z" fill="#FF5A00" stroke="#3D0F9A"/>
<path d="M35.2958 129.8C39.0339 131.948 42.0467 137.22 42.0467 141.488L41.963 167.934C41.963 172.202 38.8944 173.959 35.1563 171.811L12.142 158.533C8.4039 156.385 5.39111 151.112 5.39111 146.844L5.4748 120.399C5.4748 116.13 8.54338 114.373 12.2815 116.521L35.2958 129.8Z" fill="#FF5A00" stroke="#3D0F9A"/>
<path d="M19.3111 150.247C19.3111 148.461 20.5385 147.764 22.0728 148.629C23.6071 149.521 24.8624 151.669 24.8624 153.427C24.8624 154.598 24.3324 155.296 23.5234 155.407V160.457L20.678 158.811V153.761C19.8411 152.729 19.3111 151.418 19.2832 150.247H19.3111Z" fill="white"/>
<path d="M23.5507 160.876C23.5507 160.876 23.4113 160.876 23.3555 160.82L20.4822 159.174C20.4822 159.174 20.2869 158.951 20.2869 158.811V153.902C19.4221 152.786 18.92 151.419 18.8921 150.247C18.8921 149.243 19.2547 148.462 19.8964 148.071C20.5659 147.681 21.4027 147.765 22.2675 148.267C23.9413 149.215 25.2803 151.503 25.2803 153.427C25.2803 154.599 24.7782 155.464 23.9413 155.743V160.457C23.9413 160.597 23.8855 160.736 23.746 160.82C23.6902 160.848 23.6065 160.876 23.5507 160.876ZM21.0959 158.588L23.1323 159.76V155.436C23.1323 155.213 23.2718 155.045 23.495 155.018C24.1087 154.934 24.4713 154.348 24.4713 153.455C24.4713 151.81 23.2997 149.829 21.877 149.02C21.2633 148.657 20.7053 148.601 20.3148 148.825C19.9242 149.048 19.7011 149.578 19.7011 150.275C19.7011 151.307 20.2032 152.563 20.9843 153.539C21.0401 153.623 21.068 153.706 21.068 153.79V158.588H21.0959Z" fill="white"/>
<path d="M14.9039 102.517L14.9597 114.457C14.9597 114.875 15.2387 115.293 15.7687 115.6C16.8567 116.242 18.6141 116.214 19.7021 115.6C20.2321 115.293 20.5111 114.875 20.5111 114.457L20.4553 102.545C20.4553 100.453 21.0411 98.9184 22.0454 98.3326C23.0775 97.7468 24.6955 97.9978 26.5087 99.03L29.5773 100.787C34.3755 103.549 38.4762 110.551 38.4762 116.075L38.532 128.014C38.532 128.433 38.8109 128.851 39.341 129.158C40.0384 129.548 41.0147 129.716 41.9074 129.576C42.4095 129.52 42.8838 129.353 43.2743 129.13C43.4138 129.046 43.5533 128.963 43.6649 128.851C43.9438 128.572 44.1112 128.265 44.0833 127.986L44.0275 116.075C44.0275 112.448 42.8001 108.375 40.5963 104.609C38.3925 100.843 35.4634 97.7747 32.3111 95.9893L29.2426 94.2319C27.513 93.2276 25.7834 92.6697 24.1097 92.5302C22.3243 92.3907 20.6505 92.7534 19.2278 93.5623C17.8051 94.3992 16.6614 95.6825 15.9082 97.3004C15.2108 98.8347 14.8481 100.62 14.8481 102.601L14.9039 102.517Z" fill="white" stroke="#3D0F9A"/>
<path d="M197.443 174.061C196.543 174.061 195.814 173.65 195.814 173.143C195.814 172.636 196.543 172.225 197.443 172.225C198.344 172.225 199.073 172.636 199.073 173.143C199.073 173.65 198.344 174.061 197.443 174.061Z" fill="#3D0F9A"/>
<path d="M193.726 171.958C192.826 171.958 192.096 171.547 192.096 171.039C192.096 170.532 192.826 170.121 193.726 170.121C194.626 170.121 195.355 170.532 195.355 171.039C195.355 171.547 194.626 171.958 193.726 171.958Z" fill="#3D0F9A"/>
<path d="M190.008 169.837C189.108 169.837 188.378 169.426 188.378 168.918C188.378 168.411 189.108 168 190.008 168C190.908 168 191.638 168.411 191.638 168.918C191.638 169.426 190.908 169.837 190.008 169.837Z" fill="#3D0F9A"/>
<path d="M192.978 176.599C192.078 176.599 191.348 176.188 191.348 175.681C191.348 175.174 192.078 174.763 192.978 174.763C193.878 174.763 194.608 175.174 194.608 175.681C194.608 176.188 193.878 176.599 192.978 176.599Z" fill="#3D0F9A"/>
<path d="M189.26 174.478C188.36 174.478 187.631 174.067 187.631 173.56C187.631 173.053 188.36 172.642 189.26 172.642C190.16 172.642 190.89 173.053 190.89 173.56C190.89 174.067 190.16 174.478 189.26 174.478Z" fill="#3D0F9A"/>
<path d="M185.543 172.375C184.643 172.375 183.913 171.964 183.913 171.456C183.913 170.949 184.643 170.538 185.543 170.538C186.443 170.538 187.172 170.949 187.172 171.456C187.172 171.964 186.443 172.375 185.543 172.375Z" fill="#3D0F9A"/>
<path d="M188.531 179.121C187.631 179.121 186.901 178.71 186.901 178.203C186.901 177.695 187.631 177.284 188.531 177.284C189.431 177.284 190.161 177.695 190.161 178.203C190.161 178.71 189.431 179.121 188.531 179.121Z" fill="#3D0F9A"/>
<path d="M184.813 177.017C183.913 177.017 183.183 176.606 183.183 176.099C183.183 175.592 183.913 175.181 184.813 175.181C185.713 175.181 186.442 175.592 186.442 176.099C186.442 176.606 185.713 177.017 184.813 177.017Z" fill="#3D0F9A"/>
<path d="M181.095 174.896C180.195 174.896 179.466 174.485 179.466 173.978C179.466 173.471 180.195 173.06 181.095 173.06C181.995 173.06 182.725 173.471 182.725 173.978C182.725 174.485 181.995 174.896 181.095 174.896Z" fill="#3D0F9A"/>
<path d="M184.066 181.659C183.166 181.659 182.436 181.248 182.436 180.741C182.436 180.233 183.166 179.822 184.066 179.822C184.966 179.822 185.696 180.233 185.696 180.741C185.696 181.248 184.966 181.659 184.066 181.659Z" fill="#3D0F9A"/>
<path d="M180.347 179.539C179.447 179.539 178.718 179.128 178.718 178.621C178.718 178.113 179.447 177.702 180.347 177.702C181.247 177.702 181.977 178.113 181.977 178.621C181.977 179.128 181.247 179.539 180.347 179.539Z" fill="#3D0F9A"/>
<path d="M176.63 177.434C175.73 177.434 175 177.023 175 176.516C175 176.009 175.73 175.598 176.63 175.598C177.53 175.598 178.26 176.009 178.26 176.516C178.26 177.023 177.53 177.434 176.63 177.434Z" fill="#3D0F9A"/>
<path d="M221.443 160.061C220.543 160.061 219.814 159.65 219.814 159.143C219.814 158.636 220.543 158.225 221.443 158.225C222.344 158.225 223.073 158.636 223.073 159.143C223.073 159.65 222.344 160.061 221.443 160.061Z" fill="#3D0F9A"/>
<path d="M217.726 157.958C216.826 157.958 216.096 157.547 216.096 157.039C216.096 156.532 216.826 156.121 217.726 156.121C218.626 156.121 219.355 156.532 219.355 157.039C219.355 157.547 218.626 157.958 217.726 157.958Z" fill="#3D0F9A"/>
<path d="M214.008 155.837C213.108 155.837 212.378 155.426 212.378 154.918C212.378 154.411 213.108 154 214.008 154C214.908 154 215.638 154.411 215.638 154.918C215.638 155.426 214.908 155.837 214.008 155.837Z" fill="#3D0F9A"/>
<path d="M216.978 162.599C216.078 162.599 215.348 162.188 215.348 161.681C215.348 161.174 216.078 160.763 216.978 160.763C217.878 160.763 218.608 161.174 218.608 161.681C218.608 162.188 217.878 162.599 216.978 162.599Z" fill="#3D0F9A"/>
<path d="M213.26 160.478C212.36 160.478 211.631 160.067 211.631 159.56C211.631 159.053 212.36 158.642 213.26 158.642C214.16 158.642 214.89 159.053 214.89 159.56C214.89 160.067 214.16 160.478 213.26 160.478Z" fill="#3D0F9A"/>
<path d="M209.543 158.375C208.643 158.375 207.913 157.964 207.913 157.456C207.913 156.949 208.643 156.538 209.543 156.538C210.443 156.538 211.172 156.949 211.172 157.456C211.172 157.964 210.443 158.375 209.543 158.375Z" fill="#3D0F9A"/>
<path d="M212.531 165.121C211.631 165.121 210.901 164.71 210.901 164.203C210.901 163.695 211.631 163.284 212.531 163.284C213.431 163.284 214.161 163.695 214.161 164.203C214.161 164.71 213.431 165.121 212.531 165.121Z" fill="#3D0F9A"/>
<path d="M208.813 163.017C207.913 163.017 207.183 162.606 207.183 162.099C207.183 161.592 207.913 161.181 208.813 161.181C209.713 161.181 210.442 161.592 210.442 162.099C210.442 162.606 209.713 163.017 208.813 163.017Z" fill="#3D0F9A"/>
<path d="M205.095 160.896C204.195 160.896 203.466 160.485 203.466 159.978C203.466 159.471 204.195 159.06 205.095 159.06C205.995 159.06 206.725 159.471 206.725 159.978C206.725 160.485 205.995 160.896 205.095 160.896Z" fill="#3D0F9A"/>
<path d="M208.066 167.659C207.166 167.659 206.436 167.248 206.436 166.741C206.436 166.233 207.166 165.822 208.066 165.822C208.966 165.822 209.696 166.233 209.696 166.741C209.696 167.248 208.966 167.659 208.066 167.659Z" fill="#3D0F9A"/>
<path d="M204.347 165.539C203.447 165.539 202.718 165.128 202.718 164.621C202.718 164.113 203.447 163.702 204.347 163.702C205.247 163.702 205.977 164.113 205.977 164.621C205.977 165.128 205.247 165.539 204.347 165.539Z" fill="#3D0F9A"/>
<path d="M200.63 163.434C199.73 163.434 199 163.023 199 162.516C199 162.009 199.73 161.598 200.63 161.598C201.53 161.598 202.26 162.009 202.26 162.516C202.26 163.023 201.53 163.434 200.63 163.434Z" fill="#3D0F9A"/>
</svg>
