<svg width="48" height="48" viewBox="0 0 48 48" fill="none" xmlns="http://www.w3.org/2000/svg">
<path d="M43.2935 5.04457C43.2775 4.96763 43.2399 4.89685 43.1851 4.84055C43.1303 4.78425 43.0606 4.74477 42.9841 4.72676C37.886 3.47988 26.1091 7.9227 19.7219 14.3052C18.5836 15.4342 17.5456 16.6601 16.6197 17.9689C14.651 17.7908 12.6822 17.9408 11.006 18.6721C6.27254 20.7533 4.89535 26.1889 4.51097 28.5224C4.49015 28.6502 4.49904 28.7812 4.53697 28.905C4.5749 29.0289 4.64084 29.1424 4.72968 29.2367C4.81852 29.3309 4.92788 29.4035 5.04928 29.4487C5.17068 29.4939 5.30085 29.5106 5.42972 29.4974L13.03 28.663C13.0353 29.2363 13.0697 29.8089 13.1332 30.3786C13.1728 30.7724 13.3485 31.1401 13.63 31.4183L16.5728 34.3611C16.8513 34.6428 17.2193 34.8186 17.6135 34.858C18.1798 34.9212 18.749 34.9556 19.3188 34.9611L18.4853 42.5549C18.4723 42.6836 18.4891 42.8136 18.5343 42.9348C18.5796 43.056 18.652 43.1651 18.7462 43.2538C18.8403 43.3425 18.9536 43.4084 19.0773 43.4464C19.201 43.4843 19.3317 43.4933 19.4594 43.4727C21.7938 43.0977 27.2407 41.7205 29.3097 36.988C30.041 35.3099 30.191 33.3514 30.0222 31.3921C31.335 30.4671 32.5643 29.429 33.6963 28.2899C40.1069 21.9149 44.5216 10.3968 43.2935 5.04457ZM27.9982 20.0314C27.4382 19.4716 27.0569 18.7583 26.9023 17.9818C26.7478 17.2052 26.827 16.4003 27.13 15.6688C27.4329 14.9372 27.946 14.312 28.6044 13.8721C29.2627 13.4322 30.0367 13.1974 30.8285 13.1974C31.6203 13.1974 32.3943 13.4322 33.0526 13.8721C33.7109 14.312 34.224 14.9372 34.527 15.6688C34.8299 16.4003 34.9091 17.2052 34.7546 17.9818C34.6001 18.7583 34.2187 19.4716 33.6588 20.0314C33.2874 20.4036 32.8462 20.6989 32.3606 20.9004C31.8749 21.1019 31.3543 21.2056 30.8285 21.2056C30.3027 21.2056 29.782 21.1019 29.2964 20.9004C28.8107 20.6989 28.3696 20.4036 27.9982 20.0314Z" stroke="#3D0F9A" stroke-width="2" stroke-linecap="round" stroke-linejoin="round"/>
<path d="M10.2787 33C9.34417 33.1147 8.47471 33.5384 7.80844 34.2037C6.15656 35.8612 6 42 6 42C6 42 12.1425 41.8434 13.7953 40.1897C14.4634 39.5245 14.8877 38.6536 15 37.7175" stroke="#FF5A00" stroke-width="2" stroke-linecap="round" stroke-linejoin="round"/>
</svg>
