<svg width="33" height="33" viewBox="0 0 33 33" fill="none" xmlns="http://www.w3.org/2000/svg">
<g clip-path="url(#clip0_4754_119)">
<path d="M22.0703 10.995L24.8519 8.21339L25.0373 7.04214C19.9684 2.43302 11.9108 2.95564 7.34142 8.13264C6.07217 9.57052 5.13054 11.3631 4.62842 13.2143L5.62467 13.0739L11.1878 12.1565L11.6173 11.7173C14.0919 8.99952 18.276 8.63389 21.1333 10.9463L22.0703 10.995Z" fill="#EA4335"/>
<path d="M28.8144 13.1325C28.1751 10.778 26.8624 8.66133 25.0373 7.04221L21.1333 10.9462C22.7818 12.2932 23.7209 14.3225 23.6807 16.4508V17.1438C25.5996 17.1438 27.1553 18.6995 27.1553 20.6183C27.1553 22.5373 25.5996 24.054 23.6807 24.054H16.7218L16.0386 24.7957V28.9632L16.7218 29.6171H23.6807C28.6719 29.656 32.7497 25.6803 32.7886 20.6891C32.8121 17.6637 31.3204 14.8275 28.8144 13.1325Z" fill="#4285F4"/>
<path d="M9.77277 29.6171H16.7219V24.0539H9.77277C9.27765 24.0538 8.79815 23.9474 8.3479 23.7416L7.36202 24.0441L4.56089 26.8258L4.31689 27.7725C5.88777 28.9586 7.80439 29.6256 9.77277 29.6171Z" fill="#34A853"/>
<path d="M9.77285 11.5709C4.78148 11.6006 0.759476 15.6711 0.789226 20.6624C0.805851 23.4496 2.1076 26.0734 4.31698 27.7725L8.34798 23.7416C6.5991 22.9515 5.82198 20.8934 6.6121 19.1446C7.4021 17.3959 9.46035 16.6188 11.209 17.4088C11.9796 17.7569 12.5967 18.3741 12.9449 19.1446L16.9759 15.1138C15.2607 12.8716 12.5957 11.5608 9.77285 11.5709Z" fill="#FBBC05"/>
</g>
<defs>
<clipPath id="clip0_4754_119">
<rect width="32" height="32" fill="white" transform="translate(0.789062 0.7677)"/>
</clipPath>
</defs>
</svg>
