<svg width="33" height="33" viewBox="0 0 33 33" fill="none" xmlns="http://www.w3.org/2000/svg">
<g clip-path="url(#clip0_4754_54)">
<path d="M16.1401 32.1048C24.9767 32.1048 32.1401 24.9413 32.1401 16.1048C32.1401 7.26821 24.9767 0.104767 16.1401 0.104767C7.30358 0.104767 0.140137 7.26821 0.140137 16.1048C0.140137 24.9413 7.30358 32.1048 16.1401 32.1048Z" fill="#4D7599"/>
<path d="M22.9542 21.6536C23.6369 21.3648 24.4509 21.2597 25.5012 21.2859C25.4717 21.0894 25.0964 20.856 24.8214 20.685C24.7291 20.6276 24.6481 20.5772 24.5953 20.5376C24.1752 20.2357 23.7288 19.9205 23.2824 19.6449C23.1386 19.557 22.9316 19.4837 22.7324 19.4132C22.6042 19.3678 22.4793 19.3235 22.3765 19.2773C22.2715 19.2345 22.1284 19.1917 21.974 19.1455C21.6071 19.0357 21.176 18.9067 21.0374 18.7128C20.6804 18.2487 20.4312 17.6875 20.1825 17.127C20.1567 17.0691 20.1311 17.0113 20.1052 16.9535C19.975 16.6558 19.8301 16.3522 19.6845 16.047C19.5217 15.706 19.358 15.363 19.2125 15.0235C19.1491 14.8853 19.1009 14.7546 19.0534 14.6259C18.9928 14.4614 18.9333 14.3002 18.8449 14.1308C17.8864 12.2796 16.4686 10.7304 14.7487 9.64071C14.1841 9.28621 13.554 8.95791 12.8581 8.73479C12.6456 8.67106 12.4102 8.6608 12.1724 8.65045C11.9695 8.6416 11.765 8.63269 11.5715 8.5904H11.2958C11.1366 8.54618 10.9952 8.41854 10.8638 8.2998C10.8001 8.24227 10.7387 8.18684 10.6788 8.14399C10.2717 7.86832 9.86476 7.6844 9.37898 7.48755C9.20832 7.40881 8.72254 7.22497 8.55188 7.36944C8.44678 7.39571 8.39432 7.43508 8.36804 7.5401C8.26303 7.69766 8.35503 7.93396 8.42059 8.07835C8.55073 8.35597 8.71528 8.55908 8.88389 8.76721C8.97045 8.87405 9.05808 8.98221 9.14268 9.10246C9.18309 9.15949 9.22521 9.21781 9.26804 9.27711C9.46182 9.54539 9.67008 9.83372 9.79912 10.1133C9.98121 10.5056 10.111 10.9202 10.2403 11.3334C10.3534 11.6947 10.4661 12.0548 10.6131 12.3978C10.7312 12.6735 10.9151 12.9886 11.0857 13.238C11.1393 13.311 11.209 13.3768 11.2797 13.4434C11.3996 13.5565 11.522 13.6718 11.5715 13.8288C11.6992 14.0416 11.4648 14.6509 11.3224 15.0211C11.289 15.1078 11.2607 15.1813 11.2433 15.2336C10.9019 16.3101 10.9675 17.8069 11.3614 18.739C11.3755 18.7718 11.3894 18.8052 11.4035 18.8388C11.547 19.1814 11.701 19.5492 12.0835 19.6449C12.0954 19.633 12.0965 19.6292 12.0991 19.6274C12.1022 19.6251 12.1073 19.6258 12.136 19.6186C12.1552 19.4677 12.1716 19.3179 12.1877 19.1703C12.2487 18.6114 12.3064 18.0827 12.5036 17.6362C12.5976 17.4056 12.7526 17.2195 12.9037 17.038C12.9849 16.9405 13.065 16.8444 13.1338 16.7435C13.2171 16.7934 13.2476 16.9068 13.2788 17.0233C13.2968 17.0904 13.3151 17.1585 13.3439 17.2161C13.3563 17.2456 13.3688 17.2754 13.3813 17.3053C13.5414 17.6876 13.7137 18.099 13.9084 18.4764C14.3417 19.3167 14.8275 20.1306 15.3789 20.8658C15.5626 21.1284 15.8253 21.4173 16.0616 21.6536C16.0975 21.685 16.135 21.7119 16.1719 21.7383C16.2428 21.7891 16.3117 21.8384 16.3635 21.9162H16.3898V21.9556C16.1405 21.8642 15.9491 21.6676 15.7623 21.4757C15.6539 21.3644 15.5471 21.2546 15.4313 21.1679C14.8405 20.7215 14.1316 20.0518 13.7246 19.4086C13.5964 19.1324 13.4608 18.8637 13.3233 18.5912C13.2778 18.501 13.2321 18.4104 13.1863 18.3189C13.1863 18.3189 13.1864 18.3057 13.1863 18.2926C13.1362 18.3595 13.1286 18.4264 13.1196 18.5069C13.1144 18.5528 13.1087 18.603 13.0944 18.6602C13.0458 18.8474 13.0216 19.0421 12.9983 19.2302C12.9399 19.7018 12.8866 20.1324 12.4643 20.3013C11.7947 20.5771 11.2958 19.8548 11.0857 19.5267C10.4162 18.437 10.2324 16.599 10.705 15.1154C10.7415 15.0013 10.767 14.8791 10.7923 14.7573C10.8399 14.5291 10.8872 14.302 11.007 14.1308C10.9806 13.973 10.89 13.8913 10.8014 13.8114C10.7573 13.7716 10.7137 13.7323 10.6788 13.6844C10.4949 13.435 10.3375 13.1461 10.193 12.8705C9.98307 12.4606 9.81888 11.9899 9.65976 11.5338C9.60985 11.3907 9.56044 11.249 9.51027 11.1112C9.46546 10.9959 9.43627 10.8807 9.40746 10.767C9.37719 10.6475 9.34735 10.5296 9.30024 10.4153C9.17613 10.1464 8.97062 9.87757 8.77983 9.62796C8.72839 9.56068 8.67803 9.49479 8.63062 9.43068C8.57948 9.35728 8.51176 9.27221 8.43627 9.17738C8.06609 8.71235 7.50908 8.01262 7.80353 7.3038C8.35495 5.95154 10.285 6.97549 11.0332 7.44818C11.108 7.49628 11.1872 7.56612 11.2689 7.63823C11.388 7.74329 11.5126 7.85318 11.6372 7.90769C11.8013 7.91428 11.9655 7.92413 12.1296 7.93397C12.2937 7.94381 12.4578 7.95365 12.6218 7.96024C12.6756 7.97281 12.729 7.98519 12.7821 7.99749C13.3388 8.12641 13.8588 8.24683 14.3023 8.49849C16.5605 9.82455 18.0309 11.1768 19.3832 13.4087C19.5667 13.7091 19.692 14.0254 19.8196 14.3475C19.8927 14.5322 19.9666 14.7188 20.0527 14.9054C20.3809 15.6669 20.7487 16.4676 21.1293 17.1898C21.1771 17.2855 21.2219 17.3843 21.2667 17.4833C21.3818 17.7375 21.4975 17.9929 21.6676 18.2007C21.7287 18.2881 21.8655 18.3347 21.9966 18.3794C22.0625 18.4019 22.1269 18.4238 22.1796 18.4502C22.3494 18.5377 22.5333 18.6171 22.7187 18.6971C23.0063 18.8213 23.2975 18.947 23.545 19.1066C24.3065 19.5792 25.0417 20.1437 25.7113 20.7215C25.8466 20.8426 25.9588 20.9907 26.0708 21.1386C26.1653 21.2634 26.2596 21.388 26.3677 21.4961V21.6142C26.1577 21.6799 25.9476 21.7455 25.7375 21.798C25.509 21.8568 25.2935 21.8798 25.0796 21.9027C24.8635 21.9258 24.649 21.9487 24.4247 22.0081C24.3964 22.0162 24.3674 22.0245 24.3378 22.033C24.0794 22.1076 23.7779 22.1946 23.5187 22.2182C23.5318 22.2313 23.545 22.2444 23.545 22.2444C23.6716 22.6046 24.2096 22.9143 24.6506 23.1681C24.8043 23.2565 24.9462 23.3382 25.0548 23.4129C25.5669 23.7805 26.0395 24.2269 26.4203 24.7389C26.4857 24.8043 26.5512 24.8665 26.6166 24.9287C26.6825 24.9912 26.7483 25.0538 26.8141 25.1196C26.8586 25.1832 26.8877 25.256 26.9163 25.3276C26.9468 25.4039 26.9767 25.4788 27.0241 25.5398V25.5791C26.9093 25.5381 26.8303 25.4561 26.752 25.3747C26.705 25.3258 26.6582 25.2772 26.604 25.2378C26.4803 25.1535 26.3567 25.062 26.2331 24.9704C26.0679 24.8481 25.9028 24.7258 25.7375 24.6207C25.4835 24.4603 25.209 24.3339 24.9332 24.2068C24.6673 24.0844 24.4002 23.9614 24.1489 23.8067C23.8601 23.6229 23.5844 23.4129 23.3087 23.2028C23.0592 23.019 22.7836 22.6644 22.626 22.4019C22.5863 22.3395 22.5613 22.2722 22.5372 22.2074C22.5056 22.1223 22.4755 22.0415 22.4159 21.9818C22.4355 21.7953 22.6167 21.7482 22.7892 21.7034C22.8474 21.6883 22.9045 21.6734 22.9542 21.6536Z" fill="white"/>
<path d="M11.5714 9.94265C11.729 9.90328 11.8865 9.87693 12.1097 9.87693C12.1513 9.91857 12.2032 9.954 12.2557 9.98979C12.3356 10.0443 12.4166 10.0996 12.4642 10.179C12.4934 10.2198 12.5121 10.2606 12.5309 10.3015C12.5544 10.3526 12.578 10.4036 12.6218 10.4547C12.6218 10.7698 12.5299 10.9798 12.346 11.1112C12.346 11.1112 12.3329 11.1242 12.3198 11.1374C12.2673 11.0325 12.2182 10.9276 12.169 10.8227C12.1197 10.7175 12.0704 10.6123 12.0178 10.5072C11.9667 10.4356 11.9076 10.37 11.8483 10.3042C11.7554 10.201 11.6619 10.0972 11.5977 9.96893H11.5714V9.94265Z" fill="white"/>
</g>
<defs>
<clipPath id="clip0_4754_54">
<rect width="32" height="32" fill="white" transform="translate(0.140137 0.104767)"/>
</clipPath>
</defs>
</svg>
