<svg width="32" height="33" viewBox="0 0 32 33" fill="none" xmlns="http://www.w3.org/2000/svg">
<path d="M14.9521 0.113378C14.8833 0.119633 14.6643 0.141527 14.4673 0.157164C9.92219 0.566879 5.66491 3.01891 2.96852 6.78767C1.46706 8.88315 0.506745 11.2601 0.143891 13.7778C0.0156403 14.6567 0 14.9163 0 16.1079C0 17.2995 0.0156403 17.5591 0.143891 18.438C1.01349 24.4461 5.28954 29.494 11.089 31.3643C12.1275 31.699 13.2223 31.9273 14.4673 32.0649C14.9521 32.1181 17.0479 32.1181 17.5327 32.0649C19.6817 31.8272 21.5022 31.2955 23.2978 30.3791C23.573 30.2384 23.6262 30.2008 23.5887 30.1696C23.5636 30.1508 22.3906 28.5776 20.983 26.676L18.4242 23.2201L15.218 18.4755C13.4538 15.8671 12.0023 13.7341 11.9898 13.7341C11.9773 13.7309 11.9648 15.8389 11.9586 18.4129C11.9492 22.9198 11.946 23.1012 11.8897 23.2075C11.8084 23.3608 11.7458 23.4233 11.6145 23.4922C11.5144 23.5422 11.4268 23.5516 10.9544 23.5516H10.4133L10.2694 23.4609C10.1756 23.4015 10.1067 23.3233 10.0598 23.2326L9.99413 23.0918L10.0004 16.821L10.0098 10.547L10.1067 10.4251C10.1568 10.3594 10.2631 10.2749 10.3382 10.2343C10.4665 10.1717 10.5165 10.1655 11.0577 10.1655C11.6958 10.1655 11.8022 10.1905 11.9679 10.3719C12.0149 10.4219 13.7509 13.0366 15.828 16.1861C17.905 19.3356 20.7453 23.636 22.1404 25.7471L24.6741 29.5847L24.8023 29.5003C25.9378 28.7621 27.139 27.7113 28.0899 26.6166C30.1138 24.2928 31.4182 21.4592 31.8561 18.438C31.9844 17.5591 32 17.2995 32 16.1079C32 14.9163 31.9844 14.6567 31.8561 13.7778C30.9865 7.76973 26.7105 2.72179 20.911 0.851491C19.8882 0.519966 18.7996 0.291651 17.5797 0.154037C17.2794 0.122761 15.2117 0.0883574 14.9521 0.113378ZM21.5022 9.79016C21.6524 9.86522 21.7744 10.0091 21.8182 10.1592C21.8432 10.2405 21.8495 11.9795 21.8432 15.8984L21.8338 21.5218L20.8422 20.0018L19.8475 18.4817V14.394C19.8475 11.7512 19.86 10.2656 19.8788 10.1936C19.9288 10.0185 20.0383 9.88086 20.1885 9.79954C20.3167 9.73386 20.3636 9.72761 20.8547 9.72761C21.3177 9.72761 21.399 9.73386 21.5022 9.79016Z" fill="black"/>
</svg>
