<svg width="68" height="68" viewBox="0 0 68 68" fill="none" xmlns="http://www.w3.org/2000/svg">
<path d="M29.1637 2.30811C31.7588 -0.540203 36.2411 -0.540202 38.8362 2.30811V2.30811C40.5577 4.1976 43.222 4.91149 45.6576 4.1359V4.1359C49.3292 2.96673 53.2109 5.20788 54.0342 8.97213V8.97213C54.5803 11.4692 56.5307 13.4196 59.0278 13.9657V13.9657C62.792 14.789 65.0332 18.6708 63.864 22.3423V22.3423C63.0884 24.778 63.8023 27.4422 65.6918 29.1637V29.1637C68.5401 31.7588 68.5401 36.2411 65.6918 38.8362V38.8362C63.8023 40.5577 63.0884 43.222 63.864 45.6576V45.6576C65.0332 49.3292 62.792 53.2109 59.0278 54.0342V54.0342C56.5307 54.5803 54.5803 56.5307 54.0342 59.0278V59.0278C53.2109 62.792 49.3292 65.0332 45.6576 63.864V63.864C43.222 63.0884 40.5577 63.8023 38.8362 65.6918V65.6918C36.2411 68.5401 31.7588 68.5401 29.1637 65.6918V65.6918C27.4422 63.8023 24.778 63.0884 22.3423 63.864V63.864C18.6708 65.0332 14.789 62.792 13.9657 59.0278V59.0278C13.4196 56.5307 11.4692 54.5803 8.97213 54.0342V54.0342C5.20788 53.2109 2.96673 49.3292 4.1359 45.6576V45.6576C4.91149 43.222 4.1976 40.5577 2.30811 38.8362V38.8362C-0.540202 36.2411 -0.540203 31.7588 2.30811 29.1637V29.1637C4.1976 27.4422 4.91149 24.778 4.1359 22.3423V22.3423C2.96673 18.6708 5.20788 14.789 8.97213 13.9657V13.9657C11.4692 13.4196 13.4196 11.4692 13.9657 8.97213V8.97213C14.789 5.20787 18.6708 2.96673 22.3423 4.1359V4.1359C24.778 4.91149 27.4422 4.1976 29.1637 2.30811V2.30811Z" fill="white"/>
<path d="M29.1638 2.30811C31.7589 -0.540203 36.2406 -0.540202 38.8357 2.30811C40.5571 4.19745 43.2215 4.91068 45.657 4.13526C49.3284 2.96614 53.2105 5.20723 54.0339 8.97119C54.5801 11.4683 56.531 13.4192 59.0281 13.9653C62.792 14.7888 65.0331 18.6709 63.864 22.3423L63.7957 22.5708C63.1341 24.943 63.8608 27.4958 65.6912 29.1636C68.5395 31.7587 68.5395 36.2404 65.6912 38.8355C63.8018 40.5569 63.0886 43.2212 63.864 45.6567C65.0331 49.3282 62.792 53.2102 59.0281 54.0337L58.7947 54.0894C56.4098 54.7028 54.563 56.6089 54.0339 59.0278L53.948 59.3755C53 62.8138 49.4533 64.8616 46.0017 63.9634L45.657 63.8638C43.2215 63.0884 40.5571 63.8016 38.8357 65.6909C36.3216 68.4503 32.0365 68.5369 29.4119 65.9497L29.1638 65.6909C27.4424 63.8016 24.778 63.0884 22.3425 63.8638L21.9978 63.9634C18.5462 64.8616 14.9995 62.8138 14.0515 59.3755L13.9656 59.0278C13.4194 56.5307 11.4685 54.5798 8.97143 54.0337C5.20747 53.2102 2.96638 49.3282 4.13549 45.6567C4.88675 43.2972 4.24037 40.7231 2.4812 38.9995L2.30835 38.8355C-0.451079 36.3213 -0.537646 32.0363 2.04956 29.4116L2.30835 29.1636C4.13875 27.4958 4.86536 24.943 4.20385 22.5708L4.13549 22.3423C3.00284 18.7854 5.07102 15.0308 8.62378 14.0513L8.97143 13.9653C11.3903 13.4363 13.2965 11.5895 13.9099 9.20459L13.9656 8.97119C14.7891 5.20723 18.6711 2.96614 22.3425 4.13526C24.7021 4.88651 27.2761 4.24014 28.9998 2.48096L29.1638 2.30811ZM37.3572 3.65479C35.5554 1.67734 32.4441 1.67734 30.6423 3.65479C28.3946 6.12189 24.9153 7.05419 21.7351 6.04151C19.186 5.2298 16.4913 6.78548 15.9197 9.39893C15.2066 12.6594 12.6596 15.2064 9.39917 15.9194C6.78571 16.4911 5.23004 19.1857 6.04175 21.7349C7.05443 24.915 6.12213 28.3943 3.65503 30.6421C1.67758 32.4439 1.67758 35.5552 3.65503 37.3569C6.12213 39.6047 7.05443 43.084 6.04175 46.2642C5.23004 48.8133 6.78571 51.5079 9.39917 52.0796C12.6596 52.7927 15.2066 55.3396 15.9197 58.6001C16.4913 61.2136 19.186 62.7692 21.7351 61.9575C24.9153 60.9448 28.3946 61.8771 30.6423 64.3442C32.4441 66.3217 35.5554 66.3217 37.3572 64.3442C39.6049 61.8771 43.0842 60.9448 46.2644 61.9575C48.8135 62.7692 51.5082 61.2136 52.0798 58.6001C52.7929 55.3396 55.3399 52.7927 58.6003 52.0796C61.2138 51.5079 62.7695 48.8133 61.9578 46.2642C60.9451 43.084 61.8774 39.6047 64.3445 37.3569C66.3219 35.5552 66.3219 32.4439 64.3445 30.6421C61.8774 28.3943 60.9451 24.915 61.9578 21.7349C62.7695 19.1857 61.2138 16.4911 58.6003 15.9194C55.3399 15.2064 52.7929 12.6594 52.0798 9.39893C51.5082 6.78548 48.8135 5.2298 46.2644 6.04151C43.0842 7.05419 39.6049 6.12189 37.3572 3.65479Z" fill="#3D0F9A"/>
<path d="M46.298 31.5388L41.5737 23.3561C41.0406 22.4327 41.2454 21.6934 42.2171 21.1324L47.0672 18.3322C47.6133 18.0169 48.1913 18.165 48.4973 18.695C48.8032 19.225 48.6379 19.7916 48.0918 20.1068L43.9483 22.4991L45.571 25.3096L49.4896 23.0472C50.0035 22.7505 50.5389 22.8803 50.831 23.3862C51.1231 23.8921 50.9632 24.4127 50.4493 24.7094L46.5306 26.9718L48.2275 29.9108L52.3469 27.5325C52.917 27.2033 53.4904 27.3434 53.801 27.8814C54.1116 28.4194 53.9416 28.978 53.3715 29.3071L48.5454 32.0935C47.5738 32.6544 46.8357 32.4703 46.298 31.5388Z" fill="#3D0F9A"/>
<path d="M37.2389 36.7684L32.5147 28.5857C31.9815 27.6623 32.1864 26.923 33.158 26.362L38.0082 23.5618C38.5542 23.2465 39.1322 23.3946 39.4382 23.9246C39.7442 24.4546 39.5788 25.0212 39.0328 25.3364L34.8893 27.7287L36.5119 30.5392L40.4306 28.2768C40.9445 27.98 41.4799 28.1099 41.772 28.6158C42.064 29.1217 41.9042 29.6423 41.3903 29.939L37.4716 32.2014L39.1684 35.1404L43.2878 32.7621C43.858 32.4329 44.4314 32.573 44.742 33.111C45.0526 33.649 44.8826 34.2076 44.3124 34.5367L39.4864 37.323C38.5147 37.884 37.7767 37.6998 37.2389 36.7684Z" fill="#3D0F9A"/>
<path d="M29.4439 41.6645C29.8705 42.4033 29.7273 43.0641 29.0448 43.4582C28.3542 43.8569 27.7023 43.6551 27.2758 42.9163L22.533 34.7015C21.8747 33.5613 22.0758 32.7599 23.2161 32.1016L26.0186 30.4836C28.3634 29.1298 30.5586 29.5755 31.7547 31.6472C32.5568 33.0364 32.4819 34.5572 31.558 35.7758L34.8309 37.7728C35.0765 37.92 35.3064 38.1513 35.4409 38.3842C35.7793 38.9704 35.5627 39.6522 34.9444 40.0092C34.3743 40.3384 33.93 40.2736 33.1607 39.7756L29.7107 37.5276L27.7193 38.6774L29.4439 41.6645ZM26.7828 37.0553L28.7421 35.9241C29.9707 35.2147 30.325 34.1965 29.6759 33.0723C29.0315 31.9561 27.9506 31.7343 26.7541 32.4251L24.7707 33.5702L26.7828 37.0553Z" fill="#3D0F9A"/>
<path d="M20.4759 48.4049C19.7853 48.8036 19.1255 48.6065 18.6989 47.8677L13.8032 39.388C13.27 38.4645 13.4749 37.7252 14.4465 37.1643L19.2083 34.415C19.7544 34.0998 20.345 34.2512 20.651 34.7812C20.9617 35.3192 20.7882 35.8905 20.2422 36.2057L16.2031 38.5377L17.9694 41.5972L21.599 39.5016C22.1611 39.1771 22.7218 39.3138 23.0278 39.8437C23.3338 40.3737 23.1638 40.9323 22.6097 41.2522L18.9801 43.3477L20.867 46.6159C21.2982 47.3627 21.1585 48.0109 20.4759 48.4049Z" fill="#3D0F9A"/>
<path d="M33.9985 12C37.166 12 40.18 12.6699 42.9037 13.877C43.4086 14.1007 43.6362 14.6914 43.4125 15.1963C43.1888 15.7012 42.5981 15.9298 42.0932 15.7061C39.6197 14.6099 36.8816 14 33.9985 14C23.9238 14.0001 15.5878 21.4504 14.2016 31.1416C14.1234 31.6883 13.6165 32.0684 13.0698 31.9902C12.5231 31.912 12.143 31.4051 12.2211 30.8584C13.7463 20.196 22.9145 12.0001 33.9985 12Z" fill="#FF5A00"/>
<path d="M33.7125 55C30.5449 55 27.5309 54.3301 24.8072 53.123C24.3023 52.8993 24.0747 52.3086 24.2984 51.8037C24.5222 51.2988 25.1128 51.0702 25.6177 51.2939C28.0912 52.3901 30.8293 53 33.7125 53C43.7871 52.9999 52.1231 45.5496 53.5093 35.8584C53.5875 35.3117 54.0945 34.9316 54.6412 35.0098C55.1879 35.088 55.568 35.5949 55.4898 36.1416C53.9647 46.804 44.7964 54.9999 33.7125 55Z" fill="#FF5A00"/>
</svg>
