<svg width="75" height="74" viewBox="0 0 75 74" fill="none" xmlns="http://www.w3.org/2000/svg">
<g clip-path="url(#clip0_4860_1775)">
<path d="M32.6638 5.30814C35.2589 2.45983 39.7411 2.45983 42.3362 5.30815C44.0577 7.19764 46.722 7.91153 49.1576 7.13593C52.8292 5.96677 56.711 8.20791 57.5342 11.9722C58.0804 14.4693 60.0307 16.4196 62.5278 16.9658C66.2921 17.789 68.5332 21.6708 67.3641 25.3424C66.5885 27.778 67.3024 30.4423 69.1919 32.1638C72.0402 34.7589 72.0402 39.2411 69.1919 41.8362C67.3024 43.5577 66.5885 46.222 67.3641 48.6576C68.5332 52.3292 66.2921 56.211 62.5278 57.0342C60.0307 57.5804 58.0804 59.5307 57.5342 62.0278C56.711 65.7921 52.8292 68.0332 49.1576 66.8641C46.722 66.0885 44.0577 66.8024 42.3362 68.6919C39.7411 71.5402 35.2589 71.5402 32.6638 68.6919C30.9423 66.8024 28.278 66.0885 25.8424 66.8641C22.1708 68.0332 18.289 65.7921 17.4658 62.0278C16.9196 59.5307 14.9693 57.5804 12.4722 57.0342C8.70791 56.211 6.46677 52.3292 7.63593 48.6576C8.41153 46.222 7.69764 43.5577 5.80815 41.8362C2.95983 39.2411 2.95983 34.7589 5.80814 32.1638C7.69764 30.4423 8.41153 27.778 7.63593 25.3424C6.46677 21.6708 8.70791 17.789 12.4722 16.9658C14.9693 16.4196 16.9196 14.4693 17.4658 11.9722C18.289 8.20791 22.1708 5.96677 25.8424 7.13593C28.278 7.91153 30.9423 7.19764 32.6638 5.30814Z" fill="url(#paint0_linear_4860_1775)"/>
<path d="M49.6771 38.9696L48.0364 29.6647C47.8512 28.6146 48.2966 27.99 49.4015 27.7951L54.9169 26.8226C55.5378 26.7131 56.0303 27.05 56.1366 27.6527C56.2428 28.2553 55.8936 28.7312 55.2727 28.8407L50.5609 29.6715L51.1244 32.8675L55.5806 32.0818C56.165 31.9787 56.6236 32.2839 56.7251 32.8592C56.8265 33.4344 56.4983 33.8689 55.9139 33.972L51.4577 34.7577L52.047 38.0998L56.7314 37.2738C57.3798 37.1595 57.8707 37.4872 57.9785 38.099C58.0864 38.7108 57.7356 39.1776 57.0873 39.2919L51.5993 40.2596C50.4944 40.4544 49.8638 40.0289 49.6771 38.9696Z" fill="white"/>
<path d="M39.3763 40.7851L37.7356 31.4801C37.5504 30.43 37.9958 29.8054 39.1007 29.6106L44.6161 28.6381C45.237 28.5286 45.7295 28.8654 45.8358 29.4681C45.9421 30.0708 45.5929 30.5466 44.9719 30.6561L40.2601 31.4869L40.8236 34.6829L45.2798 33.8972C45.8642 33.7941 46.3229 34.0993 46.4243 34.6746C46.5257 35.2499 46.1975 35.6844 45.6131 35.7874L41.1569 36.5731L41.7462 39.9152L46.4307 39.0893C47.079 38.9749 47.5699 39.3027 47.6778 39.9145C47.7856 40.5263 47.4348 40.993 46.7865 41.1073L41.2985 42.075C40.1936 42.2698 39.5631 41.8443 39.3763 40.7851Z" fill="white"/>
<path d="M30.3779 42.7199C30.5261 43.56 30.1656 44.132 29.3894 44.2689C28.6041 44.4074 28.0606 43.9948 27.9124 43.1547L26.2653 33.8132C26.0366 32.5165 26.4997 31.8323 27.7964 31.6037L30.9833 31.0417C33.6497 30.5716 35.5601 31.7412 35.9755 34.0971C36.254 35.6768 35.6635 37.0803 34.3786 37.9094L36.7711 40.9053C36.9515 41.1277 37.0885 41.4237 37.1352 41.6885C37.2527 42.3551 36.8159 42.9217 36.1128 43.0457C35.4645 43.16 35.0692 42.9473 34.5166 42.2161L32.0436 38.9237L29.779 39.323L30.3779 42.7199ZM29.4537 37.4785L31.6818 37.0856C33.0789 36.8393 33.7601 36.0036 33.5347 34.7252C33.3109 33.4559 32.371 32.8778 31.0104 33.1177L28.7549 33.5154L29.4537 37.4785Z" fill="white"/>
<path d="M19.6446 45.987C18.8593 46.1255 18.3067 45.7145 18.1585 44.8744L16.4582 35.2316C16.2731 34.1815 16.7184 33.5569 17.8233 33.362L23.2383 32.4072C23.8592 32.2977 24.3625 32.6421 24.4687 33.2448C24.5766 33.8566 24.2183 34.3341 23.5973 34.4435L19.0042 35.2534L19.6177 38.7325L23.7451 38.0047C24.3843 37.892 24.8645 38.2122 24.9707 38.8149C25.077 39.4176 24.7262 39.8843 24.0961 39.9954L19.9687 40.7232L20.624 44.4397C20.7738 45.2889 20.4208 45.8501 19.6446 45.987Z" fill="white"/>
</g>
<defs>
<linearGradient id="paint0_linear_4860_1775" x1="22" y1="4.5" x2="54" y2="70" gradientUnits="userSpaceOnUse">
<stop offset="0.365398" stop-color="#3D0F9A"/>
<stop offset="1" stop-color="#7527B4"/>
</linearGradient>
<clipPath id="clip0_4860_1775">
<rect width="74" height="74" fill="white" transform="translate(0.5)"/>
</clipPath>
</defs>
</svg>
