<svg width="48" height="48" viewBox="0 0 48 48" fill="none" xmlns="http://www.w3.org/2000/svg">
<path d="M24 40V24" stroke="#3D0F9A" stroke-width="2" stroke-linecap="round" stroke-linejoin="round"/>
<path d="M28.2383 7.76L31.9983 4" stroke="#3D0F9A" stroke-width="2" stroke-linecap="round" stroke-linejoin="round"/>
<path d="M30 14.26V12C29.999 10.8092 29.6437 9.64565 28.9794 8.65742C28.315 7.66919 27.3716 6.901 26.2693 6.45063C25.1669 6.00026 23.9555 5.88809 22.7892 6.12838C21.6229 6.36867 20.5545 6.95057 19.72 7.8L16 4" stroke="#3D0F9A" stroke-width="2" stroke-linecap="round" stroke-linejoin="round"/>
<path d="M35.9984 24.68V22C35.9984 19.8783 35.1556 17.8434 33.6553 16.3431C32.155 14.8429 30.1202 14 27.9984 14H25.3984" stroke="#3D0F9A" stroke-width="2" stroke-linecap="round" stroke-linejoin="round"/>
<path d="M4 4L44 44" stroke="#FF5A00" stroke-width="2" stroke-linecap="round" stroke-linejoin="round"/>
<path d="M41.9984 10C41.9962 11.9643 41.2713 13.8591 39.9619 15.3234C38.6526 16.7877 36.8503 17.719 34.8984 17.94" stroke="#3D0F9A" stroke-width="2" stroke-linecap="round" stroke-linejoin="round"/>
<path d="M44.0003 26H37.3203" stroke="#3D0F9A" stroke-width="2" stroke-linecap="round" stroke-linejoin="round"/>
<path d="M6.00001 42C5.99768 39.9425 6.78818 37.9632 8.20724 36.4734C9.6263 34.9835 11.5648 34.0977 13.62 34" stroke="#3D0F9A" stroke-width="2" stroke-linecap="round" stroke-linejoin="round"/>
<path d="M12 26H4" stroke="#3D0F9A" stroke-width="2" stroke-linecap="round" stroke-linejoin="round"/>
<path d="M15.4002 15.3999C14.3423 16.1434 13.4803 17.1322 12.8882 18.2816C12.2961 19.4311 11.9914 20.7069 12.0002 21.9999V27.9999C11.9922 30.6224 12.8435 33.1753 14.424 35.2681C16.0044 37.3609 18.2269 38.8784 20.7515 39.5884C23.2761 40.2983 25.9637 40.1617 28.4033 39.1994C30.8429 38.2371 32.9001 36.5022 34.2602 34.2599" stroke="#3D0F9A" stroke-width="2" stroke-linecap="round" stroke-linejoin="round"/>
</svg>
