<svg width="48" height="48" viewBox="0 0 48 48" fill="none" xmlns="http://www.w3.org/2000/svg">
<path d="M16 28C22.6274 28 28 22.6274 28 16C28 9.37258 22.6274 4 16 4C9.37258 4 4 9.37258 4 16C4 22.6274 9.37258 28 16 28Z" stroke="#3D0F9A" stroke-width="2" stroke-linecap="round" stroke-linejoin="round"/>
<path d="M36.1797 20.7402C38.0703 21.4451 39.7527 22.6153 41.0712 24.1426C42.3897 25.67 43.3018 27.5051 43.7232 29.4784C44.1445 31.4516 44.0615 33.4993 43.4818 35.4319C42.9021 37.3646 41.8444 39.1199 40.4065 40.5355C38.9687 41.951 37.1971 42.9812 35.2557 43.5307C33.3142 44.0802 31.2655 44.1312 29.2991 43.6791C27.3326 43.2271 25.5119 42.2864 24.0053 40.9442C22.4988 39.602 21.355 37.9016 20.6797 36.0002" stroke="#3D0F9A" stroke-width="2" stroke-linecap="round" stroke-linejoin="round"/>
<path d="M14 12H16V20" stroke="#FF5A00" stroke-width="2" stroke-linecap="round" stroke-linejoin="round"/>
<path d="M33.4197 27.7598L34.8197 29.1798L29.1797 34.8198" stroke="#FF5A00" stroke-width="2" stroke-linecap="round" stroke-linejoin="round"/>
</svg>
