<?xml version="1.0" encoding="UTF-8" standalone="no"?>
<!-- Created with Keyshape -->
<svg xmlns="http://www.w3.org/2000/svg" xmlns:xlink="http://www.w3.org/1999/xlink" width="520" height="286" viewBox="0 0 520 286" fill="none">
    <style>
@keyframes a0_do { 0% { stroke-dashoffset: 0px; } 49.1803% { stroke-dashoffset: -100px; } 100% { stroke-dashoffset: -100px; } }
@keyframes a1_do { 0% { stroke-dashoffset: 0px; } 49.1803% { stroke-dashoffset: -100px; } 100% { stroke-dashoffset: -100px; } }
@keyframes arc-green_o { 0% { opacity: 0; } 31.9672% { opacity: 1; } 100% { opacity: 1; } }
@keyframes a2_do { 0% { stroke-dashoffset: 0px; } 49.1803% { stroke-dashoffset: -100px; } 100% { stroke-dashoffset: -100px; } }
@keyframes spinner-11_o { 0% { opacity: 1; } 16.3934% { opacity: 0; } 100% { opacity: 0; } }
@keyframes spinner-12_o { 0% { opacity: 1; } 0.8197% { opacity: 0; } 1.6393% { opacity: 1; } 100% { opacity: 1; } }
@keyframes spinner-13_o { 0% { opacity: 1; } 0.8197% { opacity: 1; } 1.6393% { opacity: 0; } 2.459% { opacity: 1; } 100% { opacity: 1; } }
@keyframes spinner-14_o { 0% { opacity: 1; } 1.6393% { opacity: 1; } 2.459% { opacity: 0; } 3.2787% { opacity: 1; } 100% { opacity: 1; } }
@keyframes spinner-15_o { 0% { opacity: 1; } 2.459% { opacity: 1; } 3.2787% { opacity: 0; } 4.0984% { opacity: 1; } 100% { opacity: 1; } }
@keyframes spinner-16_o { 0% { opacity: 1; } 3.2787% { opacity: 1; } 4.0984% { opacity: 0; } 4.918% { opacity: 1; } 100% { opacity: 1; } }
@keyframes spinner-17_o { 0% { opacity: 1; } 4.0984% { opacity: 1; } 4.918% { opacity: 0; } 5.7377% { opacity: 1; } 100% { opacity: 1; } }
@keyframes spinner-18_o { 0% { opacity: 1; } 4.918% { opacity: 1; } 5.7377% { opacity: 0; } 6.5574% { opacity: 1; } 100% { opacity: 1; } }
@keyframes spinner-19_o { 0% { opacity: 1; } 5.7377% { opacity: 1; } 6.5574% { opacity: 0; } 7.377% { opacity: 1; } 100% { opacity: 1; } }
@keyframes spinner-20_o { 0% { opacity: 1; } 6.5574% { opacity: 1; } 7.377% { opacity: 0.1; } 8.1967% { opacity: 1; } 100% { opacity: 1; } }
@keyframes spinner-21_o { 0% { opacity: 1; } 7.377% { opacity: 1; } 8.1967% { opacity: 0; } 9.0164% { opacity: 1; } 100% { opacity: 1; } }
@keyframes a3_o { 0% { opacity: 0; } 43.4426% { opacity: 0; } 54.0984% { opacity: 0.6; } 98.3607% { opacity: 0.3; } 100% { opacity: 0.1; } }
@keyframes v1-3_o { 0% { opacity: 1; } 4.0984% { opacity: 1; animation-timing-function: cubic-bezier(0,0,1,1); } 33.6066% { opacity: 1; } 34.4262% { opacity: 0; } 100% { opacity: 0; } }
@keyframes v2-f_o { 0% { opacity: 0; } 6.5574% { opacity: 0; } 58.1967% { opacity: 0; } 59.8361% { opacity: 1; } 98.3607% { opacity: 1; } 100% { opacity: 0.333333; } }
@keyframes greenback_o { 0% { opacity: 0; } 27.8689% { opacity: 0; } 33.6066% { opacity: 0.6; } 38.5246% { opacity: 0.6; } 98.3607% { opacity: 0.3; } 100% { opacity: 0.1; } }
@keyframes a4_f { 0% { fill: none; } 27.8689% { fill: none; } 32.7869% { fill: none; } 100% { fill: none; } }
@keyframes v1g_o { 0% { opacity: 1; } 2.459% { opacity: 1; } 27.8689% { opacity: 1; } 28.6885% { opacity: 0; } 100% { opacity: 0; } }
@keyframes v2-1_o { 0% { opacity: 0; } 28.6885% { opacity: 0; } 30.3279% { opacity: 1; } 98.3607% { opacity: 1; } 100% { opacity: 0.333333; } }
@keyframes arc1_o { 0% { opacity: 1; } 1.6393% { opacity: 1; } 31.9672% { opacity: 1; } 33.6066% { opacity: 0; } 98.3607% { opacity: 0; } 100% { opacity: 0.666667; } }
@keyframes a5_do { 0% { stroke-dashoffset: 0px; } 1.6393% { stroke-dashoffset: 0px; } 100% { stroke-dashoffset: -98.3607px; } }
@keyframes point_f { 0% { fill: #8F95B2; } 31.1475% { fill: #8F95B2; } 31.9672% { fill: #35aa00; } 98.3607% { fill: #35aa00; } 100% { fill: #719c77; } }
@keyframes a6_do { 0% { stroke-dashoffset: 0px; } 100% { stroke-dashoffset: -99.1951px; } }
@keyframes v1-2_o { 0% { opacity: 1; } 4.0984% { opacity: 1; } 6.5574% { opacity: 1; } 30.3279% { opacity: 1; } 31.9672% { opacity: 0; } 100% { opacity: 0; } }
@keyframes v2-2_o { 0% { opacity: 0; } 31.1475% { opacity: 0; } 32.7869% { opacity: 1; } 98.3607% { opacity: 1; } 100% { opacity: 0.333333; } }
@keyframes preloader_o { 0% { opacity: 0; } 34.4262% { opacity: 0; } 35.2459% { opacity: 1; } 55.7377% { opacity: 1; } 59.0164% { opacity: 0; } 100% { opacity: 0; } }
@keyframes spinner-12_o { 0% { opacity: 1; } 5.5082% { opacity: 0; } 11.0246% { opacity: 1; } 100% { opacity: 1; } }
@keyframes spinner-13_o { 0% { opacity: 1; } 5.5082% { opacity: 1; } 11.0246% { opacity: 0; } 16.541% { opacity: 1; } 100% { opacity: 1; } }
@keyframes spinner-14_o { 0% { opacity: 1; } 11.0246% { opacity: 1; } 16.541% { opacity: 0; } 22.0492% { opacity: 1; } 100% { opacity: 1; } }
@keyframes spinner-15_o { 0% { opacity: 1; } 16.541% { opacity: 1; } 22.0492% { opacity: 0; } 27.5656% { opacity: 1; } 100% { opacity: 1; } }
@keyframes spinner-16_o { 0% { opacity: 1; } 22.0492% { opacity: 1; } 27.5656% { opacity: 0; } 33.082% { opacity: 1; } 100% { opacity: 1; } }
@keyframes spinner-17_o { 0% { opacity: 1; } 27.5656% { opacity: 1; } 33.082% { opacity: 0; } 38.5984% { opacity: 1; } 100% { opacity: 1; } }
@keyframes spinner-18_o { 0% { opacity: 1; } 33.082% { opacity: 1; } 38.5984% { opacity: 0; } 44.1066% { opacity: 1; } 100% { opacity: 1; } }
@keyframes spinner-19_o { 0% { opacity: 1; } 38.5984% { opacity: 1; } 44.1066% { opacity: 0; } 49.623% { opacity: 1; } 100% { opacity: 1; } }
@keyframes spinner-20_o { 0% { opacity: 1; } 44.1066% { opacity: 1; } 49.623% { opacity: 0.1; } 55.1393% { opacity: 1; } 100% { opacity: 1; } }
@keyframes spinner-21_o { 0% { opacity: 1; } 49.623% { opacity: 1; } 55.1393% { opacity: 0; } 60.6475% { opacity: 1; } 100% { opacity: 1; } }
@keyframes green-line_o { 0% { opacity: 0; } 30.3279% { opacity: 0; } 31.9672% { opacity: 1; } 98.3607% { opacity: 1; } 100% { opacity: 0.333333; } }
@keyframes a7_do { 0% { stroke-dashoffset: 0px; } 98.3607% { stroke-dashoffset: -100px; } 100% { stroke-dashoffset: -100px; } }
@keyframes progress-1_w { 0% { width: 0px; } 31.9672% { width: 50px; } 100% { width: 50px; } }
@keyframes progress-2_w { 0% { width: 0px; } 32.7869% { width: 0px; } 67.2131% { width: 50px; } 100% { width: 50px; } }
@keyframes progress-3_w { 0% { width: 0px; } 68.8525% { width: 0px; } 98.3607% { width: 50px; } 100% { width: 50px; } }
    </style>
    <defs>
        <symbol id="Symbol-6" preserveAspectRatio="none" width="125.803" height="2" viewBox="0 0 125.803 2" overflow="visible">
            <path d="M298.5,141L422.303,141" stroke="#8F95B2" stroke-width="2" stroke-linecap="round" stroke-linejoin="round" stroke-dasharray="4 4" stroke-dashoffset="0" transform="translate(62.9015,1) translate(-360.401,-141)" style="animation: 12.2s linear infinite both a0_do;"/>
        </symbol>
        <symbol id="Symbol-5" preserveAspectRatio="none" width="99.3025" height="2.00013" viewBox="0 0 99.3025 2.00013" overflow="visible">
            <path d="M99.25,0.999897L1.94749,1.00002" stroke="#35AA00" stroke-width="2" stroke-linecap="round" stroke-linejoin="round" stroke-dasharray="4 4" fill="none" stroke-dashoffset="0" transform="translate(49.6512,1.00006) translate(-50.5987,-0.999958)" style="animation: 12.2s linear infinite both a1_do;"/>
        </symbol>
        <symbol id="Symbol-4" height="100" overflow="visible" preserveAspectRatio="none" viewBox="0 0 100 100" width="100"/>
        <symbol id="Symbol-3" preserveAspectRatio="none" width="99.303" height="2" viewBox="0 0 99.303 2" overflow="visible">
            <use id="arc-green" width="99.303" height="2" xlink:href="#ar" opacity="0" transform="translate(49.6515,1) translate(-49.6515,-1)" style="animation: 12.2s linear infinite both arc-green_o;"/>
        </symbol>
        <symbol id="ar" preserveAspectRatio="none" width="99.303" height="2" viewBox="0 0 99.303 2" overflow="visible">
            <path d="M398.25,181L300.947,181" stroke="#8f95b2" stroke-width="2" stroke-linecap="round" stroke-linejoin="round" stroke-dasharray="4 4" stroke-dashoffset="0" transform="translate(49.6515,1) translate(-349.599,-181)" style="animation: 12.2s linear infinite both a2_do;"/>
        </symbol>
        <symbol id="Symbol-1" preserveAspectRatio="none" width="68.1837" height="70" viewBox="0 0 68.1837 70" overflow="visible" fill="#35aa00" stroke="none">
            <g transform="translate(33.5722,35) translate(-33.8489,-35)">
                <g transform="translate(33.8685,7) translate(-49.5,-22)">
                    <rect id="spinner-2" width="6" height="14" rx="2" ry="2" transform="translate(0,-30) translate(46.5,45)"/>
                </g>
                <g transform="translate(50.422,12.0536) rotate(36) translate(-49.5,-22)">
                    <rect id="spinner-3" width="6" height="14" rx="2" ry="2" transform="translate(0,-30) translate(46.5,45)"/>
                </g>
                <g transform="translate(60.8436,25.872) rotate(72) translate(-49.5,-22)">
                    <rect id="spinner-4" width="6" height="14" rx="2" ry="2" transform="translate(0,-30) translate(46.5,45)"/>
                </g>
                <g transform="translate(61.1526,43.1769) rotate(108) translate(-49.5,-22)">
                    <rect id="spinner-5" width="6" height="14" rx="2" ry="2" transform="translate(0,-30) translate(46.5,45)"/>
                </g>
                <g transform="translate(51.231,57.3586) rotate(144) translate(-49.5,-22)">
                    <rect id="spinner-6" width="6" height="14" rx="2" ry="2" transform="translate(0,-30) translate(46.5,45)"/>
                </g>
                <g transform="translate(34.8685,63) rotate(180) translate(-49.5,-22)">
                    <rect id="spinner-7" width="6" height="14" rx="2" ry="2" transform="translate(0,-30) translate(46.5,45)"/>
                </g>
                <g transform="translate(18.3151,57.9464) rotate(-144) translate(-49.5,-22)">
                    <rect id="spinner-8" width="6" height="14" rx="2" ry="2" transform="translate(0,-30) translate(46.5,45)"/>
                </g>
                <g transform="translate(7.89346,44.128) rotate(-108) translate(-49.5,-22)">
                    <rect id="spinner-9" width="6" height="14" rx="2" ry="2" transform="translate(0,-30) translate(46.5,45)"/>
                </g>
                <g transform="translate(7.58445,26.8231) rotate(-72) translate(-49.5,-22)">
                    <rect id="spinner-10" width="6" height="14" rx="2" ry="2" transform="translate(0,-30) translate(46.5,45)"/>
                </g>
                <g transform="translate(17.506,12.6414) rotate(-36) translate(-49.5,-22)">
                    <rect id="spinner-11" width="6" height="14" rx="2" ry="2" opacity="1" transform="translate(0,-30) translate(46.5,45)" style="animation: 12.2s linear infinite both spinner-11_o;"/>
                </g>
            </g>
        </symbol>
        <symbol id="Symbol-2" preserveAspectRatio="none" width="68.1837" height="70" viewBox="0 0 68.1837 70" overflow="visible" fill="#35aa00" stroke="none">
            <g transform="translate(33.5722,35) translate(-33.8489,-35)">
                <g id="p1" opacity="1" transform="translate(33.8685,7) translate(-49.5,-22)">
                    <rect id="spinner-12" width="6" height="14" rx="2" ry="2" opacity="1" transform="translate(0,-30) translate(46.5,45)" style="animation: 12.2s linear infinite both spinner-12_o;"/>
                </g>
                <g id="p2" transform="translate(50.422,12.0536) rotate(36) translate(-49.5,-22)">
                    <rect id="spinner-13" width="6" height="14" rx="2" ry="2" opacity="1" transform="translate(0,-30) translate(46.5,45)" style="animation: 12.2s linear infinite both spinner-13_o;"/>
                </g>
                <g id="p3" transform="translate(60.8436,25.872) rotate(72) translate(-49.5,-22)">
                    <rect id="spinner-14" width="6" height="14" rx="2" ry="2" opacity="1" transform="translate(0,-30) translate(46.5,45)" style="animation: 12.2s linear infinite both spinner-14_o;"/>
                </g>
                <g id="p4" transform="translate(61.1526,43.1769) rotate(108) translate(-49.5,-22)">
                    <rect id="spinner-15" width="6" height="14" rx="2" ry="2" opacity="1" transform="translate(0,-30) translate(46.5,45)" style="animation: 12.2s linear infinite both spinner-15_o;"/>
                </g>
                <g id="p5" transform="translate(51.231,57.3586) rotate(144) translate(-49.5,-22)">
                    <rect id="spinner-16" width="6" height="14" rx="2" ry="2" opacity="1" transform="translate(0,-30) translate(46.5,45)" style="animation: 12.2s linear infinite both spinner-16_o;"/>
                </g>
                <g id="p6" transform="translate(34.8685,63) rotate(180) translate(-49.5,-22)">
                    <rect id="spinner-17" width="6" height="14" rx="2" ry="2" opacity="1" transform="translate(0,-30) translate(46.5,45)" style="animation: 12.2s linear infinite both spinner-17_o;"/>
                </g>
                <g id="p6-2" transform="translate(18.3151,57.9464) rotate(-144) translate(-49.5,-22)">
                    <rect id="spinner-18" width="6" height="14" rx="2" ry="2" opacity="1" transform="translate(0,-30) translate(46.5,45)" style="animation: 12.2s linear infinite both spinner-18_o;"/>
                </g>
                <g id="p7" transform="translate(7.89346,44.128) rotate(-108) translate(-49.5,-22)">
                    <rect id="spinner-19" width="6" height="14" rx="2" ry="2" opacity="1" transform="translate(0,-30) translate(46.5,45)" style="animation: 12.2s linear infinite both spinner-19_o;"/>
                </g>
                <g id="p8" transform="translate(7.58445,26.8231) rotate(-72) translate(-49.5,-22)">
                    <rect id="spinner-20" width="6" height="14" rx="2" ry="2" opacity="1" transform="translate(0,-30) translate(46.5,45)" style="animation: 12.2s linear infinite both spinner-20_o;"/>
                </g>
                <g id="p9" transform="translate(17.506,12.6414) rotate(-36) translate(-49.5,-22)">
                    <rect id="spinner-21" width="6" height="14" rx="2" ry="2" opacity="1" transform="translate(0,-30) translate(46.5,45)" style="animation: 12.2s linear infinite both spinner-21_o;"/>
                </g>
            </g>
        </symbol>
    </defs>
    <rect width="844" height="286" rx="10" fill="white" transform="translate(422.966,143) translate(-422,-143)"/>
    <path fill-rule="evenodd" clip-rule="evenodd" d="M624.581,133.707C624.379,134.976,625.254,136.123,626.666,136.365L626.672,136.363C651.216,140.712,670.581,159.256,672.8,182.754C675.422,211.203,651.887,236.21,620.217,238.506L387.431,238.506C386.893,238.566,386.288,238.566,385.683,238.566L385.683,238.566C348.835,238.566,318.913,211.747,318.913,178.645C318.913,146.269,347.491,119.933,383.262,118.724C384.54,118.664,385.616,117.698,385.683,116.489C387.024,82.785,412.491,50.516,451.02,47.6166C478.655,45.5628,507.852,61.0997,522.712,80.0666C523.586,81.1539,525.2,81.3955,526.41,80.5498C535.421,74.2072,546.582,70.0999,558.753,69.1939C592.71,66.6585,622.497,89.3099,625.254,119.814C625.724,124.586,625.455,129.237,624.581,133.707Z" fill="#FAFBFF" transform="translate(335.956,143) translate(-495.956,-143)"/>
    <path d="M626.666,136.365L626.497,137.351L626.708,137.387L626.915,137.333L626.666,136.365ZM624.581,133.707L623.6,133.515L623.596,133.533L623.594,133.55L624.581,133.707ZM626.672,136.363L626.846,135.379L626.633,135.341L626.423,135.395L626.672,136.363ZM672.8,182.754L673.796,182.662L673.796,182.66L672.8,182.754ZM620.217,238.506L620.217,239.506L620.253,239.506L620.289,239.503L620.217,238.506ZM387.431,238.506L387.431,237.506L387.375,237.506L387.32,237.512L387.431,238.506ZM383.262,118.724L383.296,119.724L383.31,119.723L383.262,118.724ZM385.683,116.489L386.681,116.545L386.682,116.537L386.682,116.529L385.683,116.489ZM451.02,47.6166L450.946,46.6193L450.945,46.6194L451.02,47.6166ZM522.712,80.0666L521.925,80.6834L521.933,80.6931L522.712,80.0666ZM526.41,80.5498L526.983,81.3696L526.986,81.3676L526.41,80.5498ZM558.753,69.1939L558.827,70.1911L558.827,70.1911L558.753,69.1939ZM625.254,119.814L624.258,119.904L624.258,119.912L625.254,119.814ZM626.834,135.379C625.889,135.217,625.464,134.521,625.569,133.864L623.594,133.55C623.295,135.43,624.619,137.029,626.497,137.351L626.834,135.379ZM626.423,135.395L626.416,135.396L626.915,137.333L626.921,137.332L626.423,135.395ZM673.796,182.66C671.528,158.642,651.757,139.793,626.846,135.379L626.497,137.348C650.675,141.632,669.635,159.871,671.804,182.848L673.796,182.66ZM620.289,239.503C652.415,237.175,676.478,211.766,673.796,182.662L671.804,182.845C674.365,210.64,651.358,235.246,620.145,237.508L620.289,239.503ZM387.431,239.506L620.217,239.506L620.217,237.506L387.431,237.506L387.431,239.506ZM385.683,239.566C386.274,239.566,386.939,239.567,387.543,239.5L387.32,237.512C386.848,237.565,386.302,237.566,385.683,237.566L385.683,239.566ZM385.683,239.566L385.683,239.566L385.683,237.566L385.683,237.566L385.683,239.566ZM317.913,178.645C317.913,212.398,348.388,239.566,385.683,239.566L385.683,237.566C349.282,237.566,319.913,211.095,319.913,178.645L317.913,178.645ZM383.229,117.725C347.021,118.948,317.913,145.632,317.913,178.645L319.913,178.645C319.913,146.905,347.96,120.917,383.296,119.724L383.229,117.725ZM384.685,116.434C384.65,117.06,384.054,117.686,383.215,117.726L383.31,119.723C385.026,119.642,386.582,118.335,386.681,116.545L384.685,116.434ZM450.945,46.6194C411.846,49.5616,386.043,82.3034,384.684,116.45L386.682,116.529C388.006,83.2665,413.136,51.4703,451.095,48.6137L450.945,46.6194ZM523.499,79.4499C508.46,60.2546,478.954,44.5378,450.946,46.6193L451.094,48.6138C478.355,46.5878,507.244,61.9448,521.925,80.6833L523.499,79.4499ZM525.837,79.7301C525.049,80.281,524.029,80.1083,523.492,79.4401L521.933,80.6931C523.144,82.1995,525.351,82.51,526.983,81.3696L525.837,79.7301ZM558.678,68.1966C546.331,69.1159,534.995,73.2836,525.835,79.7321L526.986,81.3676C535.846,75.1309,546.833,71.084,558.827,70.1911L558.678,68.1966ZM626.249,119.724C623.435,88.5806,593.079,65.6281,558.678,68.1966L558.827,70.1911C592.34,67.6889,621.559,90.0392,624.258,119.904L626.249,119.724ZM625.563,133.899C626.454,129.338,626.729,124.589,626.249,119.716L624.258,119.912C624.719,124.583,624.456,129.136,623.6,133.515L625.563,133.899Z" fill="#E5F0FF" transform="translate(335.957,143) translate(-495.957,-143)"/>
    <rect width="107.7" height="80.101" rx="12" fill="#D6F2D1" opacity="0" transform="translate(67.453,158.75) translate(-55.303,-39.1)" style="animation: 12.2s linear infinite both a3_o;"/>
    <path d="M181,119.65L271,119.65C275.888,119.65,279.85,123.612,279.85,128.5L279.85,191.5C279.85,196.388,275.888,200.35,271,200.35L181,200.35C176.112,200.35,172.15,196.388,172.15,191.5L172.15,128.5C172.15,123.612,176.112,119.65,181,119.65Z" fill="none" stroke="#8F95B2" stroke-width="2.3" transform="translate(66,160) translate(-226,-160)"/>
    <path d="M186,144.15L266,144.15C268.679,144.15,270.85,146.321,270.85,149L270.85,187C270.85,189.679,268.679,191.85,266,191.85L186,191.85C183.321,191.85,181.15,189.679,181.15,187L181.15,149C181.15,146.321,183.321,144.15,186,144.15Z" fill="none" stroke="#8F95B2" stroke-width="2.3" transform="translate(66,168) translate(-226,-168)"/>
    <path id="v1-3" d="M249.678,176.739L247.058,184.375L244.274,184.375L241.659,176.739L244.219,176.739L245.626,181.999L245.706,181.999L247.118,176.739L249.678,176.739ZM251.499,184.519C251.141,184.519,250.835,184.393,250.579,184.141C250.327,183.889,250.203,183.585,250.206,183.227C250.203,182.875,250.327,182.575,250.579,182.327C250.835,182.075,251.141,181.949,251.499,181.949C251.837,181.949,252.135,182.075,252.394,182.327C252.656,182.575,252.788,182.875,252.792,183.227C252.788,183.465,252.725,183.682,252.603,183.878C252.483,184.073,252.326,184.229,252.131,184.345C251.938,184.461,251.728,184.519,251.499,184.519ZM261.451,174.193L261.451,184.375L258.995,184.375L258.995,176.49L258.935,176.49L256.658,177.882L256.658,175.754L259.169,174.193L261.451,174.193Z" fill="#2c79b2" opacity="1" transform="translate(91.555,179.356) translate(-251.555,-179.356)" style="animation: 12.2s linear infinite both v1-3_o;"/>
    <path id="v2-f" d="M249.678,176.739L247.058,184.375L244.274,184.375L241.659,176.739L244.219,176.739L245.626,181.999L245.706,181.999L247.118,176.739L249.678,176.739ZM251.499,184.519C251.141,184.519,250.835,184.393,250.579,184.141C250.327,183.889,250.203,183.585,250.206,183.227C250.203,182.875,250.327,182.575,250.579,182.327C250.835,182.075,251.141,181.949,251.499,181.949C251.837,181.949,252.135,182.075,252.394,182.327C252.656,182.575,252.788,182.875,252.792,183.227C252.788,183.465,252.725,183.682,252.603,183.878C252.483,184.073,252.326,184.229,252.131,184.345C251.938,184.461,251.728,184.519,251.499,184.519ZM256.743,184.375L256.743,182.605L260.457,179.354C260.735,179.102,260.972,178.871,261.168,178.663C261.363,178.451,261.512,178.238,261.615,178.026C261.718,177.811,261.769,177.577,261.769,177.325C261.769,177.044,261.708,176.803,261.585,176.604C261.463,176.402,261.294,176.246,261.078,176.137C260.863,176.028,260.616,175.973,260.337,175.973C260.056,175.973,259.809,176.031,259.597,176.147C259.384,176.26,259.219,176.424,259.099,176.639C258.983,176.855,258.925,177.116,258.925,177.425L256.594,177.425C256.594,176.732,256.75,176.134,257.061,175.63C257.373,175.126,257.81,174.738,258.374,174.467C258.94,174.192,259.598,174.054,260.347,174.054C261.12,174.054,261.791,174.183,262.361,174.442C262.931,174.7,263.372,175.062,263.683,175.526C263.998,175.986,264.156,176.522,264.156,177.131C264.156,177.519,264.078,177.904,263.922,178.285C263.766,178.666,263.486,179.087,263.082,179.548C262.681,180.008,262.111,180.56,261.371,181.203L260.153,182.327L260.153,182.391L264.28,182.391L264.28,184.375L256.743,184.375Z" fill="#35AA00" opacity="0" transform="translate(92.969,179.286) translate(-252.969,-179.286)" style="animation: 12.2s linear infinite both v2-f_o;"/>
    <path d="M195.872,106.5L195.872,96.3182L202.395,96.3182L202.395,97.8643L197.717,97.8643L197.717,100.629L201.948,100.629L201.948,102.175L197.717,102.175L197.717,106.5L195.872,106.5ZM203.887,106.5L203.887,98.8636L205.632,98.8636L205.632,100.136L205.711,100.136C205.85,99.6955,206.089,99.3558,206.427,99.1172C206.768,98.8752,207.158,98.7543,207.595,98.7543C207.695,98.7543,207.806,98.7592,207.929,98.7692C208.054,98.7758,208.159,98.7874,208.242,98.804L208.242,100.46C208.166,100.433,208.045,100.41,207.879,100.39C207.716,100.367,207.559,100.355,207.407,100.355C207.078,100.355,206.783,100.426,206.522,100.569C206.263,100.708,206.059,100.902,205.91,101.151C205.761,101.399,205.686,101.686,205.686,102.011L205.686,106.5L203.887,106.5ZM212.454,106.649C211.708,106.649,211.062,106.485,210.515,106.157C209.968,105.829,209.544,105.37,209.242,104.78C208.944,104.19,208.795,103.5,208.795,102.712C208.795,101.923,208.944,101.232,209.242,100.638C209.544,100.045,209.968,99.5845,210.515,99.2564C211.062,98.9283,211.708,98.7642,212.454,98.7642C213.2,98.7642,213.846,98.9283,214.393,99.2564C214.94,99.5845,215.362,100.045,215.661,100.638C215.962,101.232,216.113,101.923,216.113,102.712C216.113,103.5,215.962,104.19,215.661,104.78C215.362,105.37,214.94,105.829,214.393,106.157C213.846,106.485,213.2,106.649,212.454,106.649ZM212.464,105.207C212.868,105.207,213.206,105.096,213.478,104.874C213.75,104.649,213.952,104.347,214.085,103.969C214.22,103.592,214.288,103.171,214.288,102.707C214.288,102.239,214.22,101.817,214.085,101.439C213.952,101.058,213.75,100.754,213.478,100.529C213.206,100.304,212.868,100.191,212.464,100.191C212.05,100.191,211.705,100.304,211.43,100.529C211.158,100.754,210.954,101.058,210.818,101.439C210.686,101.817,210.619,102.239,210.619,102.707C210.619,103.171,210.686,103.592,210.818,103.969C210.954,104.347,211.158,104.649,211.43,104.874C211.705,105.096,212.05,105.207,212.464,105.207ZM219.44,102.026L219.44,106.5L217.641,106.5L217.641,98.8636L219.361,98.8636L219.361,100.161L219.45,100.161C219.626,99.7337,219.906,99.3939,220.29,99.142C220.678,98.8902,221.157,98.7642,221.727,98.7642C222.254,98.7642,222.713,98.8769,223.104,99.1023C223.499,99.3277,223.804,99.6541,224.019,100.082C224.238,100.509,224.346,101.028,224.342,101.638L224.342,106.5L222.543,106.5L222.543,101.916C222.543,101.406,222.41,101.006,222.145,100.718C221.883,100.43,221.52,100.286,221.056,100.286C220.741,100.286,220.461,100.355,220.216,100.494C219.974,100.63,219.783,100.827,219.644,101.086C219.508,101.344,219.44,101.658,219.44,102.026ZM229.985,98.8636L229.985,100.256L225.595,100.256L225.595,98.8636L229.985,98.8636ZM226.679,97.0341L228.479,97.0341L228.479,104.203C228.479,104.445,228.515,104.631,228.588,104.76C228.664,104.886,228.764,104.972,228.886,105.018C229.009,105.065,229.145,105.088,229.294,105.088C229.407,105.088,229.509,105.08,229.602,105.063C229.698,105.047,229.771,105.032,229.821,105.018L230.124,106.425C230.028,106.459,229.891,106.495,229.712,106.535C229.536,106.575,229.32,106.598,229.065,106.604C228.614,106.618,228.208,106.55,227.847,106.401C227.486,106.248,227.199,106.013,226.987,105.695C226.778,105.376,226.676,104.979,226.679,104.501L226.679,97.0341ZM234.789,106.649C234.023,106.649,233.362,106.49,232.805,106.172C232.252,105.85,231.826,105.396,231.527,104.81C231.229,104.22,231.08,103.525,231.08,102.727C231.08,101.941,231.229,101.252,231.527,100.658C231.829,100.062,232.25,99.5978,232.79,99.2663C233.33,98.9316,233.965,98.7642,234.694,98.7642C235.165,98.7642,235.609,98.8404,236.027,98.9929C236.448,99.142,236.819,99.3741,237.14,99.6889C237.465,100.004,237.72,100.405,237.906,100.892C238.092,101.376,238.184,101.953,238.184,102.622L238.184,103.174L231.925,103.174L231.925,101.961L236.459,101.961C236.456,101.616,236.381,101.31,236.236,101.041C236.09,100.769,235.886,100.556,235.624,100.4C235.366,100.244,235.064,100.166,234.719,100.166C234.351,100.166,234.028,100.256,233.75,100.435C233.471,100.61,233.254,100.842,233.098,101.131C232.946,101.416,232.868,101.729,232.865,102.07L232.865,103.129C232.865,103.573,232.946,103.955,233.108,104.273C233.271,104.588,233.498,104.83,233.79,104.999C234.081,105.164,234.423,105.247,234.814,105.247C235.075,105.247,235.312,105.211,235.525,105.138C235.737,105.062,235.921,104.951,236.076,104.805C236.232,104.659,236.35,104.478,236.429,104.263L238.11,104.452C238.004,104.896,237.802,105.284,237.503,105.615C237.208,105.943,236.83,106.198,236.37,106.381C235.909,106.56,235.382,106.649,234.789,106.649ZM241.507,102.026L241.507,106.5L239.707,106.5L239.707,98.8636L241.427,98.8636L241.427,100.161L241.517,100.161C241.692,99.7337,241.972,99.3939,242.357,99.142C242.745,98.8902,243.224,98.7642,243.794,98.7642C244.321,98.7642,244.78,98.8769,245.171,99.1023C245.565,99.3277,245.87,99.6541,246.085,100.082C246.304,100.509,246.412,101.028,246.409,101.638L246.409,106.5L244.609,106.5L244.609,101.916C244.609,101.406,244.476,101.006,244.211,100.718C243.949,100.43,243.586,100.286,243.122,100.286C242.808,100.286,242.527,100.355,242.282,100.494C242.04,100.63,241.85,100.827,241.71,101.086C241.575,101.344,241.507,101.658,241.507,102.026ZM251.072,106.634C250.472,106.634,249.935,106.48,249.461,106.172C248.987,105.864,248.613,105.416,248.338,104.83C248.063,104.243,247.925,103.53,247.925,102.692C247.925,101.843,248.064,101.127,248.343,100.544C248.624,99.9574,249.004,99.5149,249.481,99.2166C249.958,98.915,250.49,98.7642,251.077,98.7642C251.524,98.7642,251.892,98.8404,252.181,98.9929C252.469,99.142,252.698,99.3227,252.867,99.5348C253.036,99.7436,253.167,99.9408,253.259,100.126L253.334,100.126L253.334,96.3182L255.139,96.3182L255.139,106.5L253.369,106.5L253.369,105.297L253.259,105.297C253.167,105.482,253.032,105.68,252.857,105.888C252.681,106.094,252.449,106.27,252.161,106.415C251.872,106.561,251.509,106.634,251.072,106.634ZM251.574,105.158C251.955,105.158,252.28,105.055,252.549,104.849C252.817,104.641,253.021,104.351,253.16,103.979C253.299,103.608,253.369,103.176,253.369,102.682C253.369,102.188,253.299,101.759,253.16,101.394C253.024,101.03,252.822,100.746,252.554,100.544C252.288,100.342,251.962,100.241,251.574,100.241C251.173,100.241,250.838,100.345,250.57,100.554C250.301,100.763,250.099,101.051,249.963,101.419C249.827,101.787,249.759,102.208,249.759,102.682C249.759,103.159,249.827,103.585,249.963,103.96C250.103,104.331,250.306,104.624,250.575,104.839C250.847,105.052,251.18,105.158,251.574,105.158Z" fill="#696F8C" transform="translate(65.505,101.484) translate(-225.505,-101.484)"/>
    <path d="M192.205,136.011L192.205,136.011C191.92,136.266,191.478,136.244,191.223,135.95C190.969,135.666,190.993,135.226,191.279,134.971C191.279,134.971,191.279,134.971,191.279,134.971L193.546,132.937L191.279,130.904C191.279,130.904,191.279,130.904,191.279,130.904C190.992,130.648,190.969,130.209,191.224,129.923M192.205,136.011L191.224,129.923C191.224,129.923,191.224,129.923,191.224,129.923M192.205,136.011L195.05,133.458C195.05,133.458,195.05,133.458,195.05,133.458C195.335,133.204,195.359,132.767,195.11,132.481C195.087,132.453,195.063,132.432,195.052,132.422C195.051,132.421,195.05,132.421,195.049,132.42L195.049,132.42L195.048,132.419L192.205,129.868L192.205,129.868C191.919,129.613,191.48,129.636,191.224,129.923M192.205,136.011L191.224,129.923M185.589,134.974L185.589,134.974C185.876,135.232,185.897,135.67,185.645,135.958L185.644,135.959L185.644,135.959C185.388,136.246,184.948,136.269,184.663,136.014L184.662,136.014L181.817,133.461L181.817,133.461C181.532,133.204,181.507,132.765,181.763,132.479L181.949,132.645M185.589,134.974L184.829,130.057L184.662,129.871L184.662,129.871C184.662,129.871,184.662,129.871,184.662,129.871L181.82,132.422C181.799,132.44,181.78,132.459,181.762,132.479L181.949,132.645M185.589,134.974L183.321,132.94L185.588,130.907C185.588,130.907,185.588,130.907,185.589,130.907C185.875,130.651,185.899,130.21,185.643,129.926L185.589,134.974ZM181.949,132.645C181.786,132.829,181.801,133.11,181.984,133.275L181.986,132.609C181.974,132.619,181.961,132.632,181.949,132.645Z" fill="#8F95B2" stroke="#8F95B2" stroke-width="0.5" transform="translate(28.434,132.941) translate(-188.434,-132.941)"/>
    <ellipse fill="#8F95B2" rx="3" ry="3" transform="translate(43.031,132.941)"/>
    <path id="greenback" fill-rule="evenodd" clip-rule="evenodd" d="M12.0001,0.5C5.37282,0.5,0,5.87258,0,12.5L0,69C0,75.6274,5.37282,81,12.0001,81L21.5631,81L21.5631,86.625C23.9787,89.3333,31.989,94.5,44.6866,93.5C60.5662,92.25,66.8081,89.5625,67.7565,88.3125C68.0471,87.9128,68.2309,84.9496,68.3226,81L92.8001,81C99.425,81,104.794,75.6274,104.794,69L104.794,12.5C104.794,5.87258,99.425,0.5,92.8001,0.5L12.0001,0.5Z" fill="#D6F2D1" opacity="0" stroke="#35aa00" transform="translate(335.518,166.065) translate(-52.397,-47.0633)" style="animation: 12.2s linear infinite both greenback_o;"/>
    <rect width="59" height="6" rx="1" fill="none" stroke="#8f95b2" stroke-width="2" transform="translate(81.531,132.941) translate(-29.5,-3)" style="animation: 12.2s linear infinite both a4_f;"/>
    <path fill-rule="evenodd" clip-rule="evenodd" d="M461.843,197.171C462.556,197.171,463.133,197.748,463.133,198.461C463.133,199.174,462.556,199.751,461.843,199.751L451.355,199.751C449.092,199.751,447.031,198.826,445.538,197.334C444.046,195.841,443.121,193.78,443.121,191.513L443.121,126.734C443.121,124.47,444.046,122.41,445.538,120.917C447.031,119.425,449.087,118.5,451.355,118.5L540.56,118.5C542.827,118.5,544.884,119.425,546.376,120.917C547.865,122.41,548.793,124.466,548.793,126.734L548.793,191.513C548.793,193.78,547.869,195.837,546.376,197.329C544.884,198.822,542.827,199.746,540.56,199.746L516.409,199.746C515.696,199.746,515.119,199.17,515.119,198.456C515.119,197.743,515.696,197.166,516.409,197.166L540.56,197.166C542.114,197.166,543.528,196.528,544.553,195.502C545.579,194.476,546.218,193.063,546.218,191.508L546.218,142.864L537.566,142.864C536.853,142.864,536.276,142.288,536.276,141.574C536.276,140.861,536.853,140.284,537.566,140.284L546.218,140.284L546.218,126.735C546.218,125.181,545.579,123.767,544.553,122.741C543.528,121.716,542.114,121.077,540.56,121.077L451.355,121.077C449.8,121.077,448.387,121.716,447.361,122.741C446.335,123.767,445.697,125.181,445.697,126.735L445.697,140.289L532.463,140.289C533.176,140.289,533.753,140.866,533.753,141.579C533.753,142.292,533.176,142.869,532.463,142.869L445.697,142.865L445.697,191.513C445.697,193.068,446.335,194.481,447.361,195.507C448.387,196.533,449.8,197.171,451.355,197.171L461.843,197.171ZM477.931,200.882C478.799,200.882,479.587,201.235,480.155,201.803C480.723,202.371,481.075,203.159,481.075,204.026C481.075,204.894,480.723,205.682,480.155,206.25C479.587,206.818,478.799,207.17,477.931,207.17C477.064,207.17,476.276,206.818,475.708,206.25C475.14,205.682,474.788,204.894,474.788,204.026C474.788,203.159,475.14,202.371,475.708,201.803C476.28,201.235,477.064,200.882,477.931,200.882ZM478.332,203.63C478.231,203.529,478.09,203.463,477.931,203.463C477.773,203.463,477.632,203.524,477.531,203.63C477.43,203.731,477.364,203.872,477.364,204.031C477.364,204.189,477.425,204.33,477.531,204.431C477.632,204.532,477.773,204.599,477.931,204.599C478.086,204.599,478.231,204.537,478.332,204.431C478.433,204.33,478.499,204.189,478.499,204.031C478.499,203.872,478.438,203.731,478.332,203.63ZM471.345,198.725C470.477,198.725,469.689,199.077,469.121,199.645C468.553,200.213,468.201,201.001,468.201,201.869C468.201,202.736,468.553,203.524,469.121,204.092C469.689,204.66,470.477,205.012,471.345,205.012C472.212,205.012,473,204.66,473.568,204.092C474.136,203.524,474.488,202.736,474.488,201.869C474.488,201.001,474.136,200.213,473.568,199.645C472.996,199.077,472.212,198.725,471.345,198.725ZM471.745,201.468C471.846,201.569,471.913,201.71,471.913,201.869C471.913,202.027,471.851,202.168,471.745,202.269C471.644,202.371,471.503,202.437,471.345,202.437C471.186,202.437,471.045,202.375,470.944,202.269C470.843,202.168,470.777,202.027,470.777,201.869C470.777,201.71,470.838,201.569,470.944,201.468C471.045,201.367,471.186,201.301,471.345,201.301C471.499,201.305,471.644,201.367,471.745,201.468ZM477.931,187.766C477.064,187.766,476.276,188.118,475.708,188.686C475.14,189.254,474.788,190.043,474.788,190.91C474.788,191.777,475.14,192.566,475.708,193.134C476.276,193.702,477.064,194.054,477.931,194.054C478.799,194.054,479.587,193.702,480.155,193.134C480.723,192.566,481.075,191.777,481.075,190.91C481.075,190.043,480.723,189.254,480.155,188.686C479.587,188.118,478.799,187.766,477.931,187.766ZM478.332,190.509C478.231,190.408,478.09,190.342,477.931,190.342C477.773,190.342,477.632,190.404,477.531,190.509C477.429,190.611,477.363,190.751,477.363,190.91C477.363,191.064,477.425,191.209,477.531,191.311C477.632,191.412,477.773,191.478,477.931,191.478C478.086,191.478,478.231,191.416,478.332,191.311C478.433,191.209,478.499,191.068,478.499,190.91C478.499,190.751,478.438,190.611,478.332,190.509ZM471.344,185.609C470.477,185.609,469.689,185.961,469.121,186.529C468.553,187.097,468.201,187.885,468.201,188.753C468.201,189.62,468.553,190.408,469.121,190.976C469.689,191.544,470.477,191.896,471.344,191.896C472.212,191.896,473,191.544,473.568,190.976C474.136,190.408,474.488,189.62,474.488,188.753C474.488,187.885,474.136,187.097,473.568,186.529C472.996,185.961,472.212,185.609,471.344,185.609ZM471.745,188.352C471.644,188.251,471.503,188.185,471.344,188.185C471.186,188.185,471.045,188.246,470.944,188.352C470.843,188.453,470.777,188.594,470.777,188.752C470.777,188.911,470.838,189.052,470.944,189.153C471.045,189.254,471.186,189.32,471.344,189.32C471.499,189.32,471.644,189.259,471.745,189.153C471.846,189.052,471.912,188.911,471.912,188.752C471.908,188.594,471.846,188.453,471.745,188.352ZM500.294,205.092C502.122,204.753,503.786,204.339,505.244,203.868C506.741,203.384,508.031,202.842,509.061,202.252C509.677,201.9,509.893,201.112,509.541,200.495C509.189,199.879,508.4,199.663,507.784,200.016C506.89,200.526,505.768,200.997,504.46,201.42C503.099,201.856,501.545,202.243,499.837,202.561C499.141,202.688,498.679,203.357,498.806,204.053C498.925,204.758,499.599,205.224,500.294,205.092ZM500.294,192.337C502.122,191.998,503.786,191.584,505.244,191.113C506.741,190.629,508.031,190.087,509.061,189.497C509.677,189.145,509.893,188.357,509.541,187.741C509.189,187.124,508.4,186.908,507.784,187.261C506.89,187.771,505.768,188.243,504.46,188.665C503.099,189.101,501.545,189.489,499.837,189.806C499.141,189.933,498.679,190.603,498.806,191.298C498.925,192.003,499.599,192.465,500.294,192.337ZM500.294,179.582C502.122,179.243,503.786,178.83,505.244,178.358C506.741,177.874,508.031,177.333,509.061,176.743C509.677,176.39,509.893,175.602,509.541,174.986C509.189,174.369,508.4,174.154,507.784,174.506C506.89,175.017,505.768,175.488,504.46,175.91C503.099,176.346,501.545,176.734,499.837,177.051C499.141,177.178,498.679,177.848,498.806,178.543C498.925,179.248,499.599,179.71,500.294,179.582ZM508.669,193.452C506.701,194.434,503.865,195.253,500.462,195.826C497.129,196.389,493.263,196.711,489.123,196.711C482.774,196.711,477.05,195.953,472.93,194.729C469.262,193.642,466.999,192.325,466.999,191.044L466.999,182.445C466.999,181.731,466.422,181.155,465.709,181.155C464.996,181.155,464.419,181.732,464.419,182.445L464.419,204.302C464.45,206.842,467.422,208.991,472.203,210.409C476.558,211.703,482.541,212.5,489.124,212.5C495.707,212.5,501.69,211.699,506.045,210.409C510.826,208.986,513.798,206.842,513.829,204.302L513.829,204.258L513.834,164.617L513.834,164.573C513.803,162.032,510.831,159.884,506.049,158.466C501.695,157.171,495.711,156.374,489.128,156.374C487.728,156.374,486.315,156.414,484.897,156.489C483.475,156.564,482.106,156.678,480.807,156.819C480.102,156.898,479.591,157.532,479.671,158.237C479.75,158.941,480.384,159.452,481.088,159.373C482.365,159.232,483.682,159.122,485.029,159.051C486.319,158.981,487.684,158.946,489.128,158.946C495.478,158.946,501.201,159.703,505.322,160.927C508.99,162.015,511.253,163.331,511.253,164.612C511.253,165.894,508.985,167.21,505.322,168.298C501.201,169.522,495.477,170.279,489.128,170.279C487.675,170.279,486.297,170.244,484.994,170.173C483.638,170.099,482.308,169.988,481.022,169.848C480.318,169.768,479.679,170.279,479.605,170.984C479.525,171.688,480.036,172.326,480.741,172.401C482.048,172.547,483.426,172.661,484.862,172.74C486.284,172.815,487.711,172.855,489.128,172.855C495.711,172.855,501.694,172.054,506.049,170.763C508.176,170.134,509.946,169.354,511.258,168.465L511.258,177.826C511.258,178.182,511.024,178.57,510.589,178.979C509.972,179.561,509.03,180.115,507.819,180.626C505.758,181.498,502.985,182.224,499.731,182.726C496.583,183.215,492.977,183.488,489.124,183.488C485.743,183.488,482.555,183.277,479.702,182.894C476.748,182.497,474.132,181.925,472.019,181.22C471.345,180.996,470.619,181.357,470.394,182.031C470.169,182.704,470.53,183.431,471.204,183.655C473.467,184.413,476.246,185.025,479.367,185.439C482.366,185.839,485.668,186.064,489.125,186.064C493.065,186.064,496.808,185.773,500.123,185.262C503.58,184.73,506.565,183.946,508.815,182.99C508.828,182.986,508.841,182.977,508.854,182.973C509.775,182.581,510.576,182.158,511.254,181.705L511.254,191.035C511.254,191.338,511.082,191.669,510.765,192.012C510.316,192.505,509.607,192.99,508.669,193.452ZM511.254,194.932C510.835,195.213,510.369,195.482,509.862,195.737C509.849,195.746,509.836,195.751,509.823,195.759C507.634,196.847,504.548,197.75,500.889,198.366C497.406,198.956,493.391,199.291,489.128,199.291C482.545,199.291,476.562,198.489,472.207,197.199C470.081,196.57,468.311,195.79,466.998,194.901L466.998,204.262C466.998,205.543,469.266,206.859,472.929,207.947C477.051,209.171,482.774,209.928,489.123,209.928C495.472,209.928,501.196,209.171,505.317,207.947C508.984,206.859,511.248,205.543,511.248,204.262L511.256,194.932L511.254,194.932ZM465.709,168.755C466.845,168.755,467.871,168.293,468.615,167.553C469.359,166.809,469.817,165.783,469.817,164.647C469.817,163.511,469.355,162.485,468.615,161.741C467.871,160.997,466.845,160.539,465.709,160.539C464.573,160.539,463.547,161.001,462.803,161.741C462.059,162.485,461.601,163.511,461.601,164.647C461.601,165.783,462.064,166.809,462.803,167.553C463.547,168.297,464.573,168.755,465.709,168.755ZM470.438,169.376C471.649,168.165,472.398,166.492,472.398,164.647C472.398,162.802,471.649,161.129,470.438,159.918C469.227,158.707,467.554,157.959,465.709,157.959C463.864,157.959,462.191,158.707,460.98,159.918C459.77,161.129,459.021,162.802,459.021,164.647C459.021,166.492,459.77,168.165,460.98,169.376C462.191,170.587,463.864,171.335,465.709,171.335C467.554,171.335,469.227,170.587,470.438,169.376ZM468.206,173.858C468.589,173.752,468.972,173.62,469.355,173.462C469.769,173.29,470.165,173.092,470.548,172.867C471.063,172.564,471.706,172.661,472.111,173.066L473.947,174.902L475.955,172.894L474.119,171.058C473.674,170.613,473.622,169.931,473.961,169.429C474.172,169.068,474.357,168.689,474.52,168.297C474.696,167.879,474.837,167.456,474.942,167.038C475.092,166.457,475.612,166.074,476.184,166.074L476.184,166.069L478.777,166.069L478.777,163.229L476.18,163.229C475.541,163.229,475.008,162.763,474.907,162.151C474.806,161.767,474.669,161.384,474.511,160.997C474.339,160.583,474.141,160.187,473.917,159.804C473.613,159.289,473.71,158.646,474.115,158.241L475.951,156.405L473.943,154.397L472.107,156.233C471.662,156.678,470.98,156.73,470.478,156.391C470.117,156.18,469.738,155.995,469.346,155.832C468.928,155.656,468.505,155.515,468.091,155.41C467.51,155.26,467.127,154.74,467.127,154.168L467.123,154.168L467.123,151.57L464.283,151.57L464.283,154.168C464.283,154.806,463.816,155.339,463.204,155.44C462.821,155.542,462.438,155.678,462.055,155.837C461.641,156.008,461.24,156.206,460.862,156.431C460.347,156.735,459.704,156.638,459.299,156.233L457.463,154.397L455.455,156.405L457.291,158.241C457.736,158.685,457.788,159.368,457.449,159.87C457.238,160.231,457.053,160.61,456.89,161.001C456.714,161.42,456.573,161.842,456.467,162.261C456.318,162.842,455.798,163.225,455.226,163.225L455.226,163.229L452.632,163.225L452.632,166.065L455.23,166.065C455.869,166.065,456.401,166.532,456.503,167.144C456.608,167.527,456.74,167.91,456.899,168.297C457.071,168.711,457.269,169.107,457.493,169.49C457.797,170.005,457.7,170.648,457.295,171.053L455.459,172.889L457.467,174.897L459.303,173.061C459.748,172.616,460.43,172.564,460.932,172.903C461.293,173.114,461.672,173.299,462.064,173.462C462.482,173.638,462.905,173.779,463.319,173.885C463.9,174.034,464.283,174.554,464.283,175.126L464.287,175.126L464.287,177.724L467.127,177.724L467.132,175.126C467.132,174.488,467.594,173.955,468.206,173.858ZM470.346,175.835C470.557,175.747,470.764,175.655,470.971,175.558L473.045,177.632C473.547,178.133,474.361,178.133,474.868,177.632L478.698,173.801C479.2,173.299,479.2,172.48,478.698,171.978L476.624,169.904C476.721,169.702,476.818,169.49,476.902,169.279C476.985,169.072,477.069,168.861,477.144,168.641L480.076,168.641C480.79,168.641,481.366,168.064,481.366,167.351L481.366,161.935C481.366,161.222,480.79,160.645,480.076,160.645L477.144,160.645C477.069,160.425,476.99,160.213,476.902,160.006C476.814,159.795,476.721,159.588,476.624,159.381L478.698,157.307C479.2,156.805,479.2,155.991,478.698,155.485L474.868,151.654C474.366,151.152,473.551,151.152,473.045,151.654L470.971,153.728C470.764,153.631,470.557,153.534,470.346,153.45C470.139,153.367,469.927,153.283,469.707,153.208L469.707,150.276C469.707,149.563,469.13,148.986,468.417,148.986L463.002,148.986C462.288,148.986,461.711,149.563,461.711,150.276L461.711,153.208C461.491,153.283,461.28,153.362,461.073,153.45C460.862,153.538,460.655,153.631,460.448,153.728L458.374,151.654C457.872,151.152,457.057,151.152,456.551,151.654L452.721,155.485C452.219,155.987,452.219,156.805,452.721,157.307L454.794,159.381C454.698,159.584,454.605,159.795,454.517,160.006C454.433,160.213,454.35,160.425,454.275,160.645L451.342,160.645C450.629,160.645,450.052,161.222,450.052,161.935L450.052,167.351C450.052,168.064,450.629,168.641,451.342,168.641L454.275,168.641C454.35,168.861,454.429,169.072,454.517,169.279C454.605,169.49,454.698,169.697,454.794,169.904L452.721,171.978C452.219,172.48,452.219,173.295,452.721,173.801L456.551,177.632C457.053,178.133,457.872,178.133,458.374,177.632L460.448,175.558C460.655,175.655,460.862,175.751,461.073,175.835C461.28,175.919,461.491,176.002,461.711,176.077L461.711,179.01C461.711,179.723,462.288,180.3,463.002,180.3L468.417,180.3C469.13,180.3,469.707,179.723,469.707,179.01L469.703,176.077C469.923,176.002,470.139,175.923,470.346,175.835ZM482.225,133.161L538.628,133.161C539.341,133.161,539.918,132.585,539.918,131.871C539.918,131.158,539.341,130.581,538.628,130.581L482.225,130.581C481.512,130.581,480.935,131.158,480.935,131.871C480.935,132.585,481.512,133.161,482.225,133.161Z" fill="#8F95B2" transform="translate(335.957,165.5) translate(-495.957,-165.5)"/>
    <path id="v1g" d="M526.463,181.114L523.843,188.75L521.059,188.75L518.444,181.114L521.005,181.114L522.412,186.374L522.491,186.374L523.903,181.114L526.463,181.114ZM528.284,188.894C527.926,188.894,527.62,188.768,527.365,188.516C527.113,188.264,526.988,187.96,526.992,187.602C526.988,187.25,527.113,186.95,527.365,186.702C527.62,186.45,527.926,186.324,528.284,186.324C528.622,186.324,528.921,186.45,529.179,186.702C529.441,186.95,529.574,187.25,529.577,187.602C529.574,187.84,529.511,188.057,529.388,188.253C529.269,188.448,529.111,188.604,528.916,188.72C528.723,188.836,528.513,188.894,528.284,188.894ZM538.236,178.568L538.236,188.75L535.78,188.75L535.78,180.865L535.721,180.865L533.444,182.257L533.444,180.129L535.954,178.568L538.236,178.568Z" fill="#2c79dd" opacity="1" transform="translate(368.34,183.731) translate(-528.34,-183.731)" style="animation: 12.2s linear infinite both v1g_o;"/>
    <path id="v2-1" d="M526.463,181.114L523.843,188.75L521.059,188.75L518.444,181.114L521.005,181.114L522.412,186.374L522.491,186.374L523.903,181.114L526.463,181.114ZM528.284,188.894C527.926,188.894,527.62,188.768,527.365,188.516C527.113,188.264,526.988,187.96,526.992,187.602C526.988,187.25,527.113,186.95,527.365,186.702C527.62,186.45,527.926,186.324,528.284,186.324C528.622,186.324,528.921,186.45,529.179,186.702C529.441,186.95,529.574,187.25,529.577,187.602C529.574,187.84,529.511,188.057,529.388,188.253C529.269,188.448,529.111,188.604,528.916,188.72C528.723,188.836,528.513,188.894,528.284,188.894ZM533.528,188.75L533.528,186.98L537.242,183.729C537.52,183.477,537.757,183.246,537.953,183.038C538.148,182.826,538.297,182.613,538.4,182.401C538.503,182.186,538.554,181.952,538.554,181.7C538.554,181.419,538.493,181.178,538.37,180.979C538.248,180.777,538.079,180.621,537.863,180.512C537.648,180.403,537.401,180.348,537.123,180.348C536.841,180.348,536.594,180.406,536.382,180.522C536.17,180.635,536.004,180.799,535.885,181.014C535.769,181.23,535.711,181.491,535.711,181.8L533.379,181.8C533.379,181.107,533.535,180.509,533.846,180.005C534.158,179.501,534.595,179.113,535.159,178.842C535.725,178.567,536.383,178.429,537.132,178.429C537.905,178.429,538.576,178.558,539.146,178.817C539.716,179.075,540.157,179.437,540.468,179.901C540.783,180.361,540.941,180.897,540.941,181.506C540.941,181.894,540.863,182.279,540.707,182.66C540.551,183.041,540.271,183.462,539.867,183.923C539.466,184.383,538.896,184.935,538.157,185.578L536.939,186.702L536.939,186.766L541.065,186.766L541.065,188.75L533.528,188.75Z" fill="#35AA00" opacity="0" transform="translate(369.755,183.661) translate(-529.755,-183.661)" style="animation: 12.2s linear infinite both v2-1_o;"/>
    <path d="M464.442,106.5L464.442,96.3182L468.339,96.3182C469.075,96.3182,469.687,96.4342,470.174,96.6662C470.665,96.8949,471.031,97.2081,471.273,97.6058C471.518,98.0036,471.641,98.4543,471.641,98.9581C471.641,99.3724,471.561,99.727,471.402,100.022C471.243,100.314,471.029,100.551,470.761,100.733C470.492,100.915,470.192,101.046,469.861,101.126L469.861,101.225C470.222,101.245,470.568,101.356,470.9,101.558C471.235,101.757,471.508,102.039,471.72,102.403C471.932,102.768,472.038,103.209,472.038,103.726C472.038,104.253,471.911,104.727,471.656,105.148C471.4,105.565,471.016,105.895,470.502,106.137C469.988,106.379,469.342,106.5,468.563,106.5L464.442,106.5ZM466.286,104.959L468.27,104.959C468.939,104.959,469.422,104.831,469.717,104.576C470.015,104.317,470.164,103.986,470.164,103.582C470.164,103.28,470.089,103.008,469.94,102.766C469.791,102.521,469.579,102.329,469.304,102.19C469.029,102.047,468.701,101.976,468.32,101.976L466.286,101.976L466.286,104.959ZM466.286,100.648L468.111,100.648C468.429,100.648,468.716,100.59,468.971,100.474C469.226,100.355,469.427,100.188,469.572,99.9723C469.722,99.7536,469.796,99.495,469.796,99.1967C469.796,98.8023,469.657,98.4775,469.379,98.2223C469.103,97.9671,468.694,97.8395,468.151,97.8395L466.286,97.8395L466.286,100.648ZM475.761,106.654C475.277,106.654,474.841,106.568,474.453,106.396C474.069,106.22,473.764,105.961,473.539,105.62C473.316,105.279,473.205,104.858,473.205,104.357C473.205,103.926,473.285,103.57,473.444,103.288C473.603,103.007,473.82,102.781,474.095,102.612C474.37,102.443,474.68,102.316,475.025,102.229C475.373,102.14,475.733,102.075,476.104,102.036C476.551,101.989,476.914,101.948,477.193,101.911C477.471,101.871,477.673,101.812,477.799,101.732C477.928,101.649,477.993,101.522,477.993,101.349L477.993,101.32C477.993,100.945,477.882,100.655,477.66,100.45C477.438,100.244,477.118,100.141,476.7,100.141C476.26,100.141,475.91,100.237,475.651,100.43C475.396,100.622,475.224,100.849,475.134,101.111L473.454,100.872C473.587,100.408,473.805,100.02,474.11,99.7088C474.415,99.3939,474.788,99.1586,475.229,99.0028C475.67,98.8438,476.157,98.7642,476.691,98.7642C477.058,98.7642,477.425,98.8073,477.789,98.8935C478.154,98.9796,478.487,99.1222,478.789,99.321C479.09,99.5166,479.332,99.7834,479.514,100.121C479.7,100.46,479.793,100.882,479.793,101.389L479.793,106.5L478.063,106.5L478.063,105.451L478.003,105.451C477.894,105.663,477.74,105.862,477.541,106.048C477.345,106.23,477.098,106.377,476.8,106.49C476.505,106.599,476.159,106.654,475.761,106.654ZM476.228,105.332C476.589,105.332,476.903,105.26,477.168,105.118C477.433,104.972,477.637,104.78,477.779,104.541C477.925,104.303,477.998,104.042,477.998,103.761L477.998,102.861C477.942,102.907,477.846,102.95,477.71,102.99C477.577,103.03,477.428,103.065,477.262,103.094C477.097,103.124,476.932,103.151,476.77,103.174C476.608,103.197,476.467,103.217,476.347,103.234C476.079,103.27,475.839,103.33,475.627,103.413C475.414,103.496,475.247,103.612,475.124,103.761C475.002,103.906,474.941,104.095,474.941,104.327C474.941,104.659,475.061,104.909,475.303,105.078C475.545,105.247,475.854,105.332,476.228,105.332ZM484.933,106.649C484.171,106.649,483.517,106.482,482.97,106.147C482.426,105.812,482.007,105.35,481.712,104.76C481.42,104.167,481.274,103.484,481.274,102.712C481.274,101.936,481.423,101.252,481.722,100.658C482.02,100.062,482.441,99.5978,482.985,99.2663C483.531,98.9316,484.178,98.7642,484.923,98.7642C485.543,98.7642,486.092,98.8786,486.569,99.1072C487.05,99.3326,487.432,99.6525,487.718,100.067C488.003,100.478,488.165,100.958,488.205,101.509L486.485,101.509C486.415,101.141,486.249,100.834,485.987,100.589C485.729,100.34,485.383,100.216,484.948,100.216C484.58,100.216,484.257,100.315,483.979,100.514C483.7,100.71,483.483,100.991,483.328,101.359C483.175,101.727,483.099,102.168,483.099,102.682C483.099,103.202,483.175,103.65,483.328,104.024C483.48,104.395,483.694,104.682,483.969,104.884C484.247,105.083,484.574,105.183,484.948,105.183C485.213,105.183,485.45,105.133,485.659,105.033C485.871,104.931,486.049,104.783,486.191,104.591C486.334,104.399,486.432,104.165,486.485,103.89L488.205,103.89C488.162,104.43,488.003,104.909,487.727,105.327C487.452,105.741,487.078,106.066,486.604,106.301C486.13,106.533,485.573,106.649,484.933,106.649ZM491.323,104.104L491.318,101.931L491.607,101.931L494.351,98.8636L496.454,98.8636L493.078,102.622L492.705,102.622L491.323,104.104ZM489.683,106.5L489.683,96.3182L491.482,96.3182L491.482,106.5L489.683,106.5ZM494.475,106.5L491.989,103.025L493.202,101.757L496.628,106.5L494.475,106.5ZM500.719,106.649C499.954,106.649,499.293,106.49,498.736,106.172C498.182,105.85,497.756,105.396,497.458,104.81C497.16,104.22,497.011,103.525,497.011,102.727C497.011,101.941,497.16,101.252,497.458,100.658C497.76,100.062,498.181,99.5978,498.721,99.2663C499.261,98.9316,499.896,98.7642,500.625,98.7642C501.096,98.7642,501.54,98.8404,501.957,98.9929C502.378,99.142,502.75,99.3741,503.071,99.6889C503.396,100.004,503.651,100.405,503.837,100.892C504.022,101.376,504.115,101.953,504.115,102.622L504.115,103.174L497.856,103.174L497.856,101.961L502.39,101.961C502.387,101.616,502.312,101.31,502.166,101.041C502.02,100.769,501.817,100.556,501.555,100.4C501.296,100.244,500.995,100.166,500.65,100.166C500.282,100.166,499.959,100.256,499.68,100.435C499.402,100.61,499.185,100.842,499.029,101.131C498.877,101.416,498.799,101.729,498.795,102.07L498.795,103.129C498.795,103.573,498.877,103.955,499.039,104.273C499.201,104.588,499.429,104.83,499.72,104.999C500.012,105.164,500.353,105.247,500.744,105.247C501.006,105.247,501.243,105.211,501.455,105.138C501.667,105.062,501.851,104.951,502.007,104.805C502.163,104.659,502.281,104.478,502.36,104.263L504.04,104.452C503.934,104.896,503.732,105.284,503.434,105.615C503.139,105.943,502.761,106.198,502.3,106.381C501.84,106.56,501.313,106.649,500.719,106.649ZM507.437,102.026L507.437,106.5L505.638,106.5L505.638,98.8636L507.358,98.8636L507.358,100.161L507.447,100.161C507.623,99.7337,507.903,99.3939,508.287,99.142C508.675,98.8902,509.154,98.7642,509.724,98.7642C510.251,98.7642,510.71,98.8769,511.101,99.1023C511.496,99.3277,511.801,99.6541,512.016,100.082C512.235,100.509,512.343,101.028,512.339,101.638L512.339,106.5L510.54,106.5L510.54,101.916C510.54,101.406,510.407,101.006,510.142,100.718C509.88,100.43,509.517,100.286,509.053,100.286C508.738,100.286,508.458,100.355,508.213,100.494C507.971,100.63,507.78,100.827,507.641,101.086C507.505,101.344,507.437,101.658,507.437,102.026ZM517.003,106.634C516.403,106.634,515.866,106.48,515.392,106.172C514.918,105.864,514.543,105.416,514.268,104.83C513.993,104.243,513.856,103.53,513.856,102.692C513.856,101.843,513.995,101.127,514.273,100.544C514.555,99.9574,514.934,99.5149,515.412,99.2166C515.889,98.915,516.421,98.7642,517.008,98.7642C517.455,98.7642,517.823,98.8404,518.111,98.9929C518.4,99.142,518.628,99.3227,518.797,99.5348C518.966,99.7436,519.097,99.9408,519.19,100.126L519.265,100.126L519.265,96.3182L521.069,96.3182L521.069,106.5L519.3,106.5L519.3,105.297L519.19,105.297C519.097,105.482,518.963,105.68,518.787,105.888C518.612,106.094,518.38,106.27,518.091,106.415C517.803,106.561,517.44,106.634,517.003,106.634ZM517.505,105.158C517.886,105.158,518.211,105.055,518.479,104.849C518.748,104.641,518.952,104.351,519.091,103.979C519.23,103.608,519.3,103.176,519.3,102.682C519.3,102.188,519.23,101.759,519.091,101.394C518.955,101.03,518.753,100.746,518.484,100.544C518.219,100.342,517.893,100.241,517.505,100.241C517.104,100.241,516.769,100.345,516.501,100.554C516.232,100.763,516.03,101.051,515.894,101.419C515.758,101.787,515.69,102.208,515.69,102.682C515.69,103.159,515.758,103.585,515.894,103.96C516.033,104.331,516.237,104.624,516.506,104.839C516.777,105.052,517.11,105.158,517.505,105.158Z" fill="#696F8C" transform="translate(332.755,101.486) translate(-492.755,-101.486)"/>
    <path d="M538.446,171.518L518.765,171.518C518.051,171.518,517.475,170.942,517.475,170.228C517.475,169.515,518.051,168.938,518.765,168.938L538.446,168.938C539.159,168.938,539.736,169.515,539.736,170.228C539.736,170.942,539.159,171.518,538.446,171.518Z" fill="#8F95B2" transform="translate(368.606,170.228) translate(-528.606,-170.228)"/>
    <path d="M538.446,164.861L518.765,164.861C518.051,164.861,517.475,164.284,517.475,163.575C517.475,162.862,518.051,162.285,518.765,162.285L538.446,162.281C539.159,162.281,539.736,162.858,539.736,163.571C539.736,164.284,539.159,164.861,538.446,164.861Z" fill="#8F95B2" transform="translate(368.606,163.571) translate(-528.606,-163.571)"/>
    <path d="M538.446,158.208L518.765,158.208C518.051,158.208,517.475,157.636,517.475,156.922C517.475,156.209,518.051,155.632,518.765,155.632L538.446,155.628C539.159,155.628,539.736,156.205,539.736,156.918C539.736,157.631,539.159,158.208,538.446,158.208Z" fill="#8F95B2" transform="translate(368.606,156.918) translate(-528.606,-156.918)"/>
    <g id="arc1" opacity="1" fill="none" transform="translate(189.598,181) translate(-49.6515,-1)" style="animation: 12.2s linear infinite both arc1_o;">
        <path d="M398.25,181L300.947,181" stroke="#8f95b2" stroke-width="2" stroke-linecap="round" stroke-linejoin="round" stroke-dasharray="4 4" stroke-dashoffset="0" transform="translate(49.6515,1) translate(-349.599,-181)" style="animation: 12.2s linear infinite both a5_do;"/>
    </g>
    <path id="point" d="M298.723,180.352C298.426,180.71,298.426,181.29,298.723,181.648L301.281,184.732C301.578,185.089,302.059,185.089,302.356,184.732C302.653,184.374,302.653,183.793,302.356,183.435L301.096,181.917L301.096,180.083L302.356,178.565C302.653,178.207,302.653,177.626,302.356,177.268C302.059,176.911,301.578,176.911,301.281,177.268L298.723,180.352Z" fill="#8F95B2" transform="translate(140.539,181) translate(-300.539,-181)" style="animation: 12.2s linear infinite both point_f;"/>
    <g transform="translate(200.402,141) translate(-62.9015,-1)">
        <path d="M298.5,141L422.303,141" stroke="#8F95B2" stroke-width="2" stroke-linecap="round" stroke-linejoin="round" stroke-dasharray="4 4" stroke-dashoffset="0" transform="translate(62.9015,1) translate(-360.401,-141)" style="animation: 12.2s linear infinite both a6_do;"/>
    </g>
    <path d="M424.477,140.352C424.841,140.71,424.841,141.29,424.477,141.648L421.341,144.732C420.977,145.09,420.387,145.09,420.023,144.732C419.659,144.374,419.659,143.793,420.023,143.435L421.567,141.917L421.567,140.083L420.023,138.565C419.659,138.207,419.659,137.626,420.023,137.268C420.387,136.911,420.977,136.911,421.341,137.268L424.477,140.352Z" fill="#8F95B2" transform="translate(262.25,141) translate(-422.25,-141)"/>
    <path id="v1-2" d="M411.477,176.114L408.857,183.75L406.073,183.75L403.458,176.114L406.018,176.114L407.425,181.374L407.505,181.374L408.917,176.114L411.477,176.114ZM413.298,183.894C412.94,183.894,412.633,183.768,412.378,183.516C412.126,183.264,412.002,182.96,412.005,182.602C412.002,182.25,412.126,181.95,412.378,181.702C412.633,181.45,412.94,181.324,413.298,181.324C413.636,181.324,413.934,181.45,414.193,181.702C414.455,181.95,414.587,182.25,414.591,182.602C414.587,182.84,414.524,183.057,414.402,183.253C414.282,183.448,414.125,183.604,413.929,183.72C413.737,183.836,413.527,183.894,413.298,183.894ZM423.25,173.568L423.25,183.75L420.794,183.75L420.794,175.865L420.734,175.865L418.457,177.257L418.457,175.129L420.968,173.568L423.25,173.568Z" fill="#2c79e3" opacity="1" transform="translate(253.354,178.731) translate(-413.354,-178.731)" style="animation: 12.2s linear infinite both v1-2_o;"/>
    <path id="v2-2" d="M411.477,176.114L408.857,183.75L406.073,183.75L403.458,176.114L406.018,176.114L407.425,181.374L407.505,181.374L408.917,176.114L411.477,176.114ZM413.298,183.894C412.94,183.894,412.633,183.768,412.378,183.516C412.126,183.264,412.002,182.96,412.005,182.602C412.002,182.25,412.126,181.95,412.378,181.702C412.633,181.45,412.94,181.324,413.298,181.324C413.636,181.324,413.934,181.45,414.193,181.702C414.455,181.95,414.587,182.25,414.591,182.602C414.587,182.84,414.524,183.057,414.402,183.253C414.282,183.448,414.125,183.604,413.929,183.72C413.737,183.836,413.527,183.894,413.298,183.894ZM418.542,183.75L418.542,181.98L422.256,178.729C422.534,178.477,422.771,178.246,422.966,178.038C423.162,177.826,423.311,177.613,423.414,177.401C423.517,177.186,423.568,176.952,423.568,176.7C423.568,176.419,423.507,176.178,423.384,175.979C423.261,175.777,423.092,175.621,422.877,175.512C422.662,175.403,422.415,175.348,422.136,175.348C421.854,175.348,421.608,175.406,421.395,175.522C421.183,175.635,421.018,175.799,420.898,176.014C420.782,176.23,420.724,176.491,420.724,176.8L418.393,176.8C418.393,176.107,418.548,175.509,418.86,175.005C419.171,174.501,419.609,174.113,420.172,173.842C420.739,173.567,421.397,173.429,422.146,173.429C422.918,173.429,423.59,173.558,424.16,173.817C424.73,174.075,425.171,174.437,425.482,174.901C425.797,175.361,425.954,175.897,425.954,176.506C425.954,176.894,425.876,177.279,425.721,177.66C425.565,178.041,425.285,178.462,424.881,178.923C424.479,179.383,423.909,179.935,423.17,180.578L421.952,181.702L421.952,181.766L426.079,181.766L426.079,183.75L418.542,183.75Z" fill="#35AA00" opacity="0" transform="translate(254.769,178.661) translate(-414.769,-178.661)" style="animation: 12.2s linear infinite both v2-2_o;"/>
    <g id="preloader" opacity="0" fill="#35aa00" stroke="none" transform="translate(88.956,169.058) scale(0.47199,0.47199) translate(-34.0916,-34.9999)" style="animation: 12.2s linear infinite both preloader_o;">
        <g transform="translate(33.5722,35) translate(-33.8489,-35)">
            <g id="p1" opacity="1" transform="translate(33.8685,7) translate(-49.5,-22)">
                <rect id="spinner-12" width="6" height="14" rx="2" ry="2" opacity="1" transform="translate(0,-30) translate(46.5,45)" style="animation: 12.2s linear infinite both spinner-12_o;"/>
            </g>
            <g id="p2" transform="translate(50.422,12.0536) rotate(36) translate(-49.5,-22)">
                <rect id="spinner-13" width="6" height="14" rx="2" ry="2" opacity="1" transform="translate(0,-30) translate(46.5,45)" style="animation: 12.2s linear infinite both spinner-13_o;"/>
            </g>
            <g id="p3" transform="translate(60.8436,25.872) rotate(72) translate(-49.5,-22)">
                <rect id="spinner-14" width="6" height="14" rx="2" ry="2" opacity="1" transform="translate(0,-30) translate(46.5,45)" style="animation: 12.2s linear infinite both spinner-14_o;"/>
            </g>
            <g id="p4" transform="translate(61.1526,43.1769) rotate(108) translate(-49.5,-22)">
                <rect id="spinner-15" width="6" height="14" rx="2" ry="2" opacity="1" transform="translate(0,-30) translate(46.5,45)" style="animation: 12.2s linear infinite both spinner-15_o;"/>
            </g>
            <g id="p5" transform="translate(51.231,57.3586) rotate(144) translate(-49.5,-22)">
                <rect id="spinner-16" width="6" height="14" rx="2" ry="2" opacity="1" transform="translate(0,-30) translate(46.5,45)" style="animation: 12.2s linear infinite both spinner-16_o;"/>
            </g>
            <g id="p6" transform="translate(34.8685,63) rotate(180) translate(-49.5,-22)">
                <rect id="spinner-17" width="6" height="14" rx="2" ry="2" opacity="1" transform="translate(0,-30) translate(46.5,45)" style="animation: 12.2s linear infinite both spinner-17_o;"/>
            </g>
            <g id="p6-2" transform="translate(18.3151,57.9464) rotate(-144) translate(-49.5,-22)">
                <rect id="spinner-18" width="6" height="14" rx="2" ry="2" opacity="1" transform="translate(0,-30) translate(46.5,45)" style="animation: 12.2s linear infinite both spinner-18_o;"/>
            </g>
            <g id="p7" transform="translate(7.89346,44.128) rotate(-108) translate(-49.5,-22)">
                <rect id="spinner-19" width="6" height="14" rx="2" ry="2" opacity="1" transform="translate(0,-30) translate(46.5,45)" style="animation: 12.2s linear infinite both spinner-19_o;"/>
            </g>
            <g id="p8" transform="translate(7.58445,26.8231) rotate(-72) translate(-49.5,-22)">
                <rect id="spinner-20" width="6" height="14" rx="2" ry="2" opacity="1" transform="translate(0,-30) translate(46.5,45)" style="animation: 12.2s linear infinite both spinner-20_o;"/>
            </g>
            <g id="p9" transform="translate(17.506,12.6414) rotate(-36) translate(-49.5,-22)">
                <rect id="spinner-21" width="6" height="14" rx="2" ry="2" opacity="1" transform="translate(0,-30) translate(46.5,45)" style="animation: 12.2s linear infinite both spinner-21_o;"/>
            </g>
        </g>
    </g>
    <g id="green-line" opacity="0" transform="translate(189.747,181) translate(-49.6513,-1.00006)" style="animation: 12.2s linear infinite both green-line_o;">
        <path d="M99.25,0.999897L1.94749,1.00002" stroke="#35AA00" stroke-width="2" stroke-linecap="round" stroke-linejoin="round" stroke-dasharray="4 4" fill="none" stroke-dashoffset="0" transform="translate(49.6512,1.00006) translate(-50.5987,-0.999958)" style="animation: 12.2s linear infinite both a7_do;"/>
    </g>
    <path id="bg-progress" fill="#e5f0ff" stroke="none" d="M-4,0L-52,0C-52.5523,0,-53,0.447715,-53,1L-53,2C-53,2.55228,-52.5523,3,-52,3L-4,3C-3.44772,3,-3,2.55228,-3,2L-3,1C-3,0.447715,-3.44772,0,-4,0ZM49,0L1,0C0.447715,0,0,0.447715,0,1L0,2C0,2.55228,0.447715,3,1,3L49,3C49.5523,3,50,2.55228,50,2L50,1C50,0.447715,49.5523,0,49,0ZM102,0L54,0C53.4477,0,53,0.447715,53,1L53,2C53,2.55228,53.4477,3,54,3L102,3C102.552,3,103,2.55228,103,2L103,1C103,0.447715,102.552,0,102,0Z" fill-rule="evenodd" transform="translate(149.124,256) translate(-79,-5)"/>
    <rect id="progress-1" width="0" height="3" fill="#5dcc47" rx="1" stroke="none" transform="translate(39.585,254.5) translate(-22.4608,-3.5)" style="animation: 12.2s linear infinite both progress-1_w;"/>
    <rect id="progress-2" width="0" height="3" fill="#5dcc47" rx="1" stroke="none" transform="translate(92.585,254.5) translate(-22.4608,-3.5)" style="animation: 12.2s linear infinite both progress-2_w;"/>
    <rect id="progress-3" width="0" height="3" fill="#5dcc47" rx="1" stroke="none" transform="translate(145.585,254.5) translate(-22.4608,-3.5)" style="animation: 12.2s linear infinite both progress-3_w;"/>
</svg>
