<svg width="48" height="48" viewBox="0 0 48 48" fill="none" xmlns="http://www.w3.org/2000/svg">
<g clip-path="url(#clip0_4922_714)">
<path d="M14.0525 24C14.0525 24.7879 13.4137 25.4267 12.6259 25.4267C11.838 25.4267 11.1992 24.7879 11.1992 24C11.1992 23.212 11.838 22.5732 12.6259 22.5732C13.4137 22.5732 14.0525 23.212 14.0525 24Z" fill="#3D0F9A"/>
<path d="M35.3739 22.5732H26.8407C26.331 22.5732 25.86 22.8453 25.6052 23.2867C25.3504 23.7281 25.3504 24.2718 25.6052 24.7132C25.86 25.1546 26.331 25.4267 26.8407 25.4267H35.3739C35.8836 25.4267 36.3547 25.1547 36.6095 24.7132C36.8644 24.2718 36.8644 23.7281 36.6095 23.2867C36.3547 22.8453 35.8836 22.5732 35.3739 22.5732Z" fill="#FF5A00"/>
<path d="M12.6275 36.1602C12.2475 36.1566 11.8819 36.3048 11.6117 36.5718C11.3414 36.8388 11.1887 37.2026 11.1875 37.5824C11.1864 37.9623 11.3367 38.3269 11.6053 38.5957C11.8741 38.8643 12.2387 39.0146 12.6186 39.0135C12.9984 39.0122 13.3622 38.8596 13.6292 38.5893C13.8963 38.3191 14.0444 37.9535 14.0408 37.5735C14.0373 37.1997 13.8873 36.8423 13.623 36.578C13.3588 36.3136 13.0013 36.1637 12.6275 36.1602Z" fill="#3D0F9A"/>
<path d="M35.3729 36.16H26.8397C26.365 36.2061 25.9447 36.4862 25.7195 36.9069C25.4945 37.3273 25.4945 37.8327 25.7195 38.2531C25.9447 38.6737 26.365 38.9539 26.8397 39H35.3729C35.7734 39.0389 36.1717 38.9069 36.4696 38.6364C36.7674 38.3659 36.9374 37.9823 36.9374 37.58C36.9374 37.1777 36.7674 36.7941 36.4696 36.5236C36.1716 36.2531 35.7734 36.1211 35.3729 36.16Z" fill="#FF5A00"/>
<path d="M12.626 11.8933C13.0043 11.8933 13.3672 11.743 13.6348 11.4755C13.9023 11.208 14.0526 10.845 14.0526 10.4668C14.0526 10.0883 13.9022 9.72552 13.6348 9.45784C13.3673 9.19034 13.0043 9.04004 12.626 9.04004C12.2476 9.04004 11.8848 9.19035 11.6171 9.45784C11.3496 9.72549 11.1993 10.0883 11.1993 10.4668C11.1957 10.8461 11.3449 11.2111 11.6132 11.4794C11.8815 11.7478 12.2465 11.8969 12.626 11.8933Z" fill="#3D0F9A"/>
<path d="M26.8397 11.893H35.3729C35.7734 11.9319 36.1717 11.7999 36.4696 11.5294C36.7674 11.2591 36.9374 10.8753 36.9374 10.473C36.9374 10.0707 36.7674 9.68711 36.4696 9.41663C36.1716 9.14631 35.7734 9.01427 35.3729 9.05303H26.8397C26.365 9.09913 25.9447 9.37944 25.7195 9.79991C25.4945 10.2206 25.4945 10.7257 25.7195 11.1462C25.9447 11.5668 26.365 11.8471 26.8397 11.893Z" fill="#FF5A00"/>
<rect x="3.75" y="3.5" width="40.582" height="40.834" rx="5" stroke="#3D0F9A" stroke-width="2"/>
<rect x="4" y="15.75" width="39.75" height="2" fill="#3D0F9A"/>
<rect x="4" y="29.79" width="39.75" height="2" fill="#3D0F9A"/>
</g>
<defs>
<clipPath id="clip0_4922_714">
<rect width="48" height="48" fill="white"/>
</clipPath>
</defs>
</svg>
