<svg width="48" height="48" viewBox="0 0 48 48" fill="none" xmlns="http://www.w3.org/2000/svg">
<path d="M12.4996 9.91883C12.4856 9.36909 12.1455 8.88222 11.6353 8.67722C11.1252 8.47223 10.5405 8.59336 10.1515 8.98006C9.76475 9.36909 9.64361 9.95381 9.84861 10.4639C10.0536 10.9741 10.5405 11.3142 11.0902 11.3282C11.4676 11.3375 11.831 11.1908 12.0966 10.9252C12.3622 10.6596 12.5089 10.2962 12.4996 9.91883Z" fill="#3D0F9A"/>
<path d="M42.4895 5.50782C41.7986 4.82204 40.8601 4.43877 39.8856 4.4439H8.10917C6.08275 4.4439 4.44141 6.08532 4.44141 8.11167V39.8881C4.44141 41.9145 6.08283 43.5559 8.10917 43.5559H39.8856C41.912 43.5559 43.5534 41.9144 43.5534 39.8881V8.11167C43.5585 7.13714 43.1753 6.19869 42.4894 5.50775L42.4895 5.50782ZM41.5614 39.888C41.5683 40.3348 41.393 40.7645 41.0784 41.0808C40.7622 41.3953 40.3325 41.5706 39.8856 41.5637H8.10921C7.66232 41.5706 7.23266 41.3953 6.91641 41.0808C6.60188 40.7645 6.42658 40.3348 6.43343 39.888V8.11152C6.41968 7.66294 6.59156 7.22807 6.90951 6.91182C7.22576 6.59385 7.66059 6.42199 8.10921 6.43574H39.8856C40.3342 6.42199 40.7691 6.59387 41.0853 6.91182C41.4033 7.22807 41.5752 7.6629 41.5614 8.11152V39.888Z" fill="#3D0F9A"/>
<path d="M19.0925 20.6136C18.9257 20.479 18.7112 20.4173 18.4981 20.4426C18.2849 20.4664 18.09 20.5743 17.9569 20.7426L13.6284 26.1463C13.3999 26.4393 13.3999 26.8515 13.6284 27.1446L17.9554 32.5483H17.9568C18.0829 32.732 18.2792 32.8567 18.5008 32.8904C18.7209 32.9241 18.9466 32.8638 19.1219 32.7264C19.2972 32.5876 19.4079 32.3829 19.4276 32.1599C19.4458 31.937 19.3715 31.7169 19.2229 31.5514L15.3039 26.6553L19.2229 21.7493C19.3589 21.5838 19.422 21.3679 19.3981 21.1548C19.3729 20.9403 19.2635 20.7454 19.0925 20.6136L19.0925 20.6136Z" fill="#FF5A00"/>
<path d="M30.0438 20.7426C29.9106 20.5743 29.7157 20.4664 29.5026 20.4426C29.2895 20.4173 29.075 20.479 28.9081 20.6136C28.7371 20.7454 28.6277 20.9403 28.6025 21.1548C28.5786 21.3679 28.6417 21.5839 28.7777 21.7493L32.6967 26.6553L28.7777 31.5514C28.6291 31.7169 28.5548 31.937 28.573 32.1599C28.5927 32.3829 28.7034 32.5876 28.8787 32.7264C29.0539 32.8638 29.2797 32.9241 29.4998 32.8904C29.7213 32.8568 29.9176 32.732 30.0438 32.5483L34.3708 27.1446H34.3722C34.6007 26.8516 34.6007 26.4393 34.3722 26.1463L30.0438 20.7426Z" fill="#FF5A00"/>
<path d="M25.8623 20.5046C25.4389 20.3812 24.9944 20.6209 24.8655 21.043L21.5747 31.8307C21.5074 32.0368 21.527 32.2611 21.6265 32.4532C21.7275 32.6452 21.9013 32.7897 22.1088 32.8527C22.3163 32.9158 22.5407 32.892 22.73 32.7882C22.9207 32.6845 23.0608 32.5078 23.1197 32.2989L26.4106 21.5017C26.5325 21.074 26.2872 20.6296 25.8623 20.5048L25.8623 20.5046Z" fill="#FF5A00"/>
</svg>
