<svg width="46" height="46" viewBox="0 0 46 46" fill="none" xmlns="http://www.w3.org/2000/svg">
<g clip-path="url(#clip0_4922_700)">
<path d="M45 20.2161V25.7882C45 27.0285 43.9937 28.0411 42.7471 28.0411H40.5212C40.2395 28.0411 39.9848 28.215 39.9062 28.4656C39.6142 29.3725 39.2498 30.2567 38.8191 31.0995C38.6969 31.3335 38.7549 31.6358 38.9516 31.8367L40.5253 33.4104C41.4053 34.2842 41.4053 35.7171 40.5253 36.5909L36.5807 40.5356C35.7006 41.4156 34.2739 41.4156 33.4001 40.5356L31.8264 38.9619C31.6297 38.761 31.3274 38.7072 31.0892 38.8293C30.2465 39.258 29.3602 39.6245 28.4553 39.9164C28.2069 39.9951 28.0308 40.2498 28.0308 40.5314V42.7574C28.0308 43.9977 27.0245 45.0103 25.7779 45.0103L20.2182 45.0082C18.9778 45.0082 17.9653 44.0019 17.9653 42.7553V40.5294C17.9653 40.2477 17.7913 39.993 17.5408 39.9144C16.6338 39.6224 15.7497 39.258 14.9069 38.8273C14.6729 38.7051 14.3706 38.7631 14.1697 38.9598L12.596 40.5335C11.716 41.4135 10.2893 41.4135 9.41545 40.5335L5.47082 36.5889C4.59077 35.7151 4.59077 34.2821 5.47082 33.4083L7.05075 31.8284C7.25161 31.6275 7.30545 31.3252 7.18328 31.0912C6.74843 30.2546 6.38191 29.3684 6.09204 28.4676C6.01336 28.2192 5.75866 28.0431 5.47704 28.0431H3.25106C2.01073 28.0431 0.998164 27.0368 0.998164 25.7903L0.996094 20.2159C0.996094 18.9756 2.00243 17.963 3.24898 17.963H5.47497C5.75658 17.963 6.01129 17.7891 6.08997 17.5385C6.38193 16.6316 6.75258 15.7515 7.18121 14.915C7.30337 14.681 7.24954 14.3786 7.04868 14.1778L5.46874 12.5978C4.59493 11.724 4.59493 10.2911 5.46874 9.41729L9.41338 5.47265C10.2934 4.59261 11.7201 4.59261 12.5939 5.47265L14.1739 7.05259C14.3747 7.25345 14.6771 7.30728 14.9111 7.18511C15.7476 6.75027 16.6339 6.38375 17.5346 6.09387C17.7831 6.01519 17.9591 5.7605 17.9591 5.47888V3.25289C17.9591 2.01256 18.9654 1 20.212 1H25.7841C27.0245 1 28.037 2.00634 28.037 3.25289V5.47888C28.037 5.76049 28.211 6.0152 28.4615 6.09387C29.3623 6.38584 30.2485 6.75649 31.0851 7.18511C31.3191 7.30728 31.6255 7.25345 31.8223 7.05259L33.4022 5.47265C34.2822 4.59261 35.7089 4.59261 36.5827 5.47265L40.5274 9.41729C41.4012 10.2973 41.4012 11.724 40.5274 12.5978L38.9537 14.1715C38.7528 14.3724 38.699 14.6747 38.8212 14.9087C39.2498 15.7515 39.6163 16.6378 39.9082 17.5385C39.9869 17.787 40.2416 17.963 40.5232 17.963H42.7492C43.9937 17.963 45 18.9695 45 20.2161ZM43.4098 20.2161C43.4098 19.8496 43.1136 19.5535 42.7471 19.5535H40.5212C39.5396 19.5535 38.6865 18.9385 38.3904 18.0274C38.1254 17.2012 37.792 16.3957 37.3986 15.6316C36.9638 14.7785 37.1336 13.739 37.8231 13.0453L39.3968 11.4716C39.6556 11.2128 39.6515 10.7924 39.3968 10.5377L35.4522 6.5931C35.1933 6.33427 34.773 6.33427 34.5183 6.5931L32.9383 8.17304C32.2447 8.86671 31.199 9.03652 30.3458 8.59132C29.5817 8.19996 28.7825 7.86452 27.9604 7.59947C27.0493 7.30337 26.4385 6.4482 26.4385 5.47288V3.24689C26.4385 2.88038 26.1424 2.58427 25.7759 2.58427H20.2183C19.8518 2.58427 19.5557 2.88038 19.5557 3.24689V5.47288C19.5557 6.44816 18.9469 7.30748 18.0337 7.59947C17.2117 7.86452 16.4062 8.1979 15.6483 8.59547C14.789 9.03445 13.7516 8.86673 13.0558 8.17098L11.4759 6.59104C11.217 6.33221 10.7967 6.33221 10.542 6.59104L6.59736 10.5357C6.34267 10.7945 6.33852 11.2149 6.59736 11.4696L8.1773 13.0495C8.87097 13.7432 9.04077 14.7826 8.60179 15.642C8.21043 16.3999 7.87499 17.2054 7.60579 18.0274C7.30968 18.9385 6.45452 19.5494 5.47919 19.5494H3.2532C2.88669 19.5494 2.59059 19.8455 2.59059 20.212V25.7841C2.59059 26.1506 2.88669 26.4467 3.2532 26.4467H5.47919C6.45447 26.4467 7.31379 27.0555 7.60579 27.9687C7.87083 28.7907 8.20422 29.59 8.60179 30.3541C9.04697 31.2072 8.87719 32.2509 8.18351 32.9466L6.60357 34.5265C6.34473 34.7854 6.34473 35.2057 6.60357 35.4604L10.5482 39.4051C10.807 39.6639 11.2274 39.6639 11.4821 39.4051L13.0558 37.8314C13.4906 37.3965 14.0684 37.1625 14.6461 37.1625C14.9857 37.1625 15.3253 37.2412 15.6421 37.4006C16.4062 37.792 17.2158 38.1274 18.0378 38.3925C18.9489 38.6886 19.5639 39.5438 19.5639 40.5232V42.7492C19.5639 43.1157 19.86 43.4118 20.2265 43.4118H25.7987C26.1652 43.4118 26.4613 43.1157 26.4613 42.7492V40.5232C26.4613 39.5417 27.0763 38.6886 27.9874 38.3925C28.8136 38.1274 29.6191 37.7941 30.3831 37.4006C31.2362 36.9658 32.2757 37.1356 32.9694 37.8251L34.5431 39.3988C34.802 39.6577 35.2223 39.6577 35.477 39.3988L39.4217 35.4542C39.6805 35.1954 39.6805 34.775 39.4217 34.5203L37.8479 32.9466C37.1584 32.2571 36.9845 31.2176 37.4235 30.3645C37.8148 29.5962 38.1503 28.7908 38.4153 27.9687C38.7114 27.0576 39.5666 26.4426 40.546 26.4426H42.772C43.1385 26.4426 43.4346 26.1465 43.4346 25.78L43.4367 20.2163L43.4098 20.2161Z" fill="#3D0F9A"/>
<path d="M33.3374 22.9989C33.3374 23.4379 32.9812 23.794 32.5422 23.794C32.1033 23.794 31.7471 23.4379 31.7471 22.9989C31.7471 18.1742 27.8253 14.2524 23.0006 14.2524C20.1597 14.2524 17.4823 15.6625 15.8505 17.963H19.82C20.259 17.963 20.6151 18.3192 20.6151 18.7582C20.6151 19.1971 20.259 19.5533 19.82 19.5533H14.5191C14.0801 19.5533 13.7239 19.1971 13.7239 18.7582V13.4572C13.7239 13.0183 14.0801 12.6621 14.5191 12.6621C14.9581 12.6621 15.3142 13.0183 15.3142 13.4572V16.0911C17.2544 13.9397 20.0581 12.6621 23.0005 12.6621C28.699 12.6621 33.3374 17.3004 33.3374 22.9989ZM31.4821 26.4445H26.1811C25.7422 26.4445 25.386 26.8007 25.386 27.2396C25.386 27.6786 25.7422 28.0348 26.1811 28.0348H30.1465C28.5189 30.3415 25.8478 31.7454 23.0009 31.7454C18.1761 31.7454 14.2543 27.8236 14.2543 22.9989C14.2543 22.5599 13.8982 22.2038 13.4592 22.2038C13.0202 22.2038 12.6641 22.5599 12.6641 22.9989C12.6641 28.6974 17.3024 33.3357 23.0009 33.3357C25.9536 33.3357 28.747 32.0581 30.6872 29.9067V32.5406C30.6872 32.9795 31.0433 33.3357 31.4823 33.3357C31.9213 33.3357 32.2775 32.9795 32.2775 32.5406V27.2396C32.2775 26.8007 31.921 26.4445 31.4821 26.4445Z" fill="#FF5A00"/>
</g>
<defs>
<clipPath id="clip0_4922_700">
<rect width="44" height="44" fill="white" transform="translate(1 1)"/>
</clipPath>
</defs>
</svg>
