<svg width="48" height="48" viewBox="0 0 48 48" fill="none" xmlns="http://www.w3.org/2000/svg">
<path d="M11.0313 11.9437C11.0266 12.3187 11.2501 12.6594 11.5954 12.8047C11.9423 12.9515 12.3407 12.8734 12.6063 12.6078C12.872 12.3422 12.9501 11.9437 12.8032 11.5969C12.6579 11.2516 12.3173 11.0281 11.9423 11.0328C11.4423 11.039 11.0376 11.4437 11.0313 11.9437Z" fill="#3D0F9A"/>
<path d="M34.568 37.5434C34.568 38.7731 32.7227 38.7731 32.7227 37.5434C32.7227 36.3137 34.568 36.3137 34.568 37.5434Z" fill="#FF5A00"/>
<path d="M40.8119 7.18893C40.1838 6.56549 39.3306 6.21706 38.4447 6.22173H9.55702C8.67732 6.22329 7.83516 6.57016 7.21172 7.18893C6.58046 7.81393 6.22422 8.66549 6.22266 9.55613V38.4438C6.22266 40.286 7.71486 41.7781 9.55699 41.7781H20.4133H20.4118C20.9086 41.7781 21.3118 41.375 21.3118 40.8781C21.3118 40.3781 20.9102 39.9734 20.4118 39.9672H9.55709C9.14929 39.9797 8.75396 39.8234 8.46646 39.5344C8.1774 39.2469 8.02116 38.8516 8.03366 38.4438V9.55609C8.02116 9.14829 8.17741 8.75296 8.46646 8.46546C8.75396 8.1764 9.14926 8.02016 9.55709 8.03266H38.4448C38.8526 8.02016 39.2479 8.17641 39.5354 8.46546C39.8245 8.75296 39.9807 9.14826 39.9682 9.55609V15.5888C39.9744 16.0872 40.3791 16.4888 40.8791 16.4888C41.376 16.4888 41.7791 16.0856 41.7791 15.5888V9.55609C41.7838 8.67016 41.4354 7.81703 40.8119 7.18889L40.8119 7.18893Z" fill="#3D0F9A"/>
<path d="M38.4431 20.6675H28.8211C26.9804 20.6675 25.4883 22.1597 25.4883 24.0003V38.4439C25.4883 40.2861 26.9805 41.7783 28.8211 41.7783H38.4431C40.2853 41.7783 41.7774 40.2861 41.7774 38.4439V24.0003C41.7774 22.1596 40.2852 20.6675 38.4431 20.6675ZM39.9431 38.4455V38.4439C39.9462 38.8455 39.79 39.2314 39.5087 39.5158C39.2275 39.8017 38.8446 39.9642 38.4431 39.9674H28.8211C27.9914 39.9549 27.3258 39.2752 27.332 38.4439V24.0003C27.332 23.1659 28.0086 22.4893 28.8429 22.4893H38.4429C38.8461 22.4862 39.2336 22.644 39.5195 22.9284C39.8055 23.2112 39.9664 23.5971 39.9664 24.0003L39.9431 38.4455Z" fill="#FF5A00"/>
</svg>
