<svg width="48" height="48" viewBox="0 0 48 48" fill="none" xmlns="http://www.w3.org/2000/svg">
<g clip-path="url(#clip0_4922_687)">
<path d="M10.6295 9.5326C10.6295 10.9914 8.44141 10.9914 8.44141 9.5326C8.44141 8.07572 10.6295 8.07572 10.6295 9.5326Z" fill="#3D0F9A"/>
<path d="M44.2531 27.1724H19.6659C19.0659 27.1724 18.5859 27.6524 18.5859 28.2524V29.773C18.5859 31.6124 19.3059 33.3336 20.5997 34.6254C21.8935 35.9192 23.6259 36.6392 25.4521 36.6392H31.5985V44.2256C31.5985 44.8256 32.0785 45.3056 32.6785 45.3056C33.2785 45.3056 33.7585 44.8256 33.7585 44.2256V35.5464C33.7585 34.9464 33.2785 34.4664 32.6785 34.4664H25.4521C24.1996 34.4664 23.0127 33.9732 22.1315 33.0939C21.239 32.2145 20.759 31.0276 20.759 29.7732V29.3326H44.2662C44.8662 29.3326 45.3462 28.8526 45.3462 28.2526C45.3462 27.6526 44.8662 27.1726 44.2662 27.1726L44.2531 27.1724Z" fill="#FF5A00"/>
<path d="M37.7466 9.89258C33.5598 9.89258 30.1602 13.2919 30.1602 17.479C30.1602 21.6658 33.5595 25.0654 37.7466 25.0654C41.9338 25.0654 45.333 21.666 45.333 17.479C45.333 13.2922 41.9336 9.89258 37.7466 9.89258ZM37.7466 22.905C34.7597 22.905 32.3202 20.4787 32.3202 17.4786C32.3202 14.4784 34.7464 12.0522 37.7466 12.0522C40.7467 12.0522 43.173 14.4784 43.173 17.4786C43.173 20.4787 40.7467 22.905 37.7466 22.905Z" fill="#FF5A00"/>
<path d="M13.5883 43.1602H6.64109C6.16109 43.1602 5.69421 42.9727 5.36045 42.6277C5.0267 42.2808 4.82797 41.827 4.82797 41.347V6.63865C4.82797 6.15865 5.01547 5.69177 5.36045 5.35801C5.70733 5.02426 6.16109 4.82553 6.64109 4.82553H44.2403C44.8403 4.82553 45.3203 4.34553 45.3203 3.74553C45.3203 3.14553 44.8403 2.66553 44.2403 2.66553H6.64109C5.60045 2.66553 4.57485 3.09305 3.82861 3.82617C3.08237 4.57241 2.66797 5.58681 2.66797 6.63865V41.345C2.66797 42.4119 3.08045 43.4113 3.82861 44.1575C4.57485 44.9038 5.58925 45.3182 6.64109 45.3182H13.5883C14.1883 45.3182 14.6683 44.8382 14.6683 44.2382C14.6683 43.6382 14.1883 43.1582 13.5883 43.1582V43.1602Z" fill="#3D0F9A"/>
</g>
<defs>
<clipPath id="clip0_4922_687">
<rect width="48" height="48" fill="white"/>
</clipPath>
</defs>
</svg>
