<svg width="74" height="74" viewBox="0 0 74 74" fill="none" xmlns="http://www.w3.org/2000/svg">
<g clip-path="url(#clip0_4926_454)">
<path d="M32.1638 5.30814C34.7589 2.45983 39.2411 2.45983 41.8362 5.30815C43.5577 7.19764 46.222 7.91153 48.6576 7.13593C52.3292 5.96677 56.211 8.20791 57.0342 11.9722C57.5804 14.4693 59.5307 16.4196 62.0278 16.9658C65.7921 17.789 68.0332 21.6708 66.8641 25.3424C66.0885 27.778 66.8024 30.4423 68.6919 32.1638C71.5402 34.7589 71.5402 39.2411 68.6919 41.8362C66.8024 43.5577 66.0885 46.222 66.8641 48.6576C68.0332 52.3292 65.7921 56.211 62.0278 57.0342C59.5307 57.5804 57.5804 59.5307 57.0342 62.0278C56.211 65.7921 52.3292 68.0332 48.6576 66.8641C46.222 66.0885 43.5577 66.8024 41.8362 68.6919C39.2411 71.5402 34.7589 71.5402 32.1638 68.6919C30.4423 66.8024 27.778 66.0885 25.3424 66.8641C21.6708 68.0332 17.789 65.7921 16.9658 62.0278C16.4196 59.5307 14.4693 57.5804 11.9722 57.0342C8.20791 56.211 5.96677 52.3292 7.13593 48.6576C7.91153 46.222 7.19764 43.5577 5.30815 41.8362C2.45983 39.2411 2.45983 34.7589 5.30814 32.1638C7.19764 30.4423 7.91153 27.778 7.13593 25.3424C5.96677 21.6708 8.20791 17.789 11.9722 16.9658C14.4693 16.4196 16.4196 14.4693 16.9658 11.9722C17.789 8.20791 21.6708 5.96677 25.3424 7.13593C27.778 7.91153 30.4423 7.19764 32.1638 5.30814Z" fill="url(#paint0_linear_4926_454)"/>
<path d="M47.5534 43.0917L49.1941 33.7868C49.3793 32.7367 50.0114 32.302 51.1163 32.4969L56.6317 33.4694C57.2526 33.5789 57.6002 34.0638 57.494 34.6665C57.3877 35.2692 56.8968 35.5969 56.2759 35.4874L51.564 34.6566L51.0005 37.8526L55.4566 38.6383C56.0411 38.7414 56.3677 39.185 56.2663 39.7603C56.1648 40.3356 55.7078 40.6316 55.1234 40.5285L50.6672 39.7428L50.0779 43.0849L54.7623 43.9109C55.4107 44.0252 55.7599 44.5011 55.652 45.1129C55.5441 45.7247 55.0548 46.0433 54.4065 45.929L48.9185 44.9613C47.8136 44.7664 47.3666 44.151 47.5534 43.0917Z" fill="white"/>
<path d="M37.2526 41.2748L38.8933 31.9699C39.0785 30.9198 39.7106 30.4851 40.8155 30.68L46.3309 31.6525C46.9519 31.762 47.2995 32.2469 47.1932 32.8496C47.0869 33.4523 46.596 33.78 45.9751 33.6705L41.2633 32.8397L40.6997 36.0357L45.1559 36.8214C45.7403 36.9245 46.0669 37.3681 45.9655 37.9434C45.864 38.5187 45.407 38.8147 44.8226 38.7116L40.3664 37.9259L39.7771 41.268L44.4616 42.094C45.1099 42.2083 45.4591 42.6842 45.3512 43.296C45.2433 43.9078 44.754 44.2264 44.1057 44.1121L38.6177 43.1444C37.5128 42.9495 37.0658 42.3341 37.2526 41.2748Z" fill="white"/>
<path d="M28.1351 40.0147C27.987 40.8548 27.4526 41.269 26.6764 41.1321C25.8911 40.9937 25.5215 40.4201 25.6696 39.58L27.3168 30.2385C27.5454 28.9418 28.2146 28.4572 29.5113 28.6859L32.6981 29.2478C35.3645 29.718 36.7597 31.4704 36.3443 33.8263C36.0657 35.4061 35.0308 36.5229 33.5398 36.8626L34.7633 40.4961C34.8568 40.7668 34.8843 41.0918 34.8376 41.3566C34.7201 42.0232 34.1158 42.4062 33.4127 42.2823C32.7644 42.1679 32.4657 41.8328 32.1965 40.9568L30.9987 37.0171L28.7341 36.6178L28.1351 40.0147ZM29.0593 34.7732L31.2874 35.1661C32.6845 35.4125 33.6104 34.8602 33.8358 33.5818C34.0596 32.3125 33.3741 31.4478 32.0136 31.2079L29.7581 30.8102L29.0593 34.7732Z" fill="white"/>
<path d="M16.9316 39.4135C16.1463 39.2751 15.7676 38.6998 15.9157 37.8597L17.616 28.2169C17.8011 27.1668 18.4333 26.7322 19.5382 26.927L24.9531 27.8818C25.5741 27.9913 25.9292 28.487 25.8229 29.0897C25.715 29.7015 25.215 30.0276 24.5941 29.9181L20.001 29.1083L19.3875 32.5873L23.5149 33.3151C24.1541 33.4278 24.4958 33.8929 24.3895 34.4956C24.2833 35.0983 23.794 35.4169 23.1639 35.3058L19.0365 34.578L18.3812 38.2945C18.2314 39.1437 17.7078 39.5504 16.9316 39.4135Z" fill="white"/>
</g>
<defs>
<linearGradient id="paint0_linear_4926_454" x1="52.2296" y1="5.71227" x2="27.7704" y2="67.0377" gradientUnits="userSpaceOnUse">
<stop offset="0.365398" stop-color="#3D0F9A"/>
<stop offset="1" stop-color="#7527B4"/>
</linearGradient>
<clipPath id="clip0_4926_454">
<rect width="74" height="74" fill="white"/>
</clipPath>
</defs>
</svg>
