<svg width="238" height="200" viewBox="0 0 238 200" fill="none" xmlns="http://www.w3.org/2000/svg">
<g clip-path="url(#clip0_4926_493)">
<path d="M63.4071 171.57L63.7461 170.979L61.9682 169.962L61.6292 170.553L63.4071 171.57ZM22.7783 169.577L24.6185 168.539L24.2795 167.948L22.6192 168.883L22.7091 169.041L22.4947 169.398L22.7852 169.57L22.7783 169.577ZM59.8582 169.536L60.1972 168.945L58.4193 167.928L58.0803 168.519L59.8582 169.536ZM20.7375 168.361L21.0903 167.776L19.3332 166.732L18.9804 167.316L20.7375 168.361ZM26.4033 167.536L28.1881 166.532L27.8491 165.941L26.0643 166.945L26.4033 167.536ZM56.3094 167.501L56.6483 166.91L54.8704 165.893L54.5315 166.484L56.3094 167.501ZM17.2232 166.264L17.576 165.68L15.8189 164.635L15.4661 165.22L17.2232 166.264ZM29.966 165.522L31.7508 164.519L31.4118 163.928L29.627 164.931L29.966 165.522ZM52.7536 165.467L53.0925 164.876L51.3146 163.859L50.9757 164.45L52.7536 165.467ZM13.702 164.168L14.0548 163.584L12.2977 162.539L11.9449 163.123L13.702 164.168ZM33.5287 163.508L35.3135 162.505L34.9746 161.914L33.1897 162.917L33.5287 163.508ZM49.2047 163.433L49.5436 162.842L47.7657 161.824L47.4268 162.416L49.2047 163.433ZM10.1877 162.072L10.5405 161.488L9.8349 161.068L9.48209 161.653L10.1877 162.072ZM37.0983 161.495L38.8832 160.491L38.5442 159.9L36.7594 160.903L37.0983 161.495ZM45.6558 161.398L45.9948 160.807L44.2169 159.79L43.8779 160.381L45.6558 161.398ZM40.6611 159.488L41.4912 159.02L42.1 159.371L42.439 158.78L41.4912 158.237L40.3221 158.897L40.6611 159.488Z" fill="#3D0F9A"/>
<path d="M75.1719 168.512V174.446V173.951C75.1719 175.847 73.9361 177.743 71.4234 179.185C66.3979 182.07 58.2831 182.07 53.2576 179.185C50.7449 177.743 49.5091 176.342 49.5091 174.446V173.951V168.553L66.7185 164.718L75.1719 168.512Z" fill="#3D0F9A" stroke="#3D0F9A" stroke-miterlimit="10"/>
<path d="M62.3199 175.929C55.2219 175.929 49.4679 172.608 49.4679 168.511C49.4679 164.415 55.2219 161.094 62.3199 161.094C69.4178 161.094 75.1719 164.415 75.1719 168.511C75.1719 172.608 69.4178 175.929 62.3199 175.929Z" fill="white" stroke="#3D0F9A" stroke-linecap="round" stroke-linejoin="round"/>
<path d="M18.0508 159.903V162.76V162.522C18.0508 163.435 17.4558 164.348 16.246 165.042C13.8263 166.431 9.91913 166.431 7.49946 165.042C6.28963 164.348 5.69463 163.673 5.69463 162.76V162.522V159.923L13.9806 158.077L18.0508 159.903Z" fill="#3D0F9A" stroke="#3D0F9A" stroke-miterlimit="10"/>
<path d="M11.8628 163.475C8.44526 163.475 5.6748 161.876 5.6748 159.903C5.6748 157.931 8.44526 156.332 11.8628 156.332C15.2803 156.332 18.0508 157.931 18.0508 159.903C18.0508 161.876 15.2803 163.475 11.8628 163.475Z" fill="white" stroke="#3D0F9A" stroke-linecap="round" stroke-linejoin="round"/>
<path d="M81.3945 103.333L88.7134 107.56C91.8081 109.347 95.6213 109.347 98.7159 107.56L114.399 98.5011L199.5 49.3485C200.833 48.5786 200.833 46.6546 199.5 45.8847L195.584 43.6226C194.251 42.8527 194.251 40.9287 195.584 40.1588L208.929 32.4507" stroke="#3D0F9A" stroke-linecap="round" stroke-dasharray="2 2"/>
<path d="M146.13 141.429L152.283 137.874C153.616 137.104 153.616 135.18 152.283 134.411L122.741 117.347C121.408 116.577 121.408 114.653 122.741 113.884L131.769 108.669" stroke="#3D0F9A" stroke-linecap="round"/>
<path d="M212.745 145.685C212.186 145.685 211.628 145.536 211.121 145.237L194.744 135.593C192.374 134.197 190.902 131.621 190.902 128.87V102.229C190.902 100.812 190.123 99.518 188.871 98.8541L179.23 93.7447L179.846 92.5835L189.487 97.6929C191.17 98.5846 192.217 100.323 192.217 102.229V128.87C192.217 131.157 193.441 133.299 195.411 134.46L211.788 144.105C212.379 144.453 213.087 144.457 213.682 144.117C214.278 143.776 214.633 143.164 214.633 142.477V133.144H215.947V142.477C215.947 143.64 215.343 144.68 214.334 145.257C213.835 145.542 213.289 145.685 212.744 145.685H212.745Z" fill="#3D0F9A" stroke="white" stroke-width="0.4"/>
<path d="M218.38 89.72C228.623 95.5642 236.927 109.786 236.896 121.416C236.878 127.195 234.58 130.872 231.473 133.181C225.051 137.951 217.845 135.363 214.895 133.844C212.457 132.452 210.128 130.585 207.994 128.393C201.174 121.375 196.358 111.009 196.383 102.147C196.4 96.3462 198.488 92.267 201.847 90.3597L203.484 89.4185L203.488 89.4162L205.169 88.4497C207.349 87.4488 213.044 86.3015 218.38 89.72Z" fill="white"/>
<path d="M205.173 88.4497H205.169M205.169 88.4497C204.665 88.7397 204.076 89.0779 203.488 89.4162L203.484 89.4185C202.912 89.7471 202.341 90.0756 201.847 90.3597C198.488 92.267 196.4 96.3462 196.383 102.147C196.358 111.009 201.174 121.375 207.994 128.393C210.128 130.585 212.457 132.452 214.895 133.844C217.845 135.363 225.051 137.951 231.473 133.181C234.58 130.872 236.878 127.195 236.896 121.416C236.927 109.786 228.623 95.5642 218.38 89.72C213.044 86.3015 207.349 87.4488 205.169 88.4497Z" stroke="#3D0F9A" stroke-miterlimit="10"/>
<path d="M232.51 122.756C232.475 134.532 224.114 139.298 213.875 133.38C211.822 132.195 209.845 130.669 208.001 128.887C201.174 121.784 196.358 111.293 196.383 102.325C196.418 90.5516 204.778 85.7863 215.017 91.701C217.078 92.8888 219.054 94.419 220.905 96.2042C227.725 103.307 232.534 113.791 232.51 122.752V122.756Z" fill="white" stroke="#3D0F9A" stroke-miterlimit="10"/>
<path d="M229.646 121.539C229.635 124.739 228.85 127.286 227.484 129.058C224.897 132.443 220.224 133.009 214.912 129.938C206.811 125.26 200.242 113.881 200.27 104.567C200.284 100.368 201.632 97.3008 203.856 95.6203C206.563 93.5766 210.561 93.5941 215.007 96.1653C223.105 100.847 229.674 112.225 229.646 121.536V121.539Z" fill="#3D0F9A" stroke="#3D0F9A"/>
<path d="M229.647 121.54C229.636 124.74 228.85 127.287 227.485 129.058C224.778 131.109 220.78 131.088 216.331 128.517C208.232 123.839 201.664 112.46 201.691 103.15C201.702 99.9428 202.491 97.396 203.857 95.6247C206.563 93.581 210.562 93.5985 215.007 96.1697C223.106 100.851 229.674 112.23 229.647 121.54Z" fill="white" stroke="#3D0F9A" stroke-miterlimit="10"/>
<path d="M215.635 97.731C215.785 97.8184 215.904 98.0245 215.904 98.1957L215.897 100.533C215.897 100.704 215.775 100.774 215.628 100.687C215.478 100.599 215.359 100.393 215.359 100.222L215.366 97.8848C215.366 97.7136 215.489 97.6437 215.635 97.731Z" fill="#3D0F9A"/>
<path d="M209.339 96.0368C209.434 96.0892 209.525 96.1975 209.573 96.3268L210.583 98.9365C210.656 99.1286 210.611 99.2928 210.485 99.3033C210.443 99.3033 210.398 99.2928 210.349 99.2684C210.254 99.216 210.164 99.1077 210.115 98.9784L209.106 96.3687C209.032 96.1801 209.078 96.0159 209.203 96.0054C209.245 96.0054 209.294 96.0159 209.339 96.0403V96.0368Z" fill="#3D0F9A"/>
<path d="M204.719 98.671C204.764 98.699 204.81 98.7374 204.851 98.7898L206.608 100.977C206.737 101.137 206.783 101.351 206.706 101.459C206.657 101.529 206.566 101.532 206.472 101.48C206.426 101.452 206.381 101.413 206.336 101.361L204.579 99.1741C204.45 99.0134 204.408 98.8003 204.481 98.6955C204.53 98.6256 204.621 98.6221 204.715 98.6745L204.719 98.671Z" fill="#3D0F9A"/>
<path d="M205.047 106.106C205.197 106.193 205.316 106.399 205.316 106.57C205.316 106.741 205.194 106.811 205.047 106.724L203.011 105.55C202.861 105.463 202.742 105.257 202.742 105.085C202.742 104.914 202.864 104.844 203.011 104.932L205.047 106.106Z" fill="#3D0F9A"/>
<path d="M206.443 112.985C206.537 113.037 206.628 113.145 206.677 113.275C206.75 113.463 206.705 113.627 206.576 113.638L204.812 113.792C204.77 113.795 204.725 113.781 204.679 113.757C204.585 113.704 204.498 113.596 204.445 113.467C204.372 113.278 204.417 113.114 204.543 113.103L206.307 112.95C206.349 112.95 206.394 112.96 206.443 112.985Z" fill="#3D0F9A"/>
<path d="M210.29 119.657C210.335 119.685 210.38 119.723 210.426 119.776C210.555 119.936 210.597 120.15 210.524 120.254L209.5 121.69C209.452 121.76 209.361 121.764 209.266 121.711C209.221 121.683 209.176 121.645 209.134 121.592C209.005 121.432 208.963 121.219 209.036 121.114L210.059 119.678C210.108 119.608 210.199 119.605 210.293 119.657H210.29Z" fill="#3D0F9A"/>
<path d="M215.561 124.328C215.711 124.416 215.83 124.622 215.83 124.793L215.823 127.13C215.823 127.301 215.701 127.371 215.554 127.284C215.407 127.196 215.285 126.99 215.285 126.819L215.292 124.482C215.292 124.311 215.414 124.241 215.561 124.328Z" fill="#3D0F9A"/>
<path d="M220.835 125.753C220.93 125.806 221.017 125.914 221.069 126.043L222.082 128.656C222.156 128.848 222.11 129.013 221.981 129.023C221.939 129.027 221.894 129.013 221.848 128.988C221.754 128.936 221.667 128.828 221.614 128.698L220.601 126.085C220.528 125.896 220.574 125.732 220.703 125.722C220.745 125.718 220.79 125.732 220.835 125.757V125.753Z" fill="#3D0F9A"/>
<path d="M224.715 123.542C224.761 123.57 224.806 123.609 224.848 123.661L226.605 125.848C226.734 126.009 226.779 126.222 226.702 126.327C226.653 126.396 226.563 126.4 226.468 126.348C226.423 126.32 226.378 126.281 226.336 126.229L224.579 124.042C224.45 123.881 224.408 123.668 224.481 123.563C224.53 123.493 224.621 123.49 224.715 123.542Z" fill="#3D0F9A"/>
<path d="M228.184 119.468C228.334 119.556 228.453 119.762 228.453 119.933C228.453 120.104 228.33 120.174 228.184 120.087L226.148 118.913C225.998 118.826 225.879 118.619 225.879 118.448C225.879 118.277 226.001 118.207 226.148 118.295L228.184 119.468Z" fill="#3D0F9A"/>
<path d="M226.517 111.262C226.611 111.314 226.702 111.422 226.751 111.551C226.824 111.744 226.779 111.908 226.65 111.918L224.886 112.069C224.844 112.072 224.799 112.058 224.754 112.034C224.659 111.981 224.572 111.873 224.52 111.744C224.446 111.551 224.492 111.387 224.617 111.377L226.381 111.227C226.423 111.227 226.472 111.237 226.517 111.262Z" fill="#3D0F9A"/>
<path d="M221.928 103.307C221.973 103.335 222.018 103.374 222.06 103.426C222.189 103.587 222.235 103.8 222.158 103.905L221.135 105.341C221.086 105.411 220.995 105.414 220.901 105.362C220.855 105.334 220.81 105.295 220.768 105.243C220.639 105.082 220.593 104.869 220.67 104.761L221.694 103.325C221.742 103.255 221.833 103.251 221.928 103.304V103.307Z" fill="#3D0F9A"/>
<path d="M213.524 111.883L214.645 111.23C214.425 111.359 214.289 111.632 214.289 112.02C214.289 112.799 214.834 113.745 215.511 114.14L214.39 114.793C213.713 114.402 213.164 113.455 213.168 112.673C213.168 112.285 213.304 112.013 213.524 111.883Z" fill="#3D0F9A"/>
<path d="M213.75 109.686L212.629 110.339C213.737 110.083 216.142 110.622 216.893 114.821C216.89 115.604 216.616 116.157 216.173 116.418L217.288 115.768C217.735 115.51 218.014 114.958 218.014 114.168C218.017 112.585 216.907 110.657 215.528 109.86L215.233 109.672C214.542 109.27 214.204 109.42 213.75 109.686Z" fill="#3D0F9A" stroke="#3D0F9A"/>
<path d="M214.403 110.515C215.782 111.311 216.893 113.24 216.889 114.822C216.886 116.408 215.768 117.044 214.389 116.248C213.013 115.451 211.899 113.526 211.902 111.94C211.906 110.357 213.027 109.718 214.406 110.515H214.403ZM214.392 114.794C215.07 115.186 215.622 114.871 215.625 114.092C215.625 113.313 215.08 112.363 214.403 111.971C213.725 111.58 213.174 111.895 213.17 112.674C213.17 113.453 213.715 114.403 214.392 114.794Z" fill="white" stroke="#3D0F9A" stroke-miterlimit="10"/>
<rect x="-0.865886" width="63.318" height="63.318" rx="4.5" transform="matrix(-0.865886 0.500242 -0.865886 -0.500242 109.767 85.941)" stroke="#3D0F9A"/>
<path d="M108.749 29.4868L100.999 34.0181L103.067 44.9556L100.985 46.2056L103.052 57.5895L100.94 58.8395L102.621 70.0151L100.91 71.0121L109.88 86.5627L110.891 85.9228L119.861 92.3365L121.482 91.3841L130.497 98.4526L131.538 97.8574L140.478 104.256L141.95 103.438L150.92 110.268L159.161 105.491V102.828L160.968 103.877L162.165 103.177L171.165 109.747L179.019 105.194V94.9407L176.907 93.78L179.019 92.5597V82.2919L177.427 81.3544L179.019 80.4169V70.0746L177.621 69.2264L179.019 68.3931V58.1103L170.049 52.902L168.859 53.5865V52.2621L159.86 47.0538L158.833 47.6788V46.4288L149.864 41.2651L148.287 42.1579V40.0449L139.719 35.2383L131.664 39.7398L131.746 42.7606L129.411 41.3916L127.767 42.3663V40.469L118.768 35.2755L117.741 35.8707V34.6877L108.749 29.4868Z" fill="#3D0F9A"/>
<path d="M93.2969 83.6928L101.288 79.0479L178.977 123.927L170.985 128.572L93.2969 83.6928Z" fill="#3D0F9A"/>
<path d="M113.091 20.4507L120.864 15.933L120.859 17.9234L113.086 22.441L113.091 20.4507Z" fill="#3D0F9A"/>
<path d="M165.354 50.6348L173.127 46.1172L173.122 48.1075L165.349 52.6298L165.354 50.6348Z" fill="#3D0F9A"/>
<path d="M98.2005 12.1208L103.767 7.61923V80.0002L98.0547 83.8097L98.2005 12.1208Z" fill="#3D0F9A"/>
<path d="M179.143 53.094L185.163 49.524L184.687 131.429L178.975 136.191L179.143 53.094Z" fill="#3D0F9A"/>
<path d="M118.047 5.23828L113.287 8.09542V14.7621L118.047 11.9049V5.23828Z" fill="#3D0F9A"/>
<path d="M171.359 34.7621L165.171 38.0954V45.2383L170.883 41.9049L171.359 34.7621Z" fill="#3D0F9A"/>
<path d="M93.5352 3.56512L99.011 0L112.815 8.09524L106.985 11.3367L93.5352 3.56512Z" fill="white"/>
<path d="M112.337 1.42857L107.101 4.28571L112.813 8.09524L113.109 14.8726L118.525 11.4286V5.2381L112.337 1.42857Z" fill="white"/>
<path d="M113.109 14.8726L118.525 11.4286L158.509 34.2857L164.221 30.9524L170.885 34.7619V41.9048L184.689 49.5238L178.82 52.828L165.371 45.0568V38.0952L159.244 41.5207L113.109 14.8726Z" fill="white"/>
<path d="M113.109 14.8726L112.813 8.09524L107.101 4.28571L112.337 1.42857L118.525 5.2381V11.4286M113.109 14.8726L118.525 11.4286M113.109 14.8726L159.244 41.5207L165.371 38.0952M118.525 11.4286L158.509 34.2857L164.221 30.9524L170.885 34.7619M170.885 34.7619L165.371 38.0952M170.885 34.7619V41.9048L184.689 49.5238L178.82 52.828L165.371 45.0568V38.0952M93.5352 3.56513L99.011 0L112.815 8.09524L106.985 11.3367L93.5352 3.56513Z" stroke="#3D0F9A" stroke-linejoin="round"/>
<path d="M165.369 45.0567L178.82 52.8237L178.584 135.923L93.2969 86.6642L93.5328 3.56494L106.983 11.3319L107.101 4.2855L113.109 8.09503V14.8683L159.244 41.5157L158.985 34.7617L165.369 38.5713V45.0521V45.0567ZM173.739 121.826L173.943 55.5963L165.351 50.6343V52.6246L159.22 49.0883V47.098L113.091 20.4505V22.4408L106.96 18.9045V16.9141L98.3772 11.9522L98.1736 83.8962L173.744 127.545" fill="white"/>
<path d="M165.369 45.0567L178.82 52.8237L178.584 135.923L93.2969 86.6642L93.5328 3.56494L106.983 11.3319L107.101 4.2855L113.109 8.09503V14.8683L159.244 41.5157L158.985 34.7617L165.369 38.5713V45.0521V45.0567ZM173.739 121.826L173.943 55.5963L165.351 50.6343V52.6246L159.22 49.0883V47.098L113.091 20.4505V22.4408L106.96 18.9045V16.9141L98.3772 11.9522L98.1736 83.8962L173.744 127.545L173.739 121.826Z" stroke="#3D0F9A" stroke-linejoin="round"/>
<path d="M109.866 76.2191L109.838 86.555L100.844 81.3616L100.876 71.0257L109.866 76.2191Z" fill="white"/>
<path d="M119.88 82.0004L119.852 92.3409L110.862 87.1475L110.89 76.807L119.88 82.0004Z" fill="white"/>
<path d="M109.903 64.0279L109.871 74.3638L100.881 69.1704L100.909 58.8345L109.903 64.0279Z" fill="white"/>
<path d="M130.505 88.1388L130.477 98.4747L121.483 93.2813L121.511 82.9454L130.505 88.1388Z" fill="white"/>
<path d="M109.936 51.3865L109.908 61.7317L100.918 56.5383L100.946 46.1931L109.936 51.3865Z" fill="white"/>
<path d="M140.524 93.9247L140.496 104.261L131.501 99.0672L131.534 88.7313L140.524 93.9247Z" fill="white"/>
<path d="M119.959 57.1678L119.926 67.513L110.936 62.3195L110.964 51.9744L119.959 57.1678Z" fill="white"/>
<path d="M109.978 39.1944L109.95 49.5303L100.955 44.3369L100.983 34.001L109.978 39.1944Z" fill="white"/>
<path d="M150.939 99.9422L150.911 110.278L141.921 105.085L141.949 94.7487L150.939 99.9422Z" fill="white"/>
<path d="M140.556 81.7316L140.528 92.0675L131.538 86.8741L131.566 76.5382L140.556 81.7316Z" fill="white"/>
<path d="M130.58 63.3053L130.552 73.6504L121.557 68.457L121.59 58.1118L130.58 63.3053Z" fill="white"/>
<path d="M150.981 87.7546L150.953 98.0905L141.958 92.8971L141.986 82.5566L150.981 87.7546Z" fill="white"/>
<path d="M140.59 69.0911L140.563 79.4317L131.568 74.2383L131.6 63.8931L140.59 69.0911Z" fill="white"/>
<path d="M130.617 51.1131L130.584 61.4536L121.594 56.2602L121.622 45.9197L130.617 51.1131Z" fill="white"/>
<path d="M151.018 75.1086L150.985 85.4538L141.995 80.2604L142.023 69.9152L151.018 75.1086Z" fill="white"/>
<path d="M140.628 56.899L140.595 67.2349L131.605 62.0415L131.633 51.7056L140.628 56.899Z" fill="white"/>
<path d="M161.029 80.8899L160.996 91.2351L152.006 86.0416L152.034 75.6965L161.029 80.8899Z" fill="white"/>
<path d="M151.048 62.9165L151.02 73.2524L142.025 68.059L142.058 57.7231L151.048 62.9165Z" fill="white"/>
<path d="M140.657 44.9431L140.63 55.279L131.635 50.0856L131.667 39.7497L140.657 44.9431Z" fill="white"/>
<path d="M171.2 86.7688L171.173 97.1139L162.173 91.9159L162.201 81.5707L171.2 86.7688Z" fill="white"/>
<path d="M161.058 68.7033L161.031 79.0392L152.036 73.8458L152.068 63.5099L161.058 68.7033Z" fill="white"/>
<path d="M151.08 50.9606L151.052 61.3011L142.062 56.1077L142.09 45.7672L151.08 50.9606Z" fill="white"/>
<path d="M171.238 74.5766L171.21 84.9172L162.211 79.7191L162.238 69.3832L171.238 74.5766Z" fill="white"/>
<path d="M161.096 56.7465L161.063 67.0824L152.073 61.889L152.101 51.5531L161.096 56.7465Z" fill="white"/>
<path d="M171.272 62.6244L171.24 72.9603L162.24 67.7623L162.273 57.4264L171.272 62.6244Z" fill="white"/>
<path d="M119.925 69.8129L119.892 80.1488L110.902 74.9554L110.93 64.6195L119.925 69.8129Z" fill="#FF5A00"/>
<path d="M130.541 75.9513L130.513 86.2872L121.523 81.0938L121.551 70.7579L130.541 75.9513Z" fill="#FF5A00"/>
<path d="M119.992 44.9803L119.964 55.3162L110.969 50.1228L111.002 39.7822L119.992 44.9803Z" fill="#FF5A00"/>
<path d="M160.995 93.5359L160.967 103.872L151.972 98.6784L152.005 88.3425L160.995 93.5359Z" fill="#FF5A00"/>
<path d="M171.166 99.4148L171.139 109.751L162.139 104.553L162.167 94.2168L171.166 99.4148Z" fill="#FF5A00"/>
<path d="M33.2422 75.1145L34.8366 27.3901L75.1686 50.1052V96.7714L71.7794 98.8268L33.2422 75.1145Z" fill="white" stroke="#3D0F9A" stroke-linejoin="round"/>
<path d="M31.4453 28.5622L34.841 26.4463L75.2373 49.8305L71.8427 51.9453L31.4453 28.5622Z" fill="white" stroke="#3D0F9A" stroke-linejoin="round"/>
<path d="M31.4453 75.5798V28.5195L71.7784 51.4252V98.4866L31.4453 75.5798Z" fill="#3D0F9A" stroke="#3D0F9A" stroke-linejoin="round"/>
<path d="M35.2539 71.7959L35.3584 35.0176L67.3432 53.4954L67.2387 90.2692L35.2539 71.7959Z" fill="white"/>
<path d="M52.2132 81.5581L50.2689 80.4356C50.5914 80.6447 50.914 80.8401 51.241 81.031C51.5681 81.2173 51.8906 81.3945 52.2132 81.5581ZM51.4727 62.5622C47.9067 60.5036 45.0221 55.5001 45.0312 51.3965C45.0449 47.2883 47.9476 45.6341 51.5136 47.6973C55.0841 49.7605 57.9687 54.7594 57.9596 58.863C57.946 62.9622 55.0432 64.6254 51.4727 62.5622ZM51.3455 44.2571C42.5146 39.1537 35.3327 43.2573 35.3009 53.4097C35.2873 57.9451 36.7046 62.9258 39.0667 67.4975C41.1972 63.1258 45.9534 61.7715 51.4682 64.9572C56.8739 68.0792 61.5347 74.7096 63.6924 81.3945C65.932 79.5222 67.2766 76.2638 67.2902 71.8829C67.3175 61.7306 60.1855 49.3606 51.3455 44.2571Z" fill="#3D0F9A"/>
<path d="M51.5215 47.6966C47.9555 45.638 45.0527 47.2922 45.0391 51.3958C45.0255 55.4949 47.9101 60.4984 51.4806 62.5616C55.0511 64.6248 57.9539 62.966 57.9675 58.8624C57.9811 54.7542 55.0965 49.7598 51.5215 47.6966Z" fill="white"/>
<path d="M51.4717 64.9569C45.957 61.7712 41.2008 63.1255 39.0703 67.4973C41.7959 72.7825 45.7843 77.5314 50.2725 80.4353L52.2167 81.5578C56.8412 83.9119 60.9432 83.6983 63.696 81.3942C61.5337 74.7093 56.8775 68.0789 51.4717 64.9569Z" fill="white"/>
<path d="M190.012 24.8334L197.369 29.0569C198.072 29.4624 197.64 30.1786 196.644 30.2174C196.627 30.2174 196.606 30.2174 196.588 30.2174L197.369 30.6704C198.072 31.0759 197.64 31.792 196.644 31.8309C196.468 31.8395 196.291 45.3124 196.118 45.3253L190.007 41.8223H190.016H189.986V24.8291H190.016L190.012 24.8334Z" fill="#3D0F9A" stroke="#3D0F9A" stroke-linejoin="round"/>
<path d="M215.287 43.7041C214.584 44.1571 214.118 44.7308 213.876 45.3434C213.648 44.7654 213.631 30.6928 213.825 30.1104C213.432 28.9154 213.924 27.5866 215.287 26.7066C217.883 25.0284 222.337 24.968 225.037 26.5254C226.176 27.1854 226.814 28.0224 226.956 28.8852C227.029 29.3338 227.952 29.5323 228.504 29.2131L235.758 25.1104V42.1079L228.504 46.2106C227.952 46.5298 227.025 46.3314 226.956 45.8827C226.818 45.0199 226.176 44.1829 225.037 43.5229C222.337 41.9612 217.883 42.0259 215.287 43.7041Z" fill="white" stroke="#3D0F9A" stroke-linejoin="round"/>
<path d="M226.957 45.8822C226.819 45.0193 226.176 44.1824 225.038 43.5223C222.338 41.9606 217.884 42.0254 215.288 43.7035C214.585 44.1565 214.119 44.7303 213.877 45.3429C213.649 44.7648 213.632 30.6922 213.826 30.1098C213.433 28.9148 213.925 27.5861 215.288 26.706C217.884 25.0278 222.338 24.9674 225.038 26.5248C226.176 27.1849 226.815 28.0218 226.957 28.8846V45.8822Z" fill="#3D0F9A"/>
<path d="M212.884 38.0182L220.172 34.0233C220.271 33.9672 220.331 33.8982 220.379 33.8335V50.4643C220.379 50.8075 220.379 50.905 220.172 51.0252L212.884 55.02V38.0225V38.0182Z" fill="white" stroke="#3D0F9A" stroke-linejoin="round"/>
<path d="M212.887 55.0158L205.448 50.7189C204.745 50.3134 203.516 50.568 203.451 51.146C203.343 52.0563 202.658 52.9493 201.398 53.6266C198.966 54.9338 195.098 54.9424 192.674 53.6439C191.368 52.945 190.695 52.0132 190.634 51.0641H190.604V34.0709H190.634C190.695 35.02 191.368 35.9518 192.67 36.6464C195.089 37.9406 198.962 37.932 201.394 36.6291C202.658 35.9518 203.343 35.0588 203.447 34.1485C203.516 33.5747 204.741 33.3159 205.443 33.7214L212.882 38.0183V55.0158H212.887Z" fill="#3D0F9A" stroke="#3D0F9A" stroke-linejoin="round"/>
<path d="M225.037 26.5254C222.337 24.9637 217.883 25.0284 215.287 26.7066C213.186 28.0612 213.143 30.4771 215.235 31.8447C216.408 32.6126 217.978 33.0397 219.59 33.1303C220.371 33.1734 220.729 33.7041 220.173 34.0276L212.885 38.0225L205.446 33.7256C204.743 33.3201 203.514 33.5746 203.449 34.1527C203.341 35.063 202.655 35.956 201.396 36.6333C198.964 37.9405 195.096 37.9448 192.672 36.6506C189.994 35.2183 189.947 32.7938 192.521 31.3054C193.673 30.6411 195.147 30.2787 196.648 30.2183C197.644 30.1795 198.076 29.4633 197.373 29.0578L190.007 24.83L210.474 13.3114C211.962 12.4529 213.795 12.4529 215.282 13.3114L235.758 25.1104L228.504 29.2131C227.952 29.5323 227.025 29.3339 226.956 28.8852C226.818 28.0224 226.176 27.1855 225.037 26.5254Z" fill="white" stroke="#3D0F9A" stroke-linejoin="round"/>
<path d="M10.7533 133.448C9.33198 133.334 7.964 132.96 6.90248 132.328C5.66774 131.593 5.09923 130.621 5.1925 129.666H5.14809V114.83V112.941L5.1925 112.954C5.10812 113.905 5.67219 114.873 6.90692 115.603C8.10613 116.316 9.69619 116.702 11.3173 116.753C12.3433 116.787 12.7919 117.483 12.0635 117.887L11.2418 118.341C11.2685 118.341 11.2907 118.341 11.3173 118.345C12.3433 118.379 10.7533 133.444 10.7533 133.444V133.448Z" fill="#3D0F9A"/>
<path d="M5.1925 114.83C5.1925 114.856 5.1925 114.886 5.1925 114.911M10.7533 133.448C9.33198 133.334 7.964 132.96 6.90248 132.328C5.66774 131.593 5.09923 130.621 5.1925 129.666H5.14809V114.83V112.941L5.1925 112.954C5.10812 113.905 5.67219 114.873 6.90692 115.603C8.10613 116.316 9.69619 116.702 11.3173 116.753C12.3433 116.787 12.7919 117.483 12.0635 117.887L11.2418 118.341C11.2685 118.341 11.2907 118.341 11.3173 118.345C12.3433 118.379 10.7533 133.444 10.7533 133.444V133.448Z" stroke="#3D0F9A" stroke-linejoin="round"/>
<path d="M11.5303 126.667C12.0769 126.983 12.9951 126.774 13.072 126.329C13.2342 125.402 13.9773 124.505 15.3011 123.83C17.6925 122.608 21.6384 122.591 24.0341 123.788C25.9387 124.74 26.6433 126.163 26.1651 127.47C26.3786 128.047 26.3615 141.982 26.1053 142.555C25.785 141.833 25.0975 141.149 24.0341 140.62C21.6384 139.419 17.6925 139.441 15.3011 140.662C13.9773 141.337 13.2342 142.239 13.072 143.162C12.9908 143.61 12.0769 143.815 11.5303 143.499L3.8265 138.966V122.134L11.5303 126.667Z" fill="white" stroke="#3D0F9A" stroke-linejoin="round"/>
<path d="M13.072 126.326C13.2342 125.399 13.9773 124.502 15.3011 123.827C17.6925 122.605 21.6384 122.588 24.0341 123.784C25.9387 124.737 26.6433 126.159 26.1651 127.467C26.3786 128.043 26.3615 141.979 26.1053 142.551C25.785 141.829 25.0975 141.146 24.0341 140.616C21.6384 139.416 17.6925 139.437 15.3011 140.659C13.9773 141.334 13.2342 142.235 13.072 143.158V126.326Z" fill="#3D0F9A"/>
<path d="M26.707 152.296L19.7377 148.233C19.5242 148.109 19.4516 147.956 19.4858 147.81V131.068C19.4943 131.187 19.5712 131.307 19.7377 131.401L26.707 135.464V152.296Z" fill="white" stroke="#3D0F9A" stroke-linejoin="round"/>
<path d="M26.7024 135.463L19.7331 131.401C19.1908 131.085 19.5367 130.555 20.3054 130.512C21.7829 130.427 23.2263 130.055 24.3623 129.401C27.0782 127.834 26.9715 125.257 24.0377 123.788C21.642 122.587 17.6961 122.609 15.3047 123.831C13.9809 124.506 13.2378 125.407 13.0755 126.33C12.9944 126.778 12.0805 126.983 11.5339 126.667L3.82582 122.135L11.7773 117.649C12.4777 117.243 12.0464 116.542 11.0599 116.508C9.5012 116.453 7.9724 116.068 6.81938 115.35C4.59449 113.966 4.60731 111.753 6.84074 110.361C9.31331 108.818 13.4727 108.776 16.0051 110.241C17.1367 110.895 17.7474 111.736 17.8413 112.595C17.9011 113.163 19.131 113.407 19.8313 113.001L26.9245 108.972L49.7969 122.301L26.7024 135.463Z" fill="white" stroke="#3D0F9A" stroke-linejoin="round"/>
<path d="M26.6982 135.463V152.295L49.7969 139.133V122.305L26.6982 135.463Z" fill="#3D0F9A" stroke="#3D0F9A" stroke-linejoin="round"/>
<path d="M193.731 174.566C193.741 174.426 193.738 174.289 193.731 174.148V171.361H192.309C191.905 170.976 191.419 170.612 190.844 170.284L108.717 122.65C104.88 120.446 98.6234 120.482 94.8148 122.73L62.1248 142C61.574 142.324 61.1061 142.677 60.7173 143.051L59.2773 142.987V146.167H59.2809C59.3313 147.6 60.2889 149.022 62.1608 150.103L144.309 197.906C148.139 200.117 154.385 200.081 158.19 197.823L190.905 178.394C192.697 177.332 193.637 175.96 193.731 174.573V174.563V174.566Z" fill="#3D0F9A" stroke="#3D0F9A" stroke-linejoin="round"/>
<path d="M151.156 199.905C148.611 199.905 146.073 199.347 144.129 198.223L61.9814 150.416C60.1959 149.383 59.1304 148.004 58.9504 146.505H58.9216L58.918 146.171V142.616L60.5811 142.688C60.9771 142.328 61.4342 141.993 61.9418 141.691L94.6318 122.42C98.552 120.108 104.952 120.072 108.898 122.337L191.028 169.971C191.564 170.281 192.043 170.627 192.453 171.001H194.091V174.149C194.098 174.289 194.098 174.44 194.091 174.592C193.98 176.173 192.914 177.624 191.089 178.708L158.374 198.137C156.39 199.314 153.773 199.905 151.16 199.905H151.156ZM59.6379 146.063V146.153C59.6883 147.521 60.6495 148.814 62.3414 149.79L144.489 197.597C148.226 199.757 154.292 199.721 158.003 197.514L190.718 178.085C192.338 177.123 193.281 175.867 193.371 174.548L193.731 174.563L193.371 174.541C193.378 174.422 193.378 174.3 193.371 174.167V171.722H192.165L192.061 171.621C191.668 171.246 191.201 170.9 190.664 170.594L108.538 122.964C104.794 120.814 98.7176 120.847 94.999 123.043L62.309 142.31C61.7978 142.609 61.3478 142.947 60.9663 143.311L60.8547 143.419L59.6379 143.365V146.066V146.063Z" fill="#3D0F9A"/>
<path d="M94.8217 119.391C98.6339 117.144 104.89 117.108 108.724 119.312L190.854 166.946C194.688 169.15 194.717 172.798 190.912 175.056L158.197 194.485C154.391 196.743 148.146 196.782 144.316 194.567L62.1677 146.764C58.3375 144.553 58.3231 140.905 62.1317 138.658L94.8217 119.391Z" fill="white" stroke="#3D0F9A" stroke-linejoin="round"/>
<path fill-rule="evenodd" clip-rule="evenodd" d="M100.489 134.444C99.0587 133.618 97.0426 133.525 95.0966 134.195C93.4599 134.758 92.3404 135.019 92.1458 135.062C90.2034 135.366 86.3569 135.023 85.0304 134.863C85.0276 134.863 85.0247 134.863 85.0218 134.862C84.4223 134.793 83.688 134.831 83.2178 135.102L83.2138 135.104C83.1173 135.16 83.0321 135.226 82.9617 135.302C82.6387 135.654 82.8047 136.089 83.3864 136.413L87.6911 138.898L87.4266 139.31C87.1681 139.64 87.2422 140.006 87.6253 140.273C87.6565 140.295 87.6895 140.316 87.7236 140.336C88.1565 140.585 88.826 140.679 89.4713 140.575C89.496 140.571 89.5197 140.566 89.5431 140.561L90.4549 140.366C91.942 140.811 93.4378 140.832 94.9077 140.428C96.2166 140.069 97.3379 139.42 98.327 138.847L98.689 138.638L99.3987 138.784C99.9656 138.928 100.601 138.88 101.07 138.654C101.59 138.404 101.807 137.984 101.622 137.583C101.615 137.569 101.608 137.555 101.6 137.542L101.266 137.001C102.008 136.169 101.719 135.154 100.489 134.444ZM92.6574 136.082C92.68 136.078 92.7029 136.073 92.725 136.069C92.7787 136.058 94.0593 135.784 96.0225 135.108C97.2285 134.693 98.3473 134.727 99.1733 135.204C99.8926 135.619 100.026 136.214 99.497 136.651C99.4116 136.721 99.3565 136.802 99.3362 136.887C99.3159 136.972 99.3311 137.058 99.3804 137.137L99.7383 137.717L98.7829 137.52C98.6184 137.486 98.4397 137.48 98.268 137.503C98.0962 137.526 97.9384 137.576 97.8132 137.649L97.0301 138.101C94.804 139.389 93.2894 140.115 91.0328 139.323C90.7644 139.229 90.4369 139.223 90.1616 139.298L89.2698 139.489L89.6261 138.934C89.6874 138.839 89.7005 138.735 89.6638 138.637C89.6271 138.538 89.5422 138.448 89.4191 138.376L85.2609 135.976C86.7421 136.128 90.4386 136.443 92.6574 136.082Z" fill="#FF5A00"/>
<path fill-rule="evenodd" clip-rule="evenodd" d="M96.8263 135.777C96.6436 135.883 96.5413 136.026 96.542 136.176C96.5426 136.325 96.6462 136.469 96.83 136.575C97.0137 136.681 97.2625 136.741 97.5216 136.741C97.7808 136.742 98.029 136.683 98.2118 136.577C98.3946 136.472 98.4968 136.328 98.4962 136.179C98.4955 136.029 98.3919 135.885 98.2082 135.779C98.0244 135.673 97.7756 135.613 97.5165 135.613C97.2573 135.613 97.0091 135.672 96.8263 135.777Z" fill="#FF5A00"/>
<path fill-rule="evenodd" clip-rule="evenodd" d="M137.323 160.762C137.65 160.399 137.791 160.057 137.755 159.717C137.711 159.304 137.401 158.919 136.809 158.538C136.444 158.304 136.019 158.102 135.551 157.941C134.892 157.714 134.165 157.623 133.388 157.67C133.302 157.675 133.217 157.681 133.125 157.688C133.127 157.683 133.129 157.677 133.131 157.672C133.143 157.627 133.157 157.582 133.171 157.537C133.205 157.43 133.241 157.32 133.242 157.209C133.245 156.87 133.053 156.542 132.657 156.205C132.213 155.828 131.62 155.517 130.929 155.297C130.335 155.106 129.67 155.028 128.955 155.066L129.011 155.013C129.206 154.833 129.298 154.68 129.311 154.518C129.324 154.361 129.146 154.182 128.878 154.085C128.636 153.996 128.365 153.988 128.134 154.061C128.004 154.102 127.895 154.165 127.808 154.216C125.889 155.322 123.971 156.43 122.054 157.537L122.018 157.558C121.955 157.593 121.89 157.63 121.834 157.672C121.509 157.91 121.47 158.149 121.722 158.362C121.864 158.482 122.012 158.576 122.164 158.642C122.423 158.755 122.732 158.779 123.036 158.711C123.283 158.655 123.471 158.558 123.638 158.462C124.996 157.677 126.354 156.893 127.713 156.109L127.739 156.094C127.764 156.079 127.797 156.059 127.817 156.056L127.945 156.035C128.118 156.007 128.297 155.977 128.473 155.97C129.307 155.933 130.031 156.088 130.686 156.444C131.119 156.68 131.241 156.948 131.058 157.265C130.896 157.545 130.602 157.801 130.103 158.093C129.292 158.567 128.463 159.045 127.66 159.508L126.566 160.14C126.495 160.181 126.422 160.223 126.357 160.271C126.062 160.484 125.997 160.687 126.155 160.892C126.227 160.985 126.325 161.068 126.449 161.139C126.546 161.195 126.66 161.245 126.789 161.287C127.081 161.383 127.393 161.377 127.691 161.269C127.843 161.214 127.994 161.144 128.14 161.06C129.051 160.536 129.961 160.011 130.87 159.486L132.241 158.695C132.271 158.677 132.308 158.655 132.334 158.65L132.443 158.632C132.613 158.604 132.789 158.575 132.96 158.568C133.871 158.53 134.672 158.721 135.341 159.135C135.594 159.292 135.696 159.482 135.643 159.699C135.591 159.919 135.428 160.126 135.146 160.331C134.873 160.529 134.581 160.718 134.273 160.898C133.638 161.269 132.987 161.644 132.357 162.007C131.931 162.254 131.504 162.5 131.077 162.747C130.871 162.867 130.664 162.999 130.602 163.187C130.521 163.434 130.755 163.685 131.243 163.874C131.541 163.989 131.882 163.995 132.206 163.89C132.35 163.843 132.492 163.778 132.652 163.686C133.62 163.131 134.651 162.536 135.895 161.815C136.416 161.514 136.949 161.177 137.323 160.762ZM143.039 166.465C142.353 166.854 141.625 167.074 140.812 167.136C140.061 167.192 139.37 167.092 138.759 166.838C138.111 166.568 137.717 166.246 137.552 165.851C137.415 165.522 137.47 165.189 137.721 164.831C137.975 164.468 138.383 164.146 138.967 163.846C139.508 163.569 140.067 163.393 140.676 163.307C141.462 163.196 142.179 163.264 142.807 163.508C143.004 163.584 143.189 163.672 143.357 163.768C144.195 164.252 144.45 164.907 144.035 165.584C143.831 165.915 143.496 166.212 143.039 166.465ZM146.291 165.436C146.392 164.674 146.033 163.996 145.222 163.42C144.632 163 143.917 162.675 143.097 162.453C142.541 162.302 142.01 162.24 141.475 162.262C141.391 162.266 141.308 162.272 141.225 162.279C141.261 162.249 141.298 162.218 141.334 162.188C141.379 162.151 141.423 162.114 141.466 162.077C141.777 161.803 141.775 161.574 141.458 161.332C141.246 161.17 140.89 161.11 140.595 161.186C140.446 161.224 140.297 161.285 140.152 161.368C137.531 162.879 134.87 164.416 132.296 165.902L131.353 166.446C131.306 166.474 131.244 166.51 131.186 166.548C130.722 166.856 130.732 167.155 131.217 167.435L131.221 167.437C131.588 167.647 131.958 167.71 132.325 167.623C132.526 167.576 132.735 167.492 132.93 167.381C133.648 166.972 134.362 166.562 135.072 166.149C135.34 165.995 135.606 165.84 135.874 165.686L135.889 165.678C135.864 166.148 136.107 166.594 136.63 167.042C136.98 167.341 137.418 167.603 137.931 167.819C138.515 168.064 139.146 168.228 139.808 168.306C141.37 168.489 142.835 168.264 144.163 167.637C144.757 167.356 145.24 167.032 145.598 166.673C146.008 166.263 146.234 165.859 146.291 165.436ZM114.484 149.039L110.483 146.729C111.559 146.299 113.211 146.27 114.38 147.048C114.886 147.384 115.093 147.79 114.996 148.253C114.939 148.536 114.763 148.806 114.484 149.039ZM117.101 148.392C117.093 147.697 116.695 147.062 115.917 146.505C115.048 145.883 113.971 145.493 112.716 145.347C111.14 145.163 109.672 145.391 108.35 146.023C107.796 146.288 107.326 146.606 106.96 146.965C106.539 147.377 106.31 147.806 106.277 148.24C106.22 149.011 106.679 149.727 107.641 150.369C107.752 150.442 107.866 150.513 107.984 150.581C108.471 150.863 109.017 151.093 109.612 151.268C110.358 151.487 111.054 151.594 111.739 151.594C112.122 151.595 112.678 151.565 113.087 151.304C113.263 151.192 113.325 151.026 113.251 150.869C113.181 150.723 113.012 150.615 112.785 150.571C112.536 150.523 112.249 150.499 111.88 150.493C110.844 150.479 109.991 150.27 109.272 149.855L109.27 149.854C108.784 149.574 108.502 149.275 108.407 148.941C108.261 148.427 108.51 147.944 109.191 147.421C109.204 147.411 109.217 147.401 109.231 147.391C109.249 147.401 109.272 147.414 109.289 147.424L111.711 148.822L111.785 148.861C111.996 148.983 112.206 149.105 112.416 149.227C112.978 149.553 113.56 149.89 114.14 150.217C114.578 150.463 115.16 150.494 115.622 150.295C116.032 150.118 116.308 149.879 116.524 149.668C116.912 149.29 117.106 148.861 117.101 148.392ZM120.792 154.428C120.71 154.476 120.627 154.524 120.545 154.571C120.474 154.611 120.408 154.648 120.311 154.709C119.903 154.93 119.632 154.958 119.236 154.979C118.668 155.008 118.134 154.909 117.648 154.684C117.289 154.518 117.035 154.383 116.823 154.247C116.502 154.04 116.327 153.825 116.287 153.591C116.248 153.365 116.384 153.164 116.69 152.994C117.135 152.747 117.664 152.654 118.26 152.716C118.588 152.75 118.922 152.829 119.312 152.963C119.624 153.072 119.913 153.204 120.17 153.354C120.287 153.422 120.404 153.496 120.52 153.576C120.696 153.696 120.854 153.831 121.007 153.961C121.077 154.021 121.147 154.08 121.219 154.139C121.243 154.158 121.253 154.167 121.198 154.197C121.059 154.272 120.923 154.352 120.792 154.428ZM124.009 154.437C124.443 154.186 124.76 153.939 124.977 153.68C125.32 153.271 125.412 152.848 125.251 152.421C125.088 151.99 124.698 151.584 124.059 151.178C123.53 150.84 122.907 150.556 122.217 150.337C121.562 150.129 120.982 150.028 120.393 150.017C119.899 150.007 119.5 150.08 119.172 150.239C118.936 150.353 118.824 150.539 118.879 150.723C118.937 150.919 119.163 151.076 119.499 151.154C119.779 151.219 120.054 151.203 120.359 151.177C121.048 151.118 121.664 151.228 122.188 151.504C122.496 151.668 122.78 151.846 123.035 152.038C123.339 152.267 123.414 152.532 123.25 152.804C123.052 153.134 122.67 153.387 122.313 153.592C122.102 153.308 121.784 153.075 121.468 152.865C120.942 152.515 120.305 152.203 119.574 151.939C118.861 151.68 118.216 151.545 117.544 151.513C116.936 151.483 116.331 151.564 115.815 151.746C115.38 151.895 115.003 152.094 114.707 152.33C114.34 152.624 114.157 152.924 114.145 153.247C114.127 153.757 114.463 154.234 115.17 154.706C115.266 154.769 115.366 154.831 115.468 154.889C115.75 155.052 116.044 155.195 116.287 155.308C116.845 155.569 117.499 155.725 118.232 155.773C118.319 155.779 118.408 155.784 118.494 155.789C118.396 155.863 118.306 155.955 118.269 156.067C118.188 156.314 118.421 156.564 118.91 156.753C119.207 156.869 119.549 156.874 119.873 156.769C120.017 156.722 120.158 156.658 120.319 156.566C121.339 155.979 122.358 155.392 123.374 154.804L124.009 154.437ZM167.63 176.522C167.423 176.292 166.986 176.172 166.592 176.237C166.394 176.27 166.205 176.318 166.021 176.364L166.005 176.368C165.123 176.591 164.241 176.816 163.36 177.04L159.949 177.909C160.043 177.788 160.138 177.667 160.233 177.546C160.356 177.388 160.48 177.232 160.602 177.075C160.776 176.85 160.949 176.626 161.123 176.402L161.652 175.718C161.783 175.55 161.915 175.382 162.047 175.214C162.295 174.9 162.539 174.585 162.781 174.269C162.842 174.189 162.874 174.102 162.874 174.014C162.874 173.925 162.843 173.838 162.783 173.756C162.721 173.672 162.63 173.595 162.516 173.531C162.402 173.466 162.268 173.416 162.12 173.382C161.543 173.251 160.931 173.405 160.664 173.748C160.545 173.902 160.432 174.059 160.323 174.212C160.265 174.292 160.207 174.373 160.148 174.454L159.564 175.248C159.205 175.737 158.846 176.225 158.489 176.713C158.331 176.929 158.174 177.146 158.017 177.362C157.783 177.686 157.541 178.021 157.297 178.349C157.285 178.366 157.274 178.383 157.264 178.4C157.22 178.47 157.187 178.514 157.084 178.539C156.494 178.682 155.911 178.833 155.334 178.992C154.78 179.146 154.233 179.137 153.66 178.965C153.458 178.903 153.241 178.86 153.017 178.836C152.698 178.803 152.335 178.957 152.209 179.114C152.058 179.302 152.128 179.507 152.396 179.663L152.405 179.668C152.856 179.928 153.344 180.088 153.895 180.155C154.443 180.222 155.023 180.186 155.666 180.044C156.17 179.934 156.673 179.809 157.159 179.688L157.611 179.577C158.305 179.407 158.998 179.236 159.691 179.065L161.171 178.701C161.638 178.586 162.106 178.471 162.574 178.357L163.784 178.06L164.242 177.948C165.06 177.747 165.905 177.54 166.736 177.333L166.822 177.312C167.021 177.263 167.228 177.212 167.408 177.139C167.711 177.015 167.815 176.727 167.63 176.522ZM163.226 171.828C163.679 171.716 164.006 171.371 163.941 171.073C163.884 170.813 163.681 170.57 163.303 170.308C162.874 170.012 162.438 169.794 161.968 169.64C161.441 169.468 160.933 169.41 160.414 169.461C159.83 169.52 159.303 169.684 158.756 169.981C158.388 170.18 158.028 170.391 157.68 170.595L157.457 170.726C157.426 170.743 157.414 170.745 157.414 170.745C157.414 170.745 157.399 170.744 157.355 170.724C157.193 170.652 157.022 170.587 156.843 170.53C156.539 170.435 156.25 170.438 156.007 170.539C155.694 170.669 155.57 170.848 155.649 171.057C155.703 171.201 155.863 171.293 156.018 171.383C156.043 171.398 156.068 171.412 156.092 171.427L156.098 171.43C156.123 171.444 156.148 171.46 156.162 171.47C156.146 171.48 156.118 171.497 156.092 171.512L151.246 174.31C151.223 174.323 151.199 174.336 151.175 174.349C151.103 174.388 151.029 174.429 150.971 174.478C150.878 174.559 150.774 174.655 150.713 174.758C150.627 174.903 150.69 175.071 150.889 175.232C150.938 175.272 150.994 175.31 151.055 175.345C151.2 175.429 151.372 175.496 151.535 175.53C151.907 175.608 152.259 175.554 152.582 175.371C153.2 175.02 153.814 174.666 154.424 174.311L155.058 173.945L155.061 173.947L157.664 172.444L157.692 172.428C157.711 172.417 157.731 172.406 157.75 172.395L157.755 172.392L157.757 172.393C157.844 172.454 158.196 172.653 158.473 172.802C158.748 172.95 159.174 173.114 159.693 172.832C160.025 172.651 160.101 172.441 159.913 172.226C159.837 172.14 159.49 171.924 159.29 171.803L159.215 171.757C159.2 171.744 159.18 171.732 159.156 171.723L159.079 171.68L159.074 171.677C159.06 171.67 159.049 171.662 159.039 171.654C159.049 171.643 159.063 171.633 159.079 171.625C159.329 171.484 159.58 171.338 159.823 171.198C159.993 171.1 160.163 171.002 160.333 170.904C160.399 170.867 160.475 170.831 160.559 170.797C160.91 170.658 161.278 170.673 161.624 170.84C161.898 170.974 162.061 171.147 162.138 171.383C162.193 171.551 162.342 171.685 162.581 171.782C162.787 171.865 163.01 171.882 163.226 171.828ZM110.125 143.417C109.841 143.249 109.555 143.083 109.266 142.918L108.985 142.757C108.941 142.731 108.895 142.705 108.877 142.691C108.893 142.678 108.934 142.655 108.974 142.632L109.232 142.483C109.421 142.374 109.61 142.265 109.797 142.156C109.873 142.111 109.949 142.067 110.026 142.024C110.239 141.9 110.461 141.773 110.66 141.638C110.856 141.505 110.936 141.36 110.89 141.217C110.839 141.055 110.63 140.907 110.303 140.798C110.04 140.71 109.754 140.714 109.495 140.807C109.365 140.854 109.248 140.913 109.135 140.97L109.082 140.996C108.951 141.062 108.822 141.128 108.693 141.194C108.441 141.326 108.182 141.454 107.916 141.577C107.728 141.663 107.428 141.748 107.065 141.671C106.975 141.652 106.888 141.627 106.797 141.6C106.726 141.58 106.655 141.56 106.583 141.542C106.261 141.463 105.947 141.498 105.698 141.641C105.438 141.79 105.375 141.98 105.525 142.161C105.604 142.256 105.729 142.336 105.85 142.414L105.911 142.453L105.928 142.464C105.95 142.478 105.974 142.494 105.987 142.504C105.972 142.515 105.941 142.533 105.913 142.549L104.941 143.109C104.093 143.597 103.217 144.103 102.362 144.604C102.086 144.765 101.816 144.954 101.558 145.166C101.286 145.389 101.146 145.651 101.143 145.945C101.138 146.326 101.428 146.694 101.89 146.96C102.225 147.154 102.651 147.294 103.121 147.349C103.578 147.402 103.948 147.36 104.254 147.221C104.543 147.089 104.633 146.844 104.45 146.685C104.3 146.554 104.115 146.475 103.886 146.442C103.753 146.423 103.635 146.405 103.537 146.371C103.364 146.311 103.251 146.236 103.22 146.16C103.196 146.1 103.221 146.038 103.294 145.975C103.389 145.892 103.505 145.797 103.643 145.716C104.088 145.455 104.536 145.195 104.986 144.937L105.474 144.656L105.541 144.614L107.535 143.463C107.548 143.455 107.579 143.437 107.599 143.428C107.611 143.435 107.631 143.447 107.657 143.464C107.881 143.613 108.323 143.901 108.536 144.032C108.689 144.126 108.878 144.243 109.097 144.324C109.371 144.424 109.677 144.432 109.958 144.345C110.27 144.249 110.498 144.051 110.5 143.875C110.501 143.671 110.3 143.523 110.125 143.417ZM153.778 165.756C153.855 165.696 153.934 165.631 153.99 165.558C154.2 165.277 154.013 165.008 153.449 164.783C153.147 164.662 152.815 164.644 152.514 164.732C152.341 164.783 152.164 164.86 151.989 164.961C150.876 165.599 149.749 166.25 148.659 166.88L143.434 169.897C143.365 169.936 143.294 169.977 143.231 170.023C142.903 170.26 142.863 170.499 143.115 170.713C143.206 170.79 143.299 170.856 143.395 170.912C143.448 170.942 143.502 170.97 143.556 170.993C143.813 171.106 144.122 171.131 144.428 171.063C144.686 171.006 144.88 170.902 145.041 170.809L153.566 165.886C153.582 165.877 153.598 165.868 153.615 165.859C153.674 165.827 153.729 165.793 153.778 165.756ZM154.529 169.666C154.698 169.551 154.787 169.44 154.809 169.318C154.839 169.147 154.732 168.99 154.481 168.837C154.056 168.578 153.631 168.517 153.181 168.65C153.014 168.699 152.871 168.775 152.753 168.842C150.969 169.87 149.091 170.954 147.172 172.065C147.023 172.151 146.919 172.226 146.844 172.301C146.555 172.588 146.75 172.857 147.074 173.044C147.163 173.095 147.263 173.141 147.365 173.179C147.65 173.285 147.963 173.295 148.245 173.207C148.471 173.136 148.649 173.063 148.789 172.984C149.482 172.589 150.181 172.185 150.857 171.794L154.123 169.907L154.225 169.849C154.328 169.791 154.434 169.731 154.529 169.666ZM156.82 167.412C156.702 167.344 156.562 167.29 156.409 167.252C156.256 167.215 156.092 167.196 155.927 167.195C155.762 167.194 155.599 167.212 155.447 167.247C155.295 167.283 155.158 167.336 155.042 167.403C154.927 167.469 154.836 167.549 154.774 167.637C154.712 167.724 154.681 167.818 154.683 167.914C154.685 168.009 154.719 168.104 154.784 168.192C154.848 168.28 154.942 168.361 155.06 168.429C155.298 168.566 155.619 168.644 155.952 168.646C156.286 168.648 156.604 168.573 156.837 168.438C157.071 168.303 157.2 168.119 157.197 167.927C157.193 167.734 157.058 167.549 156.82 167.412Z" fill="#FF5A00"/>
</g>
<defs>
<clipPath id="clip0_4926_493">
<rect width="238" height="200" fill="white"/>
</clipPath>
</defs>
</svg>
