<svg width="844" height="471" viewBox="0 0 844 471" fill="none" xmlns="http://www.w3.org/2000/svg">
<rect width="844" height="471" rx="10" fill="white"/>
<path d="M510.811 381.635C503.52 378.581 494.812 379.241 488.44 383.923C469.602 397.766 446.003 406 420.382 406C391.419 406 365.039 395.477 345.2 378.224C338.053 372.01 327.137 371.326 318.587 375.325C310.425 379.143 301.245 381.288 291.535 381.288C272.424 381.288 255.359 372.977 244.076 359.949C238.676 353.714 230.004 350.209 221.648 351.952C213.597 353.632 205.233 354.518 196.652 354.518C132.253 354.518 80.1263 304.674 80.1263 243.286C80.1263 218.934 88.3235 196.408 102.234 178.085C106.235 172.815 107.274 165.747 106.247 158.91C105.22 152.068 102.108 145.316 97.614 140.585C88.7518 131.255 83.361 118.882 83.361 105.313C83.361 76.3376 107.972 52.7709 138.428 52.7709C147.654 52.7709 156.346 54.9349 163.98 58.7575C174.103 63.8264 188.367 63.0108 197.347 56.1422C208.525 47.5921 222.714 42.4744 238.164 42.4744C251.448 42.4744 263.801 46.2583 274.108 52.7544C283.69 58.7931 297.912 58.5297 306.413 50.9754C323.848 35.4823 347.23 26 372.941 26C398.874 26 422.439 35.6471 439.92 51.3789C448.012 58.6611 461.303 59.2567 470.49 53.415C482.38 45.8539 496.663 41.4448 512.031 41.4448C553.504 41.4448 587.045 73.5398 587.045 113.035C587.045 120.483 585.854 127.664 583.643 134.415C582.655 137.433 583.615 140.673 585.819 142.902C588.486 145.602 592.763 146.64 596.322 144.919C611.973 137.35 629.675 133.084 648.425 133.084C712.229 133.084 763.873 182.466 763.873 243.286C763.873 304.106 712.229 353.488 648.425 353.488C639.287 353.488 630.398 352.475 621.874 350.56C613.194 348.609 604.039 352.292 598.775 359.116C585.516 376.303 564.163 387.466 540.065 387.466C529.657 387.466 519.763 385.384 510.811 381.635Z" fill="#F9FAFC" stroke="#E5F0FF" stroke-width="2"/>
<g clip-path="url(#clip0_1558_1218)">
<path d="M369.5 113C369.5 112.448 369.948 112 370.5 112H372.5C373.052 112 373.5 112.448 373.5 113C373.5 113.552 373.052 114 372.5 114H370.5C369.948 114 369.5 113.552 369.5 113Z" fill="#8F95B2"/>
<path fill-rule="evenodd" clip-rule="evenodd" d="M372.341 97.4593C372.64 97.9238 372.505 98.5425 372.041 98.8412L365.041 103.341C364.576 103.64 363.957 103.505 363.659 103.041C363.36 102.576 363.495 101.957 363.959 101.659L370.959 97.1588C371.424 96.8602 372.043 96.9947 372.341 97.4593Z" fill="#8F95B2"/>
<path fill-rule="evenodd" clip-rule="evenodd" d="M379.341 97.4593C379.64 97.9238 379.505 98.5425 379.041 98.8412L372.041 103.341C371.576 103.64 370.957 103.505 370.659 103.041C370.36 102.576 370.495 101.957 370.959 101.659L377.959 97.1588C378.424 96.8602 379.043 96.9947 379.341 97.4593Z" fill="#8F95B2"/>
<path fill-rule="evenodd" clip-rule="evenodd" d="M372.041 98.8412C372.505 98.5425 372.64 97.9238 372.341 97.4593C372.043 96.9947 371.424 96.8602 370.959 97.1588L363.959 101.659C363.495 101.957 363.36 102.576 363.659 103.041C363.957 103.505 364.576 103.64 365.041 103.341L372.041 98.8412ZM379.041 98.8412C379.505 98.5425 379.64 97.9238 379.341 97.4593C379.043 96.9947 378.424 96.8602 377.959 97.1588L370.959 101.659C370.495 101.957 370.36 102.576 370.659 103.041C370.957 103.505 371.576 103.64 372.041 103.341L379.041 98.8412Z" fill="#8F95B2"/>
<path fill-rule="evenodd" clip-rule="evenodd" d="M370.5 112H372.5C373.052 112 373.5 112.448 373.5 113C373.5 113.552 373.052 114 372.5 114H370.5C369.948 114 369.5 113.552 369.5 113C369.5 112.448 369.948 112 370.5 112Z" fill="#8F95B2"/>
<path fill-rule="evenodd" clip-rule="evenodd" d="M355.5 94C355.5 91.2386 357.739 89 360.5 89H382.5C385.261 89 387.5 91.2386 387.5 94V109.268C388.098 109.613 388.5 110.26 388.5 111V113.394C388.5 113.789 388.383 114.175 388.164 114.504L387.094 116.109C386.723 116.666 386.098 117 385.43 117H357.57C356.902 117 356.277 116.666 355.906 116.109L354.836 114.504C354.617 114.175 354.5 113.789 354.5 113.394V111C354.5 110.26 354.902 109.613 355.5 109.268V94ZM382.5 91H360.5C358.843 91 357.5 92.3432 357.5 94V109H385.5V94C385.5 92.3432 384.157 91 382.5 91ZM356.5 111H386.5V113.394L385.43 115H357.57L356.5 113.394L356.5 111Z" fill="#8F95B2"/>
</g>
<path d="M414.5 103C414.5 104.105 413.605 105 412.5 105C411.395 105 410.5 104.105 410.5 103C410.5 101.895 411.395 101 412.5 101C413.605 101 414.5 101.895 414.5 103Z" fill="#8F95B2"/>
<path d="M423.5 103C423.5 104.105 422.605 105 421.5 105C420.395 105 419.5 104.105 419.5 103C419.5 101.895 420.395 101 421.5 101C422.605 101 423.5 101.895 423.5 103Z" fill="#8F95B2"/>
<path d="M432.5 103C432.5 104.105 431.605 105 430.5 105C429.395 105 428.5 104.105 428.5 103C428.5 101.895 429.395 101 430.5 101C431.605 101 432.5 101.895 432.5 103Z" fill="#8F95B2"/>
<g clip-path="url(#clip1_1558_1218)">
<path d="M469.5 113C469.5 112.448 469.948 112 470.5 112H472.5C473.052 112 473.5 112.448 473.5 113C473.5 113.552 473.052 114 472.5 114H470.5C469.948 114 469.5 113.552 469.5 113Z" fill="#8F95B2"/>
<path fill-rule="evenodd" clip-rule="evenodd" d="M472.341 97.4593C472.64 97.9238 472.505 98.5425 472.041 98.8412L465.041 103.341C464.576 103.64 463.957 103.505 463.659 103.041C463.36 102.576 463.495 101.957 463.959 101.659L470.959 97.1588C471.424 96.8602 472.043 96.9947 472.341 97.4593Z" fill="#8F95B2"/>
<path fill-rule="evenodd" clip-rule="evenodd" d="M479.341 97.4593C479.64 97.9238 479.505 98.5425 479.041 98.8412L472.041 103.341C471.576 103.64 470.957 103.505 470.659 103.041C470.36 102.576 470.495 101.957 470.959 101.659L477.959 97.1588C478.424 96.8602 479.043 96.9947 479.341 97.4593Z" fill="#8F95B2"/>
<path fill-rule="evenodd" clip-rule="evenodd" d="M472.041 98.8412C472.505 98.5425 472.64 97.9238 472.341 97.4593C472.043 96.9947 471.424 96.8602 470.959 97.1588L463.959 101.659C463.495 101.957 463.36 102.576 463.659 103.041C463.957 103.505 464.576 103.64 465.041 103.341L472.041 98.8412ZM479.041 98.8412C479.505 98.5425 479.64 97.9238 479.341 97.4593C479.043 96.9947 478.424 96.8602 477.959 97.1588L470.959 101.659C470.495 101.957 470.36 102.576 470.659 103.041C470.957 103.505 471.576 103.64 472.041 103.341L479.041 98.8412Z" fill="#8F95B2"/>
<path fill-rule="evenodd" clip-rule="evenodd" d="M470.5 112H472.5C473.052 112 473.5 112.448 473.5 113C473.5 113.552 473.052 114 472.5 114H470.5C469.948 114 469.5 113.552 469.5 113C469.5 112.448 469.948 112 470.5 112Z" fill="#8F95B2"/>
<path fill-rule="evenodd" clip-rule="evenodd" d="M455.5 94C455.5 91.2386 457.739 89 460.5 89H482.5C485.261 89 487.5 91.2386 487.5 94V109.268C488.098 109.613 488.5 110.26 488.5 111V113.394C488.5 113.789 488.383 114.175 488.164 114.504L487.094 116.109C486.723 116.666 486.098 117 485.43 117H457.57C456.902 117 456.277 116.666 455.906 116.109L454.836 114.504C454.617 114.175 454.5 113.789 454.5 113.394V111C454.5 110.26 454.902 109.613 455.5 109.268V94ZM482.5 91H460.5C458.843 91 457.5 92.3432 457.5 94V109H485.5V94C485.5 92.3432 484.157 91 482.5 91ZM456.5 111H486.5V113.394L485.43 115H457.57L456.5 113.394L456.5 111Z" fill="#8F95B2"/>
</g>
<path d="M472 128.5L472 133.5C472 136.261 469.761 138.5 467 138.5L429.071 138.5C427.745 138.5 426.473 139.027 425.536 139.964L423.414 142.086C422.633 142.867 421.367 142.867 420.586 142.086L418.464 139.964C417.527 139.027 416.255 138.5 414.929 138.5L377 138.5C374.239 138.5 372 136.261 372 133.5L372 128.5" stroke="#8F95B2" stroke-width="2" stroke-linecap="round"/>
<path d="M388.252 70.5589V65.8182H390.18V74H388.311V72.5458H388.225C388.041 73.0039 387.737 73.3786 387.314 73.6697C386.895 73.9609 386.379 74.1065 385.764 74.1065C385.228 74.1065 384.754 73.9876 384.342 73.7496C383.934 73.5082 383.614 73.1584 383.383 72.7003C383.153 72.2386 383.037 71.6811 383.037 71.0277V65.8182H384.965V70.7294C384.965 71.2479 385.107 71.6598 385.392 71.9652C385.676 72.2706 386.049 72.4233 386.51 72.4233C386.794 72.4233 387.069 72.354 387.336 72.2156C387.602 72.0771 387.821 71.8711 387.991 71.5977C388.165 71.3207 388.252 70.9744 388.252 70.5589ZM398.63 67.9808L396.872 68.1726C396.822 67.995 396.735 67.8281 396.611 67.6719C396.49 67.5156 396.327 67.3896 396.121 67.2937C395.915 67.1978 395.663 67.1499 395.364 67.1499C394.963 67.1499 394.626 67.2369 394.352 67.4109C394.083 67.5849 393.949 67.8104 393.953 68.0874C393.949 68.3253 394.036 68.5188 394.214 68.668C394.395 68.8171 394.693 68.9396 395.109 69.0355L396.504 69.3338C397.279 69.5007 397.854 69.7653 398.23 70.1275C398.61 70.4897 398.802 70.9638 398.806 71.5497C398.802 72.0646 398.651 72.5192 398.353 72.9134C398.058 73.304 397.648 73.6094 397.122 73.8295C396.597 74.0497 395.993 74.1598 395.311 74.1598C394.31 74.1598 393.504 73.9503 392.893 73.5312C392.282 73.1087 391.918 72.521 391.801 71.7681L393.681 71.587C393.766 71.9563 393.948 72.2351 394.225 72.4233C394.502 72.6115 394.862 72.7056 395.306 72.7056C395.764 72.7056 396.132 72.6115 396.409 72.4233C396.689 72.2351 396.829 72.0025 396.829 71.7255C396.829 71.4911 396.739 71.2976 396.558 71.1449C396.38 70.9922 396.103 70.875 395.727 70.7933L394.331 70.5004C393.546 70.337 392.966 70.0618 392.589 69.6747C392.213 69.2841 392.026 68.7905 392.03 68.1939C392.026 67.6896 392.163 67.2528 392.44 66.8835C392.721 66.5107 393.11 66.223 393.607 66.0206C394.107 65.8146 394.684 65.7116 395.338 65.7116C396.297 65.7116 397.051 65.9158 397.602 66.3242C398.156 66.7326 398.498 67.2848 398.63 67.9808ZM404.018 74.1598C403.197 74.1598 402.489 73.9893 401.892 73.6484C401.299 73.304 400.843 72.8175 400.523 72.1889C400.204 71.5568 400.044 70.8129 400.044 69.957C400.044 69.1154 400.204 68.3768 400.523 67.7411C400.847 67.1019 401.298 66.6048 401.876 66.2496C402.455 65.891 403.135 65.7116 403.917 65.7116C404.421 65.7116 404.897 65.7933 405.344 65.9567C405.795 66.1165 406.193 66.3651 406.537 66.7024C406.885 67.0398 407.159 67.4695 407.358 67.9915C407.556 68.5099 407.656 69.1278 407.656 69.8452V70.4364H400.95V69.1367H405.807C405.804 68.7674 405.724 68.4389 405.568 68.1513C405.412 67.8601 405.193 67.631 404.913 67.4641C404.636 67.2972 404.312 67.2138 403.943 67.2138C403.549 67.2138 403.203 67.3097 402.904 67.5014C402.606 67.6896 402.374 67.9382 402.207 68.2472C402.043 68.5526 401.96 68.8881 401.956 69.2539V70.3885C401.956 70.8643 402.043 71.2727 402.217 71.6136C402.391 71.951 402.635 72.2102 402.947 72.3913C403.26 72.5689 403.625 72.6577 404.044 72.6577C404.325 72.6577 404.579 72.6186 404.806 72.5405C405.033 72.4588 405.23 72.3398 405.397 72.1836C405.564 72.0273 405.69 71.8338 405.776 71.603L407.576 71.8054C407.462 72.2812 407.246 72.6967 406.926 73.0518C406.61 73.4034 406.205 73.6768 405.712 73.8722C405.218 74.0639 404.653 74.1598 404.018 74.1598ZM409.287 74V65.8182H411.157V67.1818H411.242C411.391 66.7095 411.647 66.3455 412.009 66.0898C412.375 65.8306 412.792 65.701 413.261 65.701C413.367 65.701 413.486 65.7063 413.618 65.717C413.753 65.7241 413.865 65.7365 413.953 65.7543V67.5281C413.872 67.4996 413.742 67.4748 413.564 67.4535C413.39 67.4286 413.222 67.4162 413.058 67.4162C412.707 67.4162 412.391 67.4925 412.11 67.6452C411.833 67.7944 411.615 68.0021 411.455 68.2685C411.295 68.5348 411.215 68.842 411.215 69.19V74H409.287ZM423.041 65.8182V67.3097H418.337V65.8182H423.041ZM419.498 63.858H421.427V71.5391C421.427 71.7983 421.466 71.9972 421.544 72.1357C421.626 72.2706 421.732 72.3629 421.864 72.4126C421.995 72.4624 422.14 72.4872 422.3 72.4872C422.421 72.4872 422.531 72.4783 422.631 72.4606C422.734 72.4428 422.812 72.4268 422.865 72.4126L423.19 73.9201C423.087 73.9556 422.939 73.9947 422.748 74.0373C422.56 74.0799 422.329 74.1048 422.055 74.1119C421.572 74.1261 421.137 74.0533 420.75 73.8935C420.363 73.7301 420.056 73.478 419.829 73.1371C419.605 72.7962 419.495 72.37 419.498 71.8587V63.858ZM424.653 74V65.8182H426.523V67.1818H426.608C426.757 66.7095 427.013 66.3455 427.375 66.0898C427.741 65.8306 428.158 65.701 428.627 65.701C428.734 65.701 428.853 65.7063 428.984 65.717C429.119 65.7241 429.231 65.7365 429.32 65.7543V67.5281C429.238 67.4996 429.108 67.4748 428.931 67.4535C428.757 67.4286 428.588 67.4162 428.425 67.4162C428.073 67.4162 427.757 67.4925 427.477 67.6452C427.2 67.7944 426.981 68.0021 426.821 68.2685C426.662 68.5348 426.582 68.842 426.582 69.19V74H424.653ZM432.809 74.1651C432.29 74.1651 431.823 74.0728 431.408 73.8881C430.996 73.6999 430.669 73.4229 430.428 73.0572C430.19 72.6914 430.071 72.2404 430.071 71.7042C430.071 71.2425 430.156 70.8608 430.326 70.5589C430.497 70.2571 430.729 70.0156 431.024 69.8345C431.319 69.6534 431.651 69.5167 432.02 69.4244C432.393 69.3285 432.778 69.2592 433.176 69.2166C433.655 69.1669 434.044 69.1225 434.343 69.0835C434.641 69.0408 434.858 68.9769 434.992 68.8917C435.131 68.8029 435.2 68.6662 435.2 68.4815V68.4496C435.2 68.0483 435.081 67.7376 434.843 67.5174C434.605 67.2972 434.263 67.1871 433.815 67.1871C433.343 67.1871 432.968 67.2901 432.691 67.4961C432.418 67.7021 432.233 67.9453 432.137 68.2259L430.337 67.9702C430.479 67.473 430.713 67.0575 431.04 66.7237C431.367 66.3864 431.766 66.1342 432.239 65.9673C432.711 65.7969 433.233 65.7116 433.805 65.7116C434.199 65.7116 434.591 65.7578 434.982 65.8501C435.372 65.9425 435.729 66.0952 436.053 66.3082C436.376 66.5178 436.635 66.8036 436.83 67.1658C437.029 67.5281 437.129 67.9808 437.129 68.5241V74H435.275V72.8761H435.211C435.094 73.1033 434.929 73.3164 434.716 73.5153C434.506 73.7106 434.241 73.8686 433.922 73.9893C433.606 74.1065 433.235 74.1651 432.809 74.1651ZM433.309 72.7482C433.696 72.7482 434.032 72.6719 434.316 72.5192C434.6 72.3629 434.818 72.157 434.971 71.9013C435.127 71.6456 435.206 71.3668 435.206 71.065V70.1009C435.145 70.1506 435.042 70.1967 434.897 70.2393C434.755 70.282 434.595 70.3192 434.417 70.3512C434.24 70.3832 434.064 70.4116 433.89 70.4364C433.716 70.4613 433.565 70.4826 433.437 70.5004C433.149 70.5394 432.892 70.6033 432.665 70.6921C432.437 70.7809 432.258 70.9052 432.127 71.065C431.995 71.2212 431.93 71.4237 431.93 71.6722C431.93 72.0273 432.059 72.2955 432.318 72.4766C432.578 72.6577 432.908 72.7482 433.309 72.7482ZM443.212 65.8182V67.3097H438.375V65.8182H443.212ZM439.584 74V65.0458C439.584 64.4954 439.698 64.0373 439.925 63.6715C440.156 63.3058 440.465 63.0323 440.852 62.8512C441.239 62.6701 441.669 62.5795 442.141 62.5795C442.475 62.5795 442.771 62.6062 443.03 62.6594C443.29 62.7127 443.481 62.7607 443.606 62.8033L443.222 64.2947C443.141 64.2699 443.038 64.245 442.913 64.2202C442.789 64.1918 442.651 64.1776 442.498 64.1776C442.139 64.1776 441.885 64.2646 441.736 64.4386C441.591 64.609 441.518 64.854 441.518 65.1737V74H439.584ZM448.866 65.8182V67.3097H444.029V65.8182H448.866ZM445.238 74V65.0458C445.238 64.4954 445.352 64.0373 445.579 63.6715C445.81 63.3058 446.119 63.0323 446.506 62.8512C446.893 62.6701 447.323 62.5795 447.795 62.5795C448.129 62.5795 448.426 62.6062 448.685 62.6594C448.944 62.7127 449.136 62.7607 449.26 62.8033L448.877 64.2947C448.795 64.2699 448.692 64.245 448.568 64.2202C448.443 64.1918 448.305 64.1776 448.152 64.1776C447.793 64.1776 447.54 64.2646 447.39 64.4386C447.245 64.609 447.172 64.854 447.172 65.1737V74H445.238ZM450.376 74V65.8182H452.304V74H450.376ZM451.345 64.657C451.04 64.657 450.777 64.5558 450.557 64.3533C450.337 64.1474 450.227 63.9006 450.227 63.6129C450.227 63.3217 450.337 63.0749 450.557 62.8725C450.777 62.6665 451.04 62.5636 451.345 62.5636C451.654 62.5636 451.917 62.6665 452.134 62.8725C452.354 63.0749 452.464 63.3217 452.464 63.6129C452.464 63.9006 452.354 64.1474 452.134 64.3533C451.917 64.5558 451.654 64.657 451.345 64.657ZM457.856 74.1598C457.039 74.1598 456.338 73.9805 455.752 73.6218C455.17 73.2631 454.72 72.7678 454.404 72.1357C454.092 71.5 453.936 70.7685 453.936 69.9411C453.936 69.1101 454.095 68.3768 454.415 67.7411C454.735 67.1019 455.186 66.6048 455.768 66.2496C456.354 65.891 457.046 65.7116 457.845 65.7116C458.509 65.7116 459.097 65.8342 459.609 66.0792C460.123 66.3207 460.534 66.6634 460.839 67.1072C461.144 67.5476 461.318 68.0625 461.361 68.652H459.518C459.443 68.2578 459.266 67.9293 458.985 67.6665C458.708 67.4002 458.337 67.267 457.872 67.267C457.478 67.267 457.132 67.3736 456.833 67.5866C456.535 67.7962 456.302 68.098 456.136 68.4922C455.972 68.8864 455.89 69.3587 455.89 69.9091C455.89 70.4666 455.972 70.946 456.136 71.3473C456.299 71.745 456.528 72.0522 456.823 72.2688C457.121 72.4819 457.471 72.5884 457.872 72.5884C458.156 72.5884 458.41 72.5352 458.634 72.4286C458.861 72.3185 459.051 72.1605 459.204 71.9545C459.356 71.7486 459.461 71.4982 459.518 71.2035H461.361C461.315 71.7823 461.144 72.2955 460.85 72.7429C460.555 73.1868 460.154 73.5348 459.646 73.7869C459.138 74.0355 458.541 74.1598 457.856 74.1598Z" fill="#8F95B2"/>
<path d="M375.898 169.091V180H373.97V169.091H375.898ZM381.45 180.16C380.651 180.16 379.958 179.984 379.372 179.632C378.786 179.281 378.332 178.789 378.009 178.157C377.689 177.525 377.529 176.786 377.529 175.941C377.529 175.096 377.689 174.355 378.009 173.72C378.332 173.084 378.786 172.59 379.372 172.239C379.958 171.887 380.651 171.712 381.45 171.712C382.249 171.712 382.941 171.887 383.527 172.239C384.113 172.59 384.566 173.084 384.886 173.72C385.209 174.355 385.37 175.096 385.37 175.941C385.37 176.786 385.209 177.525 384.886 178.157C384.566 178.789 384.113 179.281 383.527 179.632C382.941 179.984 382.249 180.16 381.45 180.16ZM381.46 178.615C381.894 178.615 382.256 178.496 382.547 178.258C382.838 178.017 383.055 177.693 383.197 177.289C383.343 176.884 383.415 176.433 383.415 175.936C383.415 175.435 383.343 174.982 383.197 174.577C383.055 174.169 382.838 173.844 382.547 173.603C382.256 173.361 381.894 173.24 381.46 173.24C381.017 173.24 380.647 173.361 380.352 173.603C380.061 173.844 379.843 174.169 379.697 174.577C379.555 174.982 379.484 175.435 379.484 175.936C379.484 176.433 379.555 176.884 379.697 177.289C379.843 177.693 380.061 178.017 380.352 178.258C380.647 178.496 381.017 178.615 381.46 178.615ZM389.361 180.165C388.843 180.165 388.376 180.073 387.96 179.888C387.548 179.7 387.222 179.423 386.98 179.057C386.742 178.691 386.623 178.24 386.623 177.704C386.623 177.242 386.709 176.861 386.879 176.559C387.049 176.257 387.282 176.016 387.577 175.834C387.872 175.653 388.204 175.517 388.573 175.424C388.946 175.328 389.331 175.259 389.729 175.217C390.208 175.167 390.597 175.122 390.895 175.083C391.194 175.041 391.41 174.977 391.545 174.892C391.684 174.803 391.753 174.666 391.753 174.481V174.45C391.753 174.048 391.634 173.738 391.396 173.517C391.158 173.297 390.815 173.187 390.368 173.187C389.896 173.187 389.521 173.29 389.244 173.496C388.971 173.702 388.786 173.945 388.69 174.226L386.89 173.97C387.032 173.473 387.266 173.057 387.593 172.724C387.92 172.386 388.319 172.134 388.791 171.967C389.264 171.797 389.786 171.712 390.357 171.712C390.752 171.712 391.144 171.758 391.535 171.85C391.925 171.942 392.282 172.095 392.605 172.308C392.928 172.518 393.188 172.804 393.383 173.166C393.582 173.528 393.681 173.981 393.681 174.524V180H391.828V178.876H391.764C391.646 179.103 391.481 179.316 391.268 179.515C391.059 179.711 390.794 179.869 390.475 179.989C390.159 180.106 389.787 180.165 389.361 180.165ZM389.862 178.748C390.249 178.748 390.585 178.672 390.869 178.519C391.153 178.363 391.371 178.157 391.524 177.901C391.68 177.646 391.758 177.367 391.758 177.065V176.101C391.698 176.151 391.595 176.197 391.449 176.239C391.307 176.282 391.148 176.319 390.97 176.351C390.792 176.383 390.617 176.412 390.443 176.436C390.269 176.461 390.118 176.483 389.99 176.5C389.702 176.539 389.445 176.603 389.217 176.692C388.99 176.781 388.811 176.905 388.679 177.065C388.548 177.221 388.482 177.424 388.482 177.672C388.482 178.027 388.612 178.295 388.871 178.477C389.13 178.658 389.461 178.748 389.862 178.748ZM398.656 180.144C398.014 180.144 397.438 179.979 396.931 179.648C396.423 179.318 396.021 178.839 395.727 178.21C395.432 177.582 395.285 176.818 395.285 175.92C395.285 175.011 395.434 174.244 395.732 173.619C396.034 172.99 396.44 172.516 396.952 172.196C397.463 171.873 398.033 171.712 398.662 171.712C399.141 171.712 399.535 171.793 399.844 171.957C400.153 172.116 400.398 172.31 400.579 172.537C400.76 172.761 400.901 172.972 401 173.171H401.08V169.091H403.014V180H401.117V178.711H401C400.901 178.91 400.757 179.121 400.569 179.345C400.38 179.565 400.132 179.753 399.823 179.909C399.514 180.066 399.125 180.144 398.656 180.144ZM399.194 178.562C399.603 178.562 399.951 178.452 400.238 178.231C400.526 178.008 400.744 177.697 400.894 177.299C401.043 176.902 401.117 176.438 401.117 175.909C401.117 175.38 401.043 174.92 400.894 174.529C400.748 174.139 400.531 173.835 400.244 173.619C399.96 173.402 399.61 173.294 399.194 173.294C398.765 173.294 398.406 173.405 398.118 173.629C397.831 173.853 397.614 174.162 397.469 174.556C397.323 174.95 397.25 175.401 397.25 175.909C397.25 176.42 397.323 176.877 397.469 177.278C397.618 177.676 397.836 177.99 398.124 178.221C398.415 178.448 398.772 178.562 399.194 178.562ZM408.874 180V169.091H410.803V173.171H410.883C410.982 172.972 411.122 172.761 411.303 172.537C411.484 172.31 411.729 172.116 412.038 171.957C412.347 171.793 412.742 171.712 413.221 171.712C413.853 171.712 414.423 171.873 414.931 172.196C415.442 172.516 415.847 172.99 416.145 173.619C416.447 174.244 416.598 175.011 416.598 175.92C416.598 176.818 416.451 177.582 416.156 178.21C415.861 178.839 415.46 179.318 414.952 179.648C414.444 179.979 413.869 180.144 413.226 180.144C412.758 180.144 412.369 180.066 412.06 179.909C411.751 179.753 411.502 179.565 411.314 179.345C411.129 179.121 410.985 178.91 410.883 178.711H410.771V180H408.874ZM410.765 175.909C410.765 176.438 410.84 176.902 410.989 177.299C411.142 177.697 411.36 178.008 411.644 178.231C411.932 178.452 412.28 178.562 412.688 178.562C413.114 178.562 413.471 178.448 413.759 178.221C414.047 177.99 414.263 177.676 414.409 177.278C414.558 176.877 414.633 176.42 414.633 175.909C414.633 175.401 414.56 174.95 414.414 174.556C414.269 174.162 414.052 173.853 413.764 173.629C413.477 173.405 413.118 173.294 412.688 173.294C412.276 173.294 411.927 173.402 411.639 173.619C411.351 173.835 411.133 174.139 410.984 174.529C410.838 174.92 410.765 175.38 410.765 175.909ZM420.592 180.165C420.073 180.165 419.606 180.073 419.191 179.888C418.779 179.7 418.452 179.423 418.211 179.057C417.973 178.691 417.854 178.24 417.854 177.704C417.854 177.242 417.939 176.861 418.11 176.559C418.28 176.257 418.513 176.016 418.807 175.834C419.102 175.653 419.434 175.517 419.803 175.424C420.176 175.328 420.562 175.259 420.959 175.217C421.439 175.167 421.828 175.122 422.126 175.083C422.424 175.041 422.641 174.977 422.776 174.892C422.914 174.803 422.983 174.666 422.983 174.481V174.45C422.983 174.048 422.864 173.738 422.627 173.517C422.389 173.297 422.046 173.187 421.598 173.187C421.126 173.187 420.752 173.29 420.475 173.496C420.201 173.702 420.016 173.945 419.921 174.226L418.12 173.97C418.262 173.473 418.497 173.057 418.823 172.724C419.15 172.386 419.549 172.134 420.022 171.967C420.494 171.797 421.016 171.712 421.588 171.712C421.982 171.712 422.374 171.758 422.765 171.85C423.156 171.942 423.513 172.095 423.836 172.308C424.159 172.518 424.418 172.804 424.613 173.166C424.812 173.528 424.912 173.981 424.912 174.524V180H423.058V178.876H422.994C422.877 179.103 422.712 179.316 422.499 179.515C422.289 179.711 422.025 179.869 421.705 179.989C421.389 180.106 421.018 180.165 420.592 180.165ZM421.092 178.748C421.48 178.748 421.815 178.672 422.099 178.519C422.383 178.363 422.602 178.157 422.754 177.901C422.911 177.646 422.989 177.367 422.989 177.065V176.101C422.928 176.151 422.825 176.197 422.68 176.239C422.538 176.282 422.378 176.319 422.2 176.351C422.023 176.383 421.847 176.412 421.673 176.436C421.499 176.461 421.348 176.483 421.22 176.5C420.933 176.539 420.675 176.603 420.448 176.692C420.221 176.781 420.041 176.905 419.91 177.065C419.779 177.221 419.713 177.424 419.713 177.672C419.713 178.027 419.842 178.295 420.102 178.477C420.361 178.658 420.691 178.748 421.092 178.748ZM428.779 169.091V180H426.851V169.091H428.779ZM433.116 180.165C432.598 180.165 432.131 180.073 431.715 179.888C431.303 179.7 430.977 179.423 430.735 179.057C430.497 178.691 430.378 178.24 430.378 177.704C430.378 177.242 430.463 176.861 430.634 176.559C430.804 176.257 431.037 176.016 431.332 175.834C431.626 175.653 431.958 175.517 432.328 175.424C432.701 175.328 433.086 175.259 433.484 175.217C433.963 175.167 434.352 175.122 434.65 175.083C434.949 175.041 435.165 174.977 435.3 174.892C435.439 174.803 435.508 174.666 435.508 174.481V174.45C435.508 174.048 435.389 173.738 435.151 173.517C434.913 173.297 434.57 173.187 434.123 173.187C433.651 173.187 433.276 173.29 432.999 173.496C432.726 173.702 432.541 173.945 432.445 174.226L430.645 173.97C430.787 173.473 431.021 173.057 431.348 172.724C431.674 172.386 432.074 172.134 432.546 171.967C433.019 171.797 433.541 171.712 434.112 171.712C434.506 171.712 434.899 171.758 435.289 171.85C435.68 171.942 436.037 172.095 436.36 172.308C436.683 172.518 436.943 172.804 437.138 173.166C437.337 173.528 437.436 173.981 437.436 174.524V180H435.582V178.876H435.519C435.401 179.103 435.236 179.316 435.023 179.515C434.814 179.711 434.549 179.869 434.229 179.989C433.913 180.106 433.542 180.165 433.116 180.165ZM433.617 178.748C434.004 178.748 434.34 178.672 434.624 178.519C434.908 178.363 435.126 178.157 435.279 177.901C435.435 177.646 435.513 177.367 435.513 177.065V176.101C435.453 176.151 435.35 176.197 435.204 176.239C435.062 176.282 434.902 176.319 434.725 176.351C434.547 176.383 434.371 176.412 434.197 176.436C434.023 176.461 433.873 176.483 433.745 176.5C433.457 176.539 433.2 176.603 432.972 176.692C432.745 176.781 432.566 176.905 432.434 177.065C432.303 177.221 432.237 177.424 432.237 177.672C432.237 178.027 432.367 178.295 432.626 178.477C432.885 178.658 433.216 178.748 433.617 178.748ZM441.303 175.206V180H439.375V171.818H441.218V173.208H441.314C441.502 172.75 441.802 172.386 442.214 172.116C442.63 171.847 443.143 171.712 443.754 171.712C444.318 171.712 444.81 171.832 445.229 172.074C445.652 172.315 445.978 172.665 446.209 173.123C446.444 173.581 446.559 174.137 446.555 174.79V180H444.627V175.089C444.627 174.542 444.485 174.114 444.201 173.805C443.92 173.496 443.532 173.342 443.034 173.342C442.697 173.342 442.397 173.416 442.134 173.565C441.875 173.711 441.671 173.922 441.522 174.199C441.376 174.476 441.303 174.812 441.303 175.206ZM452.085 180.16C451.268 180.16 450.566 179.98 449.981 179.622C449.398 179.263 448.949 178.768 448.633 178.136C448.32 177.5 448.164 176.768 448.164 175.941C448.164 175.11 448.324 174.377 448.644 173.741C448.963 173.102 449.414 172.605 449.996 172.25C450.582 171.891 451.275 171.712 452.074 171.712C452.738 171.712 453.326 171.834 453.837 172.079C454.352 172.321 454.762 172.663 455.068 173.107C455.373 173.548 455.547 174.062 455.59 174.652H453.746C453.672 174.258 453.494 173.929 453.214 173.666C452.937 173.4 452.566 173.267 452.101 173.267C451.706 173.267 451.36 173.374 451.062 173.587C450.764 173.796 450.531 174.098 450.364 174.492C450.201 174.886 450.119 175.359 450.119 175.909C450.119 176.467 450.201 176.946 450.364 177.347C450.527 177.745 450.756 178.052 451.051 178.269C451.349 178.482 451.699 178.588 452.101 178.588C452.385 178.588 452.639 178.535 452.862 178.429C453.09 178.318 453.28 178.16 453.432 177.954C453.585 177.749 453.69 177.498 453.746 177.203H455.59C455.543 177.782 455.373 178.295 455.078 178.743C454.783 179.187 454.382 179.535 453.874 179.787C453.367 180.035 452.77 180.16 452.085 180.16ZM460.795 180.16C459.975 180.16 459.266 179.989 458.67 179.648C458.077 179.304 457.62 178.817 457.301 178.189C456.981 177.557 456.821 176.813 456.821 175.957C456.821 175.115 456.981 174.377 457.301 173.741C457.624 173.102 458.075 172.605 458.654 172.25C459.233 171.891 459.913 171.712 460.694 171.712C461.198 171.712 461.674 171.793 462.121 171.957C462.572 172.116 462.97 172.365 463.315 172.702C463.663 173.04 463.936 173.469 464.135 173.991C464.334 174.51 464.433 175.128 464.433 175.845V176.436H457.727V175.137H462.585C462.581 174.767 462.501 174.439 462.345 174.151C462.189 173.86 461.97 173.631 461.69 173.464C461.413 173.297 461.09 173.214 460.72 173.214C460.326 173.214 459.98 173.31 459.682 173.501C459.383 173.69 459.151 173.938 458.984 174.247C458.821 174.552 458.737 174.888 458.734 175.254V176.388C458.734 176.864 458.821 177.273 458.995 177.614C459.169 177.951 459.412 178.21 459.724 178.391C460.037 178.569 460.403 178.658 460.822 178.658C461.102 178.658 461.356 178.619 461.583 178.54C461.811 178.459 462.008 178.34 462.175 178.184C462.342 178.027 462.468 177.834 462.553 177.603L464.353 177.805C464.24 178.281 464.023 178.697 463.703 179.052C463.387 179.403 462.983 179.677 462.489 179.872C461.995 180.064 461.431 180.16 460.795 180.16ZM466.064 180V171.818H467.934V173.182H468.019C468.169 172.709 468.424 172.345 468.786 172.09C469.152 171.831 469.569 171.701 470.038 171.701C470.145 171.701 470.264 171.706 470.395 171.717C470.53 171.724 470.642 171.736 470.731 171.754V173.528C470.649 173.5 470.519 173.475 470.342 173.453C470.168 173.429 469.999 173.416 469.836 173.416C469.484 173.416 469.168 173.492 468.888 173.645C468.611 173.794 468.392 174.002 468.232 174.268C468.073 174.535 467.993 174.842 467.993 175.19V180H466.064Z" fill="#8F95B2"/>
<path d="M538.981 322.706V327.5H537.053V319.318H538.896V320.708H538.992C539.18 320.25 539.48 319.886 539.892 319.616C540.307 319.347 540.821 319.212 541.431 319.212C541.996 319.212 542.488 319.332 542.907 319.574C543.329 319.815 543.656 320.165 543.887 320.623C544.121 321.081 544.237 321.637 544.233 322.29V327.5H542.305V322.589C542.305 322.042 542.163 321.614 541.879 321.305C541.598 320.996 541.209 320.842 540.712 320.842C540.375 320.842 540.075 320.916 539.812 321.065C539.553 321.211 539.349 321.422 539.199 321.699C539.054 321.976 538.981 322.312 538.981 322.706ZM549.816 327.66C548.995 327.66 548.287 327.489 547.69 327.148C547.097 326.804 546.641 326.317 546.321 325.689C546.002 325.057 545.842 324.313 545.842 323.457C545.842 322.615 546.002 321.877 546.321 321.241C546.644 320.602 547.095 320.105 547.674 319.75C548.253 319.391 548.933 319.212 549.714 319.212C550.219 319.212 550.694 319.293 551.142 319.457C551.593 319.616 551.991 319.865 552.335 320.202C552.683 320.54 552.957 320.969 553.155 321.491C553.354 322.01 553.454 322.628 553.454 323.345V323.936H546.747V322.637H551.605C551.602 322.267 551.522 321.939 551.366 321.651C551.209 321.36 550.991 321.131 550.71 320.964C550.433 320.797 550.11 320.714 549.741 320.714C549.347 320.714 549.001 320.81 548.702 321.001C548.404 321.19 548.171 321.438 548.004 321.747C547.841 322.052 547.758 322.388 547.754 322.754V323.888C547.754 324.364 547.841 324.773 548.015 325.114C548.189 325.451 548.432 325.71 548.745 325.891C549.057 326.069 549.423 326.158 549.842 326.158C550.123 326.158 550.377 326.119 550.604 326.04C550.831 325.959 551.028 325.84 551.195 325.684C551.362 325.527 551.488 325.334 551.573 325.103L553.374 325.305C553.26 325.781 553.044 326.197 552.724 326.552C552.408 326.903 552.003 327.177 551.509 327.372C551.016 327.564 550.451 327.66 549.816 327.66ZM556.73 327.5L554.418 319.318H556.383L557.822 325.071H557.896L559.366 319.318H561.311L562.781 325.039H562.861L564.278 319.318H566.248L563.931 327.5H561.923L560.389 321.971H560.277L558.743 327.5H556.73ZM578.624 319.318L575.71 327.5H573.579L570.666 319.318H572.722L574.602 325.396H574.687L576.573 319.318H578.624ZM583.302 327.66C582.482 327.66 581.773 327.489 581.177 327.148C580.583 326.804 580.127 326.317 579.808 325.689C579.488 325.057 579.328 324.313 579.328 323.457C579.328 322.615 579.488 321.877 579.808 321.241C580.131 320.602 580.582 320.105 581.161 319.75C581.739 319.391 582.419 319.212 583.201 319.212C583.705 319.212 584.181 319.293 584.628 319.457C585.079 319.616 585.477 319.865 585.821 320.202C586.169 320.54 586.443 320.969 586.642 321.491C586.841 322.01 586.94 322.628 586.94 323.345V323.936H580.234V322.637H585.092C585.088 322.267 585.008 321.939 584.852 321.651C584.696 321.36 584.477 321.131 584.197 320.964C583.92 320.797 583.597 320.714 583.227 320.714C582.833 320.714 582.487 320.81 582.189 321.001C581.89 321.19 581.658 321.438 581.491 321.747C581.327 322.052 581.244 322.388 581.24 322.754V323.888C581.24 324.364 581.327 324.773 581.501 325.114C581.675 325.451 581.919 325.71 582.231 325.891C582.544 326.069 582.909 326.158 583.329 326.158C583.609 326.158 583.863 326.119 584.09 326.04C584.318 325.959 584.515 325.84 584.682 325.684C584.848 325.527 584.974 325.334 585.06 325.103L586.86 325.305C586.746 325.781 586.53 326.197 586.21 326.552C585.894 326.903 585.489 327.177 584.996 327.372C584.502 327.564 583.938 327.66 583.302 327.66ZM588.571 327.5V319.318H590.441V320.682H590.526C590.675 320.209 590.931 319.845 591.293 319.59C591.659 319.331 592.076 319.201 592.545 319.201C592.652 319.201 592.771 319.206 592.902 319.217C593.037 319.224 593.149 319.236 593.238 319.254V321.028C593.156 321 593.026 320.975 592.849 320.953C592.675 320.929 592.506 320.916 592.343 320.916C591.991 320.916 591.675 320.992 591.394 321.145C591.117 321.294 590.899 321.502 590.739 321.768C590.58 322.035 590.5 322.342 590.5 322.69V327.5H588.571ZM600.985 321.481L599.227 321.673C599.178 321.495 599.091 321.328 598.966 321.172C598.846 321.016 598.682 320.889 598.476 320.794C598.27 320.698 598.018 320.65 597.72 320.65C597.319 320.65 596.981 320.737 596.708 320.911C596.438 321.085 596.305 321.31 596.308 321.587C596.305 321.825 596.392 322.019 596.569 322.168C596.75 322.317 597.049 322.44 597.464 322.535L598.86 322.834C599.634 323.001 600.209 323.265 600.586 323.627C600.966 323.99 601.157 324.464 601.161 325.05C601.157 325.565 601.007 326.019 600.708 326.413C600.413 326.804 600.003 327.109 599.478 327.329C598.952 327.55 598.348 327.66 597.667 327.66C596.665 327.66 595.859 327.45 595.248 327.031C594.638 326.609 594.274 326.021 594.156 325.268L596.037 325.087C596.122 325.456 596.303 325.735 596.58 325.923C596.857 326.111 597.217 326.206 597.661 326.206C598.119 326.206 598.487 326.111 598.764 325.923C599.045 325.735 599.185 325.502 599.185 325.225C599.185 324.991 599.094 324.798 598.913 324.645C598.736 324.492 598.459 324.375 598.082 324.293L596.687 324C595.902 323.837 595.321 323.562 594.945 323.175C594.568 322.784 594.382 322.29 594.385 321.694C594.382 321.19 594.519 320.753 594.796 320.383C595.076 320.011 595.465 319.723 595.962 319.521C596.463 319.315 597.04 319.212 597.693 319.212C598.652 319.212 599.407 319.416 599.957 319.824C600.511 320.233 600.854 320.785 600.985 321.481ZM602.751 327.5V319.318H604.679V327.5H602.751ZM603.72 318.157C603.415 318.157 603.152 318.056 602.932 317.853C602.712 317.647 602.602 317.401 602.602 317.113C602.602 316.822 602.712 316.575 602.932 316.372C603.152 316.166 603.415 316.064 603.72 316.064C604.029 316.064 604.292 316.166 604.509 316.372C604.729 316.575 604.839 316.822 604.839 317.113C604.839 317.401 604.729 317.647 604.509 317.853C604.292 318.056 604.029 318.157 603.72 318.157ZM610.231 327.66C609.432 327.66 608.74 327.484 608.154 327.132C607.568 326.781 607.113 326.289 606.79 325.657C606.47 325.025 606.311 324.286 606.311 323.441C606.311 322.596 606.47 321.855 606.79 321.22C607.113 320.584 607.568 320.09 608.154 319.739C608.74 319.387 609.432 319.212 610.231 319.212C611.03 319.212 611.723 319.387 612.308 319.739C612.894 320.09 613.347 320.584 613.667 321.22C613.99 321.855 614.152 322.596 614.152 323.441C614.152 324.286 613.99 325.025 613.667 325.657C613.347 326.289 612.894 326.781 612.308 327.132C611.723 327.484 611.03 327.66 610.231 327.66ZM610.242 326.115C610.675 326.115 611.037 325.996 611.328 325.758C611.62 325.517 611.836 325.193 611.978 324.789C612.124 324.384 612.197 323.933 612.197 323.436C612.197 322.935 612.124 322.482 611.978 322.077C611.836 321.669 611.62 321.344 611.328 321.103C611.037 320.861 610.675 320.74 610.242 320.74C609.798 320.74 609.428 320.861 609.134 321.103C608.843 321.344 608.624 321.669 608.479 322.077C608.337 322.482 608.265 322.935 608.265 323.436C608.265 323.933 608.337 324.384 608.479 324.789C608.624 325.193 608.843 325.517 609.134 325.758C609.428 325.996 609.798 326.115 610.242 326.115ZM617.716 322.706V327.5H615.788V319.318H617.631V320.708H617.727C617.915 320.25 618.215 319.886 618.627 319.616C619.043 319.347 619.556 319.212 620.167 319.212C620.731 319.212 621.223 319.332 621.642 319.574C622.065 319.815 622.391 320.165 622.622 320.623C622.857 321.081 622.972 321.637 622.969 322.29V327.5H621.04V322.589C621.04 322.042 620.898 321.614 620.614 321.305C620.334 320.996 619.945 320.842 619.448 320.842C619.11 320.842 618.81 320.916 618.547 321.065C618.288 321.211 618.084 321.422 617.935 321.699C617.789 321.976 617.716 322.312 617.716 322.706Z" fill="#3AB222"/>
<path d="M209.107 327.66C208.29 327.66 207.589 327.48 207.003 327.122C206.421 326.763 205.971 326.268 205.655 325.636C205.343 325 205.187 324.268 205.187 323.441C205.187 322.61 205.346 321.877 205.666 321.241C205.986 320.602 206.437 320.105 207.019 319.75C207.605 319.391 208.297 319.212 209.096 319.212C209.76 319.212 210.348 319.334 210.86 319.579C211.374 319.821 211.785 320.163 212.09 320.607C212.395 321.048 212.569 321.562 212.612 322.152H210.769C210.694 321.758 210.517 321.429 210.236 321.166C209.959 320.9 209.588 320.767 209.123 320.767C208.729 320.767 208.383 320.874 208.084 321.087C207.786 321.296 207.553 321.598 207.386 321.992C207.223 322.386 207.141 322.859 207.141 323.409C207.141 323.967 207.223 324.446 207.386 324.847C207.55 325.245 207.779 325.552 208.074 325.769C208.372 325.982 208.722 326.088 209.123 326.088C209.407 326.088 209.661 326.035 209.885 325.929C210.112 325.818 210.302 325.66 210.455 325.454C210.607 325.249 210.712 324.998 210.769 324.703H212.612C212.566 325.282 212.395 325.795 212.101 326.243C211.806 326.687 211.405 327.035 210.897 327.287C210.389 327.535 209.792 327.66 209.107 327.66ZM219.41 324.059V319.318H221.338V327.5H219.469V326.046H219.384C219.199 326.504 218.895 326.878 218.473 327.17C218.054 327.461 217.537 327.606 216.923 327.606C216.386 327.606 215.912 327.488 215.5 327.25C215.092 327.008 214.772 326.658 214.542 326.2C214.311 325.739 214.195 325.181 214.195 324.528V319.318H216.124V324.229C216.124 324.748 216.266 325.16 216.55 325.465C216.834 325.771 217.207 325.923 217.668 325.923C217.952 325.923 218.228 325.854 218.494 325.715C218.76 325.577 218.979 325.371 219.149 325.098C219.323 324.821 219.41 324.474 219.41 324.059ZM223.321 327.5V319.318H225.191V320.682H225.276C225.425 320.209 225.681 319.845 226.043 319.59C226.409 319.331 226.826 319.201 227.295 319.201C227.402 319.201 227.521 319.206 227.652 319.217C227.787 319.224 227.899 319.236 227.988 319.254V321.028C227.906 321 227.776 320.975 227.599 320.953C227.425 320.929 227.256 320.916 227.093 320.916C226.741 320.916 226.425 320.992 226.144 321.145C225.867 321.294 225.649 321.502 225.489 321.768C225.33 322.035 225.25 322.342 225.25 322.69V327.5H223.321ZM229.269 327.5V319.318H231.138V320.682H231.223C231.373 320.209 231.628 319.845 231.991 319.59C232.356 319.331 232.774 319.201 233.242 319.201C233.349 319.201 233.468 319.206 233.599 319.217C233.734 319.224 233.846 319.236 233.935 319.254V321.028C233.853 321 233.723 320.975 233.546 320.953C233.372 320.929 233.203 320.916 233.04 320.916C232.688 320.916 232.372 320.992 232.092 321.145C231.815 321.294 231.596 321.502 231.437 321.768C231.277 322.035 231.197 322.342 231.197 322.69V327.5H229.269ZM238.501 327.66C237.681 327.66 236.972 327.489 236.376 327.148C235.783 326.804 235.326 326.317 235.007 325.689C234.687 325.057 234.527 324.313 234.527 323.457C234.527 322.615 234.687 321.877 235.007 321.241C235.33 320.602 235.781 320.105 236.36 319.75C236.939 319.391 237.619 319.212 238.4 319.212C238.904 319.212 239.38 319.293 239.827 319.457C240.278 319.616 240.676 319.865 241.021 320.202C241.369 320.54 241.642 320.969 241.841 321.491C242.04 322.01 242.139 322.628 242.139 323.345V323.936H235.433V322.637H240.291C240.287 322.267 240.207 321.939 240.051 321.651C239.895 321.36 239.677 321.131 239.396 320.964C239.119 320.797 238.796 320.714 238.427 320.714C238.032 320.714 237.686 320.81 237.388 321.001C237.09 321.19 236.857 321.438 236.69 321.747C236.527 322.052 236.443 322.388 236.44 322.754V323.888C236.44 324.364 236.527 324.773 236.701 325.114C236.875 325.451 237.118 325.71 237.43 325.891C237.743 326.069 238.109 326.158 238.528 326.158C238.808 326.158 239.062 326.119 239.289 326.04C239.517 325.959 239.714 325.84 239.881 325.684C240.048 325.527 240.174 325.334 240.259 325.103L242.059 325.305C241.946 325.781 241.729 326.197 241.409 326.552C241.093 326.903 240.689 327.177 240.195 327.372C239.701 327.564 239.137 327.66 238.501 327.66ZM245.699 322.706V327.5H243.771V319.318H245.614V320.708H245.709C245.898 320.25 246.198 319.886 246.61 319.616C247.025 319.347 247.538 319.212 248.149 319.212C248.714 319.212 249.206 319.332 249.625 319.574C250.047 319.815 250.374 320.165 250.605 320.623C250.839 321.081 250.955 321.637 250.951 322.29V327.5H249.023V322.589C249.023 322.042 248.881 321.614 248.597 321.305C248.316 320.996 247.927 320.842 247.43 320.842C247.093 320.842 246.793 320.916 246.53 321.065C246.271 321.211 246.066 321.422 245.917 321.699C245.772 321.976 245.699 322.312 245.699 322.706ZM256.997 319.318V320.81H252.293V319.318H256.997ZM253.455 317.358H255.383V325.039C255.383 325.298 255.422 325.497 255.5 325.636C255.582 325.771 255.688 325.863 255.82 325.913C255.951 325.962 256.097 325.987 256.256 325.987C256.377 325.987 256.487 325.978 256.587 325.961C256.69 325.943 256.768 325.927 256.821 325.913L257.146 327.42C257.043 327.456 256.896 327.495 256.704 327.537C256.516 327.58 256.285 327.605 256.011 327.612C255.528 327.626 255.093 327.553 254.706 327.393C254.319 327.23 254.012 326.978 253.785 326.637C253.561 326.296 253.451 325.87 253.455 325.359V317.358ZM269.638 319.318L266.725 327.5H264.594L261.68 319.318H263.736L265.617 325.396H265.702L267.588 319.318H269.638ZM274.317 327.66C273.496 327.66 272.788 327.489 272.191 327.148C271.598 326.804 271.142 326.317 270.822 325.689C270.503 325.057 270.343 324.313 270.343 323.457C270.343 322.615 270.503 321.877 270.822 321.241C271.145 320.602 271.596 320.105 272.175 319.75C272.754 319.391 273.434 319.212 274.215 319.212C274.72 319.212 275.195 319.293 275.643 319.457C276.094 319.616 276.492 319.865 276.836 320.202C277.184 320.54 277.458 320.969 277.656 321.491C277.855 322.01 277.955 322.628 277.955 323.345V323.936H271.248V322.637H276.106C276.103 322.267 276.023 321.939 275.867 321.651C275.71 321.36 275.492 321.131 275.211 320.964C274.934 320.797 274.611 320.714 274.242 320.714C273.848 320.714 273.502 320.81 273.203 321.001C272.905 321.19 272.672 321.438 272.505 321.747C272.342 322.052 272.259 322.388 272.255 322.754V323.888C272.255 324.364 272.342 324.773 272.516 325.114C272.69 325.451 272.933 325.71 273.246 325.891C273.558 326.069 273.924 326.158 274.343 326.158C274.624 326.158 274.878 326.119 275.105 326.04C275.332 325.959 275.529 325.84 275.696 325.684C275.863 325.527 275.989 325.334 276.074 325.103L277.875 325.305C277.761 325.781 277.545 326.197 277.225 326.552C276.909 326.903 276.504 327.177 276.01 327.372C275.517 327.564 274.952 327.66 274.317 327.66ZM279.586 327.5V319.318H281.456V320.682H281.541C281.69 320.209 281.946 319.845 282.308 319.59C282.674 319.331 283.091 319.201 283.56 319.201C283.666 319.201 283.785 319.206 283.917 319.217C284.052 319.224 284.163 319.236 284.252 319.254V321.028C284.17 321 284.041 320.975 283.863 320.953C283.689 320.929 283.521 320.916 283.357 320.916C283.006 320.916 282.69 320.992 282.409 321.145C282.132 321.294 281.914 321.502 281.754 321.768C281.594 322.035 281.514 322.342 281.514 322.69V327.5H279.586ZM292 321.481L290.242 321.673C290.192 321.495 290.105 321.328 289.981 321.172C289.86 321.016 289.697 320.889 289.491 320.794C289.285 320.698 289.033 320.65 288.735 320.65C288.333 320.65 287.996 320.737 287.723 320.911C287.453 321.085 287.319 321.31 287.323 321.587C287.319 321.825 287.406 322.019 287.584 322.168C287.765 322.317 288.063 322.44 288.479 322.535L289.875 322.834C290.649 323.001 291.224 323.265 291.6 323.627C291.98 323.99 292.172 324.464 292.176 325.05C292.172 325.565 292.021 326.019 291.723 326.413C291.428 326.804 291.018 327.109 290.492 327.329C289.967 327.55 289.363 327.66 288.681 327.66C287.68 327.66 286.874 327.45 286.263 327.031C285.652 326.609 285.288 326.021 285.171 325.268L287.051 325.087C287.137 325.456 287.318 325.735 287.595 325.923C287.872 326.111 288.232 326.206 288.676 326.206C289.134 326.206 289.502 326.111 289.779 325.923C290.059 325.735 290.199 325.502 290.199 325.225C290.199 324.991 290.109 324.798 289.928 324.645C289.75 324.492 289.473 324.375 289.097 324.293L287.701 324C286.916 323.837 286.336 323.562 285.959 323.175C285.583 322.784 285.397 322.29 285.4 321.694C285.397 321.19 285.533 320.753 285.81 320.383C286.091 320.011 286.48 319.723 286.977 319.521C287.477 319.315 288.055 319.212 288.708 319.212C289.667 319.212 290.421 319.416 290.972 319.824C291.526 320.233 291.868 320.785 292 321.481ZM293.766 327.5V319.318H295.694V327.5H293.766ZM294.735 318.157C294.43 318.157 294.167 318.056 293.947 317.853C293.727 317.647 293.617 317.401 293.617 317.113C293.617 316.822 293.727 316.575 293.947 316.372C294.167 316.166 294.43 316.064 294.735 316.064C295.044 316.064 295.307 316.166 295.523 316.372C295.744 316.575 295.854 316.822 295.854 317.113C295.854 317.401 295.744 317.647 295.523 317.853C295.307 318.056 295.044 318.157 294.735 318.157ZM301.246 327.66C300.447 327.66 299.754 327.484 299.168 327.132C298.582 326.781 298.128 326.289 297.805 325.657C297.485 325.025 297.325 324.286 297.325 323.441C297.325 322.596 297.485 321.855 297.805 321.22C298.128 320.584 298.582 320.09 299.168 319.739C299.754 319.387 300.447 319.212 301.246 319.212C302.045 319.212 302.737 319.387 303.323 319.739C303.909 320.09 304.362 320.584 304.681 321.22C305.005 321.855 305.166 322.596 305.166 323.441C305.166 324.286 305.005 325.025 304.681 325.657C304.362 326.289 303.909 326.781 303.323 327.132C302.737 327.484 302.045 327.66 301.246 327.66ZM301.256 326.115C301.69 326.115 302.052 325.996 302.343 325.758C302.634 325.517 302.851 325.193 302.993 324.789C303.138 324.384 303.211 323.933 303.211 323.436C303.211 322.935 303.138 322.482 302.993 322.077C302.851 321.669 302.634 321.344 302.343 321.103C302.052 320.861 301.69 320.74 301.256 320.74C300.812 320.74 300.443 320.861 300.148 321.103C299.857 321.344 299.639 321.669 299.493 322.077C299.351 322.482 299.28 322.935 299.28 323.436C299.28 323.933 299.351 324.384 299.493 324.789C299.639 325.193 299.857 325.517 300.148 325.758C300.443 325.996 300.812 326.115 301.256 326.115ZM308.731 322.706V327.5H306.803V319.318H308.646V320.708H308.742C308.93 320.25 309.23 319.886 309.642 319.616C310.057 319.347 310.571 319.212 311.181 319.212C311.746 319.212 312.238 319.332 312.657 319.574C313.079 319.815 313.406 320.165 313.637 320.623C313.871 321.081 313.987 321.637 313.983 322.29V327.5H312.055V322.589C312.055 322.042 311.913 321.614 311.629 321.305C311.348 320.996 310.959 320.842 310.462 320.842C310.125 320.842 309.825 320.916 309.562 321.065C309.303 321.211 309.099 321.422 308.949 321.699C308.804 321.976 308.731 322.312 308.731 322.706Z" fill="#8F95B2"/>
<rect x="372.75" y="191.75" width="98.5" height="30.5" rx="3" fill="white"/>
<rect x="372.75" y="191.75" width="98.5" height="30.5" rx="3" stroke="#8F95B2" stroke-width="1.5"/>
<rect x="392.75" y="201.75" width="10.5" height="10.5" rx="5.25" stroke="#8F95B2" stroke-width="1.5"/>
<rect x="396.75" y="205.75" width="2.5" height="2.5" rx="1.25" fill="#8F95B2" stroke="#8F95B2" stroke-width="1.5"/>
<rect x="416.75" y="201.75" width="10.5" height="10.5" rx="5.25" stroke="#8F95B2" stroke-width="1.5"/>
<rect x="420.75" y="205.75" width="2.5" height="2.5" rx="1.25" fill="#8F95B2" stroke="#8F95B2" stroke-width="1.5"/>
<rect x="440.75" y="201.75" width="10.5" height="10.5" rx="5.25" stroke="#3AB222" stroke-width="1.5"/>
<rect x="444.75" y="205.75" width="2.5" height="2.5" rx="1.25" fill="#3AB222" stroke="#3AB222" stroke-width="1.5"/>
<path d="M536.75 250.25C536.75 248.593 538.093 247.25 539.75 247.25H614.75C616.407 247.25 617.75 248.593 617.75 250.25V263.75C617.75 265.407 616.407 266.75 614.75 266.75H539.75C538.093 266.75 536.75 265.407 536.75 263.75V250.25Z" fill="white" stroke="#3AB222" stroke-width="1.5"/>
<rect x="544.25" y="254.987" width="21" height="4.39474" rx="0.75" fill="white" stroke="#3AB222" stroke-width="1.5"/>
<rect x="605.75" y="254.987" width="4.5" height="4.39474" rx="2.19737" fill="#3AB222" stroke="#3AB222" stroke-width="1.5"/>
<path d="M536.75 269.75C536.75 268.093 538.093 266.75 539.75 266.75H614.75C616.407 266.75 617.75 268.093 617.75 269.75V283.25C617.75 284.907 616.407 286.25 614.75 286.25H539.75C538.093 286.25 536.75 284.907 536.75 283.25V269.75Z" fill="white" stroke="#3AB222" stroke-width="1.5"/>
<rect x="544.25" y="274.487" width="21" height="4.39474" rx="0.75" fill="white" stroke="#3AB222" stroke-width="1.5"/>
<rect x="605.75" y="274.487" width="4.5" height="4.39474" rx="2.19737" fill="#3AB222" stroke="#3AB222" stroke-width="1.5"/>
<rect x="597.5" y="274.487" width="4.5" height="4.39474" rx="2.19737" fill="#3AB222" stroke="#3AB222" stroke-width="1.5"/>
<path d="M536.75 289.25C536.75 287.593 538.093 286.25 539.75 286.25H614.75C616.407 286.25 617.75 287.593 617.75 289.25V302.75C617.75 304.407 616.407 305.75 614.75 305.75H539.75C538.093 305.75 536.75 304.407 536.75 302.75V289.25Z" fill="white" stroke="#3AB222" stroke-width="1.5"/>
<rect x="544.25" y="293.987" width="21" height="4.39474" rx="0.75" fill="white" stroke="#3AB222" stroke-width="1.5"/>
<rect x="605.75" y="293.987" width="4.5" height="4.39474" rx="2.19737" fill="#3AB222" stroke="#3AB222" stroke-width="1.5"/>
<path d="M178 250.25C178 248.593 179.343 247.25 181 247.25H256C257.657 247.25 259 248.593 259 250.25V263.75C259 265.407 257.657 266.75 256 266.75H181C179.343 266.75 178 265.407 178 263.75V250.25Z" fill="white" stroke="#8F95B2" stroke-width="1.5"/>
<rect x="185.5" y="254.987" width="21" height="4.39474" rx="0.75" fill="white" stroke="#8F95B2" stroke-width="1.5"/>
<rect x="247" y="254.987" width="4.5" height="4.39474" rx="2.19737" fill="#8F95B2" stroke="#8F95B2" stroke-width="1.5"/>
<path d="M178 269.75C178 268.093 179.343 266.75 181 266.75H256C257.657 266.75 259 268.093 259 269.75V283.25C259 284.907 257.657 286.25 256 286.25H181C179.343 286.25 178 284.907 178 283.25V269.75Z" fill="white" stroke="#8F95B2" stroke-width="1.5"/>
<rect x="185.5" y="274.487" width="21" height="4.39474" rx="0.75" fill="white" stroke="#8F95B2" stroke-width="1.5"/>
<rect x="247" y="274.487" width="4.5" height="4.39474" rx="2.19737" fill="#8F95B2" stroke="#8F95B2" stroke-width="1.5"/>
<rect x="238.75" y="274.487" width="4.5" height="4.39474" rx="2.19737" fill="#8F95B2" stroke="#8F95B2" stroke-width="1.5"/>
<path d="M178 289.25C178 287.593 179.343 286.25 181 286.25H256C257.657 286.25 259 287.593 259 289.25V302.75C259 304.407 257.657 305.75 256 305.75H181C179.343 305.75 178 304.407 178 302.75V289.25Z" fill="white" stroke="#8F95B2" stroke-width="1.5"/>
<rect x="185.5" y="293.987" width="21" height="4.39474" rx="0.75" fill="white" stroke="#8F95B2" stroke-width="1.5"/>
<rect x="247" y="293.987" width="4.5" height="4.39474" rx="2.19737" fill="#8F95B2" stroke="#8F95B2" stroke-width="1.5"/>
<path d="M259.5 250.25C259.5 248.593 260.843 247.25 262.5 247.25H337.5C339.157 247.25 340.5 248.593 340.5 250.25V263.75C340.5 265.407 339.157 266.75 337.5 266.75H262.5C260.843 266.75 259.5 265.407 259.5 263.75V250.25Z" fill="white" stroke="#8F95B2" stroke-width="1.5"/>
<rect x="267" y="254.987" width="21" height="4.39474" rx="0.75" fill="white" stroke="#8F95B2" stroke-width="1.5"/>
<rect x="328.5" y="254.987" width="4.5" height="4.39474" rx="2.19737" fill="#8F95B2" stroke="#8F95B2" stroke-width="1.5"/>
<path d="M259.5 269.75C259.5 268.093 260.843 266.75 262.5 266.75H337.5C339.157 266.75 340.5 268.093 340.5 269.75V283.25C340.5 284.907 339.157 286.25 337.5 286.25H262.5C260.843 286.25 259.5 284.907 259.5 283.25V269.75Z" fill="white" stroke="#8F95B2" stroke-width="1.5"/>
<rect x="267" y="274.487" width="21" height="4.39474" rx="0.75" fill="white" stroke="#8F95B2" stroke-width="1.5"/>
<rect x="328.5" y="274.487" width="4.5" height="4.39474" rx="2.19737" fill="#8F95B2" stroke="#8F95B2" stroke-width="1.5"/>
<rect x="320.25" y="274.487" width="4.5" height="4.39474" rx="2.19737" fill="#8F95B2" stroke="#8F95B2" stroke-width="1.5"/>
<path d="M259.5 289.25C259.5 287.593 260.843 286.25 262.5 286.25H337.5C339.157 286.25 340.5 287.593 340.5 289.25V302.75C340.5 304.407 339.157 305.75 337.5 305.75H262.5C260.843 305.75 259.5 304.407 259.5 302.75V289.25Z" fill="white" stroke="#8F95B2" stroke-width="1.5"/>
<rect x="267" y="293.987" width="21" height="4.39474" rx="0.75" fill="white" stroke="#8F95B2" stroke-width="1.5"/>
<rect x="328.5" y="293.987" width="4.5" height="4.39474" rx="2.19737" fill="#8F95B2" stroke="#8F95B2" stroke-width="1.5"/>
<path d="M515.5 207H580C582.209 207 584 208.791 584 211V234" stroke="#3AB222" stroke-width="1.5"/>
<path d="M584.648 236.477C584.29 236.841 583.71 236.841 583.352 236.477L580.268 233.341C579.911 232.977 579.911 232.387 580.268 232.023C580.626 231.659 581.207 231.659 581.565 232.023L583.083 233.567L584.917 233.567L586.435 232.023C586.793 231.659 587.374 231.659 587.732 232.023C588.089 232.387 588.089 232.977 587.732 233.341L584.648 236.477Z" fill="#3AB222"/>
<path d="M327.5 207H263C260.791 207 259 208.791 259 211V234" stroke="#8F95B2" stroke-width="1.5"/>
<path d="M258.352 236.477C258.71 236.841 259.29 236.841 259.648 236.477L262.732 233.341C263.089 232.977 263.089 232.387 262.732 232.023C262.374 231.659 261.793 231.659 261.435 232.023L259.917 233.567L258.083 233.567L256.565 232.023C256.207 231.659 255.626 231.659 255.268 232.023C254.911 232.387 254.911 232.977 255.268 233.341L258.352 236.477Z" fill="#8F95B2"/>
<rect x="482.75" y="197.5" width="31.5" height="19" rx="3.25" stroke="#3AB222" stroke-width="1.5"/>
<path d="M492.148 203.727V211H490.831V205.009H490.788L489.087 206.096V204.888L490.895 203.727H492.148ZM496.683 211.138C496.098 211.138 495.597 210.991 495.177 210.695C494.761 210.396 494.44 209.967 494.215 209.406C493.993 208.842 493.881 208.164 493.881 207.371C493.884 206.578 493.996 205.903 494.219 205.347C494.444 204.788 494.764 204.362 495.181 204.068C495.6 203.775 496.101 203.628 496.683 203.628C497.266 203.628 497.766 203.775 498.185 204.068C498.604 204.362 498.925 204.788 499.148 205.347C499.373 205.905 499.485 206.58 499.485 207.371C499.485 208.166 499.373 208.846 499.148 209.409C498.925 209.97 498.604 210.399 498.185 210.695C497.769 210.991 497.268 211.138 496.683 211.138ZM496.683 210.027C497.138 210.027 497.496 209.803 497.759 209.356C498.024 208.906 498.157 208.244 498.157 207.371C498.157 206.793 498.097 206.308 497.976 205.915C497.855 205.522 497.685 205.226 497.464 205.027C497.244 204.826 496.984 204.725 496.683 204.725C496.231 204.725 495.873 204.95 495.611 205.4C495.348 205.847 495.215 206.504 495.213 207.371C495.211 207.951 495.269 208.438 495.387 208.834C495.508 209.229 495.678 209.527 495.898 209.729C496.119 209.928 496.38 210.027 496.683 210.027ZM504.553 209.636V209.253C504.553 208.971 504.613 208.712 504.731 208.475C504.852 208.238 505.027 208.048 505.256 207.903C505.486 207.759 505.764 207.687 506.091 207.687C506.427 207.687 506.709 207.759 506.936 207.903C507.163 208.045 507.335 208.235 507.451 208.472C507.569 208.708 507.629 208.969 507.629 209.253V209.636C507.629 209.918 507.569 210.177 507.451 210.414C507.333 210.651 507.159 210.841 506.929 210.986C506.702 211.13 506.422 211.202 506.091 211.202C505.76 211.202 505.479 211.13 505.249 210.986C505.02 210.841 504.846 210.651 504.727 210.414C504.611 210.177 504.553 209.918 504.553 209.636ZM505.48 209.253V209.636C505.48 209.823 505.525 209.995 505.615 210.151C505.705 210.308 505.864 210.386 506.091 210.386C506.321 210.386 506.478 210.309 506.563 210.155C506.651 209.999 506.695 209.826 506.695 209.636V209.253C506.695 209.063 506.653 208.891 506.57 208.734C506.488 208.576 506.328 208.496 506.091 208.496C505.868 208.496 505.711 208.576 505.619 208.734C505.526 208.891 505.48 209.063 505.48 209.253ZM500.857 205.474V205.091C500.857 204.807 500.917 204.546 501.038 204.31C501.158 204.073 501.334 203.884 501.563 203.741C501.793 203.597 502.071 203.525 502.398 203.525C502.732 203.525 503.012 203.597 503.239 203.741C503.469 203.884 503.642 204.073 503.758 204.31C503.874 204.546 503.932 204.807 503.932 205.091V205.474C503.932 205.759 503.873 206.019 503.754 206.256C503.638 206.49 503.466 206.678 503.236 206.82C503.006 206.962 502.727 207.033 502.398 207.033C502.064 207.033 501.782 206.962 501.553 206.82C501.325 206.678 501.153 206.489 501.034 206.252C500.916 206.015 500.857 205.756 500.857 205.474ZM501.791 205.091V205.474C501.791 205.664 501.834 205.837 501.922 205.993C502.012 206.147 502.171 206.224 502.398 206.224C502.625 206.224 502.781 206.147 502.867 205.993C502.954 205.837 502.998 205.664 502.998 205.474V205.091C502.998 204.902 502.957 204.729 502.874 204.572C502.791 204.414 502.632 204.335 502.398 204.335C502.173 204.335 502.015 204.414 501.926 204.572C501.836 204.731 501.791 204.904 501.791 205.091ZM501.261 211L506.261 203.727H507.149L502.149 211H501.261Z" fill="#3AB222"/>
<rect x="329.75" y="197.5" width="31.5" height="19" rx="3.25" stroke="#8F95B2" stroke-width="1.5"/>
<path d="M337.875 203.378C338.223 203.38 338.562 203.442 338.891 203.562C339.222 203.681 339.521 203.875 339.786 204.145C340.051 204.412 340.262 204.771 340.418 205.221C340.574 205.671 340.652 206.227 340.652 206.89C340.655 207.515 340.588 208.074 340.453 208.566C340.321 209.056 340.13 209.47 339.882 209.809C339.633 210.147 339.334 210.406 338.983 210.583C338.633 210.761 338.239 210.849 337.801 210.849C337.341 210.849 336.934 210.759 336.579 210.58C336.226 210.4 335.941 210.153 335.723 209.841C335.505 209.528 335.372 209.171 335.322 208.768H336.618C336.684 209.057 336.819 209.287 337.023 209.457C337.229 209.625 337.488 209.71 337.801 209.71C338.305 209.71 338.693 209.491 338.965 209.053C339.238 208.615 339.374 208.006 339.374 207.227H339.324C339.208 207.436 339.058 207.616 338.873 207.767C338.688 207.916 338.479 208.031 338.245 208.112C338.013 208.192 337.766 208.232 337.506 208.232C337.08 208.232 336.696 208.13 336.355 207.927C336.017 207.723 335.748 207.444 335.549 207.089C335.353 206.734 335.253 206.328 335.251 205.871C335.251 205.397 335.36 204.972 335.578 204.596C335.798 204.217 336.104 203.919 336.497 203.701C336.89 203.481 337.35 203.373 337.875 203.378ZM337.879 204.443C337.623 204.443 337.392 204.506 337.186 204.631C336.983 204.754 336.822 204.923 336.703 205.136C336.587 205.346 336.529 205.582 336.529 205.842C336.532 206.1 336.59 206.335 336.703 206.545C336.819 206.756 336.977 206.923 337.176 207.046C337.377 207.169 337.607 207.231 337.865 207.231C338.056 207.231 338.235 207.194 338.401 207.121C338.567 207.047 338.711 206.946 338.834 206.815C338.96 206.683 339.057 206.532 339.125 206.364C339.196 206.196 339.231 206.019 339.228 205.832C339.228 205.583 339.169 205.353 339.051 205.143C338.935 204.932 338.775 204.763 338.571 204.635C338.37 204.507 338.139 204.443 337.879 204.443ZM344.523 210.888C343.938 210.888 343.436 210.741 343.017 210.445C342.601 210.146 342.28 209.717 342.055 209.156C341.832 208.592 341.721 207.914 341.721 207.121C341.724 206.328 341.836 205.653 342.059 205.097C342.283 204.538 342.604 204.112 343.021 203.818C343.44 203.525 343.941 203.378 344.523 203.378C345.105 203.378 345.606 203.525 346.025 203.818C346.444 204.112 346.765 204.538 346.987 205.097C347.212 205.655 347.325 206.33 347.325 207.121C347.325 207.916 347.212 208.596 346.987 209.159C346.765 209.72 346.444 210.149 346.025 210.445C345.608 210.741 345.108 210.888 344.523 210.888ZM344.523 209.777C344.978 209.777 345.336 209.553 345.599 209.106C345.864 208.656 345.997 207.994 345.997 207.121C345.997 206.543 345.936 206.058 345.816 205.665C345.695 205.272 345.524 204.976 345.304 204.777C345.084 204.576 344.824 204.475 344.523 204.475C344.071 204.475 343.713 204.7 343.451 205.15C343.188 205.597 343.055 206.254 343.053 207.121C343.05 207.701 343.108 208.188 343.227 208.584C343.348 208.979 343.518 209.277 343.738 209.479C343.958 209.678 344.22 209.777 344.523 209.777ZM352.393 209.386V209.003C352.393 208.721 352.452 208.462 352.571 208.225C352.691 207.988 352.867 207.798 353.096 207.653C353.326 207.509 353.604 207.437 353.931 207.437C354.267 207.437 354.549 207.509 354.776 207.653C355.003 207.795 355.175 207.985 355.291 208.222C355.409 208.458 355.468 208.719 355.468 209.003V209.386C355.468 209.668 355.409 209.927 355.291 210.164C355.173 210.401 354.999 210.591 354.769 210.736C354.542 210.88 354.262 210.952 353.931 210.952C353.599 210.952 353.319 210.88 353.089 210.736C352.86 210.591 352.686 210.401 352.567 210.164C352.451 209.927 352.393 209.668 352.393 209.386ZM353.32 209.003V209.386C353.32 209.573 353.365 209.745 353.455 209.901C353.545 210.058 353.704 210.136 353.931 210.136C354.16 210.136 354.318 210.059 354.403 209.905C354.491 209.749 354.535 209.576 354.535 209.386V209.003C354.535 208.813 354.493 208.641 354.41 208.484C354.327 208.326 354.168 208.246 353.931 208.246C353.708 208.246 353.551 208.326 353.459 208.484C353.366 208.641 353.32 208.813 353.32 209.003ZM348.696 205.224V204.841C348.696 204.557 348.757 204.296 348.878 204.06C348.998 203.823 349.174 203.634 349.403 203.491C349.633 203.347 349.911 203.275 350.238 203.275C350.571 203.275 350.852 203.347 351.079 203.491C351.309 203.634 351.482 203.823 351.598 204.06C351.714 204.296 351.772 204.557 351.772 204.841V205.224C351.772 205.509 351.713 205.769 351.594 206.006C351.478 206.24 351.305 206.428 351.076 206.57C350.846 206.712 350.567 206.783 350.238 206.783C349.904 206.783 349.622 206.712 349.392 206.57C349.165 206.428 348.992 206.239 348.874 206.002C348.756 205.765 348.696 205.506 348.696 205.224ZM349.63 204.841V205.224C349.63 205.414 349.674 205.587 349.762 205.743C349.852 205.897 350.01 205.974 350.238 205.974C350.465 205.974 350.621 205.897 350.706 205.743C350.794 205.587 350.838 205.414 350.838 205.224V204.841C350.838 204.652 350.796 204.479 350.714 204.322C350.631 204.164 350.472 204.085 350.238 204.085C350.013 204.085 349.855 204.164 349.765 204.322C349.675 204.481 349.63 204.654 349.63 204.841ZM349.101 210.75L354.101 203.477H354.989L349.989 210.75H349.101Z" fill="#8F95B2"/>
<defs>
<clipPath id="clip0_1558_1218">
<rect width="34" height="28" fill="white" transform="translate(354.5 89)"/>
</clipPath>
<clipPath id="clip1_1558_1218">
<rect width="34" height="28" fill="white" transform="translate(454.5 89)"/>
</clipPath>
</defs>
</svg>
