<svg width="844" height="447" viewBox="0 0 844 447" fill="none" xmlns="http://www.w3.org/2000/svg">
<rect width="844" height="447" rx="10" fill="white"/>
<path d="M300.257 359.606C308.024 358.131 316.405 360.584 321.667 366.486C337.224 383.935 358.601 396.887 383.664 402.202C411.997 408.21 439.986 403.389 462.973 390.628C471.254 386.031 482.075 387.627 489.608 393.312C496.801 398.741 505.336 402.744 514.835 404.759C533.53 408.723 551.948 404.133 565.688 393.729C572.264 388.75 581.475 387.121 589.287 390.56C596.815 393.873 604.813 396.474 613.207 398.255C676.206 411.615 737.538 373.67 750.274 313.617C755.326 289.795 751.98 266.059 742.174 245.249C739.353 239.263 739.804 232.134 742.226 225.658C744.65 219.178 749.095 213.219 754.473 209.523C765.078 202.235 772.919 191.25 775.734 177.975C781.745 149.63 762.559 121.471 732.765 115.152C723.74 113.238 714.788 113.552 706.527 115.707C695.572 118.566 681.788 114.809 674.429 106.227C665.268 95.5437 652.449 87.5936 637.336 84.3885C624.34 81.6325 611.471 82.7714 600.041 86.9878C589.415 90.9073 575.557 87.6991 568.808 78.5455C554.967 59.7725 534.06 45.6455 508.909 40.3116C483.54 34.9314 458.486 39.4799 438.122 51.2428C428.695 56.6878 415.569 54.513 407.794 46.8925C397.731 37.029 384.674 29.7527 369.64 26.5646C329.07 17.9605 289.6 42.3987 281.406 81.0348C279.861 88.3207 279.537 95.5925 280.298 102.655C280.639 105.813 279.028 108.783 276.41 110.507C273.24 112.594 268.841 112.722 265.716 110.3C251.977 99.6491 235.544 91.8031 217.202 87.9131C154.786 74.6763 94.0212 112.27 81.4035 171.767C68.7857 231.264 109.061 290.285 171.477 303.522C180.416 305.418 189.322 306.271 198.058 306.166C206.953 306.059 215.145 311.561 218.879 319.329C228.284 338.892 246.857 354.243 270.431 359.242C280.612 361.401 290.723 361.417 300.257 359.606Z" fill="#F9FAFC" stroke="#E5F0FF" stroke-width="2"/>
<g clip-path="url(#clip0_1558_1463)">
<path d="M136 172C136 171.448 136.448 171 137 171H139C139.552 171 140 171.448 140 172C140 172.552 139.552 173 139 173H137C136.448 173 136 172.552 136 172Z" fill="#8F95B2"/>
<path fill-rule="evenodd" clip-rule="evenodd" d="M138.841 156.459C139.14 156.924 139.005 157.543 138.541 157.841L131.541 162.341C131.076 162.64 130.457 162.505 130.159 162.041C129.86 161.576 129.995 160.957 130.459 160.659L137.459 156.159C137.924 155.86 138.543 155.995 138.841 156.459Z" fill="#8F95B2"/>
<path fill-rule="evenodd" clip-rule="evenodd" d="M145.841 156.459C146.14 156.924 146.005 157.543 145.541 157.841L138.541 162.341C138.076 162.64 137.457 162.505 137.159 162.041C136.86 161.576 136.995 160.957 137.459 160.659L144.459 156.159C144.924 155.86 145.543 155.995 145.841 156.459Z" fill="#8F95B2"/>
<path fill-rule="evenodd" clip-rule="evenodd" d="M138.541 157.841C139.005 157.543 139.14 156.924 138.841 156.459C138.543 155.995 137.924 155.86 137.459 156.159L130.459 160.659C129.995 160.957 129.86 161.576 130.159 162.041C130.457 162.505 131.076 162.64 131.541 162.341L138.541 157.841ZM145.541 157.841C146.005 157.543 146.14 156.924 145.841 156.459C145.543 155.995 144.924 155.86 144.459 156.159L137.459 160.659C136.995 160.957 136.86 161.576 137.159 162.041C137.457 162.505 138.076 162.64 138.541 162.341L145.541 157.841Z" fill="#8F95B2"/>
<path fill-rule="evenodd" clip-rule="evenodd" d="M137 171H139C139.552 171 140 171.448 140 172C140 172.552 139.552 173 139 173H137C136.448 173 136 172.552 136 172C136 171.448 136.448 171 137 171Z" fill="#8F95B2"/>
<path fill-rule="evenodd" clip-rule="evenodd" d="M122 153C122 150.239 124.239 148 127 148H149C151.761 148 154 150.239 154 153V168.268C154.598 168.613 155 169.26 155 170V172.394C155 172.789 154.883 173.175 154.664 173.504L153.594 175.109C153.223 175.666 152.598 176 151.93 176H124.07C123.402 176 122.777 175.666 122.406 175.109L121.336 173.504C121.117 173.175 121 172.789 121 172.394V170C121 169.26 121.402 168.613 122 168.268V153ZM149 150H127C125.343 150 124 151.343 124 153V168H152V153C152 151.343 150.657 150 149 150ZM123 170H153V172.394L151.93 174H124.07L123 172.394L123 170Z" fill="#8F95B2"/>
</g>
<path d="M131 200C131 201.105 130.105 202 129 202C127.895 202 127 201.105 127 200C127 198.895 127.895 198 129 198C130.105 198 131 198.895 131 200Z" fill="#8F95B2"/>
<path d="M140 200C140 201.105 139.105 202 138 202C136.895 202 136 201.105 136 200C136 198.895 136.895 198 138 198C139.105 198 140 198.895 140 200Z" fill="#8F95B2"/>
<path d="M149 200C149 201.105 148.105 202 147 202C145.895 202 145 201.105 145 200C145 198.895 145.895 198 147 198C148.105 198 149 198.895 149 200Z" fill="#8F95B2"/>
<g clip-path="url(#clip1_1558_1463)">
<path d="M136 248C136 247.448 136.448 247 137 247H139C139.552 247 140 247.448 140 248C140 248.552 139.552 249 139 249H137C136.448 249 136 248.552 136 248Z" fill="#8F95B2"/>
<path fill-rule="evenodd" clip-rule="evenodd" d="M138.841 232.459C139.14 232.924 139.005 233.543 138.541 233.841L131.541 238.341C131.076 238.64 130.457 238.505 130.159 238.041C129.86 237.576 129.995 236.957 130.459 236.659L137.459 232.159C137.924 231.86 138.543 231.995 138.841 232.459Z" fill="#8F95B2"/>
<path fill-rule="evenodd" clip-rule="evenodd" d="M145.841 232.459C146.14 232.924 146.005 233.543 145.541 233.841L138.541 238.341C138.076 238.64 137.457 238.505 137.159 238.041C136.86 237.576 136.995 236.957 137.459 236.659L144.459 232.159C144.924 231.86 145.543 231.995 145.841 232.459Z" fill="#8F95B2"/>
<path fill-rule="evenodd" clip-rule="evenodd" d="M138.541 233.841C139.005 233.543 139.14 232.924 138.841 232.459C138.543 231.995 137.924 231.86 137.459 232.159L130.459 236.659C129.995 236.957 129.86 237.576 130.159 238.041C130.457 238.505 131.076 238.64 131.541 238.341L138.541 233.841ZM145.541 233.841C146.005 233.543 146.14 232.924 145.841 232.459C145.543 231.995 144.924 231.86 144.459 232.159L137.459 236.659C136.995 236.957 136.86 237.576 137.159 238.041C137.457 238.505 138.076 238.64 138.541 238.341L145.541 233.841Z" fill="#8F95B2"/>
<path fill-rule="evenodd" clip-rule="evenodd" d="M137 247H139C139.552 247 140 247.448 140 248C140 248.552 139.552 249 139 249H137C136.448 249 136 248.552 136 248C136 247.448 136.448 247 137 247Z" fill="#8F95B2"/>
<path fill-rule="evenodd" clip-rule="evenodd" d="M122 229C122 226.239 124.239 224 127 224H149C151.761 224 154 226.239 154 229V244.268C154.598 244.613 155 245.26 155 246V248.394C155 248.789 154.883 249.175 154.664 249.504L153.594 251.109C153.223 251.666 152.598 252 151.93 252H124.07C123.402 252 122.777 251.666 122.406 251.109L121.336 249.504C121.117 249.175 121 248.789 121 248.394V246C121 245.26 121.402 244.613 122 244.268V229ZM149 226H127C125.343 226 124 227.343 124 229V244H152V229C152 227.343 150.657 226 149 226ZM123 246H153V248.394L151.93 250H124.07L123 248.394L123 246Z" fill="#8F95B2"/>
</g>
<path d="M203 200L327 200" stroke="#8F95B2" stroke-width="1.5"/>
<path d="M200.773 199.352C200.409 199.71 200.409 200.29 200.773 200.648L203.909 203.731C204.273 204.089 204.863 204.089 205.227 203.731C205.591 203.374 205.591 202.793 205.227 202.435L203.683 200.917V199.083L205.227 197.565C205.591 197.207 205.591 196.626 205.227 196.268C204.863 195.91 204.273 195.91 203.909 196.268L200.773 199.352Z" fill="#8F95B2"/>
<path d="M329.227 199.352C329.591 199.71 329.591 200.29 329.227 200.648L326.091 203.731C325.727 204.089 325.137 204.089 324.773 203.731C324.409 203.374 324.409 202.793 324.773 202.435L326.317 200.917V199.083L324.773 197.565C324.409 197.207 324.409 196.626 324.773 196.268C325.137 195.91 325.727 195.91 326.091 196.268L329.227 199.352Z" fill="#8F95B2"/>
<path d="M172 150H177C179.761 150 182 152.239 182 155V192.929C182 194.255 182.527 195.527 183.464 196.464L185.586 198.586C186.367 199.367 186.367 200.633 185.586 201.414L183.464 203.536C182.527 204.473 182 205.745 182 207.071L182 245C182 247.761 179.761 250 177 250H172" stroke="#8F95B2" stroke-width="2" stroke-linecap="round"/>
<path d="M614.981 370.706V375.5H613.053V367.318H614.896V368.708H614.992C615.18 368.25 615.48 367.886 615.892 367.616C616.307 367.347 616.821 367.212 617.431 367.212C617.996 367.212 618.488 367.332 618.907 367.574C619.329 367.815 619.656 368.165 619.887 368.623C620.121 369.081 620.237 369.637 620.233 370.29V375.5H618.305V370.589C618.305 370.042 618.163 369.614 617.879 369.305C617.598 368.996 617.209 368.842 616.712 368.842C616.375 368.842 616.075 368.916 615.812 369.065C615.553 369.211 615.349 369.422 615.199 369.699C615.054 369.976 614.981 370.312 614.981 370.706ZM625.816 375.66C624.995 375.66 624.287 375.489 623.69 375.148C623.097 374.804 622.641 374.317 622.321 373.689C622.002 373.057 621.842 372.313 621.842 371.457C621.842 370.615 622.002 369.877 622.321 369.241C622.644 368.602 623.095 368.105 623.674 367.75C624.253 367.391 624.933 367.212 625.714 367.212C626.219 367.212 626.694 367.293 627.142 367.457C627.593 367.616 627.991 367.865 628.335 368.202C628.683 368.54 628.957 368.969 629.155 369.491C629.354 370.01 629.454 370.628 629.454 371.345V371.936H622.747V370.637H627.605C627.602 370.267 627.522 369.939 627.366 369.651C627.209 369.36 626.991 369.131 626.71 368.964C626.433 368.797 626.11 368.714 625.741 368.714C625.347 368.714 625.001 368.81 624.702 369.001C624.404 369.19 624.171 369.438 624.004 369.747C623.841 370.053 623.758 370.388 623.754 370.754V371.888C623.754 372.364 623.841 372.773 624.015 373.114C624.189 373.451 624.432 373.71 624.745 373.891C625.057 374.069 625.423 374.158 625.842 374.158C626.123 374.158 626.377 374.119 626.604 374.04C626.831 373.959 627.028 373.84 627.195 373.684C627.362 373.527 627.488 373.334 627.573 373.103L629.374 373.305C629.26 373.781 629.044 374.197 628.724 374.552C628.408 374.903 628.003 375.177 627.509 375.372C627.016 375.564 626.451 375.66 625.816 375.66ZM632.73 375.5L630.418 367.318H632.383L633.822 373.071H633.896L635.366 367.318H637.311L638.781 373.039H638.861L640.278 367.318H642.248L639.931 375.5H637.923L636.389 369.971H636.277L634.743 375.5H632.73ZM654.624 367.318L651.71 375.5H649.579L646.666 367.318H648.722L650.602 373.396H650.687L652.573 367.318H654.624ZM659.302 375.66C658.482 375.66 657.773 375.489 657.177 375.148C656.583 374.804 656.127 374.317 655.808 373.689C655.488 373.057 655.328 372.313 655.328 371.457C655.328 370.615 655.488 369.877 655.808 369.241C656.131 368.602 656.582 368.105 657.161 367.75C657.739 367.391 658.419 367.212 659.201 367.212C659.705 367.212 660.181 367.293 660.628 367.457C661.079 367.616 661.477 367.865 661.821 368.202C662.169 368.54 662.443 368.969 662.642 369.491C662.841 370.01 662.94 370.628 662.94 371.345V371.936H656.234V370.637H661.092C661.088 370.267 661.008 369.939 660.852 369.651C660.696 369.36 660.477 369.131 660.197 368.964C659.92 368.797 659.597 368.714 659.227 368.714C658.833 368.714 658.487 368.81 658.189 369.001C657.89 369.19 657.658 369.438 657.491 369.747C657.327 370.053 657.244 370.388 657.24 370.754V371.888C657.24 372.364 657.327 372.773 657.501 373.114C657.675 373.451 657.919 373.71 658.231 373.891C658.544 374.069 658.909 374.158 659.329 374.158C659.609 374.158 659.863 374.119 660.09 374.04C660.318 373.959 660.515 373.84 660.682 373.684C660.848 373.527 660.974 373.334 661.06 373.103L662.86 373.305C662.746 373.781 662.53 374.197 662.21 374.552C661.894 374.903 661.489 375.177 660.996 375.372C660.502 375.564 659.938 375.66 659.302 375.66ZM664.571 375.5V367.318H666.441V368.682H666.526C666.675 368.21 666.931 367.846 667.293 367.59C667.659 367.331 668.076 367.201 668.545 367.201C668.652 367.201 668.771 367.206 668.902 367.217C669.037 367.224 669.149 367.237 669.238 367.254V369.028C669.156 369 669.026 368.975 668.849 368.953C668.675 368.929 668.506 368.916 668.343 368.916C667.991 368.916 667.675 368.993 667.394 369.145C667.117 369.294 666.899 369.502 666.739 369.768C666.58 370.035 666.5 370.342 666.5 370.69V375.5H664.571ZM676.985 369.481L675.227 369.673C675.178 369.495 675.091 369.328 674.966 369.172C674.846 369.016 674.682 368.89 674.476 368.794C674.27 368.698 674.018 368.65 673.72 368.65C673.319 368.65 672.981 368.737 672.708 368.911C672.438 369.085 672.305 369.31 672.308 369.587C672.305 369.825 672.392 370.019 672.569 370.168C672.75 370.317 673.049 370.44 673.464 370.536L674.86 370.834C675.634 371.001 676.209 371.265 676.586 371.627C676.966 371.99 677.157 372.464 677.161 373.05C677.157 373.565 677.007 374.019 676.708 374.413C676.413 374.804 676.003 375.109 675.478 375.33C674.952 375.55 674.348 375.66 673.667 375.66C672.665 375.66 671.859 375.45 671.248 375.031C670.638 374.609 670.274 374.021 670.156 373.268L672.037 373.087C672.122 373.456 672.303 373.735 672.58 373.923C672.857 374.112 673.217 374.206 673.661 374.206C674.119 374.206 674.487 374.112 674.764 373.923C675.045 373.735 675.185 373.502 675.185 373.225C675.185 372.991 675.094 372.798 674.913 372.645C674.736 372.492 674.459 372.375 674.082 372.293L672.687 372C671.902 371.837 671.321 371.562 670.945 371.175C670.568 370.784 670.382 370.29 670.385 369.694C670.382 369.19 670.519 368.753 670.796 368.384C671.076 368.011 671.465 367.723 671.962 367.521C672.463 367.315 673.04 367.212 673.693 367.212C674.652 367.212 675.407 367.416 675.957 367.824C676.511 368.233 676.854 368.785 676.985 369.481ZM678.751 375.5V367.318H680.679V375.5H678.751ZM679.72 366.157C679.415 366.157 679.152 366.056 678.932 365.853C678.712 365.647 678.602 365.401 678.602 365.113C678.602 364.822 678.712 364.575 678.932 364.373C679.152 364.167 679.415 364.064 679.72 364.064C680.029 364.064 680.292 364.167 680.509 364.373C680.729 364.575 680.839 364.822 680.839 365.113C680.839 365.401 680.729 365.647 680.509 365.853C680.292 366.056 680.029 366.157 679.72 366.157ZM686.231 375.66C685.432 375.66 684.74 375.484 684.154 375.132C683.568 374.781 683.113 374.289 682.79 373.657C682.47 373.025 682.311 372.286 682.311 371.441C682.311 370.596 682.47 369.855 682.79 369.22C683.113 368.584 683.568 368.091 684.154 367.739C684.74 367.387 685.432 367.212 686.231 367.212C687.03 367.212 687.723 367.387 688.308 367.739C688.894 368.091 689.347 368.584 689.667 369.22C689.99 369.855 690.152 370.596 690.152 371.441C690.152 372.286 689.99 373.025 689.667 373.657C689.347 374.289 688.894 374.781 688.308 375.132C687.723 375.484 687.03 375.66 686.231 375.66ZM686.242 374.115C686.675 374.115 687.037 373.996 687.328 373.758C687.62 373.517 687.836 373.194 687.978 372.789C688.124 372.384 688.197 371.933 688.197 371.436C688.197 370.935 688.124 370.482 687.978 370.077C687.836 369.669 687.62 369.344 687.328 369.103C687.037 368.861 686.675 368.74 686.242 368.74C685.798 368.74 685.428 368.861 685.134 369.103C684.843 369.344 684.624 369.669 684.479 370.077C684.337 370.482 684.265 370.935 684.265 371.436C684.265 371.933 684.337 372.384 684.479 372.789C684.624 373.194 684.843 373.517 685.134 373.758C685.428 373.996 685.798 374.115 686.242 374.115ZM693.716 370.706V375.5H691.788V367.318H693.631V368.708H693.727C693.915 368.25 694.215 367.886 694.627 367.616C695.043 367.347 695.556 367.212 696.167 367.212C696.731 367.212 697.223 367.332 697.642 367.574C698.065 367.815 698.391 368.165 698.622 368.623C698.857 369.081 698.972 369.637 698.969 370.29V375.5H697.04V370.589C697.04 370.042 696.898 369.614 696.614 369.305C696.334 368.996 695.945 368.842 695.448 368.842C695.11 368.842 694.81 368.916 694.547 369.065C694.288 369.211 694.084 369.422 693.935 369.699C693.789 369.976 693.716 370.312 693.716 370.706Z" fill="#2C79E3"/>
<path d="M605.857 57.6598C605.04 57.6598 604.339 57.4805 603.753 57.1218C603.171 56.7631 602.721 56.2678 602.405 55.6357C602.093 55 601.937 54.2685 601.937 53.4411C601.937 52.6101 602.096 51.8768 602.416 51.2411C602.736 50.6019 603.187 50.1048 603.769 49.7496C604.355 49.391 605.047 49.2116 605.846 49.2116C606.51 49.2116 607.098 49.3342 607.61 49.5792C608.124 49.8207 608.535 50.1634 608.84 50.6072C609.145 51.0476 609.319 51.5625 609.362 52.152H607.519C607.444 51.7578 607.267 51.4293 606.986 51.1665C606.709 50.9002 606.338 50.767 605.873 50.767C605.479 50.767 605.133 50.8736 604.834 51.0866C604.536 51.2962 604.303 51.598 604.136 51.9922C603.973 52.3864 603.891 52.8587 603.891 53.4091C603.891 53.9666 603.973 54.446 604.136 54.8473C604.3 55.245 604.529 55.5522 604.824 55.7688C605.122 55.9819 605.472 56.0884 605.873 56.0884C606.157 56.0884 606.411 56.0352 606.635 55.9286C606.862 55.8185 607.052 55.6605 607.205 55.4545C607.357 55.2486 607.462 54.9982 607.519 54.7035H609.362C609.316 55.2823 609.145 55.7955 608.851 56.2429C608.556 56.6868 608.155 57.0348 607.647 57.2869C607.139 57.5355 606.542 57.6598 605.857 57.6598ZM616.16 54.0589V49.3182H618.088V57.5H616.219V56.0458H616.134C615.949 56.5039 615.645 56.8786 615.223 57.1697C614.804 57.4609 614.287 57.6065 613.673 57.6065C613.136 57.6065 612.662 57.4876 612.25 57.2496C611.842 57.0082 611.522 56.6584 611.292 56.2003C611.061 55.7386 610.945 55.1811 610.945 54.5277V49.3182H612.874V54.2294C612.874 54.7479 613.016 55.1598 613.3 55.4652C613.584 55.7706 613.957 55.9233 614.418 55.9233C614.702 55.9233 614.978 55.854 615.244 55.7156C615.51 55.5771 615.729 55.3711 615.899 55.0977C616.073 54.8207 616.16 54.4744 616.16 54.0589ZM620.071 57.5V49.3182H621.941V50.6818H622.026C622.175 50.2095 622.431 49.8455 622.793 49.5898C623.159 49.3306 623.576 49.201 624.045 49.201C624.152 49.201 624.271 49.2063 624.402 49.217C624.537 49.2241 624.649 49.2365 624.738 49.2543V51.0281C624.656 50.9996 624.526 50.9748 624.349 50.9535C624.175 50.9286 624.006 50.9162 623.843 50.9162C623.491 50.9162 623.175 50.9925 622.894 51.1452C622.617 51.2944 622.399 51.5021 622.239 51.7685C622.08 52.0348 622 52.342 622 52.69V57.5H620.071ZM626.019 57.5V49.3182H627.888V50.6818H627.973C628.123 50.2095 628.378 49.8455 628.741 49.5898C629.106 49.3306 629.524 49.201 629.992 49.201C630.099 49.201 630.218 49.2063 630.349 49.217C630.484 49.2241 630.596 49.2365 630.685 49.2543V51.0281C630.603 50.9996 630.473 50.9748 630.296 50.9535C630.122 50.9286 629.953 50.9162 629.79 50.9162C629.438 50.9162 629.122 50.9925 628.842 51.1452C628.565 51.2944 628.346 51.5021 628.187 51.7685C628.027 52.0348 627.947 52.342 627.947 52.69V57.5H626.019ZM635.251 57.6598C634.431 57.6598 633.722 57.4893 633.126 57.1484C632.533 56.804 632.076 56.3175 631.757 55.6889C631.437 55.0568 631.277 54.3129 631.277 53.457C631.277 52.6154 631.437 51.8768 631.757 51.2411C632.08 50.6019 632.531 50.1048 633.11 49.7496C633.689 49.391 634.369 49.2116 635.15 49.2116C635.654 49.2116 636.13 49.2933 636.577 49.4567C637.028 49.6165 637.426 49.8651 637.771 50.2024C638.119 50.5398 638.392 50.9695 638.591 51.4915C638.79 52.0099 638.889 52.6278 638.889 53.3452V53.9364H632.183V52.6367H637.041C637.037 52.2674 636.957 51.9389 636.801 51.6513C636.645 51.3601 636.427 51.131 636.146 50.9641C635.869 50.7972 635.546 50.7138 635.177 50.7138C634.782 50.7138 634.436 50.8097 634.138 51.0014C633.84 51.1896 633.607 51.4382 633.44 51.7472C633.277 52.0526 633.193 52.3881 633.19 52.7539V53.8885C633.19 54.3643 633.277 54.7727 633.451 55.1136C633.625 55.451 633.868 55.7102 634.18 55.8913C634.493 56.0689 634.859 56.1577 635.278 56.1577C635.558 56.1577 635.812 56.1186 636.039 56.0405C636.267 55.9588 636.464 55.8398 636.631 55.6836C636.798 55.5273 636.924 55.3338 637.009 55.103L638.809 55.3054C638.696 55.7812 638.479 56.1967 638.159 56.5518C637.843 56.9034 637.439 57.1768 636.945 57.3722C636.451 57.5639 635.887 57.6598 635.251 57.6598ZM642.449 52.706V57.5H640.521V49.3182H642.364V50.7085H642.459C642.648 50.2504 642.948 49.8864 643.36 49.6165C643.775 49.3466 644.288 49.2116 644.899 49.2116C645.464 49.2116 645.956 49.3324 646.375 49.5739C646.797 49.8153 647.124 50.1651 647.355 50.6232C647.589 51.0813 647.705 51.6371 647.701 52.2905V57.5H645.773V52.5888C645.773 52.0419 645.631 51.614 645.347 51.305C645.066 50.9961 644.677 50.8416 644.18 50.8416C643.843 50.8416 643.543 50.9162 643.28 51.0653C643.021 51.2109 642.816 51.4222 642.667 51.6992C642.522 51.9762 642.449 52.3118 642.449 52.706ZM653.747 49.3182V50.8097H649.043V49.3182H653.747ZM650.205 47.358H652.133V55.0391C652.133 55.2983 652.172 55.4972 652.25 55.6357C652.332 55.7706 652.438 55.8629 652.57 55.9126C652.701 55.9624 652.847 55.9872 653.006 55.9872C653.127 55.9872 653.237 55.9783 653.337 55.9606C653.44 55.9428 653.518 55.9268 653.571 55.9126L653.896 57.4201C653.793 57.4556 653.646 57.4947 653.454 57.5373C653.266 57.5799 653.035 57.6048 652.761 57.6119C652.278 57.6261 651.843 57.5533 651.456 57.3935C651.069 57.2301 650.762 56.978 650.535 56.6371C650.311 56.2962 650.201 55.87 650.205 55.3587V47.358ZM666.388 49.3182L663.475 57.5H661.344L658.43 49.3182H660.486L662.367 55.396H662.452L664.338 49.3182H666.388ZM671.067 57.6598C670.246 57.6598 669.538 57.4893 668.941 57.1484C668.348 56.804 667.892 56.3175 667.572 55.6889C667.253 55.0568 667.093 54.3129 667.093 53.457C667.093 52.6154 667.253 51.8768 667.572 51.2411C667.895 50.6019 668.346 50.1048 668.925 49.7496C669.504 49.391 670.184 49.2116 670.965 49.2116C671.47 49.2116 671.945 49.2933 672.393 49.4567C672.844 49.6165 673.242 49.8651 673.586 50.2024C673.934 50.5398 674.208 50.9695 674.406 51.4915C674.605 52.0099 674.705 52.6278 674.705 53.3452V53.9364H667.998V52.6367H672.856C672.853 52.2674 672.773 51.9389 672.617 51.6513C672.46 51.3601 672.242 51.131 671.961 50.9641C671.684 50.7972 671.361 50.7138 670.992 50.7138C670.598 50.7138 670.252 50.8097 669.953 51.0014C669.655 51.1896 669.422 51.4382 669.255 51.7472C669.092 52.0526 669.009 52.3881 669.005 52.7539V53.8885C669.005 54.3643 669.092 54.7727 669.266 55.1136C669.44 55.451 669.683 55.7102 669.996 55.8913C670.308 56.0689 670.674 56.1577 671.093 56.1577C671.374 56.1577 671.628 56.1186 671.855 56.0405C672.082 55.9588 672.279 55.8398 672.446 55.6836C672.613 55.5273 672.739 55.3338 672.824 55.103L674.625 55.3054C674.511 55.7812 674.295 56.1967 673.975 56.5518C673.659 56.9034 673.254 57.1768 672.76 57.3722C672.267 57.5639 671.702 57.6598 671.067 57.6598ZM676.336 57.5V49.3182H678.206V50.6818H678.291C678.44 50.2095 678.696 49.8455 679.058 49.5898C679.424 49.3306 679.841 49.201 680.31 49.201C680.416 49.201 680.535 49.2063 680.667 49.217C680.802 49.2241 680.913 49.2365 681.002 49.2543V51.0281C680.92 50.9996 680.791 50.9748 680.613 50.9535C680.439 50.9286 680.271 50.9162 680.107 50.9162C679.756 50.9162 679.44 50.9925 679.159 51.1452C678.882 51.2944 678.664 51.5021 678.504 51.7685C678.344 52.0348 678.264 52.342 678.264 52.69V57.5H676.336ZM688.75 51.4808L686.992 51.6726C686.942 51.495 686.855 51.3281 686.731 51.1719C686.61 51.0156 686.447 50.8896 686.241 50.7937C686.035 50.6978 685.783 50.6499 685.485 50.6499C685.083 50.6499 684.746 50.7369 684.473 50.9109C684.203 51.0849 684.069 51.3104 684.073 51.5874C684.069 51.8253 684.156 52.0188 684.334 52.168C684.515 52.3171 684.813 52.4396 685.229 52.5355L686.625 52.8338C687.399 53.0007 687.974 53.2653 688.35 53.6275C688.73 53.9897 688.922 54.4638 688.926 55.0497C688.922 55.5646 688.771 56.0192 688.473 56.4134C688.178 56.804 687.768 57.1094 687.242 57.3295C686.717 57.5497 686.113 57.6598 685.431 57.6598C684.43 57.6598 683.624 57.4503 683.013 57.0312C682.402 56.6087 682.038 56.021 681.921 55.2681L683.801 55.087C683.887 55.4563 684.068 55.7351 684.345 55.9233C684.622 56.1115 684.982 56.2056 685.426 56.2056C685.884 56.2056 686.252 56.1115 686.529 55.9233C686.809 55.7351 686.949 55.5025 686.949 55.2255C686.949 54.9911 686.859 54.7976 686.678 54.6449C686.5 54.4922 686.223 54.375 685.847 54.2933L684.451 54.0004C683.666 53.837 683.086 53.5618 682.709 53.1747C682.333 52.7841 682.147 52.2905 682.15 51.6939C682.147 51.1896 682.283 50.7528 682.56 50.3835C682.841 50.0107 683.23 49.723 683.727 49.5206C684.227 49.3146 684.805 49.2116 685.458 49.2116C686.417 49.2116 687.171 49.4158 687.722 49.8242C688.276 50.2326 688.618 50.7848 688.75 51.4808ZM690.516 57.5V49.3182H692.444V57.5H690.516ZM691.485 48.157C691.18 48.157 690.917 48.0558 690.697 47.8533C690.477 47.6474 690.367 47.4006 690.367 47.1129C690.367 46.8217 690.477 46.5749 690.697 46.3725C690.917 46.1665 691.18 46.0636 691.485 46.0636C691.794 46.0636 692.057 46.1665 692.273 46.3725C692.494 46.5749 692.604 46.8217 692.604 47.1129C692.604 47.4006 692.494 47.6474 692.273 47.8533C692.057 48.0558 691.794 48.157 691.485 48.157ZM697.996 57.6598C697.197 57.6598 696.504 57.484 695.918 57.1325C695.332 56.7809 694.878 56.2891 694.555 55.657C694.235 55.0249 694.075 54.2862 694.075 53.4411C694.075 52.5959 694.235 51.8555 694.555 51.2198C694.878 50.5842 695.332 50.0906 695.918 49.739C696.504 49.3874 697.197 49.2116 697.996 49.2116C698.795 49.2116 699.487 49.3874 700.073 49.739C700.659 50.0906 701.112 50.5842 701.431 51.2198C701.755 51.8555 701.916 52.5959 701.916 53.4411C701.916 54.2862 701.755 55.0249 701.431 55.657C701.112 56.2891 700.659 56.7809 700.073 57.1325C699.487 57.484 698.795 57.6598 697.996 57.6598ZM698.006 56.1151C698.44 56.1151 698.802 55.9961 699.093 55.7582C699.384 55.5167 699.601 55.1935 699.743 54.7887C699.888 54.3839 699.961 53.9329 699.961 53.4357C699.961 52.935 699.888 52.4822 699.743 52.0774C699.601 51.669 699.384 51.3441 699.093 51.1026C698.802 50.8612 698.44 50.7404 698.006 50.7404C697.562 50.7404 697.193 50.8612 696.898 51.1026C696.607 51.3441 696.389 51.669 696.243 52.0774C696.101 52.4822 696.03 52.935 696.03 53.4357C696.03 53.9329 696.101 54.3839 696.243 54.7887C696.389 55.1935 696.607 55.5167 696.898 55.7582C697.193 55.9961 697.562 56.1151 698.006 56.1151ZM705.481 52.706V57.5H703.553V49.3182H705.396V50.7085H705.492C705.68 50.2504 705.98 49.8864 706.392 49.6165C706.807 49.3466 707.321 49.2116 707.931 49.2116C708.496 49.2116 708.988 49.3324 709.407 49.5739C709.829 49.8153 710.156 50.1651 710.387 50.6232C710.621 51.0813 710.737 51.6371 710.733 52.2905V57.5H708.805V52.5888C708.805 52.0419 708.663 51.614 708.379 51.305C708.098 50.9961 707.709 50.8416 707.212 50.8416C706.875 50.8416 706.575 50.9162 706.312 51.0653C706.053 51.2109 705.849 51.4222 705.699 51.6992C705.554 51.9762 705.481 52.3118 705.481 52.706Z" fill="#3AB222"/>
<rect x="346.25" y="184.75" width="98.5" height="30.5" rx="3" fill="white"/>
<rect x="346.25" y="184.75" width="98.5" height="30.5" rx="3" stroke="#8F95B2" stroke-width="1.5"/>
<rect x="366.25" y="194.75" width="10.5" height="10.5" rx="5.25" stroke="#8F95B2" stroke-width="1.5"/>
<rect x="370.25" y="198.75" width="2.5" height="2.5" rx="1.25" fill="#8F95B2" stroke="#8F95B2" stroke-width="1.5"/>
<rect x="390.25" y="194.75" width="10.5" height="10.5" rx="5.25" stroke="#8F95B2" stroke-width="1.5"/>
<rect x="394.25" y="198.75" width="2.5" height="2.5" rx="1.25" fill="#8F95B2" stroke="#8F95B2" stroke-width="1.5"/>
<rect x="414.25" y="194.75" width="10.5" height="10.5" rx="5.25" stroke="#3AB222" stroke-width="1.5"/>
<rect x="418.25" y="198.75" width="2.5" height="2.5" rx="1.25" fill="#3AB222" stroke="#3AB222" stroke-width="1.5"/>
<path d="M612.75 74.75C612.75 73.0931 614.093 71.75 615.75 71.75H690.75C692.407 71.75 693.75 73.0931 693.75 74.75V88.25C693.75 89.9069 692.407 91.25 690.75 91.25H615.75C614.093 91.25 612.75 89.9069 612.75 88.25V74.75Z" fill="white" stroke="#3AB222" stroke-width="1.5"/>
<rect x="620.25" y="79.4868" width="21" height="4.39474" rx="0.75" fill="white" stroke="#3AB222" stroke-width="1.5"/>
<rect x="681.75" y="79.4868" width="4.5" height="4.39474" rx="2.19737" fill="#3AB222" stroke="#3AB222" stroke-width="1.5"/>
<path d="M612.75 94.25C612.75 92.5931 614.093 91.25 615.75 91.25H690.75C692.407 91.25 693.75 92.5931 693.75 94.25V107.75C693.75 109.407 692.407 110.75 690.75 110.75H615.75C614.093 110.75 612.75 109.407 612.75 107.75V94.25Z" fill="white" stroke="#3AB222" stroke-width="1.5"/>
<rect x="620.25" y="98.9868" width="21" height="4.39474" rx="0.75" fill="white" stroke="#3AB222" stroke-width="1.5"/>
<rect x="681.75" y="98.9868" width="4.5" height="4.39474" rx="2.19737" fill="#3AB222" stroke="#3AB222" stroke-width="1.5"/>
<rect x="673.5" y="98.9868" width="4.5" height="4.39474" rx="2.19737" fill="#3AB222" stroke="#3AB222" stroke-width="1.5"/>
<path d="M612.75 113.75C612.75 112.093 614.093 110.75 615.75 110.75H690.75C692.407 110.75 693.75 112.093 693.75 113.75V127.25C693.75 128.907 692.407 130.25 690.75 130.25H615.75C614.093 130.25 612.75 128.907 612.75 127.25V113.75Z" fill="white" stroke="#3AB222" stroke-width="1.5"/>
<rect x="620.25" y="118.487" width="21" height="4.39474" rx="0.75" fill="white" stroke="#3AB222" stroke-width="1.5"/>
<rect x="681.75" y="118.487" width="4.5" height="4.39474" rx="2.19737" fill="#3AB222" stroke="#3AB222" stroke-width="1.5"/>
<path d="M230.502 186.559V181.818H232.43V190H230.561V188.546H230.475C230.291 189.004 229.987 189.378 229.564 189.67C229.145 189.961 228.629 190.106 228.014 190.106C227.478 190.106 227.004 189.988 226.592 189.75C226.184 189.508 225.864 189.158 225.633 188.7C225.403 188.239 225.287 187.681 225.287 187.028V181.818H227.215V186.729C227.215 187.248 227.357 187.66 227.642 187.965C227.926 188.271 228.299 188.423 228.76 188.423C229.044 188.423 229.319 188.354 229.586 188.215C229.852 188.077 230.071 187.871 230.241 187.598C230.415 187.321 230.502 186.974 230.502 186.559ZM240.88 183.981L239.122 184.173C239.072 183.995 238.985 183.828 238.861 183.672C238.74 183.516 238.577 183.389 238.371 183.294C238.165 183.198 237.913 183.15 237.614 183.15C237.213 183.15 236.876 183.237 236.602 183.411C236.333 183.585 236.199 183.81 236.203 184.087C236.199 184.325 236.286 184.519 236.464 184.668C236.645 184.817 236.943 184.94 237.359 185.035L238.754 185.334C239.529 185.501 240.104 185.765 240.48 186.127C240.86 186.49 241.052 186.964 241.056 187.55C241.052 188.065 240.901 188.519 240.603 188.913C240.308 189.304 239.898 189.609 239.372 189.829C238.847 190.05 238.243 190.16 237.561 190.16C236.56 190.16 235.754 189.95 235.143 189.531C234.532 189.109 234.168 188.521 234.051 187.768L235.931 187.587C236.016 187.956 236.198 188.235 236.475 188.423C236.752 188.611 237.112 188.706 237.556 188.706C238.014 188.706 238.382 188.611 238.659 188.423C238.939 188.235 239.079 188.002 239.079 187.725C239.079 187.491 238.989 187.298 238.808 187.145C238.63 186.992 238.353 186.875 237.977 186.793L236.581 186.5C235.796 186.337 235.216 186.062 234.839 185.675C234.463 185.284 234.276 184.79 234.28 184.194C234.276 183.69 234.413 183.253 234.69 182.883C234.971 182.511 235.36 182.223 235.857 182.021C236.357 181.815 236.934 181.712 237.588 181.712C238.547 181.712 239.301 181.916 239.852 182.324C240.406 182.733 240.748 183.285 240.88 183.981ZM246.268 190.16C245.447 190.16 244.739 189.989 244.142 189.648C243.549 189.304 243.093 188.817 242.773 188.189C242.454 187.557 242.294 186.813 242.294 185.957C242.294 185.115 242.454 184.377 242.773 183.741C243.097 183.102 243.548 182.605 244.126 182.25C244.705 181.891 245.385 181.712 246.167 181.712C246.671 181.712 247.147 181.793 247.594 181.957C248.045 182.116 248.443 182.365 248.787 182.702C249.135 183.04 249.409 183.469 249.608 183.991C249.806 184.51 249.906 185.128 249.906 185.845V186.436H243.2V185.137H248.057C248.054 184.767 247.974 184.439 247.818 184.151C247.662 183.86 247.443 183.631 247.163 183.464C246.886 183.297 246.562 183.214 246.193 183.214C245.799 183.214 245.453 183.31 245.154 183.501C244.856 183.69 244.624 183.938 244.457 184.247C244.293 184.552 244.21 184.888 244.206 185.254V186.388C244.206 186.864 244.293 187.273 244.467 187.614C244.641 187.951 244.885 188.21 245.197 188.391C245.51 188.569 245.875 188.658 246.294 188.658C246.575 188.658 246.829 188.619 247.056 188.54C247.283 188.459 247.48 188.34 247.647 188.184C247.814 188.027 247.94 187.834 248.026 187.603L249.826 187.805C249.712 188.281 249.496 188.697 249.176 189.052C248.86 189.403 248.455 189.677 247.962 189.872C247.468 190.064 246.903 190.16 246.268 190.16ZM251.537 190V181.818H253.407V183.182H253.492C253.641 182.709 253.897 182.345 254.259 182.09C254.625 181.831 255.042 181.701 255.511 181.701C255.617 181.701 255.736 181.706 255.868 181.717C256.003 181.724 256.115 181.736 256.203 181.754V183.528C256.122 183.5 255.992 183.475 255.814 183.453C255.64 183.429 255.472 183.416 255.308 183.416C254.957 183.416 254.641 183.492 254.36 183.645C254.083 183.794 253.865 184.002 253.705 184.268C253.545 184.535 253.465 184.842 253.465 185.19V190H251.537ZM265.291 181.818V183.31H260.587V181.818H265.291ZM261.748 179.858H263.677V187.539C263.677 187.798 263.716 187.997 263.794 188.136C263.876 188.271 263.982 188.363 264.114 188.413C264.245 188.462 264.39 188.487 264.55 188.487C264.671 188.487 264.781 188.478 264.881 188.461C264.984 188.443 265.062 188.427 265.115 188.413L265.44 189.92C265.337 189.956 265.189 189.995 264.998 190.037C264.81 190.08 264.579 190.105 264.305 190.112C263.822 190.126 263.387 190.053 263 189.893C262.613 189.73 262.306 189.478 262.079 189.137C261.855 188.796 261.745 188.37 261.748 187.859V179.858ZM266.903 190V181.818H268.773V183.182H268.858C269.007 182.709 269.263 182.345 269.625 182.09C269.991 181.831 270.408 181.701 270.877 181.701C270.984 181.701 271.103 181.706 271.234 181.717C271.369 181.724 271.481 181.736 271.57 181.754V183.528C271.488 183.5 271.358 183.475 271.181 183.453C271.007 183.429 270.838 183.416 270.675 183.416C270.323 183.416 270.007 183.492 269.727 183.645C269.45 183.794 269.231 184.002 269.071 184.268C268.912 184.535 268.832 184.842 268.832 185.19V190H266.903ZM275.059 190.165C274.54 190.165 274.073 190.073 273.658 189.888C273.246 189.7 272.919 189.423 272.678 189.057C272.44 188.691 272.321 188.24 272.321 187.704C272.321 187.242 272.406 186.861 272.576 186.559C272.747 186.257 272.979 186.016 273.274 185.834C273.569 185.653 273.901 185.517 274.27 185.424C274.643 185.328 275.028 185.259 275.426 185.217C275.905 185.167 276.294 185.122 276.593 185.083C276.891 185.041 277.108 184.977 277.242 184.892C277.381 184.803 277.45 184.666 277.45 184.481V184.45C277.45 184.048 277.331 183.738 277.093 183.517C276.855 183.297 276.513 183.187 276.065 183.187C275.593 183.187 275.218 183.29 274.941 183.496C274.668 183.702 274.483 183.945 274.387 184.226L272.587 183.97C272.729 183.473 272.963 183.057 273.29 182.724C273.617 182.386 274.016 182.134 274.489 181.967C274.961 181.797 275.483 181.712 276.055 181.712C276.449 181.712 276.841 181.758 277.232 181.85C277.622 181.942 277.979 182.095 278.303 182.308C278.626 182.518 278.885 182.804 279.08 183.166C279.279 183.528 279.379 183.981 279.379 184.524V190H277.525V188.876H277.461C277.344 189.103 277.179 189.316 276.966 189.515C276.756 189.711 276.491 189.869 276.172 189.989C275.856 190.106 275.485 190.165 275.059 190.165ZM275.559 188.748C275.946 188.748 276.282 188.672 276.566 188.519C276.85 188.363 277.068 188.157 277.221 187.901C277.377 187.646 277.456 187.367 277.456 187.065V186.101C277.395 186.151 277.292 186.197 277.147 186.239C277.005 186.282 276.845 186.319 276.667 186.351C276.49 186.383 276.314 186.412 276.14 186.436C275.966 186.461 275.815 186.483 275.687 186.5C275.399 186.539 275.142 186.603 274.915 186.692C274.687 186.781 274.508 186.905 274.377 187.065C274.245 187.221 274.18 187.424 274.18 187.672C274.18 188.027 274.309 188.295 274.568 188.477C274.828 188.658 275.158 188.748 275.559 188.748ZM285.462 181.818V183.31H280.625V181.818H285.462ZM281.834 190V181.046C281.834 180.495 281.948 180.037 282.175 179.671C282.406 179.306 282.715 179.032 283.102 178.851C283.489 178.67 283.919 178.579 284.391 178.579C284.725 178.579 285.021 178.606 285.28 178.659C285.54 178.713 285.731 178.761 285.856 178.803L285.472 180.295C285.391 180.27 285.288 180.245 285.163 180.22C285.039 180.192 284.901 180.177 284.748 180.177C284.389 180.177 284.135 180.264 283.986 180.439C283.841 180.609 283.768 180.854 283.768 181.174V190H281.834ZM291.116 181.818V183.31H286.279V181.818H291.116ZM287.488 190V181.046C287.488 180.495 287.602 180.037 287.829 179.671C288.06 179.306 288.369 179.032 288.756 178.851C289.143 178.67 289.573 178.579 290.045 178.579C290.379 178.579 290.676 178.606 290.935 178.659C291.194 178.713 291.386 178.761 291.51 178.803L291.127 180.295C291.045 180.27 290.942 180.245 290.818 180.22C290.693 180.192 290.555 180.177 290.402 180.177C290.043 180.177 289.79 180.264 289.64 180.439C289.495 180.609 289.422 180.854 289.422 181.174V190H287.488ZM292.626 190V181.818H294.554V190H292.626ZM293.595 180.657C293.29 180.657 293.027 180.556 292.807 180.353C292.587 180.147 292.477 179.901 292.477 179.613C292.477 179.322 292.587 179.075 292.807 178.872C293.027 178.666 293.29 178.564 293.595 178.564C293.904 178.564 294.167 178.666 294.384 178.872C294.604 179.075 294.714 179.322 294.714 179.613C294.714 179.901 294.604 180.147 294.384 180.353C294.167 180.556 293.904 180.657 293.595 180.657ZM300.106 190.16C299.289 190.16 298.588 189.98 298.002 189.622C297.42 189.263 296.97 188.768 296.654 188.136C296.342 187.5 296.186 186.768 296.186 185.941C296.186 185.11 296.345 184.377 296.665 183.741C296.985 183.102 297.436 182.605 298.018 182.25C298.604 181.891 299.296 181.712 300.095 181.712C300.759 181.712 301.347 181.834 301.859 182.079C302.373 182.321 302.784 182.663 303.089 183.107C303.394 183.548 303.568 184.062 303.611 184.652H301.768C301.693 184.258 301.516 183.929 301.235 183.666C300.958 183.4 300.587 183.267 300.122 183.267C299.728 183.267 299.382 183.374 299.083 183.587C298.785 183.796 298.552 184.098 298.386 184.492C298.222 184.886 298.14 185.359 298.14 185.909C298.14 186.467 298.222 186.946 298.386 187.347C298.549 187.745 298.778 188.052 299.073 188.269C299.371 188.482 299.721 188.588 300.122 188.588C300.406 188.588 300.66 188.535 300.884 188.429C301.111 188.318 301.301 188.16 301.454 187.954C301.606 187.749 301.711 187.498 301.768 187.203H303.611C303.565 187.782 303.394 188.295 303.1 188.743C302.805 189.187 302.404 189.535 301.896 189.787C301.388 190.035 300.791 190.16 300.106 190.16Z" fill="#8F95B2"/>
<path d="M472 212.25H650.5C652.709 212.25 654.5 214.041 654.5 216.25V239.25" stroke="#2C79E3" stroke-width="1.5" stroke-dasharray="3 3"/>
<path d="M655.148 241.727C654.79 242.091 654.21 242.091 653.852 241.727L650.768 238.591C650.411 238.227 650.411 237.637 650.768 237.273C651.126 236.909 651.707 236.909 652.065 237.273L653.583 238.817L655.417 238.817L656.935 237.273C657.293 236.909 657.874 236.909 658.232 237.273C658.589 237.637 658.589 238.227 658.232 238.591L655.148 241.727Z" fill="#2C79E3"/>
<rect x="547.25" y="202.75" width="38.5" height="19" rx="3.25" fill="#F9FAFC" stroke="#2C79E3" stroke-width="1.5"/>
<path d="M556.813 208.977V216.25H555.496V210.259H555.453L553.752 211.346V210.138L555.56 208.977H556.813ZM561.348 216.388C560.763 216.388 560.262 216.24 559.843 215.945C559.426 215.646 559.105 215.217 558.88 214.655C558.658 214.092 558.546 213.414 558.546 212.621C558.549 211.828 558.661 211.153 558.884 210.597C559.109 210.038 559.429 209.612 559.846 209.318C560.265 209.025 560.766 208.878 561.348 208.878C561.931 208.878 562.431 209.025 562.85 209.318C563.269 209.612 563.59 210.038 563.813 210.597C564.038 211.155 564.15 211.83 564.15 212.621C564.15 213.416 564.038 214.096 563.813 214.659C563.59 215.22 563.269 215.649 562.85 215.945C562.434 216.24 561.933 216.388 561.348 216.388ZM561.348 215.277C561.803 215.277 562.161 215.053 562.424 214.606C562.689 214.156 562.822 213.494 562.822 212.621C562.822 212.043 562.762 211.558 562.641 211.165C562.52 210.772 562.35 210.476 562.129 210.277C561.909 210.076 561.649 209.975 561.348 209.975C560.896 209.975 560.539 210.2 560.276 210.65C560.013 211.097 559.88 211.754 559.878 212.621C559.876 213.201 559.934 213.688 560.052 214.084C560.173 214.479 560.343 214.777 560.563 214.979C560.784 215.177 561.045 215.277 561.348 215.277ZM568.018 216.388C567.433 216.388 566.931 216.24 566.512 215.945C566.096 215.646 565.775 215.217 565.55 214.655C565.328 214.092 565.216 213.414 565.216 212.621C565.219 211.828 565.331 211.153 565.554 210.597C565.779 210.038 566.099 209.612 566.516 209.318C566.935 209.025 567.436 208.878 568.018 208.878C568.6 208.878 569.101 209.025 569.52 209.318C569.939 209.612 570.26 210.038 570.483 210.597C570.708 211.155 570.82 211.83 570.82 212.621C570.82 213.416 570.708 214.096 570.483 214.659C570.26 215.22 569.939 215.649 569.52 215.945C569.104 216.24 568.603 216.388 568.018 216.388ZM568.018 215.277C568.473 215.277 568.831 215.053 569.094 214.606C569.359 214.156 569.492 213.494 569.492 212.621C569.492 212.043 569.431 211.558 569.311 211.165C569.19 210.772 569.02 210.476 568.799 210.277C568.579 210.076 568.319 209.975 568.018 209.975C567.566 209.975 567.208 210.2 566.946 210.65C566.683 211.097 566.55 211.754 566.548 212.621C566.546 213.201 566.604 213.688 566.722 214.084C566.843 214.479 567.013 214.777 567.233 214.979C567.453 215.177 567.715 215.277 568.018 215.277ZM575.888 214.886V214.503C575.888 214.221 575.948 213.962 576.066 213.725C576.187 213.488 576.362 213.298 576.591 213.153C576.821 213.009 577.099 212.937 577.426 212.937C577.762 212.937 578.044 213.009 578.271 213.153C578.498 213.295 578.67 213.485 578.786 213.722C578.904 213.958 578.964 214.219 578.964 214.503V214.886C578.964 215.168 578.904 215.427 578.786 215.664C578.668 215.901 578.494 216.091 578.264 216.236C578.037 216.38 577.757 216.452 577.426 216.452C577.095 216.452 576.814 216.38 576.584 216.236C576.355 216.091 576.181 215.901 576.062 215.664C575.946 215.427 575.888 215.168 575.888 214.886ZM576.815 214.503V214.886C576.815 215.073 576.86 215.245 576.95 215.401C577.04 215.557 577.199 215.636 577.426 215.636C577.656 215.636 577.813 215.559 577.898 215.405C577.986 215.249 578.03 215.076 578.03 214.886V214.503C578.03 214.313 577.988 214.141 577.905 213.984C577.823 213.826 577.663 213.746 577.426 213.746C577.203 213.746 577.046 213.826 576.954 213.984C576.861 214.141 576.815 214.313 576.815 214.503ZM572.192 210.724V210.341C572.192 210.057 572.252 209.796 572.373 209.56C572.493 209.323 572.669 209.133 572.898 208.991C573.128 208.847 573.406 208.775 573.733 208.775C574.067 208.775 574.347 208.847 574.574 208.991C574.804 209.133 574.977 209.323 575.093 209.56C575.209 209.796 575.267 210.057 575.267 210.341V210.724C575.267 211.008 575.208 211.269 575.089 211.506C574.973 211.74 574.8 211.928 574.571 212.07C574.341 212.212 574.062 212.283 573.733 212.283C573.399 212.283 573.117 212.212 572.888 212.07C572.66 211.928 572.488 211.739 572.369 211.502C572.251 211.265 572.192 211.006 572.192 210.724ZM573.126 210.341V210.724C573.126 210.914 573.169 211.087 573.257 211.243C573.347 211.397 573.506 211.474 573.733 211.474C573.96 211.474 574.116 211.397 574.202 211.243C574.289 211.087 574.333 210.914 574.333 210.724V210.341C574.333 210.151 574.291 209.979 574.209 209.822C574.126 209.664 573.967 209.584 573.733 209.584C573.508 209.584 573.35 209.664 573.26 209.822C573.171 209.981 573.126 210.154 573.126 210.341ZM572.596 216.25L577.596 208.977H578.484L573.484 216.25H572.596Z" fill="#2C79E3"/>
<path d="M472 186.25H650.5C652.709 186.25 654.5 184.459 654.5 182.25V147.25" stroke="#3AB222" stroke-width="1.5" stroke-dasharray="3 3"/>
<path d="M655.148 144.273C654.79 143.909 654.21 143.909 653.852 144.273L650.768 147.409C650.411 147.773 650.411 148.363 650.768 148.727C651.126 149.091 651.707 149.091 652.065 148.727L653.583 147.183L655.417 147.183L656.935 148.727C657.293 149.091 657.874 149.091 658.232 148.727C658.589 148.363 658.589 147.773 658.232 147.409L655.148 144.273Z" fill="#3AB222"/>
<path d="M468.523 185.602C468.159 185.96 468.159 186.54 468.523 186.898L471.659 189.981C472.023 190.339 472.613 190.339 472.977 189.981C473.341 189.624 473.341 189.043 472.977 188.685L471.433 187.167V185.333L472.977 183.815C473.341 183.457 473.341 182.876 472.977 182.518C472.613 182.16 472.023 182.16 471.659 182.518L468.523 185.602Z" fill="#3AB222"/>
<rect x="547.25" y="175.75" width="38.5" height="19" rx="3.25" fill="#F9FAFC" stroke="#3AB222" stroke-width="1.5"/>
<path d="M556.813 181.977V189.25H555.496V183.259H555.453L553.752 184.346V183.138L555.56 181.977H556.813ZM561.348 189.388C560.763 189.388 560.262 189.24 559.843 188.945C559.426 188.646 559.105 188.217 558.88 187.655C558.658 187.092 558.546 186.414 558.546 185.621C558.549 184.828 558.661 184.153 558.884 183.597C559.109 183.038 559.429 182.612 559.846 182.318C560.265 182.025 560.766 181.878 561.348 181.878C561.931 181.878 562.431 182.025 562.85 182.318C563.269 182.612 563.59 183.038 563.813 183.597C564.038 184.155 564.15 184.83 564.15 185.621C564.15 186.416 564.038 187.096 563.813 187.659C563.59 188.22 563.269 188.649 562.85 188.945C562.434 189.24 561.933 189.388 561.348 189.388ZM561.348 188.277C561.803 188.277 562.161 188.053 562.424 187.606C562.689 187.156 562.822 186.494 562.822 185.621C562.822 185.043 562.762 184.558 562.641 184.165C562.52 183.772 562.35 183.476 562.129 183.277C561.909 183.076 561.649 182.975 561.348 182.975C560.896 182.975 560.539 183.2 560.276 183.65C560.013 184.097 559.88 184.754 559.878 185.621C559.876 186.201 559.934 186.688 560.052 187.084C560.173 187.479 560.343 187.777 560.563 187.979C560.784 188.177 561.045 188.277 561.348 188.277ZM568.018 189.388C567.433 189.388 566.931 189.24 566.512 188.945C566.096 188.646 565.775 188.217 565.55 187.655C565.328 187.092 565.216 186.414 565.216 185.621C565.219 184.828 565.331 184.153 565.554 183.597C565.779 183.038 566.099 182.612 566.516 182.318C566.935 182.025 567.436 181.878 568.018 181.878C568.6 181.878 569.101 182.025 569.52 182.318C569.939 182.612 570.26 183.038 570.483 183.597C570.708 184.155 570.82 184.83 570.82 185.621C570.82 186.416 570.708 187.096 570.483 187.659C570.26 188.22 569.939 188.649 569.52 188.945C569.104 189.24 568.603 189.388 568.018 189.388ZM568.018 188.277C568.473 188.277 568.831 188.053 569.094 187.606C569.359 187.156 569.492 186.494 569.492 185.621C569.492 185.043 569.431 184.558 569.311 184.165C569.19 183.772 569.02 183.476 568.799 183.277C568.579 183.076 568.319 182.975 568.018 182.975C567.566 182.975 567.208 183.2 566.946 183.65C566.683 184.097 566.55 184.754 566.548 185.621C566.546 186.201 566.604 186.688 566.722 187.084C566.843 187.479 567.013 187.777 567.233 187.979C567.453 188.177 567.715 188.277 568.018 188.277ZM575.888 187.886V187.503C575.888 187.221 575.948 186.962 576.066 186.725C576.187 186.488 576.362 186.298 576.591 186.153C576.821 186.009 577.099 185.937 577.426 185.937C577.762 185.937 578.044 186.009 578.271 186.153C578.498 186.295 578.67 186.485 578.786 186.722C578.904 186.958 578.964 187.219 578.964 187.503V187.886C578.964 188.168 578.904 188.427 578.786 188.664C578.668 188.901 578.494 189.091 578.264 189.236C578.037 189.38 577.757 189.452 577.426 189.452C577.095 189.452 576.814 189.38 576.584 189.236C576.355 189.091 576.181 188.901 576.062 188.664C575.946 188.427 575.888 188.168 575.888 187.886ZM576.815 187.503V187.886C576.815 188.073 576.86 188.245 576.95 188.401C577.04 188.557 577.199 188.636 577.426 188.636C577.656 188.636 577.813 188.559 577.898 188.405C577.986 188.249 578.03 188.076 578.03 187.886V187.503C578.03 187.313 577.988 187.141 577.905 186.984C577.823 186.826 577.663 186.746 577.426 186.746C577.203 186.746 577.046 186.826 576.954 186.984C576.861 187.141 576.815 187.313 576.815 187.503ZM572.192 183.724V183.341C572.192 183.057 572.252 182.796 572.373 182.56C572.493 182.323 572.669 182.133 572.898 181.991C573.128 181.847 573.406 181.775 573.733 181.775C574.067 181.775 574.347 181.847 574.574 181.991C574.804 182.133 574.977 182.323 575.093 182.56C575.209 182.796 575.267 183.057 575.267 183.341V183.724C575.267 184.008 575.208 184.269 575.089 184.506C574.973 184.74 574.8 184.928 574.571 185.07C574.341 185.212 574.062 185.283 573.733 185.283C573.399 185.283 573.117 185.212 572.888 185.07C572.66 184.928 572.488 184.739 572.369 184.502C572.251 184.265 572.192 184.006 572.192 183.724ZM573.126 183.341V183.724C573.126 183.914 573.169 184.087 573.257 184.243C573.347 184.397 573.506 184.474 573.733 184.474C573.96 184.474 574.116 184.397 574.202 184.243C574.289 184.087 574.333 183.914 574.333 183.724V183.341C574.333 183.151 574.291 182.979 574.209 182.822C574.126 182.664 573.967 182.584 573.733 182.584C573.508 182.584 573.35 182.664 573.26 182.822C573.171 182.981 573.126 183.154 573.126 183.341ZM572.596 189.25L577.596 181.977H578.484L573.484 189.25H572.596Z" fill="#3AB222"/>
<path d="M612.75 295.75C612.75 294.093 614.093 292.75 615.75 292.75H690.75C692.407 292.75 693.75 294.093 693.75 295.75V309.25C693.75 310.907 692.407 312.25 690.75 312.25H615.75C614.093 312.25 612.75 310.907 612.75 309.25V295.75Z" fill="white" stroke="#2C79E3" stroke-width="1.5"/>
<rect x="620.25" y="300.487" width="21" height="4.39474" rx="0.75" fill="white" stroke="#2C79E3" stroke-width="1.5"/>
<rect x="681.75" y="300.487" width="4.5" height="4.39474" rx="2.19737" fill="#2C79E3" stroke="#2C79E3" stroke-width="1.5"/>
<path d="M612.75 315.25C612.75 313.593 614.093 312.25 615.75 312.25H690.75C692.407 312.25 693.75 313.593 693.75 315.25V328.75C693.75 330.407 692.407 331.75 690.75 331.75H615.75C614.093 331.75 612.75 330.407 612.75 328.75V315.25Z" fill="white" stroke="#2C79E3" stroke-width="1.5"/>
<rect x="620.25" y="319.987" width="21" height="4.39474" rx="0.75" fill="white" stroke="#2C79E3" stroke-width="1.5"/>
<rect x="681.75" y="319.987" width="4.5" height="4.39474" rx="2.19737" fill="#2C79E3" stroke="#2C79E3" stroke-width="1.5"/>
<rect x="673.5" y="319.987" width="4.5" height="4.39474" rx="2.19737" fill="#2C79E3" stroke="#2C79E3" stroke-width="1.5"/>
<path d="M612.75 334.75C612.75 333.093 614.093 331.75 615.75 331.75H690.75C692.407 331.75 693.75 333.093 693.75 334.75V348.25C693.75 349.907 692.407 351.25 690.75 351.25H615.75C614.093 351.25 612.75 349.907 612.75 348.25V334.75Z" fill="white" stroke="#2C79E3" stroke-width="1.5"/>
<rect x="620.25" y="339.487" width="21" height="4.39474" rx="0.75" fill="white" stroke="#2C79E3" stroke-width="1.5"/>
<rect x="681.75" y="339.487" width="4.5" height="4.39474" rx="2.19737" fill="#2C79E3" stroke="#2C79E3" stroke-width="1.5"/>
<path d="M643.399 281.691C643.532 281.691 643.665 281.655 643.786 281.584C646.48 279.987 650.301 279.071 654.267 279.071C658.233 279.071 662.054 279.987 664.75 281.584C665.068 281.771 665.474 281.704 665.714 281.425C668.053 278.695 669.341 275.213 669.341 271.621C669.341 263.309 662.579 256.547 654.268 256.547C645.956 256.547 639.193 263.309 639.193 271.621C639.193 275.215 640.482 278.697 642.822 281.426C642.971 281.599 643.183 281.691 643.399 281.691L643.399 281.691ZM646.494 277.084L644.761 278.091C644.641 278.161 644.51 278.194 644.38 278.194C644.119 278.194 643.864 278.058 643.723 277.816C643.512 277.454 643.635 276.988 643.998 276.778L645.731 275.771C646.093 275.559 646.559 275.683 646.769 276.046C646.98 276.408 646.857 276.873 646.494 277.084L646.494 277.084ZM665.083 277.758C664.943 278.003 664.687 278.14 664.424 278.14C664.295 278.14 664.166 278.107 664.046 278.039L662.309 277.042C661.945 276.833 661.819 276.369 662.028 276.005C662.236 275.641 662.701 275.516 663.065 275.724L664.802 276.721C665.166 276.93 665.292 277.395 665.083 277.758ZM666.478 271.621C666.478 272.04 666.138 272.381 665.719 272.381H663.713C663.295 272.381 662.955 272.04 662.955 271.621C662.955 271.202 663.295 270.862 663.713 270.862H665.719C666.139 270.862 666.478 271.202 666.478 271.621ZM662.07 266.279L663.804 265.271C664.166 265.06 664.631 265.183 664.842 265.546C665.053 265.908 664.93 266.374 664.567 266.584L662.834 267.592C662.713 267.662 662.582 267.696 662.452 267.696C662.191 267.696 661.936 267.56 661.795 267.318C661.584 266.955 661.707 266.49 662.07 266.279L662.07 266.279ZM658.346 263.143L659.34 261.4C659.548 261.036 660.011 260.909 660.376 261.117C660.741 261.325 660.867 261.789 660.66 262.153L659.666 263.895C659.526 264.141 659.269 264.279 659.005 264.279C658.878 264.279 658.749 264.246 658.63 264.179C658.266 263.971 658.139 263.507 658.346 263.143ZM653.507 260.168C653.507 259.749 653.848 259.408 654.267 259.408C654.686 259.408 655.027 259.749 655.027 260.168V262.173C655.027 262.592 654.686 262.933 654.267 262.933C653.848 262.933 653.507 262.592 653.507 262.173V260.168ZM652.39 270.056C653.263 269.276 659.699 266.205 659.973 266.074C660.084 266.021 660.219 266.047 660.304 266.141C660.386 266.234 660.399 266.371 660.333 266.477C660.172 266.734 656.397 272.784 655.524 273.563C655.092 273.949 654.536 274.161 653.958 274.161C653.289 274.161 652.649 273.875 652.204 273.375C651.34 272.409 651.424 270.919 652.39 270.056L652.39 270.056ZM648.338 261.151C648.701 260.941 649.166 261.065 649.376 261.429L650.379 263.164C650.589 263.528 650.465 263.992 650.101 264.202C649.982 264.271 649.851 264.304 649.721 264.304C649.46 264.304 649.204 264.168 649.064 263.924L648.061 262.189C647.851 261.825 647.975 261.361 648.338 261.151ZM643.898 265.605C644.107 265.241 644.571 265.116 644.935 265.324L646.673 266.323C647.037 266.531 647.163 266.996 646.954 267.359C646.814 267.604 646.558 267.741 646.295 267.741C646.167 267.741 646.037 267.708 645.917 267.64L644.178 266.642C643.815 266.433 643.689 265.968 643.898 265.605ZM642.054 271.621C642.054 271.202 642.395 270.861 642.814 270.861H644.818C645.237 270.861 645.577 271.202 645.577 271.621C645.577 272.04 645.237 272.38 644.818 272.38H642.814C642.395 272.38 642.054 272.04 642.054 271.621Z" fill="#2C79E3"/>
<circle cx="472.5" cy="212.5" r="4" fill="#F23C3C"/>
<path fill-rule="evenodd" clip-rule="evenodd" d="M470.788 214.213C470.697 214.121 470.697 213.973 470.788 213.881L473.882 210.787C473.973 210.696 474.122 210.696 474.213 210.787C474.305 210.879 474.305 211.027 474.213 211.119L471.12 214.213C471.028 214.304 470.88 214.304 470.788 214.213Z" fill="white"/>
<path fill-rule="evenodd" clip-rule="evenodd" d="M470.788 210.787C470.88 210.696 471.028 210.696 471.12 210.787L474.213 213.881C474.305 213.973 474.305 214.121 474.213 214.213C474.122 214.304 473.973 214.304 473.882 214.213L470.788 211.119C470.697 211.027 470.697 210.879 470.788 210.787Z" fill="white"/>
<path fill-rule="evenodd" clip-rule="evenodd" d="M470.788 214.213C470.697 214.121 470.697 213.973 470.788 213.881L473.882 210.787C473.973 210.696 474.122 210.696 474.213 210.787C474.305 210.879 474.305 211.027 474.213 211.119L471.12 214.213C471.028 214.304 470.88 214.304 470.788 214.213Z" stroke="white" stroke-linecap="round"/>
<path fill-rule="evenodd" clip-rule="evenodd" d="M470.788 210.787C470.88 210.696 471.028 210.696 471.12 210.787L474.213 213.881C474.305 213.973 474.305 214.121 474.213 214.213C474.122 214.304 473.973 214.304 473.882 214.213L470.788 211.119C470.697 211.027 470.697 210.879 470.788 210.787Z" stroke="white" stroke-linecap="round"/>
<defs>
<clipPath id="clip0_1558_1463">
<rect width="34" height="28" fill="white" transform="translate(121 148)"/>
</clipPath>
<clipPath id="clip1_1558_1463">
<rect width="34" height="28" fill="white" transform="translate(121 224)"/>
</clipPath>
</defs>
</svg>
