<svg width="844" height="471" viewBox="0 0 844 471" fill="none" xmlns="http://www.w3.org/2000/svg">
<rect width="844" height="471" rx="10" fill="white"/>
<path d="M313.189 71.3652C320.48 74.4195 329.188 73.7586 335.56 69.0768C354.398 55.2344 377.997 47 403.618 47C432.581 47 458.961 57.5234 478.8 74.7758C485.947 80.9903 496.863 81.6745 505.413 77.6751C513.575 73.8567 522.755 71.7116 532.465 71.7116C551.576 71.7116 568.641 80.0227 579.924 93.0509C585.324 99.2862 593.996 102.791 602.352 101.048C610.403 99.3678 618.767 98.4825 627.348 98.4825C691.747 98.4825 743.874 148.326 743.874 209.714C743.874 234.066 735.676 256.592 721.766 274.915C717.765 280.185 716.726 287.253 717.753 294.09C718.78 300.932 721.892 307.684 726.386 312.415C735.248 321.745 740.639 334.118 740.639 347.687C740.639 376.662 716.028 400.229 685.572 400.229C676.346 400.229 667.654 398.065 660.02 394.243C649.897 389.174 635.633 389.989 626.653 396.858C615.475 405.408 601.286 410.526 585.836 410.526C572.552 410.526 560.199 406.742 549.892 400.246C540.31 394.207 526.088 394.47 517.587 402.025C500.152 417.518 476.77 427 451.059 427C425.126 427 401.561 417.353 384.08 401.621C375.988 394.339 362.697 393.743 353.51 399.585C341.62 407.146 327.337 411.555 311.969 411.555C270.496 411.555 236.955 379.46 236.955 339.965C236.955 332.517 238.146 325.336 240.357 318.586C241.345 315.567 240.385 312.327 238.181 310.098C235.514 307.398 231.237 306.36 227.678 308.081C212.027 315.65 194.325 319.916 175.575 319.916C111.771 319.916 60.127 270.534 60.127 209.714C60.127 148.894 111.771 99.5121 175.575 99.5121C184.713 99.5121 193.602 100.526 202.126 102.44C210.806 104.391 219.961 100.708 225.225 93.8839C238.484 76.6968 259.837 65.5337 283.935 65.5337C294.343 65.5337 304.237 67.6157 313.189 71.3652Z" fill="#F9FAFC" stroke="#E5F0FF" stroke-width="2"/>
<path d="M487.177 155V146.818H489.02V148.208H489.116C489.287 147.74 489.569 147.374 489.963 147.111C490.357 146.845 490.828 146.712 491.375 146.712C491.929 146.712 492.396 146.847 492.776 147.116C493.159 147.383 493.429 147.747 493.585 148.208H493.671C493.852 147.754 494.157 147.392 494.587 147.122C495.02 146.848 495.533 146.712 496.126 146.712C496.879 146.712 497.493 146.95 497.969 147.425C498.445 147.901 498.683 148.596 498.683 149.508V155H496.749V149.806C496.749 149.299 496.614 148.928 496.345 148.693C496.075 148.455 495.744 148.336 495.354 148.336C494.889 148.336 494.525 148.482 494.262 148.773C494.003 149.061 493.873 149.435 493.873 149.897V155H491.982V149.727C491.982 149.304 491.854 148.967 491.598 148.714C491.346 148.462 491.016 148.336 490.608 148.336C490.331 148.336 490.079 148.407 489.851 148.549C489.624 148.688 489.443 148.885 489.308 149.141C489.173 149.393 489.106 149.687 489.106 150.025V155H487.177ZM502.994 155.165C502.475 155.165 502.008 155.073 501.593 154.888C501.181 154.7 500.854 154.423 500.613 154.057C500.375 153.691 500.256 153.24 500.256 152.704C500.256 152.243 500.341 151.861 500.511 151.559C500.682 151.257 500.914 151.016 501.209 150.835C501.504 150.653 501.836 150.517 502.205 150.424C502.578 150.328 502.963 150.259 503.361 150.217C503.841 150.167 504.229 150.123 504.528 150.083C504.826 150.041 505.043 149.977 505.178 149.892C505.316 149.803 505.385 149.666 505.385 149.482V149.45C505.385 149.048 505.266 148.738 505.028 148.517C504.79 148.297 504.448 148.187 504 148.187C503.528 148.187 503.153 148.29 502.876 148.496C502.603 148.702 502.418 148.945 502.322 149.226L500.522 148.97C500.664 148.473 500.898 148.058 501.225 147.724C501.552 147.386 501.951 147.134 502.424 146.967C502.896 146.797 503.418 146.712 503.99 146.712C504.384 146.712 504.776 146.758 505.167 146.85C505.558 146.942 505.914 147.095 506.238 147.308C506.561 147.518 506.82 147.804 507.015 148.166C507.214 148.528 507.314 148.981 507.314 149.524V155H505.46V153.876H505.396C505.279 154.103 505.114 154.316 504.901 154.515C504.691 154.711 504.426 154.869 504.107 154.989C503.791 155.107 503.42 155.165 502.994 155.165ZM503.494 153.748C503.881 153.748 504.217 153.672 504.501 153.519C504.785 153.363 505.004 153.157 505.156 152.901C505.312 152.646 505.391 152.367 505.391 152.065V151.101C505.33 151.151 505.227 151.197 505.082 151.239C504.94 151.282 504.78 151.319 504.602 151.351C504.425 151.383 504.249 151.412 504.075 151.436C503.901 151.461 503.75 151.483 503.622 151.5C503.335 151.539 503.077 151.603 502.85 151.692C502.623 151.781 502.443 151.905 502.312 152.065C502.18 152.221 502.115 152.424 502.115 152.672C502.115 153.027 502.244 153.295 502.504 153.477C502.763 153.658 503.093 153.748 503.494 153.748ZM509.252 155V146.818H511.181V155H509.252ZM510.222 145.657C509.917 145.657 509.654 145.556 509.434 145.353C509.213 145.147 509.103 144.901 509.103 144.613C509.103 144.322 509.213 144.075 509.434 143.873C509.654 143.667 509.917 143.564 510.222 143.564C510.531 143.564 510.794 143.667 511.01 143.873C511.23 144.075 511.341 144.322 511.341 144.613C511.341 144.901 511.23 145.147 511.01 145.353C510.794 145.556 510.531 145.657 510.222 145.657ZM515.092 150.206V155H513.164V146.818H515.007V148.208H515.103C515.291 147.75 515.591 147.386 516.003 147.116C516.418 146.847 516.931 146.712 517.542 146.712C518.107 146.712 518.599 146.832 519.018 147.074C519.44 147.315 519.767 147.665 519.998 148.123C520.232 148.581 520.348 149.137 520.344 149.79V155H518.416V150.089C518.416 149.542 518.274 149.114 517.99 148.805C517.709 148.496 517.32 148.342 516.823 148.342C516.486 148.342 516.186 148.416 515.923 148.565C515.664 148.711 515.459 148.922 515.31 149.199C515.165 149.476 515.092 149.812 515.092 150.206Z" fill="#3AB222"/>
<path d="M287.707 296.318V297.81H282.871V296.318H287.707ZM284.08 304.5V295.546C284.08 294.995 284.193 294.537 284.421 294.172C284.651 293.806 284.96 293.532 285.347 293.351C285.735 293.17 286.164 293.08 286.637 293.08C286.97 293.08 287.267 293.106 287.526 293.159C287.785 293.213 287.977 293.261 288.101 293.303L287.718 294.795C287.636 294.77 287.533 294.745 287.409 294.72C287.285 294.692 287.146 294.678 286.993 294.678C286.635 294.678 286.381 294.765 286.232 294.939C286.086 295.109 286.013 295.354 286.013 295.674V304.5H284.08ZM292.532 304.66C291.712 304.66 291.003 304.489 290.407 304.148C289.813 303.804 289.357 303.317 289.038 302.689C288.718 302.057 288.558 301.313 288.558 300.457C288.558 299.615 288.718 298.877 289.038 298.241C289.361 297.602 289.812 297.105 290.391 296.75C290.969 296.391 291.649 296.212 292.431 296.212C292.935 296.212 293.411 296.293 293.858 296.457C294.309 296.616 294.707 296.865 295.051 297.202C295.399 297.54 295.673 297.969 295.872 298.491C296.071 299.01 296.17 299.628 296.17 300.345V300.936H289.464V299.637H294.322C294.318 299.267 294.238 298.939 294.082 298.651C293.926 298.36 293.707 298.131 293.427 297.964C293.15 297.797 292.827 297.714 292.457 297.714C292.063 297.714 291.717 297.81 291.419 298.001C291.12 298.19 290.888 298.438 290.721 298.747C290.557 299.053 290.474 299.388 290.47 299.754V300.888C290.47 301.364 290.557 301.773 290.731 302.114C290.905 302.451 291.149 302.71 291.461 302.891C291.774 303.069 292.139 303.158 292.559 303.158C292.839 303.158 293.093 303.119 293.32 303.04C293.547 302.959 293.745 302.84 293.911 302.684C294.078 302.527 294.204 302.334 294.29 302.103L296.09 302.305C295.976 302.781 295.76 303.197 295.44 303.552C295.124 303.903 294.719 304.177 294.226 304.372C293.732 304.564 293.168 304.66 292.532 304.66ZM300.156 304.665C299.637 304.665 299.17 304.573 298.755 304.388C298.343 304.2 298.016 303.923 297.775 303.557C297.537 303.191 297.418 302.74 297.418 302.204C297.418 301.743 297.503 301.361 297.673 301.059C297.844 300.757 298.077 300.516 298.371 300.335C298.666 300.153 298.998 300.017 299.367 299.924C299.74 299.828 300.126 299.759 300.523 299.717C301.003 299.667 301.392 299.623 301.69 299.583C301.988 299.541 302.205 299.477 302.34 299.392C302.478 299.303 302.547 299.166 302.547 298.982V298.95C302.547 298.548 302.428 298.238 302.191 298.017C301.953 297.797 301.61 297.687 301.162 297.687C300.69 297.687 300.316 297.79 300.039 297.996C299.765 298.202 299.58 298.445 299.485 298.726L297.684 298.47C297.826 297.973 298.061 297.558 298.387 297.224C298.714 296.886 299.113 296.634 299.586 296.467C300.058 296.297 300.58 296.212 301.152 296.212C301.546 296.212 301.938 296.258 302.329 296.35C302.72 296.442 303.077 296.595 303.4 296.808C303.723 297.018 303.982 297.304 304.177 297.666C304.376 298.028 304.476 298.481 304.476 299.024V304.5H302.622V303.376H302.558C302.441 303.603 302.276 303.816 302.063 304.015C301.853 304.211 301.589 304.369 301.269 304.489C300.953 304.607 300.582 304.665 300.156 304.665ZM300.656 303.248C301.044 303.248 301.379 303.172 301.663 303.019C301.947 302.863 302.166 302.657 302.318 302.401C302.475 302.146 302.553 301.867 302.553 301.565V300.601C302.492 300.651 302.389 300.697 302.244 300.739C302.102 300.782 301.942 300.819 301.764 300.851C301.587 300.883 301.411 300.912 301.237 300.936C301.063 300.961 300.912 300.983 300.784 301C300.497 301.039 300.239 301.103 300.012 301.192C299.785 301.281 299.605 301.405 299.474 301.565C299.343 301.721 299.277 301.924 299.277 302.172C299.277 302.527 299.406 302.795 299.666 302.977C299.925 303.158 300.255 303.248 300.656 303.248ZM310.5 296.318V297.81H305.797V296.318H310.5ZM306.958 294.358H308.886V302.039C308.886 302.298 308.925 302.497 309.003 302.636C309.085 302.771 309.192 302.863 309.323 302.913C309.454 302.962 309.6 302.987 309.76 302.987C309.881 302.987 309.991 302.978 310.09 302.961C310.193 302.943 310.271 302.927 310.324 302.913L310.649 304.42C310.546 304.456 310.399 304.495 310.207 304.537C310.019 304.58 309.788 304.605 309.515 304.612C309.032 304.626 308.597 304.553 308.21 304.393C307.823 304.23 307.515 303.978 307.288 303.637C307.064 303.296 306.954 302.87 306.958 302.359V294.358ZM317.328 301.059V296.318H319.256V304.5H317.386V303.046H317.301C317.116 303.504 316.813 303.879 316.39 304.17C315.971 304.461 315.454 304.607 314.84 304.607C314.304 304.607 313.83 304.488 313.418 304.25C313.009 304.008 312.69 303.658 312.459 303.2C312.228 302.739 312.113 302.181 312.113 301.528V296.318H314.041V301.229C314.041 301.748 314.183 302.16 314.467 302.465C314.751 302.771 315.124 302.923 315.586 302.923C315.87 302.923 316.145 302.854 316.411 302.716C316.678 302.577 316.896 302.371 317.067 302.098C317.241 301.821 317.328 301.474 317.328 301.059ZM321.239 304.5V296.318H323.108V297.682H323.194C323.343 297.21 323.599 296.846 323.961 296.59C324.327 296.331 324.744 296.201 325.213 296.201C325.319 296.201 325.438 296.206 325.569 296.217C325.704 296.224 325.816 296.237 325.905 296.254V298.028C325.823 298 325.694 297.975 325.516 297.953C325.342 297.929 325.173 297.916 325.01 297.916C324.659 297.916 324.343 297.993 324.062 298.145C323.785 298.294 323.567 298.502 323.407 298.768C323.247 299.035 323.167 299.342 323.167 299.69V304.5H321.239ZM330.471 304.66C329.651 304.66 328.943 304.489 328.346 304.148C327.753 303.804 327.297 303.317 326.977 302.689C326.657 302.057 326.498 301.313 326.498 300.457C326.498 299.615 326.657 298.877 326.977 298.241C327.3 297.602 327.751 297.105 328.33 296.75C328.909 296.391 329.589 296.212 330.37 296.212C330.874 296.212 331.35 296.293 331.798 296.457C332.249 296.616 332.646 296.865 332.991 297.202C333.339 297.54 333.612 297.969 333.811 298.491C334.01 299.01 334.109 299.628 334.109 300.345V300.936H327.403V299.637H332.261C332.258 299.267 332.178 298.939 332.021 298.651C331.865 298.36 331.647 298.131 331.366 297.964C331.089 297.797 330.766 297.714 330.397 297.714C330.003 297.714 329.656 297.81 329.358 298.001C329.06 298.19 328.827 298.438 328.66 298.747C328.497 299.053 328.413 299.388 328.41 299.754V300.888C328.41 301.364 328.497 301.773 328.671 302.114C328.845 302.451 329.088 302.71 329.401 302.891C329.713 303.069 330.079 303.158 330.498 303.158C330.778 303.158 331.032 303.119 331.26 303.04C331.487 302.959 331.684 302.84 331.851 302.684C332.018 302.527 332.144 302.334 332.229 302.103L334.03 302.305C333.916 302.781 333.699 303.197 333.38 303.552C333.064 303.903 332.659 304.177 332.165 304.372C331.672 304.564 331.107 304.66 330.471 304.66ZM343.877 293.591V304.5H341.901V295.514H341.837L339.286 297.144V295.333L341.997 293.591H343.877Z" fill="#8F95B2"/>
<path d="M237.028 170.818V172.31H232.191V170.818H237.028ZM233.4 179V170.046C233.4 169.495 233.514 169.037 233.741 168.672C233.972 168.306 234.281 168.032 234.668 167.851C235.055 167.67 235.485 167.58 235.957 167.58C236.291 167.58 236.587 167.606 236.846 167.659C237.106 167.713 237.297 167.761 237.422 167.803L237.038 169.295C236.956 169.27 236.854 169.245 236.729 169.22C236.605 169.192 236.466 169.178 236.314 169.178C235.955 169.178 235.701 169.265 235.552 169.439C235.406 169.609 235.334 169.854 235.334 170.174V179H233.4ZM241.852 179.16C241.032 179.16 240.323 178.989 239.727 178.648C239.134 178.304 238.677 177.817 238.358 177.189C238.038 176.557 237.878 175.813 237.878 174.957C237.878 174.115 238.038 173.377 238.358 172.741C238.681 172.102 239.132 171.605 239.711 171.25C240.29 170.891 240.97 170.712 241.751 170.712C242.255 170.712 242.731 170.793 243.179 170.957C243.63 171.116 244.027 171.365 244.372 171.702C244.72 172.04 244.993 172.469 245.192 172.991C245.391 173.51 245.49 174.128 245.49 174.845V175.436H238.784V174.137H243.642C243.638 173.767 243.559 173.439 243.402 173.151C243.246 172.86 243.028 172.631 242.747 172.464C242.47 172.297 242.147 172.214 241.778 172.214C241.383 172.214 241.037 172.31 240.739 172.501C240.441 172.69 240.208 172.938 240.041 173.247C239.878 173.553 239.794 173.888 239.791 174.254V175.388C239.791 175.864 239.878 176.273 240.052 176.614C240.226 176.951 240.469 177.21 240.782 177.391C241.094 177.569 241.46 177.658 241.879 177.658C242.159 177.658 242.413 177.619 242.641 177.54C242.868 177.459 243.065 177.34 243.232 177.184C243.399 177.027 243.525 176.834 243.61 176.603L245.41 176.805C245.297 177.281 245.08 177.697 244.761 178.052C244.445 178.403 244.04 178.677 243.546 178.872C243.052 179.064 242.488 179.16 241.852 179.16ZM249.476 179.165C248.958 179.165 248.491 179.073 248.075 178.888C247.663 178.7 247.336 178.423 247.095 178.057C246.857 177.691 246.738 177.24 246.738 176.704C246.738 176.243 246.823 175.861 246.994 175.559C247.164 175.257 247.397 175.016 247.692 174.835C247.986 174.653 248.318 174.517 248.688 174.424C249.061 174.328 249.446 174.259 249.844 174.217C250.323 174.167 250.712 174.123 251.01 174.083C251.308 174.041 251.525 173.977 251.66 173.892C251.798 173.803 251.868 173.666 251.868 173.482V173.45C251.868 173.048 251.749 172.738 251.511 172.517C251.273 172.297 250.93 172.187 250.483 172.187C250.01 172.187 249.636 172.29 249.359 172.496C249.085 172.702 248.901 172.945 248.805 173.226L247.004 172.97C247.146 172.473 247.381 172.058 247.708 171.724C248.034 171.386 248.434 171.134 248.906 170.967C249.378 170.797 249.9 170.712 250.472 170.712C250.866 170.712 251.259 170.758 251.649 170.85C252.04 170.942 252.397 171.095 252.72 171.308C253.043 171.518 253.302 171.804 253.498 172.166C253.697 172.528 253.796 172.981 253.796 173.524V179H251.942V177.876H251.878C251.761 178.103 251.596 178.316 251.383 178.515C251.173 178.711 250.909 178.869 250.589 178.989C250.273 179.107 249.902 179.165 249.476 179.165ZM249.977 177.748C250.364 177.748 250.699 177.672 250.983 177.519C251.268 177.363 251.486 177.157 251.639 176.901C251.795 176.646 251.873 176.367 251.873 176.065V175.101C251.813 175.151 251.71 175.197 251.564 175.239C251.422 175.282 251.262 175.319 251.085 175.351C250.907 175.383 250.731 175.412 250.557 175.436C250.383 175.461 250.232 175.483 250.105 175.5C249.817 175.539 249.559 175.603 249.332 175.692C249.105 175.781 248.926 175.905 248.794 176.065C248.663 176.221 248.597 176.424 248.597 176.672C248.597 177.027 248.727 177.295 248.986 177.477C249.245 177.658 249.575 177.748 249.977 177.748ZM259.82 170.818V172.31H255.117V170.818H259.82ZM256.278 168.858H258.206V176.539C258.206 176.798 258.246 176.997 258.324 177.136C258.405 177.271 258.512 177.363 258.643 177.413C258.775 177.462 258.92 177.487 259.08 177.487C259.201 177.487 259.311 177.478 259.41 177.461C259.513 177.443 259.591 177.427 259.645 177.413L259.97 178.92C259.867 178.956 259.719 178.995 259.528 179.037C259.339 179.08 259.108 179.105 258.835 179.112C258.352 179.126 257.917 179.053 257.53 178.893C257.143 178.73 256.836 178.478 256.608 178.137C256.385 177.796 256.275 177.37 256.278 176.859V168.858ZM266.648 175.559V170.818H268.576V179H266.707V177.546H266.621C266.437 178.004 266.133 178.379 265.71 178.67C265.291 178.961 264.775 179.107 264.16 179.107C263.624 179.107 263.15 178.988 262.738 178.75C262.33 178.508 262.01 178.158 261.779 177.7C261.549 177.239 261.433 176.681 261.433 176.028V170.818H263.361V175.729C263.361 176.248 263.503 176.66 263.788 176.965C264.072 177.271 264.445 177.423 264.906 177.423C265.19 177.423 265.465 177.354 265.732 177.216C265.998 177.077 266.217 176.871 266.387 176.598C266.561 176.321 266.648 175.974 266.648 175.559ZM270.559 179V170.818H272.429V172.182H272.514C272.663 171.71 272.919 171.346 273.281 171.09C273.647 170.831 274.064 170.701 274.533 170.701C274.639 170.701 274.758 170.706 274.89 170.717C275.025 170.724 275.137 170.737 275.225 170.754V172.528C275.144 172.5 275.014 172.475 274.836 172.453C274.662 172.429 274.494 172.416 274.33 172.416C273.979 172.416 273.663 172.493 273.382 172.645C273.105 172.794 272.887 173.002 272.727 173.268C272.567 173.535 272.487 173.842 272.487 174.19V179H270.559ZM279.792 179.16C278.971 179.16 278.263 178.989 277.666 178.648C277.073 178.304 276.617 177.817 276.297 177.189C275.978 176.557 275.818 175.813 275.818 174.957C275.818 174.115 275.978 173.377 276.297 172.741C276.62 172.102 277.071 171.605 277.65 171.25C278.229 170.891 278.909 170.712 279.69 170.712C280.195 170.712 280.671 170.793 281.118 170.957C281.569 171.116 281.967 171.365 282.311 171.702C282.659 172.04 282.933 172.469 283.131 172.991C283.33 173.51 283.43 174.128 283.43 174.845V175.436H276.723V174.137H281.581C281.578 173.767 281.498 173.439 281.342 173.151C281.185 172.86 280.967 172.631 280.687 172.464C280.41 172.297 280.086 172.214 279.717 172.214C279.323 172.214 278.977 172.31 278.678 172.501C278.38 172.69 278.147 172.938 277.981 173.247C277.817 173.553 277.734 173.888 277.73 174.254V175.388C277.73 175.864 277.817 176.273 277.991 176.614C278.165 176.951 278.408 177.21 278.721 177.391C279.033 177.569 279.399 177.658 279.818 177.658C280.099 177.658 280.353 177.619 280.58 177.54C280.807 177.459 281.004 177.34 281.171 177.184C281.338 177.027 281.464 176.834 281.549 176.603L283.35 176.805C283.236 177.281 283.02 177.697 282.7 178.052C282.384 178.403 281.979 178.677 281.486 178.872C280.992 179.064 280.427 179.16 279.792 179.16ZM288.76 179V177.572L292.548 173.86C292.91 173.494 293.212 173.169 293.453 172.885C293.695 172.601 293.876 172.326 293.997 172.059C294.117 171.793 294.178 171.509 294.178 171.207C294.178 170.863 294.1 170.568 293.943 170.323C293.787 170.074 293.572 169.882 293.299 169.748C293.025 169.613 292.715 169.545 292.367 169.545C292.008 169.545 291.694 169.62 291.424 169.769C291.154 169.914 290.944 170.122 290.795 170.392C290.65 170.662 290.577 170.983 290.577 171.356H288.697C288.697 170.664 288.855 170.062 289.171 169.55C289.487 169.039 289.922 168.643 290.476 168.363C291.033 168.082 291.672 167.942 292.393 167.942C293.125 167.942 293.768 168.078 294.322 168.352C294.876 168.625 295.305 169 295.611 169.476C295.92 169.952 296.074 170.495 296.074 171.106C296.074 171.514 295.996 171.915 295.84 172.31C295.683 172.704 295.408 173.141 295.014 173.62C294.623 174.099 294.075 174.68 293.368 175.362L291.488 177.274V177.349H296.239V179H288.76Z" fill="#8F95B2"/>
<path d="M385.05 170.818V172.31H380.214V170.818H385.05ZM381.423 179V170.046C381.423 169.495 381.537 169.037 381.764 168.672C381.995 168.306 382.304 168.032 382.691 167.851C383.078 167.67 383.508 167.58 383.98 167.58C384.314 167.58 384.61 167.606 384.869 167.659C385.129 167.713 385.32 167.761 385.445 167.803L385.061 169.295C384.979 169.27 384.876 169.245 384.752 169.22C384.628 169.192 384.489 169.178 384.337 169.178C383.978 169.178 383.724 169.265 383.575 169.439C383.429 169.609 383.357 169.854 383.357 170.174V179H381.423ZM389.875 179.16C389.055 179.16 388.346 178.989 387.75 178.648C387.157 178.304 386.7 177.817 386.381 177.189C386.061 176.557 385.901 175.813 385.901 174.957C385.901 174.115 386.061 173.377 386.381 172.741C386.704 172.102 387.155 171.605 387.734 171.25C388.313 170.891 388.993 170.712 389.774 170.712C390.278 170.712 390.754 170.793 391.201 170.957C391.652 171.116 392.05 171.365 392.395 171.702C392.743 172.04 393.016 172.469 393.215 172.991C393.414 173.51 393.513 174.128 393.513 174.845V175.436H386.807V174.137H391.665C391.661 173.767 391.581 173.439 391.425 173.151C391.269 172.86 391.051 172.631 390.77 172.464C390.493 172.297 390.17 172.214 389.801 172.214C389.406 172.214 389.06 172.31 388.762 172.501C388.464 172.69 388.231 172.938 388.064 173.247C387.901 173.553 387.817 173.888 387.814 174.254V175.388C387.814 175.864 387.901 176.273 388.075 176.614C388.249 176.951 388.492 177.21 388.804 177.391C389.117 177.569 389.483 177.658 389.902 177.658C390.182 177.658 390.436 177.619 390.663 177.54C390.891 177.459 391.088 177.34 391.255 177.184C391.422 177.027 391.548 176.834 391.633 176.603L393.433 176.805C393.32 177.281 393.103 177.697 392.784 178.052C392.467 178.403 392.063 178.677 391.569 178.872C391.075 179.064 390.511 179.16 389.875 179.16ZM397.499 179.165C396.981 179.165 396.514 179.073 396.098 178.888C395.686 178.7 395.359 178.423 395.118 178.057C394.88 177.691 394.761 177.24 394.761 176.704C394.761 176.243 394.846 175.861 395.017 175.559C395.187 175.257 395.42 175.016 395.715 174.835C396.009 174.653 396.341 174.517 396.711 174.424C397.083 174.328 397.469 174.259 397.867 174.217C398.346 174.167 398.735 174.123 399.033 174.083C399.331 174.041 399.548 173.977 399.683 173.892C399.821 173.803 399.891 173.666 399.891 173.482V173.45C399.891 173.048 399.772 172.738 399.534 172.517C399.296 172.297 398.953 172.187 398.506 172.187C398.033 172.187 397.659 172.29 397.382 172.496C397.108 172.702 396.924 172.945 396.828 173.226L395.027 172.97C395.169 172.473 395.404 172.058 395.731 171.724C396.057 171.386 396.457 171.134 396.929 170.967C397.401 170.797 397.923 170.712 398.495 170.712C398.889 170.712 399.282 170.758 399.672 170.85C400.063 170.942 400.42 171.095 400.743 171.308C401.066 171.518 401.325 171.804 401.521 172.166C401.72 172.528 401.819 172.981 401.819 173.524V179H399.965V177.876H399.901C399.784 178.103 399.619 178.316 399.406 178.515C399.196 178.711 398.932 178.869 398.612 178.989C398.296 179.107 397.925 179.165 397.499 179.165ZM398 177.748C398.387 177.748 398.722 177.672 399.006 177.519C399.291 177.363 399.509 177.157 399.662 176.901C399.818 176.646 399.896 176.367 399.896 176.065V175.101C399.836 175.151 399.733 175.197 399.587 175.239C399.445 175.282 399.285 175.319 399.108 175.351C398.93 175.383 398.754 175.412 398.58 175.436C398.406 175.461 398.255 175.483 398.128 175.5C397.84 175.539 397.582 175.603 397.355 175.692C397.128 175.781 396.949 175.905 396.817 176.065C396.686 176.221 396.62 176.424 396.62 176.672C396.62 177.027 396.75 177.295 397.009 177.477C397.268 177.658 397.598 177.748 398 177.748ZM407.843 170.818V172.31H403.14V170.818H407.843ZM404.301 168.858H406.229V176.539C406.229 176.798 406.269 176.997 406.347 177.136C406.428 177.271 406.535 177.363 406.666 177.413C406.798 177.462 406.943 177.487 407.103 177.487C407.224 177.487 407.334 177.478 407.433 177.461C407.536 177.443 407.614 177.427 407.668 177.413L407.993 178.92C407.89 178.956 407.742 178.995 407.55 179.037C407.362 179.08 407.131 179.105 406.858 179.112C406.375 179.126 405.94 179.053 405.553 178.893C405.166 178.73 404.859 178.478 404.631 178.137C404.408 177.796 404.298 177.37 404.301 176.859V168.858ZM414.671 175.559V170.818H416.599V179H414.73V177.546H414.644C414.46 178.004 414.156 178.379 413.733 178.67C413.314 178.961 412.798 179.107 412.183 179.107C411.647 179.107 411.173 178.988 410.761 178.75C410.353 178.508 410.033 178.158 409.802 177.7C409.572 177.239 409.456 176.681 409.456 176.028V170.818H411.384V175.729C411.384 176.248 411.526 176.66 411.811 176.965C412.095 177.271 412.467 177.423 412.929 177.423C413.213 177.423 413.488 177.354 413.755 177.216C414.021 177.077 414.239 176.871 414.41 176.598C414.584 176.321 414.671 175.974 414.671 175.559ZM418.582 179V170.818H420.452V172.182H420.537C420.686 171.71 420.942 171.346 421.304 171.09C421.67 170.831 422.087 170.701 422.556 170.701C422.662 170.701 422.781 170.706 422.913 170.717C423.048 170.724 423.159 170.737 423.248 170.754V172.528C423.167 172.5 423.037 172.475 422.859 172.453C422.685 172.429 422.517 172.416 422.353 172.416C422.002 172.416 421.686 172.493 421.405 172.645C421.128 172.794 420.91 173.002 420.75 173.268C420.59 173.535 420.51 173.842 420.51 174.19V179H418.582ZM427.815 179.16C426.994 179.16 426.286 178.989 425.689 178.648C425.096 178.304 424.64 177.817 424.32 177.189C424.001 176.557 423.841 175.813 423.841 174.957C423.841 174.115 424.001 173.377 424.32 172.741C424.643 172.102 425.094 171.605 425.673 171.25C426.252 170.891 426.932 170.712 427.713 170.712C428.218 170.712 428.693 170.793 429.141 170.957C429.592 171.116 429.99 171.365 430.334 171.702C430.682 172.04 430.956 172.469 431.154 172.991C431.353 173.51 431.453 174.128 431.453 174.845V175.436H424.746V174.137H429.604C429.601 173.767 429.521 173.439 429.365 173.151C429.208 172.86 428.99 172.631 428.709 172.464C428.432 172.297 428.109 172.214 427.74 172.214C427.346 172.214 427 172.31 426.701 172.501C426.403 172.69 426.17 172.938 426.004 173.247C425.84 173.553 425.757 173.888 425.753 174.254V175.388C425.753 175.864 425.84 176.273 426.014 176.614C426.188 176.951 426.431 177.21 426.744 177.391C427.056 177.569 427.422 177.658 427.841 177.658C428.122 177.658 428.376 177.619 428.603 177.54C428.83 177.459 429.027 177.34 429.194 177.184C429.361 177.027 429.487 176.834 429.572 176.603L431.373 176.805C431.259 177.281 431.043 177.697 430.723 178.052C430.407 178.403 430.002 178.677 429.508 178.872C429.015 179.064 428.45 179.16 427.815 179.16ZM440.699 179.149C439.932 179.149 439.25 179.018 438.653 178.755C438.06 178.492 437.591 178.126 437.247 177.658C436.902 177.189 436.72 176.647 436.698 176.033H438.701C438.719 176.328 438.816 176.585 438.994 176.805C439.172 177.022 439.408 177.191 439.702 177.311C439.997 177.432 440.327 177.493 440.693 177.493C441.084 177.493 441.43 177.425 441.732 177.29C442.034 177.152 442.27 176.96 442.44 176.715C442.611 176.47 442.694 176.187 442.691 175.868C442.694 175.538 442.609 175.246 442.435 174.994C442.261 174.742 442.009 174.545 441.679 174.403C441.352 174.261 440.958 174.19 440.496 174.19H439.532V172.667H440.496C440.876 172.667 441.208 172.601 441.492 172.469C441.78 172.338 442.005 172.153 442.169 171.915C442.332 171.674 442.412 171.395 442.408 171.079C442.412 170.77 442.343 170.502 442.201 170.275C442.062 170.044 441.865 169.865 441.609 169.737C441.357 169.609 441.061 169.545 440.72 169.545C440.386 169.545 440.077 169.605 439.793 169.726C439.509 169.847 439.28 170.019 439.106 170.243C438.932 170.463 438.84 170.726 438.829 171.031H436.927C436.941 170.42 437.117 169.884 437.455 169.423C437.795 168.957 438.25 168.595 438.818 168.336C439.386 168.073 440.024 167.942 440.731 167.942C441.458 167.942 442.091 168.078 442.627 168.352C443.167 168.622 443.584 168.986 443.879 169.444C444.173 169.902 444.321 170.408 444.321 170.962C444.324 171.576 444.143 172.091 443.777 172.507C443.415 172.922 442.939 173.194 442.35 173.322V173.407C443.117 173.513 443.705 173.798 444.113 174.259C444.525 174.717 444.729 175.287 444.726 175.969C444.726 176.58 444.552 177.127 444.204 177.61C443.859 178.089 443.383 178.466 442.776 178.739C442.172 179.012 441.48 179.149 440.699 179.149Z" fill="#8F95B2"/>
<path d="M523.25 128L137.25 128" stroke="#3AB222" stroke-width="2" stroke-linecap="round" stroke-linejoin="round"/>
<path d="M525.477 127.352C525.841 127.71 525.841 128.29 525.477 128.648L522.341 131.732C521.977 132.089 521.387 132.089 521.023 131.732C520.659 131.374 520.659 130.793 521.023 130.435L522.567 128.917V127.083L521.023 125.565C520.659 125.207 520.659 124.626 521.023 124.268C521.387 123.911 521.977 123.911 522.341 124.268L525.477 127.352Z" fill="#3AB222"/>
<path d="M625.241 188.068V176.818H627.137V178.171H627.249C627.348 177.972 627.489 177.761 627.67 177.537C627.851 177.31 628.096 177.116 628.405 176.957C628.714 176.793 629.108 176.712 629.587 176.712C630.219 176.712 630.789 176.873 631.297 177.196C631.809 177.516 632.213 177.99 632.512 178.619C632.814 179.244 632.964 180.011 632.964 180.92C632.964 181.818 632.817 182.582 632.522 183.21C632.228 183.839 631.826 184.318 631.319 184.648C630.811 184.979 630.235 185.144 629.593 185.144C629.124 185.144 628.735 185.066 628.426 184.909C628.117 184.753 627.869 184.565 627.68 184.345C627.496 184.121 627.352 183.91 627.249 183.711H627.169V188.068H625.241ZM627.132 180.909C627.132 181.438 627.206 181.902 627.355 182.299C627.508 182.697 627.727 183.008 628.011 183.232C628.298 183.452 628.646 183.562 629.055 183.562C629.481 183.562 629.838 183.448 630.125 183.221C630.413 182.99 630.63 182.676 630.775 182.278C630.924 181.877 630.999 181.42 630.999 180.909C630.999 180.401 630.926 179.95 630.781 179.556C630.635 179.162 630.418 178.853 630.131 178.629C629.843 178.406 629.484 178.294 629.055 178.294C628.643 178.294 628.293 178.402 628.005 178.619C627.718 178.835 627.499 179.139 627.35 179.529C627.205 179.92 627.132 180.38 627.132 180.909ZM634.616 185V176.818H636.485V178.182H636.571C636.72 177.71 636.975 177.346 637.338 177.09C637.703 176.831 638.121 176.701 638.589 176.701C638.696 176.701 638.815 176.706 638.946 176.717C639.081 176.724 639.193 176.737 639.282 176.754V178.528C639.2 178.5 639.071 178.475 638.893 178.453C638.719 178.429 638.55 178.416 638.387 178.416C638.036 178.416 637.719 178.493 637.439 178.645C637.162 178.794 636.944 179.002 636.784 179.268C636.624 179.535 636.544 179.842 636.544 180.19V185H634.616ZM643.795 185.16C642.996 185.16 642.304 184.984 641.718 184.632C641.132 184.281 640.677 183.789 640.354 183.157C640.034 182.525 639.875 181.786 639.875 180.941C639.875 180.096 640.034 179.355 640.354 178.72C640.677 178.084 641.132 177.591 641.718 177.239C642.304 176.887 642.996 176.712 643.795 176.712C644.594 176.712 645.286 176.887 645.872 177.239C646.458 177.591 646.911 178.084 647.231 178.72C647.554 179.355 647.715 180.096 647.715 180.941C647.715 181.786 647.554 182.525 647.231 183.157C646.911 183.789 646.458 184.281 645.872 184.632C645.286 184.984 644.594 185.16 643.795 185.16ZM643.806 183.615C644.239 183.615 644.601 183.496 644.892 183.258C645.184 183.017 645.4 182.694 645.542 182.289C645.688 181.884 645.761 181.433 645.761 180.936C645.761 180.435 645.688 179.982 645.542 179.577C645.4 179.169 645.184 178.844 644.892 178.603C644.601 178.361 644.239 178.24 643.806 178.24C643.362 178.24 642.992 178.361 642.698 178.603C642.407 178.844 642.188 179.169 642.043 179.577C641.9 179.982 641.829 180.435 641.829 180.936C641.829 181.433 641.9 181.884 642.043 182.289C642.188 182.694 642.407 183.017 642.698 183.258C642.992 183.496 643.362 183.615 643.806 183.615ZM652.388 185.144C651.746 185.144 651.17 184.979 650.662 184.648C650.155 184.318 649.753 183.839 649.459 183.21C649.164 182.582 649.017 181.818 649.017 180.92C649.017 180.011 649.166 179.244 649.464 178.619C649.766 177.99 650.172 177.516 650.684 177.196C651.195 176.873 651.765 176.712 652.394 176.712C652.873 176.712 653.267 176.793 653.576 176.957C653.885 177.116 654.13 177.31 654.311 177.537C654.492 177.761 654.633 177.972 654.732 178.171H654.812V174.091H656.746V185H654.849V183.711H654.732C654.633 183.91 654.489 184.121 654.301 184.345C654.112 184.565 653.864 184.753 653.555 184.909C653.246 185.066 652.857 185.144 652.388 185.144ZM652.926 183.562C653.335 183.562 653.683 183.452 653.97 183.232C654.258 183.008 654.476 182.697 654.626 182.299C654.775 181.902 654.849 181.438 654.849 180.909C654.849 180.38 654.775 179.92 654.626 179.529C654.48 179.139 654.263 178.835 653.976 178.619C653.692 178.402 653.342 178.294 652.926 178.294C652.497 178.294 652.138 178.406 651.85 178.629C651.563 178.853 651.346 179.162 651.2 179.556C651.055 179.95 650.982 180.401 650.982 180.909C650.982 181.42 651.055 181.877 651.2 182.278C651.35 182.676 651.568 182.99 651.856 183.221C652.147 183.448 652.504 183.562 652.926 183.562ZM664.015 181.559V176.818H665.943V185H664.074V183.546H663.989C663.804 184.004 663.5 184.379 663.078 184.67C662.659 184.961 662.142 185.107 661.528 185.107C660.991 185.107 660.517 184.988 660.105 184.75C659.697 184.508 659.377 184.158 659.147 183.7C658.916 183.239 658.8 182.681 658.8 182.028V176.818H660.729V181.729C660.729 182.248 660.871 182.66 661.155 182.965C661.439 183.271 661.812 183.423 662.273 183.423C662.557 183.423 662.833 183.354 663.099 183.216C663.365 183.077 663.584 182.871 663.754 182.598C663.928 182.321 664.015 181.974 664.015 181.559ZM671.495 185.16C670.678 185.16 669.977 184.98 669.391 184.622C668.809 184.263 668.36 183.768 668.044 183.136C667.731 182.5 667.575 181.768 667.575 180.941C667.575 180.11 667.735 179.377 668.054 178.741C668.374 178.102 668.825 177.605 669.407 177.25C669.993 176.891 670.686 176.712 671.485 176.712C672.149 176.712 672.736 176.834 673.248 177.079C673.763 177.321 674.173 177.663 674.478 178.107C674.784 178.548 674.958 179.062 675 179.652H673.157C673.083 179.258 672.905 178.929 672.624 178.667C672.347 178.4 671.976 178.267 671.511 178.267C671.117 178.267 670.771 178.374 670.472 178.587C670.174 178.796 669.942 179.098 669.775 179.492C669.611 179.886 669.53 180.359 669.53 180.909C669.53 181.467 669.611 181.946 669.775 182.347C669.938 182.745 670.167 183.052 670.462 183.269C670.76 183.482 671.11 183.588 671.511 183.588C671.795 183.588 672.049 183.535 672.273 183.429C672.5 183.319 672.69 183.161 672.843 182.955C672.996 182.749 673.1 182.498 673.157 182.203H675C674.954 182.782 674.784 183.295 674.489 183.743C674.194 184.187 673.793 184.535 673.285 184.787C672.777 185.036 672.181 185.16 671.495 185.16ZM680.669 176.818V178.31H675.966V176.818H680.669ZM677.127 174.858H679.055V182.539C679.055 182.798 679.094 182.997 679.172 183.136C679.254 183.271 679.361 183.363 679.492 183.413C679.623 183.462 679.769 183.487 679.929 183.487C680.049 183.487 680.16 183.478 680.259 183.461C680.362 183.443 680.44 183.427 680.493 183.413L680.818 184.92C680.715 184.956 680.568 184.995 680.376 185.037C680.188 185.08 679.957 185.105 679.684 185.112C679.201 185.126 678.766 185.053 678.379 184.893C677.992 184.73 677.684 184.478 677.457 184.137C677.233 183.796 677.123 183.37 677.127 182.859V174.858ZM682.282 185V176.818H684.21V185H682.282ZM683.251 175.657C682.946 175.657 682.683 175.556 682.463 175.353C682.243 175.147 682.133 174.901 682.133 174.613C682.133 174.322 682.243 174.075 682.463 173.873C682.683 173.667 682.946 173.564 683.251 173.564C683.56 173.564 683.823 173.667 684.04 173.873C684.26 174.075 684.37 174.322 684.37 174.613C684.37 174.901 684.26 175.147 684.04 175.353C683.823 175.556 683.56 175.657 683.251 175.657ZM689.762 185.16C688.963 185.16 688.27 184.984 687.684 184.632C687.098 184.281 686.644 183.789 686.321 183.157C686.001 182.525 685.841 181.786 685.841 180.941C685.841 180.096 686.001 179.355 686.321 178.72C686.644 178.084 687.098 177.591 687.684 177.239C688.27 176.887 688.963 176.712 689.762 176.712C690.561 176.712 691.253 176.887 691.839 177.239C692.425 177.591 692.878 178.084 693.198 178.72C693.521 179.355 693.682 180.096 693.682 180.941C693.682 181.786 693.521 182.525 693.198 183.157C692.878 183.789 692.425 184.281 691.839 184.632C691.253 184.984 690.561 185.16 689.762 185.16ZM689.772 183.615C690.206 183.615 690.568 183.496 690.859 183.258C691.15 183.017 691.367 182.694 691.509 182.289C691.655 181.884 691.727 181.433 691.727 180.936C691.727 180.435 691.655 179.982 691.509 179.577C691.367 179.169 691.15 178.844 690.859 178.603C690.568 178.361 690.206 178.24 689.772 178.24C689.329 178.24 688.959 178.361 688.665 178.603C688.373 178.844 688.155 179.169 688.009 179.577C687.867 179.982 687.796 180.435 687.796 180.936C687.796 181.433 687.867 181.884 688.009 182.289C688.155 182.694 688.373 183.017 688.665 183.258C688.959 183.496 689.329 183.615 689.772 183.615ZM697.247 180.206V185H695.319V176.818H697.162V178.208H697.258C697.446 177.75 697.746 177.386 698.158 177.116C698.574 176.847 699.087 176.712 699.697 176.712C700.262 176.712 700.754 176.832 701.173 177.074C701.596 177.315 701.922 177.665 702.153 178.123C702.387 178.581 702.503 179.137 702.499 179.79V185H700.571V180.089C700.571 179.542 700.429 179.114 700.145 178.805C699.864 178.496 699.475 178.342 698.978 178.342C698.641 178.342 698.341 178.416 698.078 178.565C697.819 178.711 697.615 178.922 697.466 179.199C697.32 179.476 697.247 179.812 697.247 180.206Z" fill="#3AB222"/>
<path d="M625 105.75C625 104.093 626.343 102.75 628 102.75H703C704.657 102.75 706 104.093 706 105.75V119.25C706 120.907 704.657 122.25 703 122.25H628C626.343 122.25 625 120.907 625 119.25V105.75Z" fill="white" stroke="#3AB222" stroke-width="1.5"/>
<rect x="632.5" y="110.487" width="21" height="4.39474" rx="0.75" fill="white" stroke="#3AB222" stroke-width="1.5"/>
<rect x="694" y="110.487" width="4.5" height="4.39474" rx="2.19737" fill="#3AB222" stroke="#3AB222" stroke-width="1.5"/>
<path d="M625 125.25C625 123.593 626.343 122.25 628 122.25H703C704.657 122.25 706 123.593 706 125.25V138.75C706 140.407 704.657 141.75 703 141.75H628C626.343 141.75 625 140.407 625 138.75V125.25Z" fill="white" stroke="#3AB222" stroke-width="1.5"/>
<rect x="632.5" y="129.987" width="21" height="4.39474" rx="0.75" fill="white" stroke="#3AB222" stroke-width="1.5"/>
<rect x="694" y="129.987" width="4.5" height="4.39474" rx="2.19737" fill="#3AB222" stroke="#3AB222" stroke-width="1.5"/>
<rect x="685.75" y="129.987" width="4.5" height="4.39474" rx="2.19737" fill="#3AB222" stroke="#3AB222" stroke-width="1.5"/>
<path d="M625 144.75C625 143.093 626.343 141.75 628 141.75H703C704.657 141.75 706 143.093 706 144.75V158.25C706 159.907 704.657 161.25 703 161.25H628C626.343 161.25 625 159.907 625 158.25V144.75Z" fill="white" stroke="#3AB222" stroke-width="1.5"/>
<rect x="632.5" y="149.487" width="21" height="4.39474" rx="0.75" fill="white" stroke="#3AB222" stroke-width="1.5"/>
<rect x="694" y="149.487" width="4.5" height="4.39474" rx="2.19737" fill="#3AB222" stroke="#3AB222" stroke-width="1.5"/>
<g clip-path="url(#clip0_1556_2649)">
<path d="M575.51 142.957C574.921 142.389 574.11 142.414 573.403 142.163C570.535 141.136 568.06 139.49 566.346 136.954C565.503 135.704 564.607 135.309 563.15 135.349C559.385 135.456 559.382 135.384 559.382 131.505C559.382 128.581 559.428 125.657 559.36 122.733C559.332 121.551 559.603 120.883 560.91 121.095C563.689 121.54 565.521 120.498 567.482 118.3C573.71 111.309 584.475 112.121 589.85 119.726C590.607 120.8 591.343 121.148 592.593 121.127C596.628 121.055 596.628 121.105 596.628 125.229C596.628 128.092 596.593 130.959 596.646 133.822C596.668 134.921 596.428 135.575 595.185 135.388C592.357 134.961 590.235 135.679 588.468 138.273C586.568 141.064 583.271 142.012 580.143 142.96H575.507L575.51 142.957ZM586.832 121.928C586.768 120.667 584.41 119.363 583.457 119.916C581.868 120.843 580.432 120.34 580.121 118.526C579.864 117.028 578.953 117.168 577.925 117.147C576.907 117.129 576.139 117.157 575.893 118.505C575.553 120.351 574.093 120.969 572.621 119.848C571.425 118.936 570.921 119.719 570.3 120.405C569.728 121.037 568.689 121.425 569.643 122.707C570.818 124.284 570.171 125.829 568.282 126.113C566.993 126.307 566.935 127.036 566.989 127.988C567.046 128.936 566.639 130.018 568.189 130.327C570.232 130.733 570.818 132.112 569.6 133.815C568.743 135.014 569.639 135.417 570.218 135.981C570.825 136.573 571.232 137.604 572.503 136.649C574.068 135.474 575.553 136.096 575.903 137.985C576.153 139.343 577 139.325 577.989 139.322C578.968 139.318 579.835 139.368 580.093 138.007C580.453 136.099 581.918 135.474 583.478 136.638C584.614 137.482 585.06 136.76 585.65 136.128C586.282 135.453 587.318 135.007 586.31 133.682C585.196 132.216 585.85 130.636 587.618 130.366C589.089 130.14 589.028 129.253 589.028 128.193C589.028 127.119 589.064 126.264 587.56 126.095C585.907 125.908 585.36 124.356 586.214 122.851C586.414 122.499 586.668 122.176 586.828 121.939L586.832 121.928Z" fill="#3AB222"/>
<path d="M553.043 120.01C554.268 119.352 555.589 119.737 556.864 119.665C557.589 119.625 557.732 120.125 557.732 120.721C557.732 125.711 557.732 130.7 557.732 135.69C557.732 136.394 557.446 136.85 556.696 136.821C555.471 136.778 554.218 137.076 553.039 136.502V120.01H553.043Z" fill="#3AB222"/>
<path d="M583 106.025C584.328 108.418 583.721 109.492 580.939 109.506C579.857 109.51 579.221 109.732 579.385 110.972C579.546 112.186 578.71 112.078 577.917 112.103C577.096 112.128 576.485 111.999 576.625 110.975C576.792 109.74 576.16 109.513 575.075 109.51C572.296 109.495 571.689 108.421 573.014 106.029H583V106.025Z" fill="#3AB222"/>
<path d="M602.757 120.003C602.743 125.506 602.728 131.006 602.718 136.509C601.546 137.166 600.285 136.778 599.064 136.785C598.364 136.789 598.278 136.182 598.278 135.611C598.278 130.661 598.278 125.711 598.278 120.76C598.278 120.179 598.382 119.622 599.114 119.672C600.328 119.758 601.6 119.288 602.757 120.003Z" fill="#3AB222"/>
<path d="M578 122.147C581.443 122.147 584.079 124.802 584.068 128.265C584.057 131.645 581.286 134.389 577.925 134.346C574.639 134.303 571.961 131.584 571.946 128.279C571.929 124.816 574.561 122.151 578 122.147ZM579.254 126.752C580.432 127.571 581.496 128.196 579.814 129.292C579.336 129.605 579.339 130.197 579.868 130.47C580.704 130.909 581.171 130.09 581.657 129.669C582.182 129.217 583.336 128.832 582.807 127.934C581.907 126.404 580.414 125.682 578.596 125.883C577.232 126.034 577.636 127.309 577.282 128.092C577.075 128.548 576.975 129.055 576.811 129.587C575.507 128.886 574.586 128.257 576.214 127.054C576.693 126.702 576.6 126.059 576.032 125.933C575.007 125.707 574.521 126.695 573.846 127.219C573.454 127.525 572.782 127.909 573.171 128.498C574.157 129.985 575.582 130.729 577.407 130.582C578.729 130.477 578.368 129.288 578.7 128.559C578.939 128.035 579.046 127.453 579.257 126.752H579.254Z" fill="#3AB222"/>
</g>
<path d="M367.789 370.818V372.31H362.953V370.818H367.789ZM364.162 379V370.046C364.162 369.495 364.275 369.037 364.503 368.672C364.733 368.306 365.042 368.032 365.43 367.851C365.817 367.67 366.246 367.58 366.719 367.58C367.052 367.58 367.349 367.606 367.608 367.659C367.867 367.713 368.059 367.761 368.183 367.803L367.8 369.295C367.718 369.27 367.615 369.245 367.491 369.22C367.367 369.192 367.228 369.178 367.075 369.178C366.717 369.178 366.463 369.265 366.314 369.439C366.168 369.609 366.095 369.854 366.095 370.174V379H364.162ZM372.614 379.16C371.794 379.16 371.085 378.989 370.489 378.648C369.896 378.304 369.439 377.817 369.12 377.189C368.8 376.557 368.64 375.813 368.64 374.957C368.64 374.115 368.8 373.377 369.12 372.741C369.443 372.102 369.894 371.605 370.473 371.25C371.051 370.891 371.731 370.712 372.513 370.712C373.017 370.712 373.493 370.793 373.94 370.957C374.391 371.116 374.789 371.365 375.133 371.702C375.481 372.04 375.755 372.469 375.954 372.991C376.153 373.51 376.252 374.128 376.252 374.845V375.436H369.546V374.137H374.404C374.4 373.767 374.32 373.439 374.164 373.151C374.008 372.86 373.789 372.631 373.509 372.464C373.232 372.297 372.909 372.214 372.539 372.214C372.145 372.214 371.799 372.31 371.501 372.501C371.202 372.69 370.97 372.938 370.803 373.247C370.639 373.553 370.556 373.888 370.552 374.254V375.388C370.552 375.864 370.639 376.273 370.813 376.614C370.987 376.951 371.231 377.21 371.543 377.391C371.856 377.569 372.222 377.658 372.641 377.658C372.921 377.658 373.175 377.619 373.402 377.54C373.63 377.459 373.827 377.34 373.994 377.184C374.16 377.027 374.286 376.834 374.372 376.603L376.172 376.805C376.059 377.281 375.842 377.697 375.522 378.052C375.206 378.403 374.801 378.677 374.308 378.872C373.814 379.064 373.25 379.16 372.614 379.16ZM380.238 379.165C379.719 379.165 379.252 379.073 378.837 378.888C378.425 378.7 378.098 378.423 377.857 378.057C377.619 377.691 377.5 377.24 377.5 376.704C377.5 376.243 377.585 375.861 377.756 375.559C377.926 375.257 378.159 375.016 378.453 374.835C378.748 374.653 379.08 374.517 379.449 374.424C379.822 374.328 380.208 374.259 380.605 374.217C381.085 374.167 381.474 374.123 381.772 374.083C382.07 374.041 382.287 373.977 382.422 373.892C382.56 373.803 382.629 373.666 382.629 373.482V373.45C382.629 373.048 382.51 372.738 382.273 372.517C382.035 372.297 381.692 372.187 381.244 372.187C380.772 372.187 380.398 372.29 380.121 372.496C379.847 372.702 379.662 372.945 379.567 373.226L377.766 372.97C377.908 372.473 378.143 372.058 378.469 371.724C378.796 371.386 379.195 371.134 379.668 370.967C380.14 370.797 380.662 370.712 381.234 370.712C381.628 370.712 382.02 370.758 382.411 370.85C382.802 370.942 383.159 371.095 383.482 371.308C383.805 371.518 384.064 371.804 384.259 372.166C384.458 372.528 384.558 372.981 384.558 373.524V379H382.704V377.876H382.64C382.523 378.103 382.358 378.316 382.145 378.515C381.935 378.711 381.671 378.869 381.351 378.989C381.035 379.107 380.664 379.165 380.238 379.165ZM380.738 377.748C381.126 377.748 381.461 377.672 381.745 377.519C382.029 377.363 382.248 377.157 382.4 376.901C382.557 376.646 382.635 376.367 382.635 376.065V375.101C382.574 375.151 382.471 375.197 382.326 375.239C382.184 375.282 382.024 375.319 381.846 375.351C381.669 375.383 381.493 375.412 381.319 375.436C381.145 375.461 380.994 375.483 380.866 375.5C380.579 375.539 380.321 375.603 380.094 375.692C379.867 375.781 379.687 375.905 379.556 376.065C379.425 376.221 379.359 376.424 379.359 376.672C379.359 377.027 379.488 377.295 379.748 377.477C380.007 377.658 380.337 377.748 380.738 377.748ZM390.582 370.818V372.31H385.879V370.818H390.582ZM387.04 368.858H388.968V376.539C388.968 376.798 389.007 376.997 389.085 377.136C389.167 377.271 389.274 377.363 389.405 377.413C389.536 377.462 389.682 377.487 389.842 377.487C389.963 377.487 390.073 377.478 390.172 377.461C390.275 377.443 390.353 377.427 390.406 377.413L390.731 378.92C390.628 378.956 390.481 378.995 390.289 379.037C390.101 379.08 389.87 379.105 389.597 379.112C389.114 379.126 388.679 379.053 388.292 378.893C387.905 378.73 387.597 378.478 387.37 378.137C387.146 377.796 387.036 377.37 387.04 376.859V368.858ZM397.41 375.559V370.818H399.338V379H397.468V377.546H397.383C397.198 378.004 396.895 378.379 396.472 378.67C396.053 378.961 395.536 379.107 394.922 379.107C394.386 379.107 393.912 378.988 393.5 378.75C393.092 378.508 392.772 378.158 392.541 377.7C392.31 377.239 392.195 376.681 392.195 376.028V370.818H394.123V375.729C394.123 376.248 394.265 376.66 394.549 376.965C394.833 377.271 395.206 377.423 395.668 377.423C395.952 377.423 396.227 377.354 396.494 377.216C396.76 377.077 396.978 376.871 397.149 376.598C397.323 376.321 397.41 375.974 397.41 375.559ZM401.321 379V370.818H403.191V372.182H403.276C403.425 371.71 403.681 371.346 404.043 371.09C404.409 370.831 404.826 370.701 405.295 370.701C405.401 370.701 405.52 370.706 405.651 370.717C405.786 370.724 405.898 370.737 405.987 370.754V372.528C405.905 372.5 405.776 372.475 405.598 372.453C405.424 372.429 405.256 372.416 405.092 372.416C404.741 372.416 404.425 372.493 404.144 372.645C403.867 372.794 403.649 373.002 403.489 373.268C403.329 373.535 403.249 373.842 403.249 374.19V379H401.321ZM410.553 379.16C409.733 379.16 409.025 378.989 408.428 378.648C407.835 378.304 407.379 377.817 407.059 377.189C406.739 376.557 406.58 375.813 406.58 374.957C406.58 374.115 406.739 373.377 407.059 372.741C407.382 372.102 407.833 371.605 408.412 371.25C408.991 370.891 409.671 370.712 410.452 370.712C410.956 370.712 411.432 370.793 411.88 370.957C412.331 371.116 412.728 371.365 413.073 371.702C413.421 372.04 413.694 372.469 413.893 372.991C414.092 373.51 414.191 374.128 414.191 374.845V375.436H407.485V374.137H412.343C412.34 373.767 412.26 373.439 412.103 373.151C411.947 372.86 411.729 372.631 411.448 372.464C411.171 372.297 410.848 372.214 410.479 372.214C410.085 372.214 409.738 372.31 409.44 372.501C409.142 372.69 408.909 372.938 408.742 373.247C408.579 373.553 408.495 373.888 408.492 374.254V375.388C408.492 375.864 408.579 376.273 408.753 376.614C408.927 376.951 409.17 377.21 409.483 377.391C409.795 377.569 410.161 377.658 410.58 377.658C410.861 377.658 411.114 377.619 411.342 377.54C411.569 377.459 411.766 377.34 411.933 377.184C412.1 377.027 412.226 376.834 412.311 376.603L414.112 376.805C413.998 377.281 413.781 377.697 413.462 378.052C413.146 378.403 412.741 378.677 412.247 378.872C411.754 379.064 411.189 379.16 410.553 379.16ZM420.782 373.663V375.25H415.871V373.663H420.782ZM427.226 368.091V379H425.25V370.014H425.186L422.634 371.644V369.833L425.346 368.091H427.226ZM434.976 373.663V375.25H430.065V373.663H434.976ZM440.627 379.16C439.806 379.16 439.098 378.989 438.501 378.648C437.908 378.304 437.452 377.817 437.132 377.189C436.813 376.557 436.653 375.813 436.653 374.957C436.653 374.115 436.813 373.377 437.132 372.741C437.455 372.102 437.906 371.605 438.485 371.25C439.064 370.891 439.744 370.712 440.525 370.712C441.03 370.712 441.506 370.793 441.953 370.957C442.404 371.116 442.802 371.365 443.146 371.702C443.494 372.04 443.768 372.469 443.966 372.991C444.165 373.51 444.265 374.128 444.265 374.845V375.436H437.558V374.137H442.416C442.413 373.767 442.333 373.439 442.177 373.151C442.02 372.86 441.802 372.631 441.521 372.464C441.244 372.297 440.921 372.214 440.552 372.214C440.158 372.214 439.812 372.31 439.513 372.501C439.215 372.69 438.982 372.938 438.816 373.247C438.652 373.553 438.569 373.888 438.565 374.254V375.388C438.565 375.864 438.652 376.273 438.826 376.614C439 376.951 439.243 377.21 439.556 377.391C439.868 377.569 440.234 377.658 440.653 377.658C440.934 377.658 441.188 377.619 441.415 377.54C441.642 377.459 441.839 377.34 442.006 377.184C442.173 377.027 442.299 376.834 442.384 376.603L444.185 376.805C444.071 377.281 443.855 377.697 443.535 378.052C443.219 378.403 442.814 378.677 442.32 378.872C441.827 379.064 441.262 379.16 440.627 379.16ZM447.824 374.206V379H445.896V370.818H447.739V372.208H447.835C448.023 371.75 448.323 371.386 448.735 371.116C449.151 370.847 449.664 370.712 450.275 370.712C450.839 370.712 451.331 370.832 451.75 371.074C452.173 371.315 452.499 371.665 452.73 372.123C452.965 372.581 453.08 373.137 453.076 373.79V379H451.148V374.089C451.148 373.542 451.006 373.114 450.722 372.805C450.441 372.496 450.053 372.342 449.555 372.342C449.218 372.342 448.918 372.416 448.655 372.565C448.396 372.711 448.192 372.922 448.043 373.199C447.897 373.476 447.824 373.812 447.824 374.206ZM462.052 370.818L459.138 379H457.008L454.094 370.818H456.15L458.03 376.896H458.116L460.001 370.818H462.052ZM464.061 379.117C463.738 379.117 463.461 379.004 463.23 378.776C463 378.549 462.886 378.272 462.89 377.945C462.886 377.626 463 377.352 463.23 377.125C463.461 376.898 463.738 376.784 464.061 376.784C464.374 376.784 464.646 376.898 464.876 377.125C465.111 377.352 465.23 377.626 465.233 377.945C465.23 378.162 465.173 378.359 465.063 378.537C464.956 378.714 464.814 378.856 464.637 378.963C464.463 379.066 464.271 379.117 464.061 379.117ZM469.579 379.165C469.06 379.165 468.593 379.073 468.178 378.888C467.766 378.7 467.439 378.423 467.198 378.057C466.96 377.691 466.841 377.24 466.841 376.704C466.841 376.243 466.926 375.861 467.096 375.559C467.267 375.257 467.499 375.016 467.794 374.835C468.089 374.653 468.421 374.517 468.79 374.424C469.163 374.328 469.548 374.259 469.946 374.217C470.426 374.167 470.814 374.123 471.113 374.083C471.411 374.041 471.628 373.977 471.763 373.892C471.901 373.803 471.97 373.666 471.97 373.482V373.45C471.97 373.048 471.851 372.738 471.613 372.517C471.375 372.297 471.033 372.187 470.585 372.187C470.113 372.187 469.738 372.29 469.461 372.496C469.188 372.702 469.003 372.945 468.907 373.226L467.107 372.97C467.249 372.473 467.483 372.058 467.81 371.724C468.137 371.386 468.536 371.134 469.009 370.967C469.481 370.797 470.003 370.712 470.575 370.712C470.969 370.712 471.361 370.758 471.752 370.85C472.142 370.942 472.499 371.095 472.823 371.308C473.146 371.518 473.405 371.804 473.6 372.166C473.799 372.528 473.899 372.981 473.899 373.524V379H472.045V377.876H471.981C471.864 378.103 471.699 378.316 471.486 378.515C471.276 378.711 471.011 378.869 470.692 378.989C470.376 379.107 470.005 379.165 469.579 379.165ZM470.079 377.748C470.466 377.748 470.802 377.672 471.086 377.519C471.37 377.363 471.589 377.157 471.741 376.901C471.897 376.646 471.976 376.367 471.976 376.065V375.101C471.915 375.151 471.812 375.197 471.667 375.239C471.525 375.282 471.365 375.319 471.187 375.351C471.01 375.383 470.834 375.412 470.66 375.436C470.486 375.461 470.335 375.483 470.207 375.5C469.919 375.539 469.662 375.603 469.435 375.692C469.207 375.781 469.028 375.905 468.897 376.065C468.765 376.221 468.7 376.424 468.7 376.672C468.7 377.027 468.829 377.295 469.089 377.477C469.348 377.658 469.678 377.748 470.079 377.748ZM475.837 382.068V370.818H477.734V372.171H477.846C477.945 371.972 478.085 371.761 478.266 371.537C478.448 371.31 478.693 371.116 479.002 370.957C479.31 370.793 479.705 370.712 480.184 370.712C480.816 370.712 481.386 370.873 481.894 371.196C482.405 371.516 482.81 371.99 483.108 372.619C483.41 373.244 483.561 374.011 483.561 374.92C483.561 375.818 483.414 376.582 483.119 377.21C482.824 377.839 482.423 378.318 481.915 378.648C481.407 378.979 480.832 379.144 480.189 379.144C479.721 379.144 479.332 379.066 479.023 378.909C478.714 378.753 478.465 378.565 478.277 378.345C478.092 378.121 477.949 377.91 477.846 377.711H477.766V382.068H475.837ZM477.728 374.909C477.728 375.438 477.803 375.902 477.952 376.299C478.105 376.697 478.323 377.008 478.607 377.232C478.895 377.452 479.243 377.562 479.651 377.562C480.078 377.562 480.434 377.448 480.722 377.221C481.01 376.99 481.226 376.676 481.372 376.278C481.521 375.877 481.596 375.42 481.596 374.909C481.596 374.401 481.523 373.95 481.377 373.556C481.232 373.162 481.015 372.853 480.727 372.629C480.44 372.406 480.081 372.294 479.651 372.294C479.239 372.294 478.89 372.402 478.602 372.619C478.314 372.835 478.096 373.139 477.947 373.529C477.801 373.92 477.728 374.38 477.728 374.909ZM485.212 382.068V370.818H487.109V372.171H487.221C487.32 371.972 487.46 371.761 487.641 371.537C487.823 371.31 488.068 371.116 488.377 370.957C488.685 370.793 489.08 370.712 489.559 370.712C490.191 370.712 490.761 370.873 491.269 371.196C491.78 371.516 492.185 371.99 492.483 372.619C492.785 373.244 492.936 374.011 492.936 374.92C492.936 375.818 492.789 376.582 492.494 377.21C492.199 377.839 491.798 378.318 491.29 378.648C490.782 378.979 490.207 379.144 489.564 379.144C489.096 379.144 488.707 379.066 488.398 378.909C488.089 378.753 487.84 378.565 487.652 378.345C487.467 378.121 487.324 377.91 487.221 377.711H487.141V382.068H485.212ZM487.103 374.909C487.103 375.438 487.178 375.902 487.327 376.299C487.48 376.697 487.698 377.008 487.982 377.232C488.27 377.452 488.618 377.562 489.026 377.562C489.453 377.562 489.809 377.448 490.097 377.221C490.385 376.99 490.601 376.676 490.747 376.278C490.896 375.877 490.971 375.42 490.971 374.909C490.971 374.401 490.898 373.95 490.752 373.556C490.607 373.162 490.39 372.853 490.102 372.629C489.815 372.406 489.456 372.294 489.026 372.294C488.614 372.294 488.265 372.402 487.977 372.619C487.689 372.835 487.471 373.139 487.322 373.529C487.176 373.92 487.103 374.38 487.103 374.909ZM495.775 379.117C495.452 379.117 495.175 379.004 494.944 378.776C494.714 378.549 494.6 378.272 494.603 377.945C494.6 377.626 494.714 377.352 494.944 377.125C495.175 376.898 495.452 376.784 495.775 376.784C496.088 376.784 496.359 376.898 496.59 377.125C496.825 377.352 496.944 377.626 496.947 377.945C496.944 378.162 496.887 378.359 496.777 378.537C496.67 378.714 496.528 378.856 496.351 378.963C496.177 379.066 495.985 379.117 495.775 379.117ZM502.56 379.16C501.74 379.16 501.031 378.989 500.435 378.648C499.842 378.304 499.385 377.817 499.066 377.189C498.746 376.557 498.586 375.813 498.586 374.957C498.586 374.115 498.746 373.377 499.066 372.741C499.389 372.102 499.84 371.605 500.419 371.25C500.998 370.891 501.678 370.712 502.459 370.712C502.963 370.712 503.439 370.793 503.887 370.957C504.338 371.116 504.735 371.365 505.08 371.702C505.428 372.04 505.701 372.469 505.9 372.991C506.099 373.51 506.198 374.128 506.198 374.845V375.436H499.492V374.137H504.35C504.346 373.767 504.267 373.439 504.11 373.151C503.954 372.86 503.736 372.631 503.455 372.464C503.178 372.297 502.855 372.214 502.486 372.214C502.091 372.214 501.745 372.31 501.447 372.501C501.149 372.69 500.916 372.938 500.749 373.247C500.586 373.553 500.502 373.888 500.499 374.254V375.388C500.499 375.864 500.586 376.273 500.76 376.614C500.934 376.951 501.177 377.21 501.49 377.391C501.802 377.569 502.168 377.658 502.587 377.658C502.867 377.658 503.121 377.619 503.349 377.54C503.576 377.459 503.773 377.34 503.94 377.184C504.107 377.027 504.233 376.834 504.318 376.603L506.118 376.805C506.005 377.281 505.788 377.697 505.469 378.052C505.153 378.403 504.748 378.677 504.254 378.872C503.76 379.064 503.196 379.16 502.56 379.16ZM509.231 370.818L510.882 373.838L512.56 370.818H514.6L512.134 374.909L514.642 379H512.613L510.882 376.054L509.167 379H507.121L509.614 374.909L507.185 370.818H509.231ZM518.416 379.165C517.898 379.165 517.431 379.073 517.016 378.888C516.604 378.7 516.277 378.423 516.035 378.057C515.797 377.691 515.679 377.24 515.679 376.704C515.679 376.243 515.764 375.861 515.934 375.559C516.105 375.257 516.337 375.016 516.632 374.835C516.927 374.653 517.259 374.517 517.628 374.424C518.001 374.328 518.386 374.259 518.784 374.217C519.263 374.167 519.652 374.123 519.951 374.083C520.249 374.041 520.465 373.977 520.6 373.892C520.739 373.803 520.808 373.666 520.808 373.482V373.45C520.808 373.048 520.689 372.738 520.451 372.517C520.213 372.297 519.871 372.187 519.423 372.187C518.951 372.187 518.576 372.29 518.299 372.496C518.026 372.702 517.841 372.945 517.745 373.226L515.945 372.97C516.087 372.473 516.321 372.058 516.648 371.724C516.975 371.386 517.374 371.134 517.847 370.967C518.319 370.797 518.841 370.712 519.413 370.712C519.807 370.712 520.199 370.758 520.59 370.85C520.98 370.942 521.337 371.095 521.66 371.308C521.984 371.518 522.243 371.804 522.438 372.166C522.637 372.528 522.736 372.981 522.736 373.524V379H520.883V377.876H520.819C520.702 378.103 520.536 378.316 520.323 378.515C520.114 378.711 519.849 378.869 519.53 378.989C519.214 379.107 518.843 379.165 518.416 379.165ZM518.917 377.748C519.304 377.748 519.64 377.672 519.924 377.519C520.208 377.363 520.426 377.157 520.579 376.901C520.735 376.646 520.813 376.367 520.813 376.065V375.101C520.753 375.151 520.65 375.197 520.505 375.239C520.362 375.282 520.203 375.319 520.025 375.351C519.848 375.383 519.672 375.412 519.498 375.436C519.324 375.461 519.173 375.483 519.045 375.5C518.757 375.539 518.5 375.603 518.273 375.692C518.045 375.781 517.866 375.905 517.735 376.065C517.603 376.221 517.538 376.424 517.538 376.672C517.538 377.027 517.667 377.295 517.926 377.477C518.186 377.658 518.516 377.748 518.917 377.748ZM524.675 379V370.818H526.518V372.208H526.614C526.785 371.74 527.067 371.374 527.461 371.111C527.855 370.845 528.326 370.712 528.873 370.712C529.427 370.712 529.894 370.847 530.274 371.116C530.657 371.383 530.927 371.747 531.083 372.208H531.169C531.35 371.754 531.655 371.392 532.085 371.122C532.518 370.848 533.031 370.712 533.624 370.712C534.377 370.712 534.991 370.95 535.467 371.425C535.943 371.901 536.181 372.596 536.181 373.508V379H534.247V373.806C534.247 373.299 534.112 372.928 533.843 372.693C533.573 372.455 533.242 372.336 532.852 372.336C532.387 372.336 532.023 372.482 531.76 372.773C531.501 373.061 531.371 373.435 531.371 373.897V379H529.48V373.727C529.48 373.304 529.352 372.967 529.097 372.714C528.844 372.462 528.514 372.336 528.106 372.336C527.829 372.336 527.577 372.407 527.349 372.549C527.122 372.688 526.941 372.885 526.806 373.141C526.671 373.393 526.604 373.687 526.604 374.025V379H524.675ZM538.137 382.068V370.818H540.034V372.171H540.145C540.245 371.972 540.385 371.761 540.566 371.537C540.747 371.31 540.992 371.116 541.301 370.957C541.61 370.793 542.004 370.712 542.484 370.712C543.116 370.712 543.686 370.873 544.194 371.196C544.705 371.516 545.11 371.99 545.408 372.619C545.71 373.244 545.861 374.011 545.861 374.92C545.861 375.818 545.714 376.582 545.419 377.21C545.124 377.839 544.723 378.318 544.215 378.648C543.707 378.979 543.132 379.144 542.489 379.144C542.02 379.144 541.632 379.066 541.323 378.909C541.014 378.753 540.765 378.565 540.577 378.345C540.392 378.121 540.248 377.91 540.145 377.711H540.066V382.068H538.137ZM540.028 374.909C540.028 375.438 540.103 375.902 540.252 376.299C540.405 376.697 540.623 377.008 540.907 377.232C541.195 377.452 541.543 377.562 541.951 377.562C542.377 377.562 542.734 377.448 543.022 377.221C543.309 376.99 543.526 376.676 543.672 376.278C543.821 375.877 543.895 375.42 543.895 374.909C543.895 374.401 543.823 373.95 543.677 373.556C543.531 373.162 543.315 372.853 543.027 372.629C542.74 372.406 542.381 372.294 541.951 372.294C541.539 372.294 541.189 372.402 540.902 372.619C540.614 372.835 540.396 373.139 540.247 373.529C540.101 373.92 540.028 374.38 540.028 374.909ZM549.441 368.091V379H547.512V368.091H549.441ZM555.046 379.16C554.225 379.16 553.517 378.989 552.92 378.648C552.327 378.304 551.871 377.817 551.551 377.189C551.232 376.557 551.072 375.813 551.072 374.957C551.072 374.115 551.232 373.377 551.551 372.741C551.874 372.102 552.325 371.605 552.904 371.25C553.483 370.891 554.163 370.712 554.944 370.712C555.449 370.712 555.924 370.793 556.372 370.957C556.823 371.116 557.221 371.365 557.565 371.702C557.913 372.04 558.187 372.469 558.385 372.991C558.584 373.51 558.684 374.128 558.684 374.845V375.436H551.977V374.137H556.835C556.832 373.767 556.752 373.439 556.596 373.151C556.439 372.86 556.221 372.631 555.94 372.464C555.663 372.297 555.34 372.214 554.971 372.214C554.577 372.214 554.231 372.31 553.932 372.501C553.634 372.69 553.401 372.938 553.234 373.247C553.071 373.553 552.988 373.888 552.984 374.254V375.388C552.984 375.864 553.071 376.273 553.245 376.614C553.419 376.951 553.662 377.21 553.975 377.391C554.287 377.569 554.653 377.658 555.072 377.658C555.353 377.658 555.607 377.619 555.834 377.54C556.061 377.459 556.258 377.34 556.425 377.184C556.592 377.027 556.718 376.834 556.803 376.603L558.604 376.805C558.49 377.281 558.274 377.697 557.954 378.052C557.638 378.403 557.233 378.677 556.739 378.872C556.246 379.064 555.681 379.16 555.046 379.16ZM561.503 379.117C561.18 379.117 560.903 379.004 560.672 378.776C560.441 378.549 560.327 378.272 560.331 377.945C560.327 377.626 560.441 377.352 560.672 377.125C560.903 376.898 561.18 376.784 561.503 376.784C561.815 376.784 562.087 376.898 562.318 377.125C562.552 377.352 562.671 377.626 562.675 377.945C562.671 378.162 562.614 378.359 562.504 378.537C562.398 378.714 562.256 378.856 562.078 378.963C561.904 379.066 561.712 379.117 561.503 379.117ZM568.234 379.16C567.418 379.16 566.716 378.98 566.13 378.622C565.548 378.263 565.099 377.768 564.783 377.136C564.47 376.5 564.314 375.768 564.314 374.941C564.314 374.11 564.474 373.377 564.793 372.741C565.113 372.102 565.564 371.605 566.146 371.25C566.732 370.891 567.425 370.712 568.224 370.712C568.888 370.712 569.476 370.834 569.987 371.079C570.502 371.321 570.912 371.663 571.217 372.107C571.523 372.548 571.697 373.062 571.739 373.652H569.896C569.822 373.258 569.644 372.929 569.364 372.667C569.087 372.4 568.716 372.267 568.25 372.267C567.856 372.267 567.51 372.374 567.212 372.587C566.913 372.796 566.681 373.098 566.514 373.492C566.351 373.886 566.269 374.359 566.269 374.909C566.269 375.467 566.351 375.946 566.514 376.347C566.677 376.745 566.906 377.052 567.201 377.269C567.499 377.482 567.849 377.588 568.25 377.588C568.535 377.588 568.788 377.535 569.012 377.429C569.239 377.319 569.429 377.161 569.582 376.955C569.735 376.749 569.84 376.498 569.896 376.203H571.739C571.693 376.782 571.523 377.295 571.228 377.743C570.933 378.187 570.532 378.535 570.024 378.787C569.516 379.036 568.92 379.16 568.234 379.16ZM576.892 379.16C576.093 379.16 575.4 378.984 574.814 378.632C574.228 378.281 573.774 377.789 573.451 377.157C573.131 376.525 572.971 375.786 572.971 374.941C572.971 374.096 573.131 373.355 573.451 372.72C573.774 372.084 574.228 371.591 574.814 371.239C575.4 370.887 576.093 370.712 576.892 370.712C577.691 370.712 578.383 370.887 578.969 371.239C579.555 371.591 580.008 372.084 580.327 372.72C580.651 373.355 580.812 374.096 580.812 374.941C580.812 375.786 580.651 376.525 580.327 377.157C580.008 377.789 579.555 378.281 578.969 378.632C578.383 378.984 577.691 379.16 576.892 379.16ZM576.902 377.615C577.336 377.615 577.698 377.496 577.989 377.258C578.28 377.017 578.497 376.694 578.639 376.289C578.784 375.884 578.857 375.433 578.857 374.936C578.857 374.435 578.784 373.982 578.639 373.577C578.497 373.169 578.28 372.844 577.989 372.603C577.698 372.361 577.336 372.24 576.902 372.24C576.458 372.24 576.089 372.361 575.794 372.603C575.503 372.844 575.285 373.169 575.139 373.577C574.997 373.982 574.926 374.435 574.926 374.936C574.926 375.433 574.997 375.884 575.139 376.289C575.285 376.694 575.503 377.017 575.794 377.258C576.089 377.496 576.458 377.615 576.902 377.615ZM582.449 379V370.818H584.292V372.208H584.388C584.558 371.74 584.84 371.374 585.235 371.111C585.629 370.845 586.099 370.712 586.646 370.712C587.2 370.712 587.667 370.847 588.047 371.116C588.431 371.383 588.701 371.747 588.857 372.208H588.942C589.123 371.754 589.429 371.392 589.858 371.122C590.291 370.848 590.805 370.712 591.398 370.712C592.15 370.712 592.765 370.95 593.241 371.425C593.717 371.901 593.954 372.596 593.954 373.508V379H592.021V373.806C592.021 373.299 591.886 372.928 591.616 372.693C591.346 372.455 591.016 372.336 590.625 372.336C590.16 372.336 589.796 372.482 589.533 372.773C589.274 373.061 589.144 373.435 589.144 373.897V379H587.253V373.727C587.253 373.304 587.126 372.967 586.87 372.714C586.618 372.462 586.288 372.336 585.879 372.336C585.602 372.336 585.35 372.407 585.123 372.549C584.896 372.688 584.714 372.885 584.579 373.141C584.445 373.393 584.377 373.687 584.377 374.025V379H582.449Z" fill="#2C79E3"/>
<path d="M265 345.75C265 344.093 266.343 342.75 268 342.75H343C344.657 342.75 346 344.093 346 345.75V359.25C346 360.907 344.657 362.25 343 362.25H268C266.343 362.25 265 360.907 265 359.25V345.75Z" fill="white" stroke="#2C79E3" stroke-width="1.5"/>
<rect x="272.5" y="350.487" width="21" height="4.39474" rx="0.75" fill="white" stroke="#2C79E3" stroke-width="1.5"/>
<rect x="334" y="350.487" width="4.5" height="4.39474" rx="2.19737" fill="#2C79E3" stroke="#2C79E3" stroke-width="1.5"/>
<path d="M265 365.25C265 363.593 266.343 362.25 268 362.25H343C344.657 362.25 346 363.593 346 365.25V378.75C346 380.407 344.657 381.75 343 381.75H268C266.343 381.75 265 380.407 265 378.75V365.25Z" fill="white" stroke="#2C79E3" stroke-width="1.5"/>
<rect x="272.5" y="369.987" width="21" height="4.39474" rx="0.75" fill="white" stroke="#2C79E3" stroke-width="1.5"/>
<rect x="334" y="369.987" width="4.5" height="4.39474" rx="2.19737" fill="#2C79E3" stroke="#2C79E3" stroke-width="1.5"/>
<rect x="325.75" y="369.987" width="4.5" height="4.39474" rx="2.19737" fill="#2C79E3" stroke="#2C79E3" stroke-width="1.5"/>
<path d="M265 384.75C265 383.093 266.343 381.75 268 381.75H343C344.657 381.75 346 383.093 346 384.75V398.25C346 399.907 344.657 401.25 343 401.25H268C266.343 401.25 265 399.907 265 398.25V384.75Z" fill="white" stroke="#2C79E3" stroke-width="1.5"/>
<rect x="272.5" y="389.487" width="21" height="4.39474" rx="0.75" fill="white" stroke="#2C79E3" stroke-width="1.5"/>
<rect x="334" y="389.487" width="4.5" height="4.39474" rx="2.19737" fill="#2C79E3" stroke="#2C79E3" stroke-width="1.5"/>
<path d="M470.539 245.318V246.81H465.703V245.318H470.539ZM466.912 253.5V244.546C466.912 243.995 467.025 243.537 467.253 243.172C467.483 242.806 467.792 242.532 468.18 242.351C468.567 242.17 468.996 242.08 469.469 242.08C469.802 242.08 470.099 242.106 470.358 242.159C470.617 242.213 470.809 242.261 470.933 242.303L470.55 243.795C470.468 243.77 470.365 243.745 470.241 243.72C470.117 243.692 469.978 243.678 469.825 243.678C469.467 243.678 469.213 243.765 469.064 243.939C468.918 244.109 468.845 244.354 468.845 244.674V253.5H466.912ZM475.364 253.66C474.544 253.66 473.835 253.489 473.239 253.148C472.646 252.804 472.189 252.317 471.87 251.689C471.55 251.057 471.39 250.313 471.39 249.457C471.39 248.615 471.55 247.877 471.87 247.241C472.193 246.602 472.644 246.105 473.223 245.75C473.801 245.391 474.481 245.212 475.263 245.212C475.767 245.212 476.243 245.293 476.69 245.457C477.141 245.616 477.539 245.865 477.883 246.202C478.231 246.54 478.505 246.969 478.704 247.491C478.903 248.01 479.002 248.628 479.002 249.345V249.936H472.296V248.637H477.154C477.15 248.267 477.07 247.939 476.914 247.651C476.758 247.36 476.539 247.131 476.259 246.964C475.982 246.797 475.659 246.714 475.289 246.714C474.895 246.714 474.549 246.81 474.251 247.001C473.952 247.19 473.72 247.438 473.553 247.747C473.389 248.053 473.306 248.388 473.302 248.754V249.888C473.302 250.364 473.389 250.773 473.563 251.114C473.737 251.451 473.981 251.71 474.293 251.891C474.606 252.069 474.972 252.158 475.391 252.158C475.671 252.158 475.925 252.119 476.152 252.04C476.38 251.959 476.577 251.84 476.744 251.684C476.91 251.527 477.036 251.334 477.122 251.103L478.922 251.305C478.809 251.781 478.592 252.197 478.272 252.552C477.956 252.903 477.551 253.177 477.058 253.372C476.564 253.564 476 253.66 475.364 253.66ZM482.988 253.665C482.469 253.665 482.002 253.573 481.587 253.388C481.175 253.2 480.848 252.923 480.607 252.557C480.369 252.191 480.25 251.74 480.25 251.204C480.25 250.743 480.335 250.361 480.506 250.059C480.676 249.757 480.909 249.516 481.203 249.335C481.498 249.153 481.83 249.017 482.199 248.924C482.572 248.828 482.958 248.759 483.355 248.717C483.835 248.667 484.224 248.623 484.522 248.583C484.82 248.541 485.037 248.477 485.172 248.392C485.31 248.303 485.379 248.166 485.379 247.982V247.95C485.379 247.548 485.26 247.238 485.023 247.017C484.785 246.797 484.442 246.687 483.994 246.687C483.522 246.687 483.148 246.79 482.871 246.996C482.597 247.202 482.412 247.445 482.317 247.726L480.516 247.47C480.658 246.973 480.893 246.558 481.219 246.224C481.546 245.886 481.945 245.634 482.418 245.467C482.89 245.297 483.412 245.212 483.984 245.212C484.378 245.212 484.77 245.258 485.161 245.35C485.552 245.442 485.909 245.595 486.232 245.808C486.555 246.018 486.814 246.304 487.009 246.666C487.208 247.028 487.308 247.481 487.308 248.024V253.5H485.454V252.376H485.39C485.273 252.603 485.108 252.816 484.895 253.015C484.685 253.211 484.421 253.369 484.101 253.489C483.785 253.607 483.414 253.665 482.988 253.665ZM483.488 252.248C483.876 252.248 484.211 252.172 484.495 252.019C484.779 251.863 484.998 251.657 485.15 251.401C485.307 251.146 485.385 250.867 485.385 250.565V249.601C485.324 249.651 485.221 249.697 485.076 249.739C484.934 249.782 484.774 249.819 484.596 249.851C484.419 249.883 484.243 249.912 484.069 249.936C483.895 249.961 483.744 249.983 483.616 250C483.329 250.039 483.071 250.103 482.844 250.192C482.617 250.281 482.437 250.405 482.306 250.565C482.175 250.721 482.109 250.924 482.109 251.172C482.109 251.527 482.238 251.795 482.498 251.977C482.757 252.158 483.087 252.248 483.488 252.248ZM493.332 245.318V246.81H488.629V245.318H493.332ZM489.79 243.358H491.718V251.039C491.718 251.298 491.757 251.497 491.835 251.636C491.917 251.771 492.024 251.863 492.155 251.913C492.286 251.962 492.432 251.987 492.592 251.987C492.713 251.987 492.823 251.978 492.922 251.961C493.025 251.943 493.103 251.927 493.156 251.913L493.481 253.42C493.378 253.456 493.231 253.495 493.039 253.537C492.851 253.58 492.62 253.605 492.347 253.612C491.864 253.626 491.429 253.553 491.042 253.393C490.655 253.23 490.347 252.978 490.12 252.637C489.896 252.296 489.786 251.87 489.79 251.359V243.358ZM500.16 250.059V245.318H502.088V253.5H500.218V252.046H500.133C499.948 252.504 499.645 252.879 499.222 253.17C498.803 253.461 498.286 253.607 497.672 253.607C497.136 253.607 496.662 253.488 496.25 253.25C495.842 253.008 495.522 252.658 495.291 252.2C495.06 251.739 494.945 251.181 494.945 250.528V245.318H496.873V250.229C496.873 250.748 497.015 251.16 497.299 251.465C497.583 251.771 497.956 251.923 498.418 251.923C498.702 251.923 498.977 251.854 499.244 251.716C499.51 251.577 499.728 251.371 499.899 251.098C500.073 250.821 500.16 250.474 500.16 250.059ZM504.071 253.5V245.318H505.941V246.682H506.026C506.175 246.21 506.431 245.846 506.793 245.59C507.159 245.331 507.576 245.201 508.045 245.201C508.151 245.201 508.27 245.206 508.401 245.217C508.536 245.224 508.648 245.237 508.737 245.254V247.028C508.655 247 508.526 246.975 508.348 246.953C508.174 246.929 508.006 246.916 507.842 246.916C507.491 246.916 507.175 246.993 506.894 247.145C506.617 247.294 506.399 247.502 506.239 247.768C506.079 248.035 505.999 248.342 505.999 248.69V253.5H504.071ZM513.303 253.66C512.483 253.66 511.775 253.489 511.178 253.148C510.585 252.804 510.129 252.317 509.809 251.689C509.489 251.057 509.33 250.313 509.33 249.457C509.33 248.615 509.489 247.877 509.809 247.241C510.132 246.602 510.583 246.105 511.162 245.75C511.741 245.391 512.421 245.212 513.202 245.212C513.706 245.212 514.182 245.293 514.63 245.457C515.081 245.616 515.478 245.865 515.823 246.202C516.171 246.54 516.444 246.969 516.643 247.491C516.842 248.01 516.941 248.628 516.941 249.345V249.936H510.235V248.637H515.093C515.09 248.267 515.01 247.939 514.853 247.651C514.697 247.36 514.479 247.131 514.198 246.964C513.921 246.797 513.598 246.714 513.229 246.714C512.835 246.714 512.488 246.81 512.19 247.001C511.892 247.19 511.659 247.438 511.492 247.747C511.329 248.053 511.245 248.388 511.242 248.754V249.888C511.242 250.364 511.329 250.773 511.503 251.114C511.677 251.451 511.92 251.71 512.233 251.891C512.545 252.069 512.911 252.158 513.33 252.158C513.611 252.158 513.864 252.119 514.092 252.04C514.319 251.959 514.516 251.84 514.683 251.684C514.85 251.527 514.976 251.334 515.061 251.103L516.862 251.305C516.748 251.781 516.531 252.197 516.212 252.552C515.896 252.903 515.491 253.177 514.997 253.372C514.504 253.564 513.939 253.66 513.303 253.66ZM523.532 248.163V249.75H518.621V248.163H523.532ZM529.351 253.649C528.584 253.649 527.903 253.518 527.306 253.255C526.713 252.992 526.244 252.626 525.9 252.158C525.555 251.689 525.372 251.147 525.351 250.533H527.354C527.372 250.828 527.469 251.085 527.647 251.305C527.824 251.522 528.061 251.691 528.355 251.811C528.65 251.932 528.98 251.993 529.346 251.993C529.737 251.993 530.083 251.925 530.385 251.79C530.687 251.652 530.923 251.46 531.093 251.215C531.264 250.97 531.347 250.687 531.344 250.368C531.347 250.038 531.262 249.746 531.088 249.494C530.914 249.242 530.662 249.045 530.331 248.903C530.005 248.761 529.611 248.69 529.149 248.69H528.185V247.167H529.149C529.529 247.167 529.861 247.101 530.145 246.969C530.433 246.838 530.658 246.653 530.822 246.415C530.985 246.174 531.065 245.895 531.061 245.579C531.065 245.27 530.996 245.002 530.854 244.775C530.715 244.544 530.518 244.365 530.262 244.237C530.01 244.109 529.714 244.045 529.373 244.045C529.039 244.045 528.73 244.105 528.446 244.226C528.162 244.347 527.933 244.519 527.759 244.743C527.585 244.963 527.492 245.226 527.482 245.531H525.58C525.594 244.92 525.77 244.384 526.107 243.923C526.448 243.457 526.903 243.095 527.471 242.836C528.039 242.573 528.677 242.442 529.383 242.442C530.111 242.442 530.743 242.578 531.28 242.852C531.819 243.122 532.237 243.486 532.531 243.944C532.826 244.402 532.974 244.908 532.974 245.462C532.977 246.076 532.796 246.591 532.43 247.007C532.068 247.422 531.592 247.694 531.003 247.822V247.907C531.77 248.013 532.357 248.298 532.766 248.759C533.178 249.217 533.382 249.787 533.378 250.469C533.378 251.08 533.204 251.627 532.856 252.11C532.512 252.589 532.036 252.966 531.429 253.239C530.825 253.512 530.133 253.649 529.351 253.649ZM540.187 248.163V249.75H535.276V248.163H540.187ZM545.838 253.66C545.017 253.66 544.309 253.489 543.712 253.148C543.119 252.804 542.663 252.317 542.343 251.689C542.024 251.057 541.864 250.313 541.864 249.457C541.864 248.615 542.024 247.877 542.343 247.241C542.666 246.602 543.117 246.105 543.696 245.75C544.275 245.391 544.955 245.212 545.736 245.212C546.241 245.212 546.716 245.293 547.164 245.457C547.615 245.616 548.013 245.865 548.357 246.202C548.705 246.54 548.979 246.969 549.177 247.491C549.376 248.01 549.476 248.628 549.476 249.345V249.936H542.769V248.637H547.627C547.624 248.267 547.544 247.939 547.388 247.651C547.231 247.36 547.013 247.131 546.732 246.964C546.455 246.797 546.132 246.714 545.763 246.714C545.369 246.714 545.023 246.81 544.724 247.001C544.426 247.19 544.193 247.438 544.026 247.747C543.863 248.053 543.78 248.388 543.776 248.754V249.888C543.776 250.364 543.863 250.773 544.037 251.114C544.211 251.451 544.454 251.71 544.767 251.891C545.079 252.069 545.445 252.158 545.864 252.158C546.145 252.158 546.399 252.119 546.626 252.04C546.853 251.959 547.05 251.84 547.217 251.684C547.384 251.527 547.51 251.334 547.595 251.103L549.396 251.305C549.282 251.781 549.066 252.197 548.746 252.552C548.43 252.903 548.025 253.177 547.531 253.372C547.038 253.564 546.473 253.66 545.838 253.66ZM553.035 248.706V253.5H551.107V245.318H552.95V246.708H553.046C553.234 246.25 553.534 245.886 553.946 245.616C554.362 245.347 554.875 245.212 555.486 245.212C556.05 245.212 556.542 245.332 556.961 245.574C557.384 245.815 557.71 246.165 557.941 246.623C558.176 247.081 558.291 247.637 558.287 248.29V253.5H556.359V248.589C556.359 248.042 556.217 247.614 555.933 247.305C555.652 246.996 555.264 246.842 554.766 246.842C554.429 246.842 554.129 246.916 553.866 247.065C553.607 247.211 553.403 247.422 553.254 247.699C553.108 247.976 553.035 248.312 553.035 248.706ZM567.263 245.318L564.349 253.5H562.218L559.305 245.318H561.361L563.241 251.396H563.326L565.212 245.318H567.263ZM569.272 253.617C568.949 253.617 568.672 253.504 568.441 253.276C568.211 253.049 568.097 252.772 568.1 252.445C568.097 252.126 568.211 251.852 568.441 251.625C568.672 251.398 568.949 251.284 569.272 251.284C569.585 251.284 569.857 251.398 570.087 251.625C570.322 251.852 570.441 252.126 570.444 252.445C570.441 252.662 570.384 252.859 570.274 253.037C570.167 253.214 570.025 253.356 569.848 253.463C569.674 253.566 569.482 253.617 569.272 253.617ZM574.79 253.665C574.271 253.665 573.804 253.573 573.389 253.388C572.977 253.2 572.65 252.923 572.408 252.557C572.171 252.191 572.052 251.74 572.052 251.204C572.052 250.743 572.137 250.361 572.307 250.059C572.478 249.757 572.71 249.516 573.005 249.335C573.3 249.153 573.632 249.017 574.001 248.924C574.374 248.828 574.759 248.759 575.157 248.717C575.636 248.667 576.025 248.623 576.324 248.583C576.622 248.541 576.839 248.477 576.973 248.392C577.112 248.303 577.181 248.166 577.181 247.982V247.95C577.181 247.548 577.062 247.238 576.824 247.017C576.586 246.797 576.244 246.687 575.796 246.687C575.324 246.687 574.949 246.79 574.672 246.996C574.399 247.202 574.214 247.445 574.118 247.726L572.318 247.47C572.46 246.973 572.694 246.558 573.021 246.224C573.348 245.886 573.747 245.634 574.22 245.467C574.692 245.297 575.214 245.212 575.786 245.212C576.18 245.212 576.572 245.258 576.963 245.35C577.353 245.442 577.71 245.595 578.033 245.808C578.357 246.018 578.616 246.304 578.811 246.666C579.01 247.028 579.109 247.481 579.109 248.024V253.5H577.256V252.376H577.192C577.075 252.603 576.91 252.816 576.696 253.015C576.487 253.211 576.222 253.369 575.903 253.489C575.587 253.607 575.216 253.665 574.79 253.665ZM575.29 252.248C575.677 252.248 576.013 252.172 576.297 252.019C576.581 251.863 576.799 251.657 576.952 251.401C577.108 251.146 577.187 250.867 577.187 250.565V249.601C577.126 249.651 577.023 249.697 576.878 249.739C576.736 249.782 576.576 249.819 576.398 249.851C576.221 249.883 576.045 249.912 575.871 249.936C575.697 249.961 575.546 249.983 575.418 250C575.13 250.039 574.873 250.103 574.646 250.192C574.418 250.281 574.239 250.405 574.108 250.565C573.976 250.721 573.911 250.924 573.911 251.172C573.911 251.527 574.04 251.795 574.299 251.977C574.559 252.158 574.889 252.248 575.29 252.248ZM581.048 256.568V245.318H582.945V246.671H583.057C583.156 246.472 583.296 246.261 583.477 246.037C583.658 245.81 583.903 245.616 584.212 245.457C584.521 245.293 584.916 245.212 585.395 245.212C586.027 245.212 586.597 245.373 587.105 245.696C587.616 246.016 588.021 246.49 588.319 247.119C588.621 247.744 588.772 248.511 588.772 249.42C588.772 250.318 588.625 251.082 588.33 251.71C588.035 252.339 587.634 252.818 587.126 253.148C586.618 253.479 586.043 253.644 585.4 253.644C584.932 253.644 584.543 253.566 584.234 253.409C583.925 253.253 583.676 253.065 583.488 252.845C583.303 252.621 583.16 252.41 583.057 252.211H582.977V256.568H581.048ZM582.939 249.409C582.939 249.938 583.014 250.402 583.163 250.799C583.316 251.197 583.534 251.508 583.818 251.732C584.106 251.952 584.454 252.062 584.862 252.062C585.288 252.062 585.645 251.948 585.933 251.721C586.221 251.49 586.437 251.176 586.583 250.778C586.732 250.377 586.807 249.92 586.807 249.409C586.807 248.901 586.734 248.45 586.588 248.056C586.443 247.662 586.226 247.353 585.938 247.129C585.651 246.906 585.292 246.794 584.862 246.794C584.45 246.794 584.101 246.902 583.813 247.119C583.525 247.335 583.307 247.639 583.158 248.029C583.012 248.42 582.939 248.88 582.939 249.409ZM590.423 256.568V245.318H592.32V246.671H592.432C592.531 246.472 592.671 246.261 592.852 246.037C593.033 245.81 593.278 245.616 593.587 245.457C593.896 245.293 594.291 245.212 594.77 245.212C595.402 245.212 595.972 245.373 596.48 245.696C596.991 246.016 597.396 246.49 597.694 247.119C597.996 247.744 598.147 248.511 598.147 249.42C598.147 250.318 598 251.082 597.705 251.71C597.41 252.339 597.009 252.818 596.501 253.148C595.993 253.479 595.418 253.644 594.775 253.644C594.307 253.644 593.918 253.566 593.609 253.409C593.3 253.253 593.051 253.065 592.863 252.845C592.678 252.621 592.535 252.41 592.432 252.211H592.352V256.568H590.423ZM592.314 249.409C592.314 249.938 592.389 250.402 592.538 250.799C592.691 251.197 592.909 251.508 593.193 251.732C593.481 251.952 593.829 252.062 594.237 252.062C594.663 252.062 595.02 251.948 595.308 251.721C595.596 251.49 595.812 251.176 595.958 250.778C596.107 250.377 596.182 249.92 596.182 249.409C596.182 248.901 596.109 248.45 595.963 248.056C595.818 247.662 595.601 247.353 595.313 247.129C595.026 246.906 594.667 246.794 594.237 246.794C593.825 246.794 593.476 246.902 593.188 247.119C592.9 247.335 592.682 247.639 592.533 248.029C592.387 248.42 592.314 248.88 592.314 249.409ZM600.986 253.617C600.663 253.617 600.386 253.504 600.155 253.276C599.924 253.049 599.811 252.772 599.814 252.445C599.811 252.126 599.924 251.852 600.155 251.625C600.386 251.398 600.663 251.284 600.986 251.284C601.299 251.284 601.57 251.398 601.801 251.625C602.036 251.852 602.155 252.126 602.158 252.445C602.155 252.662 602.098 252.859 601.988 253.037C601.881 253.214 601.739 253.356 601.562 253.463C601.388 253.566 601.196 253.617 600.986 253.617ZM607.771 253.66C606.951 253.66 606.242 253.489 605.646 253.148C605.053 252.804 604.596 252.317 604.277 251.689C603.957 251.057 603.797 250.313 603.797 249.457C603.797 248.615 603.957 247.877 604.277 247.241C604.6 246.602 605.051 246.105 605.63 245.75C606.209 245.391 606.889 245.212 607.67 245.212C608.174 245.212 608.65 245.293 609.097 245.457C609.548 245.616 609.946 245.865 610.291 246.202C610.639 246.54 610.912 246.969 611.111 247.491C611.31 248.01 611.409 248.628 611.409 249.345V249.936H604.703V248.637H609.561C609.557 248.267 609.477 247.939 609.321 247.651C609.165 247.36 608.947 247.131 608.666 246.964C608.389 246.797 608.066 246.714 607.697 246.714C607.302 246.714 606.956 246.81 606.658 247.001C606.36 247.19 606.127 247.438 605.96 247.747C605.797 248.053 605.713 248.388 605.71 248.754V249.888C605.71 250.364 605.797 250.773 605.971 251.114C606.145 251.451 606.388 251.71 606.7 251.891C607.013 252.069 607.379 252.158 607.798 252.158C608.078 252.158 608.332 252.119 608.559 252.04C608.787 251.959 608.984 251.84 609.151 251.684C609.318 251.527 609.444 251.334 609.529 251.103L611.329 251.305C611.216 251.781 610.999 252.197 610.68 252.552C610.363 252.903 609.959 253.177 609.465 253.372C608.971 253.564 608.407 253.66 607.771 253.66ZM614.441 245.318L616.093 248.338L617.771 245.318H619.811L617.345 249.409L619.853 253.5H617.824L616.093 250.554L614.378 253.5H612.332L614.825 249.409L612.396 245.318H614.441ZM623.627 253.665C623.109 253.665 622.642 253.573 622.226 253.388C621.815 253.2 621.488 252.923 621.246 252.557C621.008 252.191 620.889 251.74 620.889 251.204C620.889 250.743 620.975 250.361 621.145 250.059C621.316 249.757 621.548 249.516 621.843 249.335C622.138 249.153 622.47 249.017 622.839 248.924C623.212 248.828 623.597 248.759 623.995 248.717C624.474 248.667 624.863 248.623 625.161 248.583C625.46 248.541 625.676 248.477 625.811 248.392C625.95 248.303 626.019 248.166 626.019 247.982V247.95C626.019 247.548 625.9 247.238 625.662 247.017C625.424 246.797 625.082 246.687 624.634 246.687C624.162 246.687 623.787 246.79 623.51 246.996C623.237 247.202 623.052 247.445 622.956 247.726L621.156 247.47C621.298 246.973 621.532 246.558 621.859 246.224C622.186 245.886 622.585 245.634 623.057 245.467C623.53 245.297 624.052 245.212 624.623 245.212C625.018 245.212 625.41 245.258 625.801 245.35C626.191 245.442 626.548 245.595 626.871 245.808C627.195 246.018 627.454 246.304 627.649 246.666C627.848 247.028 627.947 247.481 627.947 248.024V253.5H626.094V252.376H626.03C625.913 252.603 625.747 252.816 625.534 253.015C625.325 253.211 625.06 253.369 624.741 253.489C624.425 253.607 624.054 253.665 623.627 253.665ZM624.128 252.248C624.515 252.248 624.851 252.172 625.135 252.019C625.419 251.863 625.637 251.657 625.79 251.401C625.946 251.146 626.024 250.867 626.024 250.565V249.601C625.964 249.651 625.861 249.697 625.715 249.739C625.573 249.782 625.414 249.819 625.236 249.851C625.059 249.883 624.883 249.912 624.709 249.936C624.535 249.961 624.384 249.983 624.256 250C623.968 250.039 623.711 250.103 623.484 250.192C623.256 250.281 623.077 250.405 622.946 250.565C622.814 250.721 622.748 250.924 622.748 251.172C622.748 251.527 622.878 251.795 623.137 251.977C623.397 252.158 623.727 252.248 624.128 252.248ZM629.886 253.5V245.318H631.729V246.708H631.825C631.996 246.24 632.278 245.874 632.672 245.611C633.066 245.345 633.537 245.212 634.084 245.212C634.638 245.212 635.105 245.347 635.485 245.616C635.868 245.883 636.138 246.247 636.294 246.708H636.38C636.561 246.254 636.866 245.892 637.296 245.622C637.729 245.348 638.242 245.212 638.835 245.212C639.588 245.212 640.202 245.45 640.678 245.925C641.154 246.401 641.392 247.096 641.392 248.008V253.5H639.458V248.306C639.458 247.799 639.323 247.428 639.054 247.193C638.784 246.955 638.453 246.836 638.063 246.836C637.598 246.836 637.234 246.982 636.971 247.273C636.712 247.561 636.582 247.935 636.582 248.397V253.5H634.691V248.227C634.691 247.804 634.563 247.467 634.307 247.214C634.055 246.962 633.725 246.836 633.317 246.836C633.04 246.836 632.788 246.907 632.56 247.049C632.333 247.188 632.152 247.385 632.017 247.641C631.882 247.893 631.815 248.187 631.815 248.525V253.5H629.886ZM643.348 256.568V245.318H645.244V246.671H645.356C645.456 246.472 645.596 246.261 645.777 246.037C645.958 245.81 646.203 245.616 646.512 245.457C646.821 245.293 647.215 245.212 647.695 245.212C648.327 245.212 648.897 245.373 649.405 245.696C649.916 246.016 650.321 246.49 650.619 247.119C650.921 247.744 651.072 248.511 651.072 249.42C651.072 250.318 650.925 251.082 650.63 251.71C650.335 252.339 649.934 252.818 649.426 253.148C648.918 253.479 648.343 253.644 647.7 253.644C647.231 253.644 646.843 253.566 646.534 253.409C646.225 253.253 645.976 253.065 645.788 252.845C645.603 252.621 645.459 252.41 645.356 252.211H645.276V256.568H643.348ZM645.239 249.409C645.239 249.938 645.314 250.402 645.463 250.799C645.616 251.197 645.834 251.508 646.118 251.732C646.406 251.952 646.754 252.062 647.162 252.062C647.588 252.062 647.945 251.948 648.233 251.721C648.52 251.49 648.737 251.176 648.883 250.778C649.032 250.377 649.106 249.92 649.106 249.409C649.106 248.901 649.034 248.45 648.888 248.056C648.742 247.662 648.526 247.353 648.238 247.129C647.95 246.906 647.592 246.794 647.162 246.794C646.75 246.794 646.4 246.902 646.113 247.119C645.825 247.335 645.607 247.639 645.458 248.029C645.312 248.42 645.239 248.88 645.239 249.409ZM654.651 242.591V253.5H652.723V242.591H654.651ZM660.256 253.66C659.436 253.66 658.728 253.489 658.131 253.148C657.538 252.804 657.082 252.317 656.762 251.689C656.443 251.057 656.283 250.313 656.283 249.457C656.283 248.615 656.443 247.877 656.762 247.241C657.085 246.602 657.536 246.105 658.115 245.75C658.694 245.391 659.374 245.212 660.155 245.212C660.66 245.212 661.135 245.293 661.583 245.457C662.034 245.616 662.432 245.865 662.776 246.202C663.124 246.54 663.397 246.969 663.596 247.491C663.795 248.01 663.895 248.628 663.895 249.345V249.936H657.188V248.637H662.046C662.043 248.267 661.963 247.939 661.807 247.651C661.65 247.36 661.432 247.131 661.151 246.964C660.874 246.797 660.551 246.714 660.182 246.714C659.788 246.714 659.441 246.81 659.143 247.001C658.845 247.19 658.612 247.438 658.445 247.747C658.282 248.053 658.199 248.388 658.195 248.754V249.888C658.195 250.364 658.282 250.773 658.456 251.114C658.63 251.451 658.873 251.71 659.186 251.891C659.498 252.069 659.864 252.158 660.283 252.158C660.564 252.158 660.818 252.119 661.045 252.04C661.272 251.959 661.469 251.84 661.636 251.684C661.803 251.527 661.929 251.334 662.014 251.103L663.815 251.305C663.701 251.781 663.484 252.197 663.165 252.552C662.849 252.903 662.444 253.177 661.95 253.372C661.457 253.564 660.892 253.66 660.256 253.66ZM666.714 253.617C666.391 253.617 666.114 253.504 665.883 253.276C665.652 253.049 665.538 252.772 665.542 252.445C665.538 252.126 665.652 251.852 665.883 251.625C666.114 251.398 666.391 251.284 666.714 251.284C667.026 251.284 667.298 251.398 667.529 251.625C667.763 251.852 667.882 252.126 667.886 252.445C667.882 252.662 667.825 252.859 667.715 253.037C667.609 253.214 667.467 253.356 667.289 253.463C667.115 253.566 666.923 253.617 666.714 253.617ZM673.445 253.66C672.629 253.66 671.927 253.48 671.341 253.122C670.759 252.763 670.31 252.268 669.994 251.636C669.681 251 669.525 250.268 669.525 249.441C669.525 248.61 669.685 247.877 670.004 247.241C670.324 246.602 670.775 246.105 671.357 245.75C671.943 245.391 672.636 245.212 673.435 245.212C674.099 245.212 674.687 245.334 675.198 245.579C675.713 245.821 676.123 246.163 676.428 246.607C676.734 247.048 676.908 247.562 676.95 248.152H675.107C675.033 247.758 674.855 247.429 674.575 247.167C674.298 246.9 673.927 246.767 673.461 246.767C673.067 246.767 672.721 246.874 672.423 247.087C672.124 247.296 671.892 247.598 671.725 247.992C671.562 248.386 671.48 248.859 671.48 249.409C671.48 249.967 671.562 250.446 671.725 250.847C671.888 251.245 672.117 251.552 672.412 251.769C672.71 251.982 673.06 252.088 673.461 252.088C673.745 252.088 673.999 252.035 674.223 251.929C674.45 251.819 674.64 251.661 674.793 251.455C674.946 251.249 675.051 250.998 675.107 250.703H676.95C676.904 251.282 676.734 251.795 676.439 252.243C676.144 252.687 675.743 253.035 675.235 253.287C674.727 253.536 674.131 253.66 673.445 253.66ZM682.103 253.66C681.304 253.66 680.611 253.484 680.025 253.132C679.439 252.781 678.985 252.289 678.662 251.657C678.342 251.025 678.182 250.286 678.182 249.441C678.182 248.596 678.342 247.855 678.662 247.22C678.985 246.584 679.439 246.091 680.025 245.739C680.611 245.387 681.304 245.212 682.103 245.212C682.902 245.212 683.594 245.387 684.18 245.739C684.766 246.091 685.219 246.584 685.538 247.22C685.862 247.855 686.023 248.596 686.023 249.441C686.023 250.286 685.862 251.025 685.538 251.657C685.219 252.289 684.766 252.781 684.18 253.132C683.594 253.484 682.902 253.66 682.103 253.66ZM682.113 252.115C682.547 252.115 682.909 251.996 683.2 251.758C683.491 251.517 683.708 251.194 683.85 250.789C683.995 250.384 684.068 249.933 684.068 249.436C684.068 248.935 683.995 248.482 683.85 248.077C683.708 247.669 683.491 247.344 683.2 247.103C682.909 246.861 682.547 246.74 682.113 246.74C681.669 246.74 681.3 246.861 681.005 247.103C680.714 247.344 680.496 247.669 680.35 248.077C680.208 248.482 680.137 248.935 680.137 249.436C680.137 249.933 680.208 250.384 680.35 250.789C680.496 251.194 680.714 251.517 681.005 251.758C681.3 251.996 681.669 252.115 682.113 252.115ZM687.66 253.5V245.318H689.503V246.708H689.599C689.769 246.24 690.051 245.874 690.446 245.611C690.84 245.345 691.31 245.212 691.857 245.212C692.411 245.212 692.878 245.347 693.258 245.616C693.642 245.883 693.911 246.247 694.068 246.708H694.153C694.334 246.254 694.639 245.892 695.069 245.622C695.502 245.348 696.016 245.212 696.609 245.212C697.361 245.212 697.976 245.45 698.452 245.925C698.927 246.401 699.165 247.096 699.165 248.008V253.5H697.232V248.306C697.232 247.799 697.097 247.428 696.827 247.193C696.557 246.955 696.227 246.836 695.836 246.836C695.371 246.836 695.007 246.982 694.744 247.273C694.485 247.561 694.355 247.935 694.355 248.397V253.5H692.464V248.227C692.464 247.804 692.337 247.467 692.081 247.214C691.829 246.962 691.498 246.836 691.09 246.836C690.813 246.836 690.561 246.907 690.334 247.049C690.106 247.188 689.925 247.385 689.79 247.641C689.655 247.893 689.588 248.187 689.588 248.525V253.5H687.66Z" fill="#2C79E3"/>
<path d="M367.75 220.25C367.75 218.593 369.093 217.25 370.75 217.25H445.75C447.407 217.25 448.75 218.593 448.75 220.25V233.75C448.75 235.407 447.407 236.75 445.75 236.75H370.75C369.093 236.75 367.75 235.407 367.75 233.75V220.25Z" fill="white" stroke="#2C79E3" stroke-width="1.5"/>
<rect x="375.25" y="224.987" width="21" height="4.39474" rx="0.75" fill="white" stroke="#2C79E3" stroke-width="1.5"/>
<rect x="436.75" y="224.987" width="4.5" height="4.39474" rx="2.19737" fill="#2C79E3" stroke="#2C79E3" stroke-width="1.5"/>
<path d="M367.75 239.75C367.75 238.093 369.093 236.75 370.75 236.75H445.75C447.407 236.75 448.75 238.093 448.75 239.75V253.25C448.75 254.907 447.407 256.25 445.75 256.25H370.75C369.093 256.25 367.75 254.907 367.75 253.25V239.75Z" fill="white" stroke="#2C79E3" stroke-width="1.5"/>
<rect x="375.25" y="244.487" width="21" height="4.39474" rx="0.75" fill="white" stroke="#2C79E3" stroke-width="1.5"/>
<rect x="436.75" y="244.487" width="4.5" height="4.39474" rx="2.19737" fill="#2C79E3" stroke="#2C79E3" stroke-width="1.5"/>
<rect x="428.5" y="244.487" width="4.5" height="4.39474" rx="2.19737" fill="#2C79E3" stroke="#2C79E3" stroke-width="1.5"/>
<path d="M367.75 259.25C367.75 257.593 369.093 256.25 370.75 256.25H445.75C447.407 256.25 448.75 257.593 448.75 259.25V272.75C448.75 274.407 447.407 275.75 445.75 275.75H370.75C369.093 275.75 367.75 274.407 367.75 272.75V259.25Z" fill="white" stroke="#2C79E3" stroke-width="1.5"/>
<rect x="375.25" y="263.987" width="21" height="4.39474" rx="0.75" fill="white" stroke="#2C79E3" stroke-width="1.5"/>
<rect x="436.75" y="263.987" width="4.5" height="4.39474" rx="2.19737" fill="#2C79E3" stroke="#2C79E3" stroke-width="1.5"/>
<path d="M157.875 128C176.049 128 187.489 319.319 252 320.215C316.511 321.11 253 320.215 283.75 320.215C314.5 320.215 428 319.5 448 319.5" stroke="#8F95B2" stroke-width="2" stroke-linecap="round" stroke-linejoin="round"/>
<circle cx="281.5" cy="320.532" r="3.5" fill="#EDEFF5" stroke="#8F95B2" stroke-width="2"/>
<circle cx="296.5" cy="320.532" r="3.5" fill="#EDEFF5" stroke="#8F95B2" stroke-width="2"/>
<circle cx="311.5" cy="320.532" r="3.5" fill="#EDEFF5" stroke="#8F95B2" stroke-width="2"/>
<circle cx="326.5" cy="320.532" r="3.5" fill="#EDEFF5" stroke="#8F95B2" stroke-width="2"/>
<circle cx="341.5" cy="320.532" r="3.5" fill="#EDEFF5" stroke="#8F95B2" stroke-width="2"/>
<path d="M189.875 128C208.049 128 206 196.215 238.5 196.215C271 196.215 255.625 196.215 286.375 196.215" stroke="#8F95B2" stroke-width="2" stroke-linecap="round" stroke-linejoin="round"/>
<path d="M283.375 196.25C331.5 196.25 315.25 128.5 333 128.5C350.75 128.5 337.25 196.25 381 196.25H427H447.5" stroke="#8F95B2" stroke-width="2"/>
<circle cx="249.5" cy="196" r="3.5" fill="#EDEFF5" stroke="#8F95B2" stroke-width="2"/>
<circle cx="264.5" cy="196" r="3.5" fill="#EDEFF5" stroke="#8F95B2" stroke-width="2"/>
<circle cx="279.5" cy="196" r="3.5" fill="#EDEFF5" stroke="#8F95B2" stroke-width="2"/>
<circle cx="413.5" cy="196" r="3.5" fill="#EDEFF5" stroke="#8F95B2" stroke-width="2"/>
<circle cx="428.5" cy="196" r="3.5" fill="#EDEFF5" stroke="#8F95B2" stroke-width="2"/>
<circle cx="443.5" cy="196" r="3.5" fill="#EDEFF5" stroke="#8F95B2" stroke-width="2"/>
<circle cx="157.625" cy="128" r="3.5" fill="#3AB222"/>
<circle cx="191.625" cy="128" r="3.5" fill="#3AB222"/>
<circle cx="333.5" cy="128" r="3.5" fill="#3AB222"/>
<defs>
<clipPath id="clip0_1556_2649">
<rect width="50" height="37" fill="white" transform="translate(553 106)"/>
</clipPath>
</defs>
</svg>
