<svg width="844" height="471" viewBox="0 0 844 471" fill="none" xmlns="http://www.w3.org/2000/svg">
<rect width="844" height="471" rx="10" fill="white"/>
<path d="M313.189 71.3652C320.48 74.4195 329.188 73.7586 335.56 69.0768C354.398 55.2344 377.997 47 403.618 47C432.581 47 458.961 57.5234 478.8 74.7758C485.947 80.9903 496.863 81.6745 505.413 77.6751C513.575 73.8567 522.755 71.7116 532.465 71.7116C551.576 71.7116 568.641 80.0227 579.924 93.0509C585.324 99.2862 593.996 102.791 602.352 101.048C610.403 99.3678 618.767 98.4825 627.348 98.4825C691.747 98.4825 743.874 148.326 743.874 209.714C743.874 234.066 735.676 256.592 721.766 274.915C717.765 280.185 716.726 287.253 717.753 294.09C718.78 300.932 721.892 307.684 726.386 312.415C735.248 321.745 740.639 334.118 740.639 347.687C740.639 376.662 716.028 400.229 685.572 400.229C676.346 400.229 667.654 398.065 660.02 394.243C649.897 389.174 635.633 389.989 626.653 396.858C615.475 405.408 601.286 410.526 585.836 410.526C572.552 410.526 560.199 406.742 549.892 400.246C540.31 394.207 526.088 394.47 517.587 402.025C500.152 417.518 476.77 427 451.059 427C425.126 427 401.561 417.353 384.08 401.621C375.988 394.339 362.697 393.743 353.51 399.585C341.62 407.146 327.337 411.555 311.969 411.555C270.496 411.555 236.955 379.46 236.955 339.965C236.955 332.517 238.146 325.336 240.357 318.586C241.345 315.567 240.385 312.327 238.181 310.098C235.514 307.398 231.237 306.36 227.678 308.081C212.027 315.65 194.325 319.916 175.575 319.916C111.771 319.916 60.127 270.534 60.127 209.714C60.127 148.894 111.771 99.5121 175.575 99.5121C184.713 99.5121 193.602 100.526 202.126 102.44C210.806 104.391 219.961 100.708 225.225 93.8839C238.484 76.6968 259.837 65.5337 283.935 65.5337C294.343 65.5337 304.237 67.6157 313.189 71.3652Z" fill="#F9FAFC" stroke="#E5F0FF" stroke-width="2"/>
<path d="M493.177 155V146.818H495.02V148.208H495.116C495.287 147.74 495.569 147.374 495.963 147.111C496.357 146.845 496.828 146.712 497.375 146.712C497.929 146.712 498.396 146.847 498.776 147.116C499.159 147.383 499.429 147.747 499.585 148.208H499.671C499.852 147.754 500.157 147.392 500.587 147.122C501.02 146.848 501.533 146.712 502.126 146.712C502.879 146.712 503.493 146.95 503.969 147.425C504.445 147.901 504.683 148.596 504.683 149.508V155H502.749V149.806C502.749 149.299 502.614 148.928 502.345 148.693C502.075 148.455 501.744 148.336 501.354 148.336C500.889 148.336 500.525 148.482 500.262 148.773C500.003 149.061 499.873 149.435 499.873 149.897V155H497.982V149.727C497.982 149.304 497.854 148.967 497.598 148.714C497.346 148.462 497.016 148.336 496.608 148.336C496.331 148.336 496.079 148.407 495.851 148.549C495.624 148.688 495.443 148.885 495.308 149.141C495.173 149.393 495.106 149.687 495.106 150.025V155H493.177ZM508.994 155.165C508.475 155.165 508.008 155.073 507.593 154.888C507.181 154.7 506.854 154.423 506.613 154.057C506.375 153.691 506.256 153.24 506.256 152.704C506.256 152.243 506.341 151.861 506.511 151.559C506.682 151.257 506.914 151.016 507.209 150.835C507.504 150.653 507.836 150.517 508.205 150.424C508.578 150.328 508.963 150.259 509.361 150.217C509.841 150.167 510.229 150.123 510.528 150.083C510.826 150.041 511.043 149.977 511.178 149.892C511.316 149.803 511.385 149.666 511.385 149.482V149.45C511.385 149.048 511.266 148.738 511.028 148.517C510.79 148.297 510.448 148.187 510 148.187C509.528 148.187 509.153 148.29 508.876 148.496C508.603 148.702 508.418 148.945 508.322 149.226L506.522 148.97C506.664 148.473 506.898 148.058 507.225 147.724C507.552 147.386 507.951 147.134 508.424 146.967C508.896 146.797 509.418 146.712 509.99 146.712C510.384 146.712 510.776 146.758 511.167 146.85C511.558 146.942 511.914 147.095 512.238 147.308C512.561 147.518 512.82 147.804 513.015 148.166C513.214 148.528 513.314 148.981 513.314 149.524V155H511.46V153.876H511.396C511.279 154.103 511.114 154.316 510.901 154.515C510.691 154.711 510.426 154.869 510.107 154.989C509.791 155.107 509.42 155.165 508.994 155.165ZM509.494 153.748C509.881 153.748 510.217 153.672 510.501 153.519C510.785 153.363 511.004 153.157 511.156 152.901C511.312 152.646 511.391 152.367 511.391 152.065V151.101C511.33 151.151 511.227 151.197 511.082 151.239C510.94 151.282 510.78 151.319 510.602 151.351C510.425 151.383 510.249 151.412 510.075 151.436C509.901 151.461 509.75 151.483 509.622 151.5C509.335 151.539 509.077 151.603 508.85 151.692C508.623 151.781 508.443 151.905 508.312 152.065C508.18 152.221 508.115 152.424 508.115 152.672C508.115 153.027 508.244 153.295 508.504 153.477C508.763 153.658 509.093 153.748 509.494 153.748ZM515.252 155V146.818H517.181V155H515.252ZM516.222 145.657C515.917 145.657 515.654 145.556 515.434 145.353C515.213 145.147 515.103 144.901 515.103 144.613C515.103 144.322 515.213 144.075 515.434 143.873C515.654 143.667 515.917 143.564 516.222 143.564C516.531 143.564 516.794 143.667 517.01 143.873C517.23 144.075 517.341 144.322 517.341 144.613C517.341 144.901 517.23 145.147 517.01 145.353C516.794 145.556 516.531 145.657 516.222 145.657ZM521.092 150.206V155H519.164V146.818H521.007V148.208H521.103C521.291 147.75 521.591 147.386 522.003 147.116C522.418 146.847 522.931 146.712 523.542 146.712C524.107 146.712 524.599 146.832 525.018 147.074C525.44 147.315 525.767 147.665 525.998 148.123C526.232 148.581 526.348 149.137 526.344 149.79V155H524.416V150.089C524.416 149.542 524.274 149.114 523.99 148.805C523.709 148.496 523.32 148.342 522.823 148.342C522.486 148.342 522.186 148.416 521.923 148.565C521.664 148.711 521.459 148.922 521.31 149.199C521.165 149.476 521.092 149.812 521.092 150.206Z" fill="#3AB222"/>
<path d="M287.707 296.318V297.81H282.871V296.318H287.707ZM284.08 304.5V295.546C284.08 294.995 284.193 294.537 284.421 294.172C284.651 293.806 284.96 293.532 285.347 293.351C285.735 293.17 286.164 293.08 286.637 293.08C286.97 293.08 287.267 293.106 287.526 293.159C287.785 293.213 287.977 293.261 288.101 293.303L287.718 294.795C287.636 294.77 287.533 294.745 287.409 294.72C287.285 294.692 287.146 294.678 286.993 294.678C286.635 294.678 286.381 294.765 286.232 294.939C286.086 295.109 286.013 295.354 286.013 295.674V304.5H284.08ZM292.532 304.66C291.712 304.66 291.003 304.489 290.407 304.148C289.813 303.804 289.357 303.317 289.038 302.689C288.718 302.057 288.558 301.313 288.558 300.457C288.558 299.615 288.718 298.877 289.038 298.241C289.361 297.602 289.812 297.105 290.391 296.75C290.969 296.391 291.649 296.212 292.431 296.212C292.935 296.212 293.411 296.293 293.858 296.457C294.309 296.616 294.707 296.865 295.051 297.202C295.399 297.54 295.673 297.969 295.872 298.491C296.071 299.01 296.17 299.628 296.17 300.345V300.936H289.464V299.637H294.322C294.318 299.267 294.238 298.939 294.082 298.651C293.926 298.36 293.707 298.131 293.427 297.964C293.15 297.797 292.827 297.714 292.457 297.714C292.063 297.714 291.717 297.81 291.419 298.001C291.12 298.19 290.888 298.438 290.721 298.747C290.557 299.053 290.474 299.388 290.47 299.754V300.888C290.47 301.364 290.557 301.773 290.731 302.114C290.905 302.451 291.149 302.71 291.461 302.891C291.774 303.069 292.139 303.158 292.559 303.158C292.839 303.158 293.093 303.119 293.32 303.04C293.547 302.959 293.745 302.84 293.911 302.684C294.078 302.527 294.204 302.334 294.29 302.103L296.09 302.305C295.976 302.781 295.76 303.197 295.44 303.552C295.124 303.903 294.719 304.177 294.226 304.372C293.732 304.564 293.168 304.66 292.532 304.66ZM300.156 304.665C299.637 304.665 299.17 304.573 298.755 304.388C298.343 304.2 298.016 303.923 297.775 303.557C297.537 303.191 297.418 302.74 297.418 302.204C297.418 301.743 297.503 301.361 297.673 301.059C297.844 300.757 298.077 300.516 298.371 300.335C298.666 300.153 298.998 300.017 299.367 299.924C299.74 299.828 300.126 299.759 300.523 299.717C301.003 299.667 301.392 299.623 301.69 299.583C301.988 299.541 302.205 299.477 302.34 299.392C302.478 299.303 302.547 299.166 302.547 298.982V298.95C302.547 298.548 302.428 298.238 302.191 298.017C301.953 297.797 301.61 297.687 301.162 297.687C300.69 297.687 300.316 297.79 300.039 297.996C299.765 298.202 299.58 298.445 299.485 298.726L297.684 298.47C297.826 297.973 298.061 297.558 298.387 297.224C298.714 296.886 299.113 296.634 299.586 296.467C300.058 296.297 300.58 296.212 301.152 296.212C301.546 296.212 301.938 296.258 302.329 296.35C302.72 296.442 303.077 296.595 303.4 296.808C303.723 297.018 303.982 297.304 304.177 297.666C304.376 298.028 304.476 298.481 304.476 299.024V304.5H302.622V303.376H302.558C302.441 303.603 302.276 303.816 302.063 304.015C301.853 304.211 301.589 304.369 301.269 304.489C300.953 304.607 300.582 304.665 300.156 304.665ZM300.656 303.248C301.044 303.248 301.379 303.172 301.663 303.019C301.947 302.863 302.166 302.657 302.318 302.401C302.475 302.146 302.553 301.867 302.553 301.565V300.601C302.492 300.651 302.389 300.697 302.244 300.739C302.102 300.782 301.942 300.819 301.764 300.851C301.587 300.883 301.411 300.912 301.237 300.936C301.063 300.961 300.912 300.983 300.784 301C300.497 301.039 300.239 301.103 300.012 301.192C299.785 301.281 299.605 301.405 299.474 301.565C299.343 301.721 299.277 301.924 299.277 302.172C299.277 302.527 299.406 302.795 299.666 302.977C299.925 303.158 300.255 303.248 300.656 303.248ZM310.5 296.318V297.81H305.797V296.318H310.5ZM306.958 294.358H308.886V302.039C308.886 302.298 308.925 302.497 309.003 302.636C309.085 302.771 309.192 302.863 309.323 302.913C309.454 302.962 309.6 302.987 309.76 302.987C309.881 302.987 309.991 302.978 310.09 302.961C310.193 302.943 310.271 302.927 310.324 302.913L310.649 304.42C310.546 304.456 310.399 304.495 310.207 304.537C310.019 304.58 309.788 304.605 309.515 304.612C309.032 304.626 308.597 304.553 308.21 304.393C307.823 304.23 307.515 303.978 307.288 303.637C307.064 303.296 306.954 302.87 306.958 302.359V294.358ZM317.328 301.059V296.318H319.256V304.5H317.386V303.046H317.301C317.116 303.504 316.813 303.879 316.39 304.17C315.971 304.461 315.454 304.607 314.84 304.607C314.304 304.607 313.83 304.488 313.418 304.25C313.009 304.008 312.69 303.658 312.459 303.2C312.228 302.739 312.113 302.181 312.113 301.528V296.318H314.041V301.229C314.041 301.748 314.183 302.16 314.467 302.465C314.751 302.771 315.124 302.923 315.586 302.923C315.87 302.923 316.145 302.854 316.411 302.716C316.678 302.577 316.896 302.371 317.067 302.098C317.241 301.821 317.328 301.474 317.328 301.059ZM321.239 304.5V296.318H323.108V297.682H323.194C323.343 297.21 323.599 296.846 323.961 296.59C324.327 296.331 324.744 296.201 325.213 296.201C325.319 296.201 325.438 296.206 325.569 296.217C325.704 296.224 325.816 296.237 325.905 296.254V298.028C325.823 298 325.694 297.975 325.516 297.953C325.342 297.929 325.173 297.916 325.01 297.916C324.659 297.916 324.343 297.993 324.062 298.145C323.785 298.294 323.567 298.502 323.407 298.768C323.247 299.035 323.167 299.342 323.167 299.69V304.5H321.239ZM330.471 304.66C329.651 304.66 328.943 304.489 328.346 304.148C327.753 303.804 327.297 303.317 326.977 302.689C326.657 302.057 326.498 301.313 326.498 300.457C326.498 299.615 326.657 298.877 326.977 298.241C327.3 297.602 327.751 297.105 328.33 296.75C328.909 296.391 329.589 296.212 330.37 296.212C330.874 296.212 331.35 296.293 331.798 296.457C332.249 296.616 332.646 296.865 332.991 297.202C333.339 297.54 333.612 297.969 333.811 298.491C334.01 299.01 334.109 299.628 334.109 300.345V300.936H327.403V299.637H332.261C332.258 299.267 332.178 298.939 332.021 298.651C331.865 298.36 331.647 298.131 331.366 297.964C331.089 297.797 330.766 297.714 330.397 297.714C330.003 297.714 329.656 297.81 329.358 298.001C329.06 298.19 328.827 298.438 328.66 298.747C328.497 299.053 328.413 299.388 328.41 299.754V300.888C328.41 301.364 328.497 301.773 328.671 302.114C328.845 302.451 329.088 302.71 329.401 302.891C329.713 303.069 330.079 303.158 330.498 303.158C330.778 303.158 331.032 303.119 331.26 303.04C331.487 302.959 331.684 302.84 331.851 302.684C332.018 302.527 332.144 302.334 332.229 302.103L334.03 302.305C333.916 302.781 333.699 303.197 333.38 303.552C333.064 303.903 332.659 304.177 332.165 304.372C331.672 304.564 331.107 304.66 330.471 304.66ZM343.877 293.591V304.5H341.901V295.514H341.837L339.286 297.144V295.333L341.997 293.591H343.877Z" fill="#8F95B2"/>
<path d="M237.028 170.818V172.31H232.191V170.818H237.028ZM233.4 179V170.046C233.4 169.495 233.514 169.037 233.741 168.672C233.972 168.306 234.281 168.032 234.668 167.851C235.055 167.67 235.485 167.58 235.957 167.58C236.291 167.58 236.587 167.606 236.846 167.659C237.106 167.713 237.297 167.761 237.422 167.803L237.038 169.295C236.956 169.27 236.854 169.245 236.729 169.22C236.605 169.192 236.466 169.178 236.314 169.178C235.955 169.178 235.701 169.265 235.552 169.439C235.406 169.609 235.334 169.854 235.334 170.174V179H233.4ZM241.852 179.16C241.032 179.16 240.323 178.989 239.727 178.648C239.134 178.304 238.677 177.817 238.358 177.189C238.038 176.557 237.878 175.813 237.878 174.957C237.878 174.115 238.038 173.377 238.358 172.741C238.681 172.102 239.132 171.605 239.711 171.25C240.29 170.891 240.97 170.712 241.751 170.712C242.255 170.712 242.731 170.793 243.179 170.957C243.63 171.116 244.027 171.365 244.372 171.702C244.72 172.04 244.993 172.469 245.192 172.991C245.391 173.51 245.49 174.128 245.49 174.845V175.436H238.784V174.137H243.642C243.638 173.767 243.559 173.439 243.402 173.151C243.246 172.86 243.028 172.631 242.747 172.464C242.47 172.297 242.147 172.214 241.778 172.214C241.383 172.214 241.037 172.31 240.739 172.501C240.441 172.69 240.208 172.938 240.041 173.247C239.878 173.553 239.794 173.888 239.791 174.254V175.388C239.791 175.864 239.878 176.273 240.052 176.614C240.226 176.951 240.469 177.21 240.782 177.391C241.094 177.569 241.46 177.658 241.879 177.658C242.159 177.658 242.413 177.619 242.641 177.54C242.868 177.459 243.065 177.34 243.232 177.184C243.399 177.027 243.525 176.834 243.61 176.603L245.41 176.805C245.297 177.281 245.08 177.697 244.761 178.052C244.445 178.403 244.04 178.677 243.546 178.872C243.052 179.064 242.488 179.16 241.852 179.16ZM249.476 179.165C248.958 179.165 248.491 179.073 248.075 178.888C247.663 178.7 247.336 178.423 247.095 178.057C246.857 177.691 246.738 177.24 246.738 176.704C246.738 176.243 246.823 175.861 246.994 175.559C247.164 175.257 247.397 175.016 247.692 174.835C247.986 174.653 248.318 174.517 248.688 174.424C249.061 174.328 249.446 174.259 249.844 174.217C250.323 174.167 250.712 174.123 251.01 174.083C251.308 174.041 251.525 173.977 251.66 173.892C251.798 173.803 251.868 173.666 251.868 173.482V173.45C251.868 173.048 251.749 172.738 251.511 172.517C251.273 172.297 250.93 172.187 250.483 172.187C250.01 172.187 249.636 172.29 249.359 172.496C249.085 172.702 248.901 172.945 248.805 173.226L247.004 172.97C247.146 172.473 247.381 172.058 247.708 171.724C248.034 171.386 248.434 171.134 248.906 170.967C249.378 170.797 249.9 170.712 250.472 170.712C250.866 170.712 251.259 170.758 251.649 170.85C252.04 170.942 252.397 171.095 252.72 171.308C253.043 171.518 253.302 171.804 253.498 172.166C253.697 172.528 253.796 172.981 253.796 173.524V179H251.942V177.876H251.878C251.761 178.103 251.596 178.316 251.383 178.515C251.173 178.711 250.909 178.869 250.589 178.989C250.273 179.107 249.902 179.165 249.476 179.165ZM249.977 177.748C250.364 177.748 250.699 177.672 250.983 177.519C251.268 177.363 251.486 177.157 251.639 176.901C251.795 176.646 251.873 176.367 251.873 176.065V175.101C251.813 175.151 251.71 175.197 251.564 175.239C251.422 175.282 251.262 175.319 251.085 175.351C250.907 175.383 250.731 175.412 250.557 175.436C250.383 175.461 250.232 175.483 250.105 175.5C249.817 175.539 249.559 175.603 249.332 175.692C249.105 175.781 248.926 175.905 248.794 176.065C248.663 176.221 248.597 176.424 248.597 176.672C248.597 177.027 248.727 177.295 248.986 177.477C249.245 177.658 249.575 177.748 249.977 177.748ZM259.82 170.818V172.31H255.117V170.818H259.82ZM256.278 168.858H258.206V176.539C258.206 176.798 258.246 176.997 258.324 177.136C258.405 177.271 258.512 177.363 258.643 177.413C258.775 177.462 258.92 177.487 259.08 177.487C259.201 177.487 259.311 177.478 259.41 177.461C259.513 177.443 259.591 177.427 259.645 177.413L259.97 178.92C259.867 178.956 259.719 178.995 259.528 179.037C259.339 179.08 259.108 179.105 258.835 179.112C258.352 179.126 257.917 179.053 257.53 178.893C257.143 178.73 256.836 178.478 256.608 178.137C256.385 177.796 256.275 177.37 256.278 176.859V168.858ZM266.648 175.559V170.818H268.576V179H266.707V177.546H266.621C266.437 178.004 266.133 178.379 265.71 178.67C265.291 178.961 264.775 179.107 264.16 179.107C263.624 179.107 263.15 178.988 262.738 178.75C262.33 178.508 262.01 178.158 261.779 177.7C261.549 177.239 261.433 176.681 261.433 176.028V170.818H263.361V175.729C263.361 176.248 263.503 176.66 263.788 176.965C264.072 177.271 264.445 177.423 264.906 177.423C265.19 177.423 265.465 177.354 265.732 177.216C265.998 177.077 266.217 176.871 266.387 176.598C266.561 176.321 266.648 175.974 266.648 175.559ZM270.559 179V170.818H272.429V172.182H272.514C272.663 171.71 272.919 171.346 273.281 171.09C273.647 170.831 274.064 170.701 274.533 170.701C274.639 170.701 274.758 170.706 274.89 170.717C275.025 170.724 275.137 170.737 275.225 170.754V172.528C275.144 172.5 275.014 172.475 274.836 172.453C274.662 172.429 274.494 172.416 274.33 172.416C273.979 172.416 273.663 172.493 273.382 172.645C273.105 172.794 272.887 173.002 272.727 173.268C272.567 173.535 272.487 173.842 272.487 174.19V179H270.559ZM279.792 179.16C278.971 179.16 278.263 178.989 277.666 178.648C277.073 178.304 276.617 177.817 276.297 177.189C275.978 176.557 275.818 175.813 275.818 174.957C275.818 174.115 275.978 173.377 276.297 172.741C276.62 172.102 277.071 171.605 277.65 171.25C278.229 170.891 278.909 170.712 279.69 170.712C280.195 170.712 280.671 170.793 281.118 170.957C281.569 171.116 281.967 171.365 282.311 171.702C282.659 172.04 282.933 172.469 283.131 172.991C283.33 173.51 283.43 174.128 283.43 174.845V175.436H276.723V174.137H281.581C281.578 173.767 281.498 173.439 281.342 173.151C281.185 172.86 280.967 172.631 280.687 172.464C280.41 172.297 280.086 172.214 279.717 172.214C279.323 172.214 278.977 172.31 278.678 172.501C278.38 172.69 278.147 172.938 277.981 173.247C277.817 173.553 277.734 173.888 277.73 174.254V175.388C277.73 175.864 277.817 176.273 277.991 176.614C278.165 176.951 278.408 177.21 278.721 177.391C279.033 177.569 279.399 177.658 279.818 177.658C280.099 177.658 280.353 177.619 280.58 177.54C280.807 177.459 281.004 177.34 281.171 177.184C281.338 177.027 281.464 176.834 281.549 176.603L283.35 176.805C283.236 177.281 283.02 177.697 282.7 178.052C282.384 178.403 281.979 178.677 281.486 178.872C280.992 179.064 280.427 179.16 279.792 179.16ZM288.76 179V177.572L292.548 173.86C292.91 173.494 293.212 173.169 293.453 172.885C293.695 172.601 293.876 172.326 293.997 172.059C294.117 171.793 294.178 171.509 294.178 171.207C294.178 170.863 294.1 170.568 293.943 170.323C293.787 170.074 293.572 169.882 293.299 169.748C293.025 169.613 292.715 169.545 292.367 169.545C292.008 169.545 291.694 169.62 291.424 169.769C291.154 169.914 290.944 170.122 290.795 170.392C290.65 170.662 290.577 170.983 290.577 171.356H288.697C288.697 170.664 288.855 170.062 289.171 169.55C289.487 169.039 289.922 168.643 290.476 168.363C291.033 168.082 291.672 167.942 292.393 167.942C293.125 167.942 293.768 168.078 294.322 168.352C294.876 168.625 295.305 169 295.611 169.476C295.92 169.952 296.074 170.495 296.074 171.106C296.074 171.514 295.996 171.915 295.84 172.31C295.683 172.704 295.408 173.141 295.014 173.62C294.623 174.099 294.075 174.68 293.368 175.362L291.488 177.274V177.349H296.239V179H288.76Z" fill="#8F95B2"/>
<path d="M373.05 170.818V172.31H368.214V170.818H373.05ZM369.423 179V170.046C369.423 169.495 369.537 169.037 369.764 168.672C369.995 168.306 370.304 168.032 370.691 167.851C371.078 167.67 371.508 167.58 371.98 167.58C372.314 167.58 372.61 167.606 372.869 167.659C373.129 167.713 373.32 167.761 373.445 167.803L373.061 169.295C372.979 169.27 372.876 169.245 372.752 169.22C372.628 169.192 372.489 169.178 372.337 169.178C371.978 169.178 371.724 169.265 371.575 169.439C371.429 169.609 371.357 169.854 371.357 170.174V179H369.423ZM377.875 179.16C377.055 179.16 376.346 178.989 375.75 178.648C375.157 178.304 374.7 177.817 374.381 177.189C374.061 176.557 373.901 175.813 373.901 174.957C373.901 174.115 374.061 173.377 374.381 172.741C374.704 172.102 375.155 171.605 375.734 171.25C376.313 170.891 376.993 170.712 377.774 170.712C378.278 170.712 378.754 170.793 379.201 170.957C379.652 171.116 380.05 171.365 380.395 171.702C380.743 172.04 381.016 172.469 381.215 172.991C381.414 173.51 381.513 174.128 381.513 174.845V175.436H374.807V174.137H379.665C379.661 173.767 379.581 173.439 379.425 173.151C379.269 172.86 379.051 172.631 378.77 172.464C378.493 172.297 378.17 172.214 377.801 172.214C377.406 172.214 377.06 172.31 376.762 172.501C376.464 172.69 376.231 172.938 376.064 173.247C375.901 173.553 375.817 173.888 375.814 174.254V175.388C375.814 175.864 375.901 176.273 376.075 176.614C376.249 176.951 376.492 177.21 376.804 177.391C377.117 177.569 377.483 177.658 377.902 177.658C378.182 177.658 378.436 177.619 378.663 177.54C378.891 177.459 379.088 177.34 379.255 177.184C379.422 177.027 379.548 176.834 379.633 176.603L381.433 176.805C381.32 177.281 381.103 177.697 380.784 178.052C380.467 178.403 380.063 178.677 379.569 178.872C379.075 179.064 378.511 179.16 377.875 179.16ZM385.499 179.165C384.981 179.165 384.514 179.073 384.098 178.888C383.686 178.7 383.359 178.423 383.118 178.057C382.88 177.691 382.761 177.24 382.761 176.704C382.761 176.243 382.846 175.861 383.017 175.559C383.187 175.257 383.42 175.016 383.715 174.835C384.009 174.653 384.341 174.517 384.711 174.424C385.083 174.328 385.469 174.259 385.867 174.217C386.346 174.167 386.735 174.123 387.033 174.083C387.331 174.041 387.548 173.977 387.683 173.892C387.821 173.803 387.891 173.666 387.891 173.482V173.45C387.891 173.048 387.772 172.738 387.534 172.517C387.296 172.297 386.953 172.187 386.506 172.187C386.033 172.187 385.659 172.29 385.382 172.496C385.108 172.702 384.924 172.945 384.828 173.226L383.027 172.97C383.169 172.473 383.404 172.058 383.731 171.724C384.057 171.386 384.457 171.134 384.929 170.967C385.401 170.797 385.923 170.712 386.495 170.712C386.889 170.712 387.282 170.758 387.672 170.85C388.063 170.942 388.42 171.095 388.743 171.308C389.066 171.518 389.325 171.804 389.521 172.166C389.72 172.528 389.819 172.981 389.819 173.524V179H387.965V177.876H387.901C387.784 178.103 387.619 178.316 387.406 178.515C387.196 178.711 386.932 178.869 386.612 178.989C386.296 179.107 385.925 179.165 385.499 179.165ZM386 177.748C386.387 177.748 386.722 177.672 387.006 177.519C387.291 177.363 387.509 177.157 387.662 176.901C387.818 176.646 387.896 176.367 387.896 176.065V175.101C387.836 175.151 387.733 175.197 387.587 175.239C387.445 175.282 387.285 175.319 387.108 175.351C386.93 175.383 386.754 175.412 386.58 175.436C386.406 175.461 386.255 175.483 386.128 175.5C385.84 175.539 385.582 175.603 385.355 175.692C385.128 175.781 384.949 175.905 384.817 176.065C384.686 176.221 384.62 176.424 384.62 176.672C384.62 177.027 384.75 177.295 385.009 177.477C385.268 177.658 385.598 177.748 386 177.748ZM395.843 170.818V172.31H391.14V170.818H395.843ZM392.301 168.858H394.229V176.539C394.229 176.798 394.269 176.997 394.347 177.136C394.428 177.271 394.535 177.363 394.666 177.413C394.798 177.462 394.943 177.487 395.103 177.487C395.224 177.487 395.334 177.478 395.433 177.461C395.536 177.443 395.614 177.427 395.668 177.413L395.993 178.92C395.89 178.956 395.742 178.995 395.55 179.037C395.362 179.08 395.131 179.105 394.858 179.112C394.375 179.126 393.94 179.053 393.553 178.893C393.166 178.73 392.859 178.478 392.631 178.137C392.408 177.796 392.298 177.37 392.301 176.859V168.858ZM402.671 175.559V170.818H404.599V179H402.73V177.546H402.644C402.46 178.004 402.156 178.379 401.733 178.67C401.314 178.961 400.798 179.107 400.183 179.107C399.647 179.107 399.173 178.988 398.761 178.75C398.353 178.508 398.033 178.158 397.802 177.7C397.572 177.239 397.456 176.681 397.456 176.028V170.818H399.384V175.729C399.384 176.248 399.526 176.66 399.811 176.965C400.095 177.271 400.467 177.423 400.929 177.423C401.213 177.423 401.488 177.354 401.755 177.216C402.021 177.077 402.239 176.871 402.41 176.598C402.584 176.321 402.671 175.974 402.671 175.559ZM406.582 179V170.818H408.452V172.182H408.537C408.686 171.71 408.942 171.346 409.304 171.09C409.67 170.831 410.087 170.701 410.556 170.701C410.662 170.701 410.781 170.706 410.913 170.717C411.048 170.724 411.159 170.737 411.248 170.754V172.528C411.167 172.5 411.037 172.475 410.859 172.453C410.685 172.429 410.517 172.416 410.353 172.416C410.002 172.416 409.686 172.493 409.405 172.645C409.128 172.794 408.91 173.002 408.75 173.268C408.59 173.535 408.51 173.842 408.51 174.19V179H406.582ZM415.815 179.16C414.994 179.16 414.286 178.989 413.689 178.648C413.096 178.304 412.64 177.817 412.32 177.189C412.001 176.557 411.841 175.813 411.841 174.957C411.841 174.115 412.001 173.377 412.32 172.741C412.643 172.102 413.094 171.605 413.673 171.25C414.252 170.891 414.932 170.712 415.713 170.712C416.218 170.712 416.693 170.793 417.141 170.957C417.592 171.116 417.99 171.365 418.334 171.702C418.682 172.04 418.956 172.469 419.154 172.991C419.353 173.51 419.453 174.128 419.453 174.845V175.436H412.746V174.137H417.604C417.601 173.767 417.521 173.439 417.365 173.151C417.208 172.86 416.99 172.631 416.709 172.464C416.432 172.297 416.109 172.214 415.74 172.214C415.346 172.214 415 172.31 414.701 172.501C414.403 172.69 414.17 172.938 414.004 173.247C413.84 173.553 413.757 173.888 413.753 174.254V175.388C413.753 175.864 413.84 176.273 414.014 176.614C414.188 176.951 414.431 177.21 414.744 177.391C415.056 177.569 415.422 177.658 415.841 177.658C416.122 177.658 416.376 177.619 416.603 177.54C416.83 177.459 417.027 177.34 417.194 177.184C417.361 177.027 417.487 176.834 417.572 176.603L419.373 176.805C419.259 177.281 419.043 177.697 418.723 178.052C418.407 178.403 418.002 178.677 417.508 178.872C417.015 179.064 416.45 179.16 415.815 179.16ZM428.699 179.149C427.932 179.149 427.25 179.018 426.653 178.755C426.06 178.492 425.591 178.126 425.247 177.658C424.902 177.189 424.72 176.647 424.698 176.033H426.701C426.719 176.328 426.816 176.585 426.994 176.805C427.172 177.022 427.408 177.191 427.702 177.311C427.997 177.432 428.327 177.493 428.693 177.493C429.084 177.493 429.43 177.425 429.732 177.29C430.034 177.152 430.27 176.96 430.44 176.715C430.611 176.47 430.694 176.187 430.691 175.868C430.694 175.538 430.609 175.246 430.435 174.994C430.261 174.742 430.009 174.545 429.679 174.403C429.352 174.261 428.958 174.19 428.496 174.19H427.532V172.667H428.496C428.876 172.667 429.208 172.601 429.492 172.469C429.78 172.338 430.005 172.153 430.169 171.915C430.332 171.674 430.412 171.395 430.408 171.079C430.412 170.77 430.343 170.502 430.201 170.275C430.062 170.044 429.865 169.865 429.609 169.737C429.357 169.609 429.061 169.545 428.72 169.545C428.386 169.545 428.077 169.605 427.793 169.726C427.509 169.847 427.28 170.019 427.106 170.243C426.932 170.463 426.84 170.726 426.829 171.031H424.927C424.941 170.42 425.117 169.884 425.455 169.423C425.795 168.957 426.25 168.595 426.818 168.336C427.386 168.073 428.024 167.942 428.731 167.942C429.458 167.942 430.091 168.078 430.627 168.352C431.167 168.622 431.584 168.986 431.879 169.444C432.173 169.902 432.321 170.408 432.321 170.962C432.324 171.576 432.143 172.091 431.777 172.507C431.415 172.922 430.939 173.194 430.35 173.322V173.407C431.117 173.513 431.705 173.798 432.113 174.259C432.525 174.717 432.729 175.287 432.726 175.969C432.726 176.58 432.552 177.127 432.204 177.61C431.859 178.089 431.383 178.466 430.776 178.739C430.172 179.012 429.48 179.149 428.699 179.149Z" fill="#8F95B2"/>
<path d="M523.25 128L137.25 128" stroke="#3AB222" stroke-width="2" stroke-linecap="round" stroke-linejoin="round"/>
<path d="M525.477 127.352C525.841 127.71 525.841 128.29 525.477 128.648L522.341 131.732C521.977 132.089 521.387 132.089 521.023 131.732C520.659 131.374 520.659 130.793 521.023 130.435L522.567 128.917V127.083L521.023 125.565C520.659 125.207 520.659 124.626 521.023 124.268C521.387 123.911 521.977 123.911 522.341 124.268L525.477 127.352Z" fill="#3AB222"/>
<path d="M625.241 188.068V176.818H627.137V178.171H627.249C627.348 177.972 627.489 177.761 627.67 177.537C627.851 177.31 628.096 177.116 628.405 176.957C628.714 176.793 629.108 176.712 629.587 176.712C630.219 176.712 630.789 176.873 631.297 177.196C631.809 177.516 632.213 177.99 632.512 178.619C632.814 179.244 632.964 180.011 632.964 180.92C632.964 181.818 632.817 182.582 632.522 183.21C632.228 183.839 631.826 184.318 631.319 184.648C630.811 184.979 630.235 185.144 629.593 185.144C629.124 185.144 628.735 185.066 628.426 184.909C628.117 184.753 627.869 184.565 627.68 184.345C627.496 184.121 627.352 183.91 627.249 183.711H627.169V188.068H625.241ZM627.132 180.909C627.132 181.438 627.206 181.902 627.355 182.299C627.508 182.697 627.727 183.008 628.011 183.232C628.298 183.452 628.646 183.562 629.055 183.562C629.481 183.562 629.838 183.448 630.125 183.221C630.413 182.99 630.63 182.676 630.775 182.278C630.924 181.877 630.999 181.42 630.999 180.909C630.999 180.401 630.926 179.95 630.781 179.556C630.635 179.162 630.418 178.853 630.131 178.629C629.843 178.406 629.484 178.294 629.055 178.294C628.643 178.294 628.293 178.402 628.005 178.619C627.718 178.835 627.499 179.139 627.35 179.529C627.205 179.92 627.132 180.38 627.132 180.909ZM634.616 185V176.818H636.485V178.182H636.571C636.72 177.71 636.975 177.346 637.338 177.09C637.703 176.831 638.121 176.701 638.589 176.701C638.696 176.701 638.815 176.706 638.946 176.717C639.081 176.724 639.193 176.737 639.282 176.754V178.528C639.2 178.5 639.071 178.475 638.893 178.453C638.719 178.429 638.55 178.416 638.387 178.416C638.036 178.416 637.719 178.493 637.439 178.645C637.162 178.794 636.944 179.002 636.784 179.268C636.624 179.535 636.544 179.842 636.544 180.19V185H634.616ZM643.795 185.16C642.996 185.16 642.304 184.984 641.718 184.632C641.132 184.281 640.677 183.789 640.354 183.157C640.034 182.525 639.875 181.786 639.875 180.941C639.875 180.096 640.034 179.355 640.354 178.72C640.677 178.084 641.132 177.591 641.718 177.239C642.304 176.887 642.996 176.712 643.795 176.712C644.594 176.712 645.286 176.887 645.872 177.239C646.458 177.591 646.911 178.084 647.231 178.72C647.554 179.355 647.715 180.096 647.715 180.941C647.715 181.786 647.554 182.525 647.231 183.157C646.911 183.789 646.458 184.281 645.872 184.632C645.286 184.984 644.594 185.16 643.795 185.16ZM643.806 183.615C644.239 183.615 644.601 183.496 644.892 183.258C645.184 183.017 645.4 182.694 645.542 182.289C645.688 181.884 645.761 181.433 645.761 180.936C645.761 180.435 645.688 179.982 645.542 179.577C645.4 179.169 645.184 178.844 644.892 178.603C644.601 178.361 644.239 178.24 643.806 178.24C643.362 178.24 642.992 178.361 642.698 178.603C642.407 178.844 642.188 179.169 642.043 179.577C641.9 179.982 641.829 180.435 641.829 180.936C641.829 181.433 641.9 181.884 642.043 182.289C642.188 182.694 642.407 183.017 642.698 183.258C642.992 183.496 643.362 183.615 643.806 183.615ZM652.388 185.144C651.746 185.144 651.17 184.979 650.662 184.648C650.155 184.318 649.753 183.839 649.459 183.21C649.164 182.582 649.017 181.818 649.017 180.92C649.017 180.011 649.166 179.244 649.464 178.619C649.766 177.99 650.172 177.516 650.684 177.196C651.195 176.873 651.765 176.712 652.394 176.712C652.873 176.712 653.267 176.793 653.576 176.957C653.885 177.116 654.13 177.31 654.311 177.537C654.492 177.761 654.633 177.972 654.732 178.171H654.812V174.091H656.746V185H654.849V183.711H654.732C654.633 183.91 654.489 184.121 654.301 184.345C654.112 184.565 653.864 184.753 653.555 184.909C653.246 185.066 652.857 185.144 652.388 185.144ZM652.926 183.562C653.335 183.562 653.683 183.452 653.97 183.232C654.258 183.008 654.476 182.697 654.626 182.299C654.775 181.902 654.849 181.438 654.849 180.909C654.849 180.38 654.775 179.92 654.626 179.529C654.48 179.139 654.263 178.835 653.976 178.619C653.692 178.402 653.342 178.294 652.926 178.294C652.497 178.294 652.138 178.406 651.85 178.629C651.563 178.853 651.346 179.162 651.2 179.556C651.055 179.95 650.982 180.401 650.982 180.909C650.982 181.42 651.055 181.877 651.2 182.278C651.35 182.676 651.568 182.99 651.856 183.221C652.147 183.448 652.504 183.562 652.926 183.562ZM664.015 181.559V176.818H665.943V185H664.074V183.546H663.989C663.804 184.004 663.5 184.379 663.078 184.67C662.659 184.961 662.142 185.107 661.528 185.107C660.991 185.107 660.517 184.988 660.105 184.75C659.697 184.508 659.377 184.158 659.147 183.7C658.916 183.239 658.8 182.681 658.8 182.028V176.818H660.729V181.729C660.729 182.248 660.871 182.66 661.155 182.965C661.439 183.271 661.812 183.423 662.273 183.423C662.557 183.423 662.833 183.354 663.099 183.216C663.365 183.077 663.584 182.871 663.754 182.598C663.928 182.321 664.015 181.974 664.015 181.559ZM671.495 185.16C670.678 185.16 669.977 184.98 669.391 184.622C668.809 184.263 668.36 183.768 668.044 183.136C667.731 182.5 667.575 181.768 667.575 180.941C667.575 180.11 667.735 179.377 668.054 178.741C668.374 178.102 668.825 177.605 669.407 177.25C669.993 176.891 670.686 176.712 671.485 176.712C672.149 176.712 672.736 176.834 673.248 177.079C673.763 177.321 674.173 177.663 674.478 178.107C674.784 178.548 674.958 179.062 675 179.652H673.157C673.083 179.258 672.905 178.929 672.624 178.667C672.347 178.4 671.976 178.267 671.511 178.267C671.117 178.267 670.771 178.374 670.472 178.587C670.174 178.796 669.942 179.098 669.775 179.492C669.611 179.886 669.53 180.359 669.53 180.909C669.53 181.467 669.611 181.946 669.775 182.347C669.938 182.745 670.167 183.052 670.462 183.269C670.76 183.482 671.11 183.588 671.511 183.588C671.795 183.588 672.049 183.535 672.273 183.429C672.5 183.319 672.69 183.161 672.843 182.955C672.996 182.749 673.1 182.498 673.157 182.203H675C674.954 182.782 674.784 183.295 674.489 183.743C674.194 184.187 673.793 184.535 673.285 184.787C672.777 185.036 672.181 185.16 671.495 185.16ZM680.669 176.818V178.31H675.966V176.818H680.669ZM677.127 174.858H679.055V182.539C679.055 182.798 679.094 182.997 679.172 183.136C679.254 183.271 679.361 183.363 679.492 183.413C679.623 183.462 679.769 183.487 679.929 183.487C680.049 183.487 680.16 183.478 680.259 183.461C680.362 183.443 680.44 183.427 680.493 183.413L680.818 184.92C680.715 184.956 680.568 184.995 680.376 185.037C680.188 185.08 679.957 185.105 679.684 185.112C679.201 185.126 678.766 185.053 678.379 184.893C677.992 184.73 677.684 184.478 677.457 184.137C677.233 183.796 677.123 183.37 677.127 182.859V174.858ZM682.282 185V176.818H684.21V185H682.282ZM683.251 175.657C682.946 175.657 682.683 175.556 682.463 175.353C682.243 175.147 682.133 174.901 682.133 174.613C682.133 174.322 682.243 174.075 682.463 173.873C682.683 173.667 682.946 173.564 683.251 173.564C683.56 173.564 683.823 173.667 684.04 173.873C684.26 174.075 684.37 174.322 684.37 174.613C684.37 174.901 684.26 175.147 684.04 175.353C683.823 175.556 683.56 175.657 683.251 175.657ZM689.762 185.16C688.963 185.16 688.27 184.984 687.684 184.632C687.098 184.281 686.644 183.789 686.321 183.157C686.001 182.525 685.841 181.786 685.841 180.941C685.841 180.096 686.001 179.355 686.321 178.72C686.644 178.084 687.098 177.591 687.684 177.239C688.27 176.887 688.963 176.712 689.762 176.712C690.561 176.712 691.253 176.887 691.839 177.239C692.425 177.591 692.878 178.084 693.198 178.72C693.521 179.355 693.682 180.096 693.682 180.941C693.682 181.786 693.521 182.525 693.198 183.157C692.878 183.789 692.425 184.281 691.839 184.632C691.253 184.984 690.561 185.16 689.762 185.16ZM689.772 183.615C690.206 183.615 690.568 183.496 690.859 183.258C691.15 183.017 691.367 182.694 691.509 182.289C691.655 181.884 691.727 181.433 691.727 180.936C691.727 180.435 691.655 179.982 691.509 179.577C691.367 179.169 691.15 178.844 690.859 178.603C690.568 178.361 690.206 178.24 689.772 178.24C689.329 178.24 688.959 178.361 688.665 178.603C688.373 178.844 688.155 179.169 688.009 179.577C687.867 179.982 687.796 180.435 687.796 180.936C687.796 181.433 687.867 181.884 688.009 182.289C688.155 182.694 688.373 183.017 688.665 183.258C688.959 183.496 689.329 183.615 689.772 183.615ZM697.247 180.206V185H695.319V176.818H697.162V178.208H697.258C697.446 177.75 697.746 177.386 698.158 177.116C698.574 176.847 699.087 176.712 699.697 176.712C700.262 176.712 700.754 176.832 701.173 177.074C701.596 177.315 701.922 177.665 702.153 178.123C702.387 178.581 702.503 179.137 702.499 179.79V185H700.571V180.089C700.571 179.542 700.429 179.114 700.145 178.805C699.864 178.496 699.475 178.342 698.978 178.342C698.641 178.342 698.341 178.416 698.078 178.565C697.819 178.711 697.615 178.922 697.466 179.199C697.32 179.476 697.247 179.812 697.247 180.206Z" fill="#3AB222"/>
<path d="M625 105.75C625 104.093 626.343 102.75 628 102.75H703C704.657 102.75 706 104.093 706 105.75V119.25C706 120.907 704.657 122.25 703 122.25H628C626.343 122.25 625 120.907 625 119.25V105.75Z" fill="white" stroke="#3AB222" stroke-width="1.5"/>
<rect x="632.5" y="110.487" width="21" height="4.39474" rx="0.75" fill="white" stroke="#3AB222" stroke-width="1.5"/>
<rect x="694" y="110.487" width="4.5" height="4.39474" rx="2.19737" fill="#3AB222" stroke="#3AB222" stroke-width="1.5"/>
<path d="M625 125.25C625 123.593 626.343 122.25 628 122.25H703C704.657 122.25 706 123.593 706 125.25V138.75C706 140.407 704.657 141.75 703 141.75H628C626.343 141.75 625 140.407 625 138.75V125.25Z" fill="white" stroke="#3AB222" stroke-width="1.5"/>
<rect x="632.5" y="129.987" width="21" height="4.39474" rx="0.75" fill="white" stroke="#3AB222" stroke-width="1.5"/>
<rect x="694" y="129.987" width="4.5" height="4.39474" rx="2.19737" fill="#3AB222" stroke="#3AB222" stroke-width="1.5"/>
<rect x="685.75" y="129.987" width="4.5" height="4.39474" rx="2.19737" fill="#3AB222" stroke="#3AB222" stroke-width="1.5"/>
<path d="M625 144.75C625 143.093 626.343 141.75 628 141.75H703C704.657 141.75 706 143.093 706 144.75V158.25C706 159.907 704.657 161.25 703 161.25H628C626.343 161.25 625 159.907 625 158.25V144.75Z" fill="white" stroke="#3AB222" stroke-width="1.5"/>
<rect x="632.5" y="149.487" width="21" height="4.39474" rx="0.75" fill="white" stroke="#3AB222" stroke-width="1.5"/>
<rect x="694" y="149.487" width="4.5" height="4.39474" rx="2.19737" fill="#3AB222" stroke="#3AB222" stroke-width="1.5"/>
<g clip-path="url(#clip0_1557_2765)">
<path d="M575.51 142.957C574.921 142.389 574.11 142.414 573.403 142.163C570.535 141.136 568.06 139.49 566.346 136.954C565.503 135.704 564.607 135.309 563.15 135.349C559.385 135.456 559.382 135.384 559.382 131.505C559.382 128.581 559.428 125.657 559.36 122.733C559.332 121.551 559.603 120.883 560.91 121.095C563.689 121.54 565.521 120.498 567.482 118.3C573.71 111.309 584.475 112.121 589.85 119.726C590.607 120.8 591.343 121.148 592.593 121.127C596.628 121.055 596.628 121.105 596.628 125.229C596.628 128.092 596.593 130.959 596.646 133.822C596.668 134.921 596.428 135.575 595.185 135.388C592.357 134.961 590.235 135.679 588.468 138.273C586.568 141.064 583.271 142.012 580.143 142.96H575.507L575.51 142.957ZM586.832 121.928C586.768 120.667 584.41 119.363 583.457 119.916C581.868 120.843 580.432 120.34 580.121 118.526C579.864 117.028 578.953 117.168 577.925 117.147C576.907 117.129 576.139 117.157 575.893 118.505C575.553 120.351 574.093 120.969 572.621 119.848C571.425 118.936 570.921 119.719 570.3 120.405C569.728 121.037 568.689 121.425 569.643 122.707C570.818 124.284 570.171 125.829 568.282 126.113C566.993 126.307 566.935 127.036 566.989 127.988C567.046 128.936 566.639 130.018 568.189 130.327C570.232 130.733 570.818 132.112 569.6 133.815C568.743 135.014 569.639 135.417 570.218 135.981C570.825 136.573 571.232 137.604 572.503 136.649C574.068 135.474 575.553 136.096 575.903 137.985C576.153 139.343 577 139.325 577.989 139.322C578.968 139.318 579.835 139.368 580.093 138.007C580.453 136.099 581.918 135.474 583.478 136.638C584.614 137.482 585.06 136.76 585.65 136.128C586.282 135.453 587.318 135.007 586.31 133.682C585.196 132.216 585.85 130.636 587.618 130.366C589.089 130.14 589.028 129.253 589.028 128.193C589.028 127.119 589.064 126.264 587.56 126.095C585.907 125.908 585.36 124.356 586.214 122.851C586.414 122.499 586.668 122.176 586.828 121.939L586.832 121.928Z" fill="#3AB222"/>
<path d="M553.043 120.01C554.268 119.352 555.589 119.737 556.864 119.665C557.589 119.625 557.732 120.125 557.732 120.721C557.732 125.711 557.732 130.7 557.732 135.69C557.732 136.394 557.446 136.85 556.696 136.821C555.471 136.778 554.218 137.076 553.039 136.502V120.01H553.043Z" fill="#3AB222"/>
<path d="M583 106.025C584.328 108.418 583.721 109.492 580.939 109.506C579.857 109.51 579.221 109.732 579.385 110.972C579.546 112.186 578.71 112.078 577.917 112.103C577.096 112.128 576.485 111.999 576.625 110.975C576.792 109.74 576.16 109.513 575.075 109.51C572.296 109.495 571.689 108.421 573.014 106.029H583V106.025Z" fill="#3AB222"/>
<path d="M602.757 120.003C602.743 125.506 602.728 131.006 602.718 136.509C601.546 137.166 600.285 136.778 599.064 136.785C598.364 136.789 598.278 136.182 598.278 135.611C598.278 130.661 598.278 125.711 598.278 120.76C598.278 120.179 598.382 119.622 599.114 119.672C600.328 119.758 601.6 119.288 602.757 120.003Z" fill="#3AB222"/>
<path d="M578 122.147C581.443 122.147 584.079 124.802 584.068 128.265C584.057 131.645 581.286 134.389 577.925 134.346C574.639 134.303 571.961 131.584 571.946 128.279C571.929 124.816 574.561 122.151 578 122.147ZM579.254 126.752C580.432 127.571 581.496 128.196 579.814 129.292C579.336 129.605 579.339 130.197 579.868 130.47C580.704 130.909 581.171 130.09 581.657 129.669C582.182 129.217 583.336 128.832 582.807 127.934C581.907 126.404 580.414 125.682 578.596 125.883C577.232 126.034 577.636 127.309 577.282 128.092C577.075 128.548 576.975 129.055 576.811 129.587C575.507 128.886 574.586 128.257 576.214 127.054C576.693 126.702 576.6 126.059 576.032 125.933C575.007 125.707 574.521 126.695 573.846 127.219C573.454 127.525 572.782 127.909 573.171 128.498C574.157 129.985 575.582 130.729 577.407 130.582C578.729 130.477 578.368 129.288 578.7 128.559C578.939 128.035 579.046 127.453 579.257 126.752H579.254Z" fill="#3AB222"/>
</g>
<path d="M367.789 370.818V372.31H362.953V370.818H367.789ZM364.162 379V370.046C364.162 369.495 364.275 369.037 364.503 368.672C364.733 368.306 365.042 368.032 365.43 367.851C365.817 367.67 366.246 367.58 366.719 367.58C367.052 367.58 367.349 367.606 367.608 367.659C367.867 367.713 368.059 367.761 368.183 367.803L367.8 369.295C367.718 369.27 367.615 369.245 367.491 369.22C367.367 369.192 367.228 369.178 367.075 369.178C366.717 369.178 366.463 369.265 366.314 369.439C366.168 369.609 366.095 369.854 366.095 370.174V379H364.162ZM372.614 379.16C371.794 379.16 371.085 378.989 370.489 378.648C369.896 378.304 369.439 377.817 369.12 377.189C368.8 376.557 368.64 375.813 368.64 374.957C368.64 374.115 368.8 373.377 369.12 372.741C369.443 372.102 369.894 371.605 370.473 371.25C371.051 370.891 371.731 370.712 372.513 370.712C373.017 370.712 373.493 370.793 373.94 370.957C374.391 371.116 374.789 371.365 375.133 371.702C375.481 372.04 375.755 372.469 375.954 372.991C376.153 373.51 376.252 374.128 376.252 374.845V375.436H369.546V374.137H374.404C374.4 373.767 374.32 373.439 374.164 373.151C374.008 372.86 373.789 372.631 373.509 372.464C373.232 372.297 372.909 372.214 372.539 372.214C372.145 372.214 371.799 372.31 371.501 372.501C371.202 372.69 370.97 372.938 370.803 373.247C370.639 373.553 370.556 373.888 370.552 374.254V375.388C370.552 375.864 370.639 376.273 370.813 376.614C370.987 376.951 371.231 377.21 371.543 377.391C371.856 377.569 372.222 377.658 372.641 377.658C372.921 377.658 373.175 377.619 373.402 377.54C373.63 377.459 373.827 377.34 373.994 377.184C374.16 377.027 374.286 376.834 374.372 376.603L376.172 376.805C376.059 377.281 375.842 377.697 375.522 378.052C375.206 378.403 374.801 378.677 374.308 378.872C373.814 379.064 373.25 379.16 372.614 379.16ZM380.238 379.165C379.719 379.165 379.252 379.073 378.837 378.888C378.425 378.7 378.098 378.423 377.857 378.057C377.619 377.691 377.5 377.24 377.5 376.704C377.5 376.243 377.585 375.861 377.756 375.559C377.926 375.257 378.159 375.016 378.453 374.835C378.748 374.653 379.08 374.517 379.449 374.424C379.822 374.328 380.208 374.259 380.605 374.217C381.085 374.167 381.474 374.123 381.772 374.083C382.07 374.041 382.287 373.977 382.422 373.892C382.56 373.803 382.629 373.666 382.629 373.482V373.45C382.629 373.048 382.51 372.738 382.273 372.517C382.035 372.297 381.692 372.187 381.244 372.187C380.772 372.187 380.398 372.29 380.121 372.496C379.847 372.702 379.662 372.945 379.567 373.226L377.766 372.97C377.908 372.473 378.143 372.058 378.469 371.724C378.796 371.386 379.195 371.134 379.668 370.967C380.14 370.797 380.662 370.712 381.234 370.712C381.628 370.712 382.02 370.758 382.411 370.85C382.802 370.942 383.159 371.095 383.482 371.308C383.805 371.518 384.064 371.804 384.259 372.166C384.458 372.528 384.558 372.981 384.558 373.524V379H382.704V377.876H382.64C382.523 378.103 382.358 378.316 382.145 378.515C381.935 378.711 381.671 378.869 381.351 378.989C381.035 379.107 380.664 379.165 380.238 379.165ZM380.738 377.748C381.126 377.748 381.461 377.672 381.745 377.519C382.029 377.363 382.248 377.157 382.4 376.901C382.557 376.646 382.635 376.367 382.635 376.065V375.101C382.574 375.151 382.471 375.197 382.326 375.239C382.184 375.282 382.024 375.319 381.846 375.351C381.669 375.383 381.493 375.412 381.319 375.436C381.145 375.461 380.994 375.483 380.866 375.5C380.579 375.539 380.321 375.603 380.094 375.692C379.867 375.781 379.687 375.905 379.556 376.065C379.425 376.221 379.359 376.424 379.359 376.672C379.359 377.027 379.488 377.295 379.748 377.477C380.007 377.658 380.337 377.748 380.738 377.748ZM390.582 370.818V372.31H385.879V370.818H390.582ZM387.04 368.858H388.968V376.539C388.968 376.798 389.007 376.997 389.085 377.136C389.167 377.271 389.274 377.363 389.405 377.413C389.536 377.462 389.682 377.487 389.842 377.487C389.963 377.487 390.073 377.478 390.172 377.461C390.275 377.443 390.353 377.427 390.406 377.413L390.731 378.92C390.628 378.956 390.481 378.995 390.289 379.037C390.101 379.08 389.87 379.105 389.597 379.112C389.114 379.126 388.679 379.053 388.292 378.893C387.905 378.73 387.597 378.478 387.37 378.137C387.146 377.796 387.036 377.37 387.04 376.859V368.858ZM397.41 375.559V370.818H399.338V379H397.468V377.546H397.383C397.198 378.004 396.895 378.379 396.472 378.67C396.053 378.961 395.536 379.107 394.922 379.107C394.386 379.107 393.912 378.988 393.5 378.75C393.092 378.508 392.772 378.158 392.541 377.7C392.31 377.239 392.195 376.681 392.195 376.028V370.818H394.123V375.729C394.123 376.248 394.265 376.66 394.549 376.965C394.833 377.271 395.206 377.423 395.668 377.423C395.952 377.423 396.227 377.354 396.494 377.216C396.76 377.077 396.978 376.871 397.149 376.598C397.323 376.321 397.41 375.974 397.41 375.559ZM401.321 379V370.818H403.191V372.182H403.276C403.425 371.71 403.681 371.346 404.043 371.09C404.409 370.831 404.826 370.701 405.295 370.701C405.401 370.701 405.52 370.706 405.651 370.717C405.786 370.724 405.898 370.737 405.987 370.754V372.528C405.905 372.5 405.776 372.475 405.598 372.453C405.424 372.429 405.256 372.416 405.092 372.416C404.741 372.416 404.425 372.493 404.144 372.645C403.867 372.794 403.649 373.002 403.489 373.268C403.329 373.535 403.249 373.842 403.249 374.19V379H401.321ZM410.553 379.16C409.733 379.16 409.025 378.989 408.428 378.648C407.835 378.304 407.379 377.817 407.059 377.189C406.739 376.557 406.58 375.813 406.58 374.957C406.58 374.115 406.739 373.377 407.059 372.741C407.382 372.102 407.833 371.605 408.412 371.25C408.991 370.891 409.671 370.712 410.452 370.712C410.956 370.712 411.432 370.793 411.88 370.957C412.331 371.116 412.728 371.365 413.073 371.702C413.421 372.04 413.694 372.469 413.893 372.991C414.092 373.51 414.191 374.128 414.191 374.845V375.436H407.485V374.137H412.343C412.34 373.767 412.26 373.439 412.103 373.151C411.947 372.86 411.729 372.631 411.448 372.464C411.171 372.297 410.848 372.214 410.479 372.214C410.085 372.214 409.738 372.31 409.44 372.501C409.142 372.69 408.909 372.938 408.742 373.247C408.579 373.553 408.495 373.888 408.492 374.254V375.388C408.492 375.864 408.579 376.273 408.753 376.614C408.927 376.951 409.17 377.21 409.483 377.391C409.795 377.569 410.161 377.658 410.58 377.658C410.861 377.658 411.114 377.619 411.342 377.54C411.569 377.459 411.766 377.34 411.933 377.184C412.1 377.027 412.226 376.834 412.311 376.603L414.112 376.805C413.998 377.281 413.781 377.697 413.462 378.052C413.146 378.403 412.741 378.677 412.247 378.872C411.754 379.064 411.189 379.16 410.553 379.16ZM420.782 373.663V375.25H415.871V373.663H420.782ZM427.226 368.091V379H425.25V370.014H425.186L422.634 371.644V369.833L425.346 368.091H427.226ZM434.976 373.663V375.25H430.065V373.663H434.976ZM440.627 379.16C439.806 379.16 439.098 378.989 438.501 378.648C437.908 378.304 437.452 377.817 437.132 377.189C436.813 376.557 436.653 375.813 436.653 374.957C436.653 374.115 436.813 373.377 437.132 372.741C437.455 372.102 437.906 371.605 438.485 371.25C439.064 370.891 439.744 370.712 440.525 370.712C441.03 370.712 441.506 370.793 441.953 370.957C442.404 371.116 442.802 371.365 443.146 371.702C443.494 372.04 443.768 372.469 443.966 372.991C444.165 373.51 444.265 374.128 444.265 374.845V375.436H437.558V374.137H442.416C442.413 373.767 442.333 373.439 442.177 373.151C442.02 372.86 441.802 372.631 441.521 372.464C441.244 372.297 440.921 372.214 440.552 372.214C440.158 372.214 439.812 372.31 439.513 372.501C439.215 372.69 438.982 372.938 438.816 373.247C438.652 373.553 438.569 373.888 438.565 374.254V375.388C438.565 375.864 438.652 376.273 438.826 376.614C439 376.951 439.243 377.21 439.556 377.391C439.868 377.569 440.234 377.658 440.653 377.658C440.934 377.658 441.188 377.619 441.415 377.54C441.642 377.459 441.839 377.34 442.006 377.184C442.173 377.027 442.299 376.834 442.384 376.603L444.185 376.805C444.071 377.281 443.855 377.697 443.535 378.052C443.219 378.403 442.814 378.677 442.32 378.872C441.827 379.064 441.262 379.16 440.627 379.16ZM447.824 374.206V379H445.896V370.818H447.739V372.208H447.835C448.023 371.75 448.323 371.386 448.735 371.116C449.151 370.847 449.664 370.712 450.275 370.712C450.839 370.712 451.331 370.832 451.75 371.074C452.173 371.315 452.499 371.665 452.73 372.123C452.965 372.581 453.08 373.137 453.076 373.79V379H451.148V374.089C451.148 373.542 451.006 373.114 450.722 372.805C450.441 372.496 450.053 372.342 449.555 372.342C449.218 372.342 448.918 372.416 448.655 372.565C448.396 372.711 448.192 372.922 448.043 373.199C447.897 373.476 447.824 373.812 447.824 374.206ZM462.052 370.818L459.138 379H457.008L454.094 370.818H456.15L458.03 376.896H458.116L460.001 370.818H462.052ZM464.061 379.117C463.738 379.117 463.461 379.004 463.23 378.776C463 378.549 462.886 378.272 462.89 377.945C462.886 377.626 463 377.352 463.23 377.125C463.461 376.898 463.738 376.784 464.061 376.784C464.374 376.784 464.646 376.898 464.876 377.125C465.111 377.352 465.23 377.626 465.233 377.945C465.23 378.162 465.173 378.359 465.063 378.537C464.956 378.714 464.814 378.856 464.637 378.963C464.463 379.066 464.271 379.117 464.061 379.117ZM469.579 379.165C469.06 379.165 468.593 379.073 468.178 378.888C467.766 378.7 467.439 378.423 467.198 378.057C466.96 377.691 466.841 377.24 466.841 376.704C466.841 376.243 466.926 375.861 467.096 375.559C467.267 375.257 467.499 375.016 467.794 374.835C468.089 374.653 468.421 374.517 468.79 374.424C469.163 374.328 469.548 374.259 469.946 374.217C470.426 374.167 470.814 374.123 471.113 374.083C471.411 374.041 471.628 373.977 471.763 373.892C471.901 373.803 471.97 373.666 471.97 373.482V373.45C471.97 373.048 471.851 372.738 471.613 372.517C471.375 372.297 471.033 372.187 470.585 372.187C470.113 372.187 469.738 372.29 469.461 372.496C469.188 372.702 469.003 372.945 468.907 373.226L467.107 372.97C467.249 372.473 467.483 372.058 467.81 371.724C468.137 371.386 468.536 371.134 469.009 370.967C469.481 370.797 470.003 370.712 470.575 370.712C470.969 370.712 471.361 370.758 471.752 370.85C472.142 370.942 472.499 371.095 472.823 371.308C473.146 371.518 473.405 371.804 473.6 372.166C473.799 372.528 473.899 372.981 473.899 373.524V379H472.045V377.876H471.981C471.864 378.103 471.699 378.316 471.486 378.515C471.276 378.711 471.011 378.869 470.692 378.989C470.376 379.107 470.005 379.165 469.579 379.165ZM470.079 377.748C470.466 377.748 470.802 377.672 471.086 377.519C471.37 377.363 471.589 377.157 471.741 376.901C471.897 376.646 471.976 376.367 471.976 376.065V375.101C471.915 375.151 471.812 375.197 471.667 375.239C471.525 375.282 471.365 375.319 471.187 375.351C471.01 375.383 470.834 375.412 470.66 375.436C470.486 375.461 470.335 375.483 470.207 375.5C469.919 375.539 469.662 375.603 469.435 375.692C469.207 375.781 469.028 375.905 468.897 376.065C468.765 376.221 468.7 376.424 468.7 376.672C468.7 377.027 468.829 377.295 469.089 377.477C469.348 377.658 469.678 377.748 470.079 377.748ZM475.837 382.068V370.818H477.734V372.171H477.846C477.945 371.972 478.085 371.761 478.266 371.537C478.448 371.31 478.693 371.116 479.002 370.957C479.31 370.793 479.705 370.712 480.184 370.712C480.816 370.712 481.386 370.873 481.894 371.196C482.405 371.516 482.81 371.99 483.108 372.619C483.41 373.244 483.561 374.011 483.561 374.92C483.561 375.818 483.414 376.582 483.119 377.21C482.824 377.839 482.423 378.318 481.915 378.648C481.407 378.979 480.832 379.144 480.189 379.144C479.721 379.144 479.332 379.066 479.023 378.909C478.714 378.753 478.465 378.565 478.277 378.345C478.092 378.121 477.949 377.91 477.846 377.711H477.766V382.068H475.837ZM477.728 374.909C477.728 375.438 477.803 375.902 477.952 376.299C478.105 376.697 478.323 377.008 478.607 377.232C478.895 377.452 479.243 377.562 479.651 377.562C480.078 377.562 480.434 377.448 480.722 377.221C481.01 376.99 481.226 376.676 481.372 376.278C481.521 375.877 481.596 375.42 481.596 374.909C481.596 374.401 481.523 373.95 481.377 373.556C481.232 373.162 481.015 372.853 480.727 372.629C480.44 372.406 480.081 372.294 479.651 372.294C479.239 372.294 478.89 372.402 478.602 372.619C478.314 372.835 478.096 373.139 477.947 373.529C477.801 373.92 477.728 374.38 477.728 374.909ZM485.212 382.068V370.818H487.109V372.171H487.221C487.32 371.972 487.46 371.761 487.641 371.537C487.823 371.31 488.068 371.116 488.377 370.957C488.685 370.793 489.08 370.712 489.559 370.712C490.191 370.712 490.761 370.873 491.269 371.196C491.78 371.516 492.185 371.99 492.483 372.619C492.785 373.244 492.936 374.011 492.936 374.92C492.936 375.818 492.789 376.582 492.494 377.21C492.199 377.839 491.798 378.318 491.29 378.648C490.782 378.979 490.207 379.144 489.564 379.144C489.096 379.144 488.707 379.066 488.398 378.909C488.089 378.753 487.84 378.565 487.652 378.345C487.467 378.121 487.324 377.91 487.221 377.711H487.141V382.068H485.212ZM487.103 374.909C487.103 375.438 487.178 375.902 487.327 376.299C487.48 376.697 487.698 377.008 487.982 377.232C488.27 377.452 488.618 377.562 489.026 377.562C489.453 377.562 489.809 377.448 490.097 377.221C490.385 376.99 490.601 376.676 490.747 376.278C490.896 375.877 490.971 375.42 490.971 374.909C490.971 374.401 490.898 373.95 490.752 373.556C490.607 373.162 490.39 372.853 490.102 372.629C489.815 372.406 489.456 372.294 489.026 372.294C488.614 372.294 488.265 372.402 487.977 372.619C487.689 372.835 487.471 373.139 487.322 373.529C487.176 373.92 487.103 374.38 487.103 374.909ZM495.775 379.117C495.452 379.117 495.175 379.004 494.944 378.776C494.714 378.549 494.6 378.272 494.603 377.945C494.6 377.626 494.714 377.352 494.944 377.125C495.175 376.898 495.452 376.784 495.775 376.784C496.088 376.784 496.359 376.898 496.59 377.125C496.825 377.352 496.944 377.626 496.947 377.945C496.944 378.162 496.887 378.359 496.777 378.537C496.67 378.714 496.528 378.856 496.351 378.963C496.177 379.066 495.985 379.117 495.775 379.117ZM502.56 379.16C501.74 379.16 501.031 378.989 500.435 378.648C499.842 378.304 499.385 377.817 499.066 377.189C498.746 376.557 498.586 375.813 498.586 374.957C498.586 374.115 498.746 373.377 499.066 372.741C499.389 372.102 499.84 371.605 500.419 371.25C500.998 370.891 501.678 370.712 502.459 370.712C502.963 370.712 503.439 370.793 503.887 370.957C504.338 371.116 504.735 371.365 505.08 371.702C505.428 372.04 505.701 372.469 505.9 372.991C506.099 373.51 506.198 374.128 506.198 374.845V375.436H499.492V374.137H504.35C504.346 373.767 504.267 373.439 504.11 373.151C503.954 372.86 503.736 372.631 503.455 372.464C503.178 372.297 502.855 372.214 502.486 372.214C502.091 372.214 501.745 372.31 501.447 372.501C501.149 372.69 500.916 372.938 500.749 373.247C500.586 373.553 500.502 373.888 500.499 374.254V375.388C500.499 375.864 500.586 376.273 500.76 376.614C500.934 376.951 501.177 377.21 501.49 377.391C501.802 377.569 502.168 377.658 502.587 377.658C502.867 377.658 503.121 377.619 503.349 377.54C503.576 377.459 503.773 377.34 503.94 377.184C504.107 377.027 504.233 376.834 504.318 376.603L506.118 376.805C506.005 377.281 505.788 377.697 505.469 378.052C505.153 378.403 504.748 378.677 504.254 378.872C503.76 379.064 503.196 379.16 502.56 379.16ZM509.231 370.818L510.882 373.838L512.56 370.818H514.6L512.134 374.909L514.642 379H512.613L510.882 376.054L509.167 379H507.121L509.614 374.909L507.185 370.818H509.231ZM518.416 379.165C517.898 379.165 517.431 379.073 517.016 378.888C516.604 378.7 516.277 378.423 516.035 378.057C515.797 377.691 515.679 377.24 515.679 376.704C515.679 376.243 515.764 375.861 515.934 375.559C516.105 375.257 516.337 375.016 516.632 374.835C516.927 374.653 517.259 374.517 517.628 374.424C518.001 374.328 518.386 374.259 518.784 374.217C519.263 374.167 519.652 374.123 519.951 374.083C520.249 374.041 520.465 373.977 520.6 373.892C520.739 373.803 520.808 373.666 520.808 373.482V373.45C520.808 373.048 520.689 372.738 520.451 372.517C520.213 372.297 519.871 372.187 519.423 372.187C518.951 372.187 518.576 372.29 518.299 372.496C518.026 372.702 517.841 372.945 517.745 373.226L515.945 372.97C516.087 372.473 516.321 372.058 516.648 371.724C516.975 371.386 517.374 371.134 517.847 370.967C518.319 370.797 518.841 370.712 519.413 370.712C519.807 370.712 520.199 370.758 520.59 370.85C520.98 370.942 521.337 371.095 521.66 371.308C521.984 371.518 522.243 371.804 522.438 372.166C522.637 372.528 522.736 372.981 522.736 373.524V379H520.883V377.876H520.819C520.702 378.103 520.536 378.316 520.323 378.515C520.114 378.711 519.849 378.869 519.53 378.989C519.214 379.107 518.843 379.165 518.416 379.165ZM518.917 377.748C519.304 377.748 519.64 377.672 519.924 377.519C520.208 377.363 520.426 377.157 520.579 376.901C520.735 376.646 520.813 376.367 520.813 376.065V375.101C520.753 375.151 520.65 375.197 520.505 375.239C520.362 375.282 520.203 375.319 520.025 375.351C519.848 375.383 519.672 375.412 519.498 375.436C519.324 375.461 519.173 375.483 519.045 375.5C518.757 375.539 518.5 375.603 518.273 375.692C518.045 375.781 517.866 375.905 517.735 376.065C517.603 376.221 517.538 376.424 517.538 376.672C517.538 377.027 517.667 377.295 517.926 377.477C518.186 377.658 518.516 377.748 518.917 377.748ZM524.675 379V370.818H526.518V372.208H526.614C526.785 371.74 527.067 371.374 527.461 371.111C527.855 370.845 528.326 370.712 528.873 370.712C529.427 370.712 529.894 370.847 530.274 371.116C530.657 371.383 530.927 371.747 531.083 372.208H531.169C531.35 371.754 531.655 371.392 532.085 371.122C532.518 370.848 533.031 370.712 533.624 370.712C534.377 370.712 534.991 370.95 535.467 371.425C535.943 371.901 536.181 372.596 536.181 373.508V379H534.247V373.806C534.247 373.299 534.112 372.928 533.843 372.693C533.573 372.455 533.242 372.336 532.852 372.336C532.387 372.336 532.023 372.482 531.76 372.773C531.501 373.061 531.371 373.435 531.371 373.897V379H529.48V373.727C529.48 373.304 529.352 372.967 529.097 372.714C528.844 372.462 528.514 372.336 528.106 372.336C527.829 372.336 527.577 372.407 527.349 372.549C527.122 372.688 526.941 372.885 526.806 373.141C526.671 373.393 526.604 373.687 526.604 374.025V379H524.675ZM538.137 382.068V370.818H540.034V372.171H540.145C540.245 371.972 540.385 371.761 540.566 371.537C540.747 371.31 540.992 371.116 541.301 370.957C541.61 370.793 542.004 370.712 542.484 370.712C543.116 370.712 543.686 370.873 544.194 371.196C544.705 371.516 545.11 371.99 545.408 372.619C545.71 373.244 545.861 374.011 545.861 374.92C545.861 375.818 545.714 376.582 545.419 377.21C545.124 377.839 544.723 378.318 544.215 378.648C543.707 378.979 543.132 379.144 542.489 379.144C542.02 379.144 541.632 379.066 541.323 378.909C541.014 378.753 540.765 378.565 540.577 378.345C540.392 378.121 540.248 377.91 540.145 377.711H540.066V382.068H538.137ZM540.028 374.909C540.028 375.438 540.103 375.902 540.252 376.299C540.405 376.697 540.623 377.008 540.907 377.232C541.195 377.452 541.543 377.562 541.951 377.562C542.377 377.562 542.734 377.448 543.022 377.221C543.309 376.99 543.526 376.676 543.672 376.278C543.821 375.877 543.895 375.42 543.895 374.909C543.895 374.401 543.823 373.95 543.677 373.556C543.531 373.162 543.315 372.853 543.027 372.629C542.74 372.406 542.381 372.294 541.951 372.294C541.539 372.294 541.189 372.402 540.902 372.619C540.614 372.835 540.396 373.139 540.247 373.529C540.101 373.92 540.028 374.38 540.028 374.909ZM549.441 368.091V379H547.512V368.091H549.441ZM555.046 379.16C554.225 379.16 553.517 378.989 552.92 378.648C552.327 378.304 551.871 377.817 551.551 377.189C551.232 376.557 551.072 375.813 551.072 374.957C551.072 374.115 551.232 373.377 551.551 372.741C551.874 372.102 552.325 371.605 552.904 371.25C553.483 370.891 554.163 370.712 554.944 370.712C555.449 370.712 555.924 370.793 556.372 370.957C556.823 371.116 557.221 371.365 557.565 371.702C557.913 372.04 558.187 372.469 558.385 372.991C558.584 373.51 558.684 374.128 558.684 374.845V375.436H551.977V374.137H556.835C556.832 373.767 556.752 373.439 556.596 373.151C556.439 372.86 556.221 372.631 555.94 372.464C555.663 372.297 555.34 372.214 554.971 372.214C554.577 372.214 554.231 372.31 553.932 372.501C553.634 372.69 553.401 372.938 553.234 373.247C553.071 373.553 552.988 373.888 552.984 374.254V375.388C552.984 375.864 553.071 376.273 553.245 376.614C553.419 376.951 553.662 377.21 553.975 377.391C554.287 377.569 554.653 377.658 555.072 377.658C555.353 377.658 555.607 377.619 555.834 377.54C556.061 377.459 556.258 377.34 556.425 377.184C556.592 377.027 556.718 376.834 556.803 376.603L558.604 376.805C558.49 377.281 558.274 377.697 557.954 378.052C557.638 378.403 557.233 378.677 556.739 378.872C556.246 379.064 555.681 379.16 555.046 379.16ZM561.503 379.117C561.18 379.117 560.903 379.004 560.672 378.776C560.441 378.549 560.327 378.272 560.331 377.945C560.327 377.626 560.441 377.352 560.672 377.125C560.903 376.898 561.18 376.784 561.503 376.784C561.815 376.784 562.087 376.898 562.318 377.125C562.552 377.352 562.671 377.626 562.675 377.945C562.671 378.162 562.614 378.359 562.504 378.537C562.398 378.714 562.256 378.856 562.078 378.963C561.904 379.066 561.712 379.117 561.503 379.117ZM568.234 379.16C567.418 379.16 566.716 378.98 566.13 378.622C565.548 378.263 565.099 377.768 564.783 377.136C564.47 376.5 564.314 375.768 564.314 374.941C564.314 374.11 564.474 373.377 564.793 372.741C565.113 372.102 565.564 371.605 566.146 371.25C566.732 370.891 567.425 370.712 568.224 370.712C568.888 370.712 569.476 370.834 569.987 371.079C570.502 371.321 570.912 371.663 571.217 372.107C571.523 372.548 571.697 373.062 571.739 373.652H569.896C569.822 373.258 569.644 372.929 569.364 372.667C569.087 372.4 568.716 372.267 568.25 372.267C567.856 372.267 567.51 372.374 567.212 372.587C566.913 372.796 566.681 373.098 566.514 373.492C566.351 373.886 566.269 374.359 566.269 374.909C566.269 375.467 566.351 375.946 566.514 376.347C566.677 376.745 566.906 377.052 567.201 377.269C567.499 377.482 567.849 377.588 568.25 377.588C568.535 377.588 568.788 377.535 569.012 377.429C569.239 377.319 569.429 377.161 569.582 376.955C569.735 376.749 569.84 376.498 569.896 376.203H571.739C571.693 376.782 571.523 377.295 571.228 377.743C570.933 378.187 570.532 378.535 570.024 378.787C569.516 379.036 568.92 379.16 568.234 379.16ZM576.892 379.16C576.093 379.16 575.4 378.984 574.814 378.632C574.228 378.281 573.774 377.789 573.451 377.157C573.131 376.525 572.971 375.786 572.971 374.941C572.971 374.096 573.131 373.355 573.451 372.72C573.774 372.084 574.228 371.591 574.814 371.239C575.4 370.887 576.093 370.712 576.892 370.712C577.691 370.712 578.383 370.887 578.969 371.239C579.555 371.591 580.008 372.084 580.327 372.72C580.651 373.355 580.812 374.096 580.812 374.941C580.812 375.786 580.651 376.525 580.327 377.157C580.008 377.789 579.555 378.281 578.969 378.632C578.383 378.984 577.691 379.16 576.892 379.16ZM576.902 377.615C577.336 377.615 577.698 377.496 577.989 377.258C578.28 377.017 578.497 376.694 578.639 376.289C578.784 375.884 578.857 375.433 578.857 374.936C578.857 374.435 578.784 373.982 578.639 373.577C578.497 373.169 578.28 372.844 577.989 372.603C577.698 372.361 577.336 372.24 576.902 372.24C576.458 372.24 576.089 372.361 575.794 372.603C575.503 372.844 575.285 373.169 575.139 373.577C574.997 373.982 574.926 374.435 574.926 374.936C574.926 375.433 574.997 375.884 575.139 376.289C575.285 376.694 575.503 377.017 575.794 377.258C576.089 377.496 576.458 377.615 576.902 377.615ZM582.449 379V370.818H584.292V372.208H584.388C584.558 371.74 584.84 371.374 585.235 371.111C585.629 370.845 586.099 370.712 586.646 370.712C587.2 370.712 587.667 370.847 588.047 371.116C588.431 371.383 588.701 371.747 588.857 372.208H588.942C589.123 371.754 589.429 371.392 589.858 371.122C590.291 370.848 590.805 370.712 591.398 370.712C592.15 370.712 592.765 370.95 593.241 371.425C593.717 371.901 593.954 372.596 593.954 373.508V379H592.021V373.806C592.021 373.299 591.886 372.928 591.616 372.693C591.346 372.455 591.016 372.336 590.625 372.336C590.16 372.336 589.796 372.482 589.533 372.773C589.274 373.061 589.144 373.435 589.144 373.897V379H587.253V373.727C587.253 373.304 587.126 372.967 586.87 372.714C586.618 372.462 586.288 372.336 585.879 372.336C585.602 372.336 585.35 372.407 585.123 372.549C584.896 372.688 584.714 372.885 584.579 373.141C584.445 373.393 584.377 373.687 584.377 374.025V379H582.449Z" fill="#2C79E3"/>
<path d="M265 345.75C265 344.093 266.343 342.75 268 342.75H343C344.657 342.75 346 344.093 346 345.75V359.25C346 360.907 344.657 362.25 343 362.25H268C266.343 362.25 265 360.907 265 359.25V345.75Z" fill="white" stroke="#2C79E3" stroke-width="1.5"/>
<rect x="272.5" y="350.487" width="21" height="4.39474" rx="0.75" fill="white" stroke="#2C79E3" stroke-width="1.5"/>
<rect x="334" y="350.487" width="4.5" height="4.39474" rx="2.19737" fill="#2C79E3" stroke="#2C79E3" stroke-width="1.5"/>
<path d="M265 365.25C265 363.593 266.343 362.25 268 362.25H343C344.657 362.25 346 363.593 346 365.25V378.75C346 380.407 344.657 381.75 343 381.75H268C266.343 381.75 265 380.407 265 378.75V365.25Z" fill="white" stroke="#2C79E3" stroke-width="1.5"/>
<rect x="272.5" y="369.987" width="21" height="4.39474" rx="0.75" fill="white" stroke="#2C79E3" stroke-width="1.5"/>
<rect x="334" y="369.987" width="4.5" height="4.39474" rx="2.19737" fill="#2C79E3" stroke="#2C79E3" stroke-width="1.5"/>
<rect x="325.75" y="369.987" width="4.5" height="4.39474" rx="2.19737" fill="#2C79E3" stroke="#2C79E3" stroke-width="1.5"/>
<path d="M265 384.75C265 383.093 266.343 381.75 268 381.75H343C344.657 381.75 346 383.093 346 384.75V398.25C346 399.907 344.657 401.25 343 401.25H268C266.343 401.25 265 399.907 265 398.25V384.75Z" fill="white" stroke="#2C79E3" stroke-width="1.5"/>
<rect x="272.5" y="389.487" width="21" height="4.39474" rx="0.75" fill="white" stroke="#2C79E3" stroke-width="1.5"/>
<rect x="334" y="389.487" width="4.5" height="4.39474" rx="2.19737" fill="#2C79E3" stroke="#2C79E3" stroke-width="1.5"/>
<path d="M157.875 128C176.049 128 187.489 319.319 252 320.215C316.511 321.11 253 320.215 283.75 320.215C314.5 320.215 383 320.215 403 320.215C463.5 320.215 461.5 128 492 128" stroke="#8F95B2" stroke-width="2" stroke-linecap="round" stroke-linejoin="round"/>
<circle cx="281.5" cy="320.532" r="3.5" fill="#EDEFF5" stroke="#8F95B2" stroke-width="2"/>
<circle cx="296.5" cy="320.532" r="3.5" fill="#EDEFF5" stroke="#8F95B2" stroke-width="2"/>
<circle cx="311.5" cy="320.532" r="3.5" fill="#EDEFF5" stroke="#8F95B2" stroke-width="2"/>
<circle cx="326.5" cy="320.532" r="3.5" fill="#EDEFF5" stroke="#8F95B2" stroke-width="2"/>
<circle cx="341.5" cy="320.532" r="3.5" fill="#EDEFF5" stroke="#8F95B2" stroke-width="2"/>
<path d="M189.875 128C208.049 128 206 196.215 238.5 196.215C271 196.215 255.625 196.215 286.375 196.215" stroke="#8F95B2" stroke-width="2" stroke-linecap="round" stroke-linejoin="round"/>
<path d="M283.375 196.25C331.5 196.25 315.25 128.5 333 128.5C350.75 128.5 337.25 196.25 381 196.25C381 196.25 388.875 196.25 420.625 196.25C452.375 196.25 450.25 128.5 463.25 128.5" stroke="#8F95B2" stroke-width="2"/>
<circle cx="249.5" cy="196" r="3.5" fill="#EDEFF5" stroke="#8F95B2" stroke-width="2"/>
<circle cx="264.5" cy="196" r="3.5" fill="#EDEFF5" stroke="#8F95B2" stroke-width="2"/>
<circle cx="279.5" cy="196" r="3.5" fill="#EDEFF5" stroke="#8F95B2" stroke-width="2"/>
<circle cx="384.5" cy="196" r="3.5" fill="#EDEFF5" stroke="#8F95B2" stroke-width="2"/>
<circle cx="399.5" cy="196" r="3.5" fill="#EDEFF5" stroke="#8F95B2" stroke-width="2"/>
<circle cx="414.5" cy="196" r="3.5" fill="#EDEFF5" stroke="#8F95B2" stroke-width="2"/>
<circle cx="157.625" cy="128" r="3.5" fill="#3AB222"/>
<circle cx="191.625" cy="128" r="3.5" fill="#3AB222"/>
<circle cx="333.5" cy="128" r="3.5" fill="#3AB222"/>
<circle cx="462.5" cy="128" r="3.5" fill="#3AB222"/>
<circle cx="489.5" cy="128" r="3.5" fill="#3AB222"/>
<path d="M490.305 88.4175C490.145 88.1775 489.905 88.0175 489.625 88.0175C489.345 88.0175 489.065 88.1775 488.945 88.4175L476.745 109.497C476.585 109.737 476.585 110.057 476.745 110.297C476.905 110.537 477.145 110.697 477.425 110.697H501.785C502.225 110.697 502.585 110.337 502.585 109.897C502.585 109.697 502.505 109.537 502.425 109.418L490.305 88.4175ZM490.985 97.6975L490.705 103.817H489.225L488.905 97.6975H490.985ZM489.945 106.417C489.185 106.417 488.665 106.057 488.665 105.617C488.665 105.177 489.185 104.817 489.945 104.817C490.705 104.817 491.225 105.138 491.225 105.617C491.225 106.057 490.705 106.417 489.945 106.417Z" fill="#E5AC00"/>
<rect opacity="0.7" x="313" y="113.106" width="159" height="31.394" rx="11" stroke="#E5AC00" stroke-width="2" stroke-dasharray="4 4"/>
<defs>
<clipPath id="clip0_1557_2765">
<rect width="50" height="37" fill="white" transform="translate(553 106)"/>
</clipPath>
</defs>
</svg>
