<svg width="844" height="471" viewBox="0 0 844 471" fill="none" xmlns="http://www.w3.org/2000/svg">
<rect width="844" height="471" rx="10" fill="white"/>
<path d="M313.189 71.3652C320.48 74.4195 329.188 73.7586 335.56 69.0768C354.398 55.2344 377.997 47 403.618 47C432.581 47 458.961 57.5234 478.8 74.7758C485.947 80.9903 496.863 81.6745 505.413 77.6751C513.575 73.8567 522.755 71.7116 532.465 71.7116C551.576 71.7116 568.641 80.0227 579.924 93.0509C585.324 99.2862 593.996 102.791 602.352 101.048C610.403 99.3678 618.767 98.4825 627.348 98.4825C691.747 98.4825 743.874 148.326 743.874 209.714C743.874 234.066 735.676 256.592 721.766 274.915C717.765 280.185 716.726 287.253 717.753 294.09C718.78 300.932 721.892 307.684 726.386 312.415C735.248 321.745 740.639 334.118 740.639 347.687C740.639 376.662 716.028 400.229 685.572 400.229C676.346 400.229 667.654 398.065 660.02 394.243C649.897 389.174 635.633 389.989 626.653 396.858C615.475 405.408 601.286 410.526 585.836 410.526C572.552 410.526 560.199 406.742 549.892 400.246C540.31 394.207 526.088 394.47 517.587 402.025C500.152 417.518 476.77 427 451.059 427C425.126 427 401.561 417.353 384.08 401.621C375.988 394.339 362.697 393.743 353.51 399.585C341.62 407.146 327.337 411.555 311.969 411.555C270.496 411.555 236.955 379.46 236.955 339.965C236.955 332.517 238.146 325.336 240.357 318.586C241.345 315.567 240.385 312.327 238.181 310.098C235.514 307.398 231.237 306.36 227.678 308.081C212.027 315.65 194.325 319.916 175.575 319.916C111.771 319.916 60.127 270.534 60.127 209.714C60.127 148.894 111.771 99.5121 175.575 99.5121C184.713 99.5121 193.602 100.526 202.126 102.44C210.806 104.391 219.961 100.708 225.225 93.8839C238.484 76.6968 259.837 65.5337 283.935 65.5337C294.343 65.5337 304.237 67.6157 313.189 71.3652Z" fill="#F9FAFC" stroke="#E5F0FF" stroke-width="2"/>
<rect opacity="0.7" x="270" y="279.025" width="181" height="81.9749" rx="11" stroke="#E5AC00" stroke-width="2" stroke-dasharray="4 4"/>
<path d="M487.177 155V146.818H489.02V148.208H489.116C489.287 147.74 489.569 147.374 489.963 147.111C490.357 146.845 490.828 146.712 491.375 146.712C491.929 146.712 492.396 146.847 492.776 147.116C493.159 147.383 493.429 147.747 493.585 148.208H493.671C493.852 147.754 494.157 147.392 494.587 147.122C495.02 146.848 495.533 146.712 496.126 146.712C496.879 146.712 497.493 146.95 497.969 147.425C498.445 147.901 498.683 148.596 498.683 149.508V155H496.749V149.806C496.749 149.299 496.614 148.928 496.345 148.693C496.075 148.455 495.744 148.336 495.354 148.336C494.889 148.336 494.525 148.482 494.262 148.773C494.003 149.061 493.873 149.435 493.873 149.897V155H491.982V149.727C491.982 149.304 491.854 148.967 491.598 148.714C491.346 148.462 491.016 148.336 490.608 148.336C490.331 148.336 490.079 148.407 489.851 148.549C489.624 148.688 489.443 148.885 489.308 149.141C489.173 149.393 489.106 149.687 489.106 150.025V155H487.177ZM502.994 155.165C502.475 155.165 502.008 155.073 501.593 154.888C501.181 154.7 500.854 154.423 500.613 154.057C500.375 153.691 500.256 153.24 500.256 152.704C500.256 152.243 500.341 151.861 500.511 151.559C500.682 151.257 500.914 151.016 501.209 150.835C501.504 150.653 501.836 150.517 502.205 150.424C502.578 150.328 502.963 150.259 503.361 150.217C503.841 150.167 504.229 150.123 504.528 150.083C504.826 150.041 505.043 149.977 505.178 149.892C505.316 149.803 505.385 149.666 505.385 149.482V149.45C505.385 149.048 505.266 148.738 505.028 148.517C504.79 148.297 504.448 148.187 504 148.187C503.528 148.187 503.153 148.29 502.876 148.496C502.603 148.702 502.418 148.945 502.322 149.226L500.522 148.97C500.664 148.473 500.898 148.058 501.225 147.724C501.552 147.386 501.951 147.134 502.424 146.967C502.896 146.797 503.418 146.712 503.99 146.712C504.384 146.712 504.776 146.758 505.167 146.85C505.558 146.942 505.914 147.095 506.238 147.308C506.561 147.518 506.82 147.804 507.015 148.166C507.214 148.528 507.314 148.981 507.314 149.524V155H505.46V153.876H505.396C505.279 154.103 505.114 154.316 504.901 154.515C504.691 154.711 504.426 154.869 504.107 154.989C503.791 155.107 503.42 155.165 502.994 155.165ZM503.494 153.748C503.881 153.748 504.217 153.672 504.501 153.519C504.785 153.363 505.004 153.157 505.156 152.901C505.312 152.646 505.391 152.367 505.391 152.065V151.101C505.33 151.151 505.227 151.197 505.082 151.239C504.94 151.282 504.78 151.319 504.602 151.351C504.425 151.383 504.249 151.412 504.075 151.436C503.901 151.461 503.75 151.483 503.622 151.5C503.335 151.539 503.077 151.603 502.85 151.692C502.623 151.781 502.443 151.905 502.312 152.065C502.18 152.221 502.115 152.424 502.115 152.672C502.115 153.027 502.244 153.295 502.504 153.477C502.763 153.658 503.093 153.748 503.494 153.748ZM509.252 155V146.818H511.181V155H509.252ZM510.222 145.657C509.917 145.657 509.654 145.556 509.434 145.353C509.213 145.147 509.103 144.901 509.103 144.613C509.103 144.322 509.213 144.075 509.434 143.873C509.654 143.667 509.917 143.564 510.222 143.564C510.531 143.564 510.794 143.667 511.01 143.873C511.23 144.075 511.341 144.322 511.341 144.613C511.341 144.901 511.23 145.147 511.01 145.353C510.794 145.556 510.531 145.657 510.222 145.657ZM515.092 150.206V155H513.164V146.818H515.007V148.208H515.103C515.291 147.75 515.591 147.386 516.003 147.116C516.418 146.847 516.931 146.712 517.542 146.712C518.107 146.712 518.599 146.832 519.018 147.074C519.44 147.315 519.767 147.665 519.998 148.123C520.232 148.581 520.348 149.137 520.344 149.79V155H518.416V150.089C518.416 149.542 518.274 149.114 517.99 148.805C517.709 148.496 517.32 148.342 516.823 148.342C516.486 148.342 516.186 148.416 515.923 148.565C515.664 148.711 515.459 148.922 515.31 149.199C515.165 149.476 515.092 149.812 515.092 150.206Z" fill="#3AB222"/>
<path d="M192.207 233.818V235.31H187.371V233.818H192.207ZM188.58 242V233.046C188.58 232.495 188.693 232.037 188.921 231.672C189.151 231.306 189.46 231.032 189.847 230.851C190.235 230.67 190.664 230.58 191.137 230.58C191.47 230.58 191.767 230.606 192.026 230.659C192.285 230.713 192.477 230.761 192.601 230.803L192.218 232.295C192.136 232.27 192.033 232.245 191.909 232.22C191.785 232.192 191.646 232.178 191.493 232.178C191.135 232.178 190.881 232.265 190.732 232.439C190.586 232.609 190.513 232.854 190.513 233.174V242H188.58ZM197.032 242.16C196.212 242.16 195.503 241.989 194.907 241.648C194.313 241.304 193.857 240.817 193.538 240.189C193.218 239.557 193.058 238.813 193.058 237.957C193.058 237.115 193.218 236.377 193.538 235.741C193.861 235.102 194.312 234.605 194.891 234.25C195.469 233.891 196.149 233.712 196.931 233.712C197.435 233.712 197.911 233.793 198.358 233.957C198.809 234.116 199.207 234.365 199.551 234.702C199.899 235.04 200.173 235.469 200.372 235.991C200.571 236.51 200.67 237.128 200.67 237.845V238.436H193.964V237.137H198.822C198.818 236.767 198.738 236.439 198.582 236.151C198.426 235.86 198.207 235.631 197.927 235.464C197.65 235.297 197.327 235.214 196.957 235.214C196.563 235.214 196.217 235.31 195.919 235.501C195.62 235.69 195.388 235.938 195.221 236.247C195.057 236.553 194.974 236.888 194.97 237.254V238.389C194.97 238.864 195.057 239.273 195.231 239.614C195.405 239.951 195.649 240.21 195.961 240.391C196.274 240.569 196.639 240.658 197.059 240.658C197.339 240.658 197.593 240.619 197.82 240.54C198.047 240.459 198.245 240.34 198.411 240.184C198.578 240.027 198.704 239.834 198.79 239.603L200.59 239.805C200.476 240.281 200.26 240.697 199.94 241.052C199.624 241.403 199.219 241.677 198.726 241.872C198.232 242.064 197.668 242.16 197.032 242.16ZM204.656 242.165C204.137 242.165 203.67 242.073 203.255 241.888C202.843 241.7 202.516 241.423 202.275 241.057C202.037 240.691 201.918 240.24 201.918 239.704C201.918 239.243 202.003 238.861 202.173 238.559C202.344 238.257 202.577 238.016 202.871 237.835C203.166 237.653 203.498 237.517 203.867 237.424C204.24 237.328 204.626 237.259 205.023 237.217C205.503 237.167 205.892 237.123 206.19 237.083C206.488 237.041 206.705 236.977 206.84 236.892C206.978 236.803 207.047 236.666 207.047 236.482V236.45C207.047 236.048 206.928 235.738 206.691 235.517C206.453 235.297 206.11 235.187 205.662 235.187C205.19 235.187 204.816 235.29 204.539 235.496C204.265 235.702 204.08 235.945 203.985 236.226L202.184 235.97C202.326 235.473 202.561 235.058 202.887 234.724C203.214 234.386 203.613 234.134 204.086 233.967C204.558 233.797 205.08 233.712 205.652 233.712C206.046 233.712 206.438 233.758 206.829 233.85C207.22 233.942 207.577 234.095 207.9 234.308C208.223 234.518 208.482 234.804 208.677 235.166C208.876 235.528 208.976 235.981 208.976 236.524V242H207.122V240.876H207.058C206.941 241.103 206.776 241.316 206.563 241.515C206.353 241.711 206.089 241.869 205.769 241.989C205.453 242.107 205.082 242.165 204.656 242.165ZM205.156 240.748C205.544 240.748 205.879 240.672 206.163 240.519C206.447 240.363 206.666 240.157 206.818 239.901C206.975 239.646 207.053 239.367 207.053 239.065V238.101C206.992 238.151 206.889 238.197 206.744 238.239C206.602 238.282 206.442 238.319 206.264 238.351C206.087 238.383 205.911 238.412 205.737 238.436C205.563 238.461 205.412 238.483 205.284 238.5C204.997 238.539 204.739 238.603 204.512 238.692C204.285 238.781 204.105 238.905 203.974 239.065C203.843 239.221 203.777 239.424 203.777 239.672C203.777 240.027 203.906 240.295 204.166 240.477C204.425 240.658 204.755 240.748 205.156 240.748ZM215 233.818V235.31H210.297V233.818H215ZM211.458 231.858H213.386V239.539C213.386 239.798 213.425 239.997 213.503 240.136C213.585 240.271 213.692 240.363 213.823 240.413C213.954 240.462 214.1 240.487 214.26 240.487C214.381 240.487 214.491 240.478 214.59 240.461C214.693 240.443 214.771 240.427 214.824 240.413L215.149 241.92C215.046 241.956 214.899 241.995 214.707 242.037C214.519 242.08 214.288 242.105 214.015 242.112C213.532 242.126 213.097 242.053 212.71 241.893C212.323 241.73 212.015 241.478 211.788 241.137C211.564 240.796 211.454 240.37 211.458 239.859V231.858ZM221.828 238.559V233.818H223.756V242H221.886V240.546H221.801C221.616 241.004 221.313 241.379 220.89 241.67C220.471 241.961 219.954 242.107 219.34 242.107C218.804 242.107 218.33 241.988 217.918 241.75C217.509 241.508 217.19 241.158 216.959 240.7C216.728 240.239 216.613 239.681 216.613 239.028V233.818H218.541V238.729C218.541 239.248 218.683 239.66 218.967 239.965C219.251 240.271 219.624 240.423 220.086 240.423C220.37 240.423 220.645 240.354 220.911 240.216C221.178 240.077 221.396 239.871 221.567 239.598C221.741 239.321 221.828 238.974 221.828 238.559ZM225.739 242V233.818H227.608V235.182H227.694C227.843 234.71 228.099 234.346 228.461 234.09C228.827 233.831 229.244 233.701 229.713 233.701C229.819 233.701 229.938 233.706 230.069 233.717C230.204 233.724 230.316 233.737 230.405 233.754V235.528C230.323 235.5 230.194 235.475 230.016 235.453C229.842 235.429 229.673 235.416 229.51 235.416C229.159 235.416 228.843 235.493 228.562 235.645C228.285 235.794 228.067 236.002 227.907 236.268C227.747 236.535 227.667 236.842 227.667 237.19V242H225.739ZM234.971 242.16C234.151 242.16 233.443 241.989 232.846 241.648C232.253 241.304 231.797 240.817 231.477 240.189C231.157 239.557 230.998 238.813 230.998 237.957C230.998 237.115 231.157 236.377 231.477 235.741C231.8 235.102 232.251 234.605 232.83 234.25C233.409 233.891 234.089 233.712 234.87 233.712C235.374 233.712 235.85 233.793 236.298 233.957C236.749 234.116 237.146 234.365 237.491 234.702C237.839 235.04 238.112 235.469 238.311 235.991C238.51 236.51 238.609 237.128 238.609 237.845V238.436H231.903V237.137H236.761C236.758 236.767 236.678 236.439 236.521 236.151C236.365 235.86 236.147 235.631 235.866 235.464C235.589 235.297 235.266 235.214 234.897 235.214C234.503 235.214 234.156 235.31 233.858 235.501C233.56 235.69 233.327 235.938 233.16 236.247C232.997 236.553 232.913 236.888 232.91 237.254V238.389C232.91 238.864 232.997 239.273 233.171 239.614C233.345 239.951 233.588 240.21 233.901 240.391C234.213 240.569 234.579 240.658 234.998 240.658C235.278 240.658 235.532 240.619 235.76 240.54C235.987 240.459 236.184 240.34 236.351 240.184C236.518 240.027 236.644 239.834 236.729 239.603L238.53 239.805C238.416 240.281 238.199 240.697 237.88 241.052C237.564 241.403 237.159 241.677 236.665 241.872C236.172 242.064 235.607 242.16 234.971 242.16ZM248.377 231.091V242H246.401V233.014H246.337L243.786 234.644V232.833L246.497 231.091H248.377Z" fill="#8F95B2"/>
<path d="M282.403 166.818V168.31H277.566V166.818H282.403ZM278.775 175V166.046C278.775 165.495 278.889 165.037 279.116 164.672C279.347 164.306 279.656 164.032 280.043 163.851C280.43 163.67 280.86 163.58 281.332 163.58C281.666 163.58 281.962 163.606 282.221 163.659C282.481 163.713 282.672 163.761 282.797 163.803L282.413 165.295C282.331 165.27 282.229 165.245 282.104 165.22C281.98 165.192 281.841 165.178 281.689 165.178C281.33 165.178 281.076 165.265 280.927 165.439C280.781 165.609 280.709 165.854 280.709 166.174V175H278.775ZM287.227 175.16C286.407 175.16 285.698 174.989 285.102 174.648C284.509 174.304 284.052 173.817 283.733 173.189C283.413 172.557 283.253 171.813 283.253 170.957C283.253 170.115 283.413 169.377 283.733 168.741C284.056 168.102 284.507 167.605 285.086 167.25C285.665 166.891 286.345 166.712 287.126 166.712C287.63 166.712 288.106 166.793 288.554 166.957C289.005 167.116 289.402 167.365 289.747 167.702C290.095 168.04 290.368 168.469 290.567 168.991C290.766 169.51 290.865 170.128 290.865 170.845V171.436H284.159V170.137H289.017C289.013 169.767 288.934 169.439 288.777 169.151C288.621 168.86 288.403 168.631 288.122 168.464C287.845 168.297 287.522 168.214 287.153 168.214C286.758 168.214 286.412 168.31 286.114 168.501C285.816 168.69 285.583 168.938 285.416 169.247C285.253 169.553 285.169 169.888 285.166 170.254V171.388C285.166 171.864 285.253 172.273 285.427 172.614C285.601 172.951 285.844 173.21 286.157 173.391C286.469 173.569 286.835 173.658 287.254 173.658C287.534 173.658 287.788 173.619 288.016 173.54C288.243 173.459 288.44 173.34 288.607 173.184C288.774 173.027 288.9 172.834 288.985 172.603L290.785 172.805C290.672 173.281 290.455 173.697 290.136 174.052C289.82 174.403 289.415 174.677 288.921 174.872C288.427 175.064 287.863 175.16 287.227 175.16ZM294.851 175.165C294.333 175.165 293.866 175.073 293.45 174.888C293.038 174.7 292.711 174.423 292.47 174.057C292.232 173.691 292.113 173.24 292.113 172.704C292.113 172.243 292.198 171.861 292.369 171.559C292.539 171.257 292.772 171.016 293.067 170.835C293.361 170.653 293.693 170.517 294.063 170.424C294.436 170.328 294.821 170.259 295.219 170.217C295.698 170.167 296.087 170.123 296.385 170.083C296.683 170.041 296.9 169.977 297.035 169.892C297.173 169.803 297.243 169.666 297.243 169.482V169.45C297.243 169.048 297.124 168.738 296.886 168.517C296.648 168.297 296.305 168.187 295.858 168.187C295.385 168.187 295.011 168.29 294.734 168.496C294.46 168.702 294.276 168.945 294.18 169.226L292.379 168.97C292.521 168.473 292.756 168.058 293.083 167.724C293.409 167.386 293.809 167.134 294.281 166.967C294.753 166.797 295.275 166.712 295.847 166.712C296.241 166.712 296.634 166.758 297.024 166.85C297.415 166.942 297.772 167.095 298.095 167.308C298.418 167.518 298.677 167.804 298.873 168.166C299.072 168.528 299.171 168.981 299.171 169.524V175H297.317V173.876H297.253C297.136 174.103 296.971 174.316 296.758 174.515C296.548 174.711 296.284 174.869 295.964 174.989C295.648 175.107 295.277 175.165 294.851 175.165ZM295.352 173.748C295.739 173.748 296.074 173.672 296.358 173.519C296.643 173.363 296.861 173.157 297.014 172.901C297.17 172.646 297.248 172.367 297.248 172.065V171.101C297.188 171.151 297.085 171.197 296.939 171.239C296.797 171.282 296.637 171.319 296.46 171.351C296.282 171.383 296.106 171.412 295.932 171.436C295.758 171.461 295.607 171.483 295.48 171.5C295.192 171.539 294.934 171.603 294.707 171.692C294.48 171.781 294.301 171.905 294.169 172.065C294.038 172.221 293.972 172.424 293.972 172.672C293.972 173.027 294.102 173.295 294.361 173.477C294.62 173.658 294.95 173.748 295.352 173.748ZM305.195 166.818V168.31H300.492V166.818H305.195ZM301.653 164.858H303.581V172.539C303.581 172.798 303.621 172.997 303.699 173.136C303.78 173.271 303.887 173.363 304.018 173.413C304.15 173.462 304.295 173.487 304.455 173.487C304.576 173.487 304.686 173.478 304.785 173.461C304.888 173.443 304.966 173.427 305.02 173.413L305.345 174.92C305.242 174.956 305.094 174.995 304.903 175.037C304.714 175.08 304.483 175.105 304.21 175.112C303.727 175.126 303.292 175.053 302.905 174.893C302.518 174.73 302.211 174.478 301.983 174.137C301.76 173.796 301.65 173.37 301.653 172.859V164.858ZM312.023 171.559V166.818H313.951V175H312.082V173.546H311.996C311.812 174.004 311.508 174.379 311.085 174.67C310.666 174.961 310.15 175.107 309.535 175.107C308.999 175.107 308.525 174.988 308.113 174.75C307.705 174.508 307.385 174.158 307.154 173.7C306.924 173.239 306.808 172.681 306.808 172.028V166.818H308.736V171.729C308.736 172.248 308.878 172.66 309.163 172.965C309.447 173.271 309.82 173.423 310.281 173.423C310.565 173.423 310.84 173.354 311.107 173.216C311.373 173.077 311.592 172.871 311.762 172.598C311.936 172.321 312.023 171.974 312.023 171.559ZM315.934 175V166.818H317.804V168.182H317.889C318.038 167.71 318.294 167.346 318.656 167.09C319.022 166.831 319.439 166.701 319.908 166.701C320.014 166.701 320.133 166.706 320.265 166.717C320.4 166.724 320.512 166.737 320.6 166.754V168.528C320.519 168.5 320.389 168.475 320.211 168.453C320.037 168.429 319.869 168.416 319.705 168.416C319.354 168.416 319.038 168.493 318.757 168.645C318.48 168.794 318.262 169.002 318.102 169.268C317.942 169.535 317.862 169.842 317.862 170.19V175H315.934ZM325.167 175.16C324.346 175.16 323.638 174.989 323.041 174.648C322.448 174.304 321.992 173.817 321.672 173.189C321.353 172.557 321.193 171.813 321.193 170.957C321.193 170.115 321.353 169.377 321.672 168.741C321.995 168.102 322.446 167.605 323.025 167.25C323.604 166.891 324.284 166.712 325.065 166.712C325.57 166.712 326.046 166.793 326.493 166.957C326.944 167.116 327.342 167.365 327.686 167.702C328.034 168.04 328.308 168.469 328.506 168.991C328.705 169.51 328.805 170.128 328.805 170.845V171.436H322.098V170.137H326.956C326.953 169.767 326.873 169.439 326.717 169.151C326.56 168.86 326.342 168.631 326.062 168.464C325.785 168.297 325.461 168.214 325.092 168.214C324.698 168.214 324.352 168.31 324.053 168.501C323.755 168.69 323.522 168.938 323.356 169.247C323.192 169.553 323.109 169.888 323.105 170.254V171.388C323.105 171.864 323.192 172.273 323.366 172.614C323.54 172.951 323.783 173.21 324.096 173.391C324.408 173.569 324.774 173.658 325.193 173.658C325.474 173.658 325.728 173.619 325.955 173.54C326.182 173.459 326.379 173.34 326.546 173.184C326.713 173.027 326.839 172.834 326.924 172.603L328.725 172.805C328.611 173.281 328.395 173.697 328.075 174.052C327.759 174.403 327.354 174.677 326.861 174.872C326.367 175.064 325.802 175.16 325.167 175.16ZM334.135 175V173.572L337.923 169.86C338.285 169.494 338.587 169.169 338.828 168.885C339.07 168.601 339.251 168.326 339.372 168.059C339.492 167.793 339.553 167.509 339.553 167.207C339.553 166.863 339.475 166.568 339.318 166.323C339.162 166.074 338.947 165.882 338.674 165.748C338.4 165.613 338.09 165.545 337.742 165.545C337.383 165.545 337.069 165.62 336.799 165.769C336.529 165.914 336.319 166.122 336.17 166.392C336.025 166.662 335.952 166.983 335.952 167.356H334.072C334.072 166.664 334.23 166.062 334.546 165.55C334.862 165.039 335.297 164.643 335.851 164.363C336.408 164.082 337.047 163.942 337.768 163.942C338.5 163.942 339.143 164.078 339.697 164.352C340.251 164.625 340.68 165 340.986 165.476C341.295 165.952 341.449 166.495 341.449 167.106C341.449 167.514 341.371 167.915 341.215 168.31C341.058 168.704 340.783 169.141 340.389 169.62C339.998 170.099 339.45 170.68 338.743 171.362L336.863 173.274V173.349H341.614V175H334.135Z" fill="#8F95B2"/>
<path d="M523.25 128L137.25 128" stroke="#3AB222" stroke-width="2" stroke-linecap="round" stroke-linejoin="round"/>
<path d="M525.477 127.352C525.841 127.71 525.841 128.29 525.477 128.648L522.341 131.732C521.977 132.089 521.387 132.089 521.023 131.732C520.659 131.374 520.659 130.793 521.023 130.435L522.567 128.917V127.083L521.023 125.565C520.659 125.207 520.659 124.626 521.023 124.268C521.387 123.911 521.977 123.911 522.341 124.268L525.477 127.352Z" fill="#3AB222"/>
<path d="M625.241 188.068V176.818H627.137V178.171H627.249C627.348 177.972 627.489 177.761 627.67 177.537C627.851 177.31 628.096 177.116 628.405 176.957C628.714 176.793 629.108 176.712 629.587 176.712C630.219 176.712 630.789 176.873 631.297 177.196C631.809 177.516 632.213 177.99 632.512 178.619C632.814 179.244 632.964 180.011 632.964 180.92C632.964 181.818 632.817 182.582 632.522 183.21C632.228 183.839 631.826 184.318 631.319 184.648C630.811 184.979 630.235 185.144 629.593 185.144C629.124 185.144 628.735 185.066 628.426 184.909C628.117 184.753 627.869 184.565 627.68 184.345C627.496 184.121 627.352 183.91 627.249 183.711H627.169V188.068H625.241ZM627.132 180.909C627.132 181.438 627.206 181.902 627.355 182.299C627.508 182.697 627.727 183.008 628.011 183.232C628.298 183.452 628.646 183.562 629.055 183.562C629.481 183.562 629.838 183.448 630.125 183.221C630.413 182.99 630.63 182.676 630.775 182.278C630.924 181.877 630.999 181.42 630.999 180.909C630.999 180.401 630.926 179.95 630.781 179.556C630.635 179.162 630.418 178.853 630.131 178.629C629.843 178.406 629.484 178.294 629.055 178.294C628.643 178.294 628.293 178.402 628.005 178.619C627.718 178.835 627.499 179.139 627.35 179.529C627.205 179.92 627.132 180.38 627.132 180.909ZM634.616 185V176.818H636.485V178.182H636.571C636.72 177.71 636.975 177.346 637.338 177.09C637.703 176.831 638.121 176.701 638.589 176.701C638.696 176.701 638.815 176.706 638.946 176.717C639.081 176.724 639.193 176.737 639.282 176.754V178.528C639.2 178.5 639.071 178.475 638.893 178.453C638.719 178.429 638.55 178.416 638.387 178.416C638.036 178.416 637.719 178.493 637.439 178.645C637.162 178.794 636.944 179.002 636.784 179.268C636.624 179.535 636.544 179.842 636.544 180.19V185H634.616ZM643.795 185.16C642.996 185.16 642.304 184.984 641.718 184.632C641.132 184.281 640.677 183.789 640.354 183.157C640.034 182.525 639.875 181.786 639.875 180.941C639.875 180.096 640.034 179.355 640.354 178.72C640.677 178.084 641.132 177.591 641.718 177.239C642.304 176.887 642.996 176.712 643.795 176.712C644.594 176.712 645.286 176.887 645.872 177.239C646.458 177.591 646.911 178.084 647.231 178.72C647.554 179.355 647.715 180.096 647.715 180.941C647.715 181.786 647.554 182.525 647.231 183.157C646.911 183.789 646.458 184.281 645.872 184.632C645.286 184.984 644.594 185.16 643.795 185.16ZM643.806 183.615C644.239 183.615 644.601 183.496 644.892 183.258C645.184 183.017 645.4 182.694 645.542 182.289C645.688 181.884 645.761 181.433 645.761 180.936C645.761 180.435 645.688 179.982 645.542 179.577C645.4 179.169 645.184 178.844 644.892 178.603C644.601 178.361 644.239 178.24 643.806 178.24C643.362 178.24 642.992 178.361 642.698 178.603C642.407 178.844 642.188 179.169 642.043 179.577C641.9 179.982 641.829 180.435 641.829 180.936C641.829 181.433 641.9 181.884 642.043 182.289C642.188 182.694 642.407 183.017 642.698 183.258C642.992 183.496 643.362 183.615 643.806 183.615ZM652.388 185.144C651.746 185.144 651.17 184.979 650.662 184.648C650.155 184.318 649.753 183.839 649.459 183.21C649.164 182.582 649.017 181.818 649.017 180.92C649.017 180.011 649.166 179.244 649.464 178.619C649.766 177.99 650.172 177.516 650.684 177.196C651.195 176.873 651.765 176.712 652.394 176.712C652.873 176.712 653.267 176.793 653.576 176.957C653.885 177.116 654.13 177.31 654.311 177.537C654.492 177.761 654.633 177.972 654.732 178.171H654.812V174.091H656.746V185H654.849V183.711H654.732C654.633 183.91 654.489 184.121 654.301 184.345C654.112 184.565 653.864 184.753 653.555 184.909C653.246 185.066 652.857 185.144 652.388 185.144ZM652.926 183.562C653.335 183.562 653.683 183.452 653.97 183.232C654.258 183.008 654.476 182.697 654.626 182.299C654.775 181.902 654.849 181.438 654.849 180.909C654.849 180.38 654.775 179.92 654.626 179.529C654.48 179.139 654.263 178.835 653.976 178.619C653.692 178.402 653.342 178.294 652.926 178.294C652.497 178.294 652.138 178.406 651.85 178.629C651.563 178.853 651.346 179.162 651.2 179.556C651.055 179.95 650.982 180.401 650.982 180.909C650.982 181.42 651.055 181.877 651.2 182.278C651.35 182.676 651.568 182.99 651.856 183.221C652.147 183.448 652.504 183.562 652.926 183.562ZM664.015 181.559V176.818H665.943V185H664.074V183.546H663.989C663.804 184.004 663.5 184.379 663.078 184.67C662.659 184.961 662.142 185.107 661.528 185.107C660.991 185.107 660.517 184.988 660.105 184.75C659.697 184.508 659.377 184.158 659.147 183.7C658.916 183.239 658.8 182.681 658.8 182.028V176.818H660.729V181.729C660.729 182.248 660.871 182.66 661.155 182.965C661.439 183.271 661.812 183.423 662.273 183.423C662.557 183.423 662.833 183.354 663.099 183.216C663.365 183.077 663.584 182.871 663.754 182.598C663.928 182.321 664.015 181.974 664.015 181.559ZM671.495 185.16C670.678 185.16 669.977 184.98 669.391 184.622C668.809 184.263 668.36 183.768 668.044 183.136C667.731 182.5 667.575 181.768 667.575 180.941C667.575 180.11 667.735 179.377 668.054 178.741C668.374 178.102 668.825 177.605 669.407 177.25C669.993 176.891 670.686 176.712 671.485 176.712C672.149 176.712 672.736 176.834 673.248 177.079C673.763 177.321 674.173 177.663 674.478 178.107C674.784 178.548 674.958 179.062 675 179.652H673.157C673.083 179.258 672.905 178.929 672.624 178.667C672.347 178.4 671.976 178.267 671.511 178.267C671.117 178.267 670.771 178.374 670.472 178.587C670.174 178.796 669.942 179.098 669.775 179.492C669.611 179.886 669.53 180.359 669.53 180.909C669.53 181.467 669.611 181.946 669.775 182.347C669.938 182.745 670.167 183.052 670.462 183.269C670.76 183.482 671.11 183.588 671.511 183.588C671.795 183.588 672.049 183.535 672.273 183.429C672.5 183.319 672.69 183.161 672.843 182.955C672.996 182.749 673.1 182.498 673.157 182.203H675C674.954 182.782 674.784 183.295 674.489 183.743C674.194 184.187 673.793 184.535 673.285 184.787C672.777 185.036 672.181 185.16 671.495 185.16ZM680.669 176.818V178.31H675.966V176.818H680.669ZM677.127 174.858H679.055V182.539C679.055 182.798 679.094 182.997 679.172 183.136C679.254 183.271 679.361 183.363 679.492 183.413C679.623 183.462 679.769 183.487 679.929 183.487C680.049 183.487 680.16 183.478 680.259 183.461C680.362 183.443 680.44 183.427 680.493 183.413L680.818 184.92C680.715 184.956 680.568 184.995 680.376 185.037C680.188 185.08 679.957 185.105 679.684 185.112C679.201 185.126 678.766 185.053 678.379 184.893C677.992 184.73 677.684 184.478 677.457 184.137C677.233 183.796 677.123 183.37 677.127 182.859V174.858ZM682.282 185V176.818H684.21V185H682.282ZM683.251 175.657C682.946 175.657 682.683 175.556 682.463 175.353C682.243 175.147 682.133 174.901 682.133 174.613C682.133 174.322 682.243 174.075 682.463 173.873C682.683 173.667 682.946 173.564 683.251 173.564C683.56 173.564 683.823 173.667 684.04 173.873C684.26 174.075 684.37 174.322 684.37 174.613C684.37 174.901 684.26 175.147 684.04 175.353C683.823 175.556 683.56 175.657 683.251 175.657ZM689.762 185.16C688.963 185.16 688.27 184.984 687.684 184.632C687.098 184.281 686.644 183.789 686.321 183.157C686.001 182.525 685.841 181.786 685.841 180.941C685.841 180.096 686.001 179.355 686.321 178.72C686.644 178.084 687.098 177.591 687.684 177.239C688.27 176.887 688.963 176.712 689.762 176.712C690.561 176.712 691.253 176.887 691.839 177.239C692.425 177.591 692.878 178.084 693.198 178.72C693.521 179.355 693.682 180.096 693.682 180.941C693.682 181.786 693.521 182.525 693.198 183.157C692.878 183.789 692.425 184.281 691.839 184.632C691.253 184.984 690.561 185.16 689.762 185.16ZM689.772 183.615C690.206 183.615 690.568 183.496 690.859 183.258C691.15 183.017 691.367 182.694 691.509 182.289C691.655 181.884 691.727 181.433 691.727 180.936C691.727 180.435 691.655 179.982 691.509 179.577C691.367 179.169 691.15 178.844 690.859 178.603C690.568 178.361 690.206 178.24 689.772 178.24C689.329 178.24 688.959 178.361 688.665 178.603C688.373 178.844 688.155 179.169 688.009 179.577C687.867 179.982 687.796 180.435 687.796 180.936C687.796 181.433 687.867 181.884 688.009 182.289C688.155 182.694 688.373 183.017 688.665 183.258C688.959 183.496 689.329 183.615 689.772 183.615ZM697.247 180.206V185H695.319V176.818H697.162V178.208H697.258C697.446 177.75 697.746 177.386 698.158 177.116C698.574 176.847 699.087 176.712 699.697 176.712C700.262 176.712 700.754 176.832 701.173 177.074C701.596 177.315 701.922 177.665 702.153 178.123C702.387 178.581 702.503 179.137 702.499 179.79V185H700.571V180.089C700.571 179.542 700.429 179.114 700.145 178.805C699.864 178.496 699.475 178.342 698.978 178.342C698.641 178.342 698.341 178.416 698.078 178.565C697.819 178.711 697.615 178.922 697.466 179.199C697.32 179.476 697.247 179.812 697.247 180.206Z" fill="#3AB222"/>
<path d="M625 105.75C625 104.093 626.343 102.75 628 102.75H703C704.657 102.75 706 104.093 706 105.75V119.25C706 120.907 704.657 122.25 703 122.25H628C626.343 122.25 625 120.907 625 119.25V105.75Z" fill="white" stroke="#3AB222" stroke-width="1.5"/>
<rect x="632.5" y="110.487" width="21" height="4.39474" rx="0.75" fill="white" stroke="#3AB222" stroke-width="1.5"/>
<rect x="694" y="110.487" width="4.5" height="4.39474" rx="2.19737" fill="#3AB222" stroke="#3AB222" stroke-width="1.5"/>
<path d="M625 125.25C625 123.593 626.343 122.25 628 122.25H703C704.657 122.25 706 123.593 706 125.25V138.75C706 140.407 704.657 141.75 703 141.75H628C626.343 141.75 625 140.407 625 138.75V125.25Z" fill="white" stroke="#3AB222" stroke-width="1.5"/>
<rect x="632.5" y="129.987" width="21" height="4.39474" rx="0.75" fill="white" stroke="#3AB222" stroke-width="1.5"/>
<rect x="694" y="129.987" width="4.5" height="4.39474" rx="2.19737" fill="#3AB222" stroke="#3AB222" stroke-width="1.5"/>
<rect x="685.75" y="129.987" width="4.5" height="4.39474" rx="2.19737" fill="#3AB222" stroke="#3AB222" stroke-width="1.5"/>
<path d="M625 144.75C625 143.093 626.343 141.75 628 141.75H703C704.657 141.75 706 143.093 706 144.75V158.25C706 159.907 704.657 161.25 703 161.25H628C626.343 161.25 625 159.907 625 158.25V144.75Z" fill="white" stroke="#3AB222" stroke-width="1.5"/>
<rect x="632.5" y="149.487" width="21" height="4.39474" rx="0.75" fill="white" stroke="#3AB222" stroke-width="1.5"/>
<rect x="694" y="149.487" width="4.5" height="4.39474" rx="2.19737" fill="#3AB222" stroke="#3AB222" stroke-width="1.5"/>
<g clip-path="url(#clip0_1556_2560)">
<path d="M575.511 142.957C574.922 142.389 574.111 142.414 573.404 142.163C570.536 141.136 568.061 139.49 566.347 136.954C565.504 135.704 564.607 135.309 563.15 135.349C559.386 135.456 559.382 135.384 559.382 131.505C559.382 128.581 559.429 125.657 559.361 122.733C559.332 121.551 559.604 120.883 560.911 121.095C563.689 121.54 565.522 120.498 567.482 118.3C573.711 111.309 584.475 112.121 589.85 119.726C590.607 120.8 591.343 121.148 592.593 121.127C596.629 121.055 596.629 121.105 596.629 125.229C596.629 128.092 596.593 130.959 596.647 133.822C596.668 134.921 596.429 135.575 595.186 135.388C592.357 134.961 590.236 135.679 588.468 138.273C586.568 141.064 583.272 142.012 580.143 142.96H575.507L575.511 142.957ZM586.832 121.928C586.768 120.667 584.411 119.363 583.457 119.916C581.868 120.843 580.432 120.34 580.122 118.526C579.864 117.028 578.954 117.168 577.925 117.147C576.907 117.129 576.139 117.157 575.893 118.505C575.554 120.351 574.093 120.969 572.622 119.848C571.425 118.936 570.922 119.719 570.3 120.405C569.729 121.037 568.689 121.425 569.643 122.707C570.818 124.284 570.172 125.829 568.282 126.113C566.993 126.307 566.936 127.036 566.989 127.988C567.047 128.936 566.639 130.018 568.189 130.327C570.232 130.733 570.818 132.112 569.6 133.815C568.743 135.014 569.639 135.417 570.218 135.981C570.825 136.573 571.232 137.604 572.504 136.649C574.068 135.474 575.554 136.096 575.904 137.985C576.154 139.343 577 139.325 577.989 139.322C578.968 139.318 579.836 139.368 580.093 138.007C580.454 136.099 581.918 135.474 583.479 136.638C584.614 137.482 585.061 136.76 585.65 136.128C586.282 135.453 587.318 135.007 586.311 133.682C585.197 132.216 585.85 130.636 587.618 130.366C589.089 130.14 589.029 129.253 589.029 128.193C589.029 127.119 589.064 126.264 587.561 126.095C585.907 125.908 585.361 124.356 586.214 122.851C586.414 122.499 586.668 122.176 586.829 121.939L586.832 121.928Z" fill="#3AB222"/>
<path d="M553.043 120.01C554.268 119.352 555.589 119.737 556.864 119.665C557.589 119.625 557.732 120.125 557.732 120.721C557.732 125.711 557.732 130.7 557.732 135.69C557.732 136.394 557.446 136.85 556.696 136.821C555.471 136.778 554.218 137.076 553.039 136.502V120.01H553.043Z" fill="#3AB222"/>
<path d="M583 106.025C584.329 108.418 583.722 109.492 580.939 109.506C579.857 109.51 579.222 109.732 579.386 110.972C579.547 112.186 578.711 112.078 577.918 112.103C577.097 112.128 576.486 111.999 576.625 110.975C576.793 109.74 576.161 109.513 575.075 109.51C572.297 109.495 571.689 108.421 573.014 106.029H583V106.025Z" fill="#3AB222"/>
<path d="M602.757 120.003C602.743 125.506 602.728 131.006 602.718 136.509C601.546 137.166 600.285 136.778 599.064 136.785C598.364 136.789 598.278 136.182 598.278 135.611C598.278 130.661 598.278 125.711 598.278 120.76C598.278 120.179 598.382 119.622 599.114 119.672C600.328 119.758 601.6 119.288 602.757 120.003Z" fill="#3AB222"/>
<path d="M578 122.147C581.443 122.147 584.079 124.802 584.068 128.265C584.057 131.645 581.286 134.389 577.925 134.346C574.639 134.303 571.961 131.584 571.946 128.279C571.929 124.816 574.561 122.151 578 122.147ZM579.254 126.752C580.432 127.571 581.496 128.196 579.814 129.292C579.336 129.605 579.339 130.197 579.868 130.47C580.704 130.909 581.171 130.09 581.657 129.669C582.182 129.217 583.336 128.832 582.807 127.934C581.907 126.404 580.414 125.682 578.596 125.883C577.232 126.034 577.636 127.309 577.282 128.092C577.075 128.548 576.975 129.055 576.811 129.587C575.507 128.886 574.586 128.257 576.214 127.054C576.693 126.702 576.6 126.059 576.032 125.933C575.007 125.707 574.521 126.695 573.846 127.219C573.454 127.525 572.782 127.909 573.171 128.498C574.157 129.985 575.582 130.729 577.407 130.582C578.729 130.477 578.368 129.288 578.7 128.559C578.939 128.035 579.046 127.453 579.257 126.752H579.254Z" fill="#3AB222"/>
</g>
<path d="M491.302 320.981L489.544 321.173C489.495 320.995 489.408 320.828 489.283 320.672C489.163 320.516 488.999 320.39 488.793 320.294C488.587 320.198 488.335 320.15 488.037 320.15C487.636 320.15 487.298 320.237 487.025 320.411C486.755 320.585 486.622 320.81 486.625 321.087C486.622 321.325 486.709 321.519 486.886 321.668C487.067 321.817 487.366 321.94 487.781 322.036L489.177 322.334C489.951 322.501 490.526 322.765 490.903 323.127C491.283 323.49 491.474 323.964 491.478 324.55C491.474 325.065 491.323 325.519 491.025 325.913C490.73 326.304 490.32 326.609 489.795 326.83C489.269 327.05 488.665 327.16 487.984 327.16C486.982 327.16 486.176 326.95 485.565 326.531C484.954 326.109 484.59 325.521 484.473 324.768L486.354 324.587C486.439 324.956 486.62 325.235 486.897 325.423C487.174 325.612 487.534 325.706 487.978 325.706C488.436 325.706 488.804 325.612 489.081 325.423C489.361 325.235 489.502 325.002 489.502 324.725C489.502 324.491 489.411 324.298 489.23 324.145C489.052 323.992 488.775 323.875 488.399 323.793L487.003 323.5C486.219 323.337 485.638 323.062 485.262 322.675C484.885 322.284 484.699 321.79 484.702 321.194C484.699 320.69 484.835 320.253 485.112 319.884C485.393 319.511 485.782 319.223 486.279 319.021C486.78 318.815 487.357 318.712 488.01 318.712C488.969 318.712 489.724 318.916 490.274 319.324C490.828 319.733 491.171 320.285 491.302 320.981ZM497.153 318.818V320.31H492.45V318.818H497.153ZM493.611 316.858H495.54V324.539C495.54 324.798 495.579 324.997 495.657 325.136C495.738 325.271 495.845 325.363 495.976 325.413C496.108 325.462 496.253 325.487 496.413 325.487C496.534 325.487 496.644 325.478 496.743 325.461C496.846 325.443 496.924 325.427 496.978 325.413L497.303 326.92C497.2 326.956 497.052 326.995 496.861 327.037C496.672 327.08 496.441 327.105 496.168 327.112C495.685 327.126 495.25 327.053 494.863 326.893C494.476 326.73 494.169 326.478 493.941 326.137C493.718 325.796 493.608 325.37 493.611 324.859V316.858ZM501.121 327.165C500.602 327.165 500.135 327.073 499.72 326.888C499.308 326.7 498.981 326.423 498.74 326.057C498.502 325.691 498.383 325.24 498.383 324.704C498.383 324.243 498.468 323.861 498.638 323.559C498.809 323.257 499.041 323.016 499.336 322.835C499.631 322.653 499.963 322.517 500.332 322.424C500.705 322.328 501.09 322.259 501.488 322.217C501.968 322.167 502.356 322.123 502.655 322.083C502.953 322.041 503.17 321.977 503.305 321.892C503.443 321.803 503.512 321.666 503.512 321.482V321.45C503.512 321.048 503.393 320.738 503.155 320.517C502.917 320.297 502.575 320.187 502.127 320.187C501.655 320.187 501.28 320.29 501.003 320.496C500.73 320.702 500.545 320.945 500.449 321.226L498.649 320.97C498.791 320.473 499.025 320.058 499.352 319.724C499.679 319.386 500.078 319.134 500.551 318.967C501.023 318.797 501.545 318.712 502.117 318.712C502.511 318.712 502.903 318.758 503.294 318.85C503.684 318.942 504.041 319.095 504.365 319.308C504.688 319.518 504.947 319.804 505.142 320.166C505.341 320.528 505.441 320.981 505.441 321.524V327H503.587V325.876H503.523C503.406 326.103 503.241 326.316 503.028 326.515C502.818 326.711 502.553 326.869 502.234 326.989C501.918 327.107 501.547 327.165 501.121 327.165ZM501.621 325.748C502.008 325.748 502.344 325.672 502.628 325.519C502.912 325.363 503.131 325.157 503.283 324.901C503.439 324.646 503.518 324.367 503.518 324.065V323.101C503.457 323.151 503.354 323.197 503.209 323.239C503.067 323.282 502.907 323.319 502.729 323.351C502.552 323.383 502.376 323.412 502.202 323.436C502.028 323.461 501.877 323.483 501.749 323.5C501.461 323.539 501.204 323.603 500.977 323.692C500.749 323.781 500.57 323.905 500.439 324.065C500.307 324.221 500.242 324.424 500.242 324.672C500.242 325.027 500.371 325.295 500.631 325.477C500.89 325.658 501.22 325.748 501.621 325.748ZM510.938 330.239C510.245 330.239 509.65 330.145 509.153 329.956C508.656 329.772 508.257 329.523 507.955 329.211C507.653 328.898 507.443 328.552 507.326 328.172L509.063 327.751C509.141 327.911 509.254 328.069 509.404 328.225C509.553 328.385 509.753 328.516 510.006 328.619C510.261 328.726 510.583 328.779 510.97 328.779C511.517 328.779 511.969 328.646 512.328 328.38C512.687 328.117 512.866 327.684 512.866 327.08V325.53H512.77C512.671 325.729 512.525 325.933 512.333 326.142C512.145 326.352 511.895 326.528 511.582 326.67C511.273 326.812 510.884 326.883 510.416 326.883C509.787 326.883 509.217 326.735 508.706 326.441C508.198 326.142 507.793 325.699 507.491 325.109C507.193 324.516 507.044 323.774 507.044 322.882C507.044 321.984 507.193 321.226 507.491 320.608C507.793 319.987 508.2 319.516 508.711 319.196C509.222 318.873 509.792 318.712 510.421 318.712C510.9 318.712 511.295 318.793 511.604 318.957C511.916 319.116 512.165 319.31 512.349 319.537C512.534 319.761 512.674 319.972 512.77 320.171H512.877V318.818H514.778V327.133C514.778 327.833 514.611 328.412 514.278 328.87C513.944 329.328 513.487 329.67 512.909 329.898C512.33 330.125 511.673 330.239 510.938 330.239ZM510.954 325.37C511.362 325.37 511.71 325.271 511.998 325.072C512.285 324.873 512.504 324.587 512.653 324.214C512.802 323.841 512.877 323.394 512.877 322.872C512.877 322.357 512.802 321.906 512.653 321.519C512.507 321.132 512.291 320.832 512.003 320.619C511.719 320.402 511.369 320.294 510.954 320.294C510.524 320.294 510.165 320.406 509.878 320.629C509.59 320.853 509.373 321.16 509.228 321.551C509.082 321.938 509.009 322.378 509.009 322.872C509.009 323.373 509.082 323.811 509.228 324.188C509.377 324.56 509.595 324.852 509.883 325.061C510.174 325.267 510.531 325.37 510.954 325.37ZM520.377 327.16C519.556 327.16 518.848 326.989 518.251 326.648C517.658 326.304 517.202 325.817 516.882 325.189C516.563 324.557 516.403 323.813 516.403 322.957C516.403 322.115 516.563 321.377 516.882 320.741C517.205 320.102 517.656 319.605 518.235 319.25C518.814 318.891 519.494 318.712 520.275 318.712C520.78 318.712 521.256 318.793 521.703 318.957C522.154 319.116 522.552 319.365 522.896 319.702C523.244 320.04 523.518 320.469 523.716 320.991C523.915 321.51 524.015 322.128 524.015 322.845V323.436H517.308V322.137H522.166C522.163 321.767 522.083 321.439 521.927 321.151C521.77 320.86 521.552 320.631 521.271 320.464C520.994 320.297 520.671 320.214 520.302 320.214C519.908 320.214 519.562 320.31 519.263 320.501C518.965 320.69 518.732 320.938 518.566 321.247C518.402 321.553 518.319 321.888 518.315 322.254V323.388C518.315 323.864 518.402 324.273 518.576 324.614C518.75 324.951 518.993 325.21 519.306 325.391C519.618 325.569 519.984 325.658 520.403 325.658C520.684 325.658 520.938 325.619 521.165 325.54C521.392 325.459 521.589 325.34 521.756 325.184C521.923 325.027 522.049 324.834 522.134 324.603L523.935 324.805C523.821 325.281 523.605 325.697 523.285 326.052C522.969 326.403 522.564 326.677 522.07 326.872C521.577 327.064 521.012 327.16 520.377 327.16Z" fill="#2C79E3"/>
<path d="M523.25 300L137.25 300" stroke="#2C79E3" stroke-width="2" stroke-linecap="round" stroke-linejoin="round"/>
<path d="M525.477 299.352C525.841 299.71 525.841 300.29 525.477 300.648L522.341 303.732C521.977 304.089 521.387 304.089 521.023 303.732C520.659 303.374 520.659 302.793 521.023 302.435L522.567 300.917V299.083L521.023 297.565C520.659 297.207 520.659 296.626 521.023 296.268C521.387 295.911 521.977 295.911 522.341 296.268L525.477 299.352Z" fill="#2C79E3"/>
<path d="M631.707 350.981L629.95 351.173C629.9 350.995 629.813 350.828 629.689 350.672C629.568 350.516 629.404 350.39 629.199 350.294C628.993 350.198 628.74 350.15 628.442 350.15C628.041 350.15 627.703 350.237 627.43 350.411C627.16 350.585 627.027 350.81 627.031 351.087C627.027 351.325 627.114 351.519 627.292 351.668C627.473 351.817 627.771 351.94 628.186 352.036L629.582 352.334C630.356 352.501 630.931 352.765 631.308 353.127C631.688 353.49 631.88 353.964 631.883 354.55C631.88 355.065 631.729 355.519 631.43 355.913C631.136 356.304 630.725 356.609 630.2 356.83C629.674 357.05 629.071 357.16 628.389 357.16C627.387 357.16 626.581 356.95 625.971 356.531C625.36 356.109 624.996 355.521 624.879 354.768L626.759 354.587C626.844 354.956 627.025 355.235 627.302 355.423C627.579 355.612 627.94 355.706 628.384 355.706C628.842 355.706 629.209 355.612 629.486 355.423C629.767 355.235 629.907 355.002 629.907 354.725C629.907 354.491 629.816 354.298 629.635 354.145C629.458 353.992 629.181 353.875 628.804 353.793L627.409 353.5C626.624 353.337 626.043 353.062 625.667 352.675C625.29 352.284 625.104 351.79 625.108 351.194C625.104 350.69 625.241 350.253 625.518 349.884C625.798 349.511 626.187 349.223 626.684 349.021C627.185 348.815 627.762 348.712 628.415 348.712C629.374 348.712 630.129 348.916 630.679 349.324C631.233 349.733 631.576 350.285 631.707 350.981ZM637.559 348.818V350.31H632.855V348.818H637.559ZM634.017 346.858H635.945V354.539C635.945 354.798 635.984 354.997 636.062 355.136C636.144 355.271 636.25 355.363 636.382 355.413C636.513 355.462 636.659 355.487 636.818 355.487C636.939 355.487 637.049 355.478 637.149 355.461C637.252 355.443 637.33 355.427 637.383 355.413L637.708 356.92C637.605 356.956 637.458 356.995 637.266 357.037C637.078 357.08 636.847 357.105 636.573 357.112C636.09 357.126 635.655 357.053 635.268 356.893C634.881 356.73 634.574 356.478 634.347 356.137C634.123 355.796 634.013 355.37 634.017 354.859V346.858ZM641.526 357.165C641.007 357.165 640.54 357.073 640.125 356.888C639.713 356.7 639.386 356.423 639.145 356.057C638.907 355.691 638.788 355.24 638.788 354.704C638.788 354.243 638.873 353.861 639.044 353.559C639.214 353.257 639.447 353.016 639.741 352.835C640.036 352.653 640.368 352.517 640.737 352.424C641.11 352.328 641.496 352.259 641.893 352.217C642.373 352.167 642.762 352.123 643.06 352.083C643.358 352.041 643.575 351.977 643.71 351.892C643.848 351.803 643.918 351.666 643.918 351.482V351.45C643.918 351.048 643.799 350.738 643.561 350.517C643.323 350.297 642.98 350.187 642.533 350.187C642.06 350.187 641.686 350.29 641.409 350.496C641.135 350.702 640.951 350.945 640.855 351.226L639.054 350.97C639.196 350.473 639.431 350.058 639.757 349.724C640.084 349.386 640.484 349.134 640.956 348.967C641.428 348.797 641.95 348.712 642.522 348.712C642.916 348.712 643.309 348.758 643.699 348.85C644.09 348.942 644.447 349.095 644.77 349.308C645.093 349.518 645.352 349.804 645.547 350.166C645.746 350.528 645.846 350.981 645.846 351.524V357H643.992V355.876H643.928C643.811 356.103 643.646 356.316 643.433 356.515C643.223 356.711 642.959 356.869 642.639 356.989C642.323 357.107 641.952 357.165 641.526 357.165ZM642.027 355.748C642.414 355.748 642.749 355.672 643.033 355.519C643.317 355.363 643.536 355.157 643.688 354.901C643.845 354.646 643.923 354.367 643.923 354.065V353.101C643.862 353.151 643.759 353.197 643.614 353.239C643.472 353.282 643.312 353.319 643.134 353.351C642.957 353.383 642.781 353.412 642.607 353.436C642.433 353.461 642.282 353.483 642.154 353.5C641.867 353.539 641.609 353.603 641.382 353.692C641.155 353.781 640.975 353.905 640.844 354.065C640.713 354.221 640.647 354.424 640.647 354.672C640.647 355.027 640.777 355.295 641.036 355.477C641.295 355.658 641.625 355.748 642.027 355.748ZM651.343 360.239C650.65 360.239 650.056 360.145 649.559 359.956C649.061 359.772 648.662 359.523 648.36 359.211C648.058 358.898 647.849 358.552 647.731 358.172L649.468 357.751C649.546 357.911 649.66 358.069 649.809 358.225C649.958 358.385 650.159 358.516 650.411 358.619C650.666 358.726 650.988 358.779 651.375 358.779C651.922 358.779 652.375 358.646 652.733 358.38C653.092 358.117 653.271 357.684 653.271 357.08V355.53H653.175C653.076 355.729 652.93 355.933 652.739 356.142C652.55 356.352 652.3 356.528 651.987 356.67C651.679 356.812 651.29 356.883 650.821 356.883C650.192 356.883 649.622 356.735 649.111 356.441C648.603 356.142 648.198 355.699 647.897 355.109C647.598 354.516 647.449 353.774 647.449 352.882C647.449 351.984 647.598 351.226 647.897 350.608C648.198 349.987 648.605 349.516 649.116 349.196C649.628 348.873 650.198 348.712 650.826 348.712C651.306 348.712 651.7 348.793 652.009 348.957C652.321 349.116 652.57 349.31 652.755 349.537C652.939 349.761 653.079 349.972 653.175 350.171H653.282V348.818H655.184V357.133C655.184 357.833 655.017 358.412 654.683 358.87C654.349 359.328 653.893 359.67 653.314 359.898C652.735 360.125 652.078 360.239 651.343 360.239ZM651.359 355.37C651.767 355.37 652.115 355.271 652.403 355.072C652.691 354.873 652.909 354.587 653.058 354.214C653.207 353.841 653.282 353.394 653.282 352.872C653.282 352.357 653.207 351.906 653.058 351.519C652.913 351.132 652.696 350.832 652.408 350.619C652.124 350.402 651.774 350.294 651.359 350.294C650.929 350.294 650.571 350.406 650.283 350.629C649.995 350.853 649.779 351.16 649.633 351.551C649.487 351.938 649.415 352.378 649.415 352.872C649.415 353.373 649.487 353.811 649.633 354.188C649.782 354.56 650.001 354.852 650.288 355.061C650.579 355.267 650.936 355.37 651.359 355.37ZM657.16 357V348.818H659.088V357H657.16ZM658.129 347.657C657.824 347.657 657.561 347.556 657.341 347.353C657.121 347.147 657.011 346.901 657.011 346.613C657.011 346.322 657.121 346.075 657.341 345.873C657.561 345.667 657.824 345.564 658.129 345.564C658.438 345.564 658.701 345.667 658.918 345.873C659.138 346.075 659.248 346.322 659.248 346.613C659.248 346.901 659.138 347.147 658.918 347.353C658.701 347.556 658.438 347.657 658.129 347.657ZM662.999 352.206V357H661.071V348.818H662.914V350.208H663.01C663.198 349.75 663.498 349.386 663.91 349.116C664.325 348.847 664.839 348.712 665.449 348.712C666.014 348.712 666.506 348.832 666.925 349.074C667.347 349.315 667.674 349.665 667.905 350.123C668.139 350.581 668.255 351.137 668.251 351.79V357H666.323V352.089C666.323 351.542 666.181 351.114 665.897 350.805C665.616 350.496 665.227 350.342 664.73 350.342C664.393 350.342 664.093 350.416 663.83 350.565C663.571 350.711 663.367 350.922 663.218 351.199C663.072 351.476 662.999 351.812 662.999 352.206ZM673.77 360.239C673.077 360.239 672.482 360.145 671.985 359.956C671.488 359.772 671.089 359.523 670.787 359.211C670.485 358.898 670.275 358.552 670.158 358.172L671.895 357.751C671.973 357.911 672.086 358.069 672.236 358.225C672.385 358.385 672.585 358.516 672.838 358.619C673.093 358.726 673.415 358.779 673.802 358.779C674.349 358.779 674.801 358.646 675.16 358.38C675.519 358.117 675.698 357.684 675.698 357.08V355.53H675.602C675.503 355.729 675.357 355.933 675.165 356.142C674.977 356.352 674.727 356.528 674.414 356.67C674.105 356.812 673.716 356.883 673.248 356.883C672.619 356.883 672.049 356.735 671.538 356.441C671.03 356.142 670.625 355.699 670.323 355.109C670.025 354.516 669.876 353.774 669.876 352.882C669.876 351.984 670.025 351.226 670.323 350.608C670.625 349.987 671.032 349.516 671.543 349.196C672.055 348.873 672.624 348.712 673.253 348.712C673.732 348.712 674.127 348.793 674.436 348.957C674.748 349.116 674.997 349.31 675.181 349.537C675.366 349.761 675.506 349.972 675.602 350.171H675.709V348.818H677.61V357.133C677.61 357.833 677.443 358.412 677.11 358.87C676.776 359.328 676.319 359.67 675.741 359.898C675.162 360.125 674.505 360.239 673.77 360.239ZM673.786 355.37C674.194 355.37 674.542 355.271 674.83 355.072C675.117 354.873 675.336 354.587 675.485 354.214C675.634 353.841 675.709 353.394 675.709 352.872C675.709 352.357 675.634 351.906 675.485 351.519C675.339 351.132 675.123 350.832 674.835 350.619C674.551 350.402 674.201 350.294 673.786 350.294C673.356 350.294 672.997 350.406 672.71 350.629C672.422 350.853 672.205 351.16 672.06 351.551C671.914 351.938 671.841 352.378 671.841 352.872C671.841 353.373 671.914 353.811 672.06 354.188C672.209 354.56 672.427 354.852 672.715 355.061C673.006 355.267 673.363 355.37 673.786 355.37Z" fill="#2C79E3"/>
<path d="M625 277.75C625 276.093 626.343 274.75 628 274.75H703C704.657 274.75 706 276.093 706 277.75V291.25C706 292.907 704.657 294.25 703 294.25H628C626.343 294.25 625 292.907 625 291.25V277.75Z" fill="white" stroke="#2C79E3" stroke-width="1.5"/>
<rect x="632.5" y="282.487" width="21" height="4.39474" rx="0.75" fill="white" stroke="#2C79E3" stroke-width="1.5"/>
<rect x="694" y="282.487" width="4.5" height="4.39474" rx="2.19737" fill="#2C79E3" stroke="#2C79E3" stroke-width="1.5"/>
<path d="M625 297.25C625 295.593 626.343 294.25 628 294.25H703C704.657 294.25 706 295.593 706 297.25V310.75C706 312.407 704.657 313.75 703 313.75H628C626.343 313.75 625 312.407 625 310.75V297.25Z" fill="white" stroke="#2C79E3" stroke-width="1.5"/>
<rect x="632.5" y="301.987" width="21" height="4.39474" rx="0.75" fill="white" stroke="#2C79E3" stroke-width="1.5"/>
<rect x="694" y="301.987" width="4.5" height="4.39474" rx="2.19737" fill="#2C79E3" stroke="#2C79E3" stroke-width="1.5"/>
<rect x="685.75" y="301.987" width="4.5" height="4.39474" rx="2.19737" fill="#2C79E3" stroke="#2C79E3" stroke-width="1.5"/>
<path d="M625 316.75C625 315.093 626.343 313.75 628 313.75H703C704.657 313.75 706 315.093 706 316.75V330.25C706 331.907 704.657 333.25 703 333.25H628C626.343 333.25 625 331.907 625 330.25V316.75Z" fill="white" stroke="#2C79E3" stroke-width="1.5"/>
<rect x="632.5" y="321.487" width="21" height="4.39474" rx="0.75" fill="white" stroke="#2C79E3" stroke-width="1.5"/>
<rect x="694" y="321.487" width="4.5" height="4.39474" rx="2.19737" fill="#2C79E3" stroke="#2C79E3" stroke-width="1.5"/>
<g clip-path="url(#clip1_1556_2560)">
<path d="M575.511 314.957C574.922 314.389 574.111 314.414 573.404 314.163C570.536 313.136 568.061 311.49 566.347 308.954C565.504 307.704 564.607 307.309 563.15 307.349C559.386 307.456 559.382 307.384 559.382 303.505C559.382 300.581 559.429 297.657 559.361 294.733C559.332 293.551 559.604 292.883 560.911 293.095C563.689 293.54 565.522 292.498 567.482 290.3C573.711 283.309 584.475 284.121 589.85 291.726C590.607 292.8 591.343 293.148 592.593 293.127C596.629 293.055 596.629 293.105 596.629 297.229C596.629 300.092 596.593 302.959 596.647 305.822C596.668 306.921 596.429 307.575 595.186 307.388C592.357 306.961 590.236 307.679 588.468 310.273C586.568 313.064 583.272 314.012 580.143 314.96H575.507L575.511 314.957ZM586.832 293.928C586.768 292.667 584.411 291.363 583.457 291.916C581.868 292.843 580.432 292.34 580.122 290.526C579.864 289.028 578.954 289.168 577.925 289.147C576.907 289.129 576.139 289.157 575.893 290.505C575.554 292.351 574.093 292.969 572.622 291.848C571.425 290.936 570.922 291.719 570.3 292.405C569.729 293.037 568.689 293.425 569.643 294.707C570.818 296.284 570.172 297.829 568.282 298.113C566.993 298.307 566.936 299.036 566.989 299.988C567.047 300.936 566.639 302.018 568.189 302.327C570.232 302.733 570.818 304.112 569.6 305.815C568.743 307.014 569.639 307.417 570.218 307.981C570.825 308.573 571.232 309.604 572.504 308.649C574.068 307.474 575.554 308.096 575.904 309.985C576.154 311.343 577 311.325 577.989 311.322C578.968 311.318 579.836 311.368 580.093 310.007C580.454 308.099 581.918 307.474 583.479 308.638C584.614 309.482 585.061 308.76 585.65 308.128C586.282 307.453 587.318 307.007 586.311 305.682C585.197 304.216 585.85 302.636 587.618 302.366C589.089 302.14 589.029 301.253 589.029 300.193C589.029 299.119 589.064 298.264 587.561 298.095C585.907 297.908 585.361 296.356 586.214 294.851C586.414 294.499 586.668 294.176 586.829 293.939L586.832 293.928Z" fill="#2C79E3"/>
<path d="M553.043 292.01C554.268 291.352 555.589 291.737 556.864 291.665C557.589 291.625 557.732 292.125 557.732 292.721C557.732 297.711 557.732 302.7 557.732 307.69C557.732 308.394 557.446 308.85 556.696 308.821C555.471 308.778 554.218 309.076 553.039 308.502V292.01H553.043Z" fill="#2C79E3"/>
<path d="M583 278.025C584.329 280.418 583.722 281.492 580.939 281.506C579.857 281.51 579.222 281.732 579.386 282.972C579.547 284.186 578.711 284.078 577.918 284.103C577.097 284.128 576.486 283.999 576.625 282.975C576.793 281.74 576.161 281.513 575.075 281.51C572.297 281.495 571.689 280.421 573.014 278.029H583V278.025Z" fill="#2C79E3"/>
<path d="M602.757 292.003C602.743 297.506 602.728 303.006 602.718 308.509C601.546 309.166 600.285 308.778 599.064 308.785C598.364 308.789 598.278 308.182 598.278 307.611C598.278 302.661 598.278 297.711 598.278 292.761C598.278 292.179 598.382 291.622 599.114 291.672C600.328 291.758 601.6 291.288 602.757 292.003Z" fill="#2C79E3"/>
<path d="M578 294.147C581.443 294.147 584.079 296.802 584.068 300.265C584.057 303.645 581.286 306.389 577.925 306.346C574.639 306.303 571.961 303.584 571.946 300.279C571.929 296.816 574.561 294.151 578 294.147ZM579.254 298.752C580.432 299.571 581.496 300.196 579.814 301.292C579.336 301.605 579.339 302.197 579.868 302.47C580.704 302.909 581.171 302.09 581.657 301.669C582.182 301.217 583.336 300.832 582.807 299.934C581.907 298.404 580.414 297.682 578.596 297.883C577.232 298.034 577.636 299.309 577.282 300.092C577.075 300.548 576.975 301.055 576.811 301.587C575.507 300.886 574.586 300.257 576.214 299.054C576.693 298.702 576.6 298.059 576.032 297.933C575.007 297.707 574.521 298.695 573.846 299.219C573.454 299.525 572.782 299.909 573.171 300.498C574.157 301.985 575.582 302.729 577.407 302.582C578.729 302.477 578.368 301.288 578.7 300.559C578.939 300.035 579.046 299.453 579.257 298.752H579.254Z" fill="#2C79E3"/>
</g>
<path d="M157.875 128C176.049 128 183.5 216.215 216 216.215C248.5 216.215 223 216.215 253.75 216.215C284.5 216.215 295 299.5 315 299.5" stroke="#8F95B2" stroke-width="2" stroke-linecap="round" stroke-linejoin="round"/>
<circle cx="218.625" cy="216" r="3.5" fill="#EDEFF5" stroke="#8F95B2" stroke-width="2"/>
<circle cx="233.625" cy="216" r="3.5" fill="#EDEFF5" stroke="#8F95B2" stroke-width="2"/>
<circle cx="248.625" cy="216" r="3.5" fill="#EDEFF5" stroke="#8F95B2" stroke-width="2"/>
<path d="M229.875 128C248.049 128 245.5 196.215 278 196.215C310.5 196.215 315 196.215 345.75 196.215C376.5 196.215 397 299.5 417 299.5" stroke="#8F95B2" stroke-width="2" stroke-linecap="round" stroke-linejoin="round"/>
<path d="M343 195.75C352.5 195.75 368.1 189.5 384.5 167.5C400.9 145.5 407.333 127.917 408 128" stroke="#8F95B2" stroke-width="2"/>
<circle cx="282.625" cy="196" r="3.5" fill="#EDEFF5" stroke="#8F95B2" stroke-width="2"/>
<circle cx="297.625" cy="196" r="3.5" fill="#EDEFF5" stroke="#8F95B2" stroke-width="2"/>
<circle cx="312.625" cy="196" r="3.5" fill="#EDEFF5" stroke="#8F95B2" stroke-width="2"/>
<circle cx="327.625" cy="196" r="3.5" fill="#EDEFF5" stroke="#8F95B2" stroke-width="2"/>
<circle cx="342.625" cy="196" r="3.5" fill="#EDEFF5" stroke="#8F95B2" stroke-width="2"/>
<path d="M325.045 327.892C325.046 328.6 324.473 329.172 323.765 329.172H315.128C315.127 329.172 315.126 329.173 315.125 329.173C314.418 329.173 313.845 328.6 313.845 327.893V319.253C313.845 318.546 314.418 317.973 315.125 317.973C315.832 317.973 316.405 318.546 316.405 319.253V326.613H323.765V326.613C324.473 326.614 325.045 327.186 325.045 327.892L325.045 327.892ZM315.125 339.733C314.418 339.733 313.845 340.306 313.845 341.013C313.845 341.72 314.418 342.293 315.125 342.293C315.832 342.293 316.405 341.72 316.405 341.013C316.405 340.306 315.832 339.733 315.125 339.733ZM300.725 327.893C300.725 328.6 301.298 329.173 302.006 329.173C302.712 329.172 303.285 328.6 303.285 327.893C303.286 327.185 302.712 326.612 302.005 326.612C301.299 326.612 300.726 327.185 300.725 327.893ZM329.525 327.892C329.525 319.94 323.078 313.493 315.125 313.493C314.418 313.493 313.845 314.066 313.845 314.773C313.845 315.479 314.418 316.053 315.125 316.053C315.126 316.053 315.127 316.052 315.128 316.052C321.665 316.054 326.964 321.354 326.964 327.892H326.965C326.967 328.6 327.539 329.172 328.246 329.172C328.953 329.172 329.526 328.6 329.525 327.892L329.525 327.892ZM307.925 315.422C307.313 315.775 307.103 316.558 307.457 317.171C307.81 317.783 308.593 317.993 309.205 317.639C309.817 317.286 310.027 316.503 309.674 315.891C309.321 315.279 308.537 315.068 307.925 315.422ZM321.045 338.146C320.433 338.5 320.223 339.283 320.577 339.895C320.93 340.507 321.713 340.717 322.325 340.363C322.937 340.01 323.147 339.227 322.794 338.615C322.44 338.003 321.657 337.793 321.045 338.146ZM302.654 335.093C303.008 335.705 303.791 335.915 304.404 335.561C305.015 335.207 305.225 334.425 304.872 333.813C304.519 333.199 303.735 332.99 303.123 333.343C302.511 333.697 302.302 334.48 302.654 335.093ZM302.654 320.693C302.301 321.305 302.511 322.088 303.123 322.441C303.735 322.795 304.518 322.585 304.872 321.973C305.225 321.361 305.015 320.578 304.403 320.225C303.791 319.871 303.008 320.08 302.654 320.693ZM325.379 333.813C325.026 334.425 325.236 335.208 325.848 335.561C326.46 335.915 327.243 335.705 327.596 335.093C327.949 334.481 327.74 333.698 327.127 333.344C326.516 332.991 325.732 333.2 325.379 333.813ZM307.925 340.364C308.538 340.717 309.321 340.508 309.674 339.895C310.027 339.282 309.817 338.5 309.206 338.146C308.593 337.792 307.81 338.003 307.456 338.615C307.103 339.226 307.313 340.009 307.925 340.364L307.925 340.364Z" fill="#2C79E3"/>
<circle cx="157.625" cy="128" r="3.5" fill="#3AB222"/>
<circle cx="316.625" cy="300" r="3.5" fill="#2C79E3"/>
<circle cx="231.625" cy="128" r="3.5" fill="#3AB222"/>
<circle cx="409.625" cy="128" r="3.5" fill="#3AB222"/>
<circle cx="416.625" cy="300" r="3.5" fill="#2C79E3"/>
<path d="M424.529 320.043C424.202 320.052 423.891 320.187 423.663 320.421C423.336 320.747 421.065 323.081 418.735 325.474C416.769 327.493 415.289 329.007 414.602 329.709L410.201 326.356V326.356C409.935 326.152 409.599 326.063 409.267 326.108C408.935 326.152 408.634 326.327 408.431 326.594C408.228 326.86 408.14 327.197 408.186 327.529C408.231 327.861 408.407 328.161 408.674 328.363L413.964 332.393V332.394C414.207 332.578 414.507 332.669 414.811 332.649C415.115 332.628 415.402 332.499 415.617 332.283C415.944 331.957 418.215 329.622 420.545 327.229C422.875 324.836 425.264 322.385 425.442 322.207V322.207C425.687 321.97 425.826 321.644 425.826 321.303C425.826 320.962 425.689 320.636 425.444 320.398C425.2 320.16 424.869 320.032 424.529 320.042L424.529 320.043Z" fill="#2C79E3"/>
<path d="M410.305 88.4175C410.145 88.1775 409.905 88.0175 409.625 88.0175C409.345 88.0175 409.065 88.1775 408.945 88.4175L396.745 109.497C396.585 109.737 396.585 110.057 396.745 110.297C396.905 110.537 397.145 110.697 397.425 110.697H421.785C422.225 110.697 422.585 110.337 422.585 109.897C422.585 109.697 422.505 109.537 422.425 109.418L410.305 88.4175ZM410.985 97.6975L410.705 103.817H409.225L408.905 97.6975H410.985ZM409.945 106.417C409.185 106.417 408.665 106.057 408.665 105.617C408.665 105.177 409.185 104.817 409.945 104.817C410.705 104.817 411.225 105.138 411.225 105.617C411.225 106.057 410.705 106.417 409.945 106.417Z" fill="#E5AC00"/>
<defs>
<clipPath id="clip0_1556_2560">
<rect width="50" height="37" fill="white" transform="translate(553 106)"/>
</clipPath>
<clipPath id="clip1_1556_2560">
<rect width="50" height="37" fill="white" transform="translate(553 278)"/>
</clipPath>
</defs>
</svg>
