<svg width="844" height="356" viewBox="0 0 844 356" fill="none" xmlns="http://www.w3.org/2000/svg">
<rect width="844" height="356" rx="10" fill="white"/>
<path d="M487.123 59.3885C481.703 61.6914 475.223 61.1971 470.473 57.657C456.728 47.411 439.51 41.3163 420.816 41.3163C399.684 41.3163 380.436 49.1051 365.96 61.8755C360.634 66.5738 352.52 67.0791 346.179 64.0699C340.239 61.2513 333.559 59.6678 326.494 59.6678C312.587 59.6678 300.169 65.8024 291.958 75.4207C287.952 80.1139 281.506 82.7661 275.275 81.4474C269.4 80.204 263.297 79.5486 257.035 79.5486C210.041 79.5486 172 116.446 172 161.895C172 179.924 177.982 196.6 188.133 210.164C191.115 214.149 191.877 219.472 191.119 224.591C190.361 229.715 188.063 234.779 184.733 238.335C178.288 245.218 174.368 254.346 174.368 264.358C174.368 285.735 192.266 303.119 214.412 303.119C221.121 303.119 227.441 301.523 232.992 298.703C240.489 294.895 251.048 295.502 257.711 300.673C265.848 306.987 276.177 310.766 287.423 310.766C297.093 310.766 306.085 307.972 313.588 303.175C320.691 298.633 331.242 298.82 337.568 304.522C350.284 315.985 367.336 323 386.086 323C404.999 323 422.184 315.863 434.934 304.224C440.956 298.726 450.825 298.284 457.647 302.685C466.308 308.272 476.712 311.53 487.907 311.53C518.118 311.53 542.553 287.813 542.553 258.623C542.553 253.118 541.685 247.811 540.075 242.822C539.32 240.484 540.055 237.984 541.728 236.267C543.75 234.191 547.007 233.378 549.734 234.716C561.154 240.319 574.072 243.477 587.755 243.477C634.312 243.477 672 206.922 672 161.895C672 116.868 634.312 80.3132 587.755 80.3132C581.086 80.3132 574.599 81.0634 568.38 82.4809C561.91 83.9555 555.102 81.1699 551.192 76.0278C541.533 63.3275 525.981 55.0799 508.429 55.0799C500.849 55.0799 493.642 56.6182 487.123 59.3885Z" fill="#F9FAFC" stroke="#E5F0FF" stroke-width="2"/>
<path d="M291.002 136.402C290.483 136.402 290.016 136.31 289.601 136.125C289.189 135.937 288.862 135.66 288.621 135.294C288.383 134.928 288.264 134.477 288.264 133.941C288.264 133.479 288.349 133.098 288.52 132.796C288.69 132.494 288.923 132.252 289.217 132.071C289.512 131.89 289.844 131.753 290.214 131.661C290.586 131.565 290.972 131.496 291.369 131.453C291.849 131.404 292.238 131.359 292.536 131.32C292.834 131.278 293.051 131.214 293.186 131.128C293.324 131.04 293.394 130.903 293.394 130.718V130.686C293.394 130.285 293.275 129.974 293.037 129.754C292.799 129.534 292.456 129.424 292.009 129.424C291.536 129.424 291.162 129.527 290.885 129.733C290.611 129.939 290.427 130.182 290.331 130.463L288.53 130.207C288.672 129.71 288.907 129.294 289.233 128.961C289.56 128.623 289.96 128.371 290.432 128.204C290.904 128.034 291.426 127.948 291.998 127.948C292.392 127.948 292.785 127.995 293.175 128.087C293.566 128.179 293.923 128.332 294.246 128.545C294.569 128.755 294.828 129.04 295.024 129.403C295.222 129.765 295.322 130.218 295.322 130.761V136.237H293.468V135.113H293.404C293.287 135.34 293.122 135.553 292.909 135.752C292.699 135.947 292.435 136.105 292.115 136.226C291.799 136.343 291.428 136.402 291.002 136.402ZM291.503 134.985C291.89 134.985 292.225 134.909 292.509 134.756C292.793 134.6 293.012 134.394 293.165 134.138C293.321 133.882 293.399 133.604 293.399 133.302V132.338C293.339 132.387 293.236 132.434 293.09 132.476C292.948 132.519 292.788 132.556 292.611 132.588C292.433 132.62 292.257 132.648 292.083 132.673C291.909 132.698 291.758 132.719 291.63 132.737C291.343 132.776 291.085 132.84 290.858 132.929C290.631 133.018 290.451 133.142 290.32 133.302C290.189 133.458 290.123 133.66 290.123 133.909C290.123 134.264 290.253 134.532 290.512 134.713C290.771 134.894 291.101 134.985 291.503 134.985ZM297.261 139.305V128.055H299.157V129.408H299.269C299.368 129.209 299.509 128.998 299.69 128.774C299.871 128.547 300.116 128.353 300.425 128.193C300.734 128.03 301.128 127.948 301.607 127.948C302.239 127.948 302.809 128.11 303.317 128.433C303.829 128.753 304.233 129.227 304.532 129.855C304.834 130.48 304.985 131.247 304.985 132.157C304.985 133.055 304.837 133.818 304.542 134.447C304.248 135.076 303.846 135.555 303.339 135.885C302.831 136.215 302.255 136.381 301.613 136.381C301.144 136.381 300.755 136.302 300.446 136.146C300.137 135.99 299.889 135.802 299.7 135.582C299.516 135.358 299.372 135.147 299.269 134.948H299.189V139.305H297.261ZM299.152 132.146C299.152 132.675 299.226 133.138 299.375 133.536C299.528 133.934 299.747 134.245 300.031 134.468C300.318 134.688 300.666 134.799 301.075 134.799C301.501 134.799 301.858 134.685 302.145 134.458C302.433 134.227 302.65 133.913 302.795 133.515C302.944 133.114 303.019 132.657 303.019 132.146C303.019 131.638 302.946 131.187 302.801 130.793C302.655 130.399 302.438 130.09 302.151 129.866C301.863 129.642 301.504 129.53 301.075 129.53C300.663 129.53 300.313 129.639 300.025 129.855C299.738 130.072 299.519 130.376 299.37 130.766C299.225 131.157 299.152 131.617 299.152 132.146ZM306.636 139.305V128.055H308.532V129.408H308.644C308.743 129.209 308.884 128.998 309.065 128.774C309.246 128.547 309.491 128.353 309.8 128.193C310.109 128.03 310.503 127.948 310.982 127.948C311.614 127.948 312.184 128.11 312.692 128.433C313.204 128.753 313.608 129.227 313.907 129.855C314.209 130.48 314.36 131.247 314.36 132.157C314.36 133.055 314.212 133.818 313.917 134.447C313.623 135.076 313.221 135.555 312.714 135.885C312.206 136.215 311.63 136.381 310.988 136.381C310.519 136.381 310.13 136.302 309.821 136.146C309.512 135.99 309.264 135.802 309.075 135.582C308.891 135.358 308.747 135.147 308.644 134.948H308.564V139.305H306.636ZM308.527 132.146C308.527 132.675 308.601 133.138 308.75 133.536C308.903 133.934 309.122 134.245 309.406 134.468C309.693 134.688 310.041 134.799 310.45 134.799C310.876 134.799 311.233 134.685 311.52 134.458C311.808 134.227 312.025 133.913 312.17 133.515C312.319 133.114 312.394 132.657 312.394 132.146C312.394 131.638 312.321 131.187 312.176 130.793C312.03 130.399 311.813 130.09 311.526 129.866C311.238 129.642 310.879 129.53 310.45 129.53C310.038 129.53 309.688 129.639 309.4 129.855C309.113 130.072 308.894 130.376 308.745 130.766C308.6 131.157 308.527 131.617 308.527 132.146ZM317.199 136.354C316.875 136.354 316.598 136.24 316.368 136.013C316.137 135.786 316.023 135.509 316.027 135.182C316.023 134.862 316.137 134.589 316.368 134.362C316.598 134.135 316.875 134.021 317.199 134.021C317.511 134.021 317.783 134.135 318.014 134.362C318.248 134.589 318.367 134.862 318.371 135.182C318.367 135.399 318.31 135.596 318.2 135.773C318.094 135.951 317.951 136.093 317.774 136.199C317.6 136.302 317.408 136.354 317.199 136.354ZM323.984 136.397C323.163 136.397 322.455 136.226 321.858 135.885C321.265 135.541 320.809 135.054 320.489 134.426C320.17 133.794 320.01 133.05 320.01 132.194C320.01 131.352 320.17 130.614 320.489 129.978C320.812 129.339 321.263 128.842 321.842 128.486C322.421 128.128 323.101 127.948 323.882 127.948C324.387 127.948 324.862 128.03 325.31 128.193C325.761 128.353 326.159 128.602 326.503 128.939C326.851 129.277 327.125 129.706 327.323 130.228C327.522 130.747 327.622 131.365 327.622 132.082V132.673H320.915V131.374H325.773C325.77 131.004 325.69 130.676 325.534 130.388C325.377 130.097 325.159 129.868 324.878 129.701C324.601 129.534 324.278 129.451 323.909 129.451C323.515 129.451 323.169 129.546 322.87 129.738C322.572 129.926 322.339 130.175 322.172 130.484C322.009 130.789 321.926 131.125 321.922 131.491V132.625C321.922 133.101 322.009 133.51 322.183 133.85C322.357 134.188 322.6 134.447 322.913 134.628C323.225 134.806 323.591 134.894 324.01 134.894C324.291 134.894 324.545 134.855 324.772 134.777C324.999 134.696 325.196 134.577 325.363 134.42C325.53 134.264 325.656 134.071 325.741 133.84L327.542 134.042C327.428 134.518 327.212 134.934 326.892 135.289C326.576 135.64 326.171 135.914 325.677 136.109C325.184 136.301 324.619 136.397 323.984 136.397ZM330.654 128.055L332.305 131.075L333.983 128.055H336.023L333.557 132.146L336.066 136.237H334.036L332.305 133.291L330.59 136.237H328.545L331.037 132.146L328.608 128.055H330.654ZM339.84 136.402C339.321 136.402 338.854 136.31 338.439 136.125C338.027 135.937 337.7 135.66 337.459 135.294C337.221 134.928 337.102 134.477 337.102 133.941C337.102 133.479 337.187 133.098 337.358 132.796C337.528 132.494 337.761 132.252 338.055 132.071C338.35 131.89 338.682 131.753 339.051 131.661C339.424 131.565 339.81 131.496 340.207 131.453C340.687 131.404 341.076 131.359 341.374 131.32C341.672 131.278 341.889 131.214 342.024 131.128C342.162 131.04 342.231 130.903 342.231 130.718V130.686C342.231 130.285 342.113 129.974 341.875 129.754C341.637 129.534 341.294 129.424 340.847 129.424C340.374 129.424 340 129.527 339.723 129.733C339.449 129.939 339.265 130.182 339.169 130.463L337.368 130.207C337.51 129.71 337.745 129.294 338.071 128.961C338.398 128.623 338.798 128.371 339.27 128.204C339.742 128.034 340.264 127.948 340.836 127.948C341.23 127.948 341.622 127.995 342.013 128.087C342.404 128.179 342.761 128.332 343.084 128.545C343.407 128.755 343.666 129.04 343.861 129.403C344.06 129.765 344.16 130.218 344.16 130.761V136.237H342.306V135.113H342.242C342.125 135.34 341.96 135.553 341.747 135.752C341.537 135.947 341.273 136.105 340.953 136.226C340.637 136.343 340.266 136.402 339.84 136.402ZM340.341 134.985C340.728 134.985 341.063 134.909 341.347 134.756C341.631 134.6 341.85 134.394 342.002 134.138C342.159 133.882 342.237 133.604 342.237 133.302V132.338C342.176 132.387 342.073 132.434 341.928 132.476C341.786 132.519 341.626 132.556 341.448 132.588C341.271 132.62 341.095 132.648 340.921 132.673C340.747 132.698 340.596 132.719 340.468 132.737C340.181 132.776 339.923 132.84 339.696 132.929C339.469 133.018 339.289 133.142 339.158 133.302C339.027 133.458 338.961 133.66 338.961 133.909C338.961 134.264 339.091 134.532 339.35 134.713C339.609 134.894 339.939 134.985 340.341 134.985ZM346.099 136.237V128.055H347.942V129.445H348.038C348.208 128.976 348.49 128.611 348.885 128.348C349.279 128.082 349.749 127.948 350.296 127.948C350.85 127.948 351.317 128.083 351.697 128.353C352.081 128.62 352.35 128.984 352.507 129.445H352.592C352.773 128.991 353.078 128.628 353.508 128.359C353.941 128.085 354.455 127.948 355.048 127.948C355.8 127.948 356.415 128.186 356.891 128.662C357.366 129.138 357.604 129.832 357.604 130.745V136.237H355.671V131.043C355.671 130.535 355.536 130.164 355.266 129.93C354.996 129.692 354.666 129.573 354.275 129.573C353.81 129.573 353.446 129.719 353.183 130.01C352.924 130.298 352.794 130.672 352.794 131.134V136.237H350.903V130.963C350.903 130.541 350.776 130.203 350.52 129.951C350.268 129.699 349.937 129.573 349.529 129.573C349.252 129.573 349 129.644 348.773 129.786C348.545 129.925 348.364 130.122 348.229 130.377C348.094 130.63 348.027 130.924 348.027 131.262V136.237H346.099ZM359.561 139.305V128.055H361.457V129.408H361.569C361.668 129.209 361.808 128.998 361.99 128.774C362.171 128.547 362.416 128.353 362.725 128.193C363.034 128.03 363.428 127.948 363.907 127.948C364.539 127.948 365.109 128.11 365.617 128.433C366.128 128.753 366.533 129.227 366.832 129.855C367.133 130.48 367.284 131.247 367.284 132.157C367.284 133.055 367.137 133.818 366.842 134.447C366.547 135.076 366.146 135.555 365.638 135.885C365.131 136.215 364.555 136.381 363.913 136.381C363.444 136.381 363.055 136.302 362.746 136.146C362.437 135.99 362.188 135.802 362 135.582C361.816 135.358 361.672 135.147 361.569 134.948H361.489V139.305H359.561ZM361.452 132.146C361.452 132.675 361.526 133.138 361.675 133.536C361.828 133.934 362.046 134.245 362.33 134.468C362.618 134.688 362.966 134.799 363.375 134.799C363.801 134.799 364.158 134.685 364.445 134.458C364.733 134.227 364.949 133.913 365.095 133.515C365.244 133.114 365.319 132.657 365.319 132.146C365.319 131.638 365.246 131.187 365.1 130.793C364.955 130.399 364.738 130.09 364.451 129.866C364.163 129.642 363.804 129.53 363.375 129.53C362.963 129.53 362.613 129.639 362.325 129.855C362.038 130.072 361.819 130.376 361.67 130.766C361.524 131.157 361.452 131.617 361.452 132.146ZM370.864 125.328V136.237H368.936V125.328H370.864ZM376.469 136.397C375.649 136.397 374.94 136.226 374.344 135.885C373.75 135.541 373.294 135.054 372.975 134.426C372.655 133.794 372.495 133.05 372.495 132.194C372.495 131.352 372.655 130.614 372.975 129.978C373.298 129.339 373.749 128.842 374.328 128.486C374.906 128.128 375.586 127.948 376.368 127.948C376.872 127.948 377.348 128.03 377.795 128.193C378.246 128.353 378.644 128.602 378.988 128.939C379.336 129.277 379.61 129.706 379.809 130.228C380.008 130.747 380.107 131.365 380.107 132.082V132.673H373.401V131.374H378.259C378.255 131.004 378.175 130.676 378.019 130.388C377.863 130.097 377.644 129.868 377.364 129.701C377.087 129.534 376.764 129.451 376.394 129.451C376 129.451 375.654 129.546 375.356 129.738C375.057 129.926 374.825 130.175 374.658 130.484C374.494 130.789 374.411 131.125 374.407 131.491V132.625C374.407 133.101 374.494 133.51 374.668 133.85C374.842 134.188 375.086 134.447 375.398 134.628C375.711 134.806 376.076 134.894 376.496 134.894C376.776 134.894 377.03 134.855 377.257 134.777C377.485 134.696 377.682 134.577 377.848 134.42C378.015 134.264 378.141 134.071 378.227 133.84L380.027 134.042C379.913 134.518 379.697 134.934 379.377 135.289C379.061 135.64 378.656 135.914 378.163 136.109C377.669 136.301 377.105 136.397 376.469 136.397ZM382.926 136.354C382.603 136.354 382.326 136.24 382.095 136.013C381.864 135.786 381.751 135.509 381.754 135.182C381.751 134.862 381.864 134.589 382.095 134.362C382.326 134.135 382.603 134.021 382.926 134.021C383.239 134.021 383.51 134.135 383.741 134.362C383.976 134.589 384.095 134.862 384.098 135.182C384.095 135.399 384.038 135.596 383.928 135.773C383.821 135.951 383.679 136.093 383.501 136.199C383.327 136.302 383.136 136.354 382.926 136.354ZM389.658 136.397C388.841 136.397 388.14 136.217 387.554 135.859C386.971 135.5 386.522 135.005 386.206 134.372C385.894 133.737 385.737 133.005 385.737 132.178C385.737 131.347 385.897 130.614 386.217 129.978C386.536 129.339 386.987 128.842 387.57 128.486C388.156 128.128 388.848 127.948 389.647 127.948C390.311 127.948 390.899 128.071 391.41 128.316C391.925 128.557 392.335 128.9 392.641 129.344C392.946 129.784 393.12 130.299 393.163 130.889H391.32C391.245 130.495 391.068 130.166 390.787 129.903C390.51 129.637 390.139 129.504 389.674 129.504C389.28 129.504 388.933 129.61 388.635 129.823C388.337 130.033 388.104 130.335 387.937 130.729C387.774 131.123 387.692 131.595 387.692 132.146C387.692 132.703 387.774 133.183 387.937 133.584C388.101 133.982 388.33 134.289 388.624 134.506C388.923 134.719 389.273 134.825 389.674 134.825C389.958 134.825 390.212 134.772 390.436 134.665C390.663 134.555 390.853 134.397 391.005 134.191C391.158 133.985 391.263 133.735 391.32 133.44H393.163C393.117 134.019 392.946 134.532 392.651 134.98C392.357 135.424 391.955 135.772 391.448 136.024C390.94 136.272 390.343 136.397 389.658 136.397ZM398.315 136.397C397.516 136.397 396.824 136.221 396.238 135.869C395.652 135.518 395.197 135.026 394.874 134.394C394.554 133.762 394.395 133.023 394.395 132.178C394.395 131.333 394.554 130.592 394.874 129.957C395.197 129.321 395.652 128.827 396.238 128.476C396.824 128.124 397.516 127.948 398.315 127.948C399.114 127.948 399.807 128.124 400.392 128.476C400.978 128.827 401.431 129.321 401.751 129.957C402.074 130.592 402.235 131.333 402.235 132.178C402.235 133.023 402.074 133.762 401.751 134.394C401.431 135.026 400.978 135.518 400.392 135.869C399.807 136.221 399.114 136.397 398.315 136.397ZM398.326 134.852C398.759 134.852 399.121 134.733 399.412 134.495C399.704 134.253 399.92 133.93 400.062 133.525C400.208 133.121 400.281 132.67 400.281 132.173C400.281 131.672 400.208 131.219 400.062 130.814C399.92 130.406 399.704 130.081 399.412 129.839C399.121 129.598 398.759 129.477 398.326 129.477C397.882 129.477 397.512 129.598 397.218 129.839C396.927 130.081 396.708 130.406 396.563 130.814C396.42 131.219 396.349 131.672 396.349 132.173C396.349 132.67 396.42 133.121 396.563 133.525C396.708 133.93 396.927 134.253 397.218 134.495C397.512 134.733 397.882 134.852 398.326 134.852ZM403.872 136.237V128.055H405.715V129.445H405.811C405.981 128.976 406.264 128.611 406.658 128.348C407.052 128.082 407.523 127.948 408.07 127.948C408.624 127.948 409.091 128.083 409.47 128.353C409.854 128.62 410.124 128.984 410.28 129.445H410.365C410.546 128.991 410.852 128.628 411.282 128.359C411.715 128.085 412.228 127.948 412.821 127.948C413.574 127.948 414.188 128.186 414.664 128.662C415.14 129.138 415.378 129.832 415.378 130.745V136.237H413.444V131.043C413.444 130.535 413.309 130.164 413.039 129.93C412.769 129.692 412.439 129.573 412.049 129.573C411.583 129.573 411.219 129.719 410.957 130.01C410.697 130.298 410.568 130.672 410.568 131.134V136.237H408.677V130.963C408.677 130.541 408.549 130.203 408.293 129.951C408.041 129.699 407.711 129.573 407.303 129.573C407.026 129.573 406.773 129.644 406.546 129.786C406.319 129.925 406.138 130.122 406.003 130.377C405.868 130.63 405.8 130.924 405.8 131.262V136.237H403.872Z" fill="#3AB222"/>
<path d="M536.5 141.25C536.5 139.593 537.843 138.25 539.5 138.25H614.5C616.157 138.25 617.5 139.593 617.5 141.25V154.75C617.5 156.407 616.157 157.75 614.5 157.75H539.5C537.843 157.75 536.5 156.407 536.5 154.75V141.25Z" fill="white" stroke="#3AB222" stroke-width="1.5"/>
<rect x="544" y="145.987" width="21" height="4.39474" rx="0.75" fill="white" stroke="#3AB222" stroke-width="1.5"/>
<rect x="605.5" y="145.987" width="4.5" height="4.39474" rx="2.19737" fill="#3AB222" stroke="#3AB222" stroke-width="1.5"/>
<path d="M536.5 160.75C536.5 159.093 537.843 157.75 539.5 157.75H614.5C616.157 157.75 617.5 159.093 617.5 160.75V174.25C617.5 175.907 616.157 177.25 614.5 177.25H539.5C537.843 177.25 536.5 175.907 536.5 174.25V160.75Z" fill="white" stroke="#3AB222" stroke-width="1.5"/>
<rect x="544" y="165.487" width="21" height="4.39474" rx="0.75" fill="white" stroke="#3AB222" stroke-width="1.5"/>
<rect x="605.5" y="165.487" width="4.5" height="4.39474" rx="2.19737" fill="#3AB222" stroke="#3AB222" stroke-width="1.5"/>
<rect x="597.25" y="165.487" width="4.5" height="4.39474" rx="2.19737" fill="#3AB222" stroke="#3AB222" stroke-width="1.5"/>
<path d="M536.5 180.25C536.5 178.593 537.843 177.25 539.5 177.25H614.5C616.157 177.25 617.5 178.593 617.5 180.25V193.75C617.5 195.407 616.157 196.75 614.5 196.75H539.5C537.843 196.75 536.5 195.407 536.5 193.75V180.25Z" fill="white" stroke="#3AB222" stroke-width="1.5"/>
<rect x="544" y="184.987" width="21" height="4.39474" rx="0.75" fill="white" stroke="#3AB222" stroke-width="1.5"/>
<rect x="605.5" y="184.987" width="4.5" height="4.39474" rx="2.19737" fill="#3AB222" stroke="#3AB222" stroke-width="1.5"/>
<path d="M235.957 202.828L234.2 203.019C234.15 202.842 234.063 202.675 233.939 202.519C233.818 202.362 233.654 202.236 233.449 202.141C233.243 202.045 232.99 201.997 232.692 201.997C232.291 201.997 231.953 202.084 231.68 202.258C231.41 202.432 231.277 202.657 231.281 202.934C231.277 203.172 231.364 203.366 231.542 203.515C231.723 203.664 232.021 203.786 232.436 203.882L233.832 204.181C234.606 204.348 235.181 204.612 235.558 204.974C235.938 205.337 236.13 205.811 236.133 206.397C236.13 206.911 235.979 207.366 235.68 207.76C235.386 208.151 234.975 208.456 234.45 208.676C233.924 208.897 233.321 209.007 232.639 209.007C231.637 209.007 230.831 208.797 230.221 208.378C229.61 207.955 229.246 207.368 229.129 206.615L231.009 206.434C231.094 206.803 231.275 207.082 231.552 207.27C231.829 207.458 232.19 207.552 232.634 207.552C233.092 207.552 233.459 207.458 233.736 207.27C234.017 207.082 234.157 206.849 234.157 206.572C234.157 206.338 234.066 206.144 233.885 205.992C233.708 205.839 233.431 205.722 233.054 205.64L231.659 205.347C230.874 205.184 230.293 204.909 229.917 204.522C229.54 204.131 229.354 203.637 229.358 203.041C229.354 202.536 229.491 202.1 229.768 201.73C230.048 201.357 230.437 201.07 230.934 200.867C231.435 200.661 232.012 200.558 232.665 200.558C233.624 200.558 234.379 200.763 234.929 201.171C235.483 201.579 235.826 202.132 235.957 202.828ZM241.809 200.665V202.156H237.105V200.665H241.809ZM238.267 198.705H240.195V206.386C240.195 206.645 240.234 206.844 240.312 206.982C240.394 207.117 240.5 207.21 240.632 207.259C240.763 207.309 240.909 207.334 241.068 207.334C241.189 207.334 241.299 207.325 241.399 207.307C241.502 207.29 241.58 207.274 241.633 207.259L241.958 208.767C241.855 208.802 241.708 208.842 241.516 208.884C241.328 208.927 241.097 208.952 240.823 208.959C240.34 208.973 239.905 208.9 239.518 208.74C239.131 208.577 238.824 208.325 238.597 207.984C238.373 207.643 238.263 207.217 238.267 206.705V198.705ZM245.776 209.012C245.257 209.012 244.79 208.92 244.375 208.735C243.963 208.547 243.636 208.27 243.395 207.904C243.157 207.538 243.038 207.087 243.038 206.551C243.038 206.089 243.123 205.708 243.294 205.406C243.464 205.104 243.697 204.862 243.991 204.681C244.286 204.5 244.618 204.364 244.987 204.271C245.36 204.175 245.746 204.106 246.143 204.063C246.623 204.014 247.012 203.969 247.31 203.93C247.608 203.888 247.825 203.824 247.96 203.739C248.098 203.65 248.168 203.513 248.168 203.328V203.296C248.168 202.895 248.049 202.584 247.811 202.364C247.573 202.144 247.23 202.034 246.783 202.034C246.31 202.034 245.936 202.137 245.659 202.343C245.385 202.549 245.201 202.792 245.105 203.073L243.304 202.817C243.446 202.32 243.681 201.904 244.007 201.571C244.334 201.233 244.734 200.981 245.206 200.814C245.678 200.644 246.2 200.558 246.772 200.558C247.166 200.558 247.559 200.605 247.949 200.697C248.34 200.789 248.697 200.942 249.02 201.155C249.343 201.365 249.602 201.65 249.797 202.013C249.996 202.375 250.096 202.828 250.096 203.371V208.847H248.242V207.723H248.178C248.061 207.95 247.896 208.163 247.683 208.362C247.473 208.557 247.209 208.715 246.889 208.836C246.573 208.953 246.202 209.012 245.776 209.012ZM246.277 207.595C246.664 207.595 246.999 207.519 247.283 207.366C247.567 207.21 247.786 207.004 247.938 206.748C248.095 206.492 248.173 206.214 248.173 205.912V204.948C248.112 204.997 248.009 205.044 247.864 205.086C247.722 205.129 247.562 205.166 247.384 205.198C247.207 205.23 247.031 205.258 246.857 205.283C246.683 205.308 246.532 205.329 246.404 205.347C246.117 205.386 245.859 205.45 245.632 205.539C245.405 205.628 245.225 205.752 245.094 205.912C244.963 206.068 244.897 206.27 244.897 206.519C244.897 206.874 245.027 207.142 245.286 207.323C245.545 207.505 245.875 207.595 246.277 207.595ZM255.593 212.085C254.9 212.085 254.306 211.991 253.809 211.803C253.311 211.618 252.912 211.37 252.61 211.057C252.308 210.745 252.099 210.399 251.981 210.019L253.718 209.598C253.796 209.758 253.91 209.916 254.059 210.072C254.208 210.232 254.409 210.363 254.661 210.466C254.916 210.573 255.238 210.626 255.625 210.626C256.172 210.626 256.625 210.493 256.983 210.226C257.342 209.964 257.521 209.53 257.521 208.927V207.377H257.425C257.326 207.576 257.18 207.78 256.989 207.989C256.8 208.199 256.55 208.375 256.237 208.517C255.929 208.659 255.54 208.73 255.071 208.73C254.442 208.73 253.872 208.582 253.361 208.288C252.853 207.989 252.448 207.545 252.147 206.956C251.848 206.363 251.699 205.621 251.699 204.729C251.699 203.831 251.848 203.073 252.147 202.455C252.448 201.833 252.855 201.363 253.366 201.043C253.878 200.72 254.448 200.558 255.076 200.558C255.556 200.558 255.95 200.64 256.259 200.804C256.571 200.963 256.82 201.157 257.005 201.384C257.189 201.608 257.329 201.819 257.425 202.018H257.532V200.665H259.434V208.98C259.434 209.68 259.267 210.258 258.933 210.717C258.599 211.175 258.143 211.517 257.564 211.745C256.985 211.972 256.328 212.085 255.593 212.085ZM255.609 207.217C256.017 207.217 256.365 207.117 256.653 206.919C256.941 206.72 257.159 206.434 257.308 206.061C257.457 205.688 257.532 205.241 257.532 204.719C257.532 204.204 257.457 203.753 257.308 203.366C257.163 202.979 256.946 202.679 256.658 202.465C256.374 202.249 256.024 202.141 255.609 202.141C255.179 202.141 254.821 202.252 254.533 202.476C254.245 202.7 254.029 203.007 253.883 203.398C253.737 203.785 253.665 204.225 253.665 204.719C253.665 205.219 253.737 205.658 253.883 206.034C254.032 206.407 254.251 206.698 254.538 206.908C254.829 207.114 255.186 207.217 255.609 207.217ZM261.41 208.847V200.665H263.338V208.847H261.41ZM262.379 199.504C262.074 199.504 261.811 199.403 261.591 199.2C261.371 198.994 261.261 198.747 261.261 198.46C261.261 198.169 261.371 197.922 261.591 197.719C261.811 197.513 262.074 197.41 262.379 197.41C262.688 197.41 262.951 197.513 263.168 197.719C263.388 197.922 263.498 198.169 263.498 198.46C263.498 198.747 263.388 198.994 263.168 199.2C262.951 199.403 262.688 199.504 262.379 199.504ZM267.249 204.053V208.847H265.321V200.665H267.164V202.055H267.26C267.448 201.597 267.748 201.233 268.16 200.963C268.575 200.693 269.089 200.558 269.699 200.558C270.264 200.558 270.756 200.679 271.175 200.921C271.597 201.162 271.924 201.512 272.155 201.97C272.389 202.428 272.505 202.984 272.501 203.637V208.847H270.573V203.936C270.573 203.389 270.431 202.961 270.147 202.652C269.866 202.343 269.477 202.188 268.98 202.188C268.643 202.188 268.343 202.263 268.08 202.412C267.821 202.558 267.617 202.769 267.468 203.046C267.322 203.323 267.249 203.659 267.249 204.053ZM278.02 212.085C277.327 212.085 276.732 211.991 276.235 211.803C275.738 211.618 275.339 211.37 275.037 211.057C274.735 210.745 274.525 210.399 274.408 210.019L276.145 209.598C276.223 209.758 276.336 209.916 276.486 210.072C276.635 210.232 276.835 210.363 277.088 210.466C277.343 210.573 277.665 210.626 278.052 210.626C278.599 210.626 279.051 210.493 279.41 210.226C279.769 209.964 279.948 209.53 279.948 208.927V207.377H279.852C279.753 207.576 279.607 207.78 279.415 207.989C279.227 208.199 278.977 208.375 278.664 208.517C278.355 208.659 277.966 208.73 277.498 208.73C276.869 208.73 276.299 208.582 275.788 208.288C275.28 207.989 274.875 207.545 274.573 206.956C274.275 206.363 274.126 205.621 274.126 204.729C274.126 203.831 274.275 203.073 274.573 202.455C274.875 201.833 275.282 201.363 275.793 201.043C276.305 200.72 276.874 200.558 277.503 200.558C277.982 200.558 278.377 200.64 278.686 200.804C278.998 200.963 279.247 201.157 279.431 201.384C279.616 201.608 279.756 201.819 279.852 202.018H279.959V200.665H281.86V208.98C281.86 209.68 281.693 210.258 281.36 210.717C281.026 211.175 280.569 211.517 279.991 211.745C279.412 211.972 278.755 212.085 278.02 212.085ZM278.036 207.217C278.444 207.217 278.792 207.117 279.08 206.919C279.367 206.72 279.586 206.434 279.735 206.061C279.884 205.688 279.959 205.241 279.959 204.719C279.959 204.204 279.884 203.753 279.735 203.366C279.589 202.979 279.373 202.679 279.085 202.465C278.801 202.249 278.451 202.141 278.036 202.141C277.606 202.141 277.247 202.252 276.96 202.476C276.672 202.7 276.455 203.007 276.31 203.398C276.164 203.785 276.091 204.225 276.091 204.719C276.091 205.219 276.164 205.658 276.31 206.034C276.459 206.407 276.677 206.698 276.965 206.908C277.256 207.114 277.613 207.217 278.036 207.217ZM285.024 208.964C284.701 208.964 284.424 208.85 284.193 208.623C283.963 208.396 283.849 208.119 283.852 207.792C283.849 207.473 283.963 207.199 284.193 206.972C284.424 206.745 284.701 206.631 285.024 206.631C285.337 206.631 285.608 206.745 285.839 206.972C286.074 207.199 286.193 207.473 286.196 207.792C286.193 208.009 286.136 208.206 286.026 208.383C285.919 208.561 285.777 208.703 285.6 208.81C285.426 208.913 285.234 208.964 285.024 208.964ZM290.541 209.012C290.023 209.012 289.556 208.92 289.141 208.735C288.729 208.547 288.402 208.27 288.16 207.904C287.922 207.538 287.804 207.087 287.804 206.551C287.804 206.089 287.889 205.708 288.059 205.406C288.23 205.104 288.462 204.862 288.757 204.681C289.052 204.5 289.384 204.364 289.753 204.271C290.126 204.175 290.511 204.106 290.909 204.063C291.388 204.014 291.777 203.969 292.076 203.93C292.374 203.888 292.59 203.824 292.725 203.739C292.864 203.65 292.933 203.513 292.933 203.328V203.296C292.933 202.895 292.814 202.584 292.576 202.364C292.338 202.144 291.996 202.034 291.548 202.034C291.076 202.034 290.701 202.137 290.424 202.343C290.151 202.549 289.966 202.792 289.87 203.073L288.07 202.817C288.212 202.32 288.446 201.904 288.773 201.571C289.1 201.233 289.499 200.981 289.972 200.814C290.444 200.644 290.966 200.558 291.538 200.558C291.932 200.558 292.324 200.605 292.715 200.697C293.105 200.789 293.462 200.942 293.785 201.155C294.109 201.365 294.368 201.65 294.563 202.013C294.762 202.375 294.861 202.828 294.861 203.371V208.847H293.008V207.723H292.944C292.827 207.95 292.661 208.163 292.448 208.362C292.239 208.557 291.974 208.715 291.655 208.836C291.339 208.953 290.968 209.012 290.541 209.012ZM291.042 207.595C291.429 207.595 291.765 207.519 292.049 207.366C292.333 207.21 292.551 207.004 292.704 206.748C292.86 206.492 292.938 206.214 292.938 205.912V204.948C292.878 204.997 292.775 205.044 292.63 205.086C292.487 205.129 292.328 205.166 292.15 205.198C291.973 205.23 291.797 205.258 291.623 205.283C291.449 205.308 291.298 205.329 291.17 205.347C290.882 205.386 290.625 205.45 290.398 205.539C290.17 205.628 289.991 205.752 289.86 205.912C289.728 206.068 289.663 206.27 289.663 206.519C289.663 206.874 289.792 207.142 290.051 207.323C290.311 207.505 290.641 207.595 291.042 207.595ZM296.8 211.915V200.665H298.697V202.018H298.809C298.908 201.819 299.048 201.608 299.229 201.384C299.41 201.157 299.655 200.963 299.964 200.804C300.273 200.64 300.668 200.558 301.147 200.558C301.779 200.558 302.349 200.72 302.857 201.043C303.368 201.363 303.773 201.837 304.071 202.465C304.373 203.09 304.524 203.857 304.524 204.767C304.524 205.665 304.377 206.429 304.082 207.057C303.787 207.686 303.386 208.165 302.878 208.495C302.37 208.826 301.795 208.991 301.152 208.991C300.684 208.991 300.295 208.913 299.986 208.756C299.677 208.6 299.428 208.412 299.24 208.192C299.055 207.968 298.911 207.757 298.809 207.558H298.729V211.915H296.8ZM298.691 204.756C298.691 205.285 298.766 205.748 298.915 206.146C299.068 206.544 299.286 206.855 299.57 207.078C299.858 207.299 300.206 207.409 300.614 207.409C301.04 207.409 301.397 207.295 301.685 207.068C301.973 206.837 302.189 206.523 302.335 206.125C302.484 205.724 302.559 205.267 302.559 204.756C302.559 204.248 302.486 203.797 302.34 203.403C302.195 203.009 301.978 202.7 301.69 202.476C301.403 202.252 301.044 202.141 300.614 202.141C300.202 202.141 299.853 202.249 299.565 202.465C299.277 202.682 299.059 202.986 298.91 203.376C298.764 203.767 298.691 204.227 298.691 204.756ZM306.175 211.915V200.665H308.072V202.018H308.184C308.283 201.819 308.423 201.608 308.604 201.384C308.785 201.157 309.03 200.963 309.339 200.804C309.648 200.64 310.043 200.558 310.522 200.558C311.154 200.558 311.724 200.72 312.232 201.043C312.743 201.363 313.148 201.837 313.446 202.465C313.748 203.09 313.899 203.857 313.899 204.767C313.899 205.665 313.752 206.429 313.457 207.057C313.162 207.686 312.761 208.165 312.253 208.495C311.745 208.826 311.17 208.991 310.527 208.991C310.059 208.991 309.67 208.913 309.361 208.756C309.052 208.6 308.803 208.412 308.615 208.192C308.43 207.968 308.286 207.757 308.184 207.558H308.104V211.915H306.175ZM308.066 204.756C308.066 205.285 308.141 205.748 308.29 206.146C308.443 206.544 308.661 206.855 308.945 207.078C309.233 207.299 309.581 207.409 309.989 207.409C310.415 207.409 310.772 207.295 311.06 207.068C311.348 206.837 311.564 206.523 311.71 206.125C311.859 205.724 311.934 205.267 311.934 204.756C311.934 204.248 311.861 203.797 311.715 203.403C311.57 203.009 311.353 202.7 311.065 202.476C310.778 202.252 310.419 202.141 309.989 202.141C309.577 202.141 309.228 202.249 308.94 202.465C308.652 202.682 308.434 202.986 308.285 203.376C308.139 203.767 308.066 204.227 308.066 204.756ZM316.738 208.964C316.415 208.964 316.138 208.85 315.907 208.623C315.676 208.396 315.563 208.119 315.566 207.792C315.563 207.473 315.676 207.199 315.907 206.972C316.138 206.745 316.415 206.631 316.738 206.631C317.051 206.631 317.322 206.745 317.553 206.972C317.788 207.199 317.907 207.473 317.91 207.792C317.907 208.009 317.85 208.206 317.74 208.383C317.633 208.561 317.491 208.703 317.313 208.81C317.139 208.913 316.948 208.964 316.738 208.964ZM323.523 209.007C322.703 209.007 321.994 208.836 321.398 208.495C320.805 208.151 320.348 207.664 320.029 207.036C319.709 206.404 319.549 205.66 319.549 204.804C319.549 203.962 319.709 203.224 320.029 202.588C320.352 201.949 320.803 201.452 321.382 201.096C321.961 200.738 322.641 200.558 323.422 200.558C323.926 200.558 324.402 200.64 324.849 200.804C325.3 200.963 325.698 201.212 326.043 201.549C326.391 201.887 326.664 202.316 326.863 202.838C327.062 203.357 327.161 203.975 327.161 204.692V205.283H320.455V203.984H325.313C325.309 203.614 325.229 203.286 325.073 202.998C324.917 202.707 324.699 202.478 324.418 202.311C324.141 202.144 323.818 202.061 323.449 202.061C323.054 202.061 322.708 202.156 322.41 202.348C322.112 202.536 321.879 202.785 321.712 203.094C321.549 203.399 321.465 203.735 321.462 204.101V205.235C321.462 205.711 321.549 206.12 321.723 206.46C321.897 206.798 322.14 207.057 322.452 207.238C322.765 207.416 323.131 207.505 323.55 207.505C323.83 207.505 324.084 207.465 324.311 207.387C324.539 207.306 324.736 207.187 324.903 207.03C325.07 206.874 325.196 206.681 325.281 206.45L327.081 206.652C326.968 207.128 326.751 207.544 326.431 207.899C326.115 208.25 325.711 208.524 325.217 208.719C324.723 208.911 324.159 209.007 323.523 209.007ZM330.193 200.665L331.845 203.685L333.523 200.665H335.563L333.097 204.756L335.605 208.847H333.576L331.845 205.901L330.13 208.847H328.084L330.577 204.756L328.148 200.665H330.193ZM339.379 209.012C338.861 209.012 338.394 208.92 337.978 208.735C337.566 208.547 337.24 208.27 336.998 207.904C336.76 207.538 336.641 207.087 336.641 206.551C336.641 206.089 336.727 205.708 336.897 205.406C337.068 205.104 337.3 204.862 337.595 204.681C337.89 204.5 338.222 204.364 338.591 204.271C338.964 204.175 339.349 204.106 339.747 204.063C340.226 204.014 340.615 203.969 340.913 203.93C341.212 203.888 341.428 203.824 341.563 203.739C341.702 203.65 341.771 203.513 341.771 203.328V203.296C341.771 202.895 341.652 202.584 341.414 202.364C341.176 202.144 340.834 202.034 340.386 202.034C339.914 202.034 339.539 202.137 339.262 202.343C338.989 202.549 338.804 202.792 338.708 203.073L336.908 202.817C337.05 202.32 337.284 201.904 337.611 201.571C337.938 201.233 338.337 200.981 338.809 200.814C339.282 200.644 339.804 200.558 340.375 200.558C340.77 200.558 341.162 200.605 341.553 200.697C341.943 200.789 342.3 200.942 342.623 201.155C342.946 201.365 343.206 201.65 343.401 202.013C343.6 202.375 343.699 202.828 343.699 203.371V208.847H341.846V207.723H341.782C341.665 207.95 341.499 208.163 341.286 208.362C341.077 208.557 340.812 208.715 340.493 208.836C340.177 208.953 339.805 209.012 339.379 209.012ZM339.88 207.595C340.267 207.595 340.603 207.519 340.887 207.366C341.171 207.21 341.389 207.004 341.542 206.748C341.698 206.492 341.776 206.214 341.776 205.912V204.948C341.716 204.997 341.613 205.044 341.467 205.086C341.325 205.129 341.166 205.166 340.988 205.198C340.81 205.23 340.635 205.258 340.461 205.283C340.287 205.308 340.136 205.329 340.008 205.347C339.72 205.386 339.463 205.45 339.236 205.539C339.008 205.628 338.829 205.752 338.698 205.912C338.566 206.068 338.5 206.27 338.5 206.519C338.5 206.874 338.63 207.142 338.889 207.323C339.149 207.505 339.479 207.595 339.88 207.595ZM345.638 208.847V200.665H347.481V202.055H347.577C347.748 201.587 348.03 201.221 348.424 200.958C348.818 200.692 349.289 200.558 349.836 200.558C350.39 200.558 350.857 200.693 351.237 200.963C351.62 201.23 351.89 201.594 352.046 202.055H352.131C352.313 201.601 352.618 201.239 353.048 200.969C353.481 200.695 353.994 200.558 354.587 200.558C355.34 200.558 355.954 200.796 356.43 201.272C356.906 201.748 357.144 202.442 357.144 203.355V208.847H355.21V203.653C355.21 203.145 355.075 202.774 354.805 202.54C354.536 202.302 354.205 202.183 353.815 202.183C353.35 202.183 352.986 202.329 352.723 202.62C352.464 202.908 352.334 203.282 352.334 203.744V208.847H350.443V203.573C350.443 203.151 350.315 202.813 350.059 202.561C349.807 202.309 349.477 202.183 349.069 202.183C348.792 202.183 348.54 202.254 348.312 202.396C348.085 202.535 347.904 202.732 347.769 202.987C347.634 203.24 347.566 203.534 347.566 203.872V208.847H345.638ZM359.1 211.915V200.665H360.996V202.018H361.108C361.208 201.819 361.348 201.608 361.529 201.384C361.71 201.157 361.955 200.963 362.264 200.804C362.573 200.64 362.967 200.558 363.447 200.558C364.079 200.558 364.649 200.72 365.157 201.043C365.668 201.363 366.073 201.837 366.371 202.465C366.673 203.09 366.824 203.857 366.824 204.767C366.824 205.665 366.676 206.429 366.382 207.057C366.087 207.686 365.686 208.165 365.178 208.495C364.67 208.826 364.095 208.991 363.452 208.991C362.983 208.991 362.594 208.913 362.286 208.756C361.977 208.6 361.728 208.412 361.54 208.192C361.355 207.968 361.211 207.757 361.108 207.558H361.028V211.915H359.1ZM360.991 204.756C360.991 205.285 361.066 205.748 361.215 206.146C361.368 206.544 361.586 206.855 361.87 207.078C362.158 207.299 362.506 207.409 362.914 207.409C363.34 207.409 363.697 207.295 363.985 207.068C364.272 206.837 364.489 206.523 364.635 206.125C364.784 205.724 364.858 205.267 364.858 204.756C364.858 204.248 364.786 203.797 364.64 203.403C364.494 203.009 364.278 202.7 363.99 202.476C363.702 202.252 363.344 202.141 362.914 202.141C362.502 202.141 362.152 202.249 361.865 202.465C361.577 202.682 361.359 202.986 361.21 203.376C361.064 203.767 360.991 204.227 360.991 204.756ZM370.403 197.938V208.847H368.475V197.938H370.403ZM376.008 209.007C375.188 209.007 374.48 208.836 373.883 208.495C373.29 208.151 372.834 207.664 372.514 207.036C372.195 206.404 372.035 205.66 372.035 204.804C372.035 203.962 372.195 203.224 372.514 202.588C372.837 201.949 373.288 201.452 373.867 201.096C374.446 200.738 375.126 200.558 375.907 200.558C376.411 200.558 376.887 200.64 377.335 200.804C377.786 200.963 378.184 201.212 378.528 201.549C378.876 201.887 379.149 202.316 379.348 202.838C379.547 203.357 379.647 203.975 379.647 204.692V205.283H372.94V203.984H377.798C377.795 203.614 377.715 203.286 377.559 202.998C377.402 202.707 377.184 202.478 376.903 202.311C376.626 202.144 376.303 202.061 375.934 202.061C375.54 202.061 375.193 202.156 374.895 202.348C374.597 202.536 374.364 202.785 374.197 203.094C374.034 203.399 373.951 203.735 373.947 204.101V205.235C373.947 205.711 374.034 206.12 374.208 206.46C374.382 206.798 374.625 207.057 374.938 207.238C375.25 207.416 375.616 207.505 376.035 207.505C376.316 207.505 376.57 207.465 376.797 207.387C377.024 207.306 377.221 207.187 377.388 207.03C377.555 206.874 377.681 206.681 377.766 206.45L379.567 206.652C379.453 207.128 379.236 207.544 378.917 207.899C378.601 208.25 378.196 208.524 377.702 208.719C377.209 208.911 376.644 209.007 376.008 209.007ZM382.466 208.964C382.143 208.964 381.866 208.85 381.635 208.623C381.404 208.396 381.29 208.119 381.294 207.792C381.29 207.473 381.404 207.199 381.635 206.972C381.866 206.745 382.143 206.631 382.466 206.631C382.778 206.631 383.05 206.745 383.281 206.972C383.515 207.199 383.634 207.473 383.638 207.792C383.634 208.009 383.577 208.206 383.467 208.383C383.361 208.561 383.219 208.703 383.041 208.81C382.867 208.913 382.675 208.964 382.466 208.964ZM389.197 209.007C388.381 209.007 387.679 208.827 387.093 208.469C386.511 208.11 386.062 207.615 385.746 206.982C385.433 206.347 385.277 205.615 385.277 204.788C385.277 203.957 385.437 203.224 385.756 202.588C386.076 201.949 386.527 201.452 387.109 201.096C387.695 200.738 388.388 200.558 389.187 200.558C389.851 200.558 390.438 200.681 390.95 200.926C391.465 201.167 391.875 201.51 392.18 201.954C392.486 202.394 392.66 202.909 392.702 203.499H390.859C390.785 203.105 390.607 202.776 390.327 202.513C390.05 202.247 389.679 202.114 389.213 202.114C388.819 202.114 388.473 202.22 388.175 202.433C387.876 202.643 387.644 202.945 387.477 203.339C387.313 203.733 387.232 204.205 387.232 204.756C387.232 205.313 387.313 205.793 387.477 206.194C387.64 206.592 387.869 206.899 388.164 207.116C388.462 207.329 388.812 207.435 389.213 207.435C389.497 207.435 389.751 207.382 389.975 207.275C390.202 207.165 390.392 207.007 390.545 206.801C390.698 206.595 390.802 206.345 390.859 206.05H392.702C392.656 206.629 392.486 207.142 392.191 207.59C391.896 208.034 391.495 208.382 390.987 208.634C390.479 208.882 389.883 209.007 389.197 209.007ZM397.855 209.007C397.056 209.007 396.363 208.831 395.777 208.479C395.191 208.128 394.737 207.636 394.414 207.004C394.094 206.372 393.934 205.633 393.934 204.788C393.934 203.943 394.094 203.202 394.414 202.567C394.737 201.931 395.191 201.437 395.777 201.086C396.363 200.734 397.056 200.558 397.855 200.558C398.654 200.558 399.346 200.734 399.932 201.086C400.518 201.437 400.971 201.931 401.29 202.567C401.613 203.202 401.775 203.943 401.775 204.788C401.775 205.633 401.613 206.372 401.29 207.004C400.971 207.636 400.518 208.128 399.932 208.479C399.346 208.831 398.654 209.007 397.855 209.007ZM397.865 207.462C398.298 207.462 398.661 207.343 398.952 207.105C399.243 206.864 399.46 206.54 399.602 206.136C399.747 205.731 399.82 205.28 399.82 204.783C399.82 204.282 399.747 203.829 399.602 203.424C399.46 203.016 399.243 202.691 398.952 202.449C398.661 202.208 398.298 202.087 397.865 202.087C397.421 202.087 397.052 202.208 396.757 202.449C396.466 202.691 396.248 203.016 396.102 203.424C395.96 203.829 395.889 204.282 395.889 204.783C395.889 205.28 395.96 205.731 396.102 206.136C396.248 206.54 396.466 206.864 396.757 207.105C397.052 207.343 397.421 207.462 397.865 207.462ZM403.412 208.847V200.665H405.255V202.055H405.351C405.521 201.587 405.803 201.221 406.198 200.958C406.592 200.692 407.062 200.558 407.609 200.558C408.163 200.558 408.63 200.693 409.01 200.963C409.394 201.23 409.663 201.594 409.82 202.055H409.905C410.086 201.601 410.391 201.239 410.821 200.969C411.254 200.695 411.767 200.558 412.361 200.558C413.113 200.558 413.728 200.796 414.204 201.272C414.679 201.748 414.917 202.442 414.917 203.355V208.847H412.984V203.653C412.984 203.145 412.849 202.774 412.579 202.54C412.309 202.302 411.979 202.183 411.588 202.183C411.123 202.183 410.759 202.329 410.496 202.62C410.237 202.908 410.107 203.282 410.107 203.744V208.847H408.216V203.573C408.216 203.151 408.089 202.813 407.833 202.561C407.581 202.309 407.25 202.183 406.842 202.183C406.565 202.183 406.313 202.254 406.086 202.396C405.858 202.535 405.677 202.732 405.542 202.987C405.407 203.24 405.34 203.534 405.34 203.872V208.847H403.412Z" fill="#2C79E3"/>
<path d="M505.5 152.5C485.5 152.5 481.5 152.5 471.5 142.5C461.5 132.5 457.5 132.5 437.5 132.5" stroke="#3AB222" stroke-width="2" stroke-linecap="round" stroke-linejoin="round"/>
<path d="M507.227 151.852C507.591 152.21 507.591 152.79 507.227 153.148L504.091 156.232C503.727 156.589 503.137 156.589 502.773 156.232C502.409 155.874 502.409 155.293 502.773 154.935L504.317 153.417V151.583L502.773 150.065C502.409 149.707 502.409 149.126 502.773 148.768C503.137 148.411 503.727 148.411 504.091 148.768L507.227 151.852Z" fill="#3AB222"/>
<path d="M435.773 131.852C435.409 132.21 435.409 132.79 435.773 133.148L438.909 136.232C439.273 136.589 439.863 136.589 440.227 136.232C440.591 135.874 440.591 135.293 440.227 134.935L438.683 133.417V131.583L440.227 130.065C440.591 129.707 440.591 129.126 440.227 128.768C439.863 128.411 439.273 128.411 438.909 128.768L435.773 131.852Z" fill="#3AB222"/>
<path d="M437.5 204.5C457.5 204.5 461.5 204.5 471.5 194.5C481.5 184.5 485.5 184.5 505.5 184.5" stroke="#2C79E3" stroke-width="2" stroke-linecap="round" stroke-linejoin="round"/>
<path d="M435.773 203.852C435.409 204.21 435.409 204.79 435.773 205.148L438.909 208.232C439.273 208.589 439.863 208.589 440.227 208.232C440.591 207.874 440.591 207.293 440.227 206.935L438.683 205.417V203.583L440.227 202.065C440.591 201.707 440.591 201.126 440.227 200.768C439.863 200.411 439.273 200.411 438.909 200.768L435.773 203.852Z" fill="#2C79E3"/>
<path d="M507.227 183.852C507.591 184.21 507.591 184.79 507.227 185.148L504.091 188.232C503.727 188.589 503.137 188.589 502.773 188.232C502.409 187.874 502.409 187.293 502.773 186.935L504.317 185.417V183.583L502.773 182.065C502.409 181.707 502.409 181.126 502.773 180.768C503.137 180.411 503.727 180.411 504.091 180.768L507.227 183.852Z" fill="#2C79E3"/>
</svg>
