<svg width="260" height="260" viewBox="0 0 260 260" fill="none" xmlns="http://www.w3.org/2000/svg">
<path d="M179.796 64.2187L202.242 77.3222L224.875 64.2187L202.398 51.1152L179.796 64.2187Z" fill="white" stroke="#3D0F9A" stroke-linejoin="round"/>
<path d="M202.337 102.527L179.86 89.4236L179.798 64.2197L202.243 77.3232L202.337 102.527Z" fill="#3D0F9A" stroke="#3D0F9A" stroke-linejoin="round"/>
<path d="M224.876 64.2197L224.938 89.4236L202.336 102.527L202.242 77.3232L224.876 64.2197Z" fill="white" stroke="#3D0F9A" stroke-linejoin="round"/>
<path d="M249.555 78.9682L227.55 91.8174L205.43 78.9682L227.435 66.1191L249.555 78.9682Z" fill="white" stroke="#3D0F9A" stroke-linejoin="round"/>
<path d="M227.511 117.249L249.516 104.4L249.554 78.9707L227.549 91.8198L227.511 117.249Z" fill="#3D0F9A" stroke="#3D0F9A" stroke-linejoin="round"/>
<path d="M205.429 78.9707L205.352 104.4L227.511 117.249L227.549 91.8198L205.429 78.9707Z" fill="white" stroke="#3D0F9A" stroke-linejoin="round"/>
<path d="M173.817 195.559C174.562 195.134 175.812 195.134 176.557 195.559C177.302 195.985 177.302 196.703 176.557 197.155C175.812 197.581 174.562 197.581 173.817 197.155C173.073 196.73 173.073 196.012 173.817 195.559Z" fill="#FF5A00"/>
<path d="M177.141 88.417L177.078 109.036L195.046 119.455L195.077 98.8359L177.141 88.417Z" fill="#FF5A00" stroke="#3D0F9A" stroke-linejoin="round"/>
<path d="M212.919 88.4179L195.076 98.8368L177.14 88.4179L194.983 77.999L212.919 88.4179Z" fill="#FF5A00" stroke="#3D0F9A" stroke-linejoin="round"/>
<path d="M195.045 119.455L212.888 109.036L212.919 88.417L195.076 98.8359L195.045 119.455Z" fill="#FF5A00" stroke="#3D0F9A" stroke-linejoin="round"/>
<path d="M163.365 201.73C164.11 201.305 165.36 201.305 166.105 201.73C166.85 202.156 166.85 202.874 166.105 203.326C165.36 203.752 164.11 203.752 163.365 203.326C162.62 202.901 162.62 202.182 163.365 201.73Z" fill="#3D0F9A"/>
<path d="M203.06 135.46L183.015 123.896C179.162 121.673 179.188 118.062 183.072 115.857L185.64 114.4" stroke="#3D0F9A" stroke-width="0.5" stroke-dasharray="2 2"/>
<path d="M171.011 136.684C171.011 136.684 170.923 136.684 170.888 136.649C170.801 136.597 170.766 136.509 170.766 136.421V134.651C170.766 134.563 170.818 134.475 170.888 134.423L180.074 129.111C180.074 129.111 180.249 129.059 180.337 129.111C180.425 129.164 180.46 129.252 180.46 129.339V131.11C180.46 131.197 180.407 131.285 180.337 131.338L171.151 136.649C171.151 136.649 171.064 136.684 171.029 136.684H171.011Z" fill="#3D0F9A"/>
<path d="M159.69 139.04V140.828L174.521 138.496L174.503 136.726L159.69 139.04Z" fill="#3D0F9A" stroke="#3D0F9A" stroke-linejoin="round"/>
<path d="M163.74 130.469L159.69 139.041L174.503 136.727L170.927 134.641L180.113 129.329L176.519 127.243L167.316 132.555L163.74 130.469Z" fill="white" stroke="#3D0F9A" stroke-linejoin="round"/>
<path d="M222.463 131.56L242.508 119.996C246.361 117.773 246.336 114.162 242.451 111.958L239.884 110.5" stroke="#3D0F9A" stroke-width="0.5" stroke-dasharray="2 2"/>
<path d="M94.1634 196.814L120.223 211.86L104.429 220.981L150.5 248.001" stroke="#3D0F9A" stroke-dasharray="1.29 1.29"/>
<path d="M107.829 188.97L144.453 210.12L160.247 200.999L190.92 218.713" stroke="#3D0F9A" stroke-dasharray="1.29 1.29"/>
<path d="M59.1081 188.468L102.142 213.314L53.5004 242.5" stroke="#FF5A00"/>
<path d="M120.928 180.945L149.312 197.337L178.611 180.416" stroke="#3D0F9A"/>
<path d="M244.781 144.304L238.181 148.146C238.692 147.865 239.178 147.532 239.639 147.173L246.239 143.331C245.778 143.69 245.292 143.997 244.781 144.304Z" fill="#3D0F9A"/>
<path d="M238.18 148.505C238.18 148.505 237.95 148.454 237.873 148.326C237.771 148.172 237.822 147.941 238.001 147.865C238.487 147.583 238.973 147.275 239.434 146.917C239.434 146.917 239.434 146.917 239.46 146.917L246.06 143.075C246.213 142.972 246.418 143.024 246.52 143.177C246.622 143.331 246.597 143.536 246.443 143.638C245.957 143.997 245.471 144.33 244.96 144.612L238.36 148.454C238.36 148.454 238.257 148.505 238.18 148.505Z" fill="#3D0F9A"/>
<path d="M244.781 144.304L238.181 148.146C238.692 147.865 239.178 147.532 239.639 147.173L246.239 143.331C245.778 143.69 245.292 143.997 244.781 144.304Z" fill="black"/>
<path d="M238.181 148.504C238.181 148.504 237.951 148.453 237.874 148.325C237.772 148.171 237.823 147.94 238.002 147.864C238.488 147.582 238.974 147.274 239.435 146.916C239.435 146.916 239.435 146.916 239.461 146.916L246.061 143.074C246.214 142.971 246.419 143.023 246.521 143.176C246.623 143.33 246.598 143.535 246.444 143.637C245.958 143.996 245.472 144.329 244.961 144.611L238.36 148.453C238.36 148.453 238.258 148.504 238.181 148.504Z" fill="black"/>
<path d="M239.64 147.198L246.24 143.356C245.779 143.715 245.293 144.022 244.782 144.33L238.182 148.172C238.693 147.89 239.179 147.557 239.64 147.198Z" fill="#3D0F9A"/>
<path d="M112.156 8.25488L11.0652 66.1284L10.8025 139.653L111.875 81.7791L112.156 8.25488Z" fill="white"/>
<path d="M112.156 8.25535L11.0647 66.1289L10.802 139.653L111.874 81.7795L112.156 8.25535ZM112.156 6.99805C112.381 6.99805 112.587 7.05434 112.794 7.16694C113.169 7.39213 113.413 7.82374 113.413 8.27412L113.15 81.7983C113.15 82.2487 112.906 82.6615 112.512 82.8867L11.4213 140.76C11.2336 140.873 11.0084 140.929 10.7832 140.929C10.5581 140.929 10.3516 140.873 10.1452 140.76C9.75113 140.535 9.50717 140.122 9.52594 139.672L9.78866 66.1477C9.78866 65.6973 10.0326 65.2844 10.4267 65.0593L111.518 7.16694C111.724 7.05434 111.931 6.99805 112.156 6.99805Z" fill="#3D0F9A"/>
<path d="M27.1649 118.928L21.8666 121.963L21.9175 107.495L27.2158 104.46L27.1649 118.928Z" fill="#3D0F9A"/>
<path d="M43.0593 109.831L37.761 112.866L37.7974 103.848L43.0957 100.813L43.0593 109.831Z" fill="#3D0F9A"/>
<path d="M30.2842 99.2559L30.2217 116.722L34.7148 114.146L34.7773 96.6807L30.2842 99.2559Z" fill="white" stroke="#3D0F9A"/>
<circle cx="10.5414" cy="10.5414" r="10.5414" transform="matrix(-0.866087 0.499893 0.000123428 1 37.7285 64.2686)" fill="#FF5A00"/>
<path d="M28.5993 75.0716C28.0848 75.3686 27.5914 75.8894 27.2276 76.5195C26.8638 77.1496 26.6595 77.8373 26.6595 78.4314C26.6596 79.0255 26.8641 79.4773 27.228 79.6874C27.5919 79.8975 28.0854 79.8487 28.5999 79.5517C29.1144 79.2547 29.6079 78.7339 29.9717 78.1038C30.3354 77.4737 30.5398 76.786 30.5397 76.1919C30.5396 75.5978 30.3351 75.146 29.9713 74.9359C29.6074 74.7258 29.1139 74.7746 28.5993 75.0716ZM28.6 80.6717C26.4562 81.9091 24.72 83.9137 24.7202 85.1513L24.7203 86.2714L32.4806 81.7922L32.4805 80.6722C32.4803 79.4346 30.7438 79.4344 28.6 80.6717Z" fill="white"/>
<path d="M103.537 34.2139C103.537 33.3942 102.962 33.0619 102.252 33.4717L46.5967 65.5955C45.8868 66.0052 45.3114 67.0018 45.3115 67.8215L45.3116 68.9693C45.3117 69.789 45.8873 70.1213 46.5971 69.7115L102.252 37.5877C102.962 37.178 103.538 36.1814 103.537 35.3617L103.537 34.2139Z" fill="#3D0F9A"/>
<path d="M103.537 27.1852C103.537 26.3656 102.962 26.0333 102.252 26.443L46.5967 58.5669C45.8868 58.9766 45.3114 59.9732 45.3115 60.7929L45.3116 61.9407C45.3117 62.7604 45.8873 63.0927 46.5971 62.6829L102.252 30.5591C102.962 30.1494 103.538 29.1527 103.537 28.3331L103.537 27.1852Z" fill="#3D0F9A"/>
<path d="M103.538 41.0726C103.538 40.253 102.963 39.9207 102.253 40.3304L46.5975 72.4542C45.8876 72.864 45.3123 73.8606 45.3123 74.6802L45.3125 75.8281C45.3126 76.6477 45.8881 76.98 46.598 76.5703L102.253 44.4465C102.963 44.0367 103.538 43.0401 103.538 42.2205L103.538 41.0726Z" fill="#3D0F9A"/>
<path d="M103.539 47.9331C103.539 47.1135 102.963 46.7812 102.254 47.1909L46.5984 79.3147C45.8885 79.7245 45.3131 80.7211 45.3132 81.5407L45.3134 82.6886C45.3134 83.5082 45.889 83.8405 46.5989 83.4308L102.254 51.307C102.964 50.8972 103.539 49.9006 103.539 49.081L103.539 47.9331Z" fill="#3D0F9A"/>
<path d="M103.54 54.7936C103.54 53.974 102.964 53.6417 102.254 54.0514L68.7805 73.3723C68.0707 73.7821 67.4953 74.7787 67.4954 75.5983L67.4955 76.7462C67.4956 77.5658 68.0711 77.8981 68.781 77.4884L102.255 58.1675C102.965 57.7577 103.54 56.7611 103.54 55.9415L103.54 54.7936Z" fill="#3D0F9A"/>
<path d="M238.181 148.504C238.181 148.504 237.951 148.453 237.874 148.325C237.772 148.171 237.823 147.94 238.002 147.864C238.488 147.582 238.974 147.274 239.435 146.916C239.435 146.916 239.435 146.916 239.461 146.916L246.061 143.074C246.214 142.971 246.419 143.023 246.521 143.176C246.623 143.33 246.598 143.535 246.444 143.637C245.958 143.996 245.472 144.329 244.961 144.611L238.36 148.453C238.36 148.453 238.258 148.504 238.181 148.504Z" fill="#3D0F9A"/>
<path d="M252.656 197.061L235.703 206.927C234.333 207.721 232.13 207.721 230.76 206.927L194.135 185.786C193.441 185.389 193.103 184.873 193.103 184.337L193.063 190.908C193.063 191.424 193.401 191.96 194.096 192.357L230.721 213.498C232.09 214.292 234.314 214.292 235.663 213.498L252.616 203.632C253.291 203.235 253.629 202.719 253.629 202.203L253.668 195.632C253.668 196.148 253.331 196.664 252.656 197.061Z" fill="white" stroke="#3D0F9A"/>
<path d="M252.637 194.183C254.006 194.977 254.006 196.267 252.637 197.042L235.684 206.907C234.314 207.701 232.111 207.701 230.741 206.907L194.116 185.766C192.746 184.972 192.746 183.702 194.116 182.908L211.069 173.042C212.439 172.248 214.642 172.248 216.012 173.042L252.637 194.183Z" fill="#3D0F9A" stroke="#3D0F9A"/>
<path d="M233.659 207.503H233.123V214.074H233.659V207.503Z" fill="#3D0F9A" stroke="#3D0F9A" stroke-width="0.5"/>
<path d="M252.656 145.945L235.704 155.811C234.334 156.605 232.13 156.605 230.761 155.811L194.116 134.65C193.421 134.253 193.084 133.737 193.084 133.201L193.044 181.558C193.044 182.074 193.381 182.61 194.076 183.007L230.701 204.148C232.071 204.942 234.294 204.942 235.644 204.148L252.597 194.282C253.272 193.885 253.609 193.369 253.609 192.853L253.649 144.496C253.649 145.012 253.311 145.529 252.636 145.926L252.656 145.945Z" fill="white" stroke="#3D0F9A"/>
<path d="M252.637 143.067C254.006 143.861 254.006 145.151 252.637 145.925L235.684 155.791C234.314 156.585 232.111 156.585 230.741 155.791L194.116 134.65C192.746 133.856 192.746 132.586 194.116 131.791L211.069 121.926C212.439 121.132 214.642 121.132 216.012 121.926L252.637 143.067Z" fill="white" stroke="#3D0F9A"/>
<path d="M233.659 156.387H233.123V204.724H233.659V156.387Z" fill="#3D0F9A" stroke="#3D0F9A" stroke-width="0.5"/>
<path d="M226.256 212.366L209.304 222.232C207.934 223.026 205.731 223.026 204.361 222.232L167.736 201.091C167.041 200.694 166.704 200.178 166.704 199.642L166.664 206.212C166.664 206.728 167.002 207.264 167.696 207.661L204.321 228.803C205.691 229.597 207.914 229.597 209.264 228.803L226.217 218.937C226.892 218.54 227.229 218.024 227.229 217.507L227.269 210.937C227.269 211.453 226.931 211.969 226.256 212.366Z" fill="white" stroke="#3D0F9A"/>
<path d="M226.256 209.507C227.625 210.301 227.625 211.592 226.256 212.366L209.303 222.232C207.933 223.026 205.73 223.026 204.36 222.232L167.735 201.09C166.366 200.296 166.366 199.026 167.735 198.232L184.688 188.366C186.058 187.572 188.261 187.572 189.631 188.366L226.256 209.507Z" fill="#3D0F9A" stroke="#3D0F9A"/>
<path d="M207.279 222.827H206.743V229.398H207.279V222.827Z" fill="#3D0F9A" stroke="#3D0F9A" stroke-width="0.5"/>
<path d="M226.256 161.27L209.304 171.136C207.934 171.93 205.731 171.93 204.361 171.136L167.736 149.975C167.041 149.577 166.704 149.061 166.704 148.525L166.664 196.882C166.664 197.398 167.002 197.934 167.696 198.331L204.321 219.472C205.691 220.267 207.914 220.267 209.264 219.472L226.217 209.607C226.892 209.21 227.229 208.693 227.229 208.177L227.269 159.821C227.269 160.337 226.931 160.853 226.256 161.25V161.27Z" fill="white" stroke="#3D0F9A"/>
<path d="M226.256 158.391C227.625 159.185 227.625 160.475 226.256 161.25L209.303 171.115C207.933 171.909 205.73 171.909 204.36 171.115L167.735 149.974C166.366 149.18 166.366 147.91 167.735 147.116L184.688 137.25C186.058 136.456 188.261 136.456 189.631 137.25L226.256 158.391Z" fill="white" stroke="#3D0F9A"/>
<path d="M207.279 171.711H206.743V220.048H207.279V171.711Z" fill="#3D0F9A" stroke="#3D0F9A" stroke-width="0.5"/>
<path d="M198.882 228.227L181.929 238.093C180.559 238.887 178.356 238.887 176.986 238.093L140.341 216.932C139.647 216.535 139.309 216.018 139.309 215.482L139.27 222.053C139.27 222.569 139.607 223.105 140.302 223.502L176.927 244.643C178.296 245.437 180.52 245.437 181.87 244.643L198.822 234.777C199.497 234.38 199.835 233.864 199.835 233.348L199.874 226.778C199.874 227.294 199.537 227.81 198.862 228.207L198.882 228.227Z" fill="white" stroke="#3D0F9A"/>
<path d="M198.861 225.348C200.231 226.142 200.231 227.432 198.861 228.207L181.909 238.072C180.539 238.867 178.335 238.867 176.966 238.072L140.341 216.931C138.971 216.137 138.971 214.867 140.341 214.073L157.293 204.207C158.663 203.413 160.867 203.413 162.236 204.207L198.861 225.348Z" fill="#3D0F9A" stroke="#3D0F9A"/>
<path d="M179.884 238.668H179.348V245.239H179.884V238.668Z" fill="#3D0F9A" stroke="#3D0F9A" stroke-width="0.5"/>
<path d="M208.5 171.5H207V220L217 216L227 208.5V178.5L227.5 160.5L221.5 164L208.5 171.5Z" fill="#3D0F9A"/>
<path d="M198.882 177.111L181.929 186.977C180.559 187.771 178.356 187.771 176.986 186.977L140.341 165.816C139.647 165.419 139.309 164.903 139.309 164.367L139.27 212.724C139.27 213.24 139.607 213.776 140.302 214.173L176.927 235.314C178.296 236.108 180.52 236.108 181.87 235.314L198.822 225.448C199.497 225.051 199.835 224.535 199.835 224.019L199.874 175.662C199.874 176.178 199.537 176.695 198.862 177.092L198.882 177.111Z" fill="white" stroke="#3D0F9A"/>
<path d="M237 155L233.5 156.5V205L243.5 199.5L253.5 193.5V163.5V145L248.5 148.5L237 155Z" fill="#3D0F9A"/>
<path d="M252.31 149.256L235.258 159.161L235.278 165.633L252.31 155.727V149.256Z" fill="white"/>
<path d="M235.278 165.911C235.278 165.911 235.179 165.911 235.139 165.871C235.06 165.831 235 165.732 235 165.633V159.161C235 159.161 235.04 158.983 235.119 158.923L252.171 149.018C252.171 149.018 252.35 148.978 252.429 149.018C252.508 149.057 252.568 149.157 252.568 149.256V155.727C252.568 155.727 252.508 155.906 252.429 155.965L235.377 165.871C235.377 165.871 235.298 165.911 235.238 165.911H235.278ZM235.536 159.32V165.176L252.052 155.588V149.732L235.536 159.34V159.32Z" fill="white"/>
<path d="M252.31 158.05L235.258 167.975L235.278 171.489L252.31 161.583V158.05Z" fill="white"/>
<path d="M235.278 171.747C235.278 171.747 235.179 171.747 235.139 171.707C235.06 171.668 235 171.568 235 171.469V167.955C235 167.955 235.04 167.777 235.119 167.717L252.171 157.812C252.171 157.812 252.35 157.772 252.429 157.812C252.508 157.851 252.568 157.951 252.568 158.05V161.583C252.568 161.583 252.508 161.762 252.429 161.821L235.377 171.727C235.377 171.727 235.298 171.767 235.238 171.767L235.278 171.747ZM235.536 168.114V171.012L252.052 161.424V158.526L235.536 168.134V168.114Z" fill="white"/>
<path d="M198.861 174.233C200.231 175.027 200.231 176.317 198.861 177.091L181.909 186.957C180.539 187.751 178.335 187.751 176.966 186.957L140.341 165.816C138.971 165.022 138.971 163.752 140.341 162.958L157.293 153.092C158.663 152.298 160.867 152.298 162.236 153.092L198.861 174.233Z" fill="white" stroke="#3D0F9A"/>
<path d="M179.884 187.552H179.348V235.889H179.884V187.552Z" fill="#3D0F9A" stroke="#3D0F9A" stroke-width="0.5"/>
<path d="M162.093 168.065C162.697 168.065 163.186 167.789 163.186 167.449C163.186 167.109 162.697 166.833 162.093 166.833C161.489 166.833 161 167.109 161 167.449C161 167.789 161.489 168.065 162.093 168.065Z" fill="#3D0F9A"/>
<path d="M164.586 166.655C165.19 166.655 165.679 166.379 165.679 166.039C165.679 165.699 165.19 165.423 164.586 165.423C163.983 165.423 163.493 165.699 163.493 166.039C163.493 166.379 163.983 166.655 164.586 166.655Z" fill="#3D0F9A"/>
<path d="M167.08 165.232C167.684 165.232 168.173 164.956 168.173 164.616C168.173 164.276 167.684 164 167.08 164C166.477 164 165.987 164.276 165.987 164.616C165.987 164.956 166.477 165.232 167.08 165.232Z" fill="#3D0F9A"/>
<path d="M165.088 169.768C165.692 169.768 166.181 169.492 166.181 169.152C166.181 168.812 165.692 168.536 165.088 168.536C164.485 168.536 163.995 168.812 163.995 169.152C163.995 169.492 164.485 169.768 165.088 169.768Z" fill="#3D0F9A"/>
<path d="M167.581 168.345C168.185 168.345 168.674 168.069 168.674 167.729C168.674 167.389 168.185 167.113 167.581 167.113C166.978 167.113 166.488 167.389 166.488 167.729C166.488 168.069 166.978 168.345 167.581 168.345Z" fill="#3D0F9A"/>
<path d="M170.076 166.934C170.679 166.934 171.169 166.658 171.169 166.318C171.169 165.978 170.679 165.702 170.076 165.702C169.472 165.702 168.982 165.978 168.982 166.318C168.982 166.658 169.472 166.934 170.076 166.934Z" fill="#3D0F9A"/>
<path d="M168.071 171.459C168.674 171.459 169.164 171.184 169.164 170.844C169.164 170.503 168.674 170.228 168.071 170.228C167.467 170.228 166.978 170.503 166.978 170.844C166.978 171.184 167.467 171.459 168.071 171.459Z" fill="#3D0F9A"/>
<path d="M170.565 170.047C171.168 170.047 171.658 169.772 171.658 169.431C171.658 169.091 171.168 168.815 170.565 168.815C169.961 168.815 169.472 169.091 169.472 169.431C169.472 169.772 169.961 170.047 170.565 170.047Z" fill="#3D0F9A"/>
<path d="M173.058 168.626C173.662 168.626 174.151 168.35 174.151 168.01C174.151 167.669 173.662 167.394 173.058 167.394C172.454 167.394 171.965 167.669 171.965 168.01C171.965 168.35 172.454 168.626 173.058 168.626Z" fill="#3D0F9A"/>
<path d="M171.066 173.162C171.669 173.162 172.159 172.886 172.159 172.546C172.159 172.205 171.669 171.93 171.066 171.93C170.462 171.93 169.973 172.205 169.973 172.546C169.973 172.886 170.462 173.162 171.066 173.162Z" fill="#3D0F9A"/>
<path d="M173.559 171.739C174.163 171.739 174.652 171.463 174.652 171.123C174.652 170.783 174.163 170.507 173.559 170.507C172.955 170.507 172.466 170.783 172.466 171.123C172.466 171.463 172.955 171.739 173.559 171.739Z" fill="#3D0F9A"/>
<path d="M176.053 170.328C176.657 170.328 177.146 170.052 177.146 169.712C177.146 169.371 176.657 169.096 176.053 169.096C175.449 169.096 174.96 169.371 174.96 169.712C174.96 170.052 175.449 170.328 176.053 170.328Z" fill="#3D0F9A"/>
<path d="M190.093 152.065C190.697 152.065 191.186 151.789 191.186 151.449C191.186 151.109 190.697 150.833 190.093 150.833C189.489 150.833 189 151.109 189 151.449C189 151.789 189.489 152.065 190.093 152.065Z" fill="#3D0F9A"/>
<path d="M192.586 150.655C193.19 150.655 193.679 150.379 193.679 150.039C193.679 149.699 193.19 149.423 192.586 149.423C191.983 149.423 191.493 149.699 191.493 150.039C191.493 150.379 191.983 150.655 192.586 150.655Z" fill="#3D0F9A"/>
<path d="M195.08 149.232C195.684 149.232 196.173 148.956 196.173 148.616C196.173 148.276 195.684 148 195.08 148C194.477 148 193.987 148.276 193.987 148.616C193.987 148.956 194.477 149.232 195.08 149.232Z" fill="#3D0F9A"/>
<path d="M193.088 153.768C193.692 153.768 194.181 153.492 194.181 153.152C194.181 152.812 193.692 152.536 193.088 152.536C192.485 152.536 191.995 152.812 191.995 153.152C191.995 153.492 192.485 153.768 193.088 153.768Z" fill="#3D0F9A"/>
<path d="M195.581 152.345C196.185 152.345 196.674 152.069 196.674 151.729C196.674 151.389 196.185 151.113 195.581 151.113C194.978 151.113 194.488 151.389 194.488 151.729C194.488 152.069 194.978 152.345 195.581 152.345Z" fill="#3D0F9A"/>
<path d="M198.076 150.934C198.679 150.934 199.169 150.658 199.169 150.318C199.169 149.978 198.679 149.702 198.076 149.702C197.472 149.702 196.982 149.978 196.982 150.318C196.982 150.658 197.472 150.934 198.076 150.934Z" fill="#3D0F9A"/>
<path d="M196.071 155.459C196.674 155.459 197.164 155.184 197.164 154.844C197.164 154.503 196.674 154.228 196.071 154.228C195.467 154.228 194.978 154.503 194.978 154.844C194.978 155.184 195.467 155.459 196.071 155.459Z" fill="#3D0F9A"/>
<path d="M198.565 154.047C199.168 154.047 199.658 153.772 199.658 153.431C199.658 153.091 199.168 152.815 198.565 152.815C197.961 152.815 197.472 153.091 197.472 153.431C197.472 153.772 197.961 154.047 198.565 154.047Z" fill="#3D0F9A"/>
<path d="M201.058 152.626C201.662 152.626 202.151 152.35 202.151 152.01C202.151 151.669 201.662 151.394 201.058 151.394C200.454 151.394 199.965 151.669 199.965 152.01C199.965 152.35 200.454 152.626 201.058 152.626Z" fill="#3D0F9A"/>
<path d="M199.066 157.162C199.669 157.162 200.159 156.886 200.159 156.546C200.159 156.205 199.669 155.93 199.066 155.93C198.462 155.93 197.973 156.205 197.973 156.546C197.973 156.886 198.462 157.162 199.066 157.162Z" fill="#3D0F9A"/>
<path d="M201.559 155.739C202.163 155.739 202.652 155.463 202.652 155.123C202.652 154.783 202.163 154.507 201.559 154.507C200.955 154.507 200.466 154.783 200.466 155.123C200.466 155.463 200.955 155.739 201.559 155.739Z" fill="#3D0F9A"/>
<path d="M204.053 154.328C204.657 154.328 205.146 154.052 205.146 153.712C205.146 153.371 204.657 153.096 204.053 153.096C203.449 153.096 202.96 153.371 202.96 153.712C202.96 154.052 203.449 154.328 204.053 154.328Z" fill="#3D0F9A"/>
<path d="M217.093 137.065C217.697 137.065 218.186 136.789 218.186 136.449C218.186 136.109 217.697 135.833 217.093 135.833C216.489 135.833 216 136.109 216 136.449C216 136.789 216.489 137.065 217.093 137.065Z" fill="#3D0F9A"/>
<path d="M219.586 135.655C220.19 135.655 220.679 135.379 220.679 135.039C220.679 134.699 220.19 134.423 219.586 134.423C218.983 134.423 218.493 134.699 218.493 135.039C218.493 135.379 218.983 135.655 219.586 135.655Z" fill="#3D0F9A"/>
<path d="M222.08 134.232C222.684 134.232 223.173 133.956 223.173 133.616C223.173 133.276 222.684 133 222.08 133C221.477 133 220.987 133.276 220.987 133.616C220.987 133.956 221.477 134.232 222.08 134.232Z" fill="#3D0F9A"/>
<path d="M220.088 138.768C220.692 138.768 221.181 138.492 221.181 138.152C221.181 137.812 220.692 137.536 220.088 137.536C219.485 137.536 218.995 137.812 218.995 138.152C218.995 138.492 219.485 138.768 220.088 138.768Z" fill="#3D0F9A"/>
<path d="M222.581 137.345C223.185 137.345 223.674 137.069 223.674 136.729C223.674 136.389 223.185 136.113 222.581 136.113C221.978 136.113 221.488 136.389 221.488 136.729C221.488 137.069 221.978 137.345 222.581 137.345Z" fill="#3D0F9A"/>
<path d="M225.076 135.934C225.679 135.934 226.169 135.658 226.169 135.318C226.169 134.978 225.679 134.702 225.076 134.702C224.472 134.702 223.982 134.978 223.982 135.318C223.982 135.658 224.472 135.934 225.076 135.934Z" fill="#3D0F9A"/>
<path d="M223.071 140.459C223.674 140.459 224.164 140.184 224.164 139.844C224.164 139.503 223.674 139.228 223.071 139.228C222.467 139.228 221.978 139.503 221.978 139.844C221.978 140.184 222.467 140.459 223.071 140.459Z" fill="#3D0F9A"/>
<path d="M225.565 139.047C226.168 139.047 226.658 138.772 226.658 138.431C226.658 138.091 226.168 137.815 225.565 137.815C224.961 137.815 224.472 138.091 224.472 138.431C224.472 138.772 224.961 139.047 225.565 139.047Z" fill="#3D0F9A"/>
<path d="M228.058 137.626C228.662 137.626 229.151 137.35 229.151 137.01C229.151 136.669 228.662 136.394 228.058 136.394C227.454 136.394 226.965 136.669 226.965 137.01C226.965 137.35 227.454 137.626 228.058 137.626Z" fill="#3D0F9A"/>
<path d="M226.066 142.162C226.669 142.162 227.159 141.886 227.159 141.546C227.159 141.205 226.669 140.93 226.066 140.93C225.462 140.93 224.973 141.205 224.973 141.546C224.973 141.886 225.462 142.162 226.066 142.162Z" fill="#3D0F9A"/>
<path d="M228.559 140.739C229.163 140.739 229.652 140.463 229.652 140.123C229.652 139.783 229.163 139.507 228.559 139.507C227.955 139.507 227.466 139.783 227.466 140.123C227.466 140.463 227.955 140.739 228.559 140.739Z" fill="#3D0F9A"/>
<path d="M231.053 139.328C231.657 139.328 232.146 139.052 232.146 138.712C232.146 138.371 231.657 138.096 231.053 138.096C230.449 138.096 229.96 138.371 229.96 138.712C229.96 139.052 230.449 139.328 231.053 139.328Z" fill="#3D0F9A"/>
<path d="M165.014 198.67C165.384 198.46 165.384 197.777 165.013 197.145C164.642 196.513 164.041 196.171 163.671 196.381C163.3 196.591 163.301 197.274 163.672 197.906C164.043 198.538 164.644 198.88 165.014 198.67Z" fill="#3D0F9A"/>
<path d="M165.02 209.948C165.39 209.738 165.39 209.055 165.019 208.423C164.648 207.791 164.047 207.449 163.676 207.659C163.306 207.87 163.307 208.552 163.678 209.185C164.049 209.817 164.65 210.159 165.02 209.948Z" fill="#3D0F9A"/>
<path d="M159.014 195.67C159.384 195.46 159.384 194.777 159.013 194.145C158.642 193.513 158.041 193.171 157.671 193.381C157.3 193.591 157.301 194.274 157.672 194.906C158.043 195.538 158.644 195.88 159.014 195.67Z" fill="#3D0F9A"/>
<path d="M159.02 206.948C159.39 206.738 159.39 206.055 159.019 205.423C158.648 204.791 158.047 204.449 157.676 204.659C157.306 204.87 157.307 205.552 157.678 206.185C158.049 206.817 158.65 207.159 159.02 206.948Z" fill="#3D0F9A"/>
<path d="M153.014 191.67C153.384 191.46 153.384 190.777 153.013 190.145C152.642 189.513 152.041 189.171 151.671 189.381C151.3 189.591 151.301 190.274 151.672 190.906C152.043 191.538 152.644 191.88 153.014 191.67Z" fill="#3D0F9A"/>
<path d="M153.02 202.948C153.39 202.738 153.39 202.055 153.019 201.423C152.648 200.791 152.047 200.449 151.676 200.659C151.306 200.87 151.307 201.552 151.678 202.185C152.049 202.817 152.65 203.159 153.02 202.948Z" fill="#3D0F9A"/>
<path d="M225.84 164.545L208.788 174.451V180.922L225.84 171.016V164.545Z" fill="white"/>
<path d="M208.788 181.2C208.788 181.2 208.688 181.2 208.649 181.16C208.569 181.12 208.51 181.021 208.51 180.922V174.451C208.51 174.451 208.549 174.272 208.629 174.212L225.681 164.307C225.681 164.307 225.859 164.267 225.939 164.307C226.018 164.346 226.078 164.446 226.078 164.545V171.016C226.078 171.016 226.018 171.195 225.939 171.255L208.887 181.16C208.887 181.16 208.808 181.2 208.748 181.2H208.788ZM209.046 174.609V180.465L225.562 170.877V165.021L209.046 174.609Z" fill="white"/>
<path d="M225.84 173.398L208.788 183.304V186.818L225.84 176.912V173.398Z" fill="white"/>
<path d="M208.788 187.036C208.788 187.036 208.688 187.036 208.649 186.996C208.569 186.957 208.51 186.857 208.51 186.758V183.244C208.51 183.244 208.549 183.066 208.629 183.006L225.681 173.101C225.681 173.101 225.859 173.061 225.939 173.101C226.018 173.14 226.078 173.24 226.078 173.339V176.872C226.078 176.872 226.018 177.051 225.939 177.111L208.887 187.016C208.887 187.016 208.808 187.056 208.748 187.056L208.788 187.036ZM209.046 183.403V186.302L225.562 176.714V173.815L209.046 183.403Z" fill="white"/>
<path d="M181.463 186.908L180 187.5L179.5 238L190.5 231.5L200 224.5L199.512 193.849L200 176L194.146 179.471L181.463 186.908Z" fill="#3D0F9A"/>
<path d="M198.464 180.386L181.412 190.291V196.763L198.464 186.857V180.386Z" fill="#FF5A00"/>
<path d="M181.413 197.041C181.413 197.041 181.313 197.041 181.274 197.001C181.194 196.961 181.135 196.862 181.135 196.763V190.291C181.135 190.291 181.174 190.113 181.254 190.053L198.306 180.148C198.306 180.148 198.484 180.108 198.564 180.148C198.643 180.187 198.703 180.286 198.703 180.386V186.857C198.703 186.857 198.643 187.036 198.564 187.095L181.512 197.001C181.512 197.001 181.433 197.041 181.373 197.041H181.413ZM181.671 190.45V196.306L198.187 186.718V180.862L181.671 190.45Z" fill="#FF5A00"/>
<path d="M198.464 189.239L181.412 199.145V202.678L198.464 192.773V189.239Z" fill="#FF5A00"/>
<path d="M181.413 202.877C181.413 202.877 181.313 202.877 181.274 202.837C181.194 202.797 181.135 202.698 181.135 202.599V199.085C181.135 199.085 181.174 198.907 181.254 198.847L198.306 188.941C198.306 188.941 198.484 188.902 198.564 188.941C198.643 188.981 198.703 189.08 198.703 189.18V192.713C198.703 192.713 198.643 192.892 198.564 192.951L181.512 202.857C181.512 202.857 181.433 202.897 181.373 202.897L181.413 202.877ZM181.671 199.244V202.142L198.187 192.554V189.656L181.671 199.264V199.244Z" fill="#FF5A00"/>
<path d="M158.673 248.456L158.089 246.061H156.698C155.187 245.088 152.983 244.466 150.522 244.466C148.062 244.466 145.857 245.082 144.346 246.061H143.01L142.371 248.429H142.382C142.311 248.678 142.268 248.927 142.268 249.186C142.268 251.793 145.967 253.901 150.522 253.901C155.078 253.901 158.777 251.793 158.777 249.186C158.777 248.938 158.733 248.7 158.668 248.462L158.673 248.456Z" fill="#3D0F9A"/>
<path d="M150.527 254.166C145.825 254.166 142 251.927 142 249.18C142 249.023 142.016 248.867 142.044 248.694H142.033L142.115 248.353L142.807 245.785H144.275C145.885 244.773 148.16 244.189 150.533 244.189C152.906 244.189 155.176 244.768 156.791 245.785H158.318L158.951 248.391C159.028 248.683 159.066 248.932 159.066 249.18C159.066 251.927 155.241 254.166 150.538 254.166H150.527ZM142.731 248.158L142.644 248.504C142.573 248.753 142.54 248.975 142.54 249.186C142.54 251.635 146.119 253.63 150.522 253.63C154.925 253.63 158.504 251.635 158.504 249.186C158.504 248.986 158.471 248.78 158.406 248.531L157.876 246.336H156.622L156.556 246.293C155.028 245.309 152.83 244.746 150.527 244.746C148.225 244.746 146.026 245.309 144.499 246.293L144.433 246.336H143.222L142.731 248.164V248.158Z" fill="#3D0F9A"/>
<path d="M158.155 246.607C158.155 249.002 154.751 250.949 150.555 250.949C146.359 250.949 142.955 249.007 142.955 246.607C142.955 244.206 146.359 242.265 150.555 242.265C154.751 242.265 158.155 244.206 158.155 246.607Z" fill="white"/>
<path d="M158.067 247.84C158.067 250.235 154.663 252.182 150.467 252.182C146.272 252.182 142.867 250.241 142.867 247.84C142.867 245.439 146.272 243.498 150.467 243.498C154.663 243.498 158.067 245.439 158.067 247.84Z" fill="white"/>
<path d="M150.554 242C146.212 242 142.682 244.071 142.682 246.612C142.682 249.154 146.212 251.225 150.554 251.225C154.897 251.225 158.427 249.154 158.427 246.612C158.427 244.071 154.897 242 150.554 242ZM150.554 250.684C146.512 250.684 143.227 248.856 143.227 246.612C143.227 244.368 146.517 242.541 150.554 242.541C154.592 242.541 157.881 244.368 157.881 246.612C157.881 248.856 154.592 250.684 150.554 250.684Z" fill="#3D0F9A" stroke="#3D0F9A" stroke-width="0.5"/>
<path d="M150.527 244.319C148.394 244.319 146.659 245.228 146.659 246.352C146.659 247.477 148.389 248.386 150.527 248.386C152.666 248.386 154.395 247.477 154.395 246.352C154.395 245.228 152.666 244.319 150.527 244.319Z" fill="#3D0F9A"/>
<path d="M62.6731 242.456L62.0894 240.061H60.6981C59.1869 239.088 56.9828 238.466 54.5222 238.466C52.0616 238.466 49.8575 239.082 48.3462 240.061H47.0096L46.3712 242.429H46.3821C46.3112 242.678 46.2676 242.927 46.2676 243.186C46.2676 245.793 49.9666 247.901 54.5222 247.901C59.0778 247.901 62.7768 245.793 62.7768 243.186C62.7768 242.938 62.7332 242.7 62.6677 242.462L62.6731 242.456Z" fill="#3D0F9A"/>
<path d="M54.5274 248.166C49.8245 248.166 46 245.927 46 243.18C46 243.023 46.0164 242.867 46.0436 242.694H46.0327L46.1146 242.353L46.8075 239.785H48.2751C49.8845 238.773 52.1596 238.189 54.5329 238.189C56.9061 238.189 59.1757 238.768 60.7907 239.785H62.3183L62.9512 242.391C63.0275 242.683 63.0657 242.932 63.0657 243.18C63.0657 245.927 59.2412 248.166 54.5383 248.166H54.5274ZM46.7311 242.158L46.6438 242.504C46.5729 242.753 46.5401 242.975 46.5401 243.186C46.5401 245.635 50.1191 247.63 54.5219 247.63C58.9248 247.63 62.5038 245.635 62.5038 243.186C62.5038 242.986 62.471 242.78 62.4056 242.531L61.8764 240.336H60.6215L60.5561 240.293C59.0284 239.309 56.8297 238.746 54.5274 238.746C52.2251 238.746 50.0264 239.309 48.4988 240.293L48.4333 240.336H47.2221L46.7311 242.164V242.158Z" fill="#3D0F9A"/>
<path d="M62.1549 240.607C62.1549 243.002 58.7505 244.949 54.555 244.949C50.3595 244.949 46.9551 243.007 46.9551 240.607C46.9551 238.206 50.3595 236.265 54.555 236.265C58.7505 236.265 62.1549 238.206 62.1549 240.607Z" fill="white"/>
<path d="M62.067 241.84C62.067 244.235 58.6626 246.182 54.4671 246.182C50.2716 246.182 46.8672 244.241 46.8672 241.84C46.8672 239.439 50.2716 237.498 54.4671 237.498C58.6626 237.498 62.067 239.439 62.067 241.84Z" fill="white"/>
<path d="M54.5543 236C50.2115 236 46.6816 238.071 46.6816 240.612C46.6816 243.154 50.2115 245.225 54.5543 245.225C58.8972 245.225 62.4271 243.154 62.4271 240.612C62.4271 238.071 58.8972 236 54.5543 236ZM54.5543 244.684C50.5116 244.684 47.2272 242.856 47.2272 240.612C47.2272 238.368 50.5171 236.541 54.5543 236.541C58.5916 236.541 61.8815 238.368 61.8815 240.612C61.8815 242.856 58.5916 244.684 54.5543 244.684Z" fill="#3D0F9A" stroke="#3D0F9A" stroke-width="0.5"/>
<path d="M54.5273 238.319C52.3941 238.319 50.6592 239.228 50.6592 240.352C50.6592 241.477 52.3887 242.386 54.5273 242.386C56.666 242.386 58.3955 241.477 58.3955 240.352C58.3955 239.228 56.666 238.319 54.5273 238.319Z" fill="#3D0F9A"/>
<path d="M82.1055 77.6562C92.7826 71.4918 102.258 71.2981 108.788 75.7588C109.938 76.544 113.368 78.8717 116.72 81.1445C118.663 82.4626 120.581 83.7621 122.013 84.7324C122.728 85.2176 123.323 85.6208 123.738 85.9023C123.946 86.043 124.109 86.1533 124.22 86.2285C124.275 86.2661 124.318 86.295 124.347 86.3145C124.361 86.3241 124.372 86.332 124.379 86.3369C124.382 86.3391 124.385 86.3406 124.387 86.3418L124.389 86.3438H124.39C124.39 86.3431 124.401 86.3265 124.67 85.9297C124.95 85.5158 124.95 85.5156 124.95 85.5156L124.948 85.5146C124.946 85.5134 124.943 85.5113 124.939 85.5088C124.932 85.5039 124.921 85.4959 124.907 85.4863C124.879 85.4669 124.836 85.4379 124.78 85.4004C124.669 85.3252 124.506 85.2148 124.299 85.0742C123.883 84.7927 123.289 84.3904 122.573 83.9053C121.279 83.0279 119.588 81.8803 117.839 80.6943C119.523 79.3498 121.32 78.1502 123.093 77.127C130.601 72.7923 137.263 72.5212 141.96 75.3916C144.31 76.8276 148.231 79.4963 151.574 81.8125C153.243 82.969 154.766 84.0352 155.87 84.8125C156.421 85.1998 156.867 85.5154 157.177 85.7344L49.0596 193.463C48.9815 193.417 48.8902 193.364 48.7871 193.304C48.3994 193.076 47.8411 192.747 47.1602 192.34C45.7978 191.526 43.9444 190.403 41.9795 189.167C40.0139 187.931 37.9401 186.583 36.1357 185.32C34.3231 184.052 32.8091 182.888 31.9453 182.015C29.6947 179.74 28.3203 176.056 28.3203 171.129C28.3203 165.428 30.1637 159.131 33.2217 153.375C36.2195 147.732 40.3673 142.644 45.0332 139.171L60.5625 149.526L60.8398 149.11L61.1182 148.694L45.5342 138.303C46.1557 126.974 50.4038 114.667 56.9287 103.771C63.5081 92.7846 72.3767 83.2732 82.1055 77.6562Z" fill="white" stroke="#3D0F9A"/>
<path fill-rule="evenodd" clip-rule="evenodd" d="M43.4199 181.529C43.4199 194.139 52.2708 199.25 63.1889 192.947L138.443 149.499C153.364 140.884 165.46 119.931 165.46 102.698C165.46 85.4654 153.364 78.4794 138.443 87.0943C135.797 88.622 133.239 90.5378 130.823 92.752C124.907 81.747 112.19 79.1161 97.455 87.6231C77.8154 98.962 61.7592 125.951 60.6179 148.96C50.9145 156.018 43.4199 169.926 43.4199 181.529Z" fill="#3D0F9A"/>
<path d="M93.748 196.625L93.748 186.225C93.748 185.866 94.0001 185.43 94.311 185.25C94.6219 185.071 94.8739 185.216 94.8739 185.575L94.8739 195.975C94.8739 196.334 94.6219 196.771 94.311 196.95C94.0001 197.13 93.748 196.984 93.748 196.625ZM107.258 188.825L107.258 178.425C107.258 178.066 107.51 177.63 107.821 177.45C108.132 177.271 108.384 177.416 108.384 177.775L108.384 188.175C108.384 188.534 108.132 188.971 107.821 189.15C107.51 189.33 107.258 189.184 107.258 188.825ZM120.768 181.025L120.768 170.625C120.768 170.266 121.02 169.83 121.331 169.65C121.642 169.471 121.894 169.616 121.894 169.975L121.894 180.375C121.894 180.734 121.642 181.171 121.331 181.35C121.02 181.53 120.768 181.384 120.768 181.025Z" fill="#FF5A00"/>
<path d="M81.2037 127.121L123.985 102.421C125.046 101.808 126.011 101.719 126.736 102.068C127.167 102.276 129.192 103.619 131.133 104.929C132.098 105.58 133.034 106.218 133.73 106.693C134.078 106.93 134.366 107.127 134.567 107.265C134.633 107.31 134.689 107.349 134.736 107.381L128.062 154.079L128.055 154.126L128.055 154.17C128.055 156.766 126.233 159.923 123.985 161.221L123.946 161.243L123.908 161.273L85.8645 191.235C85.8228 191.208 85.7744 191.175 85.7182 191.138C85.5213 191.01 85.2389 190.826 84.8978 190.603C84.2153 190.157 83.2965 189.554 82.3522 188.931C80.4561 187.68 78.4757 186.359 78.0728 186.033C77.4857 185.557 77.1332 184.713 77.1332 183.57L77.1332 134.171C77.1332 131.575 78.9557 128.418 81.2037 127.121Z" fill="white" stroke="#3D0F9A"/>
<path d="M89.0035 132.32L131.785 107.62C134.033 106.322 135.855 107.374 135.855 109.97L135.855 159.37C135.855 161.965 134.033 165.122 131.785 166.42L89.0035 191.12C86.7555 192.417 84.933 191.365 84.933 188.77L84.933 139.37L84.9381 139.125C85.0472 136.579 86.8258 133.577 89.0035 132.32Z" fill="white" stroke="#3D0F9A"/>
<path d="M118.718 154.575V134.555L123.622 131.724V151.744L118.718 154.575Z" fill="#FF5A00"/>
<path d="M97.166 167.018L104.819 142.579L109.649 139.791L117.327 155.378L112.225 158.324L106.231 144.538L108.163 143.423L102.169 164.129L97.166 167.018ZM101.352 160.712L102.615 155.807L111.086 150.916L112.349 154.362L101.352 160.712Z" fill="#FF5A00"/>
<path d="M93.748 124.085L93.748 113.685C93.748 113.326 94.0001 112.89 94.311 112.71C94.6219 112.531 94.8739 112.676 94.8739 113.035L94.8739 123.435C94.8739 123.794 94.6219 124.231 94.311 124.41C94.0001 124.59 93.748 124.444 93.748 124.085ZM107.258 116.285L107.258 105.885C107.258 105.526 107.51 105.09 107.821 104.91C108.132 104.731 108.384 104.876 108.384 105.235L108.384 115.635C108.384 115.994 108.132 116.431 107.821 116.61C107.51 116.79 107.258 116.644 107.258 116.285ZM120.768 108.485L120.768 98.0852C120.768 97.7262 121.02 97.2896 121.331 97.1102C121.642 96.9307 121.894 97.0762 121.894 97.4352L121.894 107.835C121.894 108.194 121.642 108.631 121.331 108.81C121.02 108.99 120.768 108.844 120.768 108.485Z" fill="#FF5A00"/>
<path d="M198.69 40.0115L154.175 14.3056H154.153C152.877 13.5629 151.731 13.5427 150.944 14.108C150.264 14.5959 146.777 17.2498 146.777 17.2498L149.851 21.786C149.851 24.5317 151.775 27.8612 154.153 29.2448L198.69 54.9508L206.91 63.5542C206.91 63.5542 210.394 61.0109 211.182 60.3555C211.793 59.8484 212.159 58.9593 212.159 57.7615V52.7674C212.159 50.0217 210.235 46.6922 207.856 45.3085L198.69 40.0115Z" fill="white" stroke="#3D0F9A"/>
<path d="M212.159 52.7666C212.159 50.0209 210.235 46.6915 207.857 45.3078L198.691 40.0107L194.513 43.1272L192.075 46.1497L198.691 54.95L206.911 63.5534C206.911 63.5534 210.394 61.0101 211.183 60.3547C211.793 59.8477 212.159 58.9585 212.159 57.7608V52.7666Z" fill="#3D0F9A" stroke="#3D0F9A"/>
<path d="M150.016 17.4247L194.531 43.1306V58.0699L149.994 32.364C147.616 30.9803 145.692 27.6509 145.692 24.9051V19.911C145.692 17.1653 147.616 16.041 149.994 17.4247H150.016Z" fill="white" stroke="#3D0F9A"/>
<path d="M203.698 48.4276C206.076 49.8112 208 53.1407 208 55.8864V60.8806C208 63.6263 206.076 64.7505 203.698 63.3668L194.552 58.0916V43.1523L203.698 48.4276Z" fill="#3D0F9A" stroke="#3D0F9A"/>
<path d="M200.671 55.5839C200.93 55.5839 201.19 55.519 201.406 55.3893C201.925 55.0866 202.206 54.4813 202.206 53.6813C202.206 52.9462 201.968 52.1031 201.514 51.3464C200.541 49.66 198.985 48.8169 197.947 49.4222C196.909 50.0276 196.866 51.8004 197.839 53.4867C198.293 54.2651 198.876 54.892 199.525 55.2596C199.914 55.4974 200.325 55.6055 200.671 55.6055V55.5839ZM198.703 49.8546C199.417 49.8546 200.347 50.5681 200.974 51.6491C201.363 52.3193 201.579 53.0327 201.579 53.6813C201.579 54.2434 201.406 54.6542 201.082 54.8272C200.757 55.0001 200.325 54.9569 199.828 54.6758C199.287 54.3515 198.768 53.811 198.379 53.1408C197.623 51.822 197.558 50.3735 198.271 49.9627C198.401 49.8979 198.531 49.8546 198.703 49.8546Z" fill="white"/>
<path d="M204.497 61.0762C204.497 61.0762 204.605 61.0762 204.648 61.033C204.8 60.9465 204.865 60.7519 204.756 60.6006L201.513 54.9578C201.427 54.8065 201.232 54.7416 201.081 54.8497C200.93 54.9362 200.865 55.1308 200.973 55.2821L204.216 60.9249C204.216 60.9249 204.389 61.0762 204.497 61.0762Z" fill="white"/>
</svg>
